<svg height="48" viewBox="0 0 48 48" width="48" xmlns="http://www.w3.org/2000/svg" xmlns:xlink="http://www.w3.org/1999/xlink"><defs><path id="a" d="m8 9h32c2.209139 0 4 1.790861 4 4v22c0 2.209139-1.790861 4-4 4h-32c-2.209139 0-4-1.790861-4-4v-22c0-2.209139 1.790861-4 4-4z"/><mask id="b" fill="#fff"><use fill="#fff" fill-rule="evenodd" xlink:href="#a"/></mask></defs><g fill="none" fill-rule="evenodd"><path d="m0 0h48v48h-48z"/><use fill="#d8d8d8" xlink:href="#a"/><g mask="url(#b)"><g transform="translate(4 9)"><path d="m0 0h40v30h-40z" fill="#d0103a" fill-rule="nonzero"/><path d="m0 0h27.2v30h-27.2z" fill="#fedf00" fill-rule="nonzero"/><path d="m0 0h12.8v30h-12.8z" fill="#0018a8" fill-rule="nonzero"/><path d="m18.7748125 8.5391875c.482 0 .679125.4135625 1.161125.4135625.2975 0 .471125-.0971875.7304375-.2435.1809375-.1025.2964375-.157125.50425-.157125.21275 0 .343125.064375.452.2466875.0615.10325.1125.3051875.0855.4210625-.05125.21975-.0828125.31525-.1704375.518125-.04175.0975-.081125.1559375-.081125.262625 0 .2558125.348125.34375.584875.347375.051625.0008125.485625.0079375.752625-.2625-.145-.00625-.3070625-.1185-.3070625-.263375 0-.164.11525-.275.2714375-.3223125.0296875-.0085.08025.01775.107125.0035625.038125-.01975.0201875-.0626875.054125-.0895625.07775-.062125.1283125-.1009375.2279375-.1009375.065 0 .103125.009125.1554375.046625.0275.0198125.0376875.044375.071625.044375.071375 0 .10675-.0453125.178125-.0453125.0579375 0 .0933125.0078125.1441875.0339375.042375.021875.0414375.0939375.0895.0939375.0240625 0 .15125-.05175.2175-.05175.1379375 0 .2115.05.300625.1545.024.0283125.039375.0855.06375.0855.04925 0 .162625.0316875.2333125.102375.030375.030375.043875.04475.0671875.0815.01625.02625.04125.09.07.1010625.033625.013.061875.0105.106125.0389375.101125.06475.17875.1864375.1751875.304375-.00125.0395625-.019375.09475-.03.1325-.1176875.41125-.3976875.541875-.680375.8951875-.1201875.150625-.215.270625-.215.463625 0 .0466875.0575.132125.082875.171-.0155-.090625.0259375-.2020625.12175-.20725.13125-.0070625.23275.09275.2504375.22275.0035.0304375-.0078125.0829375-.02075.114.070625-.046625.16375-.078125.248625-.088125.046-.004875.0725-.00625.1191875-.005125.2098125.0051875.441375.123125.581875.2425.43.36525.481875.89975.4585 1.048125-.0521875.329875-.019375.92675-.8625 1.16475.156.065625.2620625.1829375.2620625.327125 0 .156875-.12025.29125-.277125.29125-.08975 0-.152-.022-.214875-.084875-.1753125.17525-.2091875.3540625-.2091875.602125 0 .1484375.0283125.2360625.0905.370375.06575.1420625.113125.2254375.231875.3279375.062875-.09475.129375-.1640625.243125-.1640625.11025 0 .2035625.035375.24875.13575.0134375.030375.0014375.055125.017.0848125.01975.038125.053.046625.0735.0848125.031875.05875.000625.108875.02825.1696875.0176875.0395625.0565625.04525.0735.0848125.026875.06075.0339375.1025.0339375.169625 0 .188-.1710625.3223125-.3590625.3223125-.0565625 0-.087625-.022625-.1441875-.017.1075.1075.189375.154125.2714375.2828125.11875.185875.1484375.318125.17525.537125.005.0409375.005625.065625.005625.107375 0 .28125-.04375.4495625-.1695625.701125-.12025.241-.2226875.374625-.441125.5315-.340625.24525-.58875.3159375-1.0008125.3958125-.264375.050875-.415625.0735-.68425.0904375-.3435.021875-.53925.022625-.8820625.04525-.4495625.030375-.76125.094-1.08.41275.1505.11025.254375.218375.254375.404375 0 .19075-.118.327125-.299625.38725-.0425.014125-.0735.001375-.113125.022625-.0473125.0246875-.0451875.079125-.0904375.107375-.08.0509375-.142125.06225-.2375.06225-.16825 0-.28275-.039625-.4015-.158375-.137875.1145-.1845.21775-.339375.305375-.0508125.02825-.076875.0678125-.135625.0678125-.0925 0-.135-.058625-.2091875-.113125-.118125-.08625-.181-.1434375-.277125-.254375-.140625.084125-.226875.1526875-.3901875.1526875-.100375 0-.1639375-.0141875-.24875-.067875-.0445625-.0275-.051625-.0685625-.096125-.096125-.0466875-.029-.085625-.018375-.13575-.0395625-.18875-.08125-.311-.22125-.311-.426875 0-.18025.11375-.29475.2770625-.370375-.313125-.313125-.62125-.3675-1.063-.3958125-.341375-.021875-.53575-.022625-.8764375-.04525-.27075-.018375-.42125-.0459375-.69-.0904375-.20275-.03325-.3229375-.04375-.50875-.13-.6396875-.2983125-1.0475-.7075-1.1309375-1.408-.0070625-.06-.005625-.0946875-.005625-.1555 0-.3646875.1434375-.5873125.4014375-.8453125-.0664375-.015625-.1109375.006375-.1753125-.016875-.161125-.05875-.2770625-.1704375-.2770625-.3421875 0-.0635625.002875-.106.0339375-.161125.021875-.0389375.063625-.0466875.0735-.0905.0126875-.058-.004375-.099.0225-.1526875.01775-.036125.0509375-.043125.0679375-.07925.0558125-.115875.1258125-.2091875.254375-.2091875.1103125 0 .181.0579375.2375.1526875.1075-.0495.137125-.13.1979375-.231875.1010625-.168875.147-.286875.147-.483375 0-.137125-.0134375-.21775-.0565-.34775-.031125-.0933125-.043875-.156875-.113125-.22625-.062875.0629375-.125125.084875-.214875.084875-.1795 0-.316625-.1540625-.316625-.333625 0-.1335625.06575-.2325.186625-.288375-.096875-.083375-.1809375-.0904375-.288375-.1583125-.1633125-.103125-.220625-.212-.328-.373125-.07-.105375-.0883125-.178875-.124375-.2996875-.043125-.145625-.067875-.2325-.067875-.3845 0-.0395625.00075-.0629375.005625-.101875.0403125-.3066875.0955-.4989375.2884375-.740625.1145625-.1435.1923125-.231875.361875-.3053125.14425-.0621875.2304375-.1075.387375-.1075.047375 0 .075 0 .1215625.00575.072125.0091875.118125.015625.1809375.050875.0240625.0134375.067875.05375.067875.0254375 0-.0325-.017-.049375-.017-.081875 0-.130125.0933125-.248875.223375-.248875.094 0 .1321875.08275.178125.1640625.0296875-.0495.0451875-.0834375.0451875-.141375 0-.214875-.11525-.324375-.24875-.491875-.29125-.3640625-.656-.534375-.656-1.000875 0-.13925.0671875-.234.186625-.305375.034625-.0205.08125 0 .115125-.0216875.0289375-.018375.025625-.0558125.044-.0855.029-.046.054625-.06575.095-.1010625.066375-.0579375.1246875-.040625.198125-.0915.036875-.0255.0455-.0585625.07375-.0925.082-.0989375.155625-.1466875.285-.1466875.065 0 .1014375.000375.1615625.02425.0205.007875.05875.03875.06375.0328125.013-.015625.048125-.05275.0898125-.0725.054375-.02625.0765-.03625.13725-.03625.06925 0 .1146875.03875.1839375.03875.0254375 0 .03125-.025375.051875-.03875.0614375-.04175.096875-.0653125.17175-.0653125.0720625 0 .111875.02375.1726875.0626875.05725.036.0655.084375.124125.11825.0325.0190625.06.010625.096125.022625.16125.05375.2828125.161125.2828125.33075 0 .091875-.021875.1575-.0905.217625-.054375.048125-.106.0395625-.17525.0621875.22475.1795.4203125.2240625.70725.2240625.262875 0 .584375-.1075.584375-.370375 0-.1223125-.0675-.188-.115625-.300375-.08625-.2-.133-.3176875-.133-.535375 0-.1725.01875-.2770625.1191875-.417.103125-.1441875.2291875-.1778125.4065625-.1778125z" fill="#c7b37f" fill-rule="nonzero"/><g fill="none" fill-rule="evenodd" transform="translate(14 8.5)"><path d="m3.023625 1.44896415c.01955767.06743806.07936445.13055234.17318456.15726942.05640545.01613351.18693162.00968011.27153979-.0898959.06859356-.08066753.06334983-.18069527.03769811-.26007213-.0165815-.05136908-.0621452-.10099575-.12230628-.14326554l-.35997446.33280198-.00014172.0032267z" stroke="#703d29" stroke-linejoin="round" stroke-width=".1"/><path d="m11.064375 6.257625c-.074625-.180375-.2675-.0995625-.279375 0-.02725.22925.17375.2985.31675.26125.0708125-.0185.1226875-.063125.1558125-.12125.0375-.065625.04875-.15125.024375-.233-.0109053-.03747553-.0288735-.07252108-.0529375-.10325-.0219544-.02976769-.0490459-.05537765-.08-.075625-.055-.035-.115-.0385625-.2089375-.0385625-.3483125 0-.653125.4115625-.7554375.8390625-.03375.1408125-.08.454875-.0158125.752625.068375.3171875.2055.536875.366375.703375.0870625.0901875.2058125.1705.3595625.2575.0475.02675.1728125.082375.259875.10725.089375.025625.172.021875.246375.005625.206375-.04475.3023125-.2366875.198375-.433125-.0851875-.1608125-.3359375-.24875-.454125-.0435-.01.017375-.025625.0553125-.025125.096375.000625.05475.023375.120625.0625.145625.08975.057125.2335.0409375.226875-.117625" stroke="#703d29" stroke-linecap="round" stroke-width=".1"/><path d="m9.987625 8.6228125c.069875-.08225.23025-.205625.41375-.228125.186125-.022875.347875.03125.513125.1201875.3223125.173375.502125.35975.621875.705625.0304375.0878125.055625.2201875.0521875.3608125-.005625.22425-.0625.469375-.12375.58775-.05325.103375-.19275.55975-.95775.87475-.4464375.18375-1.132.226125-1.60475.2448125-.65025.025625-1.250125.04975-1.5985.4789375" stroke="#703d29" stroke-width=".1"/><g stroke="#703d29" stroke-width=".1" transform="translate(4.5 .3125)"><path d="m5.65 9.0455c-.018625-.0684375-.001375-.134.052875-.208375.0725-.099375.227-.13375.367-.0559375.046875.0259375.1055.0601875.1585625.1305.02.026625.054.0695625.0715625.0995625.0423125.0725.05975.13175.068125.155625.15375.4370625-.090625.91075-.41025 1.1008125-.24825.147625-.544375.2134375-.89875.255-.159375.01875-.25025.0175-.4105.024875-.1289375.0060625-.2403125.003875-.3451875.002625-.08625-.0010625-.168125-.000625-.251875-.0025-.136625-.00325-.278-.0064375-.451.00625-.1820625.013125-.3189375.0178125-.47275.0434375-.1005.01675-.21825.0329375-.3416875.060625-.037125.0083125-.0746875.015-.1125.0264375l-.0751875.023c-.222875.068-.439375.1508125-.6103125.260875-.05275.034-.112375.068-.155.1083125-.026625.025-.0589375.05025-.085.075875-.119625.117625-.241875.245-.2705.4175-.00525.031875-.00525.065125-.00525.10025 0 .111875.0910625.264375.33675.314125m.3456875-10.6325c.051375.093.0796875.1495625.04975.245625-.033875.109-.111125.17425-.2208125.17425-.24875 0-.395125-.2945625-.283-.4820625.1990625-.33275.5815625-.145875.9360625.0189375-.017125-.0853125-.047-.113125-.043875-.21875.00775-.262625.2025-.38175.2801875-.62425.046375-.1445.0648125-.27-.0409375-.372625-.0923125-.089625-.19925-.08825-.31975-.041-.24075.094375-.529875.3655-1.038875.373-.5089375-.0075-.8005-.27875-1.04125-.373-.120375-.04725-.227375-.048625-.3196875.041-.10575.102625-.0873125.228125-.041.372625.07775.2425.2725.361625.2801875.6241875.003125.10575-.02675.1335-.04375.21875.354375-.16475.751875-.368375.936-.018875.102625.19475-.0341875.4820625-.283.4820625-.1096875 0-.1866875-.07-.2208125-.1741875-.030375-.0928125 0-.1740625.04975-.245625"/><path d="m1.20145259 1.179125c.27224124.0735.464474.1639375.43243521.3109375-.03487095.1595625-.14426308.198-.4965128.2828125m.42429276-.237375c-.0159309.096125-.12797817.1583125-.4000424.197875" stroke-linecap="round"/></g><path d="m3.33390636 1.07962641.04898103.03141195.05242445.0503729.03485594.06295033.01756852.05346985.0035137.06908102-.0035137.04714954-.01756852.05340665-.03492621.03773227-.0420239.04089243-.05945186.0282518-.0769501.01580079-.06633872.00935406-.0699227-.028315-.06289529-.04082923-.03843992-.05030969-.02796908-.06288712v-.02528126l.34265636-.2923777z" fill="#c7b37f" fill-rule="nonzero"/><g stroke="#703d29"><path d="m3.200375 1.3228125c-.019125-.10325-.1398125-.124375-.1865625-.0634375-.071875.093875-.019375.25025.127125.2960625.04975.015625.1648125.009375.239375-.087125.060625-.078125.0559375-.175.0333125-.251875-.014625-.04975-.0545625-.093125-.107875-.13375-.17-.129375-.4446875-.0995-.534875.118125-.116375.280875.136875.4914375.37.65.29375.1996875.62825.236.8801875.2333125.57225-.00625 1.007625-.28 1.290625-.435375.0659375-.03625.13375-.02875.1679375.0125.0385.0465.037875.121625-.015625.1709375" stroke-linecap="round" stroke-width=".1"/><path d="m1.504 9.074-.1275.046625-.130625.0995625-.056.07775-.0715.124375-.031125.0933125-.024875.115-.0125.087125m1.188125-.631375-.009375.112-.018625.07775-.056.13375-.0870625.115-.09325.0746875-.068375.0341875-.0964375.02175" stroke-width=".1"/><path d="m6.1118125 12.0691875c-.03106633.1894303-.16137699.4060856-.4450042.4844429l-.0549958.0155571" stroke-width=".1"/><path d="m11.263625 8.7628125c.1335625.1245625.227375.27625.2995.484375.0304375.08775.055625.2201875.052125.3608125-.005625.2241875-.0625.4691875-.12375.5876875-.05325.1034375-.1926875.5598125-.95775.87475-.4464375.18375-1.132.22625-1.60475.244875-.640875.02525-1.232875.0490625-1.58325.460625" stroke-width=".1"/><path d="m10.218 9.38954003c.0475-.20102407.220625-.4551123.360625-.21438694.0460625.07940257.100625.17972094.1485625.40204814" stroke-width=".1"/><path d="m11.100375 8.611625c.03125.012.0625.022875.08975.030625.089375.025625.1735.0275.246375.005625.176875-.053.2904375-.21825.198375-.433125-.021375-.04975-.06225-.0975-.10875-.1333125" stroke-width=".1"/><path d="m1.017625 3.9851875c-.11875.0735-.2073125.0909375-.2996875.1979375-.092.182125-.128125.28-.164.426m2.88125-3.23075c0 .1075-.079125.1753125-.1865625.1979375" stroke-linecap="round" stroke-width=".1"/><path d="m10.819625 3.50125c.295625-.0060625 1.154375.2255 1.1604375 1.235.006125.997-.61525 1.159875-.8641875 1.22625" stroke-width=".1"/><path d="m10.8971875 3.50125c.50975-.0221875 1.035625.353 1.058875 1.289375.018125.7315625-.500625 1.063375-.7496875 1.12975" stroke-width=".1"/><path d="m10.613125 7.026375.0079375-.1.0333125-.159.047125-.123625.053-.1020625.06875-.0825m.486375-.2123125-.0078125.097875-.028125.066875-.0434375.06375-.04975.0373125-.07625.028-.066875.00475-.04975-.0078125m-.8945-3.30075.021875-.1058125.046625-.0979375.060625-.098.1041875-.13375.0825-.0916875.133625-.1353125.115125-.116625.073125-.0839375.096375-.1165625.0855-.1290625.051375-.10575.0279375-.136875.0085625-.169625-.0155-.0491875m-.7674375 8.010875.1010625-.02025.076125-.0404375.042-.041875.0295-.04825.02025-.07775.0015625-.054375m-9.8905-.73805.074625.01.096375-.0125.0964375-.0547m.3125625-2.28425-.0125.0870625-.0201875.038875-.029625.0373125-.0404375.031125-.045125.0201875-.0590625.009375-.0404375.003125m.6189375-.97625-.02175.13525-.0265.059125-.054375.074625-.073125.056-.074625.0373125-.144625.03575m.9561875-2.484875-.0279375.080875-.034375.059125-.0465625.0653125-.0653125.0591875-.07775.0373125-.0653125.0155-.040375-.003125m.023625-.387375.0025.0995" stroke-width=".1"/><g stroke-width=".1"><path d="m1.8928125 5.503625c-.03829302.0427709-.08254728.07664976-.130625.1m9.4074375 2.78275c.0053125.0058125.02325.00875.0295.0125.088625.0528125.263125-.013125.211875-.15" stroke-linecap="round"/><path d="m10.861625 6.4751875c.062875.0821875.1815.1035625.2753125.0790625.070875-.0185.12275-.063125.155875-.12125.037375-.065625.04875-.15125.024375-.2329375-.0109489-.03743224-.028937-.07243263-.053-.103125-.026625-.0351875-.0596875-.0725-.08525-.08925-.006875-.004375-.0135625-.0104375-.02075-.0153125m.4014375 2.126c.0027513-.01484187.0041321-.02990528.004125-.045 0-.072375-.0303125-.13875-.080375-.183375-.017125-.0153125-.03375-.039-.054375-.049375m.02975.029375c-.002875-.1165-.098125-.1998125-.216375-.220625m-.26075.1775c-.0271875-.02225-.05625-.0410625-.0816875-.067625-.153125-.1601875-.26825-.397-.26975-.667125-.0015-.2589375.102625-.5225.223875-.625m-3.53125 5.2905.111875-.1026875.0778125-.059125.14625-.0901875.13675-.06525.0964375-.024875.192875-.0435.223875-.03425m-1.8443125 1.21025c-.0808125.124375-.273625.311-.4758125.385625-.202125-.074625-.395-.26125-.4758125-.385625"/><path d="m6.0125 12.2891875c-.09144144.1819613-.25743243.3583535-.5.5" stroke-linecap="round"/><path d="m5.688125 12.15875-.045.136875m-.1459375.26125-.0590625.059-.10575.059125-.12125.0373125m-.35275-11.1143125c.0151875-.0473125.030625-.082875.0284375-.160625-.0078125-.2625-.2025-.381625-.28025-.6241875-.04625-.144375-.06475-.27.041-.3725.0923125-.089625.19925-.08825.31975-.0410625.240625.094375.5323125.3655 1.04125.373125-.5089375-.007625-.800625-.27875-1.04125-.373125-.1205-.0471875-.237375-.061-.3296875.0285625-.10575.102625-.077375.240625-.0310625.385.07775.242625.2625.3616875.2701875.624375.00225.077625-.01825.113125-.033375.1605m1.1638125-.84325c.500625-.0264375.9298125-.362875 1.06825-.3903125.1234375-.0245.192375-.0134375.282875.068875-.090625-.0823125-.19375-.07975-.3108125-.03375-.240625.094375-.5298125.3654375-1.03875.373m4.974875 7.055375c-.208375-.14925-.386875-.43425-.38875-.7709375-.0014375-.259.102625-.5225.223875-.625125m-4.371875 6.0984375c-.0809375.124375-.27375.311-.475875.385625-.202125-.074625-.395-.26125-.4758125-.385625"/><path d="m5.166875 1.87032952c.07340862-.06794335.14161157-.13235717.20452064-.19000606.09308424-.08529684.2049618-.06735509.25322443.02970683.05426238.10956231.06264438.29956837-.01279357.41560149" stroke-linecap="round"/><path d="m4.4191875 2.079625c.3435-.0716875.6234375-.225625.835-.343875m2.0170625 10.2614375c.028375.019375.046625.0596875.046625.0596875.0078125.01875.018.0365.0208125.053125.0160625.095125-.04625.154375-.123375.163375-.1059375.0123125-.1854375-.050625-.219375-.126875m-2.5943125-10.0845c.3435-.0716875.623375-.225625.835-.343875m6.0985625 6.6815c-.0653125.025125-.101.02175-.18225-.014375-.033375-.01475-.0715625-.0376875-.11625-.063125-.15925-.090375-.348375-.2329375-.525625-.565625-.0474036-.08831331-.0833198-.18232571-.106875-.27975-.016875-.069375-.028625-.138-.03125-.2084375-.00425-.12.00875-.2453125.038625-.388875.049375-.236875.109-.365625.255-.5659375.071875-.0985.13375-.1585625.2675-.1616875m-8.9809375-2.456625c.11125.0945.165.2115.165.357625 0 .19375-.162125.51-.5601875.622-.1525.042875-.3035.00825-.3948125-.04725"/><path d="m2.018375 4.35125c.0715625.0496875.0995625.105625.0995625.20275 0 .0665625-.043125.152875-.11625.234625-.12.133875-.3233125.247625-.54875.2504375-.1221875.0015-.249125-.024-.376875-.109375-.1365-.09125-.2083125-.214625-.239375-.3359375"/><path d="m2.012 4.768375c.0810625.0745.1059375.16775.1059375.2851875 0 .1715625-.0696875.304-.23.44425-.0358125.031375-.07625.06075-.12125.0871875m8.0893125-1.3798125v.22075m-.017625-.275125v.3109375m.017625-.984125v.407375m-.017625-.497375v.5566875m-.11875 5.1225625c-.07725.1533125-.1389375.233875-.26125.354375-.1234375.1216875-.2089375.1775-.363875.255-.150875.075625-.245875.09975-.4105.136875-.1645.0371875-.260625.0453125-.4291875.0529375-.154375.007-.242125.0005-.396375-.0101875-.165-.0114375-.2566875-.034375-.4215-.0489375-.136125-.011875-.213-.022875-.3496875-.0225-.1405.000375-.221.00125-.359375.025625-.128875.022875-.202.0410625-.323375.09025-.1678125.068-.3575.1865625-.398.239375-.0404375-.0528125-.2301875-.171375-.398125-.239375-.12125-.0491875-.194375-.067375-.323375-.0901875-.138375-.024375-.21875-.0253125-.359375-.025625-.136625-.0004375-.2135625.010625-.3496875.0225-.164875.0145625-.2564375.0375-.4215.049-.154375.010625-.242.0171875-.3964375.0101875-.1685-.007625-.2646875-.015625-.4291875-.052875-.1645625-.03725-.2595625-.06125-.4105-.136875-.155-.077375-.2404375-.1333125-.363875-.255-.0133125-.013125-.0259375-.02575-.0379375-.038125m2.6355 3.3438.111875-.0223m1.892125-.1471875.113-.0108125.107625-.043125.0753125-.045625.1023125-.12125.0215625-.045625.016125-.105.005375-.048375m2.931875-8.5434375c.0485625-.165-.010625-.339375-.170625-.334625m-8.2469375 2.91025c-.040625.137125-.12775.2308125-.2248125.29175m.2275625-2.91975c-.04.115625-.113125.198125-.2289375.2504375-.1154375.0520625-.2490625.003375-.320625-.05175"/><path d="m1.238 4.33639239c.27245935.08323714.54919257-.03881632.49256376-.24545616-.0267117-.09683323-.20568009-.21919805-.44822234-.22812373" stroke-linecap="round"/><path d="m1.6348125 9.414375c.020625.019375.025.044625.052875.04975.041875.0078125.074625.023375.116625-.032625.0516875-.069.023875-.17625-.03-.243875-.057625-.0723125-.2245-.13625-.364375-.0585-.046875.026-.105625.06025-.15875.130625-.02.026625-.0539375.0695625-.0714375.0995-.042375.0725-.05975.1316875-.068125.1555-.128125.3639375.024.7465625.2595.97975"/><path d="m7.39794697 11.9891875c.03789054.0497093.05999335.0928841.05999335.0928841.01170149.0350065.02135987.068146.0254461.0991852.0239602.1775999-.06872304.2882206-.18323048.3050237-.15741291.0229877-.26281919-.0935841-.31296844-.2357107" stroke-linecap="round"/><path d="m10.34 1.172375c.209125.0255.391375.225125.391375.4396875 0 .276875-.09325.379875-.239.577875-.1559375.211875-.6655.600125-.6655 1.04175 0 .2675.074625.4384375.2675.5255.12425.05625.269625-.004625.3358125-.064375.1616875-.14625.0970625-.4025-.0715-.433125-.205375-.037375-.2439375.2858125-.043625.264375m1.114125 4.3163125c-.018375-.11075-.1125-.195125-.2259375-.195125-.1265 0-.229125.105-.229125.23475 0 .0635.024625.121125.064625.1634375"/><path d="m9.991625 3.6951875c-.11125.0945-.164875.2115-.164875.357625 0 .19375.162.51.560125.622.1525.042875.29825.03875.3895625-.0166875m-9.7520625-.646125c-.095125.03175-.2139375.091125-.301875.2158125-.074375.1051875-.117625.2514375-.144375.379375-.011875.056-.0258125.2333125.01.4164375.0265.1351875.0823125.2610625.144125.35225.01892515.02788387.0406414.05376746.0648125.07725.020625.020625.050125.039.0709375.055m4.00075 5.7526875c.303125.134375.52525.235.713625.532375.0590625.093375.074625.227125.074625.3048125 0 .1679375-.0684375.3576875-.208375.4758125-.129875.1096875-.258125.143125-.4166875.1275-.12025-.01175-.233125-.0995-.251875-.1616875m-2.904875-7.031625c.1710625.13375.2425.2634375.2425.469625 0 .23625-.115.3825-.24875.4664375"/><path d="m1.719625 6.276375c.3199916.31725.48979107.5055.49959473.88325.00901938.3545-.13278083.5970625-.39818563.852125" stroke-linecap="round"/><path d="m6.6091875 2.0828125c.046375-.0304375.080375-.0791875.1-.139375.03-.093125.030625-.1723125-.0190625-.243875.061375.0803125.067.148125.04975.245625-.011.062125-.050625.0948125-.1.139375m3.229925 5.3850625v1.009625h.0043c0 .000625-.0007.095625-.0137.1555-.00766405.03618112-.01680034.07223447-.0274.108125"/><path d="m9.8593375 7.372375v1.0889375h.0043c0 .0008125-.0005.095625-.0135.155625-.0136.0625-.028.1154375-.0467.165m.0349375-2.6843125v.908125m.017625-.8365625v.7385625m0-1.67775v.553625m-.017625-.6188125v.6825m.017625-1.1833125v.21475m-.017625-.258375v.3110625m-.11525 4.0745625c-.0065625.014-.013625.0284375-.021125.043375-.0771875.153375-.138875.2339375-.26125.3545-.123375.1216875-.2089375.177375-.36375.255-.1509375.075625-.246.0996875-.410625.136875-.164375.037125-.260625.04525-.429125.052875-.1545.006875-.242125.0004375-.396375-.0101875-.165125-.0114375-.2566875-.034375-.4215-.0489375-.13625-.011875-.213125-.0229375-.34975-.022625-.1405.0004375-.221.00125-.359375.02575-.128875.0228125-.202.041-.323375.0901875-.1679375.068-.357625.1865625-.398125.239375-.040375-.0528125-.230125-.171375-.398-.239375-.121375-.0491875-.1945-.067375-.3234375-.0901875-.138375-.0245-.218875-.025375-.359375-.02575-.136625-.000375-.2135625.010625-.3496875.022625-.164875.0145-.2564375.0375-.4215625.0489375-.15425.010625-.241875.017125-.396375.0101875-.1684375-.007625-.2646875-.015625-.429125-.052875-.1646875-.0373125-.259625-.061375-.410625-.136875-.155-.0775-.2404375-.1333125-.36375-.255-.0646875-.06375-.112375-.11625-.154375-.1741875m-.1255625-.1993125c.0265625.1976875-.0565625.392-.141.481375-.052875.056-.168.1629375-.311.1648125-.23625.003125-.306875-.159375-.32125-.199"/><path d="m1.976 8.928c.043875.0433125.0828125.09625.11575.158625.0590625.111875.040875.2991875-.0059375.385625-.00568905.01035374-.01203537.0203325-.019.029875m-1.2651875 1.125875c.1405.1475.353125.3076875.6795625.4420625.446375.183875 1.131875.22625 1.6046875.244875.6285625.0248125 1.2076875.050625 1.560375.44m1.085375-.2545625c.103875.10225.209875.211875.254625.351875m-.4590625.71575c-.01362416.0145795-.02808616.0283528-.0433125.04125-.129875.1095625-.258125.143-.41675.1275-.12025-.011875-.23625-.102-.267375-.1610625m-.3345625-.1816875c.0058125.0079375.011875.015625.0183125.023125.0755.087875.1946875.143.319125.15325m1.679375-.00475c-.080875.124375-.27375.3109375-.4758125.385625-.2021875-.0746875-.395-.26125-.475875-.385625l-.018875-.0290625m.97375.02825c.014375.015625.029875.0305.04625.044375.129875.109625.258125.143.41675.1275.1203125-.011875.2158125-.0921875.254375-.16175 0 0 .0216875-.0233125.02775-.045625"/><path d="m7.3691875 12.539625-.07237483.205437-.11007208.1612182-.16656926.122161-.15098383.0111838"/><path d="m7.44125 11.82875c.0571875.0439375.113375.1104375.143875.1814375.019625.045625.02875.0958125.0315625.147875.00496592.0945487-.02691327.1873411-.0889375.258875-.079875.093125-.2045.149375-.3371875.1546875-.00978716.0004199-.01958784.0004199-.029375 0m.011625-.017625c-.126875.005-.2401875-.04925-.32375-.135m3.9796875-4.2418125c-.098875-.09125-.201375-.2175-.30025-.403125-.0473993-.08827134-.0833156-.18224186-.106875-.279625-.016875-.069375-.028625-.138-.03125-.208375-.00425-.12.00875-.2453125.038625-.388875.049375-.237.1376875-.420375.255-.566.04-.0496875.08625-.111625.13-.1395m-.086-4.7385625c.158625.0125.305625.18325.303625.350625-.0028125.243125-.084375.3435625-.275625.581875-.1648125.2051875-.659375.5659375-.646875.911125.00225.06125.03525.124625.072125.175625m-.197625.216375c.035125.03475.077625.063375.12825.08625.0904375.040875.1920625.0198125.26625-.0176875m-1.3233125-2.7013125c.053125.03625.10725.091625.1365625.1625.116375.28075-.136875.49125-.37.65-.1673125.113625-.3478125.174375-.51875.205"/><path d="m8.787625 1.5971875c-.0565625-.000625-.12375-.0166875-.196875-.0935625-.01675-.0176875-.0364375-.041125-.0441875-.062125m-.9285625.3065c-.0295625-.0148125-.06125-.036375-.0825-.060125-.0554375-.0620625-.0925-.146-.0496875-.274125.0395-.1185625.2298125-.451.2391875-.681125.01425-.3515625-.121-.5590625-.3325-.64"/><path d="m7.7071875.654-.00825.1321875-.0358125.135-.06875.184375-.0525.1185-.055.1184375-.0275.0826875-.0110625.060625.0083125.0578125m2.37575 7.892375c.0109375.0264375.0373125.05225.0373125.05225.0404375.0675.197625.18625.340625.188125.23625.003125.2925-.162375.2985625-.199125.0298125-.1803125-.031875-.2296875-.124375-.2805 0 0-.0545-.028125-.1198125-.0173125" stroke-linecap="round"/><path d="m.8091875 8.646875c-.0834375.02125-.161875.021875-.2303125.00125-.176875-.053125-.32025-.2225-.247125-.433125m.836625-1.989c.01775.0178125.0234375.044375.026125.066875.0273125.2291875-.1735625.296-.316625.25875-.070875-.0185625-.1553125-.084375-.1884375-.1425-.0249284-.04389238-.03814373-.09346065-.038375-.1439375m1.3785625-1.4791875c.04635922.0329375.07847896.0695.1.11025m-.093625-.53225c.04537671.0283091.07808219.06426932.1.1"/><path d="m2.116375 4.66302037c-.019375.05198479-.0526875.10806286-.0971875.16236717-.12.14599401-.3233125.27015714-.548625.27322711-.1223125.00170553-.24925-.02619706-.376875-.11938763-.136625-.09960339-.225625-.24136766-.255125-.38053952" stroke-linecap="round"/><path d="m1.964375 3.7051875c.23405154.13893805.41360372.3159292.5.5"/><path d="m2.114375 4.202375c-.0553125.183-.220375.40925-.538875.49-.1521875.0385-.348125-.0096875-.415-.066625" stroke-linecap="round"/><path d="m1.002375 4.159625c.0166875.1648125.127.2883125.3360625.2923125.294.005625.47275-.4229375.2115-.72375"/><path d="m.3408125 5.595625c.0429375.053875.0935.1025.1451875.1454375.1048125.08725.2284375.1640625.370875.206125m.33.0308125c.2626875-.0315625.4108125-.227375.3814375-.456375-.022375-.1745625-.1825-.30875-.291375-.3165" stroke-linecap="round"/><path d="m1.615625 3.25709995c.32047874-.01172081.50278068.26589478.49996793.49964108"/><path d="m1.58875 1.692375c.0625.163375.1841875.2910625.3145.364m9.011125 1.93525c.1075.147125.037125.43725-.255125.44275-.1141875.0021875-.2171875-.061125-.2775-.156875" stroke-linecap="round"/><path d="m9.856 2.07v.9875"/><path d="m1.2348125 4.145625c.0901875.06525.206-.045.16125-.162-.0303125-.079-.142625-.16425-.298125-.0585625-.1716875.116875-.124375.48525.2053125.4914375.2939375.005625.4726875-.4229375.2114375-.72375-.25125-.289375-.7090625-.221625-1.0075.015875-.127125.1010625-.3670625.3658125-.4416875.7265625-.02325.1123125-.03825.2045-.0365.3171875.00125.07425.008125.1575.03025.26125.045.209625.11875.363125.19225.4698125.028125.040875.053875.0748125.0814375.102375.05125.05125.0665.0783125.118125.12125.169.140625.386625.250875.653125.2395.2923125-.0125.4603125-.2176875.4291875-.46025-.0301875-.2351875-.267625-.35225-.423-.2425-.10575.0745625-.1433125.305625.0435625.360625.10575.031125.199-.1025.124375-.1803125m8.0976875-4.4969375c.16875-.091625.29875-.0746875.395.05875.1045.145125.119375.338125.096375.45125-.0341875.1679375-.08275.2376875-.21625.3595" stroke-linecap="round"/><path d="m9.783125 1.002c.192875-.1275.4016875-.073375.51625.0964375.0840625.124375.1055.2284375.0995625.3825-.010125.264-.1753125.47325-.357625.5753125" stroke-linecap="round"/><path d="m10.69125 1.446875c.1585625.012375.2860625.1559375.2860625.323375 0 .239375-.066875.3433125-.258125.5815625-.1648125.2051875-.659375.5659375-.646875.911125.00475.1305.11475.2535.2096875.260375"/><path d="m10.71 4.145625c-.0901875.06525-.20525-.0401875-.1555-.152125.034375-.0773125.136875-.174125.2923125-.0684375.1716875.116875.124375.48525-.2053125.4914375-.294.005625-.4926875-.411875-.2114375-.72375.256625-.284625.7325-.228875 1.031125.008625.127.101125.382625.37875.4375.7429375.06625.4408125.05775.983-.3975 1.316875-.183125.13425-.43675.1953125-.660625.1855-.292375-.0128125-.4603125-.2176875-.4291875-.4603125.030125-.235125.2565625-.3346875.4229375-.2425.17275.095625.1425.3385625-.0435625.360625-.109375.013125-.199-.1025-.124375-.1803125" stroke-linecap="round"/><path d="m10.554375 3.993625c.0485-.218125.2354375-.2385.38625-.23625.411875.006.69675.4945.7015.9670625.006.597-.253375.9485-.6896875.9671875-.1129375.004875-.307375-.048875-.31075-.1865625"/><path d="m10.808 3.896c.434375.0965.586875.4878125.586875.86125 0 .3046875-.03025.7209375-.623125.8673125" stroke-linecap="square"/><path d="m11.5359825 8.12590747c.0225643-.13503327-.0455096-.26849519-.1607605-.31517828-.1152509-.04668308-.2436945.00717821-.3033273.12719666s-.0328706.27080393.0632004.3560889"/><g stroke-linecap="round"><path d="m10.653125 7.713125c.081875.121375.18075.25625.3896875.3695625m-.0784375.6593125c-.20475-.134375-.5935-.3104375-.945-.137125-.1303125.064375-.217625.143875-.266875.273625-.088875.2335625.010375.491.1114375.5979375.052875.056.168.1629375.311.1648125.23625.003125.2925-.16225.2985-.199.028-.1710625-.0715625-.2395-.124375-.258125-.040625-.014375-.1725-.010625-.2005.082625-.009375.0310625-.011.0853125.013875.12575"/><path d="m7.279625 12.026375c.0653125.13375-.009.2009375-.0995625.2115-.133625.015625-.2051875-.0901875-.2145-.186625-.015125-.15625.116625-.2979375.27375-.2954375.14125.0023125.2565.0935625.3105.2190625.019625.045625.02875.0958125.0315.1479375.00501269.0945632-.02684642.1873848-.088875.2589375-.08.093125-.2045625.149375-.3371875.1546875-.264.010625-.4695625-.236375-.4695625-.48825 0-.482.714875-.744875.99825-.8125.3483125-.083125.56025-.11425 1.1195625-.1453125.2239375-.0125.3879375-.006125.634375-.0316875.220625-.022875.3359375-.033625.5629375-.0865.2833125-.0659375.547375-.1835.78375-.398125.181875-.1651875.2860625-.2829375.3703125-.51.07275-.1958125.106125-.58375-.078-.870625-.1628125-.25375-.38875-.385375-.646875-.4226875-.23325-.03375-.43775.066875-.559875.2983125-.0590625.111875-.040875.2991875.0059375.385625.0404375.074625.155875.1846875.298875.1865625.23625.003125.2925-.16225.2985-.199.0279375-.1710625-.0715625-.2395-.124375-.258125-.040625-.014375-.1725-.010625-.2005.082625-.009375.0310625-.011.0853125.013875.12575"/><path d="m7.076 11.2608125c-.303125.134375-.5251875.235-.7135625.532375-.059125.093375-.0746875.227125-.0746875.3048125 0 .1679375.068375.3576875.208375.4758125.12975.1096875.258125.143125.416625.1275.1203125-.01175.23325-.0995.251875-.1616875"/></g><path d="m10.3141247 5.508c-.2849246.0473125-.4874372.2634375-.4874372.469625 0 .23625.2311558.3825.5.4664375"/><path d="m10.3263592 6.276375c-.3199873.31725-.48978451.5055-.49958804.88325-.00909768.3545.13277906.5970625.39810194.852125" stroke-linecap="round"/><path d="m8.865625 1.003125c.0065625-.0096875.01375-.0204375.021875-.0323125.10575-.1555.2925-.1964375.429125-.0933125.164875.124375.2065.336125.16175.5598125-.028.14-.1229375.2565-.253.3408125"/><path d="m2.56875.9271875c-.1616875-.074625-.2948125-.06025-.395.05875-.115.136875-.119375.338125-.09625.45125.034125.1679375.0826875.2376875.21625.3595" stroke-linecap="round"/><path d="m2.16125 1.002c-.192875-.1275-.4016875-.073375-.51625.0964375-.084.124375-.1055.2284375-.0995625.3825.010125.264.175375.47325.357625.5753125"/><path d="m1.6048125 1.172375c-.209125.0255-.376.20275-.376.417375 0 .27675.068125.38875.22375.6001875.15575.211875.6654375.600125.6654375 1.04175 0 .2675-.074625.4384375-.2675.5255-.124375.05625-.269625-.004625-.3358125-.064375-.16175-.14625-.0970625-.4025.0715-.433125.20525-.037375.24375.2858125.0435625.264375"/><path d="m1.253125 1.446875c-.1585625.012375-.3145625.14875-.3145625.31625 0 .239375.095375.3504375.286625.588625.164875.20525.6305.558875.618125.9040625-.00475.130625-.0925.290125-.1795625.2715"/><path d="m.88 6.257625c.074625-.180375.2675-.0995625.279375 0 .02725.22925-.173625.2985-.3166875.26125-.070875-.0185-.1226875-.063125-.1558125-.12125-.037375-.065625-.04875-.15125-.024375-.233.01092849-.03747849.02891773-.07252357.053-.10325.02195137-.02977036.04904342-.05538081.08-.075625.055-.035.114875-.0385625.208875-.0385625.3483125 0 .653125.4115625.7554375.8390625.03375.1408125.08.454875.015875.752625-.068375.3171875-.2055.536875-.36625.703375-.0871875.0901875-.2059375.1705-.3596875.2575-.0475.02675-.17275.082375-.259875.10725-.089375.025625-.1734375.0275-.24625.005625-.176875-.053-.2905-.2183125-.1984375-.433125.0716875-.16725.335875-.24875.4540625-.0435.01.017375.025625.0553125.025125.096375-.000625.05475-.0234375.120625-.0625.145625-.089875.057125-.2335625.0409375-.226875-.117625" stroke-linecap="round"/><path d="m.609625 8.399625c.0653125.025125.101.02175.18225-.014375.033375-.01475.0715625-.0376875.11625-.063125.15925-.090375.3483125-.2329375.525625-.565625.04740918-.08831075.08332572-.18232388.106875-.27975.016875-.069375.028625-.138.03125-.2084375.00425-.12-.00875-.2453125-.038625-.388875-.049375-.236875-.109-.365625-.255-.5659375-.071875-.0985-.13375-.1585625-.2675-.1616875m-.590375 1.9313125c-.0220359-.11762687.04444392-.23388495.15699606-.27455037.11255214-.04066543.23798809.0062529.29622447.11080043.05823637.10454753.03210088.23589609-.06172053.31018744"/><path d="m.5151875 7.89026648c.02018947-.13906765.123609-.24501648.24824808-.24501648.13906013 0 .25175034.13184743.25175034.29477319.00023221.07626859-.02516002.14972962-.07093783.20522681"/><path d="m.9608125 7.828c.26799714-.14925.49757118-.43425.49998267-.7709375.00176843-.259-.13206938-.5225-.28801252-.625125"/><path d="m1.402 7.713125c-.10490857.16421444-.23179339.34669373-.5.5" stroke-linecap="round"/><path d="m1.912375 8.6051875c-.0579375-.13625-.173125-.199375-.36075-.219375-.1865-.02-.3479375.03125-.513125.120125-.322375.1734375-.502125.3598125-.622.705625-.030375.087875-.055625.22025-.052125.360875.005625.224125.0625.469125.12375.587625.05325.103375.19275.55975.95775.87475.4464375.18375 1.132.226125 1.60475.24475.65025.025625 1.2501875.0498125 1.5985.4789375"/><path d="m.98 8.742c.2048125-.134375.5935-.3104375.945-.137125.1303125.064375.217625.143875.266875.273625.088875.2335625-.010375.491-.1114375.5979375-.052875.056-.168.1629375-.311.1648125-.23625.003125-.2925-.16225-.2984375-.199-.028-.1710625.0715-.2395.124375-.258125.040625-.014375.1725-.010625.2004375.082625.009375.0310625.011.0853125-.013875.12575" stroke-linecap="round"/><path d="m1.794375 9.358c.01875-.0684375.0090625-.14025-.0528125-.208375-.06225-.068375-.2270625-.13375-.367-.0559375-.046875.0259375-.1055.0601875-.158625.1305-.02.026625-.054.0695625-.0715.0995625-.0423125.0725-.0596875.13175-.068125.155625-.15375.4370625.0965625.90125.4103125 1.1008125.273625.174125.5535625.223875.89875.255.15975.014375.25025.0175.4105.024875.1289375.0060625.2403125.003875.3451875.002625.08625-.0010625.168125-.000625.251875-.0025.136625-.00325.278-.0064375.451.00625.182.013125.318875.0178125.4726875.0434375.1005.01675.21825.0329375.3416875.060625.0370625.0083125.074625.015.112375.0264375.025375.0076875.0504375.0154375.07525.023.222875.068.439375.1508125.61025.260875.0528125.034.113625.066875.155125.1083125.031875.031875.058875.05025.085.075875.1195625.117625.241875.245.2704375.4175.00525.031875.00525.065125.00525.10025 0 .111875-.091.264375-.3366875.314125"/><path d="m4.6648125 12.026375c-.0653125.13375.0089375.2009375.0995.2115.13375.015625.2051875-.0901875.2145-.186625.015125-.15625-.116625-.2979375-.27375-.2954375-.14125.0023125-.2565.0935625-.3105.2190625-.019625.045625-.02875.0958125-.0315.1479375-.00498891.0945708.02689214.187391.0889375.2589375.079875.093125.2045.149375.337125.1546875.264.010625.469625-.236375.469625-.48825 0-.482-.714875-.744875-.99825-.8125-.3483125-.083125-.56025-.11425-1.1195625-.1453125-.223875-.0125-.387875-.006125-.634375-.0316875-.220625-.022875-.3359375-.033625-.563-.0865-.28325-.0659375-.5473125-.1835-.783625-.398125-.1820625-.1651875-.28625-.2829375-.3704375-.51-.07275-.1958125-.106125-.58375.078-.870625.1628125-.25375.38875-.385375.646875-.4226875.23325-.03375.43775.066875.559875.2983125.0590625.111875.040875.2991875-.0059375.385625-.0404375.074625-.155875.1846875-.29875.1865625-.2364375.003125-.292625-.16225-.298625-.199-.028-.1710625.0715-.2395.124375-.258125.040625-.014375.1725-.010625.2005.082625.009375.0310625.011.0853125-.013875.12575"/><path d="m3.07875 1.003125c-.0065-.0096875-.01375-.0204375-.021875-.0323125-.105625-.1555-.2925-.1964375-.429125-.0933125-.1648125.124375-.2064375.336125-.16175.5598125.028.14.1229375.2565.253.3408125" stroke-linecap="round"/><path d="m8.921625 1.4748125c-.251875.273625-.50375.3610625-.880125.373125-.1175.003875-.342125-.03725-.47275-.13025-.083875-.05975-.17725-.1620625-.118125-.339375.039375-.1184375.2298125-.4508125.239125-.681.01425-.3515625-.121-.54425-.3325-.618875-.3909375-.138-.810625.2484375-1.0635.33275-.13225.044-.199625.0491875-.320375.0496875-.120625-.0005-.1905-.005625-.3226875-.04975-.252875-.084375-.6725-.4708125-1.0635625-.3328125-.2114375.074625-.3466875.2673125-.3325.618875.009375.230125.19975.5625.2391875.6810625.059125.17725-.03425.2795625-.118125.339375-.130625.0929375-.3551875.134-.47275.13025-.37625-.012125-.628125-.0995625-.880125-.373125"/><path d="m4.583125 11.1508125c.05.019375.0121875-.011875.327875.128125.303125.134375.518125.252.7065.549375.059125.093375.074625.2270625.074625.3048125 0 .050125-.0060625.1021875-.0183125.15375" stroke-linecap="round"/><path d="m4.603625 12.502375c.06329252.0313791.13252905.0489545.203125.0515625.264125.010625.4696875-.23625.4696875-.488125 0-.17475-.095-.321875-.22825-.44"/><path d="m4.66924138 12.0514018c-.08892045.1588052.0377476.2447025.16389258.2564348.18655857.0174588.29160674-.1007722.30468328-.208458.01412266-.1171835-.06390067-.2311545-.18289715-.2898161" stroke-linecap="round"/><path d="m10.38125 1.1748125c.200625 0 .375625.2234375.375625.4526875 0 .2641875-.1404375.425875-.243375.548125-.082875.0985-.172625.1865625-.279375.294"/><path d="m10.143125.963125c.0683125.0316875.12825.0851875.173875.1528125.084.124375.105375.2285.0995625.3825-.01.2640625-.2.446875-.369875.558375m-.2983125-1.0936875c.013875.011875.02725.0254375.04.040625.115125.136875.124.339125.0964375.45125-.041375.1685-.0970625.241125-.233875.341875m-.3165625-.902875c.164875.124375.213875.3395625.15925.5610625-.039.1583125-.1385625.253125-.262625.32875m.695375 2.5674375c.01975.0578125.0523125.077875.0933125.120875.089125.093375.2198125.17375.384875.220125.1525.0429375.29.010625.394875-.0546875m-10.1878125 3.37725c.0775-.0014375.15475.0509375.20525.13875.01.017375.025625.0553125.0251875.096375-.000625.0546875-.024625.113125-.06375.138125-.0898125.0570625-.249375.0325-.242625-.1260625" stroke-linecap="round"/><path d="m1.093125 5.956c.308125.0575.6048125.4291875.701875.834625.03375.14075.080125.4548125.015875.7525-.0684375.31725-.2055.536875-.366375.7035-.04099105.04176683-.0854642.07996733-.1329375.1141875l-.065625.0445m-.4955625-.7584375c.1265625 0 .237375.12125.237375.250875.00017842.06072542-.02295345.11920385-.064625.163375"/><path d="m.6648125 7.794c.25625452 0 .49999993.14016823.49999993.28888582.0000763.0823002-.06624174.16008806-.1799854.21111418"/><path d="m1.91912373 6.468c.19106333.1625.31722233.3025.37581377.4828125m-.00651016.5304375c-.03087903.08771502-.07892627.17264308-.14302624.2528125-.08029197.10125-.22035904.2139375-.3504636.290125" stroke-linecap="round"/><path d="m1.8928125 5.5208125c.26534091.15271967.42528409.31066946.5.5"/><path d="m2.116 5.216875c-.030625.10625-.10025.186875-.210625.287625m-.57225-1.0736875.1348125-.0355.07975-.06025.0514375-.072625.044375-.1135.0176875-.0921875" stroke-linecap="round"/><path d="m1.060375 3.956375c-.0425.010625-.0964375.026375-.1529375.0533125-.07575.036125-.15625.09225-.2203125.183125-.07425.105125-.1175.251375-.144375.379375-.0116875.0559375-.025625.23325.010125.416375.0264375.1351875.0823125.2610625.1440625.3521875.0221875.0326875.04225.0609375.0648125.0835.0808125.080875.1554375.130625.279875.10575"/><path d="m2.12425 3.363125c-.05728314.23655092-.17021277.52961633-.5.49758531" stroke-linecap="round"/><path d="m1.3548125 3.908c-.1209375-.11825-.3771875-.1490625-.631875.0120625-.0328125.0208125-.065625.0475-.098.074375-.035.02925-.063125.0628125-.09.099375-.029375.0396875-.0655.1071875-.0873125.152-.03.06175-.0425.1023125-.0589375.165625-.0465625.17825-.04625.34375-.040875.3910625.0070625.0604375.0128125.1160625.02275.1671875.03375.174875.0855.2975.139.38625.05625.0933125.19625.307625.4823125.335875.1125.0110625.3045625-.0404375.31075-.186625"/><path d="m8.7351875 1.316875c.019125-.1033125.1435625-.12325.1903125-.06225.0720625.093875.024375.25525-.1220625.301-.04975.015625-.1648125.009375-.239375-.0870625-.060625-.078125-.0559375-.175-.0333125-.251875.014625-.0498125.0545625-.093125.107875-.13375.17-.129375.44475-.0995.534875.118125.116375.280875-.136875.4914375-.37.65-.29375.1996875-.62825.236-.8801875.23325-.57225-.00625-1.0075-.28-1.290625-.4354375-.065875-.03625-.13375-.02875-.167875.0125-.0385.0465625-.0379375.1216875.015625.171" stroke-linecap="round"/><path d="m8.850375 1.22c.060625.0028125.076875.0264375.0955.050625.072.094.019375.255375-.1270625.301125m1.1148125 3.221375c-.218125.237375-.0175.6446875.1454375.736875.056375.04375.0805.020625.125625.046875" stroke-linecap="round"/><path d="m9.9451875 4.339625c-.0715.04975-.09675.105625-.0995.20275-.00225.08125.011875.1715625.088125.2509375.1189375.123625.3515.23125.576875.234125.12225.0015.2491875-.0240625.376875-.109375.1365-.091375.208375-.2146875.239375-.3359375zm-.1220625 4.104375c0 .00075-.0003125.095625-.008375.1555-.02375.1745-.0514375.275-.130625.43225-.07725.1534375-.1389375.234-.26125.3545625-.123375.1216875-.2089375.1775-.363875.255-.1508125.075625-.245875.0996875-.4105.136875-.1645.0371875-.260625.04525-.4291875.052875-.1545.007-.242125.0004375-.3964375-.0101875-.165-.0114375-.256625-.034375-.4215-.048875-.136125-.011875-.213125-.0229375-.3496875-.0225-.1405.0003125-.221.00125-.359375.025625-.1289375.022875-.2020625.0410625-.3234375.09025-.167875.068-.357625.1865625-.398125.239375-.040375-.0528125-.23-.171375-.398-.239375-.121375-.0491875-.1945-.067375-.3234375-.0901875-.1383125-.024375-.21875-.025375-.359375-.025625-.136625-.0005-.2135.010625-.3496875.0225-.164875.0145-.2564375.0375-.4215.0489375-.1541875.010625-.241875.0171875-.39625.0101875-.1685625-.007625-.26475-.015625-.42925-.052875-.1645625-.0371875-.259625-.06125-.4105-.136875-.155-.0775-.2404375-.1333125-.363875-.255-.1223125-.1205-.184-.2010625-.26125-.3545-.079125-.1573125-.106875-.2576875-.130625-.43225-.008125-.06-.0084375-.15475-.0084375-.1555v-6.3610625h7.7020625v6.360875h.002625z"/></g></g><g fill="#c7b37f" fill-rule="nonzero" transform="translate(.5 1.1875)"><path d="m.996375 8.1653125c0-.08629449.06995551-.15625.15625-.15625s.15625.06995551.15625.15625-.06995551.15625-.15625.15625-.15625-.06995551-.15625-.15625zm-.9595-1.1044375c0-.07725.049375-.14.1103125-.14.061 0 .1104375.06275.1104375.14 0 .0773125-.049375.14-.1104375.14-.0609375 0-.110375-.0626875-.110375-.14z" stroke="#c7b37f" stroke-width=".328"/><path d="m.582 4.286875c0-.0634375.04775-.115.106625-.115.05875 0 .1065625.0515625.1065625.115 0 .0635-.04775.115-.1065625.115-.058875 0-.106625-.0515-.106625-.115zm1.914375-4.102c-.0066875-.063625.0315-.119875.0854375-.1255.05375-.005625.103.0414375.1096875.105.00675.06375-.0315.12-.085375.125625-.054.005625-.103125-.0414375-.109875-.105125z"/></g><g stroke="#c7b37f" stroke-linecap="round" stroke-width=".632" transform="translate(.8125 1.4375)"><path d="m.144375 4.684125c-.023.01-.035625.01825-.0529375.036375-.0165.0173125-.02.023625-.0326875.051875-.009375.02075-.01175.04475-.0151875.074375m.29475 1.67175c.0216875-.02625.0348125-.0405.055625-.0675.017375-.0225.0276875-.0348125.0429375-.05875.01375-.0215625.019875-.0346875.0320625-.05725.0170625-.03175.025625-.05025.041875-.082375m-.0789375.871125c-.037.016875-.058875.024375-.0948125.0435-.027375.0145-.0421875.02375-.0684375.040125-.02665511.01629185-.05259583.03372469-.07775.05225-.030625.0225-.0465.0371875-.07625.0609375m.93525-2.3680625c-.02-.020625-.030875-.0326875-.05125-.052875-.0214375-.0210625-.033125-.0335-.056-.052875-.0223125-.01875-.0364375-.0273125-.05975-.04475"/><path d="m1.4045 4.12125c-.08774834.106-.13355408.19-.22442973.2715-.10430463.0935-.17476085.142-.27557027.155"/><path d="m.0275 3.0896875c.0101875.03625.0125.0579375.026125.093.01725.0440625.031625.06725.057875.1066875.0273125.0410625.044375.06375.0795625.09825.0309375.0303125.050625.045625.086875.069375.034375.0225.056625.0303125.0929375.04975m-.06175-.36625c.0303125.02064586.0459375.03620966.07775.05296457.02875.01508736.0458125.02143993.07625.03041294.041.01191107.065.01492855.1071875.01619906.045625.00134992.059125 0 .116625-.01191107m.4481875-2.5596655c-.049875-.029125-.080375-.041875-.127875-.074625-.0483125-.033375-.074875-.05375-.116875-.094875-.0303125-.0295625-.0473125-.046875-.0725-.080875-.0225-.030375-.031125-.05025-.051-.082375m.468625-.2845c.015625.041875.020125.067375.040125.1073125.027125.05425.048125.0826875.0889375.1275.0565625.062125.1045.0796875.171375.130625m.09075-.3698125c.015625.037625.02025.06075.0398125.0964375.0173125.0315.0291875.0483125.051875.07625.0290625.0355.0479375.054.0840625.0823125.041875.033.071625.0426875.1175.07"/></g><path d="m6.83125 1.03358304c-.00325-.15779185-.107625-.17408304-.147625-.17408304-.1154375 0-.146625.10705641-.290625.22230497-.1805.14429343-.258125.17641035-.418625.17855148-.1604375-.00214113-.2401875-.03416496-.420625-.17855148-.1440625-.11515546-.1683125-.21895364-.28375-.21895364-.03909488.0019675-.07601453.02727926-.10244325.07023411s-.04014404.09994059-.03805675.15812188c0 0-.00125.04794265.00375.08033885.001875.01210203.011875.00837833.015.01899088-.0015625-.07168125.00825-.10873208.031875-.15686092.0305-.06181344.0810625-.07819773.101625-.07819773.1154375 0 .158125.11031466.3021875.22547012.1804375.14429343.258125.17641035.4185625.17855148.160375-.00214113.24025-.03416496.42075-.17855148.1439375-.11515546.1853125-.23459319.30075-.23459319.04 0 .06825.03854031.08125.09923665.008125.03723701.003625.06237199.005625.07708061.0010625.00716813.007.00651648.0083125.01424316.004-.02764848.013375-.03760938.012-.10314653z" fill="#703d29" fill-rule="nonzero" stroke="#703d29" stroke-width=".177"/></g><g fill="#703d29" fill-rule="nonzero" transform="translate(16.0625 18.125)"><path d="m.48932486.251875c.03453557-.035.0606706-.021875.06707101-.0379375.00466697-.011875-.00546702-.013125-.01953459-.018-.01880122-.0065625-.03866917-.010375-.05753706-.016875-.01946793-.006875-.03713574-.01625-.05667034-.023125-.00800052-.0028125-.02666839-.0116875-.03186873.0015625-.0098673.0245.06827109.022375.04200272.088125-.00440028.011125-.01553434.035125-.05433685.075l-.1766781.1801875c-.00400026.0041875-.01053402.013125-.01466762.011625-.00400026-.0014375-.00333355-.0125-.00346689-.018l.0025335-.255625c.00026668-.0485625.00466696-.0845.01306751-.1055.01166742-.029375.04773642-.00475.05533691-.023625.00466697-.011875.00106674-.0123125-.02040132-.019875-.01066735-.00375-.03133536-.0078125-.07427147-.0228125-.02280148-.008-.04453622-.01875-.06667098-.0265625-.01000065-.0035625-.02866853-.0164375-.03533563.000375-.00200013.005.00513367.0121875.00686712.0135625.02466826.0166875.03093533.0276875.0314687.0589375l.00486698.465375c.00040003.0335625.00426694.042875.01100071.04525.00733381.002625.01240081-.0004375.02706842-.016l.35002266-.35625z"/><path d="m.6555.32375c.02125-.0675.06125-.026875.0689375-.051.00275-.0085625 0-.011-.01925-.017-.0365-.0115625-.0604375-.0159375-.0835-.02325-.0225-.0070625-.0465-.0178125-.0715-.025625-.00575-.001875-.021125-.0090625-.025.003125-.0078125.0248125.070875.02775.0504375.0925l-.10775.341625c-.02125.067625-.061625.0345625-.069375.0595-.00125.0035625-.0015.0089375.00425.01075.0166875.00525.045125.011125.072625.01975.05.0158125.0728125.026125.0965.0335625.01475.0046875.021375.003625.023875-.0041875.0071875-.0228125-.074875-.0126875-.0473125-.10025zm.2311875.0684375c.01275-.0429375.0326875-.037.0565-.03.065125.019375.0855.0829375.06475.153125-.0125.0421875-.02825.081125-.126125.052125-.019375-.0058125-.043125-.012875-.037875-.03075l.0428125-.1445625zm-.1773125.307875c-.02675.0901875-.071875.051125-.07875.0740625-.0041875.014375.01.016125.0170625.01825.0321875.0095.06525.01625.1.0265.0270625.008125.043625.016125.0545625.019375.0148125.004375.02125.0015625.023125-.004875.007625-.02575-.0648125-.0153125-.042125-.091875l.0366875-.12375c.007375-.025.005-.03125.039125-.021125.0321875.0095625.041875.019375.0473125.0553125l.020625.129c.0076875.0475.015.098625.0658125.11375.02575.0075.0729375.004375.0795-.01775.0016875-.00575-.000875-.01125-.0066875-.012875-.006375-.001875-.0140625.0004375-.020625-.0014375-.005-.0015-.0173125-.005125-.0196875-.01825-.0196875-.1039375-.04375-.223875-.0425-.228125.0021875-.00725.0228125-.008125.04625-.0190625.023875-.011625.050375-.0325.0639375-.078375.00975-.033.02675-.1376875-.11425-.179375-.043125-.012875-.0878125-.023-.1309375-.03575-.040625-.012-.044875-.0164375-.0745-.0251875-.00775-.0023125-.01525-.000625-.017375.0065-.007625.025625.0704375.02.0466875.1001875l-.09325.3148125zm.5265.154125c-.020625.086375-.086125.03375-.0929375.062125-.00375.016.0075.0179375.0191875.0208125.026125.00625.048375.0085.092125.019s.064625.018625.09075.024875c.0189375.0045625.0315.009875.035625-.0075.005-.020375-.08375-.019375-.0623125-.10875l.07875-.3279375c.008375-.0348125.01575-.036875.0425-.0304375l.055625.013375c.07575.015125.0355.090625.061625.096875.016875.004125.0165625-.025875.0173125-.034875l.008875-.0685c.001-.0075.0034375-.0175-.00625-.02-.0608125-.0145-.1053125-.022125-.200625-.045-.095375-.0229375-.1384375-.03625-.1991875-.050875-.00975-.002375-.0121875.00775-.014625.014875l-.0335.0933125c-.0035625.0090625-.01125.024125.002375.0275.029375.006875.032625-.0928125.1064375-.075l.054875.013125c.02675.006375.0325.0115625.0240625.0464375l-.0808125.3366875zm.793625-.2023125c.025875-.04.05225-.031375.055375-.04825.0023125-.0125-.0073125-.012-.02125-.0145625-.0184375-.0034375-.0375-.0039375-.056-.0073125-.019125-.0035625-.0370625-.01-.05625-.0135-.007875-.0015-.026625-.0071875-.02925.00675-.00475.025625.067.010875.0541875.079875-.0020625.01175-.008125.0371875-.0370625.082625l-.131875.20625c-.0029375.004875-.0075.014625-.0114375.013875-.0039375-.000625-.0053125-.011625-.006375-.017125l-.0420625-.2521875c-.0083125-.0478125-.0104375-.083875-.006375-.105875.005625-.030875.0433125-.0125.046875-.032375.002375-.0125-.0010625-.012375-.0221875-.01625-.010625-.002-.03025-.0025-.0725-.0104375-.0225-.004125-.044375-.01125-.06625-.01525-.0098125-.001875-.0291875-.0115-.0325.006125-.0009375.005125.006875.011125.00875.01225.025625.012375.033375.022125.039375.0528125l.08525.4575c.00625.033125.0114375.041625.018.0428125.00725.001375.011375-.0025.0221875-.0201875l.261375-.4076875zm.0371875.4203125c.000375.01825-.00125.024.0145625.03125.036875.0159375.067625.03925.108125.046.0866875.014625.158625-.040625.17475-.137125.015625-.0935-.0228125-.1325-.087875-.178875-.0815-.0583125-.116375-.074-.108125-.1233125.00825-.04925.04275-.0721875.0865-.064875.1139375.0190625.1009375.157625.11625.1601875.0145.0025.018-.0060625.019375-.0225l.0091875-.099875c.001625-.017125.0054375-.0278125-.0045-.0295-.008625-.0014375-.0271875.0075-.03575.006125-.019875-.0033125-.042875-.0366875-.09725-.04575-.0775-.0129375-.1408125.04-.155.1246875-.0129375.07725.021375.1125.073625.15.0979375.070125.138125.0866875.127625.14925-.009875.058875-.055625.0875-.10725.0789375-.0735-.0123125-.103375-.08625-.11275-.160375-.001-.01-.00125-.016875-.011875-.018625-.0165625-.0028125-.0135.0196875-.01325.0303125l.00375.10425zm.9888125-.2788125c.0215625-.0425.04875-.0365625.05-.05375.0010625-.0125-.0085-.0110625-.0225-.0121875-.01875-.0015625-.0378125 0-.0565625-.0015-.019375-.0015625-.0379375-.006-.057375-.0075-.008-.000625-.02725-.004375-.028375.0096875-.002.026125.0678125.0039375.0623125.073875-.0009375.011875-.004375.0378125-.0283125.086125l-.1095625.2189375c-.002375.005-.005875.01525-.009875.015-.004-.0005-.0065625-.0110625-.008125-.0164375l-.068125-.2464375c-.01325-.0466875-.0191875-.0823125-.0175-.104625.0025-.03125.041875-.016875.043375-.0370625.001-.012625-.002375-.012125-.02375-.01375-.0108125-.000875-.0304375.000625-.0733125-.0028125-.02275-.001875-.04525-.0065625-.067375-.0083125-.01-.0008125-.0303125-.008375-.03175.009375-.0004375.0053125.008.0104375.01.011375.02675.0095625.0355.0185.044625.0484375l.1326875.446c.009625.03225.015625.0401875.0225.040625.00725.000625.011-.0035625.019875-.0223125l.217375-.432875z"/><path d="m3.1615 1.155c-.000625.076125-.065.062125-.0653125.092-.000125.0126875.0133125.0090625.020625.009125.01825 0 .036375-.0026875.057875-.0025.0235.0004375.04625.0034375.07925.00375.00875 0 .0255.000875.025625-.0095625.00025-.035-.08625.015-.085-.1283125l.0023125-.25375c0-.00675.0015-.011875.0055-.011875.003375 0 .007375.00375.0120625.00975l.3196875.3909375c.0046875.006.008.0105.017375.010625.008125 0 .008125-.0059375.0083125-.022375l.003625-.418625c.000625-.078375.057625-.06.0578125-.082375 0-.00225 0-.00975-.01275-.009875-.0060625 0-.0295625.00275-.071875.002375-.046375-.0004375-.0658125-.0035625-.0765625-.003625-.00875 0-.01075.007375-.0108125.0125-.0001875.0246875.081875.012.08125.079875l-.002125.2485625c-.00025.018625-.001625.0275-.005625.0275-.0040625 0-.012-.009-.020625-.0195625l-.2671875-.3314375c-.011875-.01425-.003875-.019375-.0253125-.0195625-.035625-.000375-.053125.0025-.070625.002375-.0126875 0-.02475-.003125-.0375-.0033125-.008125 0-.0115.0058125-.0115625.0125-.000375.035875.0753125-.012.0740625.13125zm.650375-.336c.000625-.070875.0508125-.0435625.051-.0689375 0-.0089375-.00325-.0104375-.0234375-.010625-.038125-.000375-.062375.0025-.0865625.00225-.0235 0-.0496875-.0034375-.075875-.003625-.006 0-.02275-.0025-.022875.01025-.0001875.026125.072125.005875.0715.07375l.000625.35825c-.000625.070875-.04875.0510625-.049.0771875 0 .003625.00125.008875.0073125.0089375.0175.0004375.0464375-.0025.0753125-.0023125.052375.0004375.0771875.003625.1020625.003875.0154375 0 .0215-.0028125.0215625-.011.0001875-.023875-.0753125.0098125-.0745-.082l.003125-.356zm.281625.3468125c.0008125.08875-.0754375.053625-.0751875.08275.0001875.0164375.0115625.015625.02375.0154375.02675-.000375.048875-.003375.0939375-.00375.045-.0004375.0671875.002375.094.002125.0195 0 .0329375.001875.0328125-.0159375-.0001875-.0209375-.0859375.0014375-.08675-.0903125l-.0029375-.3373125c-.0003125-.03575.006375-.0395625.033875-.0398125l.0570625-.0004375c.07725-.003625.0565.079375.083375.079125.017375 0 .00975-.0291875.0083125-.038125l-.008-.0685625c-.00075-.0075-.0008125-.0179375-.010875-.0178125-.0625.000625-.107375.003875-.2054375.00475-.098125.0008125-.143125-.00175-.205625-.00125-.01 0-.01.010625-.010625.018125l-.0098125.0985625c-.00125.0096875-.005125.026125.009.026.0301875-.0004375.0091875-.097875.085-.0985625l.0565-.000625c.0275-.0003125.034375.0035.034625.039375zm.3911875-.1411875c-.0120625.0009375-.021375.0025-.021875-.005-.000875-.0104375.0025-.0189375.005125-.028125l.04125-.13575c.002625-.0084375.00525-.009375.006625-.0095.0033125-.0004375.00125 0 .0058125.0055l.0655.130375c.0040625.008625.00875.0165.0095625.026875.0005.0075-.008875.0075-.0209375.0084375l-.0910625.007125zm.115.031375c.017375-.001375.02125.0058125.048.0620625.0089375.019375.0146875.0325.016.048875.0035.045375-.0446875.0409375-.043.0625.0008125.0104375.009375.00825.0214375.0073125.019375-.001625.044-.0065625.0734375-.008875.0441875-.0034375.0625-.001875.086625-.00375.018125-.0015.02425-.0005.02325-.013125-.001875-.0245625-.0358125.0073125-.0614375-.04375l-.216625-.44125c-.0105-.0215625-.011875-.0229375-.018-.0225-.00875.00075-.0109375.015-.0146875.027375l-.1460625.464375c-.0134375.043-.0479375.04125-.0465625.0583125.0008125.009625.01125.0073125.020625.0065625.0195-.0015.03875-.0060625.05875-.007625.0214375-.0016875.04175-.000375.063125-.001875.014125-.00125.0353125.002375.0340625-.01325-.0015625-.02-.0729375-.002375-.0771875-.056-.001375-.017875.0059375-.044625.009375-.059875.011625-.0503125.0254375-.054375.036875-.0553125l.131875-.0103125zm.5190625-.309375c-.006875-.0510625-.00425-.0521875.076375-.06275.1285-.016875.0879375.0764375.11925.0723125.0153125-.0020625.00875-.026.006875-.035625l-.0123125-.0728125c-.0009375-.0066875-.0065-.0134375-.0151875-.0123125-.058625.0076875-.1041875.0166875-.1514375.0229375-.101875.013375-.15025.01675-.1775.020375-.009375.00125-.013875.007875-.013.0145625.00375.0295625.0759375-.004.08475.0625l.045625.346375c.011875.09025-.0440625.057-.0395625.091.000625.0045.005.0076875.01375.0065625.0365625-.0048125.0641875-.0115.0848125-.0141875.029375-.003875.054375-.004125.079625-.0075.016625-.0021875.031-.0010625.0290625-.015875-.0026875-.02-.0755.0084375-.08625-.07375l-.0145-.109375c-.005625-.043-.009375-.0515.02125-.055625l.0491875-.006375c.06925-.009125.0609375.07175.08225.0689375.0160625-.002125.0085625-.028125.006625-.03775l-.022-.131c-.0033125-.02-.0104375-.0175-.015-.016875-.013375.00175-.0064375.070125-.06375.077625l-.041875.005625c-.02875.00375-.029375-.0015-.0335625-.0333125l-.013625-.1035625zm.245625.169625c.0275.1489375.135.2314375.2678125.206875.210625-.0390625.217625-.22625.1985625-.3290625-.02875-.155625-.14475-.232-.27325-.206625-.1575.030625-.223.168-.193125.32875zm.073375-.056875c-.0196875-.1064375-.0054375-.213875.10575-.23675.085-.01725.18125.0529375.21125.215125.0226875.121875.0039375.227-.10925.25025-.1178125.024125-.187875-.1215625-.20775-.22875zm.521-.26c-.0105-.0435.00975-.048375.0339375-.0541875.0659375-.0158125.1154375.0290625.1325.1001875.01025.0428125.016125.084375-.083125.10825-.019625.0046875-.04375.0105-.048125-.007625l-.03525-.1465625zm.0003125.3553125c.021875.0914375-.0366875.0801875-.031125.103375.0035.014375.0166875.009.023875.00725.0325-.0078125.0645625-.0185625.0998125-.027.0275-.006625.04575-.0079375.056875-.010625.015-.0035625.0191875-.0091875.017625-.01575-.00625-.026125-.063875.0191875-.0825-.0585l-.030125-.1255c-.006125-.0254375-.01125-.0295625.023375-.037875.032625-.0078125.0459375-.004125.068625.0241875l.0825.1014375c.03025.03725.062125.0779375.11375.065625.026125-.00625.065375-.0326875.06-.0551875-.001375-.00575-.006375-.0091875-.01225-.00775-.0065625.0015625-.012.0075-.0185625.0090625-.0051875.00125-.017625.00425-.02625-.0059375-.069-.080125-.1498125-.1720625-.1508125-.176375-.00175-.00725.015625-.018375.030625-.039625.0146875-.022.0271875-.053375.016-.0998125-.008-.033375-.045625-.1325-.188625-.09825-.04375.010625-.0875.024125-.13125.034625-.041125.009875-.0470625.00825-.077125.0154375-.0078125.001875-.0135.007125-.01175.014375.00625.02625.071-.01775.0905.0635l.0766875.319375zm.5388125-.1205c.02225.086-.0601875.0703125-.052875.0985.0040625.015875.015.0123125.0266875.009375.026-.006875.0466875-.01525.09025-.0265.043625-.011375.065875-.014.091875-.02075.01875-.004875.032375-.0060625.0279375-.0234375-.00525-.0201875-.083125.0223125-.1060625-.0665625l-.084375-.326625c-.0090625-.0346875-.0035-.04.023125-.046875l.0553125-.01425c.0740625-.02225.074.0633125.1.056625.016875-.004375.0025-.03075-.0010625-.0390625l-.024375-.064625c-.0025-.007-.005125-.017125-.014875-.0145625-.0605.015625-.1033125.0298125-.19825.054375-.095.0245-.13925.032875-.1996875.0485-.00975.0025-.0071875.0126875-.0059375.02l.01425.098125c.001125.00975.00125.026625.015.023125.02925-.0075-.01475-.0971875.05875-.11625l.054625-.0140625c.0266875-.006875.0340625-.005.043125.0296875l.086625.33525zm.343625-.458375c-.0189375-.0683125.03675-.055875.03-.080375-.002375-.008625-.0060625-.009125-.0254375-.00375-.036875.0101875-.059375.0195625-.0826875.026-.0226875.00625-.04875.010375-.0739375.017375-.0058125.0016875-.0225.004-.0191875.01625.007.0251875.0745625-.01525.0926875.0501875l.09575.3451875c.0189375.0683125-.032875.0625-.025875.08775.001.003625.00375.00825.0095.006625.016875-.004625.043875-.01525.0716875-.0229375.0505-.0140625.07525-.017875.0991875-.0245.015-.004125.02-.008625.01775-.0165-.006375-.023-.0696875.030125-.09425-.0583125l-.095125-.3429375zm.1431875.1668125c.048125.143625.1660625.2104375.2940625.1675.203125-.067875.1840625-.254375.150875-.353375-.0501875-.15-.175625-.2095625-.299375-.166625-.15175.052375-.197375.1975-.145625.3525zm.064875-.0665625c-.034375-.102625-.0351875-.2109375.07175-.249125.08175-.02875.186875.02725.23925.18375.039375.1175.035375.2241875-.0734375.263-.1133125.04025-.2029375-.09425-.2375-.1975zm.4766875-.3386875c-.016375-.041625.003-.04925.026125-.058375.063125-.024875.118375.01275.1451875.08075.01625.041.02775.081375-.06725.11875-.01875.0075-.041875.0165-.04875-.000875l-.0551875-.14025zm.0498125.351875c.0345.087375-.0251875.084375-.0164375.106625.0055.0139375.0178125.0066875.0246875.0039375.03125-.0123125.06125-.027375.095-.040625.02625-.010375.044375-.01425.054875-.0184375.014375-.005625.01775-.011875.0153125-.018125-.009875-.025-.0605.0279375-.08975-.046375l-.047375-.120125c-.009625-.024375-.01525-.0276875.017875-.04075.03125-.0123125.045-.0105.07125.014375l.0958125.0890625c.0351875.0326875.072375.0685625.12175.049125.025-.0098125.06025-.041375.05175-.062875-.0021875-.005625-.0075-.00825-.013125-.0060625-.00625.0025-.0109375.009125-.0171875.0115625-.005.001875-.016875.006625-.026875-.00225-.079375-.06975-.1721875-.1495-.17375-.15375-.0028125-.006875.012875-.02025.0246875-.043375.0115625-.02375.0195625-.056625.0020625-.1010625-.0125-.031875-.063625-.124875-.2005-.0709375-.041875.0165-.08325.036-.125125.0525-.039375.0155-.0455.0146875-.07425.026-.0075.003125-.012375.0089375-.009625.015875.0098125.025.067875-.0275.0985.05025l.1203125.305625z"/></g><g fill="none"><g fill-rule="nonzero" transform="translate(16.48 10.96)"><path d="m.0264.01h3.2872v3.28092h-3.2872z" fill="#d52b1e"/><path d="m1.568 2.5932s-.00192.1172-.0342.21148c-.03732.1088-.0376.1088-.07184.16172-.04612.0712-.10232.12328-.1524.15548-.0784.05032-.158.07552-.238.0684-.2196-.01944-.32148-.2576-.37128-.45092-.0528-.2052-.20292-.31692-.29852-.24256-.056.0436-.0592.11656-.0124.1866.04972.07464.16392.112.16392.112l-.11732.1492s-.25208-.0328-.3014-.29568c-.01864-.09952.02968-.28536.1956-.34088.21192-.07092.34748.0802.4128.20768.0898.17536.1284.49736.3772.4476.13532-.02708.199-.22392.199-.31408l.09868-.10576.14616.04668.004.00312z" fill="#fff"/><path d="m1.448.3132s-.00192.1172-.0342.21148c-.03732.1088-.0376.1088-.07184.16172-.04612.0712-.10232.12328-.1524.15548-.0784.05032-.158.07552-.238.0684-.2196-.01944-.32148-.2576-.37128-.45092-.0528-.2052-.20292-.31692-.29852-.24256-.056.0436-.0592.11656-.0124.1866.04972.07464.16392.112.16392.112l-.11732.1492s-.25208-.0328-.3014-.29568c-.01864-.09952.02968-.28536.1956-.34088.21192-.07092.34748.0802.4128.20768.0898.17536.1284.49736.3772.4476.13532-.02708.199-.22392.199-.31408l.09868-.10576.14616.04668.004.00312z" fill="#fff" transform="matrix(-1 0 0 1 3.2208 2.28)"/><path d="m1.9648 1.198.4304-.46572s.06496-.0524.0644-.13604l-.0888.0138-.01984-.0456-.0044-.04592.1192-.0252c.002-.01936.00032-.034.00372-.05536.0032-.01976.0076-.0304.0124-.04976l-.13056.00872c.00664-.0228.00512-.035.0124-.05624.0062-.01788.00792-.02472.02016-.04412.02424-.0036.04632-.00912.07628-.01216.02912-.00296.04572-.0016.07492-.00344.0712-.1328.3676-.25492.57816-.03616.1524.15832.1196.4488-.078.5256-.11192.04348-.20212.01776-.2744-.0444l.0788-.15468c.1088.065.199-.01584.1928-.0998-.00788-.10616-.0768-.17188-.17416-.1804-.09016-.00788-.15488.04372-.19592.1244-.02504.0492-.01344.08536-.02176.14-.00904.05928-.004.0924-.02148.1524-.0128.04348-.0462.09732-.0948.1436l-.4412.47744-1.7176 1.8578-.12912-.11936 1.7284-1.86948z" fill="#fedf00"/><path d="m.7004 1.3616s.108.53488.47496 1.3372c.1866-.0684.2968-.11192.49448-.11192.19772 0 .30788.03732.49448.112.36696-.8024.47496-1.33728.47496-1.33728l-.96944-1.24708z" fill="#fff"/><path d="m1.7648.5364.6728.86548s-.08972.4208-.36312 1.05416c-.10584-.024-.19664-.04508-.30932-.05272l-.0004-1.8668zm-.1896 0-.6728.86548s.08972.4208.36312 1.05416c.10584-.024.19664-.04508.30932-.05272l.0004-1.8668z" fill="#fedf00"/></g><g fill-rule="nonzero" transform="translate(20.125 10.9375)"><path d="m.019.0325h3.28725v3.2809375h-3.28725z" fill="#fedf00"/><path d="m.479375.0325h.490125v3.2809375h-.490125zm.93925 0h.490125v3.2809375h-.490125zm.9391875 0h.490125v3.2809375h-.490125z" fill="#d52b1e"/></g><g fill-rule="nonzero" transform="translate(16.5 14.5625)"><path d="m.01875 2.533875c.009375.059125.0304375.1605.0865625.264375.0590625.0933125.0373125.09075.1710625.24.0658125.0735.1685.1364375.2490625.1798125.080875.0435.140625.064875.27375.09975.260625.0684375.4435625.0726875.662875.0639375.171125-.006875.30175-.0279375.41-.0425.15425-.02075.2691875-.033125.4446875-.0404375.0853125-.0035625.1659375-.004375.245625 0 .09625.0053125.19125.0201875.292375.0404375.2176875.0435.4385.1275.4385.1275l.000625-3.42625-3.2878125-.000875v2.3416875s.00675.114375.01275.1525z" fill="#fedf00"/><path d="m.400375 3.1346875.154125.0896875.211125.0759375-.00025-3.2610625h-.365zm1.8265.1484375.000375-3.244h-.36575v3.295875s.2503125-.032125.36525-.0395625zm.7295-3.243625h-.3645v3.25525c.11875.0128125.2409375.0340625.36525.0673125l-.00075-3.3225zm-1.4595 0v3.33325c-.00375.000375-.244125.012625-.367-.000125v-3.3325z" fill="#d52b1e" stroke="#d52b1e" stroke-width=".1"/></g><g fill-rule="evenodd" transform="translate(20.12 14.6)"><path d="m3.2992 2.4956c-.00932.05908-.0304.16048-.08652.26432-.05908.09332-.03728.0908-.171.24-.06584.07352-.16856.13648-.24912.17984-.0808.0436-.14064.06492-.2736.0998-.2608.0684-.44368.07268-.663.06392-.1712-.0068-.3018-.02792-.41-.04248-.15432-.02072-.2692-.03308-.44472-.0404-.08532-.0036-.166-.0044-.24568 0-.09624.00528-.19128.0202-.2924.0404-.2176.0436-.44128.12752-.44128.12752l.00228-3.4262 3.28772-.00096v2.34172s-.00672.1144-.01272.1524z" fill="#fedf00" fill-rule="nonzero"/><g transform="translate(.52 .08)"><path d="m.3448.1964s-.01464.007-.02376.0112c-.01192.0132-.01788.0208-.0312.03256-.01776.0156-.0308.02012-.05.03372-.0092.00656-.0168.00864-.0238.01752-.01.0128-.00312.0252-.01.04-.0074.0162-.01472.02388-.0262.03752-.01464.01736-.026.0244-.04252.04-.01672.0158-.02348.02904-.04372.04-.0054.00288-.008.00568-.0138.00748-.00864.00268-.014-.0004-.02252.00248-.01552.00536-.0204.02252-.0312.0288.0044.00868.00424.0148.00872.02372.00632.01292.0282.0486.03248.05748.0084.0122.0108.028.02128.0312.02148.0068.03432.0062.05248.00504.03168.00728.0512.00632.0812.0188.02456.01012.03456.02296.0588.03372.01896.0084.03088.0136.0512.01752.01552.00296.0244.00528.04.00376.01-.00096.01512-.0048.02504-.00624.002-.0004.0032 0 .005 0l-.0012.015c-.00024 0 .00016.0012 0 .00128v.00248h.00248l.0824.03624c-.00308144.00467845-.00557994.00971575-.00744.015-.00392.0128-.00456.0276-.00252.03376.0252.07548.0464.12268.0588.12748.0246.00944.03224.0346.04624.06-.00492.00528-.00908.008-.01376.01248-.02456.0236-.04608.04032-.06624.07248-.0298.04752-.04992.04812-.01248.1112.022.03704.03256.044.0612.09628.01452.02632.02252.04688.03128.07872.00828.03008.01112.0476.01252.0788l.03868.01496.02628-.02628.025-.04748.0012-.03624c-.0096-.00812-.01232-.01896-.01-.03128.0028-.01472.02056-.0116.0288-.025.01128-.0184-.01332-.02936-.02632-.04372-.0242-.0268-.0572-.03332-.065-.07376-.00208-.01092.00312-.01708.015-.0288.03424-.0336.0452-.03888.0788-.0724.0096.0056.0244.00768.03872.00496.0112-.00212.0212.005.05624.015.0244.00692.03492.00344.0488.0012l.01496-.00372c.002.0084.0044.0166.005.02748.00212.04248-.0062.11984.00624.14.00528.00856.00748.01332.01128.02256.004.0096.00856.01584.0088.02624.0004.02784.00184.0456 0 .075-.0018.0276-.00416.04168-.0088.07-.00296.018-.0066.02856-.01748.04248-.01132.01456-.0238.01672-.0388.02752l-.00368.04.045.0188.0512.0124.02752-.0112c0-.01016.0016-.016.00624-.025.00512-.00988.00928-.0176.0188-.0212.01448-.00576.0304.00512.0362-.0038.0064-.00968.0024-.01352.00128-.03-.00188-.02648-.0074-.0396-.01132-.06628-.00656-.0444-.0084-.06744-.00624-.11.00128-.02464.0016-.03824.00628-.06248.00688-.03532.01944-.0524.02752-.08752.009-.03908.0106-.06424.015-.09872.1268.01808.23228.01588.37376-.015.0068-.00148.03-.01.03-.01.032.0276.06824.05056.10872.065-.00024.004-.0006.0338 0 .03872.00148.01152-.0016.01928.005.0288.00424.006.00788.0096.015.0112.01052.0024.0182.00092.02628-.00624.009-.008.00732-.01816.01-.03.0012-.0056.00024-.02256 0-.02748.0146.0022.0196.00248.03496.00248.01428 0 .0212.00056.035-.0012.00016.0032.0008.01472.0012.01868.00108.0098-.00304.0174.0012.02628.00448.0092.01.0144.02.01628.00730491.00184014.01504799.000472.02128-.00376.01184-.0074.01056-.01992.01252-.03376.0006-.0044.0004-.02772 0-.03128.00848-.00268.03308-.01168.0412-.015-.0003725.0109085-.00161647.02176976-.00372.03248-.0028.01504-.0048.0232-.01.03752-.00824.02272-.0176.03424-.03.055-.01504.02536-.02288.0394-.0412.06248-.00848.01064-.01432.01544-.02252.02628-.01028.01348-.01372.02264-.0238.03624-.01296.01752-.0204.02896-.03752.04248-.02772.022-.046.0044-.08372.03376l-.0088.0412.05752.02128.05128.01.01748-.01c-.0004-.012.00132-.02056.0088-.03.00852-.0108.0176-.014.0312-.01628.01448-.0024.02992.00136.04128-.00872.014-.0124.014-.03656.025-.0588.0344-.06892.0648-.10248.12-.1562.02452-.02388.04552-.03032.06628-.05752.00984-.01288.0208-.0188.0212-.035.0004-.01136-.00572-.01664-.00872-.02752-.00416-.01508-.00748-.04-.00748-.04.0608.02976.0388.02584.05.05624.00896.0246-.00136.0416.0024.06748.00448.03024.01868.04456.02128.075.00312.0362-.00572.0568-.01248.09252-.006.0314-.0052.05108-.0188.08-.0128.0276-.0228.04308-.0462.06248-.0084.007-.0148.01-.02376.01628l-.00496.0412.045.01504.06504.01748.015-.01372c.0066-.0262-.00216-.06468.01628-.06752.01624-.00248.02772 0 .03128-.01248.0014-.00528.00228-.01304.00368-.025.0088-.07544.01688-.14584.025-.18.0092-.03872.0086-.04712.01628-.07628.007-.02656-.00344-.01128.01624-.06748.02936-.08388-.00832-.095-.04252-.14624-.01848-.02772-.02488-.03776-.02748-.06-.00388-.03268.00656-.0598.005-.11-.0016-.0528-.00092-.0864 0-.115.0046-.00212.00888-.0048.01376-.00752.0468-.02568.0654-.03344.09496-.0988.00843785-.01839986.01269973-.03843886.01248-.05868-.0002-.01328-.0026-.02608-.00376-.04128-.0012-.016-.0076-.02548-.01248-.03748-.0052-.01272-.013-.0224-.02252-.03376-.03088-.03696-.0712-.04528-.10872-.0588-.0594-.0212-.10024-.01732-.16504-.0224-.06692-.00532-.10428-.0064-.17128-.00252-.08024.0046-.12512.0208-.205.03-.0766.00892-.11908.0148-.19624.01628-.0904.00168-.1768-.0184-.2312-.01376-.098.0084-.09972.03048-.24752.04252-.05115771.00396623-.1024189.00646059-.15372.00748l-.08632-.02748c.03428-.01224.04268-.01952.0588-.0412.0108-.01468.00928-.0272.02248-.04256.01064-.01248.01772-.02488.0312-.0388-.01093129-.00870693-.02377909-.0146852-.03748-.01744-.01452-.00304-.02292-.00168-.03748 0-.01976.00224-.03088.00496-.0488.01376-.01432.00708-.02492.01428-.03372.02372 0 0-.0514-.03312-.08748-.04872-.0448-.0194-.064-.02848-.12-.03628zm.0788.47624h.006c-.001.001-.0018.0022-.003.003z" fill="#d52b1e" fill-rule="nonzero"/><g stroke-linecap="round" transform="translate(.04 .32)"><path d="m2.0708.52206306-.03052.01525381c-.03468.02513128-.06312.02613153-.104.03100775-.10576.01262816-.17088-.06607902-.27992-.05295074-.0562.00675169-.08104.0743936-.1384.0967742-.02229094.0092005-.04508347.01512359-.06808.01769192l.02048-.06464116s-.05136.01625406-.0846.01644161c-.02043029.00051891-.04084154-.00220405-.06092-.00812703l.04072-.05938985s-.03256-.00831458-.05176-.02100525c-.01537486-.00954826-.02968539-.02284113-.0424-.03938485.02272176-.00586795.04527512-.0132305.0676-.02206801.06224-.02406852.0816-.07170543.1556-.08283321.046-.00700175.12128-.00293824.30572.04476119.1214.03138284.1752.01669167.2214-.01612903.0304-.0215679.0404-.06314079.04412-.11177795.00368-.04851213-.01616-.08777194-.03496-.11315329-.00492-.00662665-.01776-.02094273-.04452-.02269317"/><path d="m.70056996.0299252c-.11363361-.01901328-.18953228.0028808-.28730007.08383125-.10291345.08555973-.11577763.20107976-.19038989.3295634.09540935.02880799.15008212.10370876.24484826.07288421.07439786-.02419871.1129904-.06856301.16294631-.14605651.06796576-.104573.09283651-.19474201.0921933-.33302036l-.02229791-.00691391z" fill="#fcd900" fill-rule="nonzero"/><path d="m.76493573.58608666s.02113691.03452741.03258607.05754568c.01985588.03985038.03010408.06315638.04195356.10552439.01601281.05754567.00920736.09236081.0193755.15091353.00176141.01028629.0040032.01891815.00608487.02704647l-.00400321.08128327m.27313045-.5s-.01570307.05840886-.02526767.09588548c-.02512491.09732413-.04825125.15012229-.06738044.24888506-.00321199.01654438-.00556745.03179398-.00735189.04632427m-.44286297-.28607395c.04413408.01266005.03039106.24169184.1.29420227"/><path d="m1.7248 1.2096.06254072-.06127451c.16378909-.1009128.31252248-.25007668.43745928-.43872549"/><path d="m1.4152 1.106h.00046132c.23283247-.15383275.38783445-.46132404.49953868-.5"/><path d="m1.5588.54991698c.01662418-.00095598.03241716-.00315474.04599357-.00650067.08129226-.0200756.09436995.06567589.15100299.12026241.10290369.09942202.11625845.2205448.23827996.32082721.00642801.00525789.0123573.01022899.01773246.0148177l.04699102.04110718"/><path d="m.028.2475722c.05109636.02461991.08236429.02939691.13479526.01984291.06329848-.01102384.0922785-.08745582.15576764-.09186535.05147768-.00367462.08808403-.01102385.13041012.04630014.02669213.03674614.03813161.06981767.05338426.1256718.01658725.0609986.03107726.10362412.0236416.17123702-.01143949.10435904-.06177322.15359887-.11706406.1543338-.04518596 0-.0827456-.02278261-.10371799-.09994951-.01332645-.04330103-.01611471-.09569666-.00762632-.14330995-.05395623.03968583-.09342245.04115568-.14795066.00624684-.05221311-.02814219-.09617002-.09626309-.12163985-.1885077z" fill="#fcd900" fill-rule="nonzero"/></g><path d="m.3652.8868c-.03188-.00948-.07864-.03304-.07864-.03304.01292-.01.02348-.0106.03452-.0222.0156-.0164.01492-.0316.02372-.0528.0086-.0208.00736-.03816.0268-.05372.0116-.0092.03052-.0108.0448-.0066.01408.00452.03032.016.03388.03064.00548.0224-.0064.03544-.00984.05816-.0034.02272-.01168.03576-.00776.0584.00264.015.00908.0208.01416.03628 0 0-.05056-.006-.0816-.0152zm-.03959685.06327076c-.00043425-.0275876.02156103-.05031252.0491485-.0507789.02758748-.00046637.05033833.02150211.05083685.04908862.00049851.02758651-.02144378.05036261-.04903009.05089324-.01329472.00027704-.02615054-.00476159-.03571634-.01399844-.00956581-.00923684-.01505094-.02190843-.01523892-.03520452zm-.07040315-.68567076s-.0036-.0024-.00576-.00416c-.01532-.0124-.0168-.02612-.024-.0444-.00692-.01736-.01032-.0276-.01264-.04616-.002-.01624 0-.0256 0-.04192 0-.0148.0016-.02312 0-.03776-.0016-.015-.0012-.02448-.0084-.03776-.00388-.0072-.01576-.01348-.01256-.0168.00376-.00384.01028-.0008.0168 0 .016.002.0252.00664.03772.0168.01504.01224.021.0228.0268.042.00668.02188.01.03588.01632.05868.00332.0118.0052.0188.01136.02936.0064.011.0128.01532.02096.0252l-.0004.00088c-.012.01304-.0178.02152-.03112.03332-.0122.0108-.0224.01612-.03384.02292l-.00132-.0004zm.144.4256.0892.0412c.046-.02536.09896-.07692.13988-.15672.0352-.06872.0408-.106.05456-.17252l-.07152-.02328-.01428.00292c-.02208.06896-.02772.1082-.06472.16772-.03208.0516-.06872.0922-.106.12136l-.02708.01932zm.1976.7248c.0144-.01972.02052-.0324.03688-.05056.01824-.0202.032-.02808.05248-.046.0062.0006.0134-.00048.0192.0028-.00108.02184-.0022.038-.0072.06168-.004.0192-.00744.02984-.01384.0484-.0054.01552-.0064.0256-.0156.0392-.00616.009-.0116.0126-.01904.02068-.0204-.02968-.0532-.05188-.05288-.07624zm1.3204.074c.02292.0093805.0368.01206064.0588.02403195.0244.01340071.03576.02572937.05864.04216758.00108.00687903.00416.0142941.00252.02157515-.02128.00544962-.03712.00924649-.0612.01116726-.01677625.00141075-.03362375.00141075-.0504 0-.0164-.00098272-.02632.00111673-.04192-.00464558-.0104-.00379687-.01536-.00848712-.0252-.01398141.02292-.03108966.0352-.07312323.05872-.08027028zm-.3904-.0816c.02292.00937607.0368.01205495.05872.0240206.0244.01339438.03584.02571722.05872.04214767.00108.00687578.00416.01428734.00252.02152031-.02128.0054917-.03712.00928677-.06128.01125128-.0196.00160733-.03072.0012055-.05032 0-.0164-.0010269-.02632.00107156-.04192-.00468803-.0104-.00379508-.01536-.00848311-.0252-.01397481.02292-.03107498.0352-.0730887.05872-.08023237zm-.6936.0852c.02292.00937713.0368.01205631.0588.02402332.0244.0133959.03576.02572013.05868.04215244.00104.00687656.00412.01428896.00252.0215674-.02128.00544767-.03712.00924318-.0612.01116326-.0196.00165216-.0308.00125028-.0504 0-.0164-.00089306-.02632.00111632-.04192-.00464392-.0104-.0037955-.01536-.00848407-.0252-.01397639.02292-.03107849.0352-.07309698.05872-.08024146zm-.3592-1.192c-.02452-.01112-.042-.0418-.0264-.06376.0062-.0088.01648-.00696.0226-.0158.0076-.01088.00568-.02028.00544-.03352-.00024-.01508-.00568-.02292-.00832-.03776-.00288-.0162-.0056-.02544-.00544-.04192.0002-.02512-.00152-.04304.0138-.06292.00984-.01268.02648-.02368.03304-.02448.00588.00544-.00228.02008-.00132.03288.00144.01848.0052.02868.01152.04612.00812.02252.0192.0324.02816.05452.00832.02064.016.03232.0168.05452.0006.01828-.001.02944-.0084.04616-.0066.0148-.012.0232-.0244.0336-.0108.00896-.01832.01296-.03184.01672-.00861309.0009549-.01732074-.00054259-.02512-.00432z" fill="#0065bd" fill-rule="nonzero"/></g><g transform="translate(.52 1.54364)"><path d="m.3448.1964s-.01464.007-.02376.0112c-.01192.0132-.01788.0208-.0312.03256-.01776.0156-.0308.02012-.05.03372-.0092.00656-.0168.00864-.0238.01752-.01.0128-.00312.0252-.01.04-.0074.0162-.01472.02388-.0262.03752-.01464.01736-.026.0244-.04252.04-.01672.0158-.02348.02904-.04372.04-.0054.00288-.008.00568-.0138.00748-.00864.00268-.014-.0004-.02252.00248-.01552.00536-.0204.02252-.0312.0288.0044.00868.00424.0148.00872.02372.00632.01292.0282.0486.03248.05748.0084.0122.0108.028.02128.0312.02148.0068.03432.0062.05248.00504.03168.00728.0512.00632.0812.0188.02456.01012.03456.02296.0588.03372.01896.0084.03088.0136.0512.01752.01552.00296.0244.00528.04.00376.01-.00096.01512-.0048.02504-.00624.002-.0004.0032 0 .005 0l-.0012.015c-.00024 0 .00016.0012 0 .00128v.00248h.00248l.0824.03624c-.00308144.00467845-.00557994.00971575-.00744.015-.00392.0128-.00456.0276-.00252.03376.0252.07548.0464.12268.0588.12748.0246.00944.03224.0346.04624.06-.00492.00528-.00908.008-.01376.01248-.02456.0236-.04608.04032-.06624.07248-.0298.04752-.04992.04812-.01248.1112.022.03704.03256.044.0612.09628.01452.02632.02252.04688.03128.07872.00828.03008.01112.0476.01252.0788l.03868.01496.02628-.02628.025-.04748.0012-.03624c-.0096-.00812-.01232-.01896-.01-.03128.0028-.01472.02056-.0116.0288-.025.01128-.0184-.01332-.02936-.02632-.04372-.0242-.0268-.0572-.03332-.065-.07376-.00208-.01092.00312-.01708.015-.0288.03424-.0336.0452-.03888.0788-.0724.0096.0056.0244.00768.03872.00496.0112-.00212.0212.005.05624.015.0244.00692.03492.00344.0488.0012l.01496-.00372c.002.0084.0044.0166.005.02748.00212.04248-.0062.11984.00624.14.00528.00856.00748.01332.01128.02256.004.0096.00856.01584.0088.02624.0004.02784.00184.0456 0 .075-.0018.0276-.00416.04168-.0088.07-.00296.018-.0066.02856-.01748.04248-.01132.01456-.0238.01672-.0388.02752l-.00368.04.045.0188.0512.0124.02752-.0112c0-.01016.0016-.016.00624-.025.00512-.00988.00928-.0176.0188-.0212.01448-.00576.0304.00512.0362-.0038.0064-.00968.0024-.01352.00128-.03-.00188-.02648-.0074-.0396-.01132-.06628-.00656-.0444-.0084-.06744-.00624-.11.00128-.02464.0016-.03824.00628-.06248.00688-.03532.01944-.0524.02752-.08752.009-.03908.0106-.06424.015-.09872.1268.01808.23228.01588.37376-.015.0068-.00148.03-.01.03-.01.032.0276.06824.05056.10872.065-.00024.004-.0006.0338 0 .03872.00148.01152-.0016.01928.005.0288.00424.006.00788.0096.015.0112.01052.0024.0182.00092.02628-.00624.009-.008.00732-.01816.01-.03.0012-.0056.00024-.02256 0-.02748.0146.0022.0196.00248.03496.00248.01428 0 .0212.00056.035-.0012.00016.0032.0008.01472.0012.01868.00108.0098-.00304.0174.0012.02628.00448.0092.01.0144.02.01628.00730491.00184014.01504799.000472.02128-.00376.01184-.0074.01056-.01992.01252-.03376.0006-.0044.0004-.02772 0-.03128.00848-.00268.03308-.01168.0412-.015-.0003725.0109085-.00161647.02176976-.00372.03248-.0028.01504-.0048.0232-.01.03752-.00824.02272-.0176.03424-.03.055-.01504.02536-.02288.0394-.0412.06248-.00848.01064-.01432.01544-.02252.02628-.01028.01348-.01372.02264-.0238.03624-.01296.01752-.0204.02896-.03752.04248-.02772.022-.046.0044-.08372.03376l-.0088.0412.05752.02128.05128.01.01748-.01c-.0004-.012.00132-.02056.0088-.03.00852-.0108.0176-.014.0312-.01628.01448-.0024.02992.00136.04128-.00872.014-.0124.014-.03656.025-.0588.0344-.06892.0648-.10248.12-.1562.02452-.02388.04552-.03032.06628-.05752.00984-.01288.0208-.0188.0212-.035.0004-.01136-.00572-.01664-.00872-.02752-.00416-.01508-.00748-.04-.00748-.04.0608.02976.0388.02584.05.05624.00896.0246-.00136.0416.0024.06748.00448.03024.01868.04456.02128.075.00312.0362-.00572.0568-.01248.09252-.006.0314-.0052.05108-.0188.08-.0128.0276-.0228.04308-.0462.06248-.0084.007-.0148.01-.02376.01628l-.00496.0412.045.01504.06504.01748.015-.01372c.0066-.0262-.00216-.06468.01628-.06752.01624-.00248.02772 0 .03128-.01248.0014-.00528.00228-.01304.00368-.025.0088-.07544.01688-.14584.025-.18.0092-.03872.0086-.04712.01628-.07628.007-.02656-.00344-.01128.01624-.06748.02936-.08388-.00832-.095-.04252-.14624-.01848-.02772-.02488-.03776-.02748-.06-.00388-.03268.00656-.0598.005-.11-.0016-.0528-.00092-.0864 0-.115.0046-.00212.00888-.0048.01376-.00752.0468-.02568.0654-.03344.09496-.0988.00843785-.01839986.01269973-.03843886.01248-.05868-.0002-.01328-.0026-.02608-.00376-.04128-.0012-.016-.0076-.02548-.01248-.03748-.0052-.01272-.013-.0224-.02252-.03376-.03088-.03696-.0712-.04528-.10872-.0588-.0594-.0212-.10024-.01732-.16504-.0224-.06692-.00532-.10428-.0064-.17128-.00252-.08024.0046-.12512.0208-.205.03-.0766.00892-.11908.0148-.19624.01628-.0904.00168-.1768-.0184-.2312-.01376-.098.0084-.09972.03048-.24752.04252-.05115771.00396623-.1024189.00646059-.15372.00748l-.08632-.02748c.03428-.01224.04268-.01952.0588-.0412.0108-.01468.00928-.0272.02248-.04256.01064-.01248.01772-.02488.0312-.0388-.01093129-.00870693-.02377909-.0146852-.03748-.01744-.01452-.00304-.02292-.00168-.03748 0-.01976.00224-.03088.00496-.0488.01376-.01432.00708-.02492.01428-.03372.02372 0 0-.0514-.03312-.08748-.04872-.0448-.0194-.064-.02848-.12-.03628zm.0788.47624h.006c-.001.001-.0018.0022-.003.003z" fill="#d52b1e" fill-rule="nonzero"/><g stroke="#fedf00" stroke-linecap="round" transform="translate(.04 .32)"><path d="m2.0708.52206306-.03052.01525381c-.03468.02513128-.06312.02613153-.104.03100775-.10576.01262816-.17088-.06607902-.27992-.05295074-.0562.00675169-.08104.0743936-.1384.0967742-.02229094.0092005-.04508347.01512359-.06808.01769192l.02048-.06464116s-.05136.01625406-.0846.01644161c-.02043029.00051891-.04084154-.00220405-.06092-.00812703l.04072-.05938985s-.03256-.00831458-.05176-.02100525c-.01537486-.00954826-.02968539-.02284113-.0424-.03938485.02272176-.00586795.04527512-.0132305.0676-.02206801.06224-.02406852.0816-.07170543.1556-.08283321.046-.00700175.12128-.00293824.30572.04476119.1214.03138284.1752.01669167.2214-.01612903.0304-.0215679.0404-.06314079.04412-.11177795.00368-.04851213-.01616-.08777194-.03496-.11315329-.00492-.00662665-.01776-.02094273-.04452-.02269317" stroke-width=".63168"/><path d="m.70056996.0299252c-.11363361-.01901328-.18953228.0028808-.28730007.08383125-.10291345.08555973-.11577763.20107976-.19038989.3295634.09540935.02880799.15008212.10370876.24484826.07288421.07439786-.02419871.1129904-.06856301.16294631-.14605651.06796576-.104573.09283651-.19474201.0921933-.33302036l-.02229791-.00691391z" fill="#fcd900" fill-rule="nonzero" stroke-width=".5"/><g stroke-width=".63168"><path d="m.76493573.58608666s.02113691.03452741.03258607.05754568c.01985588.03985038.03010408.06315638.04195356.10552439.01601281.05754567.00920736.09236081.0193755.15091353.00176141.01028629.0040032.01891815.00608487.02704647l-.00400321.08128327m.27313045-.5s-.01570307.05840886-.02526767.09588548c-.02512491.09732413-.04825125.15012229-.06738044.24888506-.00321199.01654438-.00556745.03179398-.00735189.04632427m-.44286297-.28607395c.04413408.01266005.03039106.24169184.1.29420227"/><path d="m1.7248 1.2096.06254072-.06127451c.16378909-.1009128.31252248-.25007668.43745928-.43872549"/><path d="m1.4152 1.106h.00046132c.23283247-.15383275.38783445-.46132404.49953868-.5"/><path d="m1.5588.54991698c.01662418-.00095598.03241716-.00315474.04599357-.00650067.08129226-.0200756.09436995.06567589.15100299.12026241.10290369.09942202.11625845.2205448.23827996.32082721.00642801.00525789.0123573.01022899.01773246.0148177l.04699102.04110718"/></g><path d="m.028.2475722c.05109636.02461991.08236429.02939691.13479526.01984291.06329848-.01102384.0922785-.08745582.15576764-.09186535.05147768-.00367462.08808403-.01102385.13041012.04630014.02669213.03674614.03813161.06981767.05338426.1256718.01658725.0609986.03107726.10362412.0236416.17123702-.01143949.10435904-.06177322.15359887-.11706406.1543338-.04518596 0-.0827456-.02278261-.10371799-.09994951-.01332645-.04330103-.01611471-.09569666-.00762632-.14330995-.05395623.03968583-.09342245.04115568-.14795066.00624684-.05221311-.02814219-.09617002-.09626309-.12163985-.1885077z" fill="#fcd900" fill-rule="nonzero" stroke-width=".5"/></g><path d="m.3652.8868c-.03188-.00948-.07864-.03304-.07864-.03304.01292-.01.02348-.0106.03452-.0222.0156-.0164.01492-.0316.02372-.0528.0086-.0208.00736-.03816.0268-.05372.0116-.0092.03052-.0108.0448-.0066.01408.00452.03032.016.03388.03064.00548.0224-.0064.03544-.00984.05816-.0034.02272-.01168.03576-.00776.0584.00264.015.00908.0208.01416.03628 0 0-.05056-.006-.0816-.0152zm-.03959685.06327076c-.00043425-.0275876.02156103-.05031252.0491485-.0507789.02758748-.00046637.05033833.02150211.05083685.04908862.00049851.02758651-.02144378.05036261-.04903009.05089324-.01329472.00027704-.02615054-.00476159-.03571634-.01399844-.00956581-.00923684-.01505094-.02190843-.01523892-.03520452zm-.07040315-.68567076s-.0036-.0024-.00576-.00416c-.01532-.0124-.0168-.02612-.024-.0444-.00692-.01736-.01032-.0276-.01264-.04616-.002-.01624 0-.0256 0-.04192 0-.0148.0016-.02312 0-.03776-.0016-.015-.0012-.02448-.0084-.03776-.00388-.0072-.01576-.01348-.01256-.0168.00376-.00384.01028-.0008.0168 0 .016.002.0252.00664.03772.0168.01504.01224.021.0228.0268.042.00668.02188.01.03588.01632.05868.00332.0118.0052.0188.01136.02936.0064.011.0128.01532.02096.0252l-.0004.00088c-.012.01304-.0178.02152-.03112.03332-.0122.0108-.0224.01612-.03384.02292l-.00132-.0004zm.144.4256.0892.0412c.046-.02536.09896-.07692.13988-.15672.0352-.06872.0408-.106.05456-.17252l-.07152-.02328-.01428.00292c-.02208.06896-.02772.1082-.06472.16772-.03208.0516-.06872.0922-.106.12136l-.02708.01932zm.1976.7248c.0144-.01972.02052-.0324.03688-.05056.01824-.0202.032-.02808.05248-.046.0062.0006.0134-.00048.0192.0028-.00108.02184-.0022.038-.0072.06168-.004.0192-.00744.02984-.01384.0484-.0054.01552-.0064.0256-.0156.0392-.00616.009-.0116.0126-.01904.02068-.0204-.02968-.0532-.05188-.05288-.07624zm1.3204.074c.02292.0093805.0368.01206064.0588.02403195.0244.01340071.03576.02572937.05864.04216758.00108.00687903.00416.0142941.00252.02157515-.02128.00544962-.03712.00924649-.0612.01116726-.01677625.00141075-.03362375.00141075-.0504 0-.0164-.00098272-.02632.00111673-.04192-.00464558-.0104-.00379687-.01536-.00848712-.0252-.01398141.02292-.03108966.0352-.07312323.05872-.08027028zm-.3904-.0816c.02292.00937607.0368.01205495.05872.0240206.0244.01339438.03584.02571722.05872.04214767.00108.00687578.00416.01428734.00252.02152031-.02128.0054917-.03712.00928677-.06128.01125128-.0196.00160733-.03072.0012055-.05032 0-.0164-.0010269-.02632.00107156-.04192-.00468803-.0104-.00379508-.01536-.00848311-.0252-.01397481.02292-.03107498.0352-.0730887.05872-.08023237zm-.6936.0852c.02292.00937713.0368.01205631.0588.02402332.0244.0133959.03576.02572013.05868.04215244.00104.00687656.00412.01428896.00252.0215674-.02128.00544767-.03712.00924318-.0612.01116326-.0196.00165216-.0308.00125028-.0504 0-.0164-.00089306-.02632.00111632-.04192-.00464392-.0104-.0037955-.01536-.00848407-.0252-.01397639.02292-.03107849.0352-.07309698.05872-.08024146zm-.3592-1.192c-.02452-.01112-.042-.0418-.0264-.06376.0062-.0088.01648-.00696.0226-.0158.0076-.01088.00568-.02028.00544-.03352-.00024-.01508-.00568-.02292-.00832-.03776-.00288-.0162-.0056-.02544-.00544-.04192.0002-.02512-.00152-.04304.0138-.06292.00984-.01268.02648-.02368.03304-.02448.00588.00544-.00228.02008-.00132.03288.00144.01848.0052.02868.01152.04612.00812.02252.0192.0324.02816.05452.00832.02064.016.03232.0168.05452.0006.01828-.001.02944-.0084.04616-.0066.0148-.012.0232-.0244.0336-.0108.00896-.01832.01296-.03184.01672-.00861309.0009549-.01732074-.00054259-.02512-.00432z" fill="#0065bd" fill-rule="nonzero"/></g></g><path d="m16.506375 10.97h3.2871875v3.2809375h-3.2871875zm3.637625 0h3.28725v3.2809375h-3.28725zm-3.62525 6.126375c.009375.059125.0304375.1605.0865625.264375.0590625.0933125.0373125.09075.1710625.24.0658125.0735.1685.1364375.2490625.1798125.080875.0435.140625.064875.27375.09975.260625.0684375.4435625.0726875.662875.0639375.171125-.006875.30175-.0279375.41-.0425.15425-.02075.2691875-.033125.4446875-.0404375.0853125-.0035625.1659375-.004375.245625 0 .09625.0053125.19125.0201875.292375.0404375.2176875.0435.4385.1275.4385.1275l.000625-3.42625-3.2878125-.000875v2.3416875s.00675.114375.01275.1525zm6.9004375-.00075c-.009375.0590625-.030375.1604375-.0865.264375-.0590625.09325-.0373125.090625-.171.24-.065875.0734375-.1685625.136375-.249125.17975-.0808125.0435625-.140625.065-.2735625.0998125-.26075.0684375-.44375.0726875-.663.0639375-.171125-.006875-.30175-.027875-.41-.0425-.15425-.020625-.2691875-.033125-.4446875-.040375-.0853125-.0035625-.1659375-.004375-.245625 0-.09625.0053125-.19125.0201875-.292375.0404375-.2176875.0435625-.44125.1275-.44125.1275l.0021875-3.42625 3.28775-.000875v2.34175s-.0066875.114375-.0126875.1525z" stroke="#703d29" stroke-width=".1"/></g></g></g></g></svg>