<svg height="48" viewBox="0 0 48 48" width="48" xmlns="http://www.w3.org/2000/svg" xmlns:xlink="http://www.w3.org/1999/xlink"><defs><path id="a" d="m8 9h32c2.209139 0 4 1.790861 4 4v22c0 2.209139-1.790861 4-4 4h-32c-2.209139 0-4-1.790861-4-4v-22c0-2.209139 1.790861-4 4-4z"/><path id="b" d="m0 .0625h40v30h-40z"/><mask id="c" fill="#fff"><use fill="#fff" fill-rule="evenodd" xlink:href="#a"/></mask><mask id="d" fill="#fff"><use fill="#fff" fill-rule="evenodd" xlink:href="#b"/></mask></defs><g fill="none" fill-rule="evenodd"><path d="m0 0h48v48h-48z"/><use fill="#d8d8d8" xlink:href="#a"/><g mask="url(#c)"><g fill-rule="nonzero" transform="translate(4 9)"><use fill="#fff" xlink:href="#b"/><path d="m-2.33847656.03615234h44.58281246v12.66152346h-44.58281246z" fill="#000" mask="url(#d)"/><path d="m5.84179687 11.9080078h29.59042973v6.6691406h-29.59042973z" fill="#0061ff" mask="url(#d)"/><path d="m42.2548828.10271484v29.89746096h-22.3078125z" fill="#e20000" mask="url(#d)"/><path d="m-2.36074219.10271484v29.89746096h22.30781249z" fill="#e20000" mask="url(#d)"/><path d="m30.3966797 11.9144531-4.4712891-1.1345508 3.8039063-2.86974605-4.6714453.66738281 2.4025195-4.07080078-4.1376563 2.40251953.7341797-4.73830078-2.8029492 3.73728516-1.1346094-4.33792969-1.2679687 4.47128906-2.8029492-3.80390625.8008008 4.87177735-4.1375977-2.53605469 2.4025195 4.07085937-4.5380859-.73417968 3.7372851 2.80300784-4.67150386 1.2011718h20.75507816z" fill="#ffd600" mask="url(#d)"/></g></g></g></svg>