<svg height="48" viewBox="0 0 48 48" width="48" xmlns="http://www.w3.org/2000/svg" xmlns:xlink="http://www.w3.org/1999/xlink"><defs><path id="a" d="m8 9h32c2.209139 0 4 1.790861 4 4v22c0 2.209139-1.790861 4-4 4h-32c-2.209139 0-4-1.790861-4-4v-22c0-2.209139 1.790861-4 4-4z"/><mask id="b" fill="#fff"><use fill="#fff" fill-rule="evenodd" xlink:href="#a"/></mask></defs><g fill="none" fill-rule="evenodd"><path d="m0 0h48v48h-48z"/><use fill="#d8d8d8" xlink:href="#a"/><g mask="url(#b)"><g fill-rule="nonzero" transform="translate(4 9)"><path d="m0 0h40v30h-40z" fill="#e41e20"/><g fill="#000"><path d="m17.005625 5.83225c-.2916875-.005-.7758125.093-.765.316875-.8125-.13925-.897125.196375-.849375.495.0773125-.1185.1714375-.182875.24375-.195.108375-.018.22175.017.3375.088125.1158125.071125.243375.185875.3.256875-.28675.0685625-.5083125.024375-.733125-.015-.1108125-.019375-.265875-.08175-.358125-.14625-.0921875-.0645625-.12125-.12525-.26625-.27375-.1709375-.175-.3529375-.1258125-.29625.14625.131125.252625.3501875.3653125.62625.410625.132875.021875.33075.069125.555.069375.224375.00025.476125-.0325.613125-.00375-.0823125.0516875-.1754375.14075-.36.17625-.187625.0360625-.4729375-.111625-.646875-.151875.022125.14625.2066875.283125.57.354375.597125.13 1.09325.22875 1.42125.406875s.5348125.4009375.6825.575625c.2939375.3475.309375.614375.328125.673125.0605.5553125-.133125.86775-.493125.96375-.18.048-.499625-.042375-.616875-.18-.1171875-.1375-.23125-.3740625-.19875-.744375.031625-.1453125.19775-.52375.05625-.601875-.6516875-.3601875-1.443125-.724375-2.015625-.94125-.1564375-.05925-.285375.1534375-.335625.23625-.972625-.1184375-1.849625-.776625-2.244375-1.4775-.26875-.4773125-.711875.001-.6375.451875.1203125.50325.50375.867125.96375 1.125.4721875.26 1.062375.5158125 1.659375.5025.3216875.060875.3185.477-.0675.555-.7548125.0048125-1.357-.0140625-1.925625-.5625-.43125-.39375-.674.0754375-.549375.34125.21125.8195 1.380375 1.049 2.563125.78375.458-.0758125.18375.415.054375.42-.4941875.354375-1.3789375.7010625-2.158125-.00375-.3565625-.273-.597625-.0435-.465.350625.34575 1.027625 1.66825.811875 2.57625.305625.23375-.13025.4458125.1728125.16125.403125-1.1291875.789-1.69375.798-2.203125.495-.637625-.2515-.69375.4558125-.315.688125.421.25825 1.49225.064625 2.278125-.429375.336875-.2505.3521875.14125.13875.29625-.932625.806-1.30025 1.01825-2.2725.886875-.4820625-.0375-.474875.556875-.095625.789375.5178125.3175 1.529-.2095625 2.31375-.860625.3303125-.1765.3845625.1129375.22125.455625-.4795.605-.9295625.9616875-1.363125 1.126875-.4335.1651875-.8505.138875-1.145625.0375-.36-.12375-.405125.2504375-.20625.590625.12.205.616875.27075 1.153125.080625.536375-.1901875 1.1121875-.63625 1.5075-1.15875.344-.30125.30125.103375.144375.388125-.791625 1.2515-1.515625 1.71575-2.469375 1.636875-.4228125-.071875-.518875.257-.249375.560625.47325.3925 1.065.380125 1.5825-.0075.460125-.443625 1.3403125-1.39875 1.801875-1.910625.3253125-.259375.4291875-.00375.33375.523125-.08675.301625-.3040625.619375-.89625.85125-.4045.230875-.10075.5490625.2025.555.166875.003125.50575-.191875.765-.48375.3410625-.3840625.361375-.641875.549375-1.239375.1776875-.29125.495-.155375.495.15-.1521875.5985-.2829375.7058125-.590625.950625-.29425.27625.205.368375.373125.255.486625-.328125.664375-.7523125.826875-1.138125.117375-.2785.4578125-.1435.3.31125-.377125 1.08675-.996875 1.514625-2.08125 1.734375-.109875.0195-.176875.084375-.13875.211875.145625.1510625.291375.288125.436875.43875-.6705.1951875-1.21525.304875-1.88625.500625-.3291875-.2158125-.595125-.3989375-.924375-.615-.086875-.2029375-.12725-.5126875-.613125-.294375-.3291875-.1520625-.4810625-.09625-.66375.05625.26375.0098125.3785.0804375.481875.200625.135.355625.44625.39.765.28875.2073125.174625.31775.308625.525.48375-.386875-.01325-.6565-.020125-1.0425-.031875-.3684375-.395625-.6625-.3739375-.92625-.06375-.201.030875-.28625.03525-.42375.279375.21625-.08875.3525-.115375.44625-.01875.39175.227125.647625.1764375.841875 0 .3779375.023125.7185.0426875 1.096875.0675-.139.118125-.32975.1808125-.46875.3-.567625-.162375-.863875.05625-.96375.519375-.0760625.187-.1116875.379375-.07875.579375.055-.182875.1433125-.340125.305625-.43875.5059375.1285625.69625-.078.72375-.380625.243875-.1989375.611625-.2428125.855-.444375.2845625.091125.4221875.1475.70875.238125.101875.3096875.3325.43225.706875.3525.445625.014.367.196875.403125.343125.1184375-.21.115125-.414375-.159375-.6-.099875-.27125-.321125-.39475-.61125-.238125-.273125-.0775-.3448125-.1889375-.616875-.26625.688125-.219375 1.17625-.268625 1.86375-.4875.172125.162375.3085.2789375.481875.42375.091375.0545625.178875.0683125.2325 0 .430875-.6235625.6233125-1.173125 1.02375-1.584375.153-.170125.34625-.399625.560625-.455625.1071875-.0279375.238625-.010875.3225.080625.0839375.0915625.149875.26025.121875.511875-.040125.36125-.127375.4753125-.22875.691875-.10125.216625-.2251875.3498125-.3525.515625-.2545625.3316875-.5905.52475-.789375.654375-.397625.259375-.5658125.1458125-.87375.129375-.3979375.0446875-.50375.2385-.178125.50625.3045.1584375.578125.178.800625.136875.191-.0353125.4145-.281875.57375-.414375.17925-.2070625.4765.0385.27375.279375-.3683125.4376875-.7364375.72625-1.190625.72-.47725.06425-.388.3325-.07125.463125.57.2353125 1.0848125-.205375 1.34625-.495.20175-.220625.345-.229375.309375.1125-.20025.61875-.4739375.857875-.920625.88875-.3623125-.033625-.36625.2460625-.10125.435.603625.4178125 1.04075-.29375 1.245-.72375.145625-.3879375.36875-.2034375.391875.11625.003125.4271875-.19.7759375-.706875 1.213125.3955.630125.8565625 1.271 1.2525 1.903125l1.2003125-13.3683125-1.2-2.112125c-.125-.1154375-.5476875-.6134375-.658125-.6825-.04025-.043125-.06475-.0735-.005625-.095625.05725-.0215.19125-.045625.28125-.061875-.2545-.255-.4725-.33675-.954375-.47625.1175-.05.231625-.0209375.5775-.0375-.1373125-.195-.444-.4935-.84-.6375.2615-.186.3125-.1984375.571875-.41625-.4491875-.031875-.8328125-.1175-1.21875-.234375-.244-.1141875-.5829375-.2110625-.748125-.21375zm.043125.523125c.2375 0 .384375.081375.384375.18 0 .100375-.146875.181875-.384375.181875-.236375 0-.38625-.0889375-.38625-.189375 0-.098625.149875-.1725.38625-.1725z"/><path d="m5.630625.01975c-.2916875-.005-.7758125.093-.765.316875-.8125-.13925-.897125.196375-.849375.495.0773125-.1185.1714375-.182875.24375-.195.108375-.018.22175.017.3375.088125.1158125.071125.243375.185875.3.256875-.28675.0685625-.5083125.024375-.733125-.015-.1108125-.019375-.265875-.08175-.358125-.14625-.0921875-.0645625-.12125-.12525-.26625-.27375-.1709375-.175-.3529375-.1258125-.29625.14625.131125.252625.3501875.3653125.62625.410625.132875.021875.33075.069125.555.069375.224375.00025.476125-.0325.613125-.00375-.0823125.0516875-.1754375.14075-.36.17625-.187625.0360625-.4729375-.111625-.646875-.151875.022125.14625.2066875.283125.57.354375.597125.13 1.09325.22875 1.42125.406875s.5348125.4009375.6825.575625c.2939375.3475.309375.614375.328125.673125.0605.5553125-.133125.86775-.493125.96375-.18.048-.499625-.042375-.616875-.18-.1171875-.1375-.23125-.3740625-.19875-.744375.031625-.1453125.19775-.52375.05625-.601875-.6516875-.3601875-1.443125-.724375-2.015625-.94125-.1564375-.05925-.285375.1534375-.335625.23625-.972625-.1184375-1.849625-.776625-2.244375-1.4775-.26875-.4773125-.711875.001-.6375.451875.1203125.50325.50375.867125.96375 1.125.4721875.26 1.062375.5158125 1.659375.5025.3216875.060875.3185.477-.0675.555-.7548125.0048125-1.357-.0140625-1.925625-.5625-.43125-.39375-.674.0754375-.549375.34125.21125.8195 1.380375 1.049 2.563125.78375.458-.0758125.18375.415.054375.42-.4941875.354375-1.3789375.7010625-2.158125-.00375-.3565625-.273-.597625-.0435-.465.350625.34575 1.027625 1.66825.811875 2.57625.305625.23375-.13025.4458125.1728125.16125.403125-1.1291875.789-1.69375.798-2.203125.495-.637625-.2515-.69375.4558125-.315.688125.421.25825 1.49225.064625 2.278125-.429375.336875-.2505.3521875.14125.13875.29625-.932625.806-1.30025 1.01825-2.2725.886875-.4820625-.0375-.474875.556875-.095625.789375.5178125.3175 1.529-.2095625 2.31375-.860625.3303125-.1765.3845625.1129375.22125.455625-.4795.605-.9295625.9616875-1.363125 1.126875-.4335.1651875-.8505.138875-1.145625.0375-.36-.12375-.405125.2504375-.20625.590625.12.205.616875.27075 1.153125.080625.536375-.1901875 1.1121875-.63625 1.5075-1.15875.344-.30125.30125.103375.144375.388125-.791625 1.2515-1.515625 1.71575-2.469375 1.636875-.4228125-.071875-.518875.257-.249375.560625.47325.3925 1.065.380125 1.5825-.0075.460125-.443625 1.3403125-1.39875 1.801875-1.910625.3253125-.259375.4291875-.00375.33375.523125-.08675.301625-.3040625.619375-.89625.85125-.4045.230875-.10075.5490625.2025.555.166875.003125.50575-.191875.765-.48375.3410625-.3840625.361375-.641875.549375-1.239375.1776875-.29125.495-.155375.495.15-.1521875.5985-.2829375.7058125-.590625.950625-.29425.27625.205.368375.373125.255.486625-.328125.664375-.7523125.826875-1.138125.117375-.2785.4578125-.1435.3.31125-.377125 1.08675-.996875 1.514625-2.08125 1.734375-.109875.0195-.176875.084375-.13875.211875.145625.1510625.291375.288125.436875.43875-.6705.1951875-1.21525.304875-1.88625.500625-.3291875-.2158125-.595125-.3989375-.924375-.615-.086875-.2029375-.12725-.5126875-.613125-.294375-.3291875-.1520625-.4810625-.09625-.66375.05625.26375.0098125.3785.0804375.481875.200625.135.355625.44625.39.765.28875.2073125.174625.31775.308625.525.48375-.386875-.01325-.6565-.020125-1.0425-.031875-.3684375-.395625-.6625-.3739375-.92625-.06375-.201.030875-.28625.03525-.42375.279375.21625-.08875.3525-.115375.44625-.01875.39175.227125.647625.1764375.841875 0 .3779375.023125.7185.0426875 1.096875.0675-.139.118125-.32975.1808125-.46875.3-.567625-.162375-.863875.05625-.96375.519375-.0760625.187-.1116875.379375-.07875.579375.055-.182875.1433125-.340125.305625-.43875.5059375.1285625.69625-.078.72375-.380625.243875-.1989375.611625-.2428125.855-.444375.2845625.091125.4221875.1475.70875.238125.101875.3096875.3325.43225.706875.3525.445625.014.367.196875.403125.343125.1184375-.21.115125-.414375-.159375-.6-.099875-.27125-.321125-.39475-.61125-.238125-.273125-.0775-.3448125-.1889375-.616875-.26625.688125-.219375 1.17625-.268625 1.86375-.4875.172125.162375.3085.2789375.481875.42375.091375.0545625.178875.0683125.2325 0 .430875-.6235625.6233125-1.173125 1.02375-1.584375.153-.170125.34625-.399625.560625-.455625.1071875-.0279375.238625-.010875.3225.080625.0839375.0915625.149875.26025.121875.511875-.040125.36125-.127375.4753125-.22875.691875-.10125.216625-.2251875.3498125-.3525.515625-.2545625.3316875-.5905.52475-.789375.654375-.397625.259375-.5658125.1458125-.87375.129375-.3979375.0446875-.50375.2385-.178125.50625.3045.1584375.578125.178.800625.136875.191-.0353125.4145-.281875.57375-.414375.17925-.2070625.4765.0385.27375.279375-.3683125.4376875-.7364375.72625-1.190625.72-.47725.06425-.388.3325-.07125.463125.57.2353125 1.0848125-.205375 1.34625-.495.20175-.220625.345-.229375.309375.1125-.20025.61875-.4739375.857875-.920625.88875-.3623125-.033625-.36625.2460625-.10125.435.603625.4178125 1.04075-.29375 1.245-.72375.145625-.3879375.36875-.2034375.391875.11625.003125.4271875-.19.7759375-.706875 1.213125.3955.630125.8565625 1.271 1.2525 1.903125l1.2003125-13.3683125-1.2-2.112125c-.125-.1154375-.5476875-.6134375-.658125-.6825-.04025-.043125-.06475-.0735-.005625-.095625.05725-.0215.19125-.045625.28125-.061875-.2545-.255-.4725-.33675-.954375-.47625.1175-.05.231625-.0209375.5775-.0375-.1373125-.195-.444-.4935-.84-.6375.2615-.186.3125-.1984375.571875-.41625-.4491875-.031875-.8328125-.1175-1.21875-.234375-.244-.1141875-.5829375-.2110625-.748125-.21375zm.043125.523125c.2375 0 .384375.081375.384375.18 0 .100375-.146875.181875-.384375.181875-.236375 0-.38625-.0889375-.38625-.189375 0-.098625.149875-.1725.38625-.1725z" transform="matrix(-1 0 0 1 28.625 5.8125)"/></g></g></g></g></svg>