<svg height="48" viewBox="0 0 48 48" width="48" xmlns="http://www.w3.org/2000/svg" xmlns:xlink="http://www.w3.org/1999/xlink"><defs><path id="a" d="m8 9h32c2.209139 0 4 1.790861 4 4v22c0 2.209139-1.790861 4-4 4h-32c-2.209139 0-4-1.790861-4-4v-22c0-2.209139 1.790861-4 4-4z"/><mask id="b" fill="#fff"><use fill="#fff" fill-rule="evenodd" xlink:href="#a"/></mask></defs><g fill="none" fill-rule="evenodd"><path d="m0 0h48v48h-48z"/><use fill="#d8d8d8" xlink:href="#a"/><g mask="url(#b)"><g fill-rule="nonzero" transform="translate(4 9)"><path d="m0 0h40v30h-40z" fill="#74acdf"/><path d="m0 10.0001875h40v10.0001875h-40z" fill="#fff"/><g fill="#f6b40e" stroke="#85340a" stroke-width=".1"><g transform="translate(16.04 14.7)"><path d="m3.7704.3786 1.70724 3.71952s.0294.0711.0768.05154c.0474-.01962.01794-.09072.01794-.09072l-1.4229-3.83736m-.0408 1.4472c-.02082.56568.32712.87678.28164 1.38192-.04542.5052.23202.7908.2964.98724s-.0696.31392-.01188.34188c.05778.02796.1842-.1272.14298-.4065s-.2532-.36222-.2034-.9792-.25236-.76068-.1788-1.32348"/><path d="m.0504.1986 1.70724 3.71952s.0294.0711.0768.05154c.0474-.01962.01794-.09072.01794-.09072l-1.4229-3.83736m-.0408 1.4472c-.02082.56568.32712.87678.28164 1.38192-.04542.5052.23202.7908.2964.98724s-.0696.31392-.01188.34188c.05778.02796.1842-.1272.14298-.4065s-.2532-.36222-.2034-.9792-.25236-.76068-.1788-1.32348" transform="matrix(.92387953 .38268343 -.38268343 .92387953 3.784191 .097291)"/><path d="m.0504.1986 1.70724 3.71952s.0294.0711.0768.05154c.0474-.01962.01794-.09072.01794-.09072l-1.4229-3.83736m-.0408 1.4472c-.02082.56568.32712.87678.28164 1.38192-.04542.5052.23202.7908.2964.98724s-.0696.31392-.01188.34188c.05778.02796.1842-.1272.14298-.4065s-.2532-.36222-.2034-.9792-.25236-.76068-.1788-1.32348" transform="matrix(.70710678 .70710678 -.70710678 .70710678 3.875147 .045442)"/><path d="m.0504.1986 1.70724 3.71952s.0294.0711.0768.05154c.0474-.01962.01794-.09072.01794-.09072l-1.4229-3.83736m-.0408 1.4472c-.02082.56568.32712.87678.28164 1.38192-.04542.5052.23202.7908.2964.98724s-.0696.31392-.01188.34188c.05778.02796.1842-.1272.14298-.4065s-.2532-.36222-.2034-.9792-.25236-.76068-.1788-1.32348" transform="matrix(.38268343 .92387953 -.92387953 .38268343 3.979021 .032347)"/></g><g transform="matrix(0 1 -1 0 20.3 11.04)"><path d="m3.7704.3786 1.70724 3.71952s.0294.0711.0768.05154c.0474-.01962.01794-.09072.01794-.09072l-1.4229-3.83736m-.0408 1.4472c-.02082.56568.32712.87678.28164 1.38192-.04542.5052.23202.7908.2964.98724s-.0696.31392-.01188.34188c.05778.02796.1842-.1272.14298-.4065s-.2532-.36222-.2034-.9792-.25236-.76068-.1788-1.32348"/><path d="m.0504.1986 1.70724 3.71952s.0294.0711.0768.05154c.0474-.01962.01794-.09072.01794-.09072l-1.4229-3.83736m-.0408 1.4472c-.02082.56568.32712.87678.28164 1.38192-.04542.5052.23202.7908.2964.98724s-.0696.31392-.01188.34188c.05778.02796.1842-.1272.14298-.4065s-.2532-.36222-.2034-.9792-.25236-.76068-.1788-1.32348" transform="matrix(.92387953 .38268343 -.38268343 .92387953 3.784191 .097291)"/><path d="m.0504.1986 1.70724 3.71952s.0294.0711.0768.05154c.0474-.01962.01794-.09072.01794-.09072l-1.4229-3.83736m-.0408 1.4472c-.02082.56568.32712.87678.28164 1.38192-.04542.5052.23202.7908.2964.98724s-.0696.31392-.01188.34188c.05778.02796.1842-.1272.14298-.4065s-.2532-.36222-.2034-.9792-.25236-.76068-.1788-1.32348" transform="matrix(.70710678 .70710678 -.70710678 .70710678 3.875147 .045442)"/><path d="m.0504.1986 1.70724 3.71952s.0294.0711.0768.05154c.0474-.01962.01794-.09072.01794-.09072l-1.4229-3.83736m-.0408 1.4472c-.02082.56568.32712.87678.28164 1.38192-.04542.5052.23202.7908.2964.98724s-.0696.31392-.01188.34188c.05778.02796.1842-.1272.14298-.4065s-.2532-.36222-.2034-.9792-.25236-.76068-.1788-1.32348" transform="matrix(.38268343 .92387953 -.92387953 .38268343 3.979021 .032347)"/></g><g transform="matrix(-1 0 0 -1 23.96 15.3)"><path d="m3.7704.3786 1.70724 3.71952s.0294.0711.0768.05154c.0474-.01962.01794-.09072.01794-.09072l-1.4229-3.83736m-.0408 1.4472c-.02082.56568.32712.87678.28164 1.38192-.04542.5052.23202.7908.2964.98724s-.0696.31392-.01188.34188c.05778.02796.1842-.1272.14298-.4065s-.2532-.36222-.2034-.9792-.25236-.76068-.1788-1.32348"/><path d="m.0504.1986 1.70724 3.71952s.0294.0711.0768.05154c.0474-.01962.01794-.09072.01794-.09072l-1.4229-3.83736m-.0408 1.4472c-.02082.56568.32712.87678.28164 1.38192-.04542.5052.23202.7908.2964.98724s-.0696.31392-.01188.34188c.05778.02796.1842-.1272.14298-.4065s-.2532-.36222-.2034-.9792-.25236-.76068-.1788-1.32348" transform="matrix(.92387953 .38268343 -.38268343 .92387953 3.784191 .097291)"/><path d="m.0504.1986 1.70724 3.71952s.0294.0711.0768.05154c.0474-.01962.01794-.09072.01794-.09072l-1.4229-3.83736m-.0408 1.4472c-.02082.56568.32712.87678.28164 1.38192-.04542.5052.23202.7908.2964.98724s-.0696.31392-.01188.34188c.05778.02796.1842-.1272.14298-.4065s-.2532-.36222-.2034-.9792-.25236-.76068-.1788-1.32348" transform="matrix(.70710678 .70710678 -.70710678 .70710678 3.875147 .045442)"/><path d="m.0504.1986 1.70724 3.71952s.0294.0711.0768.05154c.0474-.01962.01794-.09072.01794-.09072l-1.4229-3.83736m-.0408 1.4472c-.02082.56568.32712.87678.28164 1.38192-.04542.5052.23202.7908.2964.98724s-.0696.31392-.01188.34188c.05778.02796.1842-.1272.14298-.4065s-.2532-.36222-.2034-.9792-.25236-.76068-.1788-1.32348" transform="matrix(.38268343 .92387953 -.92387953 .38268343 3.979021 .032347)"/></g><g transform="matrix(0 -1 1 0 19.7 18.96)"><path d="m3.7704.3786 1.70724 3.71952s.0294.0711.0768.05154c.0474-.01962.01794-.09072.01794-.09072l-1.4229-3.83736m-.0408 1.4472c-.02082.56568.32712.87678.28164 1.38192-.04542.5052.23202.7908.2964.98724s-.0696.31392-.01188.34188c.05778.02796.1842-.1272.14298-.4065s-.2532-.36222-.2034-.9792-.25236-.76068-.1788-1.32348"/><path d="m.0504.1986 1.70724 3.71952s.0294.0711.0768.05154c.0474-.01962.01794-.09072.01794-.09072l-1.4229-3.83736m-.0408 1.4472c-.02082.56568.32712.87678.28164 1.38192-.04542.5052.23202.7908.2964.98724s-.0696.31392-.01188.34188c.05778.02796.1842-.1272.14298-.4065s-.2532-.36222-.2034-.9792-.25236-.76068-.1788-1.32348" transform="matrix(.92387953 .38268343 -.38268343 .92387953 3.784191 .097291)"/><path d="m.0504.1986 1.70724 3.71952s.0294.0711.0768.05154c.0474-.01962.01794-.09072.01794-.09072l-1.4229-3.83736m-.0408 1.4472c-.02082.56568.32712.87678.28164 1.38192-.04542.5052.23202.7908.2964.98724s-.0696.31392-.01188.34188c.05778.02796.1842-.1272.14298-.4065s-.2532-.36222-.2034-.9792-.25236-.76068-.1788-1.32348" transform="matrix(.70710678 .70710678 -.70710678 .70710678 3.875147 .045442)"/><path d="m.0504.1986 1.70724 3.71952s.0294.0711.0768.05154c.0474-.01962.01794-.09072.01794-.09072l-1.4229-3.83736m-.0408 1.4472c-.02082.56568.32712.87678.28164 1.38192-.04542.5052.23202.7908.2964.98724s-.0696.31392-.01188.34188c.05778.02796.1842-.1272.14298-.4065s-.2532-.36222-.2034-.9792-.25236-.76068-.1788-1.32348" transform="matrix(.38268343 .92387953 -.92387953 .38268343 3.979021 .032347)"/></g><circle cx="20" cy="15" r="1.666688"/></g><path d="m20.5681875 14.643625c-.11375 0-.22275.0493125-.286875.151875.1281875.1153125.411375.127875.60375-.013125-.0822523-.087572-.1967368-.1377013-.316875-.13875zm-.001875.02625c.1108125-.0020625.2143125.0488125.22875.099375-.1281875.141-.3330625.12875-.46125.02625.056125-.08975.146375-.1240625.2325-.125625z" fill="#843511"/></g></g></g></svg>