<svg height="48" viewBox="0 0 48 48" width="48" xmlns="http://www.w3.org/2000/svg" xmlns:xlink="http://www.w3.org/1999/xlink"><defs><path id="a" d="m8 9h32c2.209139 0 4 1.790861 4 4v22c0 2.209139-1.790861 4-4 4h-32c-2.209139 0-4-1.790861-4-4v-22c0-2.209139 1.790861-4 4-4z"/><mask id="b" fill="#fff"><use fill="#fff" fill-rule="evenodd" xlink:href="#a"/></mask></defs><g fill="none" fill-rule="evenodd"><path d="m0 0h48v48h-48z"/><use fill="#d8d8d8" xlink:href="#a"/><g mask="url(#b)"><g transform="translate(4 9)"><g fill-rule="nonzero"><path d="m0 0h40v30h-40z" fill="#006"/><path d="m0 0v1.746875l19.1898125 13.878125h2.4154375v-1.746875l-19.1898125-13.878125zm21.60525 0v1.746875l-19.1898125 13.878125h-2.4154375v-1.746875l19.1898125-13.878125z" fill="#fff"/><path d="m9.0021875 0v15.625h3.600875v-15.625h-3.6009375zm-9.0021875 5.2083125v5.2083125h21.60525v-5.2083125z" fill="#fff"/><path d="m0 6.25v3.125h21.60525v-3.125zm9.722375-6.25v15.625h2.1605v-15.625zm-9.722375 15.625 7.20175-5.208375h1.6103125l-7.20175 5.208375zm0-15.625 7.20175 5.2083125h-1.6103125l-5.5914375-4.04375zm12.793125 5.2083125 7.201875-5.2083125h1.61025l-7.20175 5.2083125zm8.81225 10.4166875-7.2018125-5.208375h1.6103125l5.5915 4.04375z" fill="#c00"/></g><path d="m18.735125 24.5326875-2.7283125.2371875.3758125 2.712875-1.8866875-1.98525-1.886625 1.98525.375875-2.712875-2.7283125-.2371875 2.355-1.39775-1.51525-2.2809375 2.560625.969625.83875-2.6070625.83875 2.607 2.560625-.9696875-1.515125 2.280875m14.02775 3.89825-.6585625-.990875 1.113125.421375.364-1.1328125.3640625 1.132875 1.1129375-.421375-.6585625.990875 1.023125.607375-1.1853125.103125.1635 1.178125-.81975-.8620625-.8198125.862125.1635-1.178125-1.18525-.103125m1.023-18.2384375-.6585625-.991 1.113125.421375.364-1.132625.3640625 1.1325 1.1129375-.42125-.6585625.9909375 1.023125.6073125-1.1853125.103125.1635 1.178125-.81975-.8620625-.8198125.862125.1635-1.178125-1.18525-.103125m-5.588625 6.5551875-.6585625-.9908125 1.113.421375.3640625-1.1328125.3640625 1.1328125 1.113-.421375-.6585.9908125 1.023125.6075-1.1853125.103125.1634375 1.178125-.8198125-.8621875-.8198125.8621875.1635625-1.178125-1.18525-.103125m13.51325-2.3705625-.659875-.990875 1.113875.421375.361375-1.1328125.365875 1.1328125 1.11075-.421375-.65675.990875 1.022625.607375-1.185625.103125.163 1.178125-.819875-.8620625-.8198125.8620625.163125-1.178125-1.1835-.103125m-1.3906875 4.587125-.6479375.4015625.182125-.74-.58225-.4914375.7603125-.056.2878125-.705625.287875.705625.7603125.0560625-.5823125.4914375.182.74" fill="#fff" fill-rule="evenodd"/></g></g></g></svg>