<svg height="48" viewBox="0 0 48 48" width="48" xmlns="http://www.w3.org/2000/svg" xmlns:xlink="http://www.w3.org/1999/xlink"><defs><path id="a" d="m8 9h32c2.209139 0 4 1.790861 4 4v22c0 2.209139-1.790861 4-4 4h-32c-2.209139 0-4-1.790861-4-4v-22c0-2.209139 1.790861-4 4-4z"/><mask id="b" fill="#fff"><use fill="#fff" fill-rule="evenodd" xlink:href="#a"/></mask></defs><g fill="none" fill-rule="evenodd"><path d="m0 0h48v48h-48z"/><use fill="#d8d8d8" xlink:href="#a"/><g fill-rule="nonzero" mask="url(#b)"><g transform="translate(4 9)"><path d="m.00624025 0h39.93759755v30h-39.93759755z" fill="#3f9c35"/><path d="m.00624025 0h39.93759755v20h-39.93759755z" fill="#ed2939"/><path d="m.00624025 0h39.93759755v10h-39.93759755z" fill="#00b9e4"/><ellipse cx="18.970359" cy="15" fill="#fff" rx="4.49298" ry="4.5"/><ellipse cx="19.968799" cy="15" fill="#ed2939" rx="3.74415" ry="3.75"/><path d="m23.9625585 12.5.4776287 1.345125 1.2873635-.612875-.6119189 1.289375 1.3430265.478375-1.3430265.478375.6119189 1.289375-1.2873635-.612875-.4776287 1.345125-.4776287-1.345125-1.2873635.612875.6119189-1.289375-1.3430265-.478375 1.3430265-.478375-.6119189-1.289375 1.2873635.612875z" fill="#fff"/></g></g></g></svg>