<svg height="48" viewBox="0 0 48 48" width="48" xmlns="http://www.w3.org/2000/svg" xmlns:xlink="http://www.w3.org/1999/xlink"><defs><path id="a" d="m8 9h32c2.209139 0 4 1.790861 4 4v22c0 2.209139-1.790861 4-4 4h-32c-2.209139 0-4-1.790861-4-4v-22c0-2.209139 1.790861-4 4-4z"/><path id="b" d="m0 0h39.9377925v30h-39.9377925z"/><mask id="c" fill="#fff"><use fill="#fff" fill-rule="evenodd" xlink:href="#a"/></mask><mask id="d" fill="#fff"><use fill="#fff" fill-rule="evenodd" xlink:href="#b"/></mask></defs><g fill="none" fill-rule="evenodd"><path d="m0 0h48v48h-48z"/><use fill="#d8d8d8" xlink:href="#a"/><g mask="url(#c)"><g fill-rule="nonzero" transform="translate(4 9)"><use fill="#009" xlink:href="#b"/><path d="m10.0468019 0 29.8907956 30v-29.98436362z" fill="#fc0" mask="url(#d)"/><path d="m32.4736544 28.2147656-1.6301677-1.1929101-1.6754485 1.1871679.6334634-1.947832-1.648596-1.2028125 2.0425507.0041602.6350429-1.9448438.6274376 1.9472461 2.0430772.0058008-1.6346723 1.2103711zm4.7558893.6060352-2.0430772-.0058008-.6274376-1.9472461-.6350429 1.9448438-2.0425507-.0041602 1.6485959 1.2028125-.6334633 1.947832 1.6754485-1.1871679 1.6301677 1.1929101-.6072543-1.9335937zm-9.0995125-6.2817774 1.6346724-1.2103711-2.0430772-.0058007-.6274376-1.9472461-.6350429 1.9448437-2.0425507-.0041601 1.6485959 1.2028125-.6334633 1.947832 1.6754485-1.187168 1.6301677 1.1929102zm-3.7649181-3.7760742 1.6346724-1.2103711-2.0430772-.0058008-.6274376-1.9472461-.6350429 1.9448438-2.0425507-.0041602 1.6485959 1.2028125-.6334633 1.9478321 1.6754485-1.187168 1.6301677 1.1929102zm-3.7233814-3.7291406 1.6346139-1.2104297-2.0430188-.0058008-.6274376-1.9472461-.6350429 1.9448438-2.0425507-.0041602 1.648596 1.2028125-.6334634 1.9478321 1.6754486-1.1872852 1.6301677 1.1929687zm-3.7701833-3.7656445 1.6346138-1.2104297-2.0430187-.0058008-.6274376-1.9472461-.6350429 1.9448437-2.0425507-.0041601 1.648596 1.2028125-.6334634 1.947832 1.6754485-1.1872265 1.6301678 1.1929687zm-3.723323-3.74484379 1.6346139-1.21042969-2.0430187-.00580078-.6274961-1.94724609-.6350429 1.94484375-2.04255071-.00416016 1.64859591 1.2028125-.6334633 1.94783203 1.6754485-1.18722656 1.6301677 1.19296875zm-3.74414974-3.75 1.63461384-1.21042969-2.04301867-.00580078-.6274961-1.94724609-.6350429 1.94484375-2.04255071-.00416016 1.64859595 1.2028125-.63340484 1.94783203 1.67544852-1.18722656 1.63016775 1.19296875zm-3.74414976-3.75 1.63461388-1.21037109-2.04301872-.00580078-.6274961-1.94730469-.6350429 1.94484375-2.0425507-.00416016 1.64859594 1.2028125-.63340484 1.94783203 1.67544852-1.18728515 1.63016771 1.19296875z" fill="#fff" mask="url(#d)"/></g></g></g></svg>