<svg height="48" viewBox="0 0 48 48" width="48" xmlns="http://www.w3.org/2000/svg" xmlns:xlink="http://www.w3.org/1999/xlink"><defs><path id="a" d="m8 9h32c2.209139 0 4 1.790861 4 4v22c0 2.209139-1.790861 4-4 4h-32c-2.209139 0-4-1.790861-4-4v-22c0-2.209139 1.790861-4 4-4z"/><mask id="b" fill="#fff"><use fill="#fff" fill-rule="evenodd" xlink:href="#a"/></mask></defs><g fill="none" fill-rule="evenodd"><path d="m0 0h48v48h-48z"/><use fill="#d8d8d8" xlink:href="#a"/><g mask="url(#b)"><g transform="translate(4 9)"><path d="m0 0h40v30h-40z" fill="#cf142b" fill-rule="nonzero"/><path d="m0 0h20v10h-20z" fill="#00247d" fill-rule="nonzero"/><path d="m0 0v1.118l17.764 8.882h2.236v-1.118l-17.764-8.882zm20 0v1.118l-17.764 8.882h-2.236v-1.118l17.764-8.882z" fill="#fff" fill-rule="nonzero"/><path d="m8.3333125 0v10h3.333375v-10zm-8.3333125 3.3333125v3.333375h20v-3.333375z" fill="#fff" fill-rule="nonzero"/><path d="m0 4v2h20v-2zm9-4v10h2v-10zm-9 10 6.6666875-3.3333125h1.490625l-6.6666875 3.3333125zm0-10 6.6666875 3.3333125h-1.490625l-5.1760625-2.588zm11.8426875 3.3333125 6.6666875-3.3333125h1.490625l-6.6666875 3.3333125zm8.1573125 6.6666875-6.6666875-3.3333125h1.490625l5.1760625 2.588z" fill="#cf142b" fill-rule="nonzero"/><path d="m34.614375 9.26625v8.4695625c0 2.2623125-4.5225 2.9973125-4.5225 2.9973125s-4.522375-.735-4.522375-2.9973125v-8.4695625h9.045z" fill="#fff" fill-rule="nonzero"/><path d="m34.614375 17.7358125c0 2.2623125-4.5225 2.9973125-4.5225 2.9973125s-4.522375-.735-4.522375-2.9973125c0 0 0-.1821875.092-.2858125 0 0-.0498125.37625.23925.660875 0 0-.22675-.4014375-.005-.796 0 0-.08225.507625.23425.799125 0 0-.174375-.4146875.0225-.8770625 0 0-.09725.7565.2466875.9073125 0 0 .094625-.43475-.042375-.71375 0 0 .2366875.0955.2241875.72625 0 0 .07475-.0929375.0946875-.5478125 0 0 .01.5201875.189375.6408125 0 0 .054875-.05275-.019875-.289s.032375-.3190625.0498125-.3140625c0 0-.03925.26125.1798125.457375 0 0-.095-.409625.037125-.465 0 0-.027375.346875.24675.4248125 0 0 .02-.100625-.039875-.213625 0 0-.0523125-.134125-.0125-.2366875 0 0 .08725.3145625.206875.367375 0 0-.0723125-.184375-.005-.367375 0 0 .015.261875.2491875.369875 0 0-.154375-.2026875-.093375-.425625l1.506375.07375.78.03725 2.340125-.1654375.40375-.346875s.159375.22125-.09225.570625c0 0 .249375-.0453125.3290625-.434875 0 0 .102125.216125-.0375.455 0 0 .27675-.2765.3165625-.590625 0 0 .1071875.304-.1545.63075 0 0 .23425-.0779375.3339375-.42475 0 0 .0798125.2089375-.147.504125 0 0 .42375-.225.41125-.69 0 0 .176875.25625-.025.608125 0 0 .216875-.1935.236875-.4825 0 0 .1195625.130625-.01.49 0 0 .264125-.24875.304-.5176875 0 0 .0573125.24875-.169375.5629375 0 0 .154375-.0376875.3015-.344375 0 0 .039875.12075-.0946875.341875 0 0 .144625-.025125.24175-.3015625 0 0 .0175.165875-.024875.3141875 0 0 .112125-.072875.1370625-.3870625 0 0 .062625.103.06375.231125.0009375.12825-.000125.0440625-.000125.0440625z" fill="#2f8f22" fill-rule="nonzero"/><path d="m32.285625 12.83975s-.15725.0266875-.3590625-.0348125c-.201875-.0615625-.2834375-.0365625-.3460625 0 0 0 .081875-.16225-.1175-.2903125 0 0 .0648125.16375-.024875.2401875 0 0-.039875.0375-.08725-.019 0 0-.06975-.071625-.14325-.126875 0 0 .169375-.0590625.1383125-.23125-.03125-.172125-.123375-.19475-.173125-.2160625 0 0 .017375.077875 0 .130625 0 0-.1845-.103.0659375-.24875.2504375-.1458125.204375-.23125.1595-.305375-.044875-.0740625-.1408125-.15575-.188125-.1846875 0 0 .0498125.0779375.0410625.1445625-.00875.0665625-.1221875.109375-.09975-.0075.0225-.116875-.00125-.096875-.00375-.22125 0 0 .223125.0754375.3103125-.141875 0 0 .085875-.225-.19575-.336875 0 0 .0685625.09175.034875.160875 0 0-.05975.113125-.1308125.021375s-.115875-.109375-.108375-.2175c0 0 .255375.0353125.185625-.2425 0 0-.041125.1848125-.3725-.064 0 0 .2154375-.22125.132-.399625 0 0-.02625-.0816875-.2604375-.0339375 0 0 .203125-.128125.117125-.2375 0 0-.04375-.0728125-.233125.022625 0 0 .0735625-.126875-.112125-.263875 0 0-.1245625.065375-.190625.125625 0 0-.1270625-.1608125-.208125-.224875 0 0-.147.0565625-.184375.225 0 0-.0685-.08175-.22425-.119375 0 0-.07475.138125.0225.25875 0 0-.072375-.0025-.204375-.0603125 0 0-.1508125-.071625-.1284375.0578125.0225.129375.033625.1583125.0635625.218625 0 0-.3383125-.0785625-.3239375.104375.01.126875.0573125.236125.162.327875 0 0-.1895.2475-.3515.0615 0 0-.0560625.0603125.0648125.218625 0 0 .120875.133125.02125.2175 0 0-.133375.1066875-.198125-.100625 0 0-.215625.214875.038625.3795 0 0 .1633125.093.33025-.0503125 0 0-.0510625.412125-.210625.3329375 0 0-.0959375-.0703125.076-.1545 0 0-.2479375-.0314375-.2878125.2085625 0 0-.030625.1909375.185625.260125 0 0 .167.0603125-.00625.18975 0 0-.122125.093-.0423125.23125 0 0 .0959375.152-.1470625.1670625 0 0-.1320625-.00125-.179375-.01875 0 0-.053375.099-.016125.2121875 0 0-.121-.090125-.396375.009625-.275375.0998125-.2541875.029375-.276625.059625-.0225.030125-.0760625.131875-.0760625.131875s.1445625.1759375.147.1721875c.0025-.00375-.027375.2010625-.027375.2010625l.0710625.0339375.566875-.2525.57575-.3.4628125.0283125.293625.069875.3855.028125.276125-.14725h.4l.439875.2191875.502125.299625.2616875.045875.2015625-.01075v-.406625l-.098125-.147125z" fill="#d40000" fill-rule="nonzero" stroke="#000" stroke-linejoin="round" stroke-width=".1"/><path d="m27.7189375 13.3151875s.219375.111875.310875-.023875c0 0 .1196875-.228-.143-.307125 0 0 .1429375-.1715625-.0103125-.329875 0 0-.080375-.0848125-.220625-.0225 0 0-.057875-.12075-.194375-.117 0 0-.1195625-.001875-.160625.13 0 0-.1645625-.06775-.256125.03025 0 0-.1514375.169625.0598125.3034375l.152.013875.1495-.069125.166875.0478125c.0001875 0-.0428125.169.1459375.34425z" fill="#d40000" fill-rule="nonzero" stroke="#000" stroke-linejoin="round" stroke-width=".1"/><path d="m32.614375 12.914125c.2641875-.024875.3575.198125.3575.198125.1384375.324875-.155625.4983125-.155625.4983125.0225.0728125.025.16825.025.16825.4135625.0503125.34125.51525.34125.51525l-.137-.113125c-.23925-.093-.4859375.110625-.662875.452375-.176875.341875-.0921875.502625-.0623125.90725.03.4045625.6878125.645875.6878125.645875s-.3115.8016875-.513375 1.316875-.623.3015625-.745125.193125c-.122125-.108625-.152625-.0483125-.214375 0-.061625.048125.2766875.312-.338875.5608125-.615625.24875-.7226875.4398125-.824875.502625-.102125.06275-.5283125.02-.570625-.03275-.042375-.05275-.0175-.05275-.176875-.1508125-.1595625-.098-.42875-.1834375-.7228125-.3266875-.294125-.14325-.286625-.32675-.284125-.364375.0025-.0376875.102125-.344375-.24225-.100625s-.6375-.116-.6375-.116c-.06725-.0884375-.353875-.8565-.353875-.8565-.07725-.2865-.22925-.62075-.22925-.62075.0075-.0025-.015.0351875.23925-.110625.2541875-.145625.368-.388125.456-.628125s.0025-.651-.029875-.7339375c-.0325-.082875-.221875-.463125-.456375-.54275-.2345-.0796875-.39175.118125-.39175.118125s-.072375-.465.34125-.51525c0 0 .0025-.0954375.025-.1683125 0 0-.2940625-.1735-.155625-.4984375 0 0 .0933125-.2229375.3575-.198125l-.063875.1209375s-.0665625.6635.904625.21875c.971125-.445.942-.527875 1.49525-.248875l.40375-.0075s.583125-.2698125.77-.15375.85975.493.85975.493.6504375.2439375.7775-.206l-.07225-.2165z" fill="#64b4d1" fill-rule="nonzero" stroke="#000" stroke-width=".1"/><path d="m29.692375 15.790625s-.03375-.203625-.0691875-.3355c0 0-.0720625-.206875.0509375-.35225l.1525-.1754375s.0946875-.1275.2120625-.144875c0 0 .1173125-.0035.1285-.027375.01125-.023875.1395625-.235.4448125 0 0 0 .0973125-.1558125.246875-.1821875 0 0 .1614375-.0490625.2395625.0715625 0 0 .1815-.137625.3373125.083875 0 0 .215625-.12125.3725.119875 0 0 .213125-.1039375.3439375.1175.130875.221625.1046875.3120625.1046875.3120625l.097125.351875.344.4246875-.8.3015625h-.35875l-.71775.19225-1.2746875.098-.355125-.4184375.5008125-.43725z" fill="#fff" fill-rule="nonzero" stroke="#00247d" stroke-width=".05"/><path d="m28.615 17.9091875s-.190625.011375-.287875.060375c-.0971875.049-.171875.10175-.2840625.173375 0 0-.052375.06975-.2729375.0273125 0 0-.38125-.091375-.38125.2064375 0 0-.456125.037625-.2691875.43725 0 0 .1270625.312875.38875.0905 0 0-.16825.24125.157.335625 0 0 .23175.0565.299-.181 0 0 .0375-.09425-.0523125-.211125 0 0 .1121875-.022625.190625-.14325 0 0-.2391875.302375.0225.41125 0 0 .32875.0825.3475-.2605 0 0-.02675-.1583125.100625-.214875 0 0 .2620625-.0603125.3816875-.3525 0 0-.37675-.200625-.3401875-.37875zm-.77-3.0066875s-.294-.1354375-.4335625 0c0 0-.194375-.120375-.39875 0 0 0-.194375.1270625-.3289375.266875 0 0-.0946875.08125-.0598125.33675 0 0 .049875.1801875.02.270625 0 0-.064875-.01275-.194375.1408125 0 0-.1645625.1905-.3090625.022375 0 0 .0448125.234.3164375.19625 0 0-.132.103125-.017375.3695 0 0 .08475.1885-.0498125.4246875 0 0 .23675-.0954375.22675-.374375 0 0-.02-.1885.0498125-.32175 0 0-.06975.121125.09225.3795 0 0 .1245625.1859375.0225.379375 0 0 .2341875-.085375.21175-.369375-.022375-.284-.1645-.165875-.07225-.42725 0 0 .0225.133875.0921875.201375.06975.0675.1595.180625.122125.369125 0 0 .1395625-.1734375.107125-.351875-.0323125-.1784375-.0671875-.232375-.0671875-.232375l.4410625-.250125.219375-.3970625.01-.633125z" fill="#d40000" fill-rule="nonzero" stroke="#000" stroke-linejoin="round" stroke-width=".1"/><path d="m27.17475 16.023125s-.181875-.0125-.211875-.153375m-.319-.092875s.063375-.0025.12075.05525c0 0 .04375.0653125.1060625.05775" fill="none" stroke="#000" stroke-width=".1"/><path d="m27.44375 15.4878125s-.0945625 0-.146875-.04525c0 0-.055-.037625-.0873125.0226875 0 0-.0498125.0854375.042375.123125 0 0 .1146875.0578125-.06725.1734375 0 0 .216875-.0779375.129625-.1834375 0 0-.0946875-.067875-.0598125-.093 0 0 .01-.020125.0475.005.0373125.025125.1120625.015125.141875-.0025z" fill="#000" fill-rule="nonzero"/><path d="m30.3048125 16.005625.1115-.0376875-.728625-2.5165-.0266875.007125z" fill="#784421" fill-rule="nonzero" stroke="#000" stroke-width=".05"/><path d="m27.8785625 18.79125s-.171875-.0966875-.314.0164375c0 0 .0145-.062875.123125-.0905 0 0 .05875-.165875.22325-.1508125 0 0-.06725.080375-.157.1483125 0 0 .09475.00975.124625.0765z" fill="#000" fill-rule="nonzero"/><path d="m27.273 19.190875s-.272875-.1715-.12525-.459875c0 0 .043-.0829375.12525-.066 0 0 .17.05275.037375.2884375 0 0-.0673125.1526875-.037375.2375zm.55325.2714375s-.38875-.177125-.2691875-.47875c0 0 .037-.101875.123125-.09425 0 0 .15.0075.12.2073125 0 0-.045.196.0260625.365625z" fill="#64b4d1" fill-rule="nonzero" stroke="#00247d" stroke-width=".1"/><path d="m27.744 18.336875s-.116875.08625-.164375.1440625c0 0-.0475-.0590625-.10975-.094875 0 0 .07175-.009375.1098125.0228125 0 0 .059625-.05775.164375-.072z" fill="#000" fill-rule="nonzero"/><path d="m28.08975 19.386875s.304625-.0771875.248625-.392c0 0-.03-.1375-.158875-.11875 0 0-.1554375.0396875-.05425.23975 0 0 .0598125.142875-.0355.2710625z" fill="#64b4d1" fill-rule="nonzero" stroke="#00247d" stroke-width=".1"/><path d="m29.46625 12.7278125s.19625.0601875.3028125.103625c0 0 .2840625.128125.6448125 0 0 0 .2439375-.096625.2765-.103625l-.186875.2845625-.009375.147.116875.1715s-.07.0283125-.279375-.099875c0 0-.231875-.1790625-.5084375 0 0 0-.15125.1025-.278375.099875l.179375-.2003125-.069125-.1805-.18875-.2223125z" fill="#f5ce00" fill-rule="nonzero" stroke="#000" stroke-width=".1"/><path d="m28.2315002 19.010875s.018-.015-.003-.0216875c0 0-.021-.005625-.036.01275 0 0-.0507.0504375-.0077.1195 0 0 .0407.0478125.021.0978125 0 0-.0028.014125.0152.016 0 0 .0172-.00375.0206-.0140625 0 0 .0244-.04875-.0175-.0965 0 0-.0508-.074125.0075-.11375z" fill="#fff" fill-rule="nonzero"/><path d="m32.4275 13.3151875s-.219375.111875-.310875-.023875c0 0-.119625-.228.143-.307125 0 0-.143-.1715625.01025-.329875 0 0 .080375-.0848125.220625-.0225 0 0 .057875-.12075.194375-.117 0 0 .1195625-.001875.160625.13 0 0 .1645625-.06775.256125.03025 0 0 .151375.169625-.0598125.3034375l-.1520625.013875-.1495625-.069125-.166875.0478125c-.000125 0 .042875.169-.145875.34425z" fill="#d40000" fill-rule="nonzero" stroke="#000" stroke-linejoin="round" stroke-width=".1"/><path d="m30.6905 13.138125s-.005625.0451875-.0504375.0501875c0 0-.04675.015125-.074-.043125 0 0-.003125-.01325-.003875-.0196875-.003125-.02725-.0125-.105625.07225-.169625 0 0 .138375-.113125.4025.023875 0 0 .209375.1005.353875.1859375 0 0 .37375.201125.41875.21625 0 0 .164375.082875.416125.0929375 0 0 .343875.025125.489625-.216125 0 0 .1109375-.1835 0-.300375 0 0-.0448125-.05275-.1185625-.043125-.0309375.0041875-.0651875.0184375-.098125.056875 0 0-.053625.078.008625.1358125 0 0 .081.049625.109625-.05525 0 0 .00125-.0075.00375.001875.0015625.0060625.019875.0860625-.023125.153875 0 0-.2075.314-.778125-.011375l-.752625-.422125s-.3775-.1935625-.603125.10925c0 0-.181875.25125.052375.4159375 0 0 .174375.10425.2840625-.0615625 0 0 .0910625-.163375-.05225-.235 0 0-.1258125-.059-.175625.066625-.049875.125625.097125.1583125.1108125.069125 0 0 .00375-.0214375.0075-.00125z" fill="#f5ce00" fill-rule="nonzero" stroke="#000" stroke-width=".1"/><path d="m27.7071875 14.4335625v-.47125c0-.037.00025-.0678125.05625-.113125.056125-.0451875.1159375-.116875.201875.086875 0 0 .16825-.17725.224375-.203625 0 0 .097125-.083.164375.037625 0 0 .08975-.13575.16075-.1696875 0 0 .16825-.109375.175625.21875l.1309375-.12075s.100875-.082875.213125.0301875c0 0 .190625.1846875.21675.2375 0 0 .0420625.057125.0453125.1473125 0 0-.0005.1014375.051875.158 0 0 .05975.05275.1176875.0640625 0 0 .1364375.00375.185.131875 0 0 .0225-.0221875.08975.5920625v1.1195l-.755125.9009375-1.211125-.346875-.48225-.19975-.108375-.35425.46725-.3015625.25425-.686125-.08225-.4825z" fill="#e4cb5e" fill-rule="nonzero" stroke="#000" stroke-width=".1"/><path d="m31.044375 15.027875.0573125-.0854375.1370625-.105625s.209375.549375.219375.66925v.1705s.3139375.080125.36875.562625l-.259125.4775-.40625-.22625-.1170625-.085375v-1.37725z" fill="#784421" fill-rule="nonzero" stroke="#000" stroke-width=".1"/><path d="m28.690625 13.819125s.0010625.117319.03475.2037056c.033625.0862621.14725.2355715.1546875.3162944" fill="none" stroke="#000" stroke-width=".1"/><path d="m31.5390625 17.9091875s.190625.011375.2878125.060375.171875.10175.2840625.173375c0 0 .0523125.06975.272875.0273125 0 0 .381375-.091375.381375.2064375 0 0 .4560625.037625.269125.43725 0 0-.1270625.312875-.38875.0905 0 0 .16825.24125-.157.335625 0 0-.23175.0565-.299-.181 0 0-.0375-.09425.0523125-.211125 0 0-.11225-.022625-.190625-.14325 0 0 .239125.302375-.0225.41125 0 0-.328875.0825-.347625-.2605 0 0 .026875-.1583125-.100625-.214875 0 0-.262-.0603125-.381625-.3525 0 0 .37675-.200625.3401875-.37875z" fill="#d40000" fill-rule="nonzero" stroke="#000" stroke-linejoin="round" stroke-width=".1"/><path d="m28.5401875 14.34125.311125 2.51125m-.23925-2.51675.3489375 2.3408125m-.2835-2.3516875.401875 2.3215" fill="none" stroke="#000" stroke-width=".05"/><path d="m29.313125 16.4465625.111375-.0376875-.72875-2.5165625-.0266875.0071875z" fill="#784421" fill-rule="nonzero" stroke="#000" stroke-width=".05"/><path d="m28.9004375 14.2326875.7359375 1.8595m-.785125-1.8294375.7103125 1.9425" fill="none" stroke="#000" stroke-width=".05"/><path d="m27.6854375 19.283875s-.085375-.081875-.0735-.22875c0 0 .005-.03125-.010625-.035625 0 0-.01675-.007-.0191875.029375 0 0-.02375.153375.07975.24125 0 0 .006875.008875.018375.00625 0 0 .01225-.002625.0051875-.0125z" fill="#fff" fill-rule="nonzero"/><path d="m28.933625 14.2075.75875 1.69625m-.96625-1.590875.465375 2.284375" fill="none" stroke="#000" stroke-width=".05"/><path d="m32.533125 16.005625c-.3325-.188625-.4053125-.6070625-.4053125-.6070625-.080375-.4165625.08225-.746375.08225-.746375.215-.45425.5833125-.53875.5833125-.53875s-.3608125.2503125-.46175.58775c0 0-.0785.2845-.033625.565375.0448125.2808125.028.2091875.0971875.4259375z" fill="#f5ce00" fill-rule="nonzero" stroke="#000" stroke-width=".1"/><path d="m31.1016875 14.9425-1.3966875.4409375-.07625.6221875c-.331375.480125-1.004875.5653125-1.004875.5653125l.524.5579375 1.006875.211125.52825-.407125.4785-.4423125c-.049875-.23625-.0225-.586875-.0225-.586875 0-.0590625.0225-.1973125.0225-.1973125s-.08225-.5679375-.0598125-.764z" fill="#784421" fill-rule="nonzero" stroke="#000" stroke-width=".1"/><path d="m29.648 15.849375s.919875-.2873125 1.468375-.5179375m-1.9099375 1.0423125s1.147625-.2075 1.955-.6673125l.296625-.2003125" fill="none" stroke="#000" stroke-width=".1"/><path d="m31.458125 15.676625-.3190625.227125s-1.2834375.591875-2.260625.607625m2.2603125-.187s-.9865625.5079375-1.55225.5155" fill="none" stroke="#000" stroke-width=".1"/><path d="m32.3153125 14.9025s.2940625-.1354375.433625 0c0 0 .194375-.120375.39875 0 0 0 .194375.1270625.3289375.266875 0 0 .0946875.08125.0598125.33675 0 0-.0498125.1801875-.02.270625 0 0 .064875-.01275.1945.1408125 0 0 .164375.1905.309.022375 0 0-.045.234-.3165625.19625 0 0 .1320625.103125.0175.3695 0 0-.08475.1885.0498125.4246875 0 0-.236875-.0954375-.226875-.374375 0 0 .02-.1885-.04975-.32175 0 0 .06975.121125-.0921875.3795 0 0-.1245625.1859375-.022375.379375 0 0-.23425-.085375-.211875-.369375.0225-.284.1645-.165875.0723125-.42725 0 0-.0225.13375-.09225.201375-.0698125.0675-.1595.180625-.122125.369125 0 0-.1395625-.1734375-.1071875-.351875s.0673125-.232375.0673125-.232375l-.441125-.250125-.219375-.3970625-.01-.633125z" fill="#d40000" fill-rule="nonzero" stroke="#000" stroke-linejoin="round" stroke-width=".1"/><path d="m27.31875 16.491875s.0410625-.194875.228-.118125c0 0 .0635625-.31925.40375-.330625.340125-.01125.35875.331875.35875.354375 0 0 .1-.1471875.266875-.130125 0 0 .287625-.016875.1805.444875l.054375.0579375s.21975-.515875.6720625-.3801875c0 0 .4410625.134375.15325.5616875 0 0 .2176875.28275.40225.25625.184625-.02625.349125-.0828125.53225-.4070625.183125-.3241875.609375-.373125.71775-.354375.108375.018875.194.08925.2116875.1659375 0 0 .225625-.753125 1.036875-.6348125l.325125.1635.123375.0565-.18375.519-.448125 1.0125-.34.104625-.355125-.2035625-.123375.066125-.01.30325-.4684375.3371875-.32525.134-.358875.245-.0835.219125s-.198125-.0835-.421875 0l-.074-.18125-.209375-.199875-.813125-.383625-.146875-.47375-.1485-.06625-.16625.190375-.242875.0283125-.362625-.245-.385-1.112125z" fill="#fff" fill-rule="nonzero" stroke="#00247d" stroke-width=".05"/><g stroke="#000"><path d="m30.86 12.805s-.310375-.01375-.2991875.3079375" fill="none" stroke-width=".1"/><path d="m32.901625 16.22225c-.5401875-.165875-.6878125-.746375-.6878125-.746375-.11025-.4354375.0673125-.816125.0673125-.816125.24675-.579375.6641875-.579375.6641875-.579375.209375-.005625.234375.1735.234375.1735.0198125.126875-.06925.17275-.06925.17275-.1433125.0779375-.233625-.027625-.233625-.027625-.0598125-.0779375-.01375-.147-.01375-.147.03675-.0515625.1071875-.0289375.1071875-.0289375.05575.0171875.0498125.086875.0498125.086875.0003125.001875.0015625.001875.0015625.001875.0025-.000625.0015625-.0015.0015625-.0015s.0125-.0854375-.0710625-.09425c0 0-.1625-.0351875-.353125.2023125 0 0-.251125.3204375-.250625.735125 0 0-.0316875.7784375.7795.980125 0 0-.087875.12625-.2429375.5823125 0 0-.175625.58625-.3434375.903125 0 0-.2229375.4520625-.720125.267375 0 0-.2959375-.13-.29525-.345 0 0-.020625-.196.157-.2110625 0 0 .173875-.013125.171875.135625 0 0 .00475.16125-.185.1245 0 0-.06625-.014125-.054125-.0791875 0 0 .010625-.0584375.090625-.033 0 0 .0025.0003125.0028125-.0009375 0 0 .000875-.001375-.001875-.0021875 0 0-.031-.013875-.06375-.0025 0 0-.02925.0098125-.031625.055625 0 0-.001875.0366875.0375.0575 0 0 .0476875.016875.085.013125 0 0 .0503125.1015.1640625.135875.158375.0478125.28875.0016875.368625-.062.086875-.06925.143-.190375.1598125-.22.016875-.0296875.162625-.35625.27225-.7075 0 0 .0959375-.3028125.1725-.461125l.03-.062125z" fill="#f5ce00" fill-rule="nonzero" stroke-width=".1"/><path d="m31.47825 17.774375s-.006125.1315-.16625.10275c0 0-.158-.0345625-.101875-.211125 0 0 .0373125-.124375.186875-.1064375 0 0 .1448125.0065625.208375.2045 0 0 .0485625.166875-.0345625.31-.092875.159875-.32775.264875-.4410625.311375 0 0-.45425.1784375-.5896875.2805 0 0-.20775.15425-.1158125.2978125 0 0 .0355.0546875.08875.0546875 0 0 .0608125.0028125.0710625-.059375-.001875-.00125-.00625.03675-.03925.050875 0 0-.04425.02225-.090625-.017 0 0-.04925-.047125-.008125-.1203125 0 0 .053875-.0901875.179375-.036875 0 0 .110625.05475.0651875.17225 0 0-.040625.108125-.173875.10775 0 0-.1004375-.0033125-.164625-.070625-.1001875-.105-.105625-.309625-.0173125-.4154375 0 0 .0835-.1125.2510625-.1809375.0970625-.0396875.280375-.119375.471-.194125.134-.0525.25675-.1155.3364375-.209875 0 0 .0710625-.079125.091625-.214875 0 0 .0195625-.10175-.0425-.1240625 0 0-.0314375-.014125-.066-.009375.0009375.0016875.1018125-.0120625.1018125.0779375z" fill="#f5ce00" fill-rule="nonzero" stroke-width=".1"/><path d="m31.3858125 17.6975s.1115-.0201875.18125.1125c0 0 .041125.085375.04775.1348125m.0364375-.474s-.11175.019375-.05425.177375c.0541875.149.154875.1978125.18475.2185625" fill="none" stroke-width=".1"/><path d="m29.466125 13.138s.0055.04525.050375.0503125c0 0 .046875.015.074125-.043125 0 0 .003125-.0133125.003875-.01975.003125-.02725.0125-.105625-.0723125-.169625 0 0-.1383125-.113125-.4025.023875 0 0-.209375.1005-.353875.186 0 0-.37375.2010625-.418625.216125 0 0-.1645.0829375-.41625.093 0 0-.343875.025125-.489625-.2160625 0 0-.1108125-.1835625 0-.3004375 0 0 .045-.05275.11875-.043.030875.0040625.065.0183125.098125.056875 0 0 .0535625.0779375-.00875.135625 0 0-.081.04975-.109625-.0551875 0 0-.00125-.0075-.00375.001875-.001625.0060625-.02.0860625.023125.1539375 0 0 .207375.3139375.778125-.0114375l.7525-.422125s.377625-.1935.603125.109375c0 0 .181875.25125-.0523125.415875 0 0-.1745.104375-.284125-.0615625 0 0-.091-.163375.0523125-.235 0 0 .125875-.059.17575.0666875.0498125.125625-.09725.1583125-.110875.0690625 0 0-.00375-.0214375-.0075-.001375zm-1.842625 2.867625c.3325-.188625.4053125-.6070625.4053125-.6070625.0804375-.4165625-.0821875-.746375-.0821875-.746375-.215-.45425-.5833125-.53875-.5833125-.53875s.360875.2503125.461875.58775c0 0 .0784375.2845.0335625.565375-.045.2808125-.028125.2091875-.09725.4259375z" fill="#f5ce00" fill-rule="nonzero" stroke-width=".1"/><path d="m29.296625 12.805s.310375-.01375.299125.3079375" fill="none" stroke-width=".1"/><path d="m27.255 16.22225c.5401875-.165875.6878125-.746375.6878125-.746375.11025-.4354375-.0673125-.816125-.0673125-.816125-.2466875-.579375-.664125-.579375-.664125-.579375-.209375-.005625-.234375.1735-.234375.1735-.0198125.126875.06925.17275.06925.17275.14325.0779375.233625-.027625.233625-.027625.0598125-.0779375.01375-.147.01375-.147-.036875-.0515625-.1071875-.0289375-.1071875-.0289375-.05575.0171875-.0498125.086875-.0498125.086875-.0003125.001875-.0015625.001875-.0015625.001875-.0025-.000625-.0015-.0015-.0015-.0015s-.0125-.0854375.071-.09425c0 0 .162625-.0351875.35325.2023125 0 0 .2510625.3204375.2504375.735125 0 0 .031875.7784375-.779375.980125 0 0 .087875.12625.243.5823125 0 0 .175625.58625.343375.903125 0 0 .223.4520625.720125.267375 0 0 .2960625-.13.295375-.345 0 0 .0205-.196-.157-.2110625 0 0-.173875-.013125-.172.135625 0 0-.0046875.16125.185.1245 0 0 .0664375-.014125.05425-.0791875 0 0-.010625-.0584375-.090625-.033 0 0-.0025.0003125-.0028125-.0009375 0 0-.001-.001375.001875-.0021875 0 0 .030875-.013875.063625-.0025 0 0 .029375.0098125.031625.055625 0 0 .001875.0366875-.037375.0575 0 0-.0476875.016875-.085.013125 0 0-.0503125.1015-.1640625.135875-.1583125.0478125-.28875.0016875-.368625-.062-.086875-.06925-.143-.190375-.1598125-.22-.01675-.0296875-.1625-.35625-.2721875-.7075 0 0-.096-.3028125-.1725-.461125l-.03-.062125z" fill="#f5ce00" fill-rule="nonzero" stroke-width=".1"/><path d="m28.77925 17.698125s-.1009375-.01375-.1009375.07625c0 0 .00625.1315.166375.10275 0 0 .1579375-.0345625.101875-.211125 0 0-.037375-.124375-.186875-.1064375 0 0-.144875.0065625-.2084375.2045 0 0-.048625.166875.0345625.31.0928125.159875.3276875.264875.4410625.311375 0 0 .4541875.1784375.5896875.2805 0 0 .20775.15425.115875.2978125 0 0-.035625.0546875-.088875.0546875 0 0-.06075.0028125-.071-.059375 0 0-.0003125-.00125.000625-.0028125 0 0 .0009375 0 .00125.0015625 0 0 .004375.038.037375.052125 0 0 .04425.02225.090625-.017 0 0 .0491875-.047125.008125-.1203125 0 0-.0539375-.0901875-.1795-.036875 0 0-.110625.05475-.065.17225 0 0 .040375.108125.17375.10775 0 0 .100375-.0033125.164625-.070625.1001875-.105.105625-.309625.0173125-.4154375 0 0-.0835625-.1125-.25125-.1809375-.097-.0396875-.28025-.119375-.4709375-.194125-.134-.0525-.2566875-.1155-.3364375-.209875 0 0-.071-.079125-.0915625-.214875 0 0-.019625-.10175.042375-.1240625 0 0 .0314375-.014125.066-.009375 0 0 .001 0 .00125.000625 0 0 .0015.0015-.002.0009375z" fill="#f5ce00" fill-rule="nonzero" stroke-width=".1"/><path d="m28.7708125 17.6975s-.1115625-.0201875-.18125.1125c0 0-.04125.085375-.0478125.1348125m-.0363125-.4740625s.1116875.019375.0541875.177375c-.05425.1489375-.154875.19775-.1848125.2185m1.4334375-4.7624755s.27-.1917499.5458125.0205572" fill="none" stroke-width=".1"/><path d="m28.271875 14.7464375s.0375-.15075-.1345-.4146875c0 0-.1121875-.24125-.172-.39575m.3888125-.165875s.0973125.237125.1308125.3433125c0 0 .12075.2975.146375.3578125" fill="none" stroke-width=".1"/><path d="m28.40275 14.9123125s.111651.109375.0990009.294m-.4355009-.410875s.11225.0540625.1048125.351875c0 0-.01125.217375.156875.3266875m-.2768125.076625s.351-.0383125.3703125.1778125c0 0 .0075.2073125.1270625.23 0 0 .1791875.016875.2146875.1828125m-.6015625-.350625s.0616875.092375.1215.131875m.3289375-.36s.0891875.1351875.106.214375m.2803125-1.8409375s.08225.111875.162.164625m.1669375.4975625s.174375.0855.1445625.5253125c0 0-.0225.257875.049875.39875" fill="none" stroke-width=".1"/><path d="m28.505625 14.29975.011125.0414375s.31275.013125.481625-.1998125l-.018125-.040875s-.272875-.013875-.4746875.199125z" fill="#784421" fill-rule="nonzero" stroke-width=".1"/><path d="m29.63225 15.9776875s1.0816875-.3225 1.4985625-.5105" fill="none" stroke-width=".05"/><path d="m29.51625 13.98275-.012625-.0355.535-.2035625.012625.03575z" fill="#784421" fill-rule="nonzero" stroke-width=".05"/><path d="m29.5615625 13.9655.355125 1.7409375m-.2935625-1.7643125.406875 1.7329375m-.337625-1.75925.444875 1.7203125m-.270375-1.7865625.606375 1.29125m-.5261875-1.3216875.6466875 1.28375m-.5873125-1.3063125.6995 1.270875m-.81325.662375.2745-.1m-.4823125-.0818125s.8045625-.235 1.4135-.480625m-1.4243125.56875s1.0196875-.2698125 1.42425-.4666875m-1.1130625 1.296.053375.1633125.146-.0466875-.049875-.161875m.2623125-.0720625.0534375.16325.146-.0466875-.049875-.161875m-.841625-.919375-.012625-.221 1.337-.406.0723125.1859375m-.8423125.0479375.1.195125m.3675-.3370625.1.185625m.01075-.21925.1.175625m.005875-.207875.1.1835" fill="none" stroke-width=".05"/><path d="m31.029375 14.7565.1470625-.0829375.0623125.1633125m-.1370625-.121125.1.1690625" fill="none" stroke-width=".1"/></g><path d="m27.7859375 17.2608125s-.2616875-.265 0-.5245625c0 0-.2840625-.1389375-.2391875-.3625m.7065 1.097s-.271.036875-.190625-.49075c0 0-.1121875.2091875-.1508125.3166875-.029.0805-.009875.2104375.104875.280625.0458125.028125.28875.091375.3673125-.0695625m-.3975872-.8444375s-.1764.101875-.0508.2884375m.1287622-.2639375s.013125.1809375.102875.28275m-.0253751-.3543125s-.0007499.2129375.1525001.344875m-.07625-.4184375s.0015.239375.1790625.3864375m.7028125-.035875s.089625-.1960625.278375-.1865625c0 0-.0915625.0414375-.0896875.133125 0 0-.01125.1514375.15125.1665 0 0 .1309375.0170625.19625-.0545625" fill="none" stroke="#00247d" stroke-width=".05"/><path d="m29.546625 17.7885625s-.465375-.218625-.416875-.533375c0 0 .01875-.19225.20675-.28275m-.0927285.19975s-.0658.13575.0808.23m.0283114-.3223125s-.0897.148875.0598.260125m.0581265-.3325s-.1076.12325.021.234375m-.4610594.57875s.2541875.2205.4523125.222375m-.5326875-.1526875s.2375.19225.3860625.220625m-.4758125-.1661875s.29375.2584375.4758125.2773125m.7185625.2375s-.288625.155625-.064875.32m-.11825-.4914375s.3270625-.1715625.4690625-.235625m-.3513125.3241875s.472875-.2884375.613-.350625m-.370125.3694375s.40375-.2695.620625-.386375m-.3533125.3769375s.2785-.218625.5476875-.376875m.0953125-.273375s-.1364375-.1998125-.585 0c0 0 .164375-.14925.4896875-.265m.4543125-.8583125s.0588.162-.004.26" fill="none" stroke="#00247d" stroke-width=".05"/><path d="m30.77275 17.3984375s.0934375-.137625.3308125-.2054375c0 0 .064.1601875.248625.124375 0 0 .2784375-.0546875.194375-.36 0 0-.0579375-.228125-.376-.250625m.9460625-.382375s.3233125.058125.31775.322c0 0 .026125.3958125-.390625.473125m.3446875-.632625s.08875-.193.286875-.2721875m-.2406875-.113s.0883125.1415625.14875.1621875m-.1949375-.049125s.08325.1016875.11125.11875m-.13825-.02075s.0529101.0760646.1.1m-1.7635-1.5997088s.0629375-.1469396.219375-.0845825m.6385625.8195413s.0990625-.41325.444875-.260625m-.1099875-.0338125s.057-.190625-.0807-.2875m-.1850625.2741875s.0705.07875.0102.143125" fill="none" stroke="#00247d" stroke-width=".05"/><path d="m32.3278125 19.4623125s.38875-.1771875.269125-.47875c0 0-.036875-.101875-.123125-.09425 0 0-.149875.0075-.119875.20725 0 0 .045.1960625-.0260625.365625z" fill="#64b4d1" fill-rule="nonzero" stroke="#00247d" stroke-width=".1"/><path d="m32.468625 19.283875s.0854375-.081875.0735-.22875c0 0-.005-.03125.010625-.035625 0 0 .01675-.0070625.01925.029375 0 0 .02375.1533125-.07975.24125 0 0-.0070625.00875-.0185.00625 0 0-.01225-.002625-.005125-.0125z" fill="#fff" fill-rule="nonzero"/><path d="m32.8810625 19.190875s.272875-.1715.1251875-.459875c0 0-.043-.0829375-.1251875-.066 0 0-.170125.05275-.0375.2884375 0 0 .067375.1526875.0375.2375z" fill="#64b4d1" fill-rule="nonzero" stroke="#00247d" stroke-width=".1"/><path d="m32.9527843 18.79975s-.0213818-.01975-.0066818-.02825c0 0 .0093545-.009375.0345672.013125 0 0 .1177781.092375.0240546.23425 0 0-.0106909.02025-.0292218.01375 0 0-.0160364-.00575-.0013364-.0226875 0 0 .0839235-.116875-.0213818-.21025z" fill="#fff" fill-rule="nonzero"/><path d="m32.06425 19.374307s-.304625-.0752946-.248625-.3823871c0 0 .03-.1341282.158875-.115838 0 0 .1554375.0387143.05425.2338707 0 0-.0598125.1393714.0355.2644154z" fill="#64b4d1" fill-rule="nonzero" stroke="#00247d" stroke-width=".1"/><path d="m31.9529154 19.010875s-.018-.015.003-.0216875c0 0 .021-.005625.036.01275 0 0 .0507.0504375.0077.1195 0 0-.0406.0478125-.0208.0978125 0 0 .0027.014125-.0153.016 0 0-.0173-.00375-.0207-.0140625 0 0-.0243-.04875.0176-.0965 0 0 .0507-.074125-.0076-.11375z" fill="#fff" fill-rule="nonzero"/><path d="m32.2829375 18.79125s.171875-.0966875.314.0164375c0 0-.0145-.062875-.123125-.0905 0 0-.05875-.165875-.22325-.1508125 0 0 .0673125.080375.157.1483125 0 0-.0946875.00975-.1245625.0765zm.1270625-.454375s.116875.08625.164375.1440625c0 0 .0475-.0590625.1098125-.094875 0 0-.07175-.009375-.1098125.0228125 0 0-.0596875-.05775-.164375-.072z" fill="#000" fill-rule="nonzero"/><path d="m31.7337371 18.707125s-.02-.0426875.028-.0879375c0 0 .0318-.0326875.02-.0754375m1.2038879-2.520625s.182-.0125.211875-.153375m.319-.092875s-.063375-.0025-.120625.05525c0 0-.04375.0653125-.106125.05775" fill="none" stroke="#000" stroke-width=".1"/><path d="m30.7895625 11.730625s.0509375.1454375.0289375.277125c-.019625.1178125.0071875.14825.04975.1715625.036875.020125.1221875-.0151875.1325-.1075 0 0 .100875.196875-.095375.3298125 0 0-.141125.08675-.260625-.0291875-.04225-.0408125-.0608125-.153625-.04025-.25825 0 0 .030875-.141875-.020625-.2875 0 0 .080375.0858125.059875.256875 0 0-.041125.30675.1859375.2916875 0 0 .157-.001875.1616875-.19225 0 0-.058875.06775-.13175.0451875-.0516875-.016-.099125-.066-.090625-.14475.00875-.0825.03175-.2265625.020625-.352875zm-.2573125.5039375s-.0125.2425-.23425.3015625c0 0 .03125-.0439375-.01875-.1645625 0 0-.0485-.070375-.04475-.1796875 0 0-.070625.05525.01.201.0485625.088.00625.1935625-.00875.1973125s.36625-.0503125.2965-.355625zm-.287875-.24125s-.0535625-.0603125-.0573125-.1998125-.029875-.173375-.0485625-.18975c0 0 .027375.120625.019875.19475s.005.116875.015.1520625c0 0-.120875.01875-.196875-.1571875-.0726875-.168125-.1458125-.1545625-.181875-.1533125 0 0 .0420625.0046875.127.1583125.084875.1535625.1084375.1848125.32275.194875zm-.565625-.3644375s.06975.167125.07225.255125c0 0-.162-.0540625-.205625-.1948125 0 0-.173125.0590625-.109625.258875 0 0-.1495-.0528125-.216875-.17475 0 0 .0835625.0628125.1608125.0905 0 0-.00875-.160875.193125-.22125 0 0 .03.144125.1308125.1785 0 0-.0075-.0904375-.024875-.19225zm.266625-.286375s.0560625.081625.170625.085375c.054875.001875.11375-.010625.1708125-.0854375 0 0-.0075.141875-.1708125.143125 0 0-.170625.00625-.170625-.143125zm-.7061875.970625s.085.07725.10275.1026875c0 0 .059875.0584375.11125-.017125 0 0 .0655-.120875.1458125-.1176875 0 0-.057.039625-.1210625.15375 0 0-.01725.04225-.065.046875-.02225.0023125-.050375.0095-.093-.035 0 0-.036875-.045-.080625-.1335625zm.876875-1.54c-.170625 0-.026875.132-.026875.132.00375.2091875-.1640625.2735625-.278375.213-.114375-.060625-.025-.213-.025-.213s-.128875.08475-.046625.2073125c.0821875.1225.29775.06775.376875-.0453125.079125.113125.2946875.16775.376875.04525.0823125-.122625-.0466875-.207375-.0466875-.207375s.089375.1523125-.024875.213c-.114375.060625-.28225-.00375-.2785-.213 0 0 .143875-.132-.026875-.131875zm.103475-.226125s.0956.101875.0747.25625c0 0 .0866-.1545-.0748-.25625zm-.5232875.239375s-.013125-.11125-.1215625-.120625c0 0 .0915625.066.1215.120625zm.841 0s.013125-.11125.1215-.120625c0 0-.091625.066-.1215.120625zm-1.0130625.1922375s.086.0423.1383125-.0603c0 0-.0990625.0422-.1383125.0603zm-.2784375-.7048625s.1-.011375.2.1375c0 0-.099125.0528125-.123375.084875 0 0 0-.049.0485625-.092375 0 0-.01875-.075375-.1251875-.13zm1.674625 0s-.1-.011375-.2.1375c0 0 .099125.0528125.123375.084875 0 0 0-.049-.0485625-.092375 0 0 .018625-.075375.1251875-.13zm-.771875.1110625s.0896875.024625.201875-.037625c0 0 .13825-.0735.226125 0 0 0-.0766875-.0340625-.224375.037625 0 0-.147625.0809375-.203625 0z" fill="#000" fill-rule="nonzero"/><path d="m30.241875 10.475375s.0766875-.134375.3103125-.1076875c0 0-.0635625.186875-.31025.1076875z" fill="#fff" fill-rule="nonzero"/><path d="m29.741 10.188875s.147625.009375.237375.066c0 0 .0953125.0565625.20375-.0245625 0 0 .1178125-.0678125.1935-.1620625 0 0-.1804375.124375-.24775.14325 0 0-.0616875-.047125-.0859375-.115 0 0 .009375-.0508125.1065625-.145 0 0-.1308125.0395-.157.150625 0 0 .024375.0679375.07475.12075 0 0-.024375.01125-.087875-.0283125 0 0-.1383125-.047125-.237375-.005625zm.3750625.88675c-.1276875.1110526 0 .0996706 0 .0996706s.12775.0113191 0-.0996077zm-.073875-.6908125s-.08975.024625-.201875-.037625c0 0-.138375-.0735-.22625 0 0 0 .0766875-.0340625.224375.037625 0 0 .147625.0809375.20375 0z" fill="#000" fill-rule="nonzero"/><path d="m29.94875 10.475375s-.0766875-.134375-.3103125-.1076875c0 0 .0635625.186875.3103125.1076875z" fill="#fff" fill-rule="nonzero"/><path d="m34.6289375 9.26625v8.4695625c0 2.2623125-4.5225 2.9973125-4.5225 2.9973125s-4.5225-.735-4.5225-2.9973125v-8.4695625z" fill="none" stroke="#000" stroke-width=".1"/></g></g></g></svg>