<svg width="48" height="48" viewBox="0 0 48 48" fill="none" xmlns="http://www.w3.org/2000/svg">
<g clip-path="url(#clip0_1911_282)">
<path d="M4 9H44V39H4V9Z" fill="#CF142B"/>
<path d="M38.9813 17.1621V27.2621C38.9813 29.9559 33.5938 30.8371 33.5938 30.8371C33.5938 30.8371 28.1938 29.9621 28.1938 27.2496V17.1621H38.975H38.9813Z" fill="white"/>
<path d="M38.9813 27.2625C38.9813 29.9563 33.5938 30.8375 33.5938 30.8375C33.5938 30.8375 28.1938 29.9625 28.1938 27.25C28.1938 27.25 28.1938 27.0313 28.3063 26.9125C28.3063 26.9125 28.2438 27.3563 28.5875 27.7C28.5875 27.7 28.3188 27.2125 28.5875 26.7437C28.5875 26.7437 28.4813 27.3563 28.8625 27.7C28.8625 27.7 28.6563 27.2063 28.8875 26.6562C28.8875 26.6562 28.775 27.55 29.1813 27.7375C29.1813 27.7375 29.2938 27.2125 29.1313 26.8875C29.1313 26.8875 29.4125 27 29.4 27.75C29.4 27.75 29.4875 27.6375 29.5125 27.0938C29.5125 27.0938 29.525 27.7187 29.7313 27.8625C29.7313 27.8625 29.8063 27.8 29.7125 27.5187C29.6125 27.2437 29.75 27.1437 29.775 27.1437C29.775 27.1437 29.725 27.4563 29.9875 27.6938C29.9875 27.6938 29.875 27.2 30.0313 27.1313C30.0313 27.1313 29.9938 27.55 30.3313 27.6375C30.3313 27.6375 30.35 27.5188 30.2813 27.3875C30.2813 27.3875 30.2188 27.2313 30.2625 27.1063C30.2625 27.1063 30.3688 27.4813 30.5125 27.5438C30.5125 27.5438 30.425 27.3188 30.5125 27.1063C30.5125 27.1063 30.525 27.4187 30.8063 27.55C30.8063 27.55 30.6188 27.3 30.6875 27.0375L32.4813 27.125L33.4188 27.1688L36.2125 26.9813L36.6875 26.5625C36.6875 26.5625 36.8813 26.8187 36.575 27.2375C36.575 27.2375 36.875 27.1875 36.9688 26.7188C36.9688 26.7188 37.0938 26.975 36.925 27.2687C36.925 27.2687 37.2563 26.9313 37.3 26.5625C37.3 26.5625 37.4313 26.925 37.1188 27.3125C37.1188 27.3125 37.3938 27.2125 37.5125 26.8062C37.5125 26.8062 37.6125 27.0562 37.3438 27.4C37.3438 27.4 37.85 27.1437 37.8375 26.5875C37.8375 26.5875 38.0438 26.8875 37.8063 27.3125C37.8063 27.3125 38.0563 27.0813 38.0875 26.7313C38.0875 26.7313 38.2313 26.8875 38.075 27.3188C38.075 27.3188 38.3875 27.0188 38.4375 26.7C38.4375 26.7 38.5 27 38.2375 27.375C38.2375 27.375 38.4188 27.325 38.5938 26.9625C38.5938 26.9625 38.6375 27.1125 38.4813 27.375C38.4813 27.375 38.6563 27.3438 38.7688 27.0063C38.7688 27.0063 38.7875 27.2063 38.7375 27.3813C38.7375 27.3813 38.8688 27.3 38.9 26.925C38.901 27.0216 38.9268 27.1163 38.975 27.2V27.25L38.9813 27.2625Z" fill="#2F8F22"/>
<path d="M36.2125 21.4184C36.2125 21.4184 36.025 21.4559 35.775 21.3809C35.5375 21.3059 35.4437 21.3371 35.3687 21.3809C35.3687 21.3809 35.4625 21.1871 35.225 21.0309C35.225 21.0309 35.3 21.2309 35.1937 21.3184C35.1937 21.3184 35.15 21.3621 35.0937 21.2996C35.0937 21.2996 35.0125 21.2059 34.9187 21.1496C34.9187 21.1496 35.125 21.0746 35.0875 20.8684C35.05 20.6621 34.9375 20.6434 34.8812 20.6121C34.8711 20.6616 34.8711 20.7126 34.8812 20.7621C34.8812 20.7621 34.6625 20.6371 34.9562 20.4684C35.2562 20.2996 35.2062 20.1934 35.15 20.1059C35.0923 20.0175 35.018 19.9411 34.9312 19.8809C34.9312 19.8809 34.9937 19.9809 34.975 20.0621C34.9687 20.1371 34.825 20.1871 34.85 20.0559C34.8812 19.9059 34.85 19.9309 34.85 19.7871C34.85 19.7871 35.1125 19.8746 35.225 19.6121C35.225 19.6121 35.325 19.3434 34.9875 19.2121C34.9875 19.2121 35.0687 19.3246 35.0312 19.3996C35.0312 19.3996 34.9562 19.5371 34.875 19.4371C34.7937 19.3309 34.7375 19.2996 34.7437 19.1746C34.7437 19.1746 35.05 19.2184 34.9687 18.8809C34.9687 18.8809 34.9125 19.1059 34.5187 18.8059C34.5187 18.8059 34.7812 18.5434 34.675 18.3309C34.675 18.3309 34.6437 18.2371 34.3687 18.2871C34.3687 18.2871 34.6062 18.1371 34.5125 18.0059C34.5125 18.0059 34.4562 17.9246 34.225 18.0309C34.225 18.0309 34.3187 17.8871 34.0937 17.7184C34.0937 17.7184 33.9437 17.7934 33.8687 17.8684C33.8687 17.8684 33.7187 17.6809 33.6187 17.5996C33.6187 17.5996 33.4437 17.6684 33.4 17.8684C33.4 17.8684 33.3187 17.7746 33.1312 17.7184C33.1312 17.7184 33.0437 17.8934 33.1625 18.0309C33.1625 18.0309 33.075 18.0309 32.9125 17.9621C32.9125 17.9621 32.7375 17.8871 32.7687 18.0309C32.7875 18.1809 32.8062 18.2184 32.8437 18.2934C32.8437 18.2934 32.4375 18.1996 32.4562 18.4184C32.4598 18.4922 32.4783 18.5646 32.5105 18.6312C32.5427 18.6978 32.588 18.7572 32.6437 18.8059C32.6437 18.8059 32.425 19.1059 32.2312 18.8809C32.2312 18.8809 32.1562 18.9559 32.3062 19.1434C32.3062 19.1434 32.4562 19.2996 32.325 19.4059C32.325 19.4059 32.1687 19.5309 32.0937 19.2809C32.0937 19.2809 31.8375 19.5371 32.1437 19.7309C32.1437 19.7309 32.3312 19.8434 32.5375 19.6684C32.5375 19.6684 32.475 20.1684 32.2875 20.0684C32.2875 20.0684 32.1687 19.9934 32.375 19.8871C32.375 19.8871 32.075 19.8496 32.0312 20.1371C32.0312 20.1371 31.9937 20.3559 32.25 20.4496C32.25 20.4496 32.4437 20.5246 32.25 20.6746C32.25 20.6746 32.0937 20.7809 32.1937 20.9496C32.1937 20.9496 32.3062 21.1246 32.0125 21.1496C32.0125 21.1496 31.8625 21.1496 31.8062 21.1246C31.8062 21.1246 31.7437 21.2496 31.7812 21.3746C31.7812 21.3746 31.6375 21.2684 31.3125 21.3871C30.9875 21.5121 31.0062 21.4246 30.9875 21.4621L30.8875 21.6121C30.8875 21.6121 31.0625 21.8371 31.0687 21.8184L31.0312 22.0684L31.1187 22.1059L31.7937 21.8059L32.4812 21.4496L33.0375 21.4746L33.3875 21.5559L33.8375 21.5934L34.175 21.4184H34.65L35.175 21.6809L35.7687 22.0371L36.0812 22.0996L36.325 22.0809V21.5934L36.2125 21.4184Z" fill="#D40000" stroke="black" stroke-width="0.075" stroke-linejoin="round"/>
<path d="M30.7625 21.9814C30.7625 21.9814 31.025 22.1189 31.1375 21.9627C31.1375 21.9627 31.275 21.6877 30.9625 21.5877C30.9625 21.5877 31.1375 21.3877 30.95 21.2002C30.95 21.2002 30.85 21.1002 30.6875 21.1689C30.6875 21.1689 30.6125 21.0252 30.4563 21.0314C30.4563 21.0314 30.3063 21.0314 30.2688 21.1877C30.2688 21.1877 30.0688 21.1127 29.9625 21.2252C29.9625 21.2252 29.775 21.4252 30.0313 21.5877L30.2125 21.6064L30.3875 21.5189L30.5938 21.5752C30.5938 21.5752 30.5375 21.7752 30.7625 21.9814Z" fill="#D40000" stroke="black" stroke-width="0.075" stroke-linejoin="round"/>
<path d="M36.6 21.5061C36.6878 21.4951 36.7767 21.5121 36.8542 21.5548C36.9317 21.5974 36.9937 21.6635 37.0313 21.7436C37.1938 22.1311 36.8438 22.3436 36.8438 22.3436C36.8688 22.4248 36.875 22.5436 36.875 22.5436C37.3625 22.6061 37.275 23.1561 37.275 23.1561L37.1125 23.0186C36.8313 22.9061 36.5313 23.1561 36.325 23.5561C36.1125 23.9686 36.2125 24.1498 36.25 24.6373C36.2875 25.1186 37.0625 25.4123 37.0625 25.4123L36.4563 26.9748C36.2188 27.5998 35.7063 27.3436 35.5625 27.2061C35.4188 27.0811 35.3813 27.1561 35.3125 27.2061C35.2438 27.2686 35.6438 27.5811 34.9063 27.8811C34.175 28.1748 34.05 28.3998 33.925 28.4748C33.8 28.5498 33.3 28.5061 33.25 28.4373C33.1875 28.3748 33.225 28.3748 33.0313 28.2561C32.8438 28.1498 32.5188 28.0373 32.1688 27.8686C31.8188 27.6998 31.8313 27.4811 31.8375 27.4373C31.8375 27.3936 31.9563 27.0311 31.5438 27.3186C31.1375 27.6123 30.7875 27.1811 30.7875 27.1811C30.7125 27.0748 30.3625 26.1561 30.3625 26.1561C30.2903 25.9002 30.2005 25.6496 30.0938 25.4061C30.0938 25.4061 30.0688 25.4561 30.375 25.2811C30.675 25.1123 30.8125 24.8248 30.9188 24.5373C31.025 24.2498 30.9188 23.7561 30.8813 23.6623C30.8438 23.5623 30.6188 23.1061 30.3375 23.0123C30.0625 22.9123 29.8688 23.1623 29.8688 23.1623C29.8688 23.1623 29.7875 22.5998 30.2813 22.5373C30.2813 22.5373 30.2813 22.4248 30.3063 22.3436C30.3063 22.3436 29.9563 22.1311 30.1188 21.7436C30.1188 21.7436 30.2313 21.4748 30.5438 21.5061L30.475 21.6561C30.475 21.6561 30.4 22.4436 31.55 21.9186C32.7063 21.3811 32.675 21.2811 33.3438 21.6186L33.8188 21.6123C33.8188 21.6123 34.5063 21.2811 34.7375 21.4248C34.9563 21.5686 35.7563 22.0123 35.7563 22.0123C35.7563 22.0123 36.5313 22.3061 36.6875 21.7623L36.6 21.5061Z" fill="#64B4D1" stroke="black" stroke-width="0.075"/>
<path d="M33.1125 24.9378C33.1125 24.9378 33.075 24.694 33.0375 24.5378C33.0375 24.5378 32.9438 24.294 33.1 24.1128L33.275 23.9065C33.275 23.9065 33.3875 23.7565 33.525 23.7378C33.525 23.7378 33.6688 23.7378 33.675 23.7065C33.6938 23.6753 33.85 23.4253 34.2125 23.7065C34.2125 23.7065 34.325 23.519 34.5125 23.4815C34.5125 23.4815 34.7 23.4315 34.7938 23.569C34.7938 23.569 35.0125 23.4065 35.1938 23.6753C35.1938 23.6753 35.45 23.5253 35.6438 23.819C35.6438 23.819 35.8938 23.694 36.0438 23.9503C36.2 24.219 36.1688 24.3253 36.1688 24.3253L36.2938 24.7503L36.7 25.2503L35.75 25.6128H35.3125L34.4563 25.8378L32.9375 25.9565L32.5188 25.4565L33.1188 24.9378H33.1125Z" fill="white" stroke="#00247D" stroke-width="0.075" stroke-miterlimit="10"/>
<path d="M31.8312 27.4679C31.8312 27.4679 31.6062 27.4741 31.4875 27.5429C31.375 27.5929 31.2812 27.6554 31.15 27.7429C31.15 27.7429 31.0875 27.8241 30.825 27.7741C30.825 27.7741 30.375 27.6679 30.375 28.0241C30.375 28.0241 29.825 28.0616 30.05 28.5429C30.05 28.5429 30.1938 28.9179 30.5063 28.6554C30.5063 28.6554 30.3063 28.9366 30.6938 29.0491C30.6938 29.0491 30.9687 29.1241 31.0562 28.8304C31.0562 28.8304 31.1 28.7179 30.9937 28.5804C30.9937 28.5804 31.125 28.5554 31.2188 28.4116C31.2188 28.4116 30.9313 28.7741 31.25 28.9116C31.25 28.9116 31.6438 29.0054 31.6625 28.5991C31.6625 28.5991 31.625 28.3991 31.7875 28.3304C31.7875 28.3304 32.1 28.2554 32.225 27.9179C32.225 27.9179 31.7875 27.6741 31.8312 27.4679ZM30.9125 23.8741C30.9125 23.8741 30.5625 23.7179 30.3875 23.8741C30.3875 23.8741 30.1688 23.7366 29.9188 23.8741C29.9188 23.8741 29.6875 24.0241 29.525 24.1991C29.525 24.1991 29.4125 24.2929 29.45 24.5991C29.45 24.5991 29.5125 24.8179 29.4813 24.9179C29.4813 24.9179 29.4062 24.9054 29.25 25.0929C29.25 25.0929 29.0563 25.3116 28.875 25.1116C28.875 25.1116 28.9375 25.3991 29.2563 25.3491C29.2563 25.3491 29.1 25.4741 29.2375 25.7866C29.2375 25.7866 29.3375 26.0116 29.175 26.2991C29.175 26.2991 29.4563 26.1866 29.45 25.8491C29.45 25.8491 29.4188 25.6241 29.5125 25.4741C29.5125 25.4741 29.4187 25.6116 29.6125 25.9179C29.6125 25.9179 29.7625 26.1429 29.6437 26.3679C29.6437 26.3679 29.9187 26.2679 29.8937 25.9304C29.8687 25.5929 29.7062 25.7304 29.8062 25.4179C29.8062 25.4179 29.8375 25.5804 29.9188 25.6679C29.981 25.7204 30.0278 25.7888 30.0543 25.8659C30.0807 25.9429 30.0857 26.0257 30.0688 26.1054C30.0688 26.1054 30.2313 25.8929 30.1938 25.6804C30.1831 25.5846 30.1555 25.4916 30.1125 25.4054L30.6375 25.1054L30.9062 24.6366L30.9125 23.8741Z" fill="#D40000" stroke="black" stroke-width="0.075" stroke-linejoin="round"/>
<path d="M30.1125 25.218C30.1125 25.218 29.8937 25.2055 29.8625 25.0305M29.4812 24.918C29.4812 24.918 29.5562 24.918 29.6312 24.993C29.6312 24.993 29.675 25.068 29.75 25.0555" stroke="black" stroke-width="0.075" stroke-miterlimit="10"/>
<path d="M30.4375 24.5754C30.4375 24.5754 30.325 24.5754 30.25 24.5254C30.25 24.5254 30.1938 24.4817 30.1563 24.5504C30.1563 24.5504 30.0938 24.6504 30.2063 24.6942C30.2063 24.6942 30.3438 24.7692 30.1313 24.9067C30.1313 24.9067 30.3813 24.8067 30.2813 24.6817C30.2813 24.6817 30.1688 24.6067 30.2063 24.5754C30.2063 24.5754 30.2188 24.5504 30.2688 24.5754C30.3063 24.6129 30.3938 24.6004 30.4375 24.5754Z" fill="black"/>
<path d="M33.85 25.1879L33.9813 25.1504L33.1063 22.1504H33.0813L33.85 25.1879Z" fill="#784421" stroke="black" stroke-width="0.075"/>
<path d="M30.95 28.518C30.95 28.518 30.75 28.3993 30.575 28.5368C30.575 28.5368 30.6 28.4618 30.725 28.4305C30.725 28.4305 30.8 28.2305 30.9937 28.2493C30.9937 28.2493 30.9125 28.3493 30.8062 28.4243C30.8062 28.4243 30.9187 28.4368 30.9562 28.518H30.95Z" fill="black"/>
<path d="M30.2313 28.9884C30.2313 28.9884 29.9063 28.7884 30.0875 28.4447C30.0875 28.4447 30.1375 28.3509 30.2313 28.3697C30.2313 28.3697 30.4375 28.4322 30.2813 28.7134C30.2813 28.7134 30.1938 28.8947 30.2313 28.9947V28.9884ZM30.8875 29.3197C30.8875 29.3197 30.425 29.1072 30.5688 28.7447C30.5688 28.7447 30.6125 28.6197 30.7188 28.6322C30.7188 28.6322 30.8938 28.6447 30.8625 28.8822C30.8625 28.8822 30.8063 29.1072 30.8875 29.3197Z" fill="#64B4D1" stroke="#00247D" stroke-width="0.075" stroke-miterlimit="2.6"/>
<path d="M30.7937 27.9746C30.7937 27.9746 30.65 28.0809 30.6 28.1496C30.6 28.1496 30.5375 28.0746 30.4625 28.0371C30.4625 28.0371 30.5562 28.0184 30.6 28.0559C30.6 28.0559 30.675 27.9934 30.7875 27.9746H30.7937Z" fill="black"/>
<path d="M31.2 29.2241C31.2 29.2241 31.575 29.1366 31.5 28.7553C31.5 28.7553 31.4625 28.5928 31.3125 28.6178C31.3125 28.6178 31.125 28.6678 31.25 28.9053C31.25 28.9053 31.3187 29.0678 31.2 29.2241Z" fill="#64B4D1" stroke="#00247D" stroke-width="0.075" stroke-miterlimit="2.6"/>
<path d="M32.85 21.2937L33.2063 21.4125C33.2063 21.4125 33.5438 21.5563 33.975 21.4125L34.3 21.2875L34.0813 21.625V21.8062L34.2125 22.0063C34.2125 22.0063 34.1313 22.0438 33.875 21.8813C33.875 21.8813 33.6 21.6688 33.275 21.8813C33.275 21.8813 33.0875 22.0063 32.9375 22.0063L33.1563 21.7688L33.075 21.55L32.85 21.2812V21.2937Z" fill="#F5CE00" stroke="black" stroke-width="0.075" stroke-miterlimit="2.6"/>
<path d="M31.3438 28.7812C31.3438 28.7812 31.3563 28.7563 31.3438 28.75L31.3125 28.7625C31.3125 28.7625 31.275 28.825 31.3125 28.9125C31.3125 28.9125 31.3438 28.9687 31.3313 29.025V29.05C31.3313 29.05 31.35 29.0437 31.35 29.025C31.35 29.025 31.375 28.975 31.3375 28.9125C31.3375 28.9125 31.3 28.825 31.3438 28.7812Z" fill="white"/>
<path d="M36.375 21.9814C36.375 21.9814 36.1125 22.1189 36 21.9627C36 21.9627 35.8688 21.6877 36.1813 21.5877C36.1813 21.5877 36.0063 21.3877 36.1875 21.2002C36.1875 21.2002 36.2875 21.1002 36.45 21.1689C36.45 21.1689 36.525 21.0252 36.6813 21.0314C36.6813 21.0314 36.8313 21.0314 36.8688 21.1877C36.8688 21.1877 37.075 21.1127 37.1813 21.2252C37.1813 21.2252 37.3563 21.4252 37.1063 21.5877L36.925 21.6064L36.7438 21.5189L36.5563 21.5752C36.5563 21.5752 36.6063 21.7752 36.3688 21.9814H36.375Z" fill="#D40000" stroke="black" stroke-width="0.075" stroke-linejoin="round"/>
<path d="M34.3 21.7758C34.3 21.7758 34.3 21.8258 34.25 21.8383C34.25 21.8383 34.1875 21.8571 34.1563 21.7821V21.7633C34.1563 21.7321 34.1375 21.6383 34.2438 21.5571C34.2438 21.5571 34.4063 21.4258 34.7188 21.5883C35.0202 21.7578 35.3288 21.9142 35.6438 22.0571C35.6438 22.0571 35.8375 22.1571 36.1375 22.1696C36.1375 22.1696 36.5438 22.2008 36.7188 21.9133C36.7188 21.9133 36.85 21.6946 36.7188 21.5508C36.7188 21.5508 36.6625 21.4883 36.575 21.5008C36.5295 21.5109 36.4894 21.5377 36.4625 21.5758C36.4625 21.5758 36.4 21.6633 36.4688 21.7321C36.4688 21.7321 36.5688 21.7946 36.6063 21.6696C36.6063 21.6821 36.6375 21.7758 36.5813 21.8508C36.5813 21.8508 36.3313 22.2258 35.65 21.8446L34.7563 21.3383C34.7563 21.3383 34.3125 21.1071 34.0313 21.4696C34.0313 21.4696 33.8188 21.7696 34.1 21.9633C34.1 21.9633 34.3125 22.0883 34.4375 21.8883C34.4375 21.8883 34.55 21.6946 34.375 21.6133C34.375 21.6133 34.225 21.5383 34.1688 21.6883C34.1063 21.8383 34.2813 21.8758 34.2938 21.7696C34.2938 21.7696 34.2938 21.7446 34.3125 21.7696L34.3 21.7758Z" fill="#F5CE00" stroke="black" stroke-width="0.075" stroke-miterlimit="2.6"/>
<path d="M30.75 23.3259V22.7634C30.75 22.7134 30.75 22.6884 30.825 22.6259C30.8875 22.5759 30.9562 22.4821 31.0562 22.7321C31.0562 22.7321 31.2562 22.5134 31.3187 22.4821C31.3187 22.4821 31.4437 22.3884 31.525 22.5259C31.525 22.5259 31.625 22.3634 31.7125 22.3259C31.7125 22.3259 31.9125 22.2009 31.9187 22.5884L32.075 22.4384C32.075 22.4384 32.2 22.3446 32.3375 22.4821C32.3375 22.4821 32.5562 22.7071 32.5875 22.7696C32.5875 22.7696 32.6375 22.8321 32.65 22.9384C32.65 22.9384 32.65 23.0634 32.7125 23.1259C32.7125 23.1259 32.7812 23.1884 32.85 23.2009C32.85 23.2009 33.0062 23.2071 33.075 23.3634C33.075 23.3634 33.0937 23.3321 33.175 24.0634V25.4071L32.275 26.4759L30.8312 26.0634L30.2562 25.8196L30.1187 25.4071L30.6812 25.0384L30.9812 24.2259L30.8875 23.6446L30.75 23.3196V23.3259Z" fill="#E4CB5E" stroke="black" stroke-width="0.075" stroke-miterlimit="2.6"/>
<path d="M34.725 24.0254L34.8 23.9316L34.9563 23.8066C34.9563 23.8066 35.2063 24.4566 35.2188 24.6004V24.8004C35.2188 24.8004 35.5938 24.9004 35.6688 25.4691L35.3563 26.0441L34.8688 25.7691L34.725 25.6754V24.0316V24.0254Z" fill="#784421" stroke="black" stroke-width="0.075"/>
<path d="M30.1437 28.5258C30.1437 28.5258 30.1562 28.507 30.1437 28.4883L30.1125 28.5133C30.1125 28.5133 30.0187 28.6195 30.1 28.7883C30.1 28.7883 30.1 28.8133 30.1187 28.8008C30.1187 28.8008 30.1375 28.8008 30.1187 28.782C30.1187 28.782 30.05 28.632 30.1437 28.532V28.5258Z" fill="white"/>
<path d="M31.6063 28.4129C31.6063 28.4129 31.6125 28.3629 31.5812 28.3129C31.5812 28.3129 31.5625 28.2754 31.5687 28.2191M31.9188 22.5879C31.9188 22.5879 31.9187 22.7316 31.9625 22.8379C32 22.9379 32.1437 23.1191 32.15 23.2066" stroke="black" stroke-width="0.075" stroke-miterlimit="10"/>
<path d="M35.3125 27.4688C35.3125 27.4688 35.5375 27.475 35.6563 27.5438C35.7813 27.5938 35.8688 27.6562 36 27.7437C36 27.7437 36.0625 27.825 36.325 27.775C36.325 27.775 36.775 27.6687 36.775 28.025C36.775 28.025 37.3188 28.0625 37.1 28.5438C37.1 28.5438 36.95 28.9187 36.6375 28.6562C36.6375 28.6562 36.8375 28.9375 36.45 29.05C36.45 29.05 36.175 29.125 36.0938 28.8312C36.0938 28.8312 36.0438 28.7187 36.1563 28.5812C36.1563 28.5812 36.025 28.5563 35.9375 28.4125C35.9375 28.4125 36.2188 28.775 35.9063 28.9125C35.9063 28.9125 35.5125 29.0063 35.4875 28.6C35.4875 28.6 35.5188 28.4 35.3625 28.3312C35.3625 28.3312 35.05 28.2563 34.9125 27.9188C34.9125 27.9188 35.3625 27.675 35.3188 27.4688H35.3125Z" fill="#D40000" stroke="black" stroke-width="0.075" stroke-linejoin="round"/>
<path d="M31.7375 23.2121L32.1125 26.1996M31.8313 23.2059L32.2438 25.9934M31.9 23.1934L32.3875 25.9559" stroke="black" stroke-width="0.075" stroke-miterlimit="10"/>
<path d="M32.6625 25.7195L32.8 25.6758L31.925 22.6758H31.8938L32.6625 25.7195Z" fill="#784421" stroke="black" stroke-width="0.075"/>
<path d="M32.1688 23.082L33.05 25.3008M32.1125 23.1133L32.9625 25.4258" stroke="black" stroke-width="0.075" stroke-miterlimit="10"/>
<path d="M30.725 29.0999C30.725 29.0999 30.6187 29.0062 30.6375 28.8312C30.6375 28.8312 30.6375 28.7937 30.6187 28.7874C30.6187 28.7874 30.6 28.7812 30.6 28.8249C30.6 28.8249 30.5687 29.0062 30.6937 29.1062C30.6937 29.1062 30.7 29.1249 30.7187 29.1187C30.7187 29.1187 30.7312 29.1187 30.7187 29.0999H30.725Z" fill="white"/>
<path d="M32.2188 23.0508L33.1125 25.0758M31.9688 23.1758L32.5312 25.907" stroke="black" stroke-width="0.075" stroke-miterlimit="10"/>
<path d="M36.5 25.1875C36.1062 24.9625 36.0187 24.475 36.0187 24.475C35.9623 24.1738 35.9971 23.8625 36.1187 23.5813C36.3687 23.0438 36.8125 22.9375 36.8125 22.9375C36.8125 22.9375 36.3812 23.2375 36.2625 23.6375C36.2625 23.6375 36.175 23.9812 36.225 24.3062C36.275 24.65 36.2562 24.5625 36.3375 24.825L36.5 25.2V25.1875Z" fill="#F5CE00" stroke="black" stroke-width="0.075" stroke-miterlimit="2.6"/>
<path d="M34.7938 23.918L33.1313 24.4492L33.0438 25.1992C32.65 25.768 31.8438 25.868 31.8438 25.868L32.4688 26.5367L33.6562 26.7867L34.2938 26.2992L34.8687 25.7742C34.8062 25.493 34.8375 25.0742 34.8375 25.0742C34.8375 24.9992 34.8687 24.8367 34.8687 24.8367C34.8687 24.8367 34.775 24.168 34.7938 23.9305V23.918Z" fill="#784421" stroke="black" stroke-width="0.075"/>
<path d="M33.0625 25.0117C33.0625 25.0117 34.1625 24.668 34.8125 24.3867M32.5375 25.6367C32.5375 25.6367 33.9125 25.3867 34.8688 24.8367L35.2188 24.5992" stroke="black" stroke-width="0.075" stroke-miterlimit="10"/>
<path d="M35.2188 24.8008L34.8438 25.0758C34.8438 25.0758 33.3125 25.7758 32.1438 25.8008M34.8375 25.5758C34.8375 25.5758 33.6625 26.1883 33 26.1883" stroke="black" stroke-width="0.075" stroke-miterlimit="10"/>
<path d="M36.2375 23.8741C36.2375 23.8741 36.5875 23.7179 36.7625 23.8741C36.7625 23.8741 36.9875 23.7366 37.2375 23.8741C37.2375 23.8741 37.4625 24.0241 37.625 24.1991C37.625 24.1991 37.7375 24.2929 37.7 24.5991C37.7 24.5991 37.6375 24.8179 37.6813 24.9179C37.6813 24.9179 37.75 24.9054 37.9 25.0929C37.9 25.0929 38.1063 25.3116 38.275 25.1116C38.275 25.1116 38.225 25.3991 37.9 25.3491C37.9 25.3491 38.05 25.4741 37.9188 25.7866C37.9188 25.7866 37.8188 26.0116 37.9813 26.2991C37.9813 26.2991 37.6938 26.1866 37.7063 25.8491C37.7063 25.8491 37.7313 25.6241 37.6438 25.4741C37.6438 25.4741 37.7313 25.6116 37.5375 25.9179C37.5375 25.9179 37.3875 26.1429 37.5125 26.3679C37.5125 26.3679 37.2313 26.2679 37.2625 25.9304C37.2813 25.5929 37.45 25.7304 37.3438 25.4179C37.3438 25.4179 37.3188 25.5804 37.2375 25.6679C37.1752 25.7204 37.1284 25.7888 37.102 25.8659C37.0756 25.9429 37.0706 26.0257 37.0875 26.1054C37.0875 26.1054 36.925 25.8929 36.9625 25.6804C37 25.4616 37.0375 25.4054 37.0375 25.4054L36.5188 25.1054L36.2563 24.6366L36.2375 23.8741Z" fill="#D40000" stroke="black" stroke-width="0.075" stroke-linejoin="round"/>
<path d="M30.2875 25.7745C30.2875 25.7745 30.3375 25.5432 30.5562 25.6245C30.5562 25.6245 30.6313 25.2495 31.0375 25.237C31.4438 25.2245 31.4625 25.637 31.4625 25.662C31.4625 25.662 31.5875 25.487 31.7812 25.5057C31.7812 25.5057 32.125 25.487 32.0063 26.037L32.0688 26.112C32.0688 26.112 32.325 25.4932 32.8625 25.6495C32.8625 25.6495 33.3875 25.812 33.05 26.3182C33.05 26.3182 33.3125 26.662 33.525 26.6307C33.75 26.5995 33.9438 26.5307 34.1625 26.1432C34.3875 25.7557 34.8937 25.6932 35.0187 25.7182C35.1437 25.737 35.25 25.8307 35.2687 25.9182C35.2687 25.9182 35.5375 25.0245 36.5062 25.1557L36.8937 25.362L37.0438 25.4245L36.8187 26.0495L36.2938 27.2495L35.8813 27.3745L35.4562 27.1307L35.3062 27.2057V27.5745L34.7437 27.9745L34.3563 28.1307L33.9312 28.4307L33.825 28.6932C33.825 28.6932 33.5938 28.587 33.325 28.6932L33.2375 28.4682L32.9875 28.237L32.0125 27.7745L31.8438 27.212L31.6625 27.1307L31.4625 27.3557L31.1812 27.3932L30.7437 27.0932L30.2812 25.7807L30.2875 25.7745Z" fill="white" stroke="#00247D" stroke-width="0.075" stroke-miterlimit="10"/>
<path d="M34.5125 21.375C34.5125 21.375 34.1375 21.3625 34.1563 21.75" stroke="black" stroke-width="0.075" stroke-miterlimit="2.6"/>
<path d="M36.9375 25.4569C36.3 25.2569 36.125 24.5631 36.125 24.5631C36.0486 24.2403 36.0748 23.9016 36.2 23.5944C36.5 22.9069 36.9938 22.9069 36.9938 22.9069C37.0574 22.8977 37.1221 22.9133 37.1744 22.9506C37.2268 22.9878 37.2628 23.0438 37.275 23.1069C37.3 23.2569 37.1938 23.3131 37.1938 23.3131C37.025 23.4069 36.9125 23.2819 36.9125 23.2819C36.8375 23.1819 36.8938 23.1006 36.8938 23.1006C36.9375 23.0381 37.0188 23.0756 37.0188 23.0756C37.1 23.0881 37.0813 23.1756 37.0813 23.1756C37.0813 23.1756 37.1063 23.0756 37.0063 23.0631C37.0063 23.0631 36.8063 23.0194 36.5813 23.3006C36.5813 23.3006 36.2875 23.6819 36.2875 24.1819C36.2875 24.1819 36.25 25.1069 37.2063 25.3444C37.2063 25.3444 37.1063 25.4944 36.9188 26.0381C36.9188 26.0381 36.7125 26.7381 36.5188 27.1194C36.5188 27.1194 36.25 27.6569 35.65 27.4381C35.65 27.4381 35.3 27.2819 35.3 27.0319C35.3 27.0319 35.2813 26.7944 35.4875 26.7819C35.4875 26.7819 35.6938 26.7631 35.6938 26.9381C35.6938 26.9381 35.6938 27.1256 35.475 27.0881C35.475 27.0881 35.4 27.0694 35.4063 26.9944C35.4063 26.9944 35.4188 26.9194 35.5188 26.9569C35.6125 26.9944 35.5188 26.9569 35.5188 26.9506C35.5188 26.9506 35.4813 26.9319 35.4438 26.9506C35.4438 26.9506 35.4063 26.9506 35.4063 27.0131C35.4063 27.0131 35.4063 27.0506 35.45 27.0819L35.5563 27.0944C35.5563 27.0944 35.6188 27.2194 35.7438 27.2631C35.8184 27.2862 35.8975 27.2914 35.9745 27.2784C36.0516 27.2653 36.1245 27.2344 36.1875 27.1881C36.2713 27.1155 36.3358 27.0231 36.375 26.9194C36.5012 26.6453 36.6098 26.3635 36.7 26.0756C36.7 26.0756 36.8125 25.7194 36.9125 25.5319L36.9375 25.4569Z" fill="#F5CE00" stroke="black" stroke-width="0.075" stroke-miterlimit="2.6"/>
<path d="M35.125 27.213C35.125 27.213 35.25 27.2005 35.25 27.3068C35.25 27.3068 35.2437 27.4568 35.05 27.4255C35.05 27.4255 34.8625 27.388 34.925 27.1755C34.925 27.1755 34.975 27.0318 35.15 27.0505C35.15 27.0505 35.325 27.0505 35.4 27.288C35.4 27.288 35.4625 27.4943 35.3563 27.663C35.2438 27.8505 34.9687 27.9755 34.8312 28.038C34.8312 28.038 34.2875 28.2443 34.125 28.3693C34.125 28.3693 33.875 28.5505 33.9875 28.7193C33.9875 28.7193 34.0313 28.788 34.0938 28.788C34.0938 28.788 34.1687 28.788 34.175 28.713C34.175 28.713 34.175 28.7568 34.1313 28.7755C34.1313 28.7755 34.0813 28.8005 34.025 28.7568C34.025 28.7568 33.9625 28.6943 34.0125 28.6068C34.0125 28.6068 34.075 28.5068 34.2375 28.5693C34.2375 28.5693 34.3625 28.638 34.3125 28.7755C34.3125 28.7755 34.2563 28.9068 34.1 28.9005C34.1 28.9005 33.9813 28.9005 33.9 28.8255C33.775 28.6943 33.775 28.4505 33.8875 28.3255C33.8875 28.3255 33.9813 28.1943 34.1813 28.1005L34.7438 27.8818C34.9063 27.813 35.05 27.738 35.1437 27.6255C35.1437 27.6255 35.225 27.538 35.2563 27.3755C35.2563 27.3755 35.2812 27.2505 35.2062 27.2255L35.1313 27.2068L35.125 27.213Z" fill="#F5CE00" stroke="black" stroke-width="0.075" stroke-miterlimit="2.6"/>
<path d="M35.1375 27.2121C35.1375 27.2121 35.2687 27.1871 35.3562 27.3496C35.3562 27.3496 35.4 27.4434 35.4062 27.5059M35.45 26.9434C35.45 26.9434 35.3187 26.9621 35.3875 27.1559C35.4562 27.3371 35.575 27.3871 35.6062 27.4184" stroke="black" stroke-width="0.075" stroke-miterlimit="2.6"/>
<path d="M32.85 21.7746C32.85 21.7746 32.85 21.8246 32.9125 21.8371C32.9125 21.8371 32.9625 21.8496 32.9937 21.7808V21.7621C32.9937 21.7308 33.0125 21.6371 32.9188 21.5558C32.9188 21.5558 32.7437 21.4246 32.4312 21.5871C32.4312 21.5871 32.1813 21.7121 32.0125 21.8121C32.0125 21.8121 31.5688 22.0496 31.5125 22.0621C31.5125 22.0621 31.3125 22.1621 31.0125 22.1746C31.0125 22.1746 30.6063 22.2058 30.4375 21.9183C30.4375 21.9183 30.3 21.6996 30.4375 21.5558C30.4375 21.5558 30.4875 21.4933 30.575 21.5058C30.6125 21.5121 30.65 21.5308 30.6875 21.5808C30.6875 21.5808 30.75 21.6683 30.6812 21.7371C30.6812 21.7371 30.5813 21.7996 30.5438 21.6746C30.5438 21.6871 30.525 21.7746 30.575 21.8621C30.575 21.8621 30.825 22.2308 31.5 21.8433L32.3937 21.3433C32.3937 21.3433 32.8437 21.1121 33.1187 21.4683C33.1187 21.4683 33.3312 21.7683 33.0562 21.9683C33.0562 21.9683 32.85 22.0933 32.7125 21.8933C32.7125 21.8933 32.6125 21.7058 32.775 21.6183C32.775 21.6183 32.925 21.5433 32.9937 21.6933C33.0562 21.8433 32.8688 21.8808 32.8563 21.7746C32.8563 21.7746 32.8563 21.7496 32.85 21.7746ZM30.65 25.1933C31.0437 24.9746 31.1375 24.4746 31.1375 24.4746C31.225 23.9746 31.0312 23.5808 31.0312 23.5808C30.7812 23.0433 30.3438 22.9371 30.3438 22.9371C30.3438 22.9371 30.7688 23.2371 30.8875 23.6371C30.8875 23.6371 30.9875 23.9808 30.925 24.3058C30.875 24.6496 30.8937 24.5621 30.8125 24.8246L30.65 25.1933Z" fill="#F5CE00" stroke="black" stroke-width="0.075" stroke-miterlimit="2.6"/>
<path d="M32.65 21.375C32.65 21.375 33.025 21.3625 33 21.75" stroke="black" stroke-width="0.075" stroke-miterlimit="2.6"/>
<path d="M30.2062 25.4569C30.85 25.2569 31.0187 24.5631 31.0187 24.5631C31.0972 24.2409 31.0731 23.9023 30.95 23.5944C30.65 22.9069 30.1562 22.9069 30.1562 22.9069C30.0926 22.8977 30.0279 22.9133 29.9756 22.9506C29.9232 22.9878 29.8872 23.0438 29.875 23.1069C29.8562 23.2569 29.9562 23.3131 29.9562 23.3131C30.1312 23.4069 30.2437 23.2819 30.2437 23.2819C30.3125 23.1819 30.2562 23.1006 30.2562 23.1006C30.2125 23.0381 30.1312 23.0756 30.1312 23.0756C30.0562 23.0881 30.0687 23.1756 30.0687 23.1756C30.0687 23.1756 30.05 23.0756 30.1437 23.0631C30.1437 23.0631 30.3437 23.0194 30.5687 23.3006C30.5687 23.3006 30.8687 23.6819 30.8687 24.1819C30.8687 24.1819 30.9062 25.1069 29.9437 25.3444C29.9437 25.3444 30.05 25.4944 30.2312 26.0381C30.2312 26.0381 30.4437 26.7381 30.6437 27.1194C30.6437 27.1194 30.9062 27.6569 31.5 27.4381C31.5 27.4381 31.85 27.2819 31.85 27.0319C31.85 27.0319 31.875 26.7944 31.6625 26.7819C31.6625 26.7819 31.4562 26.7631 31.4562 26.9381C31.4562 26.9381 31.4562 27.1256 31.6812 27.0881C31.6812 27.0881 31.7562 27.0694 31.7437 26.9944C31.7437 26.9944 31.7312 26.9194 31.6375 26.9569C31.5375 26.9944 31.6375 26.9569 31.6375 26.9506C31.6375 26.9506 31.6687 26.9319 31.7062 26.9506C31.7062 26.9506 31.7437 26.9506 31.7437 27.0131C31.7437 27.0131 31.7437 27.0506 31.7 27.0819L31.6062 27.0944C31.6062 27.0944 31.5437 27.2194 31.4062 27.2631C31.3328 27.2877 31.2544 27.2938 31.1781 27.2807C31.1017 27.2676 31.0298 27.2358 30.9687 27.1881C30.8849 27.1155 30.8205 27.0231 30.7812 26.9194C30.653 26.6455 30.5423 26.3636 30.45 26.0756C30.45 26.0756 30.3375 25.7194 30.25 25.5319L30.2125 25.4569H30.2062Z" fill="#F5CE00" stroke="black" stroke-width="0.075" stroke-miterlimit="2.6"/>
<path d="M32.0313 27.213C32.0313 27.213 31.9063 27.2005 31.9063 27.3068C31.9063 27.3068 31.9063 27.4568 32.1063 27.4255C32.1063 27.4255 32.2938 27.388 32.225 27.1755C32.225 27.1755 32.1813 27.0318 32 27.0505C32 27.0505 31.8313 27.0505 31.75 27.288C31.75 27.288 31.6937 27.4943 31.8 27.663C31.9125 27.8505 32.1875 27.9755 32.3188 28.038C32.3188 28.038 32.8625 28.2443 33.0313 28.3693C33.0313 28.3693 33.275 28.5505 33.1625 28.7193C33.1625 28.7193 33.125 28.788 33.0563 28.788C33.0563 28.788 32.9813 28.788 32.975 28.713C32.975 28.713 32.975 28.7568 33.0187 28.7755C33.0187 28.7755 33.075 28.8005 33.125 28.7568C33.125 28.7568 33.1875 28.6943 33.1375 28.6068C33.1375 28.6068 33.075 28.5068 32.925 28.5693C32.925 28.5693 32.7875 28.638 32.85 28.7755C32.85 28.7755 32.8937 28.9068 33.05 28.9005C33.05 28.9005 33.175 28.9005 33.25 28.8255C33.375 28.6943 33.375 28.4505 33.275 28.3255C33.275 28.3255 33.1688 28.1943 32.975 28.1005C32.8563 28.063 32.6313 27.9693 32.4125 27.8818C32.2438 27.813 32.1 27.738 32.0063 27.6255C32.0063 27.6255 31.925 27.538 31.8937 27.3755C31.8937 27.3755 31.875 27.2505 31.95 27.2255L32.025 27.2068L32.0313 27.213Z" fill="#F5CE00" stroke="black" stroke-width="0.075" stroke-miterlimit="2.6"/>
<path d="M32.0125 27.2125C32.0125 27.2125 31.8812 27.1875 31.8 27.35C31.8 27.35 31.7562 27.4438 31.7437 27.5063M31.7 26.9438C31.7 26.9438 31.8375 26.9625 31.7687 27.1563C31.6937 27.3375 31.5813 27.3875 31.5438 27.4188M33.2563 21.725C33.2563 21.725 33.5813 21.5188 33.9062 21.7438M31.425 23.7C31.425 23.7 31.4688 23.5125 31.2625 23.2C31.2625 23.2 31.125 22.9063 31.0625 22.7313M31.525 22.525L31.6688 22.9375L31.8563 23.3625" stroke="black" stroke-width="0.075" stroke-miterlimit="2.6"/>
<path d="M31.575 23.893C31.575 23.893 31.7 24.0242 31.6875 24.243M31.1812 23.7492C31.1812 23.7492 31.3125 23.8117 31.3 24.1742C31.3 24.1742 31.2937 24.4242 31.4875 24.5617M31.1562 24.6492C31.1562 24.6492 31.575 24.6055 31.6063 24.868C31.6063 24.868 31.6063 25.118 31.7563 25.1367C31.7563 25.1367 31.9625 25.1555 32.0063 25.3617M31.2938 24.9367C31.2938 24.9367 31.3688 25.043 31.4438 25.0992M31.8312 24.6617C31.8312 24.6617 31.9312 24.8305 31.9562 24.918M32.2875 22.7305C32.2875 22.7305 32.3875 22.8617 32.4813 22.918M32.675 23.518C32.675 23.518 32.8875 23.618 32.8625 24.143C32.8625 24.143 32.825 24.4555 32.9188 24.6242" stroke="black" stroke-width="0.075" stroke-miterlimit="10"/>
<path d="M31.6938 23.1616L31.7188 23.2116C31.7188 23.2116 32.0938 23.2304 32.2875 22.9741L32.2688 22.9241C32.2688 22.9241 31.9375 22.9054 31.7063 23.1616H31.6938Z" fill="#784421" stroke="black" stroke-width="0.075"/>
<path d="M33.0437 25.1566C33.0437 25.1566 34.3312 24.7816 34.8312 24.5566" stroke="black" stroke-width="0.075" stroke-miterlimit="10"/>
<path d="M32.9063 22.7816L32.8938 22.7441L33.525 22.4941L33.5438 22.5441L32.9063 22.7816Z" fill="#784421" stroke="black" stroke-width="0.075"/>
<path d="M32.9625 22.7563L33.3875 24.8375M33.0375 22.7375L33.5187 24.8M33.1187 22.7L33.6437 24.7563M33.3312 22.625L34.05 24.1625M33.425 22.6L34.1937 24.1125M33.4875 22.5625L34.325 24.0813M33.3562 24.8562L33.6812 24.7563M33.1125 24.6562C33.1125 24.6562 34.0625 24.375 34.8 24.0813M33.0875 24.75C33.0875 24.75 34.3062 24.4375 34.7875 24.2M33.4625 25.7375L33.525 25.9438L33.7 25.8813L33.6375 25.6875M33.95 25.6063L34.0125 25.7938L34.1875 25.7375L34.125 25.55M33.125 24.45L33.1125 24.1875L34.7062 23.7063L34.7875 23.9312M33.7875 23.9812L33.8687 24.2188M34.3437 23.8188L34.4437 24.0437M34.475 23.775L34.575 23.9812M34.6 23.7312L34.7 23.9563M34.7 23.7063L34.875 23.6062L34.95 23.8M34.7875 23.6562L34.875 23.8625" stroke="black" stroke-width="0.075" stroke-miterlimit="10"/>
<path d="M30.8438 26.6934C30.8438 26.6934 30.5313 26.3746 30.8438 26.0684C30.8438 26.0684 30.5 25.9059 30.5563 25.6309M31.4063 26.9434C31.4063 26.9434 31.075 26.9871 31.175 26.3559C31.175 26.3559 31.0375 26.6059 30.9938 26.7309C30.9742 26.793 30.9759 26.8599 30.9985 26.921C31.0211 26.9821 31.0634 27.0339 31.1188 27.0684C31.175 27.1059 31.4625 27.1809 31.5563 26.9934M31.0375 25.9809C31.0375 25.9809 30.9063 26.0996 31 26.3184M31.175 26.0059C31.175 26.0059 31.1875 26.2246 31.3 26.3434M31.2688 25.9246C31.2688 25.9246 31.2688 26.1746 31.45 26.3371M31.3563 25.8371C31.3563 25.8371 31.3563 26.1184 31.5688 26.2996M32.4125 26.2559C32.4125 26.2559 32.5125 26.0121 32.7375 26.0309C32.7375 26.0309 32.6313 26.0809 32.6313 26.1871C32.6313 26.1871 32.6188 26.3746 32.8125 26.3871C32.8125 26.3871 32.9688 26.4121 33.05 26.3246" stroke="#00247D" stroke-width="0.075" stroke-miterlimit="10"/>
<path d="M32.9438 27.318C32.9438 27.318 32.3875 27.0555 32.4438 26.6867C32.4438 26.6867 32.4688 26.4617 32.6938 26.3492M32.5688 26.5867C32.5688 26.5867 32.5188 26.743 32.6313 26.8555M32.7 26.4805C32.7 26.4805 32.625 26.6555 32.7438 26.7805M32.8375 26.3867C32.8375 26.3867 32.75 26.5367 32.85 26.668M32.325 27.3555C32.325 27.3555 32.625 27.6242 32.8625 27.6242M32.2313 27.443C32.2313 27.443 32.5125 27.668 32.6938 27.7055M32.1313 27.5055C32.1313 27.5055 32.475 27.8117 32.6938 27.8305M33.55 28.118C33.55 28.118 33.2063 28.3055 33.475 28.5055M33.325 27.918L33.8875 27.6305M33.4688 28.018C33.4688 28.018 34.0313 27.6742 34.2 27.5992M33.7625 28.0492C33.7625 28.0492 34.2438 27.7242 34.5063 27.5805M34.0813 28.0242C34.0813 28.0242 34.4125 27.7742 34.7375 27.5805M34.8438 27.2617C34.8438 27.2617 34.6813 27.018 34.1438 27.2617C34.1438 27.2617 34.35 27.0805 34.7375 26.9367M35.2688 25.918C35.2688 25.918 35.3188 26.1117 35.2688 26.2305" stroke="#00247D" stroke-width="0.075" stroke-miterlimit="10"/>
<path d="M34.4062 26.8559C34.4062 26.8559 34.5187 26.6934 34.8 26.6059C34.8 26.6059 34.875 26.7934 35.1 26.7622C35.1 26.7622 35.425 26.6934 35.325 26.3247C35.325 26.3247 35.2562 26.0622 34.875 26.0309M36.0062 25.5747C36.0062 25.5747 36.3875 25.6497 36.3812 25.9559C36.3812 25.9559 36.4188 26.4309 35.9188 26.5184M36.3312 25.7684C36.3312 25.7684 36.4312 25.5372 36.675 25.4434M36.3875 25.3059C36.3875 25.3059 36.4937 25.4809 36.5625 25.4997M36.3375 25.4372C36.3375 25.4372 36.4313 25.5684 36.4625 25.5934M36.3 25.5622C36.3265 25.5997 36.3581 25.6333 36.3937 25.6622M34.3125 23.7372C34.3125 23.7372 34.3875 23.6122 34.5812 23.6622M35.3375 24.6497C35.3375 24.6497 35.4625 24.1622 35.8687 24.3372M35.7062 24.2997C35.7062 24.2997 35.7437 24.0747 35.6437 23.9559M35.4188 24.2809C35.4188 24.2809 35.475 24.3747 35.425 24.4497" stroke="#00247D" stroke-width="0.075" stroke-miterlimit="10"/>
<path d="M36.2625 29.313C36.2625 29.313 36.725 29.1067 36.5813 28.7442C36.5813 28.7442 36.5375 28.6192 36.4313 28.6317C36.4313 28.6317 36.2563 28.638 36.2875 28.8817C36.2875 28.8817 36.35 29.1192 36.2563 29.3192L36.2625 29.313Z" fill="#64B4D1" stroke="#00247D" stroke-width="0.075" stroke-miterlimit="2.6"/>
<path d="M36.425 29.0999C36.425 29.0999 36.5313 29.0062 36.5188 28.8312C36.5188 28.8312 36.5063 28.7937 36.5188 28.7874C36.5188 28.7874 36.5438 28.7812 36.5438 28.8249C36.5438 28.8249 36.575 29.0062 36.4563 29.1062C36.4563 29.1062 36.45 29.1249 36.4313 29.1187C36.4313 29.1187 36.4188 29.1187 36.4313 29.0999H36.425Z" fill="white"/>
<path d="M36.9188 28.9884C36.9188 28.9884 37.2438 28.7884 37.0688 28.4447C37.0688 28.4447 37.0125 28.3509 36.9188 28.3697C36.9188 28.3697 36.7188 28.4322 36.875 28.7134C36.875 28.7134 36.95 28.8947 36.9188 28.9947V28.9884Z" fill="#64B4D1" stroke="#00247D" stroke-width="0.075" stroke-miterlimit="2.6"/>
<path d="M37 28.5258C37 28.5258 36.9875 28.507 37 28.4883L37.025 28.5133C37.025 28.5133 37.1188 28.6195 37.0438 28.7883C37.0438 28.7883 37.0375 28.8133 37.0125 28.8008V28.782C37.0125 28.782 37.0875 28.632 37 28.532V28.5258Z" fill="white"/>
<path d="M35.9375 29.2241C35.9375 29.2241 35.575 29.1366 35.6437 28.7553C35.6437 28.7553 35.6812 28.5928 35.8375 28.6178C35.8375 28.6178 36.025 28.6678 35.9 28.9053C35.9 28.9053 35.8312 29.0678 35.9437 29.2241H35.9375Z" fill="#64B4D1" stroke="#00247D" stroke-width="0.075" stroke-miterlimit="2.6"/>
<path d="M35.8 28.7812V28.75C35.8 28.75 35.825 28.75 35.8313 28.7625C35.8313 28.7625 35.8688 28.825 35.8375 28.9125C35.8375 28.9125 35.8063 28.9687 35.825 29.025C35.825 29.025 35.825 29.0437 35.8063 29.05L35.7938 29.025C35.7938 29.025 35.775 28.975 35.8063 28.9125C35.8063 28.9125 35.8438 28.825 35.8063 28.7812H35.8Z" fill="white"/>
<path d="M36.2 28.5184C36.2 28.5184 36.4125 28.3996 36.575 28.5371C36.575 28.5371 36.5625 28.4621 36.425 28.4309C36.425 28.4309 36.3625 28.2309 36.1625 28.2496C36.1625 28.2496 36.2375 28.3496 36.35 28.4246C36.35 28.4246 36.2375 28.4371 36.2 28.5184ZM36.35 27.9746C36.35 27.9746 36.5 28.0809 36.55 28.1496C36.55 28.1496 36.6063 28.0746 36.675 28.0371C36.675 28.0371 36.6 28.0184 36.55 28.0559C36.55 28.0559 36.4813 27.9934 36.3625 27.9746H36.35Z" fill="black"/>
<path d="M35.55 28.4117C35.55 28.4117 35.5313 28.3617 35.5688 28.3117C35.5688 28.3117 35.5938 28.2742 35.5813 28.218M37.0438 25.218C37.0438 25.218 37.2625 25.2055 37.2938 25.0305M37.6688 24.918C37.6688 24.918 37.5938 24.918 37.5313 24.993C37.5313 24.993 37.475 25.068 37.4063 25.0555" stroke="black" stroke-width="0.075" stroke-miterlimit="10"/>
<path d="M36.725 24.5754C36.725 24.5754 36.8375 24.5754 36.8938 24.5254C36.8938 24.5254 36.9625 24.4817 37 24.5504C37 24.5504 37.0625 24.6504 36.95 24.6942C36.95 24.6942 36.8125 24.7692 37.0313 24.9067C37.0313 24.9067 36.7688 24.8067 36.8813 24.6817C36.8813 24.6817 36.9938 24.6067 36.9438 24.5754C36.9438 24.5754 36.9313 24.5504 36.8875 24.5754C36.8438 24.6129 36.7563 24.6004 36.725 24.5754Z" fill="black"/>
<path d="M36.875 21.8499C36.875 21.8499 36.925 21.7749 36.9062 21.5749C36.8812 21.3749 37.0687 21.3436 37.1312 21.3999C37.1312 21.3999 37.2062 21.4624 37.1312 21.5936C37.0794 21.7071 36.9884 21.7981 36.875 21.8499Z" fill="#64B4D1" stroke="#00247D" stroke-width="0.075" stroke-miterlimit="2.6"/>
<path d="M36.9375 21.6867C36.9375 21.6867 37.0125 21.618 36.975 21.4617L36.9875 21.4492H37.0062C37.0062 21.4492 37.0438 21.6242 36.9688 21.7117C36.9688 21.7117 36.9563 21.7305 36.9375 21.7117V21.6867Z" fill="white"/>
<path d="M36.8188 21.7754C36.8188 21.7754 36.8188 21.6879 36.675 21.5504C36.525 21.4004 36.6438 21.2754 36.7375 21.2754C36.7375 21.2754 36.8188 21.2754 36.8625 21.4191C36.8908 21.5393 36.8753 21.6656 36.8188 21.7754Z" fill="#64B4D1" stroke="#00247D" stroke-width="0.075" stroke-miterlimit="2.6"/>
<path d="M36.8 21.5867C36.8 21.5867 36.8 21.4867 36.6625 21.3805V21.3555H36.6875C36.6875 21.3555 36.8313 21.468 36.8313 21.593C36.8313 21.593 36.8313 21.6117 36.8125 21.6117C36.8125 21.6117 36.8 21.6117 36.8 21.5867Z" fill="white"/>
<path d="M36.625 21.7062C36.625 21.7062 36.5813 21.6437 36.4063 21.5749C36.225 21.5124 36.2688 21.3562 36.3438 21.3249C36.3438 21.3249 36.425 21.2937 36.5063 21.3937C36.5801 21.4809 36.6201 21.5919 36.6188 21.7062H36.625Z" fill="#64B4D1" stroke="#00247D" stroke-width="0.075" stroke-miterlimit="2.6"/>
<path d="M36.5375 21.5818C36.5375 21.5818 36.5 21.4943 36.3375 21.4506C36.3375 21.4506 36.325 21.4506 36.325 21.4318C36.325 21.4318 36.325 21.4193 36.3437 21.4256C36.3437 21.4256 36.525 21.4631 36.575 21.5756L36.5687 21.5943C36.5687 21.5943 36.55 21.5943 36.5437 21.5818H36.5375Z" fill="white"/>
<path d="M36.7312 21.7744C36.7312 21.7744 36.65 21.8057 36.4562 21.7119C36.2625 21.6182 36.1812 21.7807 36.2187 21.8557C36.2187 21.8557 36.25 21.9557 36.3937 21.9307C36.5208 21.9238 36.641 21.8704 36.7312 21.7807V21.7744Z" fill="#64B4D1" stroke="#00247D" stroke-width="0.075" stroke-miterlimit="2.6"/>
<path d="M36.2875 21.8379C36.2875 21.8379 36.375 21.9004 36.5312 21.8379H36.55C36.55 21.8379 36.55 21.8504 36.5375 21.8566C36.5375 21.8566 36.375 21.9316 36.2625 21.8629C36.2625 21.8629 36.25 21.8629 36.2625 21.8441H36.2875V21.8379Z" fill="white"/>
<path d="M36.4563 21.168C36.4563 21.168 36.5438 21.218 36.5313 21.3242" stroke="black" stroke-width="0.075" stroke-miterlimit="2.6"/>
<path d="M36.875 21.1875C36.875 21.1875 36.9125 21.3062 36.875 21.375" stroke="black" stroke-width="0.075" stroke-miterlimit="10"/>
<path d="M30.2625 21.8502C30.2625 21.8502 30.2125 21.7752 30.2312 21.5752C30.2562 21.3627 30.075 21.344 30.0125 21.4002C30.0125 21.4002 29.9375 21.4627 30 21.594C30.0534 21.7085 30.1467 21.7996 30.2625 21.8502Z" fill="#64B4D1" stroke="#00247D" stroke-width="0.075" stroke-miterlimit="2.6"/>
<path d="M30.1937 21.6867C30.1937 21.6867 30.1312 21.618 30.1562 21.4617V21.4492H30.1312C30.1312 21.4492 30.1 21.6242 30.175 21.7117C30.175 21.7117 30.1875 21.7305 30.1937 21.7117V21.6867Z" fill="white"/>
<path d="M30.325 21.7754C30.325 21.7754 30.325 21.6879 30.475 21.5504C30.6187 21.4004 30.5 21.2754 30.4125 21.2754C30.4125 21.2754 30.3125 21.2754 30.2875 21.4191C30.2573 21.5386 30.2706 21.6649 30.325 21.7754Z" fill="#64B4D1" stroke="#00247D" stroke-width="0.075" stroke-miterlimit="2.6"/>
<path d="M30.3437 21.5867C30.3437 21.5867 30.3437 21.4867 30.4687 21.3805C30.4687 21.3805 30.4875 21.3617 30.4687 21.3555H30.4562C30.4562 21.3555 30.3062 21.468 30.3062 21.593C30.3062 21.593 30.3062 21.6117 30.3312 21.6117C30.3312 21.6117 30.3437 21.6117 30.3437 21.5867Z" fill="white"/>
<path d="M30.5187 21.7062C30.5187 21.7062 30.5562 21.6437 30.7375 21.5749C30.9125 21.5124 30.8625 21.3562 30.7937 21.3249C30.7937 21.3249 30.7187 21.2937 30.6312 21.3937C30.5574 21.4809 30.5174 21.5919 30.5187 21.7062Z" fill="#64B4D1" stroke="#00247D" stroke-width="0.075" stroke-miterlimit="2.6"/>
<path d="M30.6 21.5818C30.6 21.5818 30.6375 21.4943 30.8 21.4506C30.8 21.4506 30.8125 21.4506 30.8125 21.4318C30.8125 21.4318 30.8125 21.4193 30.8 21.4256C30.8 21.4256 30.6188 21.4631 30.5688 21.5756V21.5943C30.5688 21.5943 30.5938 21.5943 30.6 21.5818Z" fill="white"/>
<path d="M30.4062 21.7744C30.4062 21.7744 30.4937 21.8057 30.6812 21.7119C30.8687 21.6182 30.9562 21.7807 30.9312 21.8557C30.9312 21.8557 30.8875 21.9557 30.7437 21.9307C30.6167 21.9238 30.4965 21.8704 30.4062 21.7807V21.7744Z" fill="#64B4D1" stroke="#00247D" stroke-width="0.075" stroke-miterlimit="2.6"/>
<path d="M30.85 21.8379C30.85 21.8379 30.7688 21.9004 30.6063 21.8379H30.5938V21.8566C30.5938 21.8566 30.7687 21.9316 30.875 21.8629C30.875 21.8629 30.8875 21.8629 30.875 21.8441H30.85V21.8379Z" fill="white"/>
<path d="M30.6875 21.168C30.6875 21.168 30.5937 21.218 30.6125 21.3242" stroke="black" stroke-width="0.075" stroke-miterlimit="2.6"/>
<path d="M30.2625 21.1875C30.2625 21.1875 30.225 21.3062 30.2625 21.375" stroke="black" stroke-width="0.075" stroke-miterlimit="10"/>
<path d="M34.4188 20.0996C34.4188 20.0996 34.4813 20.2684 34.4563 20.4246C34.4375 20.5746 34.4688 20.6059 34.5188 20.6371C34.5625 20.6559 34.6688 20.6121 34.675 20.4996C34.675 20.4996 34.8 20.7371 34.5625 20.8934C34.5625 20.8934 34.3938 20.9996 34.25 20.8684C34.2 20.8121 34.175 20.6809 34.2063 20.5559C34.2063 20.5559 34.2438 20.3871 34.175 20.2121C34.175 20.2121 34.275 20.3121 34.25 20.5184C34.25 20.5184 34.2 20.8934 34.475 20.8684C34.475 20.8684 34.6625 20.8684 34.6625 20.6434C34.6625 20.6434 34.5938 20.7184 34.5125 20.6934C34.4748 20.6844 34.442 20.6612 34.421 20.6286C34.4 20.5959 34.3925 20.5564 34.4 20.5184C34.4063 20.4184 34.4375 20.2496 34.4188 20.0996ZM34.125 20.6871C34.125 20.6871 34.1 20.9871 33.8375 21.0559C33.8375 21.0559 33.875 20.9996 33.8188 20.8496C33.8188 20.8496 33.7563 20.7746 33.7563 20.6434C33.7563 20.6434 33.6813 20.7059 33.775 20.8809C33.8375 20.9871 33.775 21.1059 33.7688 21.1121C33.7438 21.1184 34.2 21.0496 34.1188 20.6934L34.125 20.6871ZM33.775 20.4059C33.775 20.4059 33.7063 20.3309 33.7 20.1684C33.7 19.9996 33.6688 19.9559 33.6438 19.9434C33.6438 19.9434 33.675 20.0871 33.6688 20.1684C33.6633 20.232 33.6718 20.296 33.6938 20.3559C33.6938 20.3559 33.5438 20.3746 33.45 20.1684C33.3688 19.9621 33.2813 19.9809 33.2375 19.9809C33.2375 19.9809 33.2875 19.9871 33.3875 20.1684C33.4875 20.3559 33.5188 20.3996 33.775 20.3996V20.4059ZM33.1 19.9684C33.1 19.9684 33.175 20.1684 33.1875 20.2684C33.1875 20.2684 32.9938 20.2059 32.9375 20.0496C32.9375 20.0496 32.7375 20.1121 32.8125 20.3434C32.8125 20.3434 32.6313 20.2809 32.55 20.1434C32.55 20.1434 32.65 20.2184 32.7438 20.2496C32.7438 20.2496 32.7313 20.0559 32.9688 19.9871C32.9688 19.9871 33.0063 20.1559 33.1313 20.1934L33.1 19.9684ZM33.4125 19.6309C33.4125 19.6309 33.4875 19.7246 33.625 19.7246C33.6636 19.7275 33.7023 19.7204 33.7373 19.704C33.7723 19.6876 33.8025 19.6624 33.825 19.6309C33.825 19.6309 33.8188 19.7934 33.625 19.7996C33.625 19.7996 33.4188 19.7996 33.4188 19.6309H33.4125ZM32.575 20.7871L32.7 20.9059C32.7 20.9059 32.775 20.9809 32.825 20.8871C32.825 20.8871 32.9063 20.7371 33.0063 20.7496C33.0063 20.7496 32.9313 20.7934 32.8563 20.9371C32.8563 20.9371 32.8438 20.9809 32.7813 20.9871C32.75 20.9871 32.7188 20.9996 32.6688 20.9434C32.6688 20.9434 32.625 20.8871 32.575 20.7934V20.7871ZM33.6188 18.9496C33.4188 18.9496 33.5875 19.0996 33.5875 19.0996C33.5875 19.3496 33.3938 19.4371 33.2563 19.3621C33.1188 19.2871 33.2313 19.1121 33.2313 19.1121C33.2313 19.1121 33.0813 19.2059 33.1688 19.3559C33.2688 19.5059 33.525 19.4309 33.6188 19.2996C33.7125 19.4371 33.975 19.5059 34.0625 19.3559C34.1688 19.2059 34.0125 19.1059 34.0125 19.1059C34.0125 19.1059 34.125 19.2871 33.9813 19.3559C33.85 19.4371 33.6438 19.3559 33.6563 19.1059C33.6563 19.1059 33.825 18.9496 33.625 18.9496H33.6188ZM33.7438 18.6746C33.7438 18.6746 33.8188 18.7996 33.8063 18.9871C33.8063 18.9871 33.8625 18.7996 33.7438 18.6809V18.6746ZM33.1188 18.9684C33.1188 18.9684 33.1 18.8309 32.9688 18.8184C32.9688 18.8184 33.0875 18.8996 33.1188 18.9684ZM34.1188 18.9684C34.1188 18.9684 34.1375 18.8309 34.275 18.8184C34.275 18.8184 34.1625 18.8996 34.125 18.9684H34.1188ZM32.9188 19.1684C32.9188 19.1684 33.0188 19.1996 33.0813 19.1246L32.9188 19.1684ZM32.5813 18.3496C32.5813 18.3496 32.7 18.3434 32.8188 18.5184C32.8188 18.5184 32.7 18.5809 32.6688 18.6184C32.6688 18.6184 32.6688 18.5559 32.7313 18.5121C32.7313 18.5121 32.7063 18.4246 32.5813 18.3559V18.3496ZM34.5813 18.3496C34.5813 18.3496 34.4563 18.3434 34.3375 18.5184C34.3375 18.5184 34.4625 18.5809 34.4875 18.6184C34.4875 18.6184 34.4875 18.5559 34.425 18.5121C34.425 18.5121 34.45 18.4246 34.5813 18.3559V18.3496ZM33.6625 18.4871C33.6625 18.4871 33.7688 18.5184 33.9 18.4434C33.9 18.4434 34.0625 18.3559 34.1688 18.4434C34.1688 18.4434 34.0813 18.3996 33.9 18.4871C33.9 18.4871 33.7313 18.5871 33.6625 18.4871Z" fill="black"/>
<path d="M33.775 18.5998C33.775 18.5998 33.8625 18.4436 34.15 18.4748C34.15 18.4748 34.0687 18.6998 33.775 18.5998Z" fill="white"/>
<path d="M33.9625 18.618C33.9901 18.618 34.0125 18.5872 34.0125 18.5492C34.0125 18.5112 33.9901 18.4805 33.9625 18.4805C33.9349 18.4805 33.9125 18.5112 33.9125 18.5492C33.9125 18.5872 33.9349 18.618 33.9625 18.618Z" fill="#784421"/>
<path d="M33.9625 18.5934C33.9798 18.5934 33.9937 18.5738 33.9937 18.5496C33.9937 18.5254 33.9798 18.5059 33.9625 18.5059C33.9452 18.5059 33.9312 18.5254 33.9312 18.5496C33.9312 18.5738 33.9452 18.5934 33.9625 18.5934Z" fill="black"/>
<path d="M33.175 18.2559C33.175 18.2559 33.35 18.2746 33.4625 18.3309C33.4625 18.3309 33.575 18.4059 33.7 18.3121C33.7 18.3121 33.8375 18.2246 33.9313 18.1184C33.9313 18.1184 33.7125 18.2621 33.6313 18.2871C33.6313 18.2871 33.5563 18.2246 33.5375 18.1434C33.5375 18.1434 33.5375 18.0809 33.6625 17.9746C33.6625 17.9746 33.5063 18.0246 33.475 18.1559C33.4949 18.2089 33.5246 18.2576 33.5625 18.2996C33.5625 18.2996 33.5375 18.3184 33.4625 18.2621C33.4625 18.2621 33.2875 18.2121 33.175 18.2621V18.2559ZM33.625 19.3184C33.475 19.4496 33.625 19.4371 33.625 19.4371C33.625 19.4371 33.775 19.4496 33.625 19.3121V19.3184ZM33.5375 18.4934C33.5375 18.4934 33.425 18.5246 33.2875 18.4496C33.2875 18.4496 33.125 18.3621 33.0188 18.4496C33.0188 18.4496 33.1125 18.4059 33.2875 18.4934C33.2875 18.4934 33.4688 18.5934 33.5375 18.4934Z" fill="black"/>
<path d="M33.425 18.5998C33.425 18.5998 33.3313 18.4436 33.05 18.4748C33.05 18.4748 33.125 18.6998 33.425 18.5998Z" fill="white"/>
<path d="M33.2312 18.618C33.2589 18.618 33.2812 18.5872 33.2812 18.5492C33.2812 18.5112 33.2589 18.4805 33.2312 18.4805C33.2036 18.4805 33.1812 18.5112 33.1812 18.5492C33.1812 18.5872 33.2036 18.618 33.2312 18.618Z" fill="#784421"/>
<path d="M33.2312 18.5934C33.2485 18.5934 33.2625 18.5738 33.2625 18.5496C33.2625 18.5254 33.2485 18.5059 33.2312 18.5059C33.214 18.5059 33.2 18.5254 33.2 18.5496C33.2 18.5738 33.214 18.5934 33.2312 18.5934Z" fill="black"/>
<path d="M39 17.1621V27.2621C39 29.9559 33.6125 30.8371 33.6125 30.8371C33.6125 30.8371 28.2125 29.9621 28.2125 27.2621V17.1621H39.0062H39Z" stroke="black" stroke-width="0.075"/>
<path d="M4 9H24V24H4V9Z" fill="#000066"/>
<path d="M6.34375 9L13.9688 14.6562L21.5625 9H24V10.9375L16.5 16.5312L24 22.0938V24H21.5L14 18.4062L6.53125 24H4V22.125L11.4688 16.5625L4 11V9H6.34375Z" fill="white"/>
<path d="M17.25 17.7812L24 22.75V24L15.5312 17.7812H17.25ZM11.5 18.4062L11.6875 19.5L5.6875 24H4L11.5 18.4062ZM24 9V9.09375L16.2188 14.9688L16.2812 13.5938L22.4375 9H24ZM4 9L11.4688 14.5H9.59375L4 10.3125V9Z" fill="#C8102E"/>
<path d="M11.5312 9V24H16.5312V9H11.5312ZM4 14V19H24V14H4Z" fill="white"/>
<path d="M4 15.0312V18.0312H24V15.0312H4ZM12.5312 9V24H15.5312V9H12.5312Z" fill="#C8102E"/>
</g>
<defs>
<clipPath id="clip0_1911_282">
<rect x="4" y="9" width="40" height="30" rx="5" fill="white"/>
</clipPath>
</defs>
</svg>
