<svg height="48" viewBox="0 0 48 48" width="48" xmlns="http://www.w3.org/2000/svg" xmlns:xlink="http://www.w3.org/1999/xlink"><defs><rect id="a" height="30" rx="4" width="40" x="4" y="9"/><mask id="b" fill="#fff"><use fill="#fff" fill-rule="evenodd" xlink:href="#a"/></mask></defs><g fill="none" fill-rule="evenodd"><path d="m0 0h48v48h-48z"/><use fill="#d8d8d8" xlink:href="#a"/><g mask="url(#b)"><g fill-rule="nonzero" transform="translate(4 9)"><path d="m0 0h40v30h-40z" fill="#f7e017"/><path d="m0 2.0833125v13.333375l40 6.25v-7.083375z" fill="#fff"/><path d="m0 9.1666875v6.25l40 12.5v-6.25z" fill="#000"/><g fill="#cf1126" transform="translate(9.958433 6.208364)"><path d="m9.03087849 17.5300876c-.8066707-.1070838-1.54625773-.3637518-2.0600103-.7154202-.09958383-.0683337-.1933343-.1241673-.20791771-.1241673-.01500007 0-.02708347.0758337-.02708347.1695842 0 .265418-.1066672.3991687-.37500187.4687523-.25666795.066667-.64833658-.067917-.96583816-.3312516-.32875165-.272918-.70833688-.4812524-1.02958849-.5645862-.26458465-.069167-.61583641-.0579169-.86958768.0270835-.11791725.0395835-.25208459.0954171-.29875149.1241673-.04625023.0287501-.09833383.0520836-.11500058.0520836-.04500022 0-.03875019-.2854181.00833338-.3766686.06208364-.1195839.21500107-.2375012.3933353-.3025015.09000045-.0329168.16375082-.0750004.16375082-.0937505 0-.01875-.03041682-.0875004-.06750034-.152084-.12083394-.2116678-.07125036-.4166688.13958403-.5779196.21583441-.1650008.58125291-.1933343.90417119-.070417.08125041.0308335.15708412.0562503.16833417.0562503.04250022 0 .01666675-.0595837-.10041716-.2300012-.13500068-.197501-.16166748-.2950015-.14500073-.5300026.02166678-.2975015.26416799-.5408361.56125281-.5625029.24250121-.0175.3933353.064167.75125375.4050021 1.06875535 1.0191717 2.23084449 1.5808412 3.58626793 1.7329253.34208505.0383335 1.03042181.0179168 1.43417381-.0429169 1.2195895-.1837509 2.4483456-.7970873 3.4079337-1.7008418.2658347-.2504179.393752-.3166683.6116698-.3175016.1895842-.0008333.3225016.060417.4583356.2104177.1237506.1375007.1658342.267918.1525008.4766691-.0087501.1337506-.0304169.1995843-.1100006.3291683-.1175006.1912509-.0975005.208751.1350007.1187506.3141682-.1225006.7012535-.0658337.9100045.1325006.1837509.1745842.201251.3491684.0583337.5858363-.0520836.0866671-.0945839.1679175-.0945839.1808342 0 .0237502.0395836.0350002.2304179.0658337.2495845.0400002.3925019.2254178.3925019.5087525 0 .0850005-.0104167.1541675-.0233334.1541675-.0125001 0-.1070839-.0345835-.2100011-.0770837-.2908348-.1200006-.4562523-.1508341-.796254-.1487508-.2587512.0016667-.3479184.0137501-.5283359.0725004-.2762514.0904171-.5716696.2645846-.8125041.479169-.265418.2366679-.4325022.3112516-.6908368.3091683-.2400012-.0025001-.4041687-.0720837-.4908358-.2091678-.0462502-.0733337-.0529169-.1179172-.0416668-.2837514.0075-.1079172.0058333-.196251-.0029167-.196251-.0091667 0-.1025005.059167-.2079177.132084-.2766681.190001-.452919.2841681-.7695872.4095854-.9658382.3820853-2.3595951.5475028-3.42668381.406252z"/><path d="m9.47254736 15.6738284c-1.60750804-.1542925-3.14559906-.9915883-4.08081207-2.3190533-1.01542174-1.3847986-1.33542334-3.2132244-1.02546346-4.88502442.16475082-.7611288.49704415-1.52275761 1.06433866-2.06476032-.4520856.95846312-.60483636 2.05705195-.36375182 3.09543214.3745852 2.073052 2.12651063 3.8279358 4.22252111 4.1315207.82917082.2400428 1.68696672-.0135001 2.47901242-.2705431 1.7473004-.6158364 3.0783487-2.274303 3.2407245-4.12835393.1390007-1.00321335-.0150001-2.04638524-.4669607-2.95480645.2576263.13620902.5827946.67029502.7745872 1.02946348.6667534 1.29179813.6972119 2.8398059.3046682 4.2183544-.5325026 1.7540505-1.873551 3.2907665-3.6463099 3.8492693-.804504.2628346-1.6600916.34296-2.50242914.2986265z"/><g transform="translate(0 6.375032)"><path d="m1.37584021 6.99586831c-.10533386-.01650008-.22150111.08716711-.18179257.19570931.07595871.10970889.20683436.16333415.32491829.21583442.28300141.11341723.59083629.15758412.89462947.15020908-.10470886-.00025.03595851.00108334.07508371 0 .24058454.00070834.47983573-.04266688.70600353-.12416729.12575063-.04425022.28600143-.08437542.33750169-.22345945.05029192-.09062545-.04083354-.1811259-.132709-.16295914-.12800064.0279168-.2476679.08600043-.37458521.11904226-.2738347.07725038-.56225281.10708387-.84596256.08383375-.20750104-.02533346-.40850204-.09166713-.60041967-.17262586-.066542-.02937515-.12900064-.0722087-.20270934-.08141708z"/><path d="m1.49292413 6.56336615c-.10650053-.01583341-.19825099.1066672-.1538341.20450102.08187541.11866726.21945943.18187591.34816841.23745952.22375111.08950045.46683566.12695897.7072952.11979227-.09129212-.00025.03137516.00108334.06520866 0 .20475962.00005794.40754396-.04003178.59687798-.11800059.11558391-.04491689.25708462-.08850044.30520986-.21570941.03733352-.06987535.00883338-.17150086-.07916706-.17695922-.0803754-.00400002-.14970908.0471669-.22408445.07012535-.27020969.11170889-.56758618.15908413-.85892097.13391734-.18154257-.02333345-.35500177-.09033379-.51958593-.16791751-.06187531-.02991682-.11750058-.07650038-.18712593-.08720877z"/><path d="m1.63667485 6.14878074c-.09125046-.01095838-.1540841.09204213-.13870903.17425088.01362507.07220869.07845873.1207506.132084.16500082.22200111.16241748.50341918.23158449.77604554.22250111-.10587553-.000375.14208405.00175001.06645867-.00029167.17266753-.00070833.34325172-.04291688.49858583-.11770892.10370885-.04508356.22545946-.09733382.26041796-.21570941.01670842-.05516694.02716681-.134459-.03504184-.16541749-.06516699-.03641685-.12987565.01958343-.18912594.04233354-.19954267.10154218-.42187711.15804246-.64612823.15700079-.19375097.0065417-.37637689-.07500038-.54450273-.16279248-.0610003-.03108349-.11125055-.08512543-.18004256-.09916717z"/><path d="m.10541719.02916681c-.13570901.13583401-.03208349.3862936-.03941686.56429449.07033369.54825274.15770912 1.10350552.36237681 1.61959143.25062626.50425252.78292058.77387887 1.1055472 1.2195061.11529224.21479274.07437537.47312736.09866716.70808687.01908342.6402532.01316673 1.28096474.00195834 1.92130128.28912644.14508406.60308635.29108478.93567134.23529284.19708432-.04708357.56300282-.07633372.60400302-.27262636-.01595841-1.10417219-.02625013-2.20876105-.04095853-3.31276657-.1120839-.33829336-.45629395-.5133359-.71371191-.72979531-.21227102-.20971571-.40979796-.4338478-.59116962-.67079502-.10925054-.18404259-.53616935-.25037626-.38171024.06987535.09054212.27725138.32166827.48375241.37954356.7750872.01262507.1596258.20320935.45329394.04054187.5464194-.10350051-.17591754-.25341793-.32562663-.44508556-.41491874-.18466759-.13766735-.48996078-.19500097-.55662778-.43821052-.04895858-.34500173-.22562613-.65758662-.45362727-.91608792.0587503-.30983488.00020834-.69737848-.26762633-.89542114z"/><path d="m.51833593.09125046c-.12345896.01991676-.1192506.17725088-.06212532.25995963.06075031.17866756.07729206.3727102.04441689.55871113.21945943.25691795.38946028.56429448.44066887.90167117.00125001.12683397.13470901.16879251.22120944.23145949.20295935.12925065.43116883.22295945.61191973.38471026.03804186.04066687.06675033.08445875.0398752.00145834-.02820848-.10612553-.04275022-.22325112-.12587563-.30354319-.1139589-.12250061-.25625128-.23179282-.42221045-.26916801-.0138334-.17141752-.09550047-.32887664-.17091752-.4805024-.08358375-.14495906-.17091752-.3002515-.31416823-.39425197.00575002-.2540846.00158334-.5206276-.10775054-.75508711-.0320835-.0602503-.07929207-.13179233-.15500078-.13541734z"/><path d="m.86375432.19250096c-.08600043.0255418-.06958368.13162566-.04233355.19650099.04120854.17983423.04766691.36558516.04429189.54933608.15795912.12500062.25679295.30625153.34675174.48279408.05637528.11791725.10983388.23962619.13145899.36937684.1281673.04241688.24033453.12275062.34046003.21154273-.03966686-.12008394-.12816731-.21304273-.1876676-.32266828-.06462533-.11404224-.12637564-.23300117-.15375077-.36221015-.12325062-.13154232-.19112596-.31791825-.16420916-.49800249.0055417-.19900099-.05875029-.40458535-.19191762-.5545861-.03354184-.03304184-.0735837-.06958368-.12308395-.0720837z"/><path d="m1.28934345.24875124c-.06177926.00825005-.09938642.05275027-.13247852.08904212-.01282939.03637518.04608667.07550037.05550222.11500057.07253445.13780446.09930537.28696667.07796741.43441884-.00473531.10425052.04454494.20608436.11474865.29437647.02026272-.06512532.0999921-.11195889.18643902-.11833392.03144025-.00420836.0776921.00783337.05935655-.02845848-.02196964-.19941766-.06210964-.39991867-.15417285-.58833627-.03573506-.06725034-.0762605-.13808403-.15329186-.18416759-.01563753-.00837504-.03430346-.01558341-.05407062-.01354174z"/></g><g transform="matrix(-1 0 0 1 20.083433 6.375032)"><path d="m1.37584021 6.99586831c-.10533386-.01650008-.22150111.08716711-.18179257.19570931.07595871.10970889.20683436.16333415.32491829.21583442.28300141.11341723.59083629.15758412.89462947.15020908-.10470886-.00025.03595851.00108334.07508371 0 .24058454.00070834.47983573-.04266688.70600353-.12416729.12575063-.04425022.28600143-.08437542.33750169-.22345945.05029192-.09062545-.04083354-.1811259-.132709-.16295914-.12800064.0279168-.2476679.08600043-.37458521.11904226-.2738347.07725038-.56225281.10708387-.84596256.08383375-.20750104-.02533346-.40850204-.09166713-.60041967-.17262586-.066542-.02937515-.12900064-.0722087-.20270934-.08141708z"/><path d="m1.49292413 6.56336615c-.10650053-.01583341-.19825099.1066672-.1538341.20450102.08187541.11866726.21945943.18187591.34816841.23745952.22375111.08950045.46683566.12695897.7072952.11979227-.09129212-.00025.03137516.00108334.06520866 0 .20475962.00005794.40754396-.04003178.59687798-.11800059.11558391-.04491689.25708462-.08850044.30520986-.21570941.03733352-.06987535.00883338-.17150086-.07916706-.17695922-.0803754-.00400002-.14970908.0471669-.22408445.07012535-.27020969.11170889-.56758618.15908413-.85892097.13391734-.18154257-.02333345-.35500177-.09033379-.51958593-.16791751-.06187531-.02991682-.11750058-.07650038-.18712593-.08720877z"/><path d="m1.63667485 6.14878074c-.09125046-.01095838-.1540841.09204213-.13870903.17425088.01362507.07220869.07845873.1207506.132084.16500082.22200111.16241748.50341918.23158449.77604554.22250111-.10587553-.000375.14208405.00175001.06645867-.00029167.17266753-.00070833.34325172-.04291688.49858583-.11770892.10370885-.04508356.22545946-.09733382.26041796-.21570941.01670842-.05516694.02716681-.134459-.03504184-.16541749-.06516699-.03641685-.12987565.01958343-.18912594.04233354-.19954267.10154218-.42187711.15804246-.64612823.15700079-.19375097.0065417-.37637689-.07500038-.54450273-.16279248-.0610003-.03108349-.11125055-.08512543-.18004256-.09916717z"/><path d="m.10541719.02916681c-.13570901.13583401-.03208349.3862936-.03941686.56429449.07033369.54825274.15770912 1.10350552.36237681 1.61959143.25062626.50425252.78292058.77387887 1.1055472 1.2195061.11529224.21479274.07437537.47312737.09866716.70808687.01908342.6402532.01316673 1.28096474.00195834 1.92130128.28912644.14508406.60308635.29108479.93567134.23529284.19708432-.04708357.56300282-.07633372.60400302-.27262636-.01595841-1.10417219-.02625013-2.20876105-.04095853-3.31276657-.1120839-.33829336-.45629395-.5133359-.71371191-.72979531-.21227102-.20971571-.40979796-.4338478-.59116962-.67079502-.10925054-.18404259-.53616935-.25037626-.38171024.06987535.09054212.27725138.32166827.48375241.37954356.7750872.01262507.1596258.20320935.45329394.04054187.5464194-.10350051-.17591754-.25341793-.32562663-.44508556-.41491874-.18466759-.13766735-.48996078-.19500097-.55662778-.43821052-.04895858-.34500173-.22562613-.65758662-.45362727-.91608792.0587503-.30983488.00020834-.69737848-.26762633-.89542114z"/><path d="m.51833593.09125046c-.12345896.01991676-.1192506.17725088-.06212532.25995963.06075031.17866756.07729206.3727102.04441689.55871113.21945943.25691795.38946028.56429448.44066887.90167117.00125001.12683397.13470901.16879251.22120944.23145949.20295935.12925065.43116883.22295945.61191973.38471026.03804186.04066687.06675033.08445875.0398752.00145834-.02820848-.10612553-.04275022-.22325112-.12587563-.30354319-.1139589-.12250061-.25625128-.23179282-.42221045-.26916801-.0138334-.17141752-.09550047-.32887664-.17091752-.4805024-.08358375-.14495906-.17091752-.3002515-.31416823-.39425197.00575002-.2540846.00158334-.5206276-.10775054-.75508711-.0320835-.0602503-.07929207-.13179233-.15500078-.13541734z"/><path d="m.86375432.19250096c-.08600043.0255418-.06958368.13162566-.04233355.19650099.04120854.17983423.04766691.36558516.04429189.54933608.15795912.12500062.25679295.30625153.34675174.48279408.05637528.11791725.10983388.23962619.13145899.36937684.1281673.04241688.24033453.12275062.34046003.21154273-.03966686-.12008394-.12816731-.21304273-.1876676-.32266828-.06462533-.11404224-.12637564-.23300117-.15375077-.36221015-.12325062-.13154232-.19112596-.31791825-.16420916-.49800249.0055417-.19900099-.05875029-.40458535-.19191762-.5545861-.03354184-.03304184-.0735837-.06958368-.12308395-.0720837z"/><path d="m1.28934345.24875124c-.06177926.00825005-.09938642.05275027-.13247852.08904212-.01282939.03637518.04608667.07550037.05550222.11500057.07253445.13780446.09930537.28696667.07796741.43441884-.00473531.10425052.04454494.20608436.11474865.29437647.02026272-.06512532.0999921-.11195889.18643902-.11833392.03144025-.00420836.0776921.00783337.05935655-.02845848-.02196964-.19941766-.06210964-.39991867-.15417285-.58833627-.03573506-.06725034-.0762605-.13808403-.15329186-.18416759-.01563753-.00837504-.03430346-.01558341-.05407062-.01354174z"/></g><path d="m9.86129931 13.6242348c-.56221115-.0535419-1.06946368-.4633357-1.24288122-1.000005.00933338-.0924588.12445896.0517086.17883423.061417.10208384.0566669.21250106.1033338.33000165.1105838.14825074.0637087.2398762.2097928.38133524.2859598.06570866.0511669.29812649.1516674.25495961-.011-.05445861-.0850005-.09191713-.1927093-.04504189-.2900848.07883372-.1729176.20008433-.32346.32208497-.4677524.0897088-.0300001.1497924.1469591.2139177.2065427.0887921.1366257.1958343.3033349.1436257.4730024-.0508336.0628753-.0842087.2519596.0517086.1884176.1675842-.0737504.3048349-.1975843.4437939-.3132099.1216256-.0849588.2772514-.0909588.4047104-.1654175.0590419-.0150001.1820842-.1331257.207751-.0676253-.0698337.1870009-.1867509.3544601-.3117516.5087942-.202501.2312511-.4763357.4052103-.7827539.4542523-.1810842.0331668-.3669185.0401668-.55029439.0261668z"/><path d="m10.5221359 12.9675648c.0123751-.1128339-.0133334-.2280428-.0709586-.3306266-.0884588-.1802509-.2133761-.3402517-.3352517-.4983358-.1148756-.0673337-.17862591.1523757-.2550013.2154177-.11904226.1782092-.26845967.3607101-.27570971.5848363-.06695867.1042505-.19183429-.0850005-.24566789-.1472924-.10283385-.1454591-.18066757-.3175016-.16791751-.4994609-.01216673-.2931681.04404189-.5850446.15083409-.8575459.0806254-.2326262.21150106-.4585857.19820932-.7127119.00933338-.191251-.02950014-.4024187-.18441759-.5310443-.1474174-.1156673.09545881-.1403341.17262587-.0803338.13200066.0088334.20341768.2270012.32404328.1730009.04804191-.1139589.05758363-.2498763.15666745-.33875171.09720879-.13316733.19883429.05650031.23208449.14533411.068667.078042-.0038333.2711263.1076255.276168.133584-.0936255.2288345-.2509179.399627-.2851681.0692921-.0395419.1876676-.0052917.0963339.0743754-.1264173.1185006-.2344179.266668-.2574597.4429189-.0386668.2211677.0166668.4454189.1130423.6445865.1852509.391252.3285433.8332125.2348345 1.268548-.0434586.193501-.1749176.3602102-.3346684.4725024-.0201667.0122084-.0520836.011375-.0588753-.0164168z"/><path d="m10.3221349 10.0263001c-.0606669-.10933385-.134334-.21708439-.2363761-.29145976-.09920887-.00020833-.16041751.12495896-.22783451.19054262-.04725024.08791714-.10466719.23491784-.22104277.12000064-.18516759-.10808391-.21791776-.3448351-.21675109-.53996107-.01166672-.31625158.11570892-.61141973.22883448-.89946283.07200036-.18033424.05425027-.38329359.01033339-.56808618-.05529195-.21216773-.22558446-.35929346-.35666845-.52479429.00891671-.06400032.17645921-.02904181.23950119-.01687508.1400007.03550017.22362612.15937579.32791831.2469179.07425037-.02250011.04395855-.17250086.07850039-.24304288.00258335-.0992505.13470896-.23008449.18920926-.08800044.0816254.09033378-.0025833.26937634.1028755.32562662.1004589-.03720851.1500008-.1470424.2444179-.19666765.0929172-.06333365.2240845-.07041701.324085-.02070843.0352085.09220879-.1100006.16895918-.1520841.24904291-.1687925.20858438-.2281262.49625248-.1558341.75467044.0573753.20270935.1589174.39191863.1939593.60141967.0422085.23554285.0408335.48291908-.0201668.71500358-.0364168.14083404-.1584175.23500113-.2843764.29350143-.0310835-.0289168-.0475003-.071417-.0685004-.1076255z"/><path d="m9.69213179 7.41212039c-.1400007-.10250051-.18625093-.20041766-.18625093-.39416863 0-.09916717.01833343-.15291743.08375042-.24291788.09625048-.133334.07875039-.17541755-.05750029-.13625069-.21916776.06291699-.32375162.0054167-.33125165-.1812509-.00333335-.09125046.01583341-.13000065.13875069-.27750139.09833383-.11833392.13416734-.18041757.11458391-.200001-.01916677-.01916676-.13541735.08166708-.37416854.32458496-.19041762.19375097-.40458536.39166862-.47583571.4400022-.41000205.27666805-.80167068.31958493-.98042157.1066672-.09166713-.10875055-.0866671-.17000085.01916676-.23583452.04875024-.03000015.13083399-.09916716.18291758-.15375076.12291728-.12791731.48916911-.3920853.67083669-.48375242.14750074-.07458371.18250091-.12500063.0866671-.12500063-.12416729 0-.52250261.25916796-.82458746.53666935-.08875044.08208375-.21666775.1733342-.28375142.20291768-.15083408.066667-.44708556.09125046-.57875289.04791691-.09291713-.03083349-.26250131-.19083429-.26250131-.24791791 0-.01500007.03875019-.04833357.08583376-.07375037.04708357-.02500012.13166733-.08625043.18750094-.13500067.24166787-.21208439.69958683-.43041882 1.06292198-.5066692.11541724-.02416679.07291703-.08250041-.05583361-.07666705-.24958458.01083339-.74500373.24291788-1.04083854.48708577-.3466684.28583476-.86958768.25875129-1.03792186-.05375027-.02916681-.05375027-.04625023-.10416719-.03791685-.11208389.0079167-.00791671.11083388-.0387502.22875114-.06875035.12750064-.03208349.3800019-.13666735.62125311-.25708462.37958523-.18916761.49208579-.22958448.7533371-.27166802.11750058-.0187501.12375062-.07625038.00958338-.08958378-.14708407-.01750009-.37250186.05625028-.77083719.25208459-.51166922.25166793-.65500327.29500148-.92458796.27916806-.24583456-.01500007-.38458525-.07791705-.58416958-.266668-.13041732-.12375062-.31541825-.43791885-.27916807-.47416903.00875005-.00875005.06875035 0 .133334.01875009.07166703.02125011.27708472.03541684.52458596.03583351.34625173.00083334.43833553-.00833337.62291978-.06166697.30875155-.08916712.71917026-.29791816 1.000005-.50750254.53708602-.40166868.97500488-.56291948 1.533341-.56541949.51541925-.00208335.84333755.11708391 1.13375567.41166872.09833383.09958383.18208424.16416749.19583431.15041742.01291676-.01291673.02708346-.18708427.03125016-.38708527 0 0 .1516674-.01458341.1837509.02791681 0 .32458495.00375.35000175.0508336.35000175.0308335 0 .0637503-.03166683.0841671-.08083374.0441669-.10625053.207501-.25166793.3820852-.3400017.3770853-.19125096 1.0295885-.19708432 1.5537578-.01416674.2208344.07750039.4658357.21583441.6991702.39583531.2341678.1800009.7129202.42083544.9958383.50125251.2862514.08125041.7908373.10166718 1.0495886.04291688.1066672-.02416679.2066677-.04416689.2225011-.04416689.0954171 0-.0670837.31791826-.257918.50416919-.3487517.34083504-.802504.33916836-1.4408405-.00500002-.3979187-.21416774-.8737544-.33125166-.8737544-.21458441 0 .02416679.0250001.04041687.0620837.04041687.138334 0 .4054186.09291713.7779205.26958468.4029187.19166763.6291698.27250136.7633372.27250136.0975004 0 .1004171.06041697.0095833.19375097-.0962504.14208405-.2595846.21250106-.4904191.2120844-.2204177-.00083334-.3429184-.04916692-.5400027-.21291774-.329585-.27416803-1.1508391-.5800029-1.1191722-.41666875.00625.03250017.0458335.05250027.1304173.065417.2858347.04375022.6212531.20375102.9645881.46083564.1058339.07958373.2158344.15791745.2437513.1745842.0470835.02750014.0479169.03583351.0108333.1054172-.0616669.11500057-.2170844.20416768-.3854186.22166777-.2179177.02250011-.407502-.04250021-.603753-.2066677-.4141687-.3466684-.8045873-.59750299-.929588-.59750299-.1020838 0-.0562502.05625028.1237507.15166743.2366678.12541729.4800024.29500147.6591699.45958563.0845838.07833372.1800009.15583411.2116678.17291753.0750003.0400002.0720836.09875049-.0104168.2066677-.0841671.11000055-.2233344.15833413-.403752.13916736-.3600018-.03791685-.6408365-.21166772-1.0820887-.66958668-.1725009-.17875089-.3262517-.32500162-.3420851-.32500162-.0587503 0-.0241668.07958373.0895838.20708437.140834.15750078.1679175.24625123.1145839.37416853-.0470836.1133339-.1254173.13958403-.2862514.09625048-.1645842-.04458355-.1904176-.00416668-.0825004.13000065.1608341.20041767.137084.44583557-.0600003.61458641-.0612503.05208359-.1254173.09500048-.1429174.09500048-.0170834 0-.060417-.04458356-.0966672-.09916717-.1266673-.19250096-.2379178-.19125095-.36125176.00333335-.04291688.06791701-.07916707.12291728-.08041707.12250062-.00166668-.00041667-.05958363-.04208355-.12833398-.09291714z"/><path d="m10.4142162 3.50126751-.2636176.16916751-.23638236-.14458406v1.15583912l.49999996.00500002z"/><path d="m8.99546164 2.30209484c-.04250021.54625274-.1812509.92750464-.37416853 1.34792341l.46250231-.42875214.32166827.38208524.34833508-.38875194.35541843.32833497.3416684-.34166837.3550018.41541874.3083348-.34166838.5225026.37500188c-.1895842-.42041877-.4462522-.77667055-.4141687-1.36834018-.5062525.37625189-1.7091752.44416889-2.22709446.02041677z"/><path d="m9.91463291 2.02334345c-.18583427.0033656-.38166858.0058898-.55791946.0408079-.12208394.0244006-.23291783.0643671-.32541829.13041699.01500007.35885708 1.70834184.50862628 2.16251084.0067312-.0954172-.0702569-.2120844-.11190619-.3404184-.13714819-.1695842-.0332353-.3570851-.0366009-.5350027-.0395458 0 .0984438.0008334.19730829.0008334.29617279l-.40458539-.0012621z"/><path d="m10.4728734.20708437-.48990682.00208334v2.05751029l.50000002.00125001z"/><path d="m10.2454679.2600013-.1004172.98500492 1.0133384.49500248-.5129192-.68583676.7004202-.22708447zm-.1129172-.25666795c-.15375081 0-.26750138.05750029-.26750138.12583396 0 .06833368.11375057.12625063.26750138.12625063.1537507 0 .266668-.05791695.266668-.12625063 0-.06833367-.1129173-.12583396-.266668-.12583396z"/></g><g fill="#f7e017" transform="translate(14.6875 16.8125)"><path d="m4.9395625 6.68c.16625-.055.260875-.1558125.32875-.35.03375-.0966875.0566875-.1970625.050875-.2233125-.0141875-.062125-.085875-.05875-.165.0070625-.0541875.0454375-.060875.0683125-.0454375.1608125.0395625.233375-.0433125.29125-.485.33875-.04375.004625-.1704375-.002875-.2820625-.016625-.21-.02625-.285-.0054375-.20875.057875.022875.0191875.08125.045.1295625.057125.1179375.030375.5508125.01.6770625-.0316875zm.9154375-.03875c.025-.0229375.1108125-.0625.1908125-.0883125.1066875-.0341875.1616875-.070875.2066875-.1379375.1295625-.1929375.1054375-.3591875-.085-.5833125-.1033125-.1216875-.1491875-.118375-.2316875.016625-.07125.1166875-.0695625.1241875.0329375.150875.05375.01375.1054375.0533125.13375.1020625.1116875.1933125.07875.3129375-.0866875.3141875-.15.00125-.19125.0225-.231625.1195625-.02125.0504375-.038375.1041875-.038375.1195625 0 .040875.0566875.03375.1091875-.0133125zm-.3004375-.2183125c.028375-.0766875.038375-.214625.035-.495875-.0020625-.214125-.010375-.3958125-.01875-.404125-.025-.025-.1483125.0545625-.1645625.1058125-.0083125.0266875.0054375.0883125.0304375.1366875.0383125.0745625.0433125.144125.031625.43625-.015.369125.0091875.43125.08625.22125z"/><path d="m4.8495625 6.2470625c.015-.06875.0341875-.2095625.0429375-.3125.00875-.102875.03-.232875.0466875-.289125.0425-.1441875-.0004375-.182125-.1141875-.10125l-.0845625.060375.0175.207125c.01625.186625-.013375.5345625-.05625.6695625-.0116875.0358125.005.0266875.0520625-.0283125.0379375-.0441875.08125-.137125.0958125-.205875zm-.625375.1004375c.152125-.12725.134625-.344625.1683125-.5216875-.0035-.1176875.0751875-.25875.024375-.36175-.142125.026-.22975.160625-.157.29475.0060625.15575.0005625.3253125-.0795.4630625-.0654375.0900625-.272625.067625-.2630625-.06.052-.192-.178-.0985625-.26775-.04825-.069375.0483125-.2159375.051875-.165-.0690625-.033625-.1610625-.240875-.0603125-.3534375-.061-.1063125-.0019375-.00875-.2154375-.161375-.178-.2835625-.0223125-.596625.0025-.8420625-.16875-.14375-.069125-.122375-.241875-.0475625-.35375.0893125-.1526875.1148125-.34375.2565625-.4621875.140375-.134625-.132375-.0778125-.19375-.0324375-.1368125.074875-.00975.267625-.1216875.3745625-.065375.110875-.1515.264-.302875.242875-.218375-.04125-.3441875-.244375-.50075-.3805-.1340625-.02675-.0586875.2175625.0105625.2689375.137.1025625.2970625.1773125.462125.221625.164375-.02625.1696875.188875.3101875.222625.2578125.120125.545125.156125.826375.1708125.1105.0091875.048375.2059375.193625.1670625.081125.0210625.2644375-.0301875.273625.0640625-.123.146125.118125.1428125.207375.1166875.11425-.0175.26025-.061125.2904375.0955.095375.1005625.2705.0856875.386625.028125.0163125-.009375.0316875-.0205625.045625-.0333125z"/><path d="m1.7341875 5.08625c.04625-.05875.115375-.1775.15375-.2641875.037875-.0870625.095-.1858125.12625-.2195625.0733125-.0791875.0325-.1279375-.085875-.1016875-.0625.01375-.087875.0366875-.0983125.090875-.0354375.176625-.0995625.3575-.1566875.441625-.1033125.1525-.1058125.15875-.0633125.15875.0220625 0 .0779375-.0475.1241875-.1058125zm-1.560875-.9783125c-.116625 0-.121625.07375-.007875.1133125.055.0191875.101625.0654375.139125.1408125.110875.2204375.175875.259625.47.285l.18875.017125.0091875.1145625c.0045625.0633125.0195625.1158125.0341875.1158125.0145625 0 .0875-.031625.16125-.069125.1383125-.07.2695625-.233375.2695625-.334625 0-.06625-.1104375-.137875-.2108125-.137875-.044625 0-.129625.0358125-.1966875.0845625-.21.1520625-.4345625.12125-.5575-.0766875-.1008125-.1633125-.20625-.252875-.2991875-.252875zm1.0191875.40625c.0558125 0 .0695625.04125.0391875.12-.020875.054125-.08875.0558125-.1091875.0025-.0241875-.0629375.0095625-.1225.07-.1225zm7.905-.25625c-.07625.002875-.09875.0195625-.1470625.09125-.0791875.1175-.087125.3720625-.0141875.4620625.0454375.0558125.0520625.0570625.1483125.0170625.1341875-.05625.1566875-.054125.15625.0179375-.0008125.1841875-.265.5391875-.541625.7279375-.074625.0508125-.14125.1075-.148375.12625-.02.0525.0825.0408125.208375-.023375.171625-.0875.3970625-.3175.4895625-.49875.0733125-.1445625.08375-.19375.0925-.446625.0079375-.2329375.0016875-.30125-.0379375-.37875-.044125-.087125-.0583125-.095-.169125-.095-.013375 0-.0254375-.0004375-.0366875 0zm.0091875.1625c.0575 0 .0675.012875.074125.095375.005875.068375-.00625.11-.044125.1441875-.0516875.0466875-.055875.04625-.1016875-.0233125-.0641875-.098375-.0245625-.21625.0716875-.21625zm-1.265 1.7783125c.24375-.12.3875-.255.48-.4504375.04375-.092875.0795625-.180375.0795625-.195375 0-.03375-.12-.089625-.1920625-.089625-.0716875 0-.08625-.0495625-.0554375-.186625.03-.13375-.00625-.30125-.065-.30125-.02125 0-.05875.03125-.08375.069125-.0383125.05875-.0404375.08375-.0120625.1691875.041625.1266875.00875.22125-.104625.3020625-.05375.038375-.0833125.0825-.0833125.1254375 0 .03625.0045625.0658125.01.0658125.0058125 0 .065-.0308125.1316875-.067875l.121625-.0679375.0716875.05625c.0391875.0308125.0716875.08125.0716875.1120625 0 .148375-.4229375.3975-.713375.420875-.1545625.0125-.1808125.0070625-.2345625-.04625-.04375-.04375-.05625-.0804375-.0454375-.132125.008375-.0395625.023375-.111625.033375-.16.026625-.129125-.02875-.111625-.124625.0391875-.07875.1245625-.1020625.2575-.057875.3275.03625.0570625.2770625.1116875.4475.10125.1070625-.00625.212875-.03625.325-.09125zm1.626625-.9075c.153375-.1529375.218375-.3391875.2191875-.6270625l.0004375-.21625.126625-.06c.164625-.078375.3204375-.2341875.3204375-.320875 0-.089125-.0395625-.0845625-.11125.0125-.0520625.0704375-.1216875.1129375-.37625.23-.0641875.029625-.0683125.0454375-.0829375.314625-.0170625.310375-.059125.426625-.2325.63875-.10625.129125-.11.14625-.03625.14625.0304375 0 .1079375-.0529375.1725-.1179375zm-1.67-.17210549c.014625-.04559057-.07-.07789985-.106625-.0408655-.0154375.01570768-.019625.04297263-.0091875.06040432.0241875.03958845.1008125.02643487.1158125-.01953882zm2.3029375-.59647609c.015-.0454097-.07-.07759081-.10625-.04070338-.0158125.01609056-.02.04324734-.0095625.06060987.024125.0394314.1008125.0262664.1158125-.01990649zm-2.7716875-1.61516842c-.0595625.028375-.0904375.0926875-.131875.1418125-.02975.02025-.005875.0391875.01125.05825.105125.1131875.1495625.266125.1995.40875.0490625.1683125.1108125.3490625.0595625.5244375-.0201875.0671875-.0730625.13675-.1519375.114375-.12625-.0078125-.2505625-.0413125-.3771875-.04-.1126875.005875-.1998125.1084375-.315.09725-.0736875.004875-.0705625-.15075-.1389375-.109125-.033875.081125-.0171875.171625-.02125.2574375.01275.0123125.0485625.0015625.07.0051875h.226875c.0160625.0783125.0140625.168125.0703125.2304375.07875.028.1673125.0038125.2421875-.0268125.0801875-.0373125.0909375-.13375.113625-.2089375.024125-.08075.129875-.059625.19225-.0913125.15275-.0445625.2528125-.2033125.243875-.3594375-.009875-.2384375-.1008125-.46275-.169875-.688375-.0346875-.099375-.05875-.203125-.099-.3001875-.00475-.008375-.014375-.015375-.024375-.01375zm-.377875 1.3633125c.0848125-.0055.1216875.09875.10375.1679375-.03175.0939375-.1473125.03375-.170625-.034-.043-.0605-.0164375-.141875.066875-.1339375z"/><path d="m3.81 3.4883125c-.0379375-.0008125-.0804375.013375-.1225.0429375-.22125.155-.2779375.3383125-.1275.41.1104375.0529375.0825.115-.09125.2020625-.24875.1241875-.4683125.10875-.8854375-.06375-.1025-.0425-.129125-.02625-.105375.0675.022875.092125.1070625.1425.31625.19.225.0516875.4970625.035.6720625-.040375.0854375-.0366875.1866875-.11375.2720625-.2066875l.1354375-.14875.1575.0195625c.1941875.02375.1979375.025875.1979375.11875 0 .07375.004125.0754375.1825.092125.100375.0095625.2325.0183125.294125.0183125.07875.0004375.123375.0141875.149625.0508125.035.04875.0558125.05125.349125.025.2741875-.025.3279375-.022875.4516875.0191875.0879375.03.1845625.0420625.2579375.0341875.21-.02375.4995625-.1954375.541625-.3216875.005-.0154375.08125-.0425.1691875-.06.2120625-.0425.22125-.08875.0233125-.1133125-.0858125-.010875-.2145625-.042125-.28625-.0704375-.0720625-.0283125-.170375-.0520625-.21875-.0520625-.106625 0-.2070625.066625-.2070625.135375 0 .045.0158125.049625.1420625.0366875.11875-.0120625.153375-.0054375.215875.0441875.04125.0325.06875.0708125.06.0845625-.0279375.0454375-.275875.1583125-.3854375.1758125-.0733125.0116875-.1325.00375-.19-.0258125-.09625-.05-.2379375-.0575-.2645625-.0145625-.01125.01875-.0416875.006625-.083375-.0325l-.065-.06125-.1470625.06125c-.1495625.0620625-.2045625.0595625-.2045625-.0116875 0-.0325-.04375-.03625-.2641875-.0220625-.2429375.0158125-.2683125.011625-.31375-.0391875-.0420625-.0466875-.0429375-.0629375-.0129375-.1108125.0275-.0441875.0275-.063375.00125-.089625s-.060375-.0258125-.15625 0c-.241625.064625-.31.028375-.31-.160375 0-.113375-.065-.182125-.1483125-.183375zm-.06.173375c.0129375 0 .02375.007875.0404375.0245625.02125.02125.0325.0583125.0233125.0820625-.0216875.05625-.1241875.0541875-.1458125-.0025-.0104375-.0275.002875-.0583125.03375-.0808125.021625-.0158125.035375-.02375.0483125-.0233125z"/><path d="m3.3166875 3.8375c.1470625-.0933125.14375-.08625.165-.3454375.0145625-.182875.0120625-.196625-.0375-.196625-.072125 0-.109625.079125-.109625.23 0 .096625-.015.14-.066625.19125-.1225.1225-.4266875.066625-.465-.0854375-.0129375-.0520625.00375-.0991875.0675-.1895625.132875-.18875.102875-.235-.06-.0916875-.112125.0979375-.132125.1008125-.110875.01625.019625-.0779375-.02125-.10875-.1125-.0858125-.046625.011625-.0720625.0408125-.0833125.0975-.0108125.055375-.03625.08625-.0804375.0970625-.07375.01875-.1995625-.05125-.1995625-.1108125 0-.0441875.1883125-.2741875.43-.525.09125-.095.1658125-.183375.1658125-.1966875s-.04875-.0241875-.1083125-.0241875c-.0870625 0-.1083125.009625-.1083125.05 0 .0275-.1216875.187125-.270875.355-.3108125.35-.336625.4229375-.182875.51625.12375.075875.2825.07.4070625-.0145625l.1008125-.06875v.1245625c0 .1591875.0316875.21625.1566875.2825.1570625.0829375.3470625.0729375.5029375-.0258125zm6.5233125-2.1629375c-.1153125.068875-.0250625.2135-.007625.3095625-.0470625.1310625-.2155.166375-.33825.1906875-.173875.0288125-.297125.1743125-.36325.328875-.035875.100375-.122375.256-.216625.1031875-.082-.0830625-.232625-.148875-.3295-.051875-.073625.07-.0923125.173125-.11975.26675-.0434375-.0719375-.0629375-.1790625-.155-.2018125-.147.0206875-.093875.206-.02475.2824375.0628125.0890625.123125.2065625.0615625.312375-.05425.127125-.2420625.212875-.3523125.104125-.1030625-.054375-.034125-.2485-.135625-.2591875-.050125.03625-.0543125.239375-.1345625.12925-.0579375-.094125-.02725-.223-.098125-.3076875-.08375.0104375-.151125.1546875-.12325.232125.11175.15075.1576875.3398125.20125.5194375.0271875.0719375-.0039375.2178125.063375.24625.046625-.11575.0033125-.2470625.04-.3639375.109125-.01375.2304375.0360625.344875.009625.1636875-.02125.2901875-.159375.3475625-.3065.017375-.110625-.0033125-.2228125-.006375-.334.129375.02.2636875.019625.388125.061625.061625.0945625-.019625.227-.0366875.330375-.0649375.2105-.2298125.3633125-.39025.5040625-.0670625.0396875-.0760625.144875.023.08825.2155625-.0921875.37625-.2874375.4686875-.49875.0674375-.1625625.0131875-.343625.05725-.509875.0650625-.124875.22175-.0985625.337625-.098125.12-.004625.222375-.144375.1823125-.2609375-.0381875-.1353125.1049375-.2005.20275-.2488125.129625-.0654375.2290625-.1983125.2190625-.34825-.005375-.0766875-.0015625-.2221875-.1055-.2291875zm-.459625.78125c.138875.036875-.025125.3021875-.0989375.134125-.02275-.064125.03125-.1364375.0989375-.134125zm-.6445625.19c.18075-.0105625.1158125.253375-.036875.1335625-.0791875-.03975-.053-.1384375.036875-.1335625zm-6.54258173 1.02c.00507923-.02625-.0085077-.045-.03263401-.045-.05117319 0-.08209297.0441875-.05796665.0825.02495169.039625.07999778.017125.09060066-.0375zm2.11676923-.236625c0-.03875-.0145625-.053375-.0470625-.047125-.070875.013375-.07875.103375-.0091875.103375.03875 0 .05625-.0175.05625-.05625zm-2.62125-1.2716875c-.0845625-.017375-.13775.0541875-.1666875.122375-.0631875.10625-.1404375.215-.253875.27125-.0815625.0226875-.1705625-.008375-.240875-.0504375-.0839375-.0418125-.064875-.14275-.100875-.2125-.0606875-.0476875-.168375.0205-.1659375.094625-.00675.099375.08625.156875.1635.19525.065625.0401875.16075.0625625.1869375.143875-.0018125.069125.026.14825.110125.1215625.0941875-.0015625.1185625.113125.0805625.1819375-.03875.0775625-.064875.1684375-.0463125.2548125.045.037875.0909375-.06375.1235-.09275l.0664375-.0885625c.166625.009.3330625.03025.5.024375.1188125-.0021875.22-.0755.2955-.1615.1068125-.1116875.1945625-.242875.3165625-.33925.0868125-.02125.040125-.18475-.0505625-.1375-.0816875.030625-.107375.1229375-.164.1818125-.0964375.11675-.194875.23525-.3164375.3268125-.0885.0366875-.1904375.020625-.281375 0-.0379375-.0331875.075375-.06025.0911875-.097125.052125-.052125.1140625-.1015625.1443125-.17-.0289375-.063125-.117375-.06825-.1796875-.0695625-.1535625.0184375-.270875.147375-.426.1595-.1176875.004125-.0564375-.123375-.003375-.166875.1038125-.12325.216-.239375.324375-.358625.0308125-.037.1420625-.072125.070875-.124125-.024875-.009-.05175-.009-.077875-.009375zm.0755.62375c.0775.0435-.049375.1148125-.1028125.1050625-.070125.021-.071375-.0504375-.009125-.0646875.035-.01825.072-.03725.1119375-.0404375zm-.23825.16269011c.0440625-.00099664.1364375.05098169.0496875.08417728-.060375.05749815-.128625-.05841811-.0496875-.08417728z"/><path d="m3.4020625 3.05526544c0-.06399921-.105375-.05494401-.1170625.0099403-.0075.04180374.0045625.05174404.05375.04405052.035-.00544674.0633125-.02948049.0633125-.05399082zm4.66875-.41695294c.010875-.05625-.0675-.09375-.10875-.0525s-.0033125.119625.0525.10875c.025875-.005.05125-.030375.05625-.05625zm-7.2658125-.5720625c.0733125-.0629375.0741875-.0670625.0425-.2054375-.045-.19375-.0420625-.2145625.0316875-.232875.0933125-.02375.330375.1033125.382875.205.040875.07875.039625.084125-.0295625.1483125-.0745625.06875-.0741875.1491875.0004375.1491875.061625 0 .2320625-.16125.2320625-.2191875 0-.0804375-.1891875-.2704375-.33875-.34-.0925-.0433125-.185-.0633125-.2920625-.06375-.1916875 0-.2175.04125-.165875.2641875.060875.26125-.021625.296625-.2320625.0995625-.15625-.14625-.2179375-.2983125-.2170625-.5379375.000375-.2570625.09875-.384125.320375-.414125.147125-.019625.143375-.0541875-.007875-.0766875-.220875-.0333125-.4075.1141875-.478375.3775-.07875.2920625.1016875.6479375.420875.83125.1670625.0958125.23375.09875.3308125.015zm8.7016875-.3204375c.017875-.017875.0325-.0583125.0325-.0895625s.030375-.0983125.0675-.14875c.0375-.0504375.067875-.1020625.067875-.1145625 0-.05125-.0845625-.049625-.15125.0033125-.0683125.0533125-.1195625.0545625-.1195625.0025 0-.0129375.0325-.0395625.0725-.0591875.0991875-.0483125.1075-.09625.02375-.1345625-.1075-.04875-.2154375.0404375-.2266875.1875-.0070625.0983125.000875.1154375.0766875.16.0691875.0408125.0820625.0625.0704375.1208125-.02.10125.0220625.1366875.08625.0725zm.817875-.0925c.06-.05375.10875-.115.10875-.135375 0-.0204375.0516875-.074625.115-.12.179625-.1291875.2191875-.259625.13875-.46-.03125-.07875-.1295625-.1875-.3433125-.38-.1641875-.148375-.3154375-.269625-.335-.269625-.0583125 0-.0479375.214625.01125.233375.1066875.034125.17125.077875.3391875.229125.195.17625.285.340875.2358125.4325-.0470625.08875-.1095625.06125-.2816875-.1233125-.090375-.0970625-.18-.17625-.1983125-.17625-.02.0004375-.0341875.0354375-.0341875.0845625 0 .0616875.0329375.1204375.122125.219625.145375.161625.1595625.25875.050375.3445625-.039125.0308125-.0795625.05625-.0895625.05625-.0095625 0-.0416875-.0483125-.0708125-.1070625-.060875-.123375-.4329375-.51625-.48875-.51625-.0254375 0-.0379375.031625-.0379375.094125 0 .0754375.015.102125.075.1329375.07375.0383125.25625.2220625.4395625.44375.0525.0633125.1041875.1145625.1154375.115.0108125 0 .06875-.0441875.1283125-.0979375zm.365-1.0445625c-.024125-.0779375-.5233125-.5916875-.5745625-.5916875-.0266875 0-.035.0316875-.02875.113375.0070625.099125.0179375.11625.08625.134125.0425.01125.1741875.114625.2920625.2291875.1175.1145625.220875.2016875.2291875.1929375.0083125-.008375.0066875-.043375-.0041875-.0779375zm-2.98125 5.7825c0 .03755536-.03321488.068-.0741875.068s-.0741875-.03044464-.0741875-.068.03321488-.068.0741875-.068.0741875.03044464.0741875.068zm.262125-.0875c0 .03755536-.03321488.068-.0741875.068s-.0741875-.03044464-.0741875-.068.03321488-.068.0741875-.068.0741875.03044464.0741875.068z"/></g></g></g></g></svg>