<svg height="48" viewBox="0 0 48 48" width="48" xmlns="http://www.w3.org/2000/svg" xmlns:xlink="http://www.w3.org/1999/xlink"><defs><rect id="a" height="30" rx="4" width="40" x="4" y="9"/><mask id="b" fill="#fff"><use fill="#fff" fill-rule="evenodd" xlink:href="#a"/></mask></defs><g fill="none" fill-rule="evenodd"><path d="m0 0h48v48h-48z"/><use fill="#d8d8d8" xlink:href="#a"/><g mask="url(#b)"><g transform="translate(4 9)"><path d="m0 0h40v30h-40z" fill="#229e45" fill-rule="evenodd"/><path d="m20.087875 27.2459375 18.8426875-12.229375-18.95675-12.2625-18.9044375 12.2918125 19.0185 12.2z" fill="#f8e509" fill-rule="evenodd"/><path d="m28.298125 15.0003125c0 4.3955-3.5689375 7.95875-7.9715 7.95875-4.402625 0-7.9715-3.56325-7.9715-7.95875s3.569-7.95875 7.9715-7.95875c4.402625 0 7.9715625 3.56325 7.9715625 7.95875z" fill="#2b49a3" fill-rule="evenodd"/><path d="m17.70625 19.767125-.2464375-.142125-.2558125.1265625.0573125-.284375-.197625-.20825.2825-.033125.13275-.255.118375.26375.27875.050625-.2090625.195625m5.381125 1.639-.24625-.142125-.25575.1265625.05725-.284375-.1975-.20825.2825-.033125.132625-.255.118375.26375.27875.050625-.2090625.195625m-2.2634375-1.8745625-.21275-.12275-.221.10925.0495-.245625-.170625-.18.244-.0285625.114625-.2201875.10225.2278125.2408125.04375-.180625.1690625m5.4290625-.5298125-.208875-.1205-.217.107375.0485625-.241125-.1675-.1766875.2395625-.028125.1125-.21625.1004375.22375.2364375.042875-.1773125.1660625m-5.4595625-1.374875-.24625-.1420625-.2558125.1265625.05725-.284375-.197625-.20825.282625-.033125.1326875-.255.118375.26375.27875.050625-.209125.195625m-6.538375-2.183125-.24625-.142125-.255875.1265625.05725-.28425-.1975-.2083125.2825-.033125.132625-.255.118375.26375.27875.050625-.2090625.195625m.8301875 3.57125-.24625-.1421875-.255875.1265625.05725-.28425-.1975-.208375.2825-.033125.1326875-.255.118375.26375.27875.050625-.2090625.19575m8.247125-4.208125-.2175-.1254375-.226.11175.050625-.2510625-.174625-.184.249625-.029375.1171875-.2251875.1045625.233.24625.0446875-.1846875.172875m-.4165625 2.39-.17125-.098875-.178125.088.04-.19775-.1375-.145.1965625-.023.0923125-.177375.082375.1835.1939375.0351875-.1454375.13625m-8.8874375 3.151375-.164375-.094875-.170875.0845.038125-.1898125-.131875-.1390625.18875-.022125.0885-.1701875.079.176125.186125.03375-.1395625.130625m12.50875.94775-.134-.0709375-.1391875.063125.03125-.141875-.1075-.104125.15375-.0165625.072125-.127375.064375.13175.151625.02525-.11375.0976875" fill="#ffffef" fill-rule="evenodd"/><path d="m13.7039375 17.9751875-.164375-.094875-.170875.0845.038125-.1898125-.131875-.1390625.18875-.022125.0885-.1701875.079.176125.186125.03375-.1395625.130625" fill="#ffffef" fill-rule="evenodd"/><path d="m13.7039375 17.9751875-.164375-.094875-.170875.0845.038125-.1898125-.131875-.1390625.18875-.022125.0885-.1701875.079.176125.186125.03375-.1395625.130625m2.6436875.1905-.164375-.095-.1708125.0845625.038125-.1898125-.131875-.1390625.18875-.022125.0885-.170125.0790625.1760625.186125.03375-.1395625.130625m-.299125 1.0618125-.164375-.094875-.170875.0845.03825-.189875-.131875-.1390625.1885625-.022125.0885625-.17025.0790625.1760625.1860625.03375-.1395625.130625m5.4613125-1.3938125-.164375-.095-.1708125.0845625.038125-.18975-.131875-.1390625.188625-.0220625.0885625-.17025.0790625.1760625.1860625.03375-.1395625.130625m-1.5686875.1905-.164375-.094875-.170875.0845.03825-.1898125-.131875-.1390625.188625-.0220625.0885625-.17025.079.1760625.18625.03375-.139625.130625m-4.3-.364875-.103-.0595-.107125.0529375.024-.118875-.0826875-.087125.118125-.013875.055625-.106625.0495.1103125.1165.02125-.0875.081875m10.489875 2.8365-.164375-.094875-.1708125.084375.03825-.1896875-.131875-.139125.1885625-.022125.0885625-.17025.079.1760625.186125.03375-.1395625.130625m-1.302.36525-.136125-.07875-.1415.070125.0316875-.157625-.10925-.1155.15625-.018375.073375-.141375.0655.14625.154125.028125-.115625.1084375m.6481875.1435625-.126875-.0733125-.13175.06525.0295-.1465-.101875-.107375.145625-.017125.0683125-.1314375.061.1360625.1435.0260625-.1076875.1009375m1.819375-1.4225625-.1221875-.070625-.126875.062875.028375-.1410625-.0979375-.1034375.1401875-.016375.0658125-.1265.05875.13075.138125.025125-.103625.0970625m-2.422 2.6134375-.159625-.0871875-.16575.0775.037125-.174125-.128125-.1276875.183125-.0203125.086-.15625.0766875.161625.180625.031-.1354375.12m.0343125.8904375-.145625-.0871875-.151125.0775.033875-.174125-.116875-.12775.1670625-.02025.0784375-.15625.07.161625.1646875.031-.1235625.119875m-1.1830625-1.4409375-.1221875-.070625-.127.062875.0284375-.1410625-.098-.1033125.140125-.0164375.065875-.1265625.05875.1308125.1383125.025125-.10375.097125m-1.1113125.1420625-.122125-.070625-.126875.062875.028375-.1410625-.098125-.1033125.14025-.0164375.0658125-.1265625.05875.1308125.138125.025125-.103625.097125m-1.9005-1.536875-.1221875-.0705-.126875.06275.028375-.1410625-.098-.103375.1401875-.0165.0658125-.1265.05875.130875.13825.025125-.10375.0970625m.233375 3.564-.1035-.05975-.1075.053125.024125-.119375-.083125-.0875.11875-.0139375.0558125-.1071875.0496875.11075.117125.02125-.0879375.08225m-2.8831875-5.414375-.246375-.142125-.2558125.1265625.0573125-.28425-.197625-.208375.2825-.033125.13275-.255.118375.26375.27875.050625-.2090625.19575" fill="#ffffef" fill-rule="evenodd"/><path d="m27.773 17.8635625c.1215-.3176875.278125-.796875.3614375-1.236625-4.233875-3.71925-8.95375-5.6245625-14.9175-5.2325-.213875.409875-.385.8389375-.529375 1.3033125 7.0664375-.674125 12.246 2.454375 15.085625 5.165875z" fill="#fff" fill-rule="evenodd"/><g fill-rule="nonzero"><path d="m25.869625 15.7725.15125.0826875c-.02375.053625-.03.100625-.019375.140625.01125.0403125.0390625.0755.0834375.1055.046875.0321875.089.04625.126.0425.0375-.00375.0653125-.019125.0834375-.045875.0110538-.015688.0160496-.0348495.0140625-.0539375-.0016875-.01875-.012-.04125-.0309375-.0671875-.013125-.0175-.045-.0545625-.095625-.1110625-.065-.0725-.10375-.133625-.11625-.1835-.0175-.070125-.006875-.13375.031875-.19125.025-.036875.0585-.064375.10075-.082375.042875-.018125.0895625-.0221875.14-.012375.050625.0098125.104.03375.159375.0714375.0908125.0616875.145625.128.164375.199.0190625.071125.0073125.1408125-.0353125.2090625l-.15025-.09275c.01875-.0415625.0234375-.0775.013625-.1076875-.0091875-.0303125-.034375-.059375-.075625-.0873125-.04225-.02875-.081375-.042625-.117125-.0414375-.021672-.0000803-.0418701.0109626-.0535.02925-.011625.0173125-.01425.036875-.008125.0589375.008125.028125.04175.0745625.1015625.139625.0595625.065.10025.118125.121875.1591875.0221875.0410625.03225.08375.030125.128125-.0014375.044125-.01775.0891875-.048625.135-.0278738.0414543-.0672299.0738818-.11325.0933125-.0475.020625-.098125.02575-.1523125.015-.05375-.0110625-.112125-.0379375-.174875-.080625-.091375-.062-.1475-.1308125-.1679375-.20625-.020125-.0758125-.0078125-.1576875.0375-.2453125zm-.717375-.4708125.1545.07625c-.0215625.0545-.0260625.10175-.01375.14125.013.0398125.042.0739375.0875.1021875.0484375.030125.0909375.0425.1276875.03725.0375-.005375.0648125-.021625.081625-.049125.0104992-.0160526.014726-.0354068.011875-.054375-.002375-.018875-.013625-.0409375-.03375-.066125-.01375-.017-.046875-.0525-.0998125-.1070625-.0679375-.0698125-.109125-.129375-.123625-.17875-.0201875-.069375-.012125-.1333125.0240625-.1923125.0233461-.037683.0572504-.0676753.0975-.08625.042125-.01975.08875-.0258125.139375-.018125.051125.0079375.1053125.0295625.1621875.065.09325.057875.1505.122.1720625.192125.021875.070375.013125.1404375-.0266875.2103125l-.154-.0865625c.0171875-.04225.0204375-.07825.009375-.108-.0105-.030125-.036875-.058125-.079-.084375-.0435625-.0270625-.083125-.03925-.11875-.036625-.023125.0015625-.0404375.0121875-.052375.0315-.01075.017625-.01275.037125-.005625.059.0090625.0276875.044625.0728125.106875.1355.062125.0625.105.113875.12825.1540625.02375.04.0355.082375.0351875.1266875.0004375.04425-.0141875.0898125-.043125.1370625-.0263058.0424336-.0642779.0763915-.109375.0978125-.046625.0225-.09725.029625-.1516875.021-.0540625-.00875-.1134375-.0335-.178-.0734375-.093625-.0583125-.152375-.12475-.1759375-.199375-.023375-.075-.014375-.157125.027375-.2464375zm-.887875-.2379375.45475-.747875.5523125.3385-.076875.126625-.401875-.246375-.1009375.16575.3739375.22925-.0765625.1259375-.374-.2291875-.1235625.2035.4160625.255-.07675.1260625-.5664375-.3473125zm-1.29325-1.0620625.0675-.13125.3375.17475-.159125.310125c-.049375.014875-.11125.0185-.186375.010625-.0723351-.0074708-.1426419-.0283699-.2073125-.061625-.08125-.0420625-.143125-.0955-.186-.16075-.0423734-.064192-.0636546-.1400089-.060875-.216875.0027213-.0807517.0235917-.1598541.0610625-.2314375.0415-.081125.095625-.144375.161875-.19.0660625-.0454375.140625-.068125.223125-.068125.063-.000125.1315.019125.205625.05725.096375.05.1610625.1091875.194.177875.03375.0685.039875.1425.018625.2221875l-.1705-.05125c.00875-.043875.0035625-.08475-.015625-.1223125-.0185-.037875-.050375-.0684375-.0954375-.091875-.0685625-.0354375-.134125-.041875-.1971875-.0190625-.0625.0226875-.115625.076875-.159625.1625-.0475.0925-.0628125.1725-.045625.240125.0173125.0670625.059.117875.1255.1523125.03275.016875.06875.0275.108125.0316875.04.004125.07625.003125.1095625-.003125l.050625-.098875-.1795-.0928125zm-5.640125-1.3986875.127125-.8666875.26075.03875.0701875.614125.24125-.5683125.26175.038625-.1270625.866875-.161875-.023875.1-.682375-.2714375.657-.1678125-.024875-.070875-.7075-.1.6821875-.162-.023875zm-.88175-.102375.0815625-.8725.6441875.060875-.0135625.1475-.4689375-.044125-.018125.1934375.436125.0410625-.01375.147-.43625-.041125-.0220625.2375.48525.045625-.01375.147125-.66075-.062375z" fill="#309e3a"/><g fill="none" transform="translate(13.5 11.5)"><path d="m.03125.455c.0025-.089375.01775-.16375.046-.22375.02093912-.04386805.04941243-.08372222.084125-.11775.035375-.0345.07375-.05975.11525-.075625.055-.0216875.118-.0315625.1889375-.0296875.1285.00375.230125.0465.3048125.1285625.0753125.0821875.1109375.194625.107125.3371875-.00375.14125-.045.2510625-.123875.329-.07875.0775-.182125.114625-.3101875.1110625-.1298125-.0035-.23175-.046-.30625-.1273125-.074375-.08175-.1096875-.192375-.105875-.3316875z" fill="#309e3a"/><path d="m.21338304.45325c-.00278119.099125.01875685.175.06448476.2276875.04579258.0523125.10510304.079375.17773733.08125.07256961.001875.13291492-.021875.18071255-.071125.04818571-.0498125.07373383-.1254375.0765797-.2270625.00278119-.1003125-.01791603-.1758125-.06209165-.226375-.04372286-.050625-.10316268-.076875-.17831944-.078875-.07515676-.001875-.13647226.0215625-.18388181.0705-.04740956.0485625-.07244025.12325-.07522144.224z" fill="#f7ffff"/></g><g fill="none" transform="translate(14.5625 11.5)"><path d="m.00325.906875.0101875-.8760625.3708125.004375c.093375.001125.160875.0098125.20275.02625.0423125.0160625.075875.044375.1008125.085s.0370625.0865625.0365.1384375c-.0008125.06575-.02075.119875-.05975.162375-.0389375.0421875-.096875.0684375-.1735625.07875.0378125.0226875.069.0475.093125.0745625.0248125.026875.0576875.0746875.0990625.1433125l.1045625.172125-.21075-.0025-.125125-.192125c-.044375-.068625-.074875-.11175-.09125-.1295-.0165625-.018125-.0340625-.0304375-.052625-.0370625-.0185625-.006875-.048125-.010625-.088625-.0110625l-.035625-.0005-.00425.36575-.17625-.0020625z" fill="#309e3a"/><path d="m.186.67734604.1824034.00334813c.11830863.00223209.19219687-.00418516.22175216-.01980978.02946786-.01562461.05272735-.04254917.0696036-.0814712.01687625-.03892204.02562042-.08746995.02623251-.14620176.00034977-.06584659-.01031812-.11899819-.03235343-.15931528-.02124833-.04129362-.05194037-.06779967-.09181379-.07909961-.02011159-.00474319-.08000916-.00837033-.17986759-.0100444l-.19237175-.00362714-.00349767.49594203z" fill="#fff"/></g><g fill="none" transform="translate(15.5 11.5625)"><path d="m.0626875.01175.3216875.01625c.0725.00375.1275.0121875.165.0253125.04946095.0171705.09340652.04730214.12725.08725.0345625.040375.059875.089125.076125.14625.01625.0566875.02225.1259375.018125.207875-.003625.0720625-.01575.133625-.03625.185-.025.0625-.058625.1123125-.101125.14975-.031875.0283125-.074375.049375-.127125.0635-.0395.010375-.09175.013875-.156875.010625l-.3309375-.016875.044125-.875z" fill="#309e3a"/><path d="m.23999481.1678125-.03761981.579625.169048.0065625c.063182.002625.10908138.0015625.13745701-.002875.03697674-.0058125.06832658-.01675.09324569-.032875.02572295-.01625.04742669-.0434375.06511121-.081875.01792568-.03875.02893832-.091875.03343984-.1595625.00450151-.0676875 0-.119875-.01286148-.1566875-.01286147-.036875-.03247522-.0658125-.05868047-.0873125-.02628564-.021375-.06028817-.0364375-.10208796-.04525-.03134984-.006875-.09300453-.0120625-.185366-.015625l-.10160564-.0041875z" fill="#fff"/></g><g fill="none" transform="translate(19.8125 12.25)"><path d="m.039375.88875.20375-.851875.275.06625c.104125.025125.1710625.04575.200625.061875.045625.0245.079625.06225.102125.113125.0225.050625.025625.1096875.0095.1775-.0125.05225-.032375.094-.059875.125-.027375.03125-.05825.053375-.0925.066875-.03375.01325-.0665.019375-.098125.01875-.0428125-.00175-.103125-.011875-.180625-.030625l-.111625-.027-.076875.321375-.1714375-.04125z" fill="#309e3a"/><path d="m.40882073.222-.08632073.42480086.1398284.03975644c.10086289.02855435.16965847.03997609.2067596.03382592.07284734-.01065248.13198714-.0744658.14737914-.15902576.01118627-.05447291.00680498-.10323496-.01305065-.14606648-.01958491-.04293342-.05107253-.07665764-.08921052-.09554725-.02908431-.01570489-.08949018-.0364617-.18177693-.06259992l-.12342187-.03514381z" fill="#fff"/></g><g fill="none" transform="translate(20.625 12.5)"><path d="m.037875.881625.29-.82625.349875.12375c.088.031125.1491875.06125.1835625.0903125.035.0289375.0576875.0665.0683125.1129375s.0075.0940625-.00975.142875c-.02175.062-.058.106875-.1085.1345625-.050375.027375-.1135625.0335625-.1895.018625.0285625.03375.050125.06725.064375.100625.014875.0335.030625.089375.0478125.1676875l.044.196875-.19875-.070375-.0570625-.22225c-.020125-.079375-.035125-.13-.045-.1521875-.009875-.0225-.0225-.039875-.0379375-.052125-.015375-.012625-.0420625-.025625-.080375-.0391875l-.0335-.012-.121125.345-.16625-.058875z" fill="#309e3a"/><path d="m.37114456.60885024.16140997.07341784c.10470723.047748.17150322.07183328.20063415.07215019.02913093.00052819.0549795-.00982426.0773816-.03116297.02232004-.02112743.03922418-.05281859.05054832-.09465091.01271914-.04700855.01329355-.08926342.001395-.12676461-.01107796-.03802939-.03348005-.06866417-.06671393-.09253817-.01690415-.01119755-.06950394-.03697302-.15788144-.07711515l-.17027234-.07774896-.09658339.35451838z" fill="#fff"/></g><g fill="none" transform="translate(21.625 13)"><path d="m.063125.35c.0265-.0851875.061375-.15275.1045625-.2025.03200807-.03665616.07026809-.06734036.113-.090625.0435-.0235625.0873125-.037375.131375-.0415625.05875-.0058125.1220625.001875.189875.023125.1228125.038375.209.1073125.25875.20675.0501875.0995625.0541875.2175.011875.353625-.041875.135125-.11125.229375-.208125.283-.09675.05325-.206375.060625-.32875.0223125-.123875-.03875-.210625-.107375-.26025-.205875-.0495625-.0989375-.053625-.215-.01225-.348125z" fill="#309e3a"/><path d="m.239125.3990625c-.029375.094625-.03.1733125-.001625.236125.0284375.06225.07625.1039375.1433125.125.0670625.020875.129375.0139375.18725-.021.05825-.035125.1025-.10125.132625-.19825.02975-.0959375.0309375-.1739375.0035-.234375-.027-.060125-.07525-.101125-.1445625-.12275-.069375-.0216875-.1326875-.0151875-.19.0195-.0571875.03425-.100625.0995-.130625.1958125z" fill="#fff"/></g><g fill="none" transform="translate(23.375 13.75)"><path d="m.0190625.82.4009375-.778125.329375.171c.082875.043125.139375.08125.169375.115.030625.03325.048.07375.0521875.12125s-.00575.0940625-.029375.140125c-.03.058375-.0720625.09775-.1260625.11825-.05375.020125-.117.0175-.1901875-.008.023625.037375.0403125.07375.05.10875.009875.03525.018.09275.0241875.1726875l.016375.2009375-.1870625-.0971875-.0259375-.228c-.0090625-.0815-.016875-.13375-.023625-.157-.0065625-.0235625-.016875-.042625-.0304375-.056875-.013375-.0145625-.038125-.03125-.074125-.049875l-.0316875-.0165-.1673125.3248125-.1565625-.08125z" fill="#309e3a"/><path d="m.40647599.56045538.15147173.09326676c.09809286.06059431.16160799.09326676.19046364.0985021.02861042.00523535.05517724 0 .07953696-.01570604.02419624-.01551214.04414179-.04149498.05991839-.07785157.01765672-.04071937.02256136-.07891803.01504091-.11498376-.00711173-.03625963-.02574938-.06805953-.05599468-.09501188-.01553137-.01299142-.0645778-.04508216-.14779324-.09627223l-.15956439-.09821126-.13324281.30636483z" fill="#fff"/></g><g fill="none" transform="translate(26.5 15.9375)"><path d="m.1316875.2315c.0498125-.0739375.102625-.1285.1585-.16375.04119439-.02570183.0865977-.04393932.134125-.053875.04523775-.00992499.09202431-.01052045.1375-.00175.058125.0115.1165.03725.1753125.0771875.1065.07225.16925.16325.188375.272875.019375.109875-.0108125.22375-.0905.342-.0789375.1170625-.172375.187375-.2805.210625-.108.0228125-.215-.00175-.32125-.073875-.107375-.073-.17075-.163875-.19-.272625-.0189375-.109125.0105-.2214375.0883125-.336875z" fill="#309e3a"/><path d="m.286125.328375c-.055375.08225-.0785.157375-.0695.225625.009375.0679375.043125.1215625.10125.161125.05825.0395.12.0509375.1854375.034375.0659375-.016875.1273125-.0673125.184-.1515625.056-.083125.0795625-.1575.070625-.22325-.008625-.0654375-.043-.118625-.103125-.1595s-.122625-.053125-.1875-.0364375c-.0645625.01625-.124875.06625-.18125.149625z" fill="#fff"/></g><path d="m18.864 12.7826875.1405-.615.45425.1046875-.023625.103875-.3304375-.0760625-.0315.13625.307875.071-.023875.1034375-.307375-.07075-.038375.1673125.3421875.07875-.023625.10375-.466-.1073125z" fill="#309e3a"/></g></g></g></g></svg>