<svg height="48" viewBox="0 0 48 48" width="48" xmlns="http://www.w3.org/2000/svg" xmlns:xlink="http://www.w3.org/1999/xlink"><defs><path id="a" d="m8 9h32c2.209139 0 4 1.790861 4 4v22c0 2.209139-1.790861 4-4 4h-32c-2.209139 0-4-1.790861-4-4v-22c0-2.209139 1.790861-4 4-4z"/><mask id="b" fill="#fff"><use fill="#fff" fill-rule="evenodd" xlink:href="#a"/></mask></defs><g fill="none" fill-rule="evenodd"><path d="m0 0h48v48h-48z"/><use fill="#d8d8d8" xlink:href="#a"/><g fill-rule="nonzero" mask="url(#b)"><g transform="translate(4 9)"><path d="m40 30h-40v-30h40z" fill="#fff"/><path d="m40 21.25h-40v-12.5h40z" fill="#ffe900"/><path d="m40 30h-40v-10.0027191h40zm0-19.9972809h-40v-10.0027191h40z" fill="#08ced6"/><path d="m.06815969 0c.13588165 0 24.49434031 14.8259599 24.49434031 14.8259599l-24.5625 15.1740401.06797209-30z" fill="#000"/></g></g></g></svg>