<svg height="48" viewBox="0 0 48 48" width="48" xmlns="http://www.w3.org/2000/svg" xmlns:xlink="http://www.w3.org/1999/xlink"><defs><path id="a" d="m8 9h32c2.209139 0 4 1.790861 4 4v22c0 2.209139-1.790861 4-4 4h-32c-2.209139 0-4-1.790861-4-4v-22c0-2.209139 1.790861-4 4-4z"/><mask id="b" fill="#fff"><use fill="#fff" fill-rule="evenodd" xlink:href="#a"/></mask></defs><g fill="none" fill-rule="evenodd"><path d="m0 0h48v48h-48z"/><use fill="#d8d8d8" xlink:href="#a"/><g mask="url(#b)"><g transform="translate(4 9)"><path d="m0 0h40v30h-40z" fill="#ffd520" fill-rule="nonzero"/><path d="m0 30h40v-30z" fill="#ff4e12" fill-rule="nonzero"/><g fill="none" fill-rule="evenodd" transform="translate(3.875 3.6875)"><g stroke="#000" stroke-width=".1"><g fill="#fff" fill-rule="nonzero" transform="translate(0 4.375)"><path d="m17.712 1.317c-.249375-.0885625-.4104375.04025-.4023125.3621875.0079375.322.177125.507125.4265.386375z"/><path d="m17.931.714c-.2076875-.164-.4014375-.0936875-.4973125.21375-.0958125.3075.0048125.537125.2798125.5029375l.2175-.716625z"/><path d="m18.277.1305c-.1789375-.19525-.3814375-.156875-.525375.13125-.14375.288125-.08125.530875.1958125.54125zm-.227 2.8365c-.3058125.1126875-.338125.53125-.1448125.78875.193125.257625.5473125.305875.7404375 0l-.5955-.7889375z"/><path d="m17.696 2.0815c-.2898125-.0965625-.550875.292625-.595625.643875-.05625.4426875-.6841875.5875625-.3379375 1.255625.0723125-.4265625.3541875-.66.579375-.6760625.2254375-.0160625.5635625-.064375.708375-.3380625zm.9175 1.7225c-.338125.0805-.3864375.53125-.145.8531875.2066875.275625.853125.2093125.837125-.064375l-.692125-.78875zm.958 2.7125c.0160625-.28975-.450625-.4024375-.6760625-.346125-.225375.056375-.6560625-.008-.756625-.2495-.0804375.1931875.03625.4025.36225.507125.2466875.0791875.2415.2575.169.3380625.1851875.0321875.7325.0321875.9014375-.2495625z"/><path d="m19.306 4.6655c-.33-.144875-.525625.0758125-.651875.28975-.18525.3139375-.7566875-.0885-.9498125.33.261625-.1126875.527875.127625.651875.2093125.3541875.233375 1.038375.1609375 1.135-.386375z"/><path d="m19.499 5.0515c-.33.2495-.45875.5473125-.450625.7485625s.2898125.643875.595625.6680625c.177125-.36225.265625-1.126875-.145-1.416625zm-1.368 1.5535c0-.12075.1770625-.169.2976875-.12875.120875.0401875.305875.1609375.2415.28975zm-1.8195-.66c-.0320625-.144875.20125-.394375.5151875-.2575625.31375.136875.3541875.4025.22525.507125z"/><path d="m17.076 6.2105c-.0241875-.0805.201875-.24125.5876875-.144875.38625.0965625.4810625.3453125.466875.53925zm-.8045-.2655c.20125-.1529375.125-.44275-.0564375-.53125-.33-.161-.2091875-.5795-.4185625-.66-.2091875-.0805-.4104375-.225375-.4185625-.37025-.1045625.20125-.0401875.386375.1048125.515125.1448125.1288125-.1126875.652.0723125.7888125zm-4.3145-.1125c-.169-.265625-.5715-.2173125-.7405-.0321875s-.144875.45875.016125.5795l.724375-.547375zm.966-.3945c-.064375-.354125-.491-.394375-.724375-.305875-.2334375.0885625-.394375.4426875-.2415.70025l.9659375-.394375z"/><path d="m13.567 5.3895c.1529375-.2978125-.144875-.7405-.4829375-.804875-.28225-.05375-.61575-.0523125-.724375-.33-.0684375.2414375.1126875.394375.3219375.53125.20925.1368125-.04025.491.2978125.6921875z"/><path d="m13.535 5.4c-.0704375-.2133125.0724375-.4971875.361625-.47725.2891875.019875.454.23.3265.49275z"/><path d="m14.1785 5.416c-.0398125-.221125.1415-.482.425-.42175.2835625.06025.417125.2915.2541875.53375z"/><path d="m14.818 5.5175c-.02875-.222875.1654375-.474375.445625-.4000625.2801875.074375.4020625.312.2270625.54575zm-4.857 3.6875c-.5393125 0-.671.128375-.7485625.684125-.0965625.69225.8451875.77275.7485625-.684125z"/><path d="m10.2025 8.4805c-.8290625-.3139375-1.27975.9980625-2.10075.764625.29375.466875 1.005875.000875 1.2716875.0483125.45075.0805 1.4246875-.0885625.8290625-.8129375zm-.5395 1.795c-.4105-.185125-.8531875.4426875-.7726875.716375.1021875.3475625 1.0383125.064375.7726875-.716375zm-1.9155 2.7045c.225375.0641875.499.193125.45075.6276875-.0483125.434625-.86925 1.32-1.60975 1.368375-.7405.0483125-1.0061875.941625-1.642.6920625.595625-.1125.595625-.78875 1.0624375-.997875-.338125-.1208125-.5151875.6439375-.94975.6439375-.434625 0-.6439375.692125-1.1751875.64375-.53125-.048125-.587125.8426875-1.65.853375-.8129375.007875-1.819.9576875-2.18125.5473125.7888125-.11275 1.107125-.5498125 1.577625-1.0304375.756625-.7725 1.6098125-.4264375 1.8995625-1.110625-.33715666.2275319-.73625646.345601-1.1429375.338125-.495125-.01025-1.0383125.78875-1.59375.4345625.322-.0401875.53125-.1770625.869375-.53125.346125-.3626875.854125-.1283125 1.255625-.4989375.62775-.579625 1.1670625-.0966875 1.77075-.8210625-.1690625-.0804375-.53125-.0241875-.869375.1529375-.338.1770625-.772625-.120875-1.159.0885.0483125-.47475.94975-.203125 1.5131875-.53125.6359375-.3701875 1.163125-.261625 1.6661875-.21725-.70025-.004-.9739375-.668125-1.93975-.475-.42125.084375-.756625-.579375-1.1751875-.2415.0120625-.249375.45075-.450625.9015-.209125.45075.2414375.6324375-.2113125 1.529375.354125.3701875.233375 1.0060625-.145 1.4085.104625-.0523125-.1529375-.28175-.249625-.551375-.229375.1690625-.3460625 1.2596875-.301875 1.7345625.044375z"/><path d="m8.464 12.4565c-.354125-.2736875-.845125.0564375-1.1831875-.0724375 0 .2253125.1126875.5634375.4829375.6921875.1126875-.080375.61975-.523125.70025-.61975z"/><path d="m9.0195 11.676c-.555375-.2816875-.6519375.4185625-1.086625.2736875.016125.20125.177125.45075.53125.5070625l.5554375-.78075z"/><path d="m9.3495 11.04c-.821-.3219375-.925625.466875-1.4085625.313875.1126875.2736875.8049375.4185625 1.1590625.322zm1.1265-3.453c-.2173125-.305875-.676125-.0563125-.7485625.305875s.104625.86925.4105.7565625z"/><path d="m11.0315 6.621c-.3783125-.0885-.8129375-.0483125-.764625.3219375-.1449375.064375-.185125.539375.20925.6439375l.555375-.9659375z"/><path d="m11.281 6.3715c-.37025-.434625-.783125-.4245625-1.014125-.2415-.426625.338125-.8411875.1449375-.85325.4829375.257625-.1971875.4829375.04025.69225-.0321875.20925-.0724375.3621875.33.94175.161zm-.8935 6.496c.056375.1045625.4024375.1529375.5715-.0241875.224-.23475-.024125-.8854375-.3783125-.93375-.354125-.04825-.3863125.7325-.193125.9579375z"/><path d="m9.985 12.8835c.5070625.185.724375-.2335625.45075-.4990625-.0725.0885625-.338125.4105-.45075.4990625z"/><path d="m8.0855 13.5755c-.096625.2898125-.595625.338125-1.1590625 1.239625-.5634375.9014375-1.1026875.523125-1.2395625 1.142875.676125-.5473125 1.207125-.18375 1.60975-.724375.61175-.8210625 1.1155-.703125 1.35225-1.255625.3380625-.78875 1.8190625-.77275 1.8995625-2.01225-.499-.096625-2.076625 1.2395-2.4629375 1.6096875zm12.7015-12.17c.6439375.20925.66 1.046375 1.400375 1.32.740625.2736875.813125.933625 1.4166875.7726875-.563375-.1529375-.523125-.804875-1.110625-.965875-.6891875-.18875-.9498125-1.2395625-1.4973125-1.4005zm2.954 4.3705c.1126875.2575625.0966875.716375-.3058125.837125.21725.1368125.539125.008.71625-.28975-.265625.5875-.0885625 1.11875.33 1.2234375-.20125-.4105.2495625-.60375.10475-.8693125.265625.1126875.499.474875.490875.70025.34625-.386375-.2575-.9015-.1448125-1.263625zm-4.1695 4.137c-.394375-.346125-.5626875.0905-.756625-.060375-.1810625-.140875-.4225-.161-.515-.020125.338125.0120625.172875.2736875.8289375.3380625-.6560625.04425-.5351875.77675-.9739375.7405.466875.4426875.7083125-.394375 1.086625-.2575-.1126875.032125.1770625.29775-.0241875.651875.3260625-.008.45875-.45875.4991875-.6921875zm-8.685 3.759c-.144875-.120625-.5634375-.1770625-.724375-.0804375-.161.0965-.104625.120625.0885.136875.1931875.0160625.442625.3285625.0241875.3460625-.1931875.0079375-.12875.4748125-.53125.507125.165.20125.635875.0683125.804875-.1529375-.0321875.1810625.20925.3460625.1126875.563375.2978125.03225.12475-.6035625.595625-.5715-.193125.0241875-.1126875.45875.225375.3460625-.20125.0966875-.0965625.33.12875.27375-.1448125.0483125-.193125.2333125.008125.338125.193125-.265625-.0241875-1.215375-.7325-1.7064375zm17.531-8.881c.6160625 0 1.115375-.4995 1.115375-1.115625 0-.616-.499375-1.1155-1.115375-1.1155-.61625 0-1.115625.4995-1.115625 1.1155 0 .616125.499375 1.115625 1.115625 1.115625z"/><path d="m22.59 6.1385c.338125-.3219375.853375-.4829375 1.2073125-.2415.354125.2415 1.529375.53125 2.1089375.1288125.579375-.4025.853125-.61175 1.110625-.5634375.193375.28975.4266875.4265625.7165.45075.0885.0965625.4025.1770625.5795625.152875.2575.064375.5714375-.0160625.820875-.28975.3864375.056375.7485625-.233375.885375-.668.4104375-.0483125.434625-.507125.177125-.813-.2415-.04825-.05625-.86125-.93375-.70025.370375.225375.0885.676125.3945625.8854375-.209375 0-.4789375.0885-.543375.4024375.0804375-.2173125-.0120625-.3621875-.0685-.4105.008125-.185125-.4023125-.639875-.78875-.474875.2776875.060375.1208125.5070625.3220625.6760625-.145.008125-.2979375.0805-.3864375.2093125-.104625-.185125-.4748125-.3783125-.70025-.394375 0-.064375-.0120625-.1931875-.0401875-.257625-.100625-.193125-.1851875-.4225-.145-.7163125-.193125.20925-.354125.4990625-.450625.7083125-.3058125-.2093125-1.0625.0965625-1.416625.1770625-.3541875.0805-1.5454375-.1126875-1.8191875-.4025-.2735-.2896875-.80475-.4668125-1.30375-.6116875-.68625-.199125-.69225-.94975-1.4489375-1.464875-.0160625.93375 1.400625 3.8956875 1.7225 4.217625zm-7.888 7.115c.595625 0 1.0785625-.4829375 1.0785625-1.0785625s-.4829375-1.0785-1.0785625-1.0785-1.0785625.482875-1.0785625 1.0785.482875 1.0785625 1.0785625 1.0785625z"/><path d="m12.126 12.4245c.2173125.28175.5875.2656875.7405.2415.12875.3379375.53925.33.716375.515.1770625.18525.780625.1691875.95775.064375-.160875-.016-.3701875-.1125-.5714375-.281625-.242875-.204-.12875-.61175-.3219375-.7565625.144875-.161.169-.4265625.136875-.53125.152875-.0885625.2655625-.2334375.2816875-.305875.265625-.0160625.4989375-.1529375.595625-.2575.136875.12875.4829375-.0403125.668125.177.04025-.53125-.466875-.8129375-.805-.6358125-.136875-.0725-.499-.0241875-.563375.0724375-.1126875-.0483125-.426625.1126875-.5715.2173125.161-.0885625.185125-.3541875.12075-.45075.1368125-.0563125.28975-.2414375.3058125-.3783125.1931875.0321875.482875-.0965625.6116875-.064375-.2091875-.2736875-.55525-.37025-.9094375-.346125-.36625.0201875-.523125.27775-.5715.5554375-.2173125.12875-.28975.563375-.20925.7163125-.1248125-.004-.2415.11675-.28975.185125-.1690625-.0724375-.4105-.1246875-.5835625-.1246875zm-.185-1.827c-.0724375-.20925.0235-.3976875.0724375-.563375.12475-.4225625.0483125-.53125-.33-.474875-.0321875.2011875.161.86125.2575625 1.03825z"/><path d="m11.6635 9.583c.0965625.0965625.4386875.140875.474875-.165.041625-.351125-.100625-.487-.4064375-.350125-.024125.0805-.052375.4105-.0684375.515125z"/><path d="m11.736 9.056c.12875.0523125.4065.1569375.559375-.140875.1283125-.24975-.0401875-.4426875-.3058125-.426625-.064375.0725-.1931875.33-.2535625.5675z"/><path d="m11.9735 8.4645c.0321875.0965625.3621875.4185625.603625.185125.2415-.2334375.2415-.5795-.1206875-.7083125-.096625.016125-.386375.3541875-.4829375.523125z"/><path d="m12.456 7.9415c.0724375.20125.2978125.5473125.716375.3863125.4185625-.1609375.2414375-.684125.0483125-.78875-.1126875.0080625-.5715.2173125-.7646875.4024375z"/><path d="m13.221 7.539c-.0321875.1770625 0 .66.5714375.6519375.5714375-.008.410625-.6760625.265625-.7726875-.233375 0-.6278125.0080625-.8370625.12075z"/><path d="m14.082 7.442c-.064375.136875-.2095 1.0375.9095625.78875.14475-.032125.523125-.86125-.9095625-.78875z"/><path d="m14.6935 7.5225c-.1125.1126875.1770625 1.0221875.93375.86925.756625-.1529375.1208125-1.014125-.93375-.86925z"/><path d="m15.3375 7.6595c-.120625.2495.060625.99.994125.99.8460625 0-.044375-.973875-.994125-.99z"/><path d="m16.07 7.877c-.060625.1383125-.1348125.923375.965875.99.796875.0483125.60375-1.0785625-.965875-.99z"/><path d="m17.2535 8.207c-.1366875.2415-.2816875.845125.925625.8934375.7735625.031.2979375-.8773125-.925625-.8934375z"/><path d="m18.2595 8.392c-.1770625.2415-.0466875.715125.4023125.804875.5635.1126875.6439375-.4185.2576875-.6760625-.3864375-.2575625-.66-.12875-.66-.12875z"/><path d="m18.807 8.5045c-.12875.225375-.0489375.7726875.8048125.7726875.1770625 0 .8533125-.6921875-.8048125-.7726875zm-6.608 10.4965c.6915 0 1.252125-.560625 1.252125-1.252125 0-.691625-.560625-1.25225-1.252125-1.25225-.6915625 0-1.252125.560625-1.252125 1.25225 0 .6915.560625 1.252125 1.252125 1.252125z"/><path d="m21.3825.794c-.0966875.0965625-.2976875.3863125-.338125.499-.4185625 1.255625.69875 2.1935625 1.3523125 3.5415.5151875 1.0625.4508125 2.7366875-.3541875 3.799125-.275375.3634375-.193125.466875-.5473125.837125-.1358125.142-.28975.321875-.2414375.8370625.2254375-.0805.5473125.12875.611625.305875.1610625-.0805.3865-.0483125.466875.04825.2735625-.12875.499-.064375.7404375.19325.209375-.03225.43475 0 .6439375.2253125.1126875-.2253125.338125-.3058125.4989375-.2575-.016-.2898125.27375-.4990625.53125-.386375-.080375-.386375.27375-.6761875.611875-.5634375.289625-.225375.8691875-.2415 1.159.0965625-.5151875-.144875-.4989375.4025-.93375.3541875.1126875.3219375-.1770625.5070625-.4666875.6116875.185-.0885625.38625-.193125.450625-.0805.1610625-.1408125.4829375-.0885.5635625-.0160625.213125-.0684375.4185625-.016125.515.2414375.2898125.1770625.4829375.6278125.27375.965875-.064375-.354125-.3058125-.3380625-.4025-.4829375-.2254375.0805-.4508125.0805-.5151875-.064375-.12875.12875-.563375.2415-.7564375.0483125-.0725.28975-.322125.53125-.611875.53125.080625.2253125-.1448125.61175-.321875.804875.27375.1448125.193125.466875.12875.66.4185.064375.064375.4345625.78875.6760625-.354.1126875-1.04625 0-1.1429375-.434625-.3541875-.016-.595625-.3701875-.579375-.740625-.27375-.2575-.314-.6276875.064375-.88525-.322125.0965625-.4991875-.4185625-.9660625-.20925-.232125.104125-.845-.0725-.836875-.2898125-.0966875.161-.6841875.096625-.764875-.1770625-.193125.104625-.6439375-.0724375-.6358125-.3380625-.249625.1126875-.5875-.0885-.5714375-.3460625-.233375-.0321875-.2575-.2415-.2415-.4185625-.209375-.0965625-.152875-.2978125-.0725-.53925-.14475-.161-.080375-.386375.0323125-.595625-.1610625-.161-.12875-.3541875-.080625-.5795-.7726875-.064375-1.740625-.25075-3.96-.9336875-3.348375-1.03025-4.249875 1.384375-3.509375 2.897625.854375 1.7459375-.0965625 2.125.1931875 3.4289375.305875.064375.466875.321875.45075.595625.1810625.0079375.309875.176875.2454375.499.1529375-.028125.3501875.016.4789375.14475.11275-.209125.483-.2575.6761875-.016.4184375-.0323125.6278125.3058125.61175.724375.2251875.4025.1448125.8935625-.0966875 1.2073125.0241875-.1689375 0-.4104375-.007875-.5551875-.015-.2665-.3865-.322125-.34625-.539375-.193125.016-.3783125-.0885625-.4426875-.233375-.1126875.0964375-.273625.12875-.4105.0804375.2173125.096625.386375.482875.322.740375.1126875.1933125.0885.5475-.0483125.700375-.064375.31375-.305875.4265-.61975.289625.1770625-.1125.2414375-.31375.233375-.4829375-.1126875-.0964375-.169-.281625-.1770625-.394375-.313875.048375-.7485625-.21725-.82875-.32225-.6915 0-1.2520625.560625-1.2520625 1.25225-.0321875-.2576875-.358-.5114375-.31775-.72875-.193125-.595625.0805-1.151.8693125-1.2635-.0965625-.2254375.2414375-.459.1126875-.7165-.1645-.3289375-.466875-.756625-.9175-1.255625.273625-.466875.193125-1.094625.032125-1.481-.231125-.5548125-.45075-.4185625-1.27175.482875-1.338 1.4691875-3.123 1.0625-4.700625 2.028375-.419125.2566875-.837.3541875-.38625-.0964375.4506875-.450875 1.6419375-.9015 2.414625-1.2879375 1.447-.7235625 2.67225-1.93175 3.1551875-4.282 1.1348125-5.523 5.312-3.7025 7.952-2.67225 2.4785625.9673125 2.0283125-1.2234375.7726875-2.5434375-1.509125-1.586625-1.2073125-2.8331875-.4989375-3.83125 1.271625-.177125 3.710625.265625 3.2195625.6921875z"/><path d="m25.866 14.3615c.760875 0 1.3776875-.616625 1.3776875-1.3775s-.616875-1.3776875-1.3776875-1.3776875c-.760875 0-1.3776875.6168125-1.3776875 1.3776875s.616875 1.3775 1.3776875 1.3775z"/></g><g transform="translate(4.3125 4.25)"><path d="m16.2975.983c-.3058125 1.35225-.0483125 1.9639375.4025 2.5595625.9314375 1.2310625 1.674125 4.0405625.611625 5.8755"/><g stroke-linecap="round" transform="translate(6.3125 2.3125)"><path d="m11.5945 5.5205c.12875-.0483125.3701875-.20125.4266875-.466875m-.3301875-.120625c.0401875-.2334375.4023125-.334.4104375-.5835m-.4024375-.3265c-.0241875-.2415.3623125-.45875.3058125-.70025m-.5148125-.16875c-.0323125-.136875.321875-.394375.2254375-.6116875m-.4909375-.2333125c-.0725-.1529375.1689375-.33.064375-.491m-.4497831-.1855c-.0340032-.104625.1754639-.334.0623833-.4708125m-.4499752-.3256875c.0320625-.04025.1610625-.136875.1085625-.2575625m-.3740625-.3259375c.0523125-.0281875.2091875-.0765.1891875-.193125"/><path d="m2.129 15.4285c-.3219375-.1126875-.724375.0483125-.804875.3220625m.241375.2494375c.04025-.2735625.45875-.394375.5875-.265625-.2655625-.1448125-.394375.3701875-.1609375.3864375m2.1654375-6.4873125c-.193125.096625-.249375.45075 0 .7164375m.2895-.6359375c-.1366875.1126875-.12875.45075.0725.53125-.1689375-.12075 0-.33.1208125-.3380625.120625-.0080625.2010625.136875.05625.2816875m11.0594375.321625c-.450625-.120625-.812875.4025-.4025.869375-.0079375-.4508125.3139375-.7485.708375-.668125m-.181375.31175c-.1108125 0-.173125.0866875-.173125.1710625 0 .0885.0764375.173125.20125.173125.080625 0 .145-.0925.145-.165m1.416375-10.0611875c.0725.2736875.4508125.386375.7485625.3219375m-.0000625-.1769375c-.2333125.0080625-.4264375-.20925-.4104375-.394375 0 .1368125.314.20125.4104375.1126875" stroke-linejoin="round"/><path d="m2.2415 10.4785c-.064375-.1610625.1931875-.322.20125-.475.0080625-.152875.28975-.273625.5795.016125m-.13675-1.714125c-.0563125.03330457-.104625.07773943-.1529375.1m.7084375.810825c-.0684375.0065-.20925-.0064-.28575-.0902m.00425.362375c-.0563125.03043185-.181125.08259109-.2535625.1m-2.5074375 4.7615c-.0080625.145.136875.3541875.2173125.4185625m.41093848-.7645625c-.08070255.120625-.12907395.33-.08070255.4748125m1.27945157.0081875c-.144875-.0966875-.0483125-.34625-.064375-.507125-.016125-.161.169-.4185.53125-.20125m-1.818875-.200934c.144875-.0387.2978125-.026.394375.0383m1.452125-.505491c-.07274011.0885625-.09096045.1851875-.1.2495625m.7645-.2655625c-.1126875 0-.20925.0804375-.2575625.1610625m-1.3039375-4.2820625c.12875.0443125.4628125.2495.474875.4628125m.893625-1.5093125c-.394375-.0080625-.5473125-.4105-.2495-.4105m.958.9495c-.1529375.064375-.0804375.33.136875.45875m-1.078875 2.06875c-.0765-.0964375.024125-.378125.2736875-.29375m.3138125 3.23175c.016-.2454375.326-.3904375.4508125-.1126875m-1.5938125.8126875c-.020125-.2695625.1166875-.358125.2374375-.3741875.1206875-.016.2938125.084375.3743125.2615m-3.01025.3141875c.016125-.1610625.1529375-.33.2978125-.3058125m14.4316875-6.8416875c-.1048125.0765-.173125.4185625.2251875.45075m-.8366875.11275c0 .04025.0618625.0965625.1.12075m1.7995.52325c-.1045625-.0805-.374375.2455-.12875.4829375m-2.43075 2.2215625c-.0604375-.229375.1529375-.2898125.3541875-.2414375m-.8691875-1.3845625c.120625-.0805.2414375-.169.394375-.20925m-.458875 1.09425c0-.193125.0964375-.3539375.185-.4023125m.523-1.8186875c-.0160625.2334375.080625.45875.153125.5795m1.762875-.5635c-.116875.03625-.2214375.0805-.265625.1770625m.136625.4829375c.0564375-.0483125.1208125-.104625.1489375-.144875m2.8935625-6.882125c0 .225375-.2816875.3460625-.4666875.20125m1.0786875-.19325c.1245625.0965625.5551875.0040625.4545625-.2454375m-.9780625 1.5414375c-.0885625-.016125-.2414375-.1126875-.3058125-.193125m1.1913125-.4555625c-.1448125.0515-.2414375 0-.3139375-.0515m-1.9720625.8371875c.0804375 0 .2735625-.0321875.4064375-.100625m-.6479375-1.32179046c-.1045625-.0193-.18125.0129-.2414375.0773m1.8634375.31461546c-.028125.100625-.100625.2575625-.1891875.326"/><path d="m16.593 3.0495c.20125-.0885625.4508125.595625.93375.354125m.04025-.708625c-.064375.0885625-.1045625.225375-.1126875.346125" stroke-linejoin="round"/></g><path d="m14.253 3.9615c.064375-.0080625.1770625-.0321875.20125-.1126875m-8.48375 7.6061875c.2415.136875.4105.37025.305875.716375m10.761125-8.9455375c.0725.0773.34625.0773.4991875-.0129m.1933125.1690625c-.008125.1126875.0241875.53925-.193125.6278125m.080625-.0563125c.20125.064375.60375.04025.7325-.33m-.282.3135c.1045625.161.1366875.474875-.1770625.643875m.2575625-.377875c.2333125.0805.7726875.0885.71625-.37025m-.18475.37025c.1610625.225375.869375.491.756625.024125m-1.408625.627375c.2735625.064375.66-.12075.4989375-.603625m.7725625.241625c.0401875.185125.941625.3783125.8210625-.04025m-.1690625.24175c.1691875.3863125 1.0625.354125.780875-.161m-.144875.402c.1770625.2173125.9660625.0885625.652125-.434625m-.008625.426625c.4910625.37025 1.0625-.161.4426875-.547375m.2818125.426875c.4348125.346125.9660625-.28175.5876875-.45875m-4.0246875.31375c.136875.04025.4266875.024125.4910625-.225375m-.1085625.168875c-.0160625.36625.5998125.507125.756625.0845625m-.205125.2294375c.1126875.2414375.651875.3380625.740375-.0080625m-.088375.1610625c.0885625.2415.555375.2173125.684125-.0321875m-.169125.1611875c.1448125.313875.740375.313875.8773125-.144875m-.1043125.200875c.2333125.144875.7325.0885625.692125-.3621875m-.096625.3221875c.3460625.28175.837125.0080625.595625-.466875m-.024125.836875c.1851875-.0321875.2816875-.4024375.0885625-.499m-4.3785625.5635c.38625-.20925.45875-.563375.193125-.9095m.136875.5555c.2414375.144875.7001875-.0080625.780625-.3621875m-.450625.4021875c.1366875.1770625.1608125.394375-.01625.595625m.12875-.370125c.4264375-.265625.9576875.225375.563375.5231875m-.072375-.5471875c.0966875-.024125.265625-.20125.2816875-.4024375m-.0886875.5874375c.1770625-.185125 1.384625.1931875.6198125.5795m-.0563125-1.0865c.2333125.0885625.3541875.4185625 0 .53125m.306.27375c.2575-.265625 1.0625-.0965625.7726875.2415m-.1931875-.3465c.1448125-.491 1.0060625-.185125.724375.0160625m-.901375-.5070625c.0241875.096625.0320625.3380625-.12875.466875m.8778503-.563375c.0483884.0805.0365036.2334375-.0729128.33m.5953125-.322c.0483125.0885.12875.2575625-.0483125.394375m-6.8411875-4.096875c.0079375.45875.1689375.764625.78875.474875m-.59575.072625c-.3058125.4105.0401875.8531875.6439375.4105m-1.5859375-.2095c.4185625.45075 1.167125.12075.684125-.5634375m.507375.9499375c-.080625.4426875.2816875.53125.579375.33m-2.140875-.644c.07625.4450625.53125.796875.9739375.5231875m-.4264375.0888125c0 .635875.8773125.7083125 1.0785625.0483125m-.3140625.4021875c.2816875.5795.893375.346125 1.094625-.0080625m-1.714625-.9174375c.1126875.2816875.338125.595625.86125.3621875m-2.47075-.4991875c.0725.2334375.4910625.515125.9739375.193125m-.6764375.104875c-.2576875.3783125.2575.7325.8773125.169m-.5713125.298c.1045625.53125.31375.957875 1.070375.2736875m-.378375.2733125c.27375.3380625.6923125.5473125 1.086625-.024125"/><path d="m16.0155 3.8645c-.0241875.4024375.05625.603625.3701875.5875.2475-.012625.4829375-.20925.6198125-.4185m-.676.419c-.008125.45875.3539375.821 1.0301875.3541875m-.7486875.1848125c-.12875.346125.2575.9095 1.014125.61975m-2.615625-1.53725c-.048125.4426875.3623125.7405 1.0223125.169m-.7003125.322c.0241875.3621875.4345625.796875 1.038375.169m-.748875.29c-.0483125.61975.523125.796875 1.0060625.3219375m-1.8670625-.7809375c.12875.0080625.2333125-.104625.2976875-.185125m-.0241875.635625c.1126875.024125.3060625-.0805.3704375-.20925m-.0884375.94175c.12875.136875.563375.04025.619625-.144875m-.136625.136875c.2414375.563375.8851875.53925 1.150875-.0965625m-.120875.2255625c.120625.33.4266875.53925.925625.4265625m-.684125-.0885625c-.2816875.45875.0885625.9980625.71625.466875m-.56325.217125c-.0320625.28975.2335625.61975.595625.66m-1.787125-1.505c-.0966875.6519375.3701875.965875.957875.61975m-1.641875-.30575c.1529375.12075.4266875.136875.684125.04025m.313875.37825c-.145.547375.4185625.94175.9014375.33m-1.6819375-.66c.008125.2816875.281875.5875.756625.499m1.327875.5635c-.3220625.2173125-.3864375.603625.064375.853125m-.853375-.966125c.01625.33.1691875.515125.53125.5473125m-1.00575-.7163125c-.4829375.4426875-.008125.957875.563375.5231875m-.225375.1368125c-.1610625.507125.4426875.8129375.764625.2978125m-1.762625-1.3763125c-.1770625.4990625.0483125.8290625.45875.796875m-1.09475-.893375c.0241875.2978125.2816875.4024375.5714375.3380625m-.3864375-.0240625c-.2173125.4185625.1126875.643875.5475.4829375m1.32.9335625c-.0725.265625-.0323125.45875.3620625.547375m-.3380625-.168875c-.475.2173125-.5151875.676125-.145.973875m-.2375-1.484875c-.249375.225375-.20125.6156875.0725.768625m-2.185-2.237625c-.27375.2696875-.0120625 1.014125.5914375.60775m.9780625.33375c-.3704375.305875-.20125.86125.4104375.7083125m-1.0224375-.9418125c-.193125.547375-.0079375.7405.4266875.7485625"/><path d="m14.269 6.8185c-.33.2495-.2414375.603625-.0964375.764625.14475.161.4183125.0885625.506875-.1206875m-1.1029375-.8609375c-.3701875.474875 0 1.0383125.523375.8693125m1.457125.5391875c-.3783125.136875-.666875.480375-.4348125.78075.136875.1770625.7325.20125.9015-.4829375m-1.1511875-.7408125c-.2173125.3139375-.145.61175.2575.764625m-.2815-.176625c-.2335625.12875-.3864375.28175-.33.5634375m-.193-1.0544375c-.0885625.3783125.0160625.61175.249375.724375m-.257375-.273875c-.3623125-.024125-.5473125.12875-.4266875.4829375m.0321875-.3944375c-.3541875-.12875-.410625-.434625-.2576875-.756625m-.0483125.475125c-.3864375.016125-.555375.20925-.555375.474875"/><path d="m13.0935 6.416c-.2816875.12075-.3701875.4990625-.265625.7083125.1048125.20925.4348125.225375.6360625.0885m-1.1589375-1.0943125c-.2575.28975.0401875.8531875.4991875.716375m-1.1591875-.941875c-.2414375.3380625.0241875.9015.6439375.7405m.0320625 1.5695c-.064375-.4025.3541875-.6680625.869375-.144875m-.249375-.812625c-.1529375.136875-.2251875.354125-.20125.53125m-1.75475-2.07675c-.265625.45075.0564375.86125.627875.70025m.861125.41825c-.3783125.3783125-.2495625.756625.0320625.973875m-.2735625-.530875c-.5714375.0080625-.6035625.6680625-.1366875.877375m-.2978125-1.537375c-.2333125.161-.3058125.603625.0966875.78075m-.1126875.20925c-.2414375-.1126875-.53125.024125-.507125.305875m.144625-.297875c-.2173125-.515125-.853125-.4265625-.796625.104625m.973625-.740625c-.1366875.024125-.4104375.104625-.515.3139375m.0405-.8934375c-.2575.28975-.0564375.635875.1529375.7083125m-.9174375-1.5213125c-.0483125.346125.0885625.515125.523125.4829375m-.370625-.0399375c-.1691875.4185625.05625.603625.4908125.5795m-.3943125-.0645c-.2575.305875-.0804375.635875.1689375.7726875m-.2894375-.3861875c-.45875-.056375-.53125.474875-.3783125.724375"/><path d="m10.1155 5.531c-.281625.12075-.4425625.474875-.2896875.6921875.153.2173125.458875.144875.6278125.0321875m-.531125.064125c-.233375.354125-.0241875.61975.2254375.724375"/><path d="m9.021 5.4905c-.185125.193125-.0724375.587625.3783125.595625.362875.0065.5473125-.3380625.434625-.5795m-.4989375.579375c-.144875.3219375-.0563125.6680625.491.6116875m.2335.5073125c-.3380625-.1529375-.78875 0-.595625.4025m-.048375-.974c-.136875.193125-.0885625.466875.064375.635875m-.088375-.120875c-.225375.04025-.4426875.161-.305875.515125m-.032625-.289625c-.28975-.0885625-.66.12075-.434625.4185625m-.047875-.2815625c-.2495-.04025-.5473125.225375-.305875.491m-.096625-.2175c-.225375.056375-.491.3139375-.2575625.515125m1.3925625-1.778625c-.3219375.144875-.3541875.507125-.20125.7726875m-.13725-1.4406875c-.4829375.185125-.474875.8290625.0563125 1.03025m-.2253125-.14525c-.28975.169-.346125.491-.1529375.70025m-.3540625-1.82675c-.1931875.064375-.1770625.66.3380625.643875m-.8690625-.442875c-.386375.2575625.0805.9095.7083125.4426875m-.3463125.1608125c-.0563125.265625.016125.555375.4426875.587625m-.4186875-.233125c-.305875.1126875-.3621875.7405.193125.78875m-1.166625-1.36025c-.394375.3621875.3219375.676125.587625.1529375m-1.135125.4505625c-.1931875.2334375.4829375.845125.78075-.1770625m.07225-.0159375c.0160625.2414375.161.3863125.45875.4024375m-.00775.2335625c-.474875.0724375-.6278125.6680625-.0965625.796875m-.7809375-.877375c-.016125.225375.2173125.4105.4829375.37025m.2415625.49075c-.434625.0965625-.491.66-.104625.6278125m-.201375.5231875c-.36225-.108625-.37025-.5393125-.0483125-.70025"/><path d="m7.17 8.7985c-.3058125.185125-.185125.6278125-.024125.6921875.1609375.064375.28975-.0160625.305875-.152875m-.02425.6196875c.0321875.20925-.7445625.12875-.3460625-.523125m-.0044375.559625c-.2615625.4105.165.7445.434625.394375m-.398125.100625c-.104625.33.29375.5675.55125.3099375m-1.42075-3.4009375c-.144875.2978125.5795.4105.6278125-.20125m-.8288125.64425c-.144875.5795.94975.45875.6680625-.28975m.0239375.38625c.1529375.0885625.61175.0965625.724375-.394375m-.329875.410375c.0321875.1529375.169.3380625.2978125.394375m-.8208125-.241375c-.0483125.3139375.265625.5715.6278125.547375m-.5718125-.241375c-.1770625.2415-.2334375.7083125.322.7405m-1.167-.66c-.0885625.2495.434625.507125.7405.0965625m-.9015.5389375c-.0443125.1891875.4265625.4426875.6921875-.3621875m-.2091875.4106875c.1126875.20125.491.3621875.724375-.0321875m-.378375.2416875c-.0965625.2816875.1690625.5473125.491.466875m-1.0945-.531375c-.064375.4024375.4024375.635875.6921875.4265625m-.9981875-.2495625c-.1368125.515125.5231875.7083125.7726875.3219375m-.1686875.1530625c.0241875.28975.4749375.53925.8290625.2978125m-1.6340625-.0563125c-.0321875.12875.507125.2575625.5875-.1931875m-.2735.3056875c.12875.33.563375.4105.8129375.0080625m-.1449375.1609375c.056375.305875.45075.474875.796875.265625m.144625.120875c-.0885.4105.3380625.7405.603625.515125m-1.287625-.587625c-.12875.45075.434625.7083125.7485625.45875m-1.4245625-.68425c-.0321875.4185625.2978125.6680625.676125.4829375m-1.392625-.4424375c-.1126875.2736875.4829375.4990625.764625.265625m-1.135125.482875c.1529375.1770625.684125 0 .7325-.394375m-.1445.289375c.193125.225375.6519375.346125.837125-.136875m-.161125.249875c-.0080625.346125.61175.595625.8129375-.04025m.7280625.12475c-.056375.1690625.0765.438625.354125.4708125m-.865125-.5753125c-.04025.193125.2415.46275.5393125.354125m.0566875.080375c-.0805.20925-.012125.5110625.269625.5070625m-.241625-.1165625c-.20925.1770625-.12075.491.181125.503125m-.289625-.205625c-.2978125.201125-.193125.643875.20125.619875m-1.10275-1.472875c0 .434625.53925.499.643875.0965625m-.209375.2574375c-.0805.2575625.12875.507125.45875.434625m-.39425 2.672375c.0725.1048125.37025-.0723125.28975-.249375-.0804375-.1770625-.3959375-.0808125-.3621875.1045625m.2894375-.1771875c.04025-.3541875-.3783125-.4104375-.4829375-.1045625m.1529375-.1769375c.104625-.1770625-.2495-.4185625-.394375-.1610625m.128875-.1049375c.0965625-.2576875-.305875-.3701875-.3380625-.136875m-.0884375-.338125c.0483125-.12875.4990625-.0483125.305875.2173125m.346125.3221875c.1770625-.1610625-.1206875-.4910625-.305875-.3701875m1.496875.8611875c-.140875.0160625-.2858125.1085625-.181125.4064375.0725.2066875.3823125.2173125.4265625.0925"/><path d="m8.0915 14.928c-.136875-.0885625-.434625.0604375-.2978125.3501875.103.218125.3621875.12875.4025.0160625m-.8736875.04825c.068375.120625.4104375.0685625.4708125-.064375m-.2373125-.3321492c.0724375-.0537397.2051875.013209.2334375.0804358m-.2574375-2.0664116c-.2334375.1529375-.0885625.6198125.2736875.4989375m-.3461875-.1204375c-.185125.1448125-.016125.595625.33.4266875m-.2735-.0001875c-.12875.12875-.0040625.486875.33.4185625m-.3785-.2415625c-.0725-.0323125-.261625-.008125-.342125.1125m.133125-1.7425c-.1770625.169-.0925625.5151875.2374375.5433125m-.3019375-.1893125c-.2535625.1248125-.2535625.6276875.2535.647875m-.2735-.080375c-.1408125.1126875-.0724375.5473125.28975.4908125m-.14631863-.0158125c-.0838.0523125-.0967.1851875-.0258.2414375m-.16213137-.4064375c-.12875.0039375-.2978125.0966875-.342125.229375m-.233375-.466875c.0483125-.12875.44675-.120625.474875.2576875m.040125-.4506875c-.056375.0120625-.165.064375-.193125.173125m.020125-1.352125c-.173125.1569375-.2575625.652.269625.7485m-.619625.2735c0-.1329375.3581875-.245625.4829375-.0483125m-.7124375-.6721875c.0523125.100625.3018125.2375.45475.1248125m-1.75075-.9133125c-.008.2334375.185125.4426875.45075.4105s.3219375-.265625.2414375-.4185625m-.2011875.4265625c-.1770625.2173125.04025.5231875.2414375.434625m-.0399375-.587625c.104625-.04025.45075-.0885625.555375.0724375m-1.674375-.0079375c-.0805.12075.4185625.2415.5875.0080625m-.169.1204375c-.016125.161.064375.434625.474875.3219375"/><path d="m5.552 12.477c.064375-.136875-.2415-.3621875-.474875-.1126875-.2334375.2495.0321875.53125.1770625.4345625m-.7726875-.860875c-.12075.20925.346125.591625.61175.2375"/><path d="m4.1715 12.3c-.169.173125.04025.4910625.2938125.394375.2535-.0965625.229375-.3621875.1690625-.4305625"/><path d="m3.8455 12.622c-.136875.1246875-.0040625.4184375.185125.4184375.189125 0 .305875-.14875.269625-.337875m.31375-.1045625c-.0241875.185125.2495.313875.4265625.1409375m.03015-.3384375c.0386-.04025.0065-.10875-.0579-.140875m-1.4608125.611875c-.156875.1248125.181125.4708125.394375.1529375m.816625-.2214375c-.100625.0964375.0603125.35.2213125.2735625m-.7723125-.0965625c.024125.1729375.3621875.3016875.5755.03625m-.3905.13675c-.0523125.10875.052375.281875.181125.2576875m3.022375.7368125c-.1246875.2454375.2736875.53125.5634375.2333125m-.2739375.1326875c-.0603125.1326875.012125.3179375.12075.38625m-.49875-.10875c.0281875-.1208125.20125-.2335625.3581875-.1770625m-.5676875-.1409375c.024125-.1085625.169-.2173125.2776875-.1889375m9.1998125-4.8335625c-.5714375.0080625-.33.925625.1610625.7405m-.3460625-.064c-.1126875.185125.1045625.4789375.3460625.305875m-.0640625.036125c-.1691875.2816875.4345625.7123125.6760625.269625m-.1930625.168875c.0079375.265625.780625.434625.668125-.0965625m-.072625.2895625c.185.313875.8773125.346125.8048125-.12075m-.1528125.32225c.145.20925.8210625.3380625.796875-.096625m-3.541875-2.551375c.0964375.2495.4264375.3380625.78875.193125m-.99775-.016125c.2254375.144875-.1045625.804875-.450625.53925m.450625-.12875c.2495625.12075.555375.0321875.6439375-.3219375m-.1529375.2734375c.0241875.185125.2898125.33.635875.2575625m-1.255875-.0640625c.3220625.2736875-.1448125.837125-.3541875.5795m.4751875-.3705c.1529375.1126875.5473125.0483125.5875-.2495m-.177.2495c.0323125.193125.1851875.265625.4025.2736875m-.9015-.0081875c.1608125.225375.563375.28975.740375-.0080625m-.177375.1690625c-.0160625.2173125.2254375.394375.475.346125m-1.352.136875c.2091875.104625.4345625-.28975.2575-.563375m-.016.981875c.2495625.016125.2816875-.3621875.0483125-.5715m.5231875.9175c.209375-.0483125.1448125-.507125-.3623125-.547375m.9978125.885875c.20125-.056375.0401875-.5634375-.515-.53125m1.28.70825c.1366875-.20925-.3139375-.563375-.684125-.3783125m1.062125.6678125c.2495625.0724375.4185625-.5875-.3701875-.4829375m.8291875.4829375c.2175-.0563125.3704375-.45075-.2654375-.3219375m.7484375.3544375c.193125.096625.2816875-.466875-.3060625-.313875m-2.9379375-1.441125c.2414375.136875.6198125-.024125.5875-.33m-.0965.266c.080625.144875.0483125.4265625-.1045625.499m.1285625-.161c.1610625.064375.3783125.0080625.507125-.2495m-.2136761.2495c.0617505.1126875.0826013.3380625-.0518864.45075m.0809375-.25775c.1770625.0965625.38625-.0321875.4748125-.2173125m-.1128125.1608125c.12875.0805.2414375.45875.0241875.61175m.1208125-.17675c.1529375.0080625.3783125.0080625.523125-.185125m-.104625.104625c.136875.04025.2976875.265625.2414375.466875m.0080625-.072875c.153125-.016125.4185625-.12075.4910625-.305875m-.0725625.120875c.1289375.0724375.2175.225375.20125.4024375m-.00025-.1289375c.1529375-.0080625.2898125-.0885.33-.2575625m-.04.1130625c.1126875.04025.2495625.169.2576875.3219375m-.0161875-.0969375c.1126875-.016125.193125-.0885625.265625-.20125m.305875-.01575c.145.144875-.048125.627875-.3460625.5393125m-2.7449375-10.2948125c-.2979375.1770625-1.143125.12075-.724625-.5795m.805125.1045c-.5875.2334375-1.312125-.2173125-.555375-.7083125m-.201125-.1606875c-.4910625 0-.8210625.78875-.1608125 1.0625m-1.7466875-.7325c-.12875.2495.33.523125.6439375.2736875.243125-.1933125.22525-.716375.0804375-.917625m-.973875 1.2394375c-.1610625.53125 1.0223125.563375.837125-.28175m-.901625 1.07075c.0401875.4024375 1.135.2736875.780625-.5393125m.128875-.2256875c.0885625.12075.33.33.740375.28975m-.547375-.86125c.03625.144875.2816875.2575625.595625.1489375m-11.578125 12.0975625c-.2776875.1973125.1489375.507125.305875.165m-.523375-.012c-.277625.1970625.1489375.506875.305875.1648125m-.535375-.0158125c-.27775.1973125.148875.507125.305875.165m-.547375-.028c-.265625.1408125.04425.486875.313875.1810625m-.575375-.0480625c-.265625.140625.0443125.486875.3139375.1810625m1.0345625-.5960625c-.0040625.2051875.386375.2898125.527125-.01625m-.281625.20575c-.12075.1529375.100625.3420625.221375.2735625m-.740875-.3020625c-.012125.173125.3259375.27375.491.0845625m-.3055.0969375c-.1086875.1408125.104625.33.2414375.2735625m-.6519375-.2980625c.0120625.136875.2051875.29375.4145.2051875m-.29-.0201875c-.0805.0725-.04025.2416875.0724375.2939375m-.4909375-.3059375c-.0321875.1248125.181125.34625.3984375.20125m-.3544375-.05625c-.12875.100625-.1126875.2535625.0523125.2735625m-.3618125-.2895625c-.0160625.084375.092625.22125.2294375.2051875m-.9179375-.2131875c-.12875.0683125.20125.4185625.4064375.0925m-.7244375.052c-.161.0766875.2375.4629375.4145625.0685625m.6279375-.0845625c-.1248125.028125-.20525.209375-.100625.2816875m-.305875-.2171875c-.016125.0725.136875.193125.261625.1489375m-.366125-.1164375c-.12075.0764375-.056375.2895625.0845625.2575m-.5150625-.117c-.1126875.084375-.03625.2535625.12075.2133125m.08425-.2253125c.0040625.0484842.104625.123645.1891875.0927852m-.7846875-.1652852c-.1408125.0604375-.13275.4145625.342125.2214375m-.660125-.0804375c-.19725.0966875-.1328125.3623125.2978125.10875m.0361875.02025c-.0523125.0401875-.108625.2173125.0885625.14875m-.4505625-.06475c-.0805.0725-.028125.2214375.1489375.165m-.5634375-.1405c-.144875.0845625.173.1973125.386375-.028125m-.289875.132625c-.064375.064375-.064375.2535625.104625.1851875m-.515125-.1086875c-.0965625.0725.068375.1691875.37025.03625m-.24975.06825c-.1126875.0925-.100625.2091875.064375.1729375m-.398375-.1204375c-.12475.1126875.0563125.1891875.2736875.0964375m-.2696875.0285625c-.2133125.0964375-.12075.2735625.0120625.2051875m7.1114375.4103125c-.0494375.1064375.1126875.193125.265625.1689375.146875-.023125.2874375-.144125.1770625-.31375m.0078125.2093125c.144875.1126875.4024375-.0160625.4024375-.1851875"/></g><g transform="translate(15.25)"><g fill="#fff" fill-rule="nonzero"><path d="m5.6735 2.754c-.6439375-.3219375-1.98-.917625-2.358375-.434625.3460625-.144875 1.36025.0080625 2.1973125.78075z"/><path d="m6.064 2.72c-.744625-.867375-1.183125-.6731875-1.7185625-.9719375-.502875-.28075-1.3039375-.338125-1.459125.1083125.7348125-.357875 1.409375.1925 1.82375.2590625.569125.091375.890375.531375 1.056875.73375l.297125-.1291875zm2.805-.111c-.3864375-.885375-1.2126875-.654125-1.5776875-1.03025-.5310625-.5473125-1.8751875-1.054375-2.430625-.676125 1.2233125-.064375 1.744375.84325 2.3985 1.1590625.466875.225375.965875.7083125 1.6098125.547375z"/><path d="m7.4205 2.5125c-.66-.821-1.674375-1.545375-2.1410625-1.27175.6116875.0321875.8048125.45875 1.239625.7325.4345625.273625.2414375.668.9014375.53925zm-3.1395 1.449c-.6923125-.2575625-2.044375-.3863125-2.6723125.4025 1.0464375.177 2.6239375.0804375 2.6723125-.4025z"/><path d="m4.1525 4.2675c-.6923125-.3219375-1.232875.12775-1.8835625.064375-1.239375-.12075-2.1248125-.0483125-2.2375.547375.708375-.635875 1.899625-.1126875 2.3825-.2415.4829375-.12875 2.2698125-.0160625 2.833125.225375-.28975-.354125-.740375-.45075-1.0945625-.595625zm2.173-1.8435c-.1608125-.53125-.1529375-1.094625.6439375-1.054375-.20125-.2495625-.941625-.3783125-1.0625.555375-.8773125-.643875-1.8351875-.756625-2.0120625-.20125.450625-.3863125 1.1508125-.104625 1.987875.8451875.0725-.04025.265625-.12075.4426875-.144875z"/><path d="m5.1185 3.1565c-.4989375-.3219375-1.1751875-.845125.008125-1.054375-.507125-.2736875-1.2476875-.1529375-1.167125.78075-1.35225-.547375-2.3233125-.362625-2.5275.1770625-.225375.595625.611875.925625.7566875.5473125-.1529375.064375-.6760625-.1126875-.4025-.45075.27375-.338 1.67625-.08425 3.010375.61175.37025.193125 1.641875.161.321875-.61175z"/><path d="m4.764 4.042c-.385-.786125-1.6339375-.0724375-1.885625-.833875-.344 1.115625 1.776.49825 1.885625.833875zm7.9445.853c.261875.130125.4883125-.0744375.0876875-.234875.262125.13.490625-.069625.09-.2301875.262125.1300625.490625-.0695625.09-.230125-.106875.107625-.25975.502-.2676875.6951875zm.1365-1.513c.579625-.6116875-.048125-.821.66-1.44875.579625-.51375.110625-.8560625.6601875-1.2556875.177125-.12875.563375-.386375.595625-.6439375.233375.5795-.7245625.66-.6601875 1.59375.0410625.5945-.3608125.5425-.515 1.545375-.03225.20925-.1770625.676125-.740625.20925z"/><path d="m13.103 3.6555c.321875-.6921875.6914375-.678875.869125-.94975.338125-.515125 1.054375.0885625 1.658125-.37025-.1045625.6519375-.9175.4185625-1.271625.837125-.354125.4185-.6439375.61175-1.255625.4829375z"/><path d="m13.1835 3.881c.5635625-.45075.97875-.15 1.368375-.386375.981875-.595625 1.3764375.12075 2.25375-.1609375-.2335625.563375-1.529375.0805-2.09275.499-.5635.4185625-2.5435.821-1.529375.0483125zm-1.642 3.2115c-.008125-.2575625-.2495625-.587625-.5876875-.6278125-.3379375-.04025-.4829375-.394375-.7404375-.4105-.2575-.0160625-.426625-.53125-.7808125-.5231875s-.499.466875.33.885375c.829125.4185625 1.746625.9015 1.7789375.6761875zm-1.0465.2175c-.3541875.016125-.4025.53125-.740375.547375.466625.2495.80475-.1126875 1.04625-.4346875z"/><path d="m10.785 7.374c-.3058125.2575625-.394375.796875.0483125.94975-.265625-.36625.466875-.53125.2415-.8693125z"/><path d="m11.0905 7.3905c-.2414375.466875.3783125.523125.2173125.877375.354125-.0805.410625-.7485625.0885-.925625z"/><path d="m8.724 6.392c.579625-.0321875 1.109625.2813125 1.465.78875.2254375.322.981875.45075 1.239625.1931875.2575-.2575.1126875-.804875-.53125-.62775-.1610625-.2736875-.6279375-.177125-.853125-.4025-.2254375-.2253125-1.094875-.86925-1.32025.0483125z"/><path d="m10.8975 6.7465c-.1529375.0321875-.20125.2978125-.1048125.434625m.4396875-.273625c.0773.0805.0257.193125-.013.2495m-1.577375-.7405c.2976875.016125.3541875.2334375.6760625.3139375" stroke-linecap="round"/><path d="m9.445 5.684c1.0285625.2575625 1.844625.4829375 2.350625.7726875.5060625.2898125 1.289625.37025 1.97525.177125.685625-.1931875 2.0076875-.37025 1.9425.4829375.359375-.426625-.0979375-.8854375-1.012125-.9659375.0164375-.4185-.4314375-.796875-.7535625-.5473125.2979375-.04025.555.515125-.0325.7405.1141875-.4185625-.3020625-.796875-.7345625-.61175.2775.0805.558125.545875-.06275.724375-.391875.11275-.963125-.032125-1.3875-.2896875-.424375-.257625-2.8076875-1.19125-2.285375-.4829375z"/><path d="m12.0405 5.2655c-.321875.144875-.1126875.4829375-.611625.676125-.4991875.193125-.84525.6358125-.7325 1.014125.338125-.7405.93375-.7083125 1.142875-.9980625.209375-.28975.5151875-.7163125.20125-.6921875z"/><path d="m12.129 5.3135c-.0160625.5875-.4785625.3735-.2979375 1.1993125.0565.2575.1610625.6760625-.016 1.094625.519125-.37825.1851875-1.173.4185-1.4729375.11275-.144875.2575-.37025.314-.563375-.120875.338-.11275.965875.21725 1.126875-.265625-.627875.7165-1.143.04025-1.867375-.0965.1770625-.4025.4909375-.6760625.4829375zm-1.642-.5875c.080625.12075.1610625.426625.0885625.595625.161-.0965625.3945625-.3460625.466875-.515125.33.0483125.45875.45875.145.635875.193125 0 .523125 0 .708125-.2173125-.2251875-.2495625-.925375-.6359375-1.4085625-.4990625z"/><path d="m5.4805 3.5715c-.0520625-.0475-.14-.0925625-.2976875-.125-.4873125-.0999375-.235625-.5391875.179125-.53525.8851875-.965875 1.3823125-.2213125 2.460875-.5271875.3775-.107.636625-.075375.8423125.0135625.482875-.321875 1.049375-.232 1.46.1463125.045625-.0725.106875-.1279375.192875-.151875.378125-.105.684.2175.7885625.636.2948125-.054625.6314375.09125.8529375.2925.306625-.1575.517875-.1645.595625-.0025.27375-.1288125.628375-.2095625.805375.2250625.177125.434625-.4185.305875-.5151875 1.2234375-.0595625.5660625-.6920625.7888125-1.19125.45075-.7983125-.5408125-1.5775-.6278125-1.9639375.193125-.38625.8210625-.6889375 1.2980625-1.625875 1.0303125-.337875-.096625-.7726875.0321875-1.04625.4024375-.27375.37025-.69225.024125-1.19125.064375.62775-.0965625.3873125-.2545.93375-.28975.499-.0321875.37025-.499.692125-.5634375-1.255625.322-1.2073125-.144875-2.2375.1770625.450625-.5795 1.1589375-.2575 1.513125-.595625-.93375-.0160625-1.35125-.6260625-1.7708125-.3701875-.66.4024375-.3704375 1.54825-2.0926875 1.44875-.837125-.04825-1.368375.064375-1.8673125.5635.869375-1.8029375 2.051875-.8125 2.6239375-1.384375.338125-.338125.595625-.5956875.7726875-.917625.0623125-.113375.1466875-.178125.2520625-.203125-1.4326875-.4508125-.56625-1.1529375.834375-1.2011875z"/><path d="m12.5545 3.318c.021875.04525.033125.104.033125.176625 0 .354125-.53125.37025-.563375.8934375-.016875.2736875-.0483125.426625-.2335.394375-.185-.0321875-.3460625-.321875-.169-.66" stroke-linecap="round"/><path d="m5.746 3.044c-.1333125-.0936875-.2666875-.13175-.38625-.132875zm2.916-.649c.42625.1845625.634125.6273125 1.253375.649.596.0209375.966.885375 1.9639375.3219375.0270625-.01525.0535-.0295.079125-.0426875zm1.4686448.149c-.0942582.1414375-.1157196.3389375-.0898864.5121875zm-1.9536448 1.82c-.7564375 0-.9498125.3863125-.9498125.756625 0 .37025.3541875.853125.982125.853125.6276875 0 .9658125-.38625.9658125-.804875 0-.4185625-.3864375-.804875-.998125-.804875z"/><path d="m8.3135 5.9575c-.0160625-.20925-.394375-.1770625-.3783125-.3380625.016-.161.209375-.225375.209375-.45075s.337875-.2414375.450625-.064375c.1126875.1770625.4508125.523125.5233125.346125m-.523-.3459375c-.1770625.1770625-.2575.53925-.0241875.821m.29547508-.5475c-.09.12075-.1157.305875-.0127.4185625"/></g><path d="m11.843 4.7865c.591625.0483125.6923125-.60375.2495625-.643875m-.9775625-1.114625c-.2051875-.2615625-.6760625-.350125-.684125.20525"/><path d="m10.3745 3.865c-.20125-.4990625-.7164375-.5715-.9901875-.3219375-.22775.207625-.233375.7485.2576875.86125.169-.20125.499-.466875.7325-.53925zm-.2215-.314c-.2898125-.2575625-.7164375.229375-.33.676125zm-5.5125 1.2195c.1939375-.0460625.4775.048875.9123125.253375.27375.12875 1.0948125.4025 1.6098125.12875-.53125.1931875-.9335625-.6116875-1.3360625-.515125-.4025.096625-1.1389375.2455-1.44875-.0483125.7564375.0483125 1.1633125-.5510625 2.028125-.0321875.2416875.144875.5475.2415.8210625.225375-.708125-.8531875-1.641875-.305875-1.7385625-.9980625.4266875.4588125 1.4689375-.104625 2.0001875.756625zm1.001-.8575c-.0995625-.1239375-.0545625-.2475-.1614375-.34525z" fill="#fff" fill-rule="nonzero"/></g></g><path d="m26.365 3.028c-.1770625-.189125-.563375-.04025-.4548125.342125.084625-.1770625.265625-.326.4548125-.342125zm-1.0945 1.031c.121875-.0885.2476875-.1611875.35375-.1940625-.0579375-.14325-.1414375-.2513125-.2379375-.32675-.0920625-.063625-.356625.2921875-.1158125.5208125z" fill="#000" fill-rule="nonzero"/><path d="m3.42.781c-.2898125-.193125-.555375-.1770625-.6439375-.0160625-.2091875-.008125-.3823125.144875-.3904375.4506875m.446875.128875c-.3460625-.2374375-.8210625-.148875-.78875.382375m-.20925.301625c.1689375-.136875.4104375-.2334375.595625.0080625m1.988375-.5310625c-.064375.0885-.1126875.225375-.008125.434625-.12875-.169-.450625-.169-.796875.2816875m1.5695-.7403125c-.4185625.0483125-.4104375.3219375-.0725.4426875m-2.9055-1.4651875c-.3541875-.0724375-.611625.136875-.120625.3139375m.796625-.5554375c-.4991875-.12075-.700375.0080625-.475.12075m-.966 1.88375c-.0160625.1770625.0804375.4105.3701875.144875m-.248925.386125c0 .0483125-.013.104625-.0647.144875m-1.1190625-2.503375c-.3058125-.0885625-.3620625-.37025-.0079375-.346125m-.0965625.998125c-.338125-.1126875-.338125-.4426875-.0564375-.4105m.6844375.2415c-.394375-.096625-.4104375-.37025-.1125-.33m.1605-.507c-.2091875-.0160625-.53125.2173125.008125.3541875m.579875.1128125c-.4910625-.0724375-.4829375.12875-.1933125.2575625m.5633125-.7245625c-.3783125-.0724375-.507125.1529375-.2495625.2495m-.9414375 1.143c-.0926875-.0764375-.1689375-.4426875.2735625-.334m.6439375.2215c-.2976875-.0805-.579375.20925-.3058125.3783125m.6998125-.7243125c-.31375-.056375-.579375.0321875-.4104375.144875" stroke="#000" stroke-linecap="round" stroke-width=".1" transform="translate(21.375 2.625)"/><path d="m26.348 3.028c-.176875.03275-.3354375.1366875-.438125.342" fill="#fff" fill-rule="nonzero" stroke="#000" stroke-width=".1"/></g></g></g></g></svg>