<svg height="48" viewBox="0 0 48 48" width="48" xmlns="http://www.w3.org/2000/svg" xmlns:xlink="http://www.w3.org/1999/xlink"><defs><path id="a" d="m8 9h32c2.209139 0 4 1.790861 4 4v22c0 2.209139-1.790861 4-4 4h-32c-2.209139 0-4-1.790861-4-4v-22c0-2.209139 1.790861-4 4-4z"/><mask id="b" fill="#fff"><use fill="#fff" fill-rule="evenodd" xlink:href="#a"/></mask></defs><g fill="none" fill-rule="evenodd"><path d="m0 0h48v48h-48z"/><use fill="#d8d8d8" xlink:href="#a"/><g mask="url(#b)"><g fill-rule="nonzero" transform="translate(4 9)"><path d="m0 0h40v19.9185944h-40z" fill="#b20000"/><path d="m0 19.9185944h40v10.0667643h-40z" fill="#429f00"/><path d="m0 0h6.6402397v29.9853587h-6.6402397z" fill="#fff"/><g fill="#b20000"><path d="m.31593414.50846267h.31616842v.50834553h-.31616842zm.9486224 0h.94862241v.50834553h-.94862241zm.31587556-.50846267h.31616843v.50834553h-.31610985zm1.58125211 0h.31628556v.50834553h-.31628556zm1.26455654.50846267h.94868098v.50834553h-.94868098zm.31687128-.50846267h.31616842v.50834553h-.31616842z"/><path d="m.94862241 1.01669107h.63245398v.50834553h-.63245398zm.9486224 0h.63245399v.50834553h-.63245399zm2.21312038 0h.63245398v.50834553h-.63245398zm.9486224 0h.63239541v.50834553h-.63233684zm-4.42717789.50834553h.63245398v.50822841h-.63245398zm1.58136925 0h.63239541v.50822841h-.63239541zm1.58131067 0h.63233684v.50822841h-.63227827zm1.58043211 0h.63239541v.50822841h-.63239541zm.63274684-1.01657393h.31610985v.50834553h-.31616842zm-5.69173443 1.52480234h.63245398v.5082284h-.63245398zm2.21317894 0h.63239541v.5082284h-.63239541zm3.16256278 0h.63245399v.5082284h-.63245399zm-5.05986616 1.52456808h.63245398v.50834553h-.63245398zm.31681271.50834553h.63245398v.50816984h-.63245398zm1.26455654-.50834553h.63239541v.50834553h-.63239541zm-.31593414.50834553h.63245399v.50816984h-.63245399zm-.63268827.50816984h.94862241v.50822841h-.94862241z"/><path d="m1.5804321 5.0825183h.31616843v.50834554h-.31610985zm2.21405752-1.52456808h.63233684v.5082284h-.63227827zm.31587557.5082284h.63245398v.50816984h-.63245398zm1.26455654-.50834553h.63239541v.50834553h-.63239541zm-.31593414.50834553h.63239541v.50816984h-.63233684zm-.63274684.50816984h.94868098v.50822841h-.94868098z"/><path d="m4.74311203 5.0825183h.31616842v.50834554h-.31616842zm-1.58142782-.50816984h.31628556v.50822841h-.31628556zm-3.16168421 0h.31616842v.50822841h-.31616842zm6.32354413 0h.31616842v.50822841h-.31610985zm-4.74311203 2.54114202h.31616843v.50822841h-.31610985z"/><path d="m1.26455654 7.62366032h.94862241v.50822841h-.94862241zm-.31593413.50822841h1.58107639v.5082284h-1.58107639zm3.79448962-1.01639825h.31616842v.50822841h-.31616842z"/><path d="m4.42624075 7.62366032h.94868098v.50822841h-.94868098zm-.31587556.50822841h1.58101781v.5082284h-1.58095924zm.31587556 2.54114197h1.58107639v.5082285h-1.58107639zm-.63175113-2.03291357h2.21341323v.50834553h-2.21341323zm-3.16267992 0h2.21341323v.50834553h-2.21341323zm.31681271 2.54114207h.9486224v.5082284h-.9486224zm-.31681271-.5082285h1.58101782v.5082285h-1.58095925zm4.42717789-1.01645676h1.58107639v.50822836h-1.58107639zm-.31587556 1.52468526h.94856383v.5082284h-.94856383z"/><path d="m1.26455654 11.689429h.31616842v.5083455h-.31616842zm3.79443105 0h.31616842v.5083455h-.31610985zm-5.05898759-2.03285506h1.58107639v.50822836h-1.58107639zm2.84586722 1.01645676h.9486224v.5082285h-.9486224zm.31581699.5082285h.31628556v.5082284h-.31628556zm-.94850526-1.52468526h2.21341323v.50822836h-2.21341323zm1.26449797-7.62330893h.63245398v.5082284h-.63245398z"/><path d="m2.84586722 2.54143485h.9486224v.5082284h-.9486224z"/><path d="m2.52911308 3.04966325h.63239541v.50834553h-.63239541zm.94856384 0h.63245398v.50834553h-.63245398zm-3.47767692-.5082284h.63245399v.5082284h-.63245399z"/><path d="m.31593414 3.04966325h.63245398v.50834553h-.63245398zm5.69173443-.5082284h.63239541v.5082284h-.63239541zm-.31599271.5082284h.63245399v.50834553h-.63245399zm-5.69167586 4.57399707h.31616842v.50822841h-.31616842zm6.32354413 0h.31616842v.50822841h-.31610985zm-3.47767691 4.06576868h.9486224v.5083455h-.9486224z"/><path d="m2.52911308 12.197716h.63239541v.5082284h-.63239541zm.94856384 0h.63245398v.5082284h-.63245398zm-1.26449797.5082284h.63239541v.5082284h-.63239541zm1.58131067 0h.63233684v.5082284h-.63227827z"/><path d="m1.89724481 13.2140556h.63245399v.5083456h-.63245399zm2.21312038 0h.63245398v.5083456h-.63245398zm-2.52993309.5083456h.63239542v.5082284h-.63233684zm2.84580865 0h.63257113v.5082284h-.63257113z"/><path d="m.94862241 14.230571h.9486224v.5082284h-.9486224zm3.79448962 0h.94856383v.5082284h-.94856383z"/><path d="m5.37492173 13.7224012h.63239541v.5082284h-.63239541zm.31675413-.5083456h.63245399v.5083456h-.63245399z"/><path d="m6.00766857 12.7059444h.63239541v.5082284h-.63239541zm-5.37585887 1.0164568h.63245398v.5082284h-.63245398zm-.31587556-.5083456h.63245398v.5083456h-.63245398z"/><path d="m0 12.7059444h.63245399v.5082284h-.63245399zm1.26455654 2.032855h.31616842v.5082284h-.31616842zm3.79443105 0h.31616842v.5082284h-.31610985zm-1.89730338-1.5247438h.31628556v.5083456h-.31628556zm-.94850526 1.5247438h.31616842v.5082284h-.31616842zm1.89718624 0h.31616842v.5082284h-.31616842zm-.94868098 0h.31628556v.5082284h-.31628556zm-3.16168421 0h.31616842v.5082284h-.31616842zm6.32354413 0h.31616842v.5082284h-.31610985zm-3.16185992-7.11513908h.31628556v.50822841h-.31628556zm-1.58125211-5.08222547h.31616843v.5082284h-.31610985zm3.16267993 0h.31616842v.5082284h-.31616842zm-1.89724481 3.55754026h.9486224v.50834553h-.9486224z"/><path d="m2.21317895 6.60720351h.94850526v.50834554h-.94844669z"/><path d="m2.52911308 7.11549048h.31610985v.50822841h-.31610985zm-.63186827-1.01651537h.63245399v.50834553h-.63245399z"/><path d="m2.21317895 5.59080527h.94850526v.5082284h-.94844669z"/><path d="m2.52911308 5.0825183h.31610985v.50834554h-.31610985zm.94856384.50828697h.94856383v.5082284h-.94850526z"/><path d="m3.79448962 5.0825183h.31616842v.50834554h-.31616842zm.31587557 1.01645681h.63245398v.50834553h-.63245398z"/><path d="m3.47767692 6.60720351h.94856383v.50834554h-.94850526z"/><path d="m3.79448962 7.11549048h.31616842v.50822841h-.31616842zm1.26449797-1.01651537h.63239541v.50834553h-.63233684z"/><path d="m5.37492173 5.59080527h.9486224v.5082284h-.9486224z"/><path d="m6.00766857 6.09897511h.63239541v.50834553h-.63239541z"/><path d="m5.37492173 6.60720351h.9486224v.50834554h-.9486224z"/><path d="m5.69167586 7.11549048h.31628557v.50822841h-.31628557zm0-2.03297218h.31628557v.50834554h-.31628557zm-5.69167586 1.01645681h.63245399v.50834553h-.63245399z"/><path d="m.31593414 5.59080527h.9486224v.5082284h-.9486224z"/><path d="m.94862241 6.09897511h.63245398v.50834553h-.63245398z"/><path d="m.31593414 6.60720351h.9486224v.50834554h-.9486224z"/><path d="m.6318097 7.11549048h.31616842v.50822841h-.31616842zm0-2.03297218h.31616842v.50834554h-.31616842zm-.31587556 4.06582723h1.26479082v.50822841h-1.26479082zm1.58131067 0h1.26479083v.50822841h-1.26479083zm1.58043211 0h1.26484939v.50822841h-1.26490797zm1.58131067 0h1.26479083v.50822841h-1.26479083zm-2.52987451 1.01639827h1.58101782v.5083455h-1.58101782zm-2.21317894 0h1.58101781v.5083455h-1.58101781zm4.42717789 0h1.58101782v.5083455h-1.58101782zm1.5804321 2.0329722h.31616842v.5082284h-.31610985zm-6.32354413 0h.31616842v.5082284h-.31616842zm.31593414 17.2797071h.31616842v-.5082284h-.31616842zm.9486224 0h.94862241v-.5082284h-.94862241z"/><path d="m1.5804321 29.985183h.31616843v-.5082284h-.31610985zm1.58125211 0h.31628556v-.5082284h-.31628556zm1.26455654-.5077599h.94868098v-.5082284h-.94868098z"/><path d="m4.74311203 29.985183h.31616842v-.5082284h-.31616842zm-3.79448962-1.0162225h.63245398v-.5082284h-.63245398zm.9486224 0h.63245399v-.5082284h-.63245399zm2.21312038 0h.63245398v-.5082284h-.63245398zm.9486224 0h.63239541v-.5082284h-.63233684zm-2.84580864-.5084627h.63239541v-.5082284h-.63239541zm1.58131067 0h.63233684v-.5082284h-.63227827zm1.58043211 0h.63239541v-.5082284h-.63239541zm.63274684 1.0169253h.31610985v-.5082284h-.31616842zm-5.69173443-1.5246852h.63245398v-.5082284h-.63245398z"/><path d="m2.52911308 27.9527379h.63239541v-.5082284h-.63239541zm3.16256278 0h.63245399v-.5082284h-.63245399zm-5.05986616-1.5246266h.63245398v-.5083456h-.63245398zm.31681271-.5085213h.63245398v-.5081698h-.63245398zm1.26455654.5085213h.63239541v-.5083456h-.63239541zm-.31593414-.5085213h.63245399v-.5081698h-.63245399zm-.63268827-.5084626h.94862241v-.5082284h-.94862241z"/><path d="m1.5804321 24.9033675h.31616843v-.5082284h-.31610985zm2.21405752 1.5247438h.63233684v-.5083456h-.63227827zm.31587557-.5085213h.63245398v-.5081698h-.63245398zm1.26455654.5085213h.63239541v-.5083456h-.63239541zm-.31593414-.5085213h.63239541v-.5081698h-.63233684zm-.63274684-.5084626h.94868098v-.5082284h-.94868098z"/><path d="m4.74311203 24.9033675h.31616842v-.5082284h-.31616842zm-1.58142782.5077599h.31628556v-.5082284h-.31628556zm-3.16168421 0h.31616842v-.5082284h-.31616842zm6.32354413 0h.31616842v-.5082284h-.31610985zm-4.74311203-2.5408492h.31616843v-.5083455h-.31610985z"/><path d="m1.26455654 22.3625183h.94862241v-.5083455h-.94862241zm-.31593413-.5084627h1.58107639v-.5083455h-1.58107639zm3.79448962 1.0162226h.31616842v-.5083455h-.31616842z"/><path d="m4.42624075 22.3625183h.94868098v-.5083455h-.94868098zm-.31587556-.5084627h1.58101781v-.5083455h-1.58095924zm.31587556-2.5409077h1.58107639v-.5083456h-1.58107639zm-.63175113 2.0323865h2.21341323v-.5082284h-2.21341323zm-3.16267992 0h2.21341323v-.5082284h-2.21341323zm.31681271-2.5408492h.9486224v-.5084627h-.9486224zm-.31681271.5084627h1.58101782v-.5083456h-1.58095925zm4.42717789 1.0162225h1.58107639v-.5083455h-1.58107639zm-.31587556-1.5246852h.94856383v-.5083455h-.94856383zm-4.74311203 1.5246852h1.58107639v-.5083455h-1.58107639zm2.84586722-1.0162225h.9486224v-.5083456h-.9486224zm.31581699-.5084627h.31628556v-.5083455h-.31628556zm-.94850526 1.5246852h2.21341323v-.5083455h-2.21341323zm1.26449797 7.6233675h.63245398v-.5082284h-.63245398zm-.6318097-.5085212h.9486224v-.5081698h-.9486224zm-.31675414-.5083455h.63239541v-.5083456h-.63239541zm.94856384 0h.63245398v-.5083456h-.63245398zm-3.47767692.5083455h.63245399v-.5081698h-.63245399zm.31593414-.5083455h.63245398v-.5083456h-.63245398zm5.69173443.5083455h.63239541v-.5081698h-.63239541zm-.31599271-.5083455h.63245399v-.5083456h-.63245399zm-5.69167586-4.5733529h.31616842v-.5083455h-.31616842zm6.32354413 0h.31616842v-.5083455h-.31610985zm-3.79443105-4.5740556h.63239541v-.5083456h-.63239541zm.94856384 0h.63245398v-.5083456h-.63245398zm-1.26449797-.5084627h.63239541v-.5083455h-.63239541zm1.58131067 0h.63233684v-.5083455h-.63227827zm-1.89724481-.5084627h.63245399v-.5083455h-.63245399zm2.21312038 0h.63245398v-.5083455h-.63245398z"/><path d="m1.5804321 16.2637775h.63239542v-.5083456h-.63233684zm2.84580865 0h.63257113v-.5083456h-.63257113zm-3.47761834-.5084627h.9486224v-.5083455h-.9486224zm3.79448962 0h.94856383v-.5083455h-.94856383zm.6318097.5084627h.63239541v-.5083456h-.63239541z"/><path d="m5.69167586 16.7715373h.63245399v-.5083455h-.63245399zm.31599271.5084627h.63239541v-.5083455h-.63239541zm-5.37585887-1.0162225h.63245398v-.5083456h-.63245398z"/><path d="m.31593414 16.7715373h.63245398v-.5083455h-.63245398zm-.31593414.5084627h.63245399v-.5083455h-.63245399zm1.26455654-2.0329722h.31616842v-.5082284h-.31616842zm1.89712767 1.5245095h.31628556v-.5083455h-.31628556zm0 5.590981h.31628556v-.5083455h-.31628556zm-1.58125211 5.0816984h.31616843v-.5081698h-.31610985zm3.16267993 0h.31616842v-.5081698h-.31616842zm-1.89724481-3.5570718h.9486224v-.5082284h-.9486224zm-.63268827-.5085212h.94850526v-.5081698h-.94844669zm.31593413-.5083455h.31610985v-.5083455h-.31610985zm-.63186827 1.0168667h.63245399v-.5082284h-.63245399z"/><path d="m2.21317895 24.3949048h.94850526v-.5082284h-.94844669zm.31593413.5084627h.31610985v-.5082284h-.31610985zm.94856384-.5084627h.94856383v-.5082284h-.94850526zm.3168127.5084627h.31616842v-.5082284h-.31616842z"/><path d="m4.11036519 23.8871449h.63245398v-.5082284h-.63245398zm-.63268827-.5085212h.94856383v-.5081698h-.94850526zm.3168127-.5083455h.31616842v-.5083455h-.31616842zm1.26449797 1.0168667h.63239541v-.5082284h-.63233684z"/><path d="m5.37492173 24.3949048h.9486224v-.5082284h-.9486224z"/><path d="m6.00766857 23.8871449h.63239541v-.5082284h-.63239541zm-.63274684-.5085212h.9486224v-.5081698h-.9486224zm.31675413-.5083455h.31628557v-.5083455h-.31628557zm0 2.0330893h.31628557v-.5082284h-.31628557zm-5.69167586-1.0162226h.63245399v-.5082284h-.63245399z"/><path d="m.31593414 24.3949048h.9486224v-.5082284h-.9486224z"/><path d="m.94862241 23.8871449h.63245398v-.5082284h-.63245398zm-.63268827-.5085212h.9486224v-.5081698h-.9486224zm.31587556-.5083455h.31616842v-.5083455h-.31616842zm0 2.0330893h.31616842v-.5082284h-.31616842zm-.31587556-4.0655344h1.26479082v-.5083455h-1.26479082zm1.58131067 0h1.26479083v-.5083455h-1.26479083zm1.58043211 0h1.26484939v-.5083455h-1.26490797zm1.58131067 0h1.26479083v-.5083455h-1.26479083zm-2.52987451-1.0169253h1.58101782v-.5083456h-1.58101782zm-2.21317894 0h1.58101781v-.5083456h-1.58101781zm4.42717789 0h1.58101782v-.5083456h-1.58101782zm1.5804321-2.0324451h.31616842v-.5083456h-.31610985zm-6.32354413 0h.31616842v-.5083456h-.31616842zm2.84586722-2.5414349h.31616842v.5083456h-.31616842zm.6318097 0h.31616842v.5083456h-.31616842zm0-1.0164568h.31616842v.5082284h-.31616842zm-.6318097 0h.31616842v.5082284h-.31616842zm-2.21405752 13.7221669h.63245398v.5083456h-.63245398zm4.42717789-9.6565154h.31616842v-.5083455h-.31610985zm-3.79443105 0h.31616842v-.5083455h-.31616842zm1.58113496-.5079941h.94856384v.5081698h-.94856384z"/></g></g></g></g></svg>