<svg height="48" viewBox="0 0 48 48" width="48" xmlns="http://www.w3.org/2000/svg" xmlns:xlink="http://www.w3.org/1999/xlink"><defs><rect id="a" height="30" rx="4" width="40" x="4" y="9"/><mask id="b" fill="#fff"><use fill="#fff" fill-rule="evenodd" xlink:href="#a"/></mask></defs><g fill="none" fill-rule="evenodd"><path d="m0 0h48v48h-48z"/><use fill="#d8d8d8" xlink:href="#a"/><g mask="url(#b)"><g transform="translate(4 9)"><path d="m0 0h40v30h-40z" fill="#fff" fill-rule="nonzero"/><g fill="#bf0a30" fill-rule="evenodd"><path d="m0 0h10.625v30h-10.625z"/><path d="m29.375 0h10.625v30h-10.6249413z"/><path d="m12.8242383 14.8101953-.8242383.2817188 3.8353125 3.3659765c.2900391.8650782-.1007812 1.1200781-.3498047 1.5738281l4.1636719-.5285156-.1083984 4.1901563.8623828-.0247852-.188086-4.1553515 4.1677735.4940625c-.2579297-.5447461-.4875-.8339649-.2488477-1.704961l3.8328516-3.1890234-.6707227-.2428125c-.5484375-.4231641.2369531-2.038125.3554297-3.0573047 0 0-2.2379883.7696289-2.3846484.3669141l-.5699414-1.0948243-2.0359571 2.2365235c-.2224218.0533203-.3171679-.0351563-.369375-.223125l.9406055-4.67378909-1.4894531.83771485c-.1246875.05332031-.249375.00732421-.3315235-.13798828l-1.4326172-2.87460938-1.4771484 2.98535156c-.1113281.10699219-.222832.11935547-.3153516.04664063l-1.4182031-.79558594.8513672 4.63728515c-.0677344.1839844-.2299219.2358398-.4207031.1361719l-1.94625-2.2111524c-.2545899.4079297-.4271485 1.074375-.7636524 1.2237305-.3365625.1398633-1.4636718-.2825977-2.2191211-.4474805.2580469.9313477 1.065 2.4786328.5542969 2.9857618z"/></g></g></g></g></svg>