<svg height="48" viewBox="0 0 48 48" width="48" xmlns="http://www.w3.org/2000/svg" xmlns:xlink="http://www.w3.org/1999/xlink"><defs><rect id="a" height="30" rx="4" width="40" x="4" y="9"/><mask id="b" fill="#fff"><use fill="#fff" fill-rule="evenodd" xlink:href="#a"/></mask></defs><g fill="none" fill-rule="evenodd"><path d="m0 0h48v48h-48z"/><use fill="#d8d8d8" xlink:href="#a"/><g mask="url(#b)"><g transform="translate(4 9)"><path d="m14.9994141 0h25.0005859v15h-25.0005859z" fill="#fff" fill-rule="evenodd"/><path d="m4 .5c-1.93299662 0-3.5 1.56700338-3.5 3.5v22c0 1.9329966 1.56700338 3.5 3.5 3.5h32c1.9329966 0 3.5-1.5670034 3.5-3.5v-22c0-1.93299662-1.5670034-3.5-3.5-3.5z" fill="none" stroke="#dedede"/><g fill-rule="evenodd"><path d="m0 0h15v15h-15z" fill="#0039a6"/><path d="m9.83320312 11.2330078-2.32341796-1.74240233-2.31199219 1.75957033.85980469-2.85937502-2.30777344-1.76560547 2.85515625-.02460937.88564453-2.85058594.90451172 2.84396484 2.85515628.00375-2.29593753 1.78230469.87890625 2.85292967z" fill="#fff"/><path d="m0 15h40v15h-40z" fill="#d52b1e"/></g></g></g></g></svg>