<svg height="48" viewBox="0 0 48 48" width="48" xmlns="http://www.w3.org/2000/svg" xmlns:xlink="http://www.w3.org/1999/xlink"><defs><path id="a" d="m8 9h32c2.209139 0 4 1.790861 4 4v22c0 2.209139-1.790861 4-4 4h-32c-2.209139 0-4-1.790861-4-4v-22c0-2.209139 1.790861-4 4-4z"/><mask id="b" fill="#fff"><use fill="#fff" fill-rule="evenodd" xlink:href="#a"/></mask></defs><g fill="none" fill-rule="evenodd"><path d="m0 0h48v48h-48z"/><use fill="#d8d8d8" xlink:href="#a"/><g mask="url(#b)"><g transform="translate(4 9)"><g fill-rule="nonzero"><path d="m0 0h40v30h-40z" fill="#fff"/><path d="m19.24 24.9125c-.0065888-.0028158-.0125094-.0069901-.017375-.01225l-.00625-.005875c-.01625-.0148125-.043-.0410625-.0790625-.082125-.066625-.075625-.1559375-.186375-.2345-.28425-.15575-.194125-.284375-.361375-.30875-.392875l-.039625-.051625-.38825-.11975-.2835625-.1321875.1515625-.1703125.520375.2228125.3884375.0796875.718125.528125-.000625.0005c-.001375.00125-.104375.086875-.20675.18-.045625.0414375-.103125.09475-.14375.139125-.01875.020375-.0353125.040625-.0465625.057-.006875.01-.01075.019125-.012625.0235625l.044625-.02775.0483125.0375-.098375.0091875-.0045.001zm-2.667-.801c-.338875 0-.6735625-.09375-.99475-.278375l-.000375-.0001875.000125-.000375s.042-.08.143875-.1546875c.0970625-.07125.272125-.1564375.555-.1575h.005875c.335 0 .745.113875 1.218625.3385-.016.010625-.38775.2528125-.92825.2528125l.0005.0005zm-1.4685-.3255c-.062625 0-.1189375-.02375-.1585-.066625-.0325-.0353125-.055625-.0823125-.071125-.1439375-.0251875-.100875-.01825-.20125-.0175-.2108125.0247179-.0107032.0512089-.016722.078125-.01775l.005625-.000125c.1255 0 .224375.1089375.266875.216875.024.061375.028625.1129375.013625.153375-.015.0405-.062.0685-.117.0685zm2.584-.2995c-.8679375-.1239375-1.235875-.43775-1.391625-.679125-.16625-.2575-.1320625-.495625-.13175-.498l.000125-.00075.000625-.0001875c.0003125 0 .053125-.01425.1329375-.014625.231 0 .8215625.11625 1.39 1.1921875l.000375.000625-.001-.0004375zm-1.779-.172c-.3708125 0-.653125-.064-.839125-.1901875-.106875-.0725-.1591875-.15225-.18425-.20625-.0151567-.0319842-.0251957-.0661505-.02975-.10125.0098125-.0045.161625-.071875.38825-.0825.0191875-.000875.0385-.0014375.05875-.0015.2865625 0 .722375.0935 1.18225.539l.0004375.0004375h-.000625c-.21.0275-.4039375.0420625-.5764375.0420625zm-1.7955-.069c-.391 0-.928125-.119375-1.263125-.454375l-.000375-.000375.001-.00025c.0035-.000875.3670625-.093125.776125-.103125.024375-.000625.0489375-.000875.07375-.000875.366625 0 .6471875.0710625.834125.21125.06525.0489375.100875.0945.108875.139125.0066875.0373125-.013.0775-.0528125.1075-.084125.0635625-.2345625.0975-.44725.100875l-.03.001zm-1.267-.65c-.0479749.0001067-.093466-.0213198-.1239375-.058375-.025375-.030625-.043-.07075-.0555-.1260625-.020875-.0925-.0145625-.1828125-.0145-.18375v-.000875c.019121-.008748.0398503-.0134302.060875-.01375h.000125c.057875 0 .101875.0315.129375.0579375.0378658.0370769.0667668.0823096.0845.13225.01825.0515.02125.0945625.009.13175-.01.0295-.044.0605-.09.0605zm2.9265-.066c-.062625 0-.1189375-.02375-.1585-.066625-.0325-.0353125-.055625-.0823125-.071125-.1439375-.0251875-.100875-.01825-.20125-.0175-.2108125.0247179-.0107032.0512089-.016722.078125-.01775l.005625-.000125c.1255 0 .224375.1089375.266875.216875.024.061375.028625.1129375.013625.153375-.015.041-.0625.0685-.117.0685zm-1.4255-.059c-.786875-.0276875-1.1951875-.251375-1.3991875-.434125-.1148125-.1029375-.178625-.205-.211875-.272375-.0315-.06375-.043375-.1125-.0455-.121875l.0010625-.0004375s.074375-.026625.1941875-.029l.0184375-.0001875c.2653125 0 .8055.1115 1.4425.8576875v.0005zm.8545-.0795c-.633125-.096375-.9916875-.368125-1.181125-.57925-.1985-.22125-.258-.4273125-.260625-.436875.001125-.000375.0785-.0205.195-.0235.0179542-.0005437.0359208-.0005437.053875 0 .318375.007.8966875.15125 1.19275 1.03925h.0005zm-3.25-.304c-.2075 0-.40875-.024-.598125-.071375-.3314375-.082875-.473625-.209375-.5345-.301-.034625-.052-.0471875-.097625-.0515625-.12675-.0027748-.0177381-.0032998-.0357555-.0015625-.053625l.0015625-.000625c.0008125-.000125.22-.0616875.523125-.06625.1558187-.0028182.3114928.0110102.464375.04125.526875.1051875.800125.502875.8028125.506875l.00025.0004375-.000625.000125c-.003125.0005-.2540625.071-.6060625.071zm1.4695-.534c-.0634375 0-.11975-.023125-.158625-.0651875-.031875-.0345625-.0551875-.0821875-.071-.1454375-.02525-.10075-.01825-.2-.0175-.20925.024722-.0106817.0512129-.0166793.078125-.0176875l.005625-.000125c.12525 0 .224375.1089375.266875.216875.023375.059375.0275.1104375.012125.15175-.0155.042-.061.069-.1155.069zm-1.105-.1515c-.00475-.001125-.298875-.076875-.598375-.26125-.2771875-.170625-.61625-.4725-.657625-.9415v-.00025l.000625-.0001875c.000125 0 .025875-.00625.064-.0076875.00525-.0001875.0108125-.0003125.0166875-.0003125.0828125 0 .2523125.0233125.4573125.1791875.261.199.502.546.7175 1.0325zm.7215-.0265c-.001875-.00075-.2114375-.084625-.4734375-.3041875-.2440625-.204625-.58725-.573-.83575-1.1665.000125-.000125.057125-.0305.144375-.036.0050762-.0003333.010163-.0004792.01525-.0004375.0075 0 .01525.00025.023125.0004375.120625.0034375.304125.0535.5076875.273125.23375.252375.4425.6670625.6201875 1.232625l.0005.0015625-.0015-.0004375zm-1.8695-.0545c-.2410625 0-.3235625-.13075-.347875-.187-.039875-.0925-.02775-.184375-.0276875-.185375l.000125-.001c.0392741-.0097631.0795354-.0150054.12-.015625l.008125-.000125c.19 0 .34.0965.40425.1920625.01275.0189375.051875.0846875.0195.1360625-.026.0405-.085.061-.1765.061zm-.534-.6735c-.134625 0-.340625-.00825-.5570625-.047625-.2146875-.039-.336375-.2215625-.400625-.36775-.07-.15925-.0896875-.31125-.09-.31275h.000625c.6641875.0195.9778125.2135625 1.124.372875.1509375.1645.159875.3353125.160375.346125h-.0004375c-.0010625 0-.0945625.009-.2370625.009zm.6915-.691c-.053945-.0679537-.1045466-.1384957-.151625-.211375-.07875-.12225-.1514375-.2498125-.1514375-.35425 0-.10075-.02375-.31325-.0378125-.4309375-.0179375-.1491875-.036-.276875-.0375-.28775l.000625.0001875c.016875.0060625.415375.155625.415375.529375 0 .3745625-.036875.7508125-.03725.7545625v.000625h-.0005zm-.5165-.0355c-.0041875 0-.008375-.000375-.0125-.0010625-.1178125-.0195625-.3248125-.109625-.553625-.2408125-.254125-.145625-.4605-.301875-.581-.4395625-.11-.125625-.1751875-.322875-.194-.58625-.013375-.187.002625-.34275.004375-.358125.020625-.006875.0425-.01025.065625-.01025.08825.0014375.1825.041125.3095.12875.0990625.068125.20825.161.3245.275625.200625.197875.3584375.396625.36.3985625l.0015625.002c.0133125.02375.126875.2285.2154375.4278125.05625.126625.0883125.217875.10125.2873125.0073125.0395625.009375.0655-.00025.0890625-.0037228.0094079-.0105034.0172892-.01925.022375-.0069381.0030215-.0144327.0045545-.022.0045z" fill="#435125"/><path d="m9.8025 6.6625c-.00658879-.00281583-.01250939-.00699006-.017375-.01225l-.00625-.005875c-.01625-.0148125-.043-.0410625-.0790625-.082125-.066625-.075625-.1559375-.186375-.2345-.28425-.15575-.194125-.284375-.361375-.30875-.392875l-.039625-.051625-.38825-.11975-.2835625-.1321875.1515625-.1703125.520375.2228125.3884375.0796875.718125.528125-.000625.0005c-.001375.00125-.104375.086875-.20675.18-.045625.0414375-.103125.09475-.14375.139125-.01875.020375-.0353125.040625-.0465625.057-.006875.01-.01075.019125-.012625.0235625l.044625-.02775.0483125.0375-.098375.0091875-.0045.001zm-2.667-.801c-.338875 0-.6735625-.09375-.99475-.278375l-.000375-.0001875.000125-.000375s.042-.08.143875-.1546875c.0970625-.07125.272125-.1564375.555-.1575h.005875c.335 0 .745.113875 1.218625.3385-.016.010625-.38775.2528125-.92825.2528125l.0005.0005zm-1.4685-.3255c-.062625 0-.1189375-.02375-.1585-.066625-.0325-.0353125-.055625-.0823125-.071125-.1439375-.0251875-.100875-.01825-.20125-.0175-.2108125.0247179-.01070322.05120889-.01672197.078125-.01775l.005625-.000125c.1255 0 .224375.1089375.266875.216875.024.061375.028625.1129375.013625.153375-.015.0405-.062.0685-.117.0685zm2.584-.2995c-.8679375-.1239375-1.235875-.43775-1.391625-.679125-.16625-.2575-.1320625-.495625-.13175-.498l.000125-.00075.000625-.0001875c.0003125 0 .053125-.01425.1329375-.014625.231 0 .8215625.11625 1.39 1.1921875l.000375.000625-.001-.0004375zm-1.779-.172c-.3708125 0-.653125-.064-.839125-.1901875-.106875-.0725-.1591875-.15225-.18425-.20625-.0151567-.03198419-.0251957-.06615053-.02975-.10125.0098125-.0045.161625-.071875.38825-.0825.0191875-.000875.0385-.0014375.05875-.0015.2865625 0 .722375.0935 1.18225.539l.0004375.0004375h-.000625c-.21.0275-.4039375.0420625-.5764375.0420625zm-1.7955-.069c-.391 0-.928125-.119375-1.263125-.454375l-.000375-.000375.001-.00025c.0035-.000875.3670625-.093125.776125-.103125.024375-.000625.0489375-.000875.07375-.000875.366625 0 .6471875.0710625.834125.21125.06525.0489375.100875.0945.108875.139125.0066875.0373125-.013.0775-.0528125.1075-.084125.0635625-.2345625.0975-.44725.100875l-.03.001zm-1.267-.65c-.04797493.00010668-.09346597-.02131976-.1239375-.058375-.025375-.030625-.043-.07075-.0555-.1260625-.020875-.0925-.0145625-.1828125-.0145-.18375v-.000875c.01912103-.008748.03985028-.01343017.060875-.01375h.000125c.057875 0 .101875.0315.129375.0579375.03786578.03707692.06676678.08230956.0845.13225.01825.0515.02125.0945625.009.13175-.01.0295-.044.0605-.09.0605zm2.9265-.066c-.062625 0-.1189375-.02375-.1585-.066625-.0325-.0353125-.055625-.0823125-.071125-.1439375-.0251875-.100875-.01825-.20125-.0175-.2108125.0247179-.01070322.05120889-.01672197.078125-.01775l.005625-.000125c.1255 0 .224375.1089375.266875.216875.024.061375.028625.1129375.013625.153375-.015.041-.0625.0685-.117.0685zm-1.4255-.059c-.786875-.0276875-1.1951875-.251375-1.3991875-.434125-.1148125-.1029375-.178625-.205-.211875-.272375-.0315-.06375-.043375-.1125-.0455-.121875l.0010625-.0004375s.074375-.026625.1941875-.029l.0184375-.0001875c.2653125 0 .8055.1115 1.4425.8576875v.0005zm.8545-.0795c-.633125-.096375-.9916875-.368125-1.181125-.57925-.1985-.22125-.258-.4273125-.260625-.436875.001125-.000375.0785-.0205.195-.0235.01795422-.00054367.03592078-.00054367.053875 0 .318375.007.8966875.15125 1.19275 1.03925h.0005zm-3.25-.304c-.2075 0-.40875-.024-.598125-.071375-.3314375-.082875-.473625-.209375-.5345-.301-.034625-.052-.0471875-.097625-.0515625-.12675-.00277482-.01773808-.0032998-.03575545-.0015625-.053625l.0015625-.000625c.0008125-.000125.22-.0616875.523125-.06625.15581867-.00281819.31149284.0110102.464375.04125.526875.1051875.800125.502875.8028125.506875l.00025.0004375-.000625.000125c-.003125.0005-.2540625.071-.6060625.071zm1.4695-.534c-.0634375 0-.11975-.023125-.158625-.0651875-.031875-.0345625-.0551875-.0821875-.071-.1454375-.02525-.10075-.01825-.2-.0175-.20925.02472204-.01068173.05121288-.01667926.078125-.0176875l.005625-.000125c.12525 0 .224375.1089375.266875.216875.023375.059375.0275.1104375.012125.15175-.0155.042-.061.069-.1155.069zm-1.105-.1515c-.00475-.001125-.298875-.076875-.598375-.26125-.2771875-.170625-.61625-.4725-.657625-.9415v-.00025l.000625-.0001875c.000125 0 .025875-.00625.064-.0076875.00525-.0001875.0108125-.0003125.0166875-.0003125.0828125 0 .2523125.0233125.4573125.1791875.261.199.502.546.7175 1.0325zm.7215-.0265c-.001875-.00075-.2114375-.084625-.4734375-.3041875-.2440625-.204625-.58725-.573-.83575-1.1665.000125-.000125.057125-.0305.144375-.036.00507623-.00033329.01016302-.00047922.01525-.0004375.0075 0 .01525.00025.023125.0004375.120625.0034375.304125.0535.5076875.273125.23375.252375.4425.6670625.6201875 1.232625l.0005.0015625-.0015-.0004375zm-1.8695-.0545c-.2410625 0-.3235625-.13075-.347875-.187-.039875-.0925-.02775-.184375-.0276875-.185375l.000125-.001c.03927409-.00976306.07953535-.01500541.12-.015625l.008125-.000125c.19 0 .34.0965.40425.1920625.01275.0189375.051875.0846875.0195.1360625-.026.0405-.085.061-.1765.061zm-.534-.6735c-.134625 0-.340625-.00825-.5570625-.047625-.2146875-.039-.336375-.2215625-.400625-.36775-.07-.15925-.0896875-.31125-.09-.31275h.000625c.6641875.0195.9778125.2135625 1.124.372875.1509375.1645.159875.3353125.160375.346125h-.0004375c-.0010625 0-.0945625.009-.2370625.009zm.6915-.691c-.05394498-.0679537-.10454665-.13849568-.151625-.211375-.07875-.12225-.1514375-.2498125-.1514375-.35425 0-.10075-.02375-.31325-.0378125-.4309375-.0179375-.1491875-.036-.276875-.0375-.28775l.000625.0001875c.016875.0060625.415375.155625.415375.529375 0 .3745625-.036875.7508125-.03725.7545625v.000625h-.0005zm-.5165-.0355c-.0041875 0-.008375-.000375-.0125-.0010625-.1178125-.0195625-.3248125-.109625-.553625-.2408125-.254125-.145625-.4605-.301875-.581-.4395625-.11-.125625-.1751875-.322875-.194-.58625-.013375-.187.002625-.34275.004375-.358125.020625-.006875.0425-.01025.065625-.01025.08825.0014375.1825.041125.3095.12875.0990625.068125.20825.161.3245.275625.200625.197875.3584375.396625.36.3985625l.0015625.002c.0133125.02375.126875.2285.2154375.4278125.05625.126625.0883125.217875.10125.2873125.0073125.0395625.009375.0655-.00025.0890625-.00372282.0094079-.0105034.01728923-.01925.022375-.00693811.00302147-.01443272.00455446-.022.0045z" fill="#435125" transform="matrix(-1 0 0 1 27.671375 18.25)"/><path d="m32.4415 4.77375-.11775.046875-.046125.0185-.14275-.007875-.133625.064125-.237.162-.0104375.0075-.0883125.023-.0820625-.035375-.0465625.02125-.016125.0959375-.044375.0689375-.0545625.038375-.18925.019375-.1595.08225-.2075-.055625-.096375.0378125-.205.1845625-.1046875.049625-.036625-.002125-.138875-.007125-.05875.0191875-.0875.084625-.16575.012875-.0516875.03575-.080875.163-.087625.090375-.0501875.010625-.054375-.019875-.0408125.0071875-.0185.104375-.039625.043625-.111.03825-.088625.073875-.0778125.04-.1041875-.0026875h-.0239375l-.10375.057375-.1953125.017125-.08125.0775-.017875.0165-.037875.022875-.062.037-.0151875.0091875-.07475-.01325-.0875.034625-.0354375-.054375-.0605.03625-.08025.0035-.099875-.0445-.076125-.033875-.055625.008125-.019375.096875-.001875.010375-.0585625.0778125-.1091875.06625-.014875.01925-.12425.1604375-.2360625.24825-.1996875.1014375-.206875.0629375-.144875.119-.38.188375-.5996875.2983125-.122625.039375-.176.028125-.314.1155-.276875.083625-.0154375.0046875-.054875.016625-.3905.118125-.18175-.01925-.107625.039125-.28025-.031125-.194875.003875-.123375.025625-.231875.11125-.39125.188125-.129375.11825-.20125.105-.2358125.0746875.000625-.099125-.0015-.0041875-.0816875.0258125-.0590625.01875-.19125.029375h-.1064375l-.066-.019125-.0103125.0034375-.390875.12875-.435875.0420625-.218125.07-.163125-.002625-.101875.030375-.1996875.024375-.07125-.019-.01625-.004375-.5875.0255-.2685625-.030375-.128125.029125-.214875-.07225-.3134375-.03625-.07325-.022-.16475-.0489375-.0745625.042875-.0558125.006-.133375-.048375-.048-.00125-.110125.0398125-.0633125-.01625-.058875-.046875-.138125-.020625-.084-.070625-.470125.06225-.1275-.0375-.42775-.1245-.068125.0034375-.0846875.0635625-.1275.0464375-.1105.02875-.150625.00525-.174875-.0459375-.18025-.087375-.0666875-.015875-.14875.015-.0454375.0041875-.273375-.146625-.3520625-.220125-.2389375-.1148125-.0896875-.0145-.0120625.0426875.0445.1403125.0151875.13875-.0045625.128125-.0025.079375.0223125.07125.08625.095625.0360625.0959375.02625.2641875-.0003125.268125-.041875.4275-.0141875.065125-.05.2214375-.04575.2034375-.1773125.541625-.04875.0671875-.1195.0815-.2709375.184375-.1995625.115-.063125.02625-.162.0121875-.100875-.0053125-.125625-.068125-.1233125-.0316875-.161625-.11625-.1796875-.037125-.1970625-.113875-.05125-.0616875-.1073125-.01-.14875-.04475v-.0003125l-.0545625-.01625-.03775-.0110625-.1898125-.00525-.176875-.08175-.09325-.0225-.127375-.0064375-.1333125.061875v-.000125l-.0675.0315625-.0854375-.0339375-.06175.003875-.07.10575-.010375.016375-.04825.0255-.06-.0008125-.046875-.00125-.050875.0221875-.068375.029625v.000125l-.060375.026375-.0295.01275-.0005-.0005-.018125.003625-.0323125.005625-.04.007625-.0705-.04125-.0375-.0220625-.0628125-.0128125-.033875.024375-.006625.115125-.0309375.068875-.098125.086625-.0995625.08775-.069375.102375-.183875.4195-.115125.16925-.03575.039375-.1204375.132875-.10675.0828125-.2460625.190625-.2329375.087125-.200625.041-.097625.000375-.18475-.0245625-.16625-.051-.1825-.114125-.2-.1608125-.28975-.28625-.041-.0245625-.0085625-.005625-.09125-.0584375-.067625.0016875-.0265.04375-.0145.063125-.01225.056-.03325.3183125.0025.0184375.0175.13125.22.3075.067875.1633125.011125.018625.0454375.07625.0345625.058125.0034375.006.0751875.224375-.052875.1266875.02675.084875-.066875.051875-.0121875.0733125.1975.247625.043125.10925-.048125.1514375-.076875.0835625-.021375.022875.010875.0639375.090875.08175.154375.1375.0825.204375.0625.05475.072875-.0155.0405.0309375.061375-.0010625.0604375.060375.039125.0189375.061875.0308125.04875.063625.010875.195625.0910625.2429375.0014375.13175.0005.01875.0566875.097375.0178125.076875-.03025.2035.07225.0653125.078375-.0160625.050625.008.08125.06775.0985.15.09625-.0140625.061125.029375.295125.2666875.066875.03375.00375.0021875.048125.024125.059875.0604375.0928125-.061625.0103125-.001125.100875-.008875.044375.0298125.085125.0575.1116875-.0015.2421875.07425.106.02725.213.132375.090625.056.0535625.0435625.071125.058125.14225.061125.122.0291875.066125.015625.04975.019375.00125-.003125.000625.000125-.001125.003125.2641875.10125.143.0333125.1325.04875.09625.0351875.07075.001125.1-.084125.096875-.005625.080375.020125.0785-.013125.12425-.076625.02425-.0359375.088125-.041875.2971875-.036875.086875.028125.223-.097.149375.041625.1323125-.046875.2889375.064125.076875.0540625.0858125.09825.0105.000375.095625.001875-.04.0665625.12625.132375.1139375.17225.0076875.02275.082875.243125.0615625.08625.043125.12025.0020625.078375-.067.051125-.011.029125-.00375.0108125.0135625.03275.02525-.01375.048125-.0266875.0583125-.0090625.1033125.011.068125.0071875.10775-.0534375.071375-.0355.114625.049375.126-.0014375.0529375.0235.14975.0679375.076375.0071875.02825-.0185625.018-.04275-.00925-.0498125-.05725-.06625-.1265625-.146875-.051875-.0754375-.039375-.109375-.01225-.139625-.00875-.094375.01575-.12375.0339375-.04425.025-.0984375h.0004375l.0064375-.02575.0703125-.09325.18625-.1196875.2-.1790625.158125-.10425.1629375-.070625.004375-.0198125.018125.0073125.414625-.1409375.00675-.0008125.184625-.032125 1.246.08775.04625-.014.000125-.0003125.0415-.1165.022375-.0215625.0148125-.0141875.136875-.0603125.064125-.009125.1778125.043875.072875.018.1165625-.065375.08275.001375.170875-.09325.105625.002625.04-.0160625.205625-.1476875.198125-.05675.0515-.0275.018125-.009875.203-.10725.1289375-.099.11125-.0591875.121875-.0314375.3190625-.0225.0641875-.106875.1371875-.01825.082875-.0935.09475-.0385625.068-.0979375.056875-.082.079625-.0460625.255-.0159375.30225.0375.04-.024375.06825-.24375.0715-.045625.1925-.280625.000625-.1023125.00025-.085375.031625-.121625-.0215-.2195.0255-.2223125.1196875-.2825.1055-.1139375.17-.115.0865-.03775.1225-.020625v-.00025l.0179375-.003125.03125-.0053125.4215625-.005625c.0058125-.004375.1533125-.0021875.1533125-.0021875l.140625-.001875.355625.06325.025375.004375.1201875.039.13875.1079375.14675.143375.0275.026875.0951875.04.02875.0125.0785625-.0125.111875-.05825.084375-.071375.115-.0628125.0028125-.0039375.06475-.0975.0020625-.001875.001375.0003125.000125-.000625-.001125-.0001875.0255-.03875.222375-.0866875.2615-.0151875.029375-.0159375.016375-.00875.0690625-.081125.06475-.000625.15675.05675.1103125-.021875.0875.035.068-.008125.12825-.015125.1376875.096875.08025.01025.282875.1655.0146875.002375.007625.0014375.01625.002625.0335-.01.05-.014375.0065625-.001875.00625.008625.0321875.0453125.044125.006375.0521875-.069625-.020625-.031625-.0079375-.0115-.101-.020625-.09075-.155.086375-.093125-.135625-.16625-.0225-.0275-.0075-.011875-.046875-.0710625-.237375-.3616875-.309125-.24675-.000125.0001875-.10825-.086625-.000625-.0005-.038-.02975-.165-.1679375-.118-.1564375-.0154375-.03375-.024375-.053125-.070625-.15375-.123125-.094875-.10025-.109625-.005-.0064375-.206875-.28125-.0340625-.0471875-.048875-.02825-.1033125-.000625-.00975-.009875-.0058125-.0060625.0035-.003625.0495625-.04925.05525-.013875.02375-.0545-.105375-.3051875-.000625-.010625-.0078125-.0975.085875-.44275.0109375-.0539375.146375-.2979375.09075-.074375.0989375-.1945.08475-.124375.08125-.0790625.0141875-.0084375.1466875-.08875.12325-.017375.117375-.0165625.205.063125.195-.00375.038125-.004.0884375-.0101875.1455-.0458125.06875-.0425.035625-.0545625.074375-.249375.02375-.079375.0459375-.086125.2653125-.3054375.200625-.185625.450875-.330625.22075-.131875.1126875-.067375 1.00625-.4473125.2615625-.265.13625-.1379375.2410625-.16175.281875-.115625.2428125-.192.053-.06675.06675-.215125.05575-.0134375.05025-.10875.014375-.030875.1979375-.139625.0225-.01125.769375-.3854375.11175.0153125.06-.0896875.22375-.0375.04125-.007.0551875-.0275.046875-.08v-.0158125l.0065-.21375.0478125-.0576875.0260625-.14075.024375-.0325.02575-.03375.063375-.044625-.011-.0265625z" fill="#d47600"/></g><path d="m4 .5c-1.93299662 0-3.5 1.56700338-3.5 3.5v22c0 1.9329966 1.56700338 3.5 3.5 3.5h32c1.9329966 0 3.5-1.5670034 3.5-3.5v-22c0-1.93299662-1.5670034-3.5-3.5-3.5z" fill="none" stroke="#dedede"/></g></g></g></svg>