<svg height="48" viewBox="0 0 48 48" width="48" xmlns="http://www.w3.org/2000/svg" xmlns:xlink="http://www.w3.org/1999/xlink"><defs><path id="a" d="m8 9h32c2.209139 0 4 1.790861 4 4v22c0 2.209139-1.790861 4-4 4h-32c-2.209139 0-4-1.790861-4-4v-22c0-2.209139 1.790861-4 4-4z"/><mask id="b" fill="#fff"><use fill="#fff" fill-rule="evenodd" xlink:href="#a"/></mask></defs><g fill="none" fill-rule="evenodd"><path d="m0 0h48v48h-48z"/><use fill="#d8d8d8" xlink:href="#a"/><g mask="url(#b)"><g transform="translate(4 9)"><path d="m20 0h20v30h-20z" fill="#fff" fill-rule="nonzero"/><path d="m4 .5c-1.93299662 0-3.5 1.56700338-3.5 3.5v22c0 1.9329966 1.56700338 3.5 3.5 3.5h32c1.9329966 0 3.5-1.5670034 3.5-3.5v-22c0-1.93299662-1.5670034-3.5-3.5-3.5z" fill="none" stroke="#dedede"/><g fill-rule="nonzero"><path d="m0 0h20v30h-20z" fill="#006233"/><path d="m26.5 11.25c-1.6972713-2.93976012-5.157457-4.37301597-8.4363334-3.4944437-3.2788763.87857227-5.5588571 3.8499011-5.5588571 7.2444437s2.2799808 6.3658714 5.5588571 7.2444437c3.2788764.8785723 6.7390621-.5546836 8.4363334-3.4944437-1.5923125 1.9887977-4.2669787 2.7551578-6.6708958 1.9113819-2.4039172-.8437758-4.0128527-3.1136819-4.0128527-5.6613819s1.6089355-4.8176061 4.0128527-5.66138194c2.4039171-.84377588 5.0785833-.07741575 6.6708958 1.91138194zm.25 3.75-6.75-2.2 4.2 5.75v-7.1l-4.2 5.75z" fill="#d21034"/></g></g></g></g></svg>