<svg height="48" viewBox="0 0 48 48" width="48" xmlns="http://www.w3.org/2000/svg" xmlns:xlink="http://www.w3.org/1999/xlink"><defs><path id="a" d="m8 9h32c2.209139 0 4 1.790861 4 4v22c0 2.209139-1.790861 4-4 4h-32c-2.209139 0-4-1.790861-4-4v-22c0-2.209139 1.790861-4 4-4z"/><mask id="b" fill="#fff"><use fill="#fff" fill-rule="evenodd" xlink:href="#a"/></mask></defs><g fill="none" fill-rule="evenodd"><path d="m0 0h48v48h-48z"/><use fill="#d8d8d8" xlink:href="#a"/><g mask="url(#b)"><g transform="translate(4 9)"><g fill="none" fill-rule="nonzero"><path d="m0 0h40v30h-40z" fill="#ffe800"/><path d="m0 15h40v15h-40z" fill="#00148e"/><path d="m0 22.5h40v7.5h-40z" fill="#da0010"/></g><g fill="none" fill-rule="nonzero" transform="translate(11.1875 18.0625)"><path d="m5.659375.114625-4.5265 4.7803125-.0798125-.10275 4.526375-4.7803125.0798125.10275zm3.15325.78125-5.9235625 6.24425-.103875-.09825 5.9235625-6.244375z" fill="#000"/><g fill="#808080" stroke="#000" stroke-width=".1"><path d="m2.16685103 7.09132092.10961834.78296166.10961835-.7829705v-.7829705h-.21923669z" transform="matrix(-.57346234 -.81923192 -.81923192 .57346234 9.612253 5.004673)"/><path d="m.63935103 4.00835118v.7829705l.10961835.78296166.10961834-.7829705v-.7829705h-.21923669z" transform="matrix(-.57346234 -.81923192 -.81923192 .57346234 5.324557 2.77226)"/></g></g><path d="m12.9938125 7.1786s-.4982625 13.4644 1.4948438 13.4644c1.9931062 0 2.9896875-1.41732 2.9896875-1.41732l-.0241875-7.4012-4.4603438-4.646z" fill="#ffdf00" fill-rule="evenodd" stroke="#000" stroke-width=".1"/><path d="m14.2110625 8.433c0 .70868-.2206687 10.7928.7758844 10.7928s2.4913969-.70868 2.4913969-.70868l-.0241875-6.6924-3.2430938-3.3916z" fill="#0000c4" fill-rule="evenodd" stroke="#000" stroke-width=".1"/><path d="m14.859625 9.1114c0 .70868.1272656 8.6968 1.1238188 8.6968h1.4948437l-.0241875-5.9836-2.594475-2.71332z" fill="#e10000" fill-rule="evenodd" stroke="#000" stroke-width=".1"/><path d="m12.887625 7.25125 4.526375 4.7803125.0798125-.102625-4.526375-4.7803125-.07975.102625z" fill="#000" fill-rule="nonzero"/><path d="m11.51965 9.9363s-1.2844462 13.0436375 2.5688925 13.0436375c3.2111338 0 3.2111338-2.0595625 3.853375-2.0595625l-.64235-4.805775-5.7800625-6.1783z" fill="#ffdf00" fill-rule="evenodd" stroke="#000" stroke-width=".1"/><g fill="none" fill-rule="evenodd" stroke="#000" stroke-width=".1" transform="translate(12.9375 7.6875)"><path d="m1.9892775 4.31836365c.02840456 0 .70993832-2.07747972 2.98185125-3.25379605" transform="matrix(.99227788 .12403473 -.12403473 .99227788 .36071 -.410882)"/><path d="m1.40532875 2.58625085c0 .37519319-.074433.65624152-.18462381.93751744-.09170888-.37502767-.14765994-.56232425-.14765994-.93751744 0-.3751932.11131538-.72655016.20304056-1.00780539.03634455.25781212.12924319.63261219.12924319 1.00780539z" fill="#005b00" transform="matrix(.42288546 -.90618314 .90618314 .42288546 -1.596617 2.595211)"/><path d="m2.22885878 3.77062188c0 .05012128-.04895572.09076316-.10932672.09076316s-.10933959-.04064188-.10933959-.09076316c0-.05012129.04894285-.09076317.10932672-.09076317s.10932672.04064188.10932672.09076317z" fill="#f00" transform="matrix(.87415728 -.48564293 .48564293 .87415728 -1.564449 1.503838)"/><g fill="#005b00"><path d="m3.3175184 1.00532088c0 .40196662-.06174957.70307029-.15316382 1.00441779-.07608164-.40178928-.1224986-.60245117-.1224986-1.00441779 0-.40196663.09234718-.77839609.16844234-1.07972143.03015142.27620935.10722008.6777548.10722008 1.07972143z" transform="matrix(.81067923 .58549055 -.58549055 .81067923 1.168542 -1.678477)"/><path d="m2.78940264 1.07619509c0 .37553537-.04927415.65684-.12221975.93837245-.06071067-.37536969-.09774991-.56283708-.09774991-.93837245 0-.37553538.07369006-.72721277.13441152-1.0087245.02405986.25804724.08555814.63318912.08555814 1.0087245z" transform="matrix(.98478356 .17378534 -.17378534 .98478356 .221685 -.449803)"/><path d="m3.25098527 1.330296c0 .29748104-.07338576.52031703-.18202624.74333348-.09041857-.2973498-.14558242-.44585244-.14558242-.74333348s.10974922-.57606293.20018386-.79906298c.03583321.20441261.1274248.50158194.1274248.79906298z" transform="matrix(.33282012 .94299033 -.94299033 .33282012 3.287885 -2.042226)"/><path d="m1.49896241 1.94308177c0 .35405815-.08073391.6192747-.20025264.88470603-.09947224-.35390193-.16015968-.53064788-.16015968-.88470603 0-.35405814.12073848-.68562277.2202284-.95103457.03942121.24328927.14018392.59697643.14018392.95103457z" transform="matrix(.70710678 -.70710678 .70710678 .70710678 -.964261 1.491903)"/><path d="m1.04337334 4.04937283c0 .36283704-.08880731.63462965-.2202779.90664238-.10941947-.36267696-.17617566-.54380534-.17617566-.90664238 0-.36283703.13281233-.70262282.24225125-.97461554.04336332.24932165.15420231.61177851.15420231.97461554z" transform="matrix(.66062789 -.75071352 .75071352 .66062789 -2.727585 1.997173)"/><path d="m2.37066124 3.71064904c0 .42766595-.07951369.74802037-.19722598 1.06863422-.0979688-.42747727-.157739-.64096827-.157739-1.06863422s.11891362-.82816203.21689983-1.1487523c.03882538.29386852.13806515.72108635.13806515 1.1487523z" transform="matrix(.79262399 .60971076 -.60971076 .79262399 2.692811 -.576013)"/><path d="m2.67331625 3.64994801c0 .44009896-.07135938.76976666-.177 1.09970133-.08792188-.43990481-.1415625-.65960237-.1415625-1.09970133 0-.44009897.10671875-.8522382.19465625-1.1821486.03484375.3024118.12390625.74204963.12390625 1.1821486z" transform="matrix(.42443388 .90545894 -.90545894 .42443388 4.714545 -.199296)"/><path d="m5.06019494 1.09966413c0 .24094554-.03655384.42143213-.09066824.60206488-.04503798-.24083924-.07251539-.36111934-.07251539-.60206488s.05466668-.46658368.09971266-.64720314c.01784871.16556452.06347097.4062576.06347097.64720314z" transform="matrix(.49613893 .86824314 -.86824314 .49613893 3.443705 -3.779932)"/><path d="m4.686815.62404901c0 .21293009-.02854375.37243096-.0708.53206101-.03516875-.21283615-.056625-.31913092-.056625-.53206101s.0426875-.4123326.0778625-.5719509c.0139375.14631384.0495625.35902081.0495625.5719509z" transform="matrix(.78086881 .62469504 -.62469504 .78086881 1.390447 -2.755651)"/><path d="m5.30567062.88790468c0 .18274115-.03996125.31962821-.09912.45662612-.04923625-.18266052-.079275-.27388497-.079275-.45662612s.0597625-.35387265.1090075-.49086048c.0195125.12556966.0693875.30811933.0693875.49086048z" transform="matrix(0 1 -1 0 6.087261 -4.345685)"/><path d="m3.07643945 1.93181054c0 .33041453-.03484208.57792022-.08642241.82562634-.04292893-.33026876-.06911962-.49521181-.06911962-.82562634 0-.33041454.05210673-.63983764.09504329-.88752555.01701289.22704269.06049874.55711101.06049874.88752555z" transform="matrix(.26962992 .96296402 -.96296402 .26962992 4.020598 -1.499277)"/><path d="m3.959766 2.11368936c0 .43731767-.07294031.76490196-.18092136 1.09275154-.08986975-.43712473-.14469876-.65543387-.14469876-1.09275154s.10908306-.8468523.19896878-1.17467776c.03561569.30050064.12665134.73736009.12665134 1.17467776z" transform="matrix(.36652451 .93040839 -.93040839 .36652451 4.33376 -2.219699)"/></g><path d="m.46149854 5.30677942c.02854543 0 .71345942-1.83947896 2.99664042-2.88103384" transform="matrix(.92847669 -.37139067 .37139067 .92847669 -1.295721 1.004386)"/><path d="m3.64948378 1.76687188c0 .05012128-.04895572.09076316-.10932672.09076316s-.10933959-.04064188-.10933959-.09076316c0-.05012129.04894285-.09076317.10932672-.09076317s.10932672.04064188.10932672.09076317z" fill="#f00" transform="matrix(.87415728 -.48564293 .48564293 .87415728 -.412567 1.941597)"/><path d="m4.32323378 1.36937187c0 .05012129-.04895572.09076317-.10932672.09076317s-.10933959-.04064188-.10933959-.09076317c0-.05012128.04894285-.09076316.10932672-.09076316s.10932672.04064188.10932672.09076316z" fill="#f00" transform="matrix(.87415728 -.48564293 .48564293 .87415728 -.134737 2.218777)"/><path d="m2.43780947 2.69507187c0 .03752111-.05316251.06794588-.11872123.06794588s-.11873521-.03042477-.11873521-.06794588c0-.0375211.05314854-.06794587.11872123-.06794587.0655727 0 .11872124.03042477.11872124.06794587z" fill="#f00" transform="matrix(.94385836 -.33035042 .33035042 .94385836 -.760121 .917415)"/><path d="m2.63280947 2.61007187c0 .03752111-.05316251.06794588-.11872123.06794588s-.11873521-.03042477-.11873521-.06794588c0-.0375211.05314854-.06794587.11872123-.06794587.0655727 0 .11872124.03042477.11872124.06794587z" fill="#f00" transform="matrix(.94385836 -.33035042 .33035042 .94385836 -.721094 .977061)"/><path d="m2.52093447 2.79194688c0 .0375211-.05316251.06794587-.11872123.06794587s-.11873521-.03042477-.11873521-.06794587c0-.03752111.05314854-.06794588.11872123-.06794588.0655727 0 .11872124.03042477.11872124.06794588z" fill="#f00" transform="matrix(.94385836 -.33035042 .33035042 .94385836 -.787457 .950314)"/><path d="m2.852875 2.76575c.0254375.0508125-.0015.1158125-.0601875.145125s-.1268125.011875-.1521875-.0389375.0015-.1158125.0601875-.145125.12675-.011875.1521875.0389375z" fill="#f00"/><path d="m2.996 2.617c.0254375.0508125-.0015.1158125-.0601875.145125s-.1268125.011875-.1521875-.0389375.0015-.1158125.0601875-.145125.12675-.011875.1521875.0389375z" fill="#f00"/><path d="m3.03225 2.688875c.0254375.0508125-.0015.1158125-.0601875.145125s-.1268125.011875-.1521875-.0389375.0015-.1158125.0601875-.145125.12675-.011875.1521875.0389375z" fill="#f00"/></g><path d="m12.8039875 11.3092125c0 .6865337-1.2844462 8.23825 1.9266875 10.2978125 1.2844463.686495 3.2110975-.6865338 3.2110975 0l-.6419875-5.492425-4.495725-4.8053875z" fill="#0000c4" fill-rule="evenodd" stroke="#000" stroke-width=".1"/><path d="m14.0886875 12.682125c0 .6865337-.642205 6.1786875 1.2844463 7.5516 1.2844462 1.3730287 4.495725 1.0006025 4.495725 1.0006025l-2.5690375-5.11965-3.211025-3.432475z" fill="#e10000" fill-rule="evenodd" stroke="#000" stroke-width=".1"/><path d="m11.490625 9.88 5.9234375 6.244375.103875-.0983125-5.9235-6.244375-.10375.098375z" fill="#000" fill-rule="nonzero"/><g stroke="#000" stroke-width=".1"><path d="m10.9343904 8.89238595.2192243.31318644v.15659763c-.0107038-.01153468 0 .1565888-.2192243.1565888-.2192367 0-.2192367-.31318643-.2192367-.31318643s-.2192243.31318643-.2192243.62637286c0 .31318645.2192243.46978405.2192243.46978405s-.0322971-.32442057.2192367-.31319525c.2515462.01122532.2192243.15658875.2192243.15658875v.3131865h.2192367v-1.25272808l.2192367-.31318643-.3357909-.46978407-.3219068.46978407z" fill="#cececc" fill-rule="evenodd" transform="matrix(.81373347 -.5812382 .5812382 .81373347 -3.430027 8.177642)"/><path d="m12.299063 6.06782428-.3104133.76200473.2089273.57151698-.4178428-.19049849.4178546.57149548v.38100774h.2089155v-.38097548l.4178428-.57151699-.4178428.19050925.2089273-.57151699z" fill="#cececc" fill-rule="evenodd" transform="matrix(.5812382 -.81373347 .81373347 .5812382 -.638567 12.990319)"/><path d="m13.297625 6.9305c0 .038775-.04895.0702375-.10925.0702375-.060325 0-.1093-.0314625-.1093-.0702375s.049-.07025625.10925-.07025625c.06035 0 .1093.0315.1093.07025625zm-.1561.1483125c0 .67125.522925 3.5214375.56455 3.59175.0035.08325-.11795.1196625-.176925.0156-.16375-.3251625-.518575-2.9983125-.5333-3.622875-.0061-.2575125.094-.2775.20815-.2731875.094.0039375.208125.06984375.208125.1483125 0 .09365625-.14575.163875-.2706.140475z" fill="#e10000" fill-rule="evenodd"/><path d="m12.6702359 7.50019555c0 .04335177-.0480857.07852791-.1073211.07852791-.0592599 0-.1073702-.03517614-.1073702-.07852791s.0481349-.07854887.1073211-.07854887c.0592845 0 .1073702.03521807.1073702.07854887zm-.1533439.16581842c.7733013 1.28743011 1.1965443 3.49602243 1.2374343 3.57463413.0034382.0930764-.1158674.1337868-.1738012.0174414-.0609053-.0694928-.3110838-2.10008712-1.2067606-3.60943301-.0059923-.28790773.0923403-.31025443.2044749-.30543291.0923403.00440226.2044504.07808769.2044504.16581842 0 .10471087-.1431767.18321782-.2658224.15705582z" fill="#0000c4" fill-rule="evenodd" transform="matrix(.93015522 .36716654 -.36716654 .93015522 4.340329 -4.144573)"/><path d="m11.6659375 9.47125c0 .064625-.0611875.1170625-.1365625.1170625-.0754375 0-.136625-.0524375-.136625-.1170625s.06125-.1170625.1365625-.1170625c.0754375 0 .136625.0525.136625.1170625zm-.195125.2471875c0 1.11875.653625 5.8690625.7056875 5.98625.004375.13875-.1474375.1994375-.2211875.026-.2046875-.5419375-.6481875-4.9971875-.666625-6.038125-.007625-.4291875.1175-.4625.2601875-.4553125.1175.0065625.2601875.1164375.2601875.2471875 0 .156125-.1821875.273125-.33825.234125z" fill="#e10000" fill-rule="evenodd"/><path d="m10.8881536 9.97512887c0 .06721003-.0615414.12174503-.1373523.12174503-.0758423 0-.1374151-.054535-.1374151-.12174503 0-.06721.0616042-.1217775.1373523-.1217775.0758737 0 .1374151.0546.1374151.1217775zm-.1962534.25707503c.9896907 1.995955 1.5313679 5.420025 1.5837 5.5419.0044003.1443-.1482902.207415-.2224352.02704-.0779482-.1077375-.3981331-3.25585-1.5444431-5.59585-.0076691-.44635503.1181795-.48100003.2616922-.47352503.1181795.006825.2616608.1210625.2616608.257075 0 .16233753-.1832411.28405003-.3402062.24349003z" fill="#0000c4" fill-rule="evenodd" transform="matrix(.92307692 .38461539 -.38461539 .92307692 5.807583 -3.3953)"/></g><g fill="none" fill-rule="nonzero" transform="translate(20 18.0625)"><path d="m3.153375.114625 4.5264375 4.7803125.0798125-.10275-4.5264375-4.7803125-.07975.10275zm-3.153375.78125 5.923625 6.24425.103875-.09825-5.9235625-6.244375-.103875.098375z" fill="#000"/><g fill="#808080" stroke="#000" stroke-width=".1"><path d="m6.42641228 6.50835118v.7829705l.10961834.78296166.10961835-.7829705v-.7829705h-.21923669z" transform="matrix(.57346234 -.81923192 .81923192 .57346234 -3.125535 8.579549)"/><path d="m7.95391228 4.10834965v.7829705l.10961834.78296167.10961835-.7829705v-.7829705h-.21923669z" transform="matrix(.57346234 -.81923192 .81923192 .57346234 -.507841 8.807235)"/></g></g><g fill="none" fill-rule="nonzero" transform="translate(20.125 6.0625)"><path d="m2.45326667 1.1161s-.4982625 13.4644 1.49484375 13.4644 2.9896875-1.41732 2.9896875-1.41732l-.0241875-7.4012-4.46034375-4.646z" fill="#ffdf00" stroke="#000" stroke-width=".1" transform="matrix(-1 0 0 1 9.335704 0)"/><path d="m2.41869512 2.3705c0 .70868-.22066875 10.7928.77588437 10.7928.99655313 0 2.49139688-.70868 2.49139688-.70868l-.0241875-6.6924-3.24309375-3.3916z" fill="#0000c4" stroke="#000" stroke-width=".1" transform="matrix(-1 0 0 1 8.083882 0)"/><path d="m2.3979625 3.0489c0 .70868.12726562 8.6968 1.12381875 8.6968h1.49484375l-.0241875-5.9836-2.594475-2.71332z" fill="#e10000" stroke="#000" stroke-width=".1" transform="matrix(-1 0 0 1 7.414588 0)"/><path d="m6.988375 1.18875-4.5264375 4.7803125-.07975-.102625 4.5264375-4.7803125.0798125.102625z" fill="#000"/><g fill="#005b00" stroke="#000" stroke-width=".1" transform="translate(2.625 .875)"><path d="m1.49169426 3.55592988s.89019644 2.03339124 1.21169144 3.45675165c.32145134 1.4233604.59345702 3.50768857.59345702 3.50768857s.02473374-1.93169704-.39563074-3.66005043c-.56867961-2.18602236-1.43425146-3.20274043-1.40947406-3.30438979z" transform="matrix(.89442719 -.44721359 .44721359 .89442719 -2.894797 1.813741)"/><path d="m1.39331668 2.39455773s1.05082501 2.29987811 1.43033111 3.90977755c.37945457 1.60989944.70054142 3.96739002.70054142 3.96739002s.02919674-2.18485632-.46701902-4.13971972c-.67129314-2.47251235-1.69305025-3.62247678-1.66380197-3.73744785z" transform="matrix(.94385836 -.33035042 .33035042 .94385836 -1.954124 1.167763)"/><path d="m1.47284315 1.43647267s1.37247656 2.27181265 1.86814733 3.86206645c.49560344 1.59025381.91497315 3.91897584.91497315 3.91897584s.0381337-2.15819443-.60997088-4.08920259c-.87677215-2.44234024-2.2112833-3.57827163-2.17308229-3.6918397z" transform="matrix(.99160041 .12933918 -.12933918 .99160041 .713048 -.325715)"/><path d="m1.25370917.73229371s1.28345475 2.49456805 1.74697523 4.24074917c.46345754 1.74618111.85562601 4.30323861.85562601 4.30323861s.03566027-2.36980936-.57040685-4.49015641c-.8199028-2.68181619-2.06785466-3.92912774-2.03213145-4.05383137z" transform="matrix(.99681528 -.07974522 .07974522 .99681528 -.390932 .219675)"/><path d="m1.99637906 2.28414156s1.26201981 1.99517218 1.71779904 3.39177949c.45571734 1.39660732.84133623 3.44175899.84133623 3.44175899s.0350647-1.89538936-.5608805-3.59125709c-.80620963-2.14493449-2.03331947-3.1425426-1.99819287-3.24228139z" transform="matrix(.97618706 .21693046 -.21693046 .97618706 1.314708 -.574866)"/><path d="m1.20042562 1.49465386s1.1723675 2.27181264 1.59576875 3.86206645c.42334375 1.59025381.78156875 3.91897583.78156875 3.91897583s.03257375-2.15819443-.52103625-4.08920259c-.7489375-2.44234023-1.888875-3.57827163-1.85624375-3.69183969z" transform="matrix(.99160041 -.12933918 .12933918 .99160041 -.676448 .35422)"/><path d="m1.27927522 2.66597634s1.08008791 2.18838835 1.47016233 3.72024571c.39002144 1.53185735.72004978 3.77506525.72004978 3.77506525s.0300098-2.07894233-.48002436-3.93904103c-.689987-2.35265392-1.74019755-3.44687224-1.71013478-3.55626993z" transform="matrix(.94385836 -.33035042 .33035042 .94385836 -1.985451 1.144409)"/><path d="m1.31574082 2.07501281s1.03085502 2.28308022 1.40314895 3.88122127c.37224337 1.59814104.68722825 3.93841291.68722825 3.93841291s.02864188-2.16889851-.45814374-4.10948395c-.65853581-2.45445359-1.66087534-3.5960189-1.6321829-3.71015023z" transform="matrix(.9701425 -.24253562 .24253562 .9701425 -1.381046 .751273)"/><path d="m1.53367928 1.51229262s1.3572475 2.1707279 1.84741828 3.69022305c.49010421 1.51949516.90482058 3.74460025.90482058 3.74460025s.03771056-2.06216515-.60320263-3.90725273c-.86704344-2.33366783-2.1867468-3.41905574-2.14896967-3.52757057z" transform="matrix(.97513286 .2216211 -.2216211 .97513286 1.231367 -.514791)"/><path d="m1.10255.03924976s1.22334 2.6429503 1.66515 4.49299802c.44175 1.85004771.81555 4.55920447.81555 4.55920447s.03399-2.5107707-.54369-4.75724054c-.7815-2.84133636-1.971-4.16284068-1.93695-4.29496195z"/><path d="m2.10196306 2.46367509s1.22546202 1.89963757 1.66803838 3.22937129c.44251627 1.32973373.81696466 3.27695763.81696466 3.27695763s.03404896-1.80463264-.54463309-3.41929733c-.78285559-2.04222883-1.97441891-2.99206858-1.94030984-3.08703159z" transform="matrix(.94299033 .33282012 -.33282012 .94299033 2.093338 -.787144)"/><path d="m.949425 1.17570791s1.22334 2.32583212 1.66515 3.9538992c.44175 1.62806708.81555 4.01216179.81555 4.01216179s.03399-2.20951228-.54369-4.18643622c-.7815-2.50041454-1.971-3.66335627-1.93695-3.77962477z"/></g><path d="m2.1398439 3.8738s-1.28444625 13.0436375 2.5688925 13.0436375c3.21113375 0 3.21113375-2.0595625 3.853375-2.0595625l-.64235-4.805775-5.7800625-6.1783z" fill="#ffdf00" stroke="#000" stroke-width=".1" transform="matrix(-1 0 0 1 10.496444 0)"/><path d="m2.18819369 5.2467125c0 .68653375-1.28444625 8.23825 1.9266875 10.2978125 1.28444625.686495 3.2110975-.6865338 3.2110975 0l-.6419875-5.492425-4.495725-4.8053875z" fill="#0000c4" stroke="#000" stroke-width=".1" transform="matrix(-1 0 0 1 9.260456 0)"/><path d="m.11014173 6.619625c0 .68653375-.642205 6.1786875 1.28444625 7.5516 1.28444625 1.3730287 4.495725 1.0006025 4.495725 1.0006025l-2.5690375-5.11965-3.211025-3.432475z" fill="#e10000" stroke="#000" stroke-width=".1" transform="matrix(-1 0 0 1 5.897704 0)"/><path d="m8.38575 3.8175-5.9235625 6.244375-.10375-.0983125 5.9234375-6.244375.103875.098375z" fill="#000"/><g stroke="#000" stroke-width=".1"><path d="m8.72199791 2.82988595.21922431.31318644v.15659763c-.01070383-.01153468 0 .1565888-.21922431.1565888-.21923669 0-.21923669-.31318643-.21923669-.31318643s-.21922432.31318643-.21922432.62637286.21922432.46978407.21922432.46978407-.03229711-.32442059.21923669-.31319527c.25154616.01122532.21922431.15658879.21922431.15658879v.31318644h.21923669v-1.25272806l.21923669-.31318643-.33579087-.46978407-.32190682.46978407z" fill="#cececc" transform="matrix(-.81373347 -.5812382 -.5812382 .81373347 17.981597 5.762473)"/><path d="m7.57123177.00532428-.31041335.76200473.2089273.57151698-.41784281-.19049849.41785461.57149548v.38100774h.20891551v-.38097548l.41784281-.57151699-.41784281.19050925.2089273-.57151699z" fill="#cececc" transform="matrix(-.5812382 -.81373347 -.81373347 .5812382 12.833562 6.60438)"/><path d="m6.47339095.868c0 .038775-.04895.0702375-.10925.0702375-.060325 0-.1093-.0314625-.1093-.0702375s.049-.07025625.10925-.07025625c.06035 0 .1093.0315.1093.07025625zm-.1561.1483125c0 .67125.522925 3.5214375.56455 3.59175.0035.08325-.11795.1196625-.176925.0156-.16375-.3251625-.518575-2.9983125-.5333-3.622875-.0061-.2575125.094-.2775.20815-.2731875.094.0039375.208125.06984375.208125.1483125 0 .09365625-.14575.163875-.2706.140475z" fill="#e10000" transform="matrix(-1 0 0 1 13.053266 0)"/><path d="m6.4179577 1.43769555c0 .04335177-.04808574.07852791-.10732109.07852791-.05925991 0-.10737022-.03517614-.10737022-.07852791s.04813486-.07854887.1073211-.07854887c.05928447 0 .10737021.03521807.10737021.07854887zm-.15334392.16581842c.77330131 1.28743011 1.19654428 3.4960224 1.23743435 3.57463417.00343821.09307633-.11586749.13378674-.17380123.01744133-.06090534-.0694928-.31108383-2.10008709-1.20676066-3.60943298-.0059923-.28790773.09234035-.31025443.20447493-.30543291.09234035.00440226.20445038.07808769.20445038.16581842 0 .10471087-.14317666.18321782-.26582233.15705582z" fill="#0000c4" transform="matrix(-.93015522 .36716654 .36716654 .93015522 11.945653 -2.272379)"/><path d="m8.2090625 3.40875c0 .064625.0611875.1170625.1365625.1170625.0754375 0 .136625-.0524375.136625-.1170625s-.06125-.1170625-.1365625-.1170625c-.0754375 0-.136625.0525-.136625.1170625zm.195125.2471875c0 1.11875-.653625 5.8690625-.7056875 5.98625-.004375.13875.1474375.1994375.2211875.026.2046875-.5419375.6481875-4.9971875.666625-6.038125.007625-.4291875-.1175-.4625-.2601875-.4553125-.1175.0065625-.2601875.1164375-.2601875.2471875 0 .156125.1821875.273125.33825.234125z" fill="#e10000"/><path d="m7.9784466 3.91262887c0 .06721-.06154136.121745-.13735228.121745-.07584234 0-.13741514-.054535-.13741514-.121745s.06160423-.1217775.13735228-.1217775c.07587378 0 .13741514.0546.13741514.1217775zm-.19625346.257075c.98969075 1.995955 1.5313679 5.420025 1.58370006 5.5419.0044003.1443-.14829017.207415-.22243526.02704-.0779482-.1077375-.39813302-3.25585-1.54444308-5.59585-.0076691-.446355.11817954-.481.26169224-.473525.11817953.006825.2616608.1210625.2616608.257075 0 .1623375-.18324114.28405-.34020619.24349z" fill="#0000c4" transform="matrix(-.92307692 .38461539 .38461539 .92307692 13.712639 -2.742528)"/></g></g><g fill="none" fill-rule="nonzero" stroke="#000" stroke-width=".1" transform="translate(16.6875 20.6875)"><path d="m1.2545625 5.7249125c.64224125.412765 1.3445125.320385 1.9266875 0v-5.4920375h-1.28444625c.64224125 2.0595625.64224125 4.119125-.64224125 5.4920375z" fill="#e10000"/><path d="m2.2689375.3553125c0 3.8754625-.92894375 4.7368125-.92894375 5.511625.3875375 0 .64454687-.36085.92894375-.86121875.3875375-.77511875.42494375-4.711.3875375-4.650625h-.3875375z" fill="#0000c4"/><path d="m1.49390625.3553125c-.01771875 2.2649375-.97986875 4.35925-.79837187 4.823.20724375.41453125.79837187-.9473625 1.57346874-.17224375.38755938-.77511875.42496563-4.711.38755938-4.650625h-1.16265625z" fill="#0000c4"/><path d="m1.5839375.0216875c0 2.5467325-.890225 2.7160125-.890225 3.3950875.38755937 0 .88819062-.37122.890225-.3389625.3875375-.5093925.42494375-3.0958.3875375-3.056125z" fill="#ffdf00"/><path d="m.80890625.0216875c-.01771875 1.4883875-.95659375 2.7514325-.77509687 3.056125.20724375.27240625.77509687-.50936375 1.55021562 0 .3875375-.50936375.42494375-3.0958.3875375-3.056125z" fill="#ffdf00"/><path d="m3.445 5.7255375c.64224125.412765 1.3445125.319765 1.9266875-.00058125v-5.49165h-1.28444625c.64224125 2.0595625.64224125 4.119125-.64224125 5.4920375z" fill="#e10000" transform="matrix(-1 0 0 1 8.816688 0)"/><path d="m4.88675732.3559375c0 3.8754625-.92894375 4.7368125-.92894375 5.511625.3875375 0 .64454688-.36085.92894375-.86121875.3875375-.77511875.42494375-4.711.3875375-4.650625h-.3875375z" fill="#0000c4" transform="matrix(-1 0 0 1 9.243444 0)"/><path d="m4.77887722.3559375c-.01771875 2.2649375-.97986875 4.35925-.79837187 4.823.20724375.41453125.79837187-.9473625 1.57346875-.17224375.38755937-.77511875.42496562-4.711.38755937-4.650625h-1.16265625z" fill="#0000c4" transform="matrix(-1 0 0 1 9.910596 0)"/><g fill="#ffdf00"><path d="m5.53428857.0223125c0 2.5467325-.890225 2.7160125-.890225 3.3950875.38755938 0 .88819063-.37122.890225-.3389625.3875375-.5093925.42494375-3.0958.3875375-3.056125z" transform="matrix(-1 0 0 1 10.577226 0)"/><path d="m5.4423509.0216875c-.01771875 1.4883875-.95659375 2.7514325-.77509688 3.056125.20724375.27240625.77509688-.50936375 1.55021563 0 .3875375-.50936375.42494375-3.0958.3875375-3.056125z" transform="matrix(-1 0 0 1 11.26032 0)"/></g></g><g fill="none" fill-rule="nonzero" stroke="#000" stroke-width=".1" transform="translate(14.375 20.125)"><path d="m.7267 1.21934-.67257.4872175.67257.4872175.3362775-.24360875.16815.24360875.168135.48720375.16815-.48720375.168135-.24360875 9.01425-.0000275v-.48720375l-9.01425.0000275-.16815-.2436225c0-.243595.03528-.48720375.16815-.48720375.1328775 0 .406815-.00004125.6725625-.00004125 0-.243595-.336285-.7308125-1.008825-.7308125-.6725625 0-1.008825.4872175-1.008825.7308125l.6725625.0000275c.13287 0 .16815.243595.16815.48719l-.1683.24360875-.3363-.24360875z" fill="#908f8a"/><path d="m2.704875 2.40193125h5.890675v.29899125h-5.890675z" fill="#b74d00"/><path d="m2.704875 2.10299063h5.890675v.29897437h-5.890675zm0-.29899125h5.890675v.29897437h-5.890675z" fill="#b74d00"/><path d="m2.704875 1.50505875h5.890675v.29899125h-5.890675zm0-.29897437h5.890675v.29897437h-5.890675z" fill="#b74d00"/><path d="m2.704875.90714375h5.890675v.2989575h-5.890675zm0-.29899125h5.890675v.29899125h-5.890675z" fill="#b74d00"/><g fill="#908f8a"><path d="m2.98109375.5902325 2.153125 2.0928375h.30759375l-2.153125-2.0928375z"/><path d="m2.98109375.652555 2.153125 2.0928375h.30759375l-2.153125-2.0928375z" transform="matrix(1 0 0 -1 0 3.397948)"/><path d="m3.0385.5902325v2.0928375h.31003v-2.0928375z"/><path d="m5.75234375.5902325 2.153125 2.0928375h.30759375l-2.153125-2.0928375z"/><path d="m5.75234375.652555 2.153125 2.0928375h.30759375l-2.153125-2.0928375z" transform="matrix(1 0 0 -1 0 3.397948)"/><path d="m7.966.5902325v2.0928375h.31003v-2.0928375z"/><path d="m5.810375.5902325v2.0928375h.31003v-2.0928375z"/><path d="m5.194125.5902325v2.0928375h.31003v-2.0928375z"/></g></g><g fill="#ffdf00" fill-rule="evenodd" stroke="#000" stroke-width=".1" transform="translate(15.3125 8.5625)"><path d="m9.0516125 6.1791875c0 3.41062-2.01405 6.1786875-4.495725 6.1786875-2.48153 0-4.495725-2.76802875-4.495725-6.1786875 0-3.41058125 2.01405-6.1786875 4.495725-6.1786875 2.48156625 0 4.495725 2.76802875 4.495725 6.1786875zm-.64224125 0c0 3.03168375-1.7262975 5.4920375-3.853375 5.4920375-2.12704125 0-3.853375-2.46043125-3.853375-5.4920375 0-3.031645 1.7262975-5.4920375 3.853375-5.4920375 2.12704125 0 3.853375 2.46050875 3.853375 5.4920375z"/><path d="m6.3053125.486425c-.537805-.31279-1.12897-.48580875-1.7493525-.48580875s-1.2115475.17301875-1.74931625.48580875l.24987125.63251625c.460955-.27803125.96769375-.43183 1.499445-.43183s1.03849.15376 1.499445.43179125l.2499075-.63251625z"/><path d="m6.3128125 11.5624925c-.537805-.31279-1.12897-.4858087-1.7493525-.4858087s-1.2115475.1730187-1.74931625.4858087l.24987125.6325162c.460955-.2780312.96769375-.43183 1.499445-.43183s1.03849.15376 1.499445.4317913l.2499075-.6325163z" transform="matrix(1 0 0 -1 0 23.271692)"/></g><path d="m23.722125 14.7416875c0 3.03325-1.7251875 5.4920625-3.853375 5.4920625-2.128125 0-3.853375-2.4589375-3.853375-5.4920625 0-3.03325 1.7251875-5.4920625 3.853375-5.4920625 2.128125 0 3.853375 2.4589375 3.853375 5.4920625z" fill="#a7cfff" fill-rule="evenodd"/><path d="m23.722125 14.7416875c.0410712 1.0329975-.1679825 1.5358563-.4310125 2.610045-.06931.115475-.3975175-.2533087-.5962038-.435395-.1986862-.1820863-.283185.1643-.5269662-.1180325-.2437813-.282255-.4005625.0797475-.5793838-.1586812-.1788212-.2384288-1.859625-.2734588-1.8620175-.2939575.1663875-.088195 1.0247875.00589.8871825-.4337288-.155875-.45415-1.1271212-.0135625-1.2575125-.595355-.08845-.5776462-1.9418037-.6022912-2.074225-.7449687.052345.2195187 1.44014.3119375 1.4070075.8745875-.0301962.229245-1.3663712.2962437-1.4952037.490265-.1103813.2439312 1.0486037-.0661463 1.0916325.2337399-.0027913.1234188-.17052.002635-.7741913.1933625-.3018175.0953251.5602075.4002875.2323625.5671838-.3278812.166935-1.024425.239785-.9944462.3099225.106575.345185 1.6201212.75702 1.4693937.8162687-.5348325.2542-.81751.4212901-1.0739787.567765-.69745-.9940537-1.1290425-2.3671212-1.1290425-3.8827499 1.149705-.4419438.90509-.5322313 3.0321312-.5322313 2.1270413 0 2.826775.0902875 4.6744375.5322313z" fill="#afff7b" fill-rule="evenodd" stroke="#000" stroke-width=".1"/><path d="m23.722125 14.7416875c-.2925375 0-.5964575.13175-.9087875.13175-.3123663 0-.6331063-.13175-.9593925-.13175-.3262863 0-.6991538.175615-1.03356.175615-.33437 0-.630315-.1755375-.967005-.1755375-.3366538 0-.6730175.1316338-1.0061188.1316338-.3331012 0-.66294-.13175-.9866525-.13175s-.6412625.13175-.94975.13175-.6079125-.13175-.895375-.13175c0-.75795.10788-1.4801338.3029775-2.1370625.9814688.0775.4002725-.608995.9814688-.608995.3137437 0 .6319825.072075.9148775.379285.0887037 0 .5249-.4407038 1.01181-.379285.48691.0614575.307835 1.05679.9559125 1.1096837.3285337.2633838.5217462.4314425.970775.53754.642205.0622325 2.4776875-.096875 2.49052-.0075175.052344.3661362.0785197.736003.0783 1.10639z" fill="#fff" fill-rule="evenodd" stroke="#000" stroke-width=".1"/><path d="m20.45 17.93695c0-.16992.1689-.28386.1689-.55572s-.148925-.2805-.15475-.5358c-.0025-.1038.129-.21138.1864375-.22005s.1061625.2226.1061625.2736-.058275-.12576-.107225-.13134-.1539125.0189-.1539125.0699c0 .102.185625.22794.1714625.56775-.01415.33981-.158875.43971-.158875.54165s.0632.3858.0632.3858-.1214125-.2259-.1214125-.39576z" fill="#000" fill-rule="nonzero" stroke="#000" stroke-width=".1"/><path d="m20.647175 17.9132c0-.16992.1689-.28386.1689-.55572s-.149375-.28044-.15475-.5358c-.011825-.11886.147675-.19632.205125-.20499s.1248125.2376.1248125.2886-.067625-.15585-.1165625-.1614-.1819125.0189-.1819125.0699c0 .10194.185625.22791.1714625.56772-.01415.33981-.158875.43971-.158875.54165s.0632.3858.0632.3858-.1214125-.2259-.1214125-.39576z" fill="#000" fill-rule="nonzero" stroke="#000" stroke-width=".1" transform="matrix(-1 0 0 1 41.794326 0)"/><path d="m20.8103125 16.552875c0 .0833125-.040625.1508125-.090875.1508125-.0501875 0-.090875-.0675-.090875-.150875s.040625-.1508125.0909375-.1508125c.05025 0 .0909375.0675.0909375.1508125zm1.0594375.56025h.0465v1.2260625h-.0464zm.261375-.0929375h.0464v1.226h-.0464z" fill="#000" fill-rule="nonzero"/><path d="m18.46255 17.9327125s.944385.43896 1.149705.702305c.20532.2633837.1231775.263345.1231775.263345l2.0941625.0878075c0-.1316725.3694962-.13175.451675-.43896.08207-.3072875.08207-.3950175.08207-.3950175l-.6569588.21948.041035-.3950175h-.5748162l-.0821425.3950175-1.2318475-.0439038.0821425-1.0534575-.246355.043865-.0410713 1.0095538c-.0411075 0-1.1497775-.3072875-1.1908125-.3950563z" fill="#b74d00" fill-rule="evenodd" stroke="#000" stroke-width=".1"/><path d="m16.5710875 11.6196s1.3646312-.4345425 3.3389875-.4035037c1.9743563.0310387 3.3389875.4965812 3.3099875.4965812s-.3775075-.7138525-.3775075-.7138525-1.3936675-.403465-2.9615162-.4345037c-1.5679213-.031-2.9325525.3103875-2.9035163.3413875z" fill="#fede00" fill-rule="evenodd" stroke="#fede00" stroke-width=".1"/><path d="m19.1295 10.6159375.847625-.016375.0085625.49375-.8475.0165zm-1.9560625.26875-.2989375.4865 1.0103125-.1245-.0810625-.4864375-.6303125.124375zm.861125-.1871875.844875-.0741875.03875.49225-.84475.0741875zm3.0523125-.050375-.846125-.056875-.0296875.493.8460625.056875zm1.823875.3095625.307375.605625-.915125-.225875.101875-.482125.505875.1023125zm-.7335-.1760625-.8408125-.114375-.0598125.4898125.8408125.1145z" fill="#38a9f9" fill-rule="evenodd"/><path d="m19.910075 11.8989875-.093525-.5219625-.273325.444075.1004125-.5204125-.411075.298375.279125-.4398125-.4868375.107725.4150625-.292175-.4882875-.099975.4882875-.099975-.4150625-.2917875.4868375.1073375-.279125-.4398125.411075.298375-.1004125-.5204125.273325.444075.093525-.5219625.0931625.5219625.273325-.444075-.1004125.5204125.4114375-.298375-.2794875.4398125.4872-.1073375-.415425.2917875.4882875.099975-.4882875.099975.415425.292175-.4872-.107725.2794875.4398125-.4114375-.298375.1004125.5204125-.273325-.444075z" fill="#ffdf00" fill-rule="evenodd" stroke="#000" stroke-width=".1"/><path d="m20.6305313 10.5425c0 .2903125-.2363363.525625-.5278913.525625s-.5278912-.2353125-.5278912-.525625.2363362-.525625.5278912-.525625.5278913.2353125.5278913.525625z" fill="#ffdf00" fill-rule="evenodd" stroke="#000" stroke-width=".1"/><path d="m20.04225 10.6595c0 .0340625-.0785625.06175-.1754375.06175s-.1754375-.0276875-.1754375-.06175.0785-.06175.175375-.06175.175375.027625.175375.06175zm.3799375-.000125c0 .0341875-.0589375.061875-.1315625.061875s-.1315625-.0276875-.1315625-.061875c0-.034.058875-.0616875.1315625-.0616875s.1315625.0276875.1315625.06175z" fill="#000" fill-rule="nonzero"/><path d="m17.5871875 12.178375s.058125.4965625-.319375 1.1173125c-.3775.6208125-.319375.4035625-.319375.4035625s.1741875.341375.1451875.341375-.290375-.310375-.290375-.310375l-.319375.341375s.290375-.527625.26125-.527625-.0870625-.18625-.0870625-.18625l.2321875-.093125s.3484375-.65175.3484375-.620625-1.04525.71375-1.04525.71375zm.232375.186375c-.0290625 0 .145125.496625.2903125.744875.1451875.2483125.1451875.55875.1451875.55875l.49375.24825-.638875-.962125.4065.155125zm0 1.3035625s.348375.3725.3775.4965625.0289375.4035.0289375.4035l-.145125-.310375-.20325.279375s.1451875-.4345625.116125-.465625-.2323125.15525-.2323125.15525.087125-.2483125.087125-.279375 0-.18625-.029-.279375zm-1.7421875.86875c.116125-.093125.348375-.155125.348375-.155125s-.1451875.2483125-.1741875.2483125-.116125 0-.1741875-.093125zm4.0066875-1.3655s.754875.465625.754875.496625-.4935625-.21725-.4935625-.21725l-.26125-.279375zm-1.3644375-.9621875c.058125.0310625 1.1033125.9 1.07425.9s-.4645-.24825-.4645-.2171875v.21725l-.2323125-.4965625-.058125.18625-.319375-.5896875zm.261 1.3965625.290375.5896875.2903125-.0620625s-.5515625-.527625-.580625-.527625zm.9004375-.372375c0 .093125.0290625.558625.0290625.558625s.1741875.1551875.1741875.1241875-.17425-.651875-.2033125-.6828125z" fill="#b7e1ff" fill-rule="evenodd"/><g fill="none" fill-rule="evenodd" transform="translate(11.375 3.375)"><path d="m.03825 2.220125s1.31125-.725625 2.804375-1.265875c1.492875-.54025 3.1675-.8953125 3.388875-.8953125.4423125 0 1.200625 1.1114375 1.3270625 1.1114375.126375 0 .631875-.30875 1.2639375-.30875s1.011125.494 1.1375.494h1.1375c.1264375 0-.379125-1.235 0-1.173125.189625.0308125 1.8010625.2778125 3.3020625.7640625 1.500875.48625 3.6314375 1.3446875 3.6314375 1.3446875s-3.482125.465-4.4055.3275c-.126375.06175-.00625.816875-.1833125.484625-.291-.0664375-1.359-.2329375-1.548625-.2329375s-.543125.2141875-1.04875.337625c-.5055.1235-1.1375.30875-1.1375.30875l.821625 1.2966875-1.011125.4939375s-.631875-1.481875-.88475-1.481875-.3791875 1.0496875-.6951875.9879375-.442375-.988-.6951875-1.235c-.25275-.246875-1.5855-.336875-2.091125-.460375-.505625-.1234375-1.3215-.21875-1.763875-.34225s-.8846875.30875-1.074375.30875c-.1895 0 .252875-.3705.06325-.43225s-.3159375.18525-.442375.18525c-.126375 0-1.4535-.247-1.579875-.30875s.316-.30875.189625-.30875h-.505625z" fill="#984000"/><g stroke-width=".1"><path d="m9.4668875 1.602225c0 .3436875-.281875.6223425-.6296125.6223425s-.62965375-.278655-.62965375-.6223425.281875-.6223425.6296125-.6223425.62965375.278655.62965375.6223425z" fill="#808080" stroke="#772600"/><path d="m6.2668625 1.716725c.1123875-.1332.25290563-.333.61818188-.333.0843075-.03332.0843075-.23314.28096875-.23314.19671187 0 .14051812.1998.28101937.2664.14048438.0666 1.2925575-.0666 1.2925575-.0666s.1123875.09992.1123875.23314c0 .1332-.08429062.23312-.1123875.23312-.02809687 0-1.15205625-.0999-1.23636375-.0666-.08429062.03332-.14050125.0666-.33719625.0666-.19667812 0-.25288875-.2331-.39335625-.2331-.14051812 0-.28101938-.0333-.50581125.1332z" fill="#984000" stroke="#772600"/><path d="m9.69485 1.64931h.4495838c.1615275.00228.2172318.0601.3652931.0666h.3933562c.1430325-.00628.218565-.0459.36531-.0666.244755-.0035.1612407-.02612.1123875-.1998-.0442968-.1313-.0497812-.1922-.1123875-.26644-.0235575-.15888-.0785531-.2154-.0843075-.3996-.0257681-.14054-.0732712-.23506-.0280968-.39966.0648.11294.0909056.1594.2528887.16652.1695094 0 .2351869-.00412.3371963.0666.0786881.0978.1837012.0666.3371962.0666.1295494.02812.1512.10626.2528888.16652.1198631.0787.1973362.0999.3652762.0999.1344431.02844.2511.05156.3371625.0999.0717188.1016.184815.12676.3372131.1332.0852188 0 .1510313-.01048.224775-.0333.1295663.0074.2611238 0 .4215038 0 .1040006.1442.1280306.19724.3090993.1998.1238288.1031.2282682.12074.3371963.16654h.42147c.15066.01374.1989563.087.3371625.1332.1369406.07536.2653088.127.36531.16652.0993938.0256.2290612.0333.3652762.0333.1043382.0635.2296688.0692.3090994.1332.1162688.02954.2750963.0643.3652932.09992.14877.02336.2056556.0788.3371625.0999.1131299.0383-.0375132.0712-.1123875.0999-.1658138-.00728-.177795-.07892-.3371625-.0999-.08478-.0588-.2133-.05096-.3371963-.09992h-.0281137c.111375.07806.2184975.12844.1685812.2664-.1432687 0-.2593012-.02194-.3933562-.0333-.1414969-.03232-.2063307-.0666-.3652932-.0666.1585238-.04528.2000363.0054.3090657.0666.0404325.1612-.0459844.09992-.196695.09992-.1284188-.0546-.2054363-.11966-.36531-.1332h-.3371625c.1668937.00732.202095.082.3090656.16652.0087412.0518-.0022275.04944-.0842906.0666-.087075-.08956-.2006438-.12026-.3371963-.16652-.132975-.0056-.2736619-.0193-.3933562-.0666-.0821475-.00608-.0694744-.12354.1123875.0666.1102275.07686.14904.13892.1404843.1998-.14472-.04286-.2164218-.1116-.3090993-.16648-.130545-.0571-.23841-.0666-.39339-.0666-.1452938-.04532.0150862-.07148.1123875.0999.2089125.1754-.02754.10014-.1123875.0666-.1266807-.04288-.2579175-.10368-.3652763-.1332-.0851512-.0288-.1593-.0571-.2528887-.0666.1456312.0157.1952437.07646.2528887.1998.1477406.12064-.00648.062-.1405012.03332-.0855563-.08804-.1938432-.13316-.2528888-.23312-.1409062-.08352-.1445006-.17964-.0561937.0333.0230006.06814.0187312.2159.0280968.23312-.103545-.1325-.0814218-.1665-.196695-.1665-.0781987-.06488-.193995-.1153-.2528887-.1998-.1085906-.01208-.115425-.058-.224775-.09992.0901125.12546.2090812.24956.2809687.3663.1282163.08484.1636875.1612.2529057.23312.0361125.0728.13338.13314.0280968.03332-.120555-.14086-.2102625-.1734-.39339-.2664-.1037812-.0992-.1412437-.1409-.2528887-.23314-.1519256-.0581-.0929475-.09086 0 .0999.1066162.1154.1884937.2446.2810025.333.0635681.09816.171045.2024.2528887.26644.0253125.045.1010813.05328 0 .0666-.0858937-.09196-.2092162-.1506-.3090993-.23312-.1400963-.0468-.2057063-.13304-.3090825-.2331-.0658125-.117-.1752132-.2076-.2529057-.29972-.1625062-.0754.0320625.07272.0842907.1665.0363318.12136.0807975.2207.1123875.333.0469125.1112-.1429313-.02654-.1966782-.0666-.123525-.08314-.2138737-.13874-.3652931-.1665-.1009125-.026-.2295337-.04936-.3371962-.0666-.1284863-.041.0682087.096.1405012.23312.1420538.15816-.1406025.0285-.224775 0-.13878-.0329-.27486-.03332-.4215037-.03332-.1800563.01256-.0514688.03894 0 .1332.0554681.0506.0951243.1571.0842906.19984-.118665-.019-.2197969-.06046-.3652763-.0666-.11745.0464-.25893.0333-.3933562.0333-.0064463.0838.0243506.01308.0842737.0999.0972507.0468.1617469.10354.1405013.16652h-.81484315c-.08926875.02894.0192375.01408.084375.13326-.03645.10806-.08353125.06664-.19667813.06664-.07669687-.03636-.22946625-.05272-.30909937-.09992-.07914375 0-.07317-.0244-.14048438-.0333.23684063.1986.11935688.149.25288875.29974.02305125.00912.07632563.0333.02808.0333m-1.85461312 1.06562c-.01682438 0-.054-.1075-.1123875-.1998-.03926813-.121-.09099-.0518-.14050125-.23314.0058725-.18804.0115425-.22188 0-.39964-.11581313-.09566-.16392375-.1254-.25288875-.29972-.1427625-.14156.0208575-.38126.04800937-.557-.12445312-.03276-.185625.22954-.3769875.32388-.1376325.10984-.01539-.22708-.0825525-.42376-.04681125-.27744-.18267187.13912-.23473125.25724-.09225562.07436-.120285.17084-.25288875.0333 0-.10288.08331188-.3898.04800938-.4456-.13187813.0763-.305235.3098-.44141625.34568-.13719375-.03534.02986875-.29656.02986875-.49036-.04957875-.0196-.247995.5151-.3294.52004-.081405.00496-.04578188-.51986-.0839025-.50856-.05977125.0992-.17971875.3086-.262845.37896-.15953625-.0244.02359125-.3487.04800937-.46854.0274725-.14336-.15027187.275-.24472125.30204-.0691875.07108-.20649937.12144-.25288875.1332.054675-.1226.3219075-.37424.30265313-.44556-.15541875.0068-.39335625.25112-.527445.27904-.08758125 0-.20903063.03516-.224775.0333.00756-.15852.32767875-.293.37875937-.3893-.15703875.02988-.45876375.19412-.5473575.3227-.10371375.02672-.235305.0604-.33721312 0 .01513687-.1495.250695-.43996.30267-.53516-.1416825.07394-.21333375.1318-.36529313.1665-.0278775.03304-.1100925.1046-.08429062.0333.04482-.1389.1126575-.2022.16858125-.29972-.12571875.02728-.173475.11268-.30906563.1998-.08596125.00444-.33152625.2971-.4150575.30206-.19321875.16764-.27016875.19614-.4776975.2664-.12803062.02712-.1900125.05868-.25288875.1332.0640575-.13374.16194938-.26184.25288875-.333.06204938-.11134.12015-.2039.25288875-.2664.03201188-.0464.1212975-.05812.02809688-.0666-.08008875.08472-.214245.1793-.28096875.2331-.08609625.06414-.18579375.1296-.22480875.0999.0442125-.14394.12551625-.17804.19671187-.29972.14866875-.11208.00070875-.03828-.1123875 0-.07320375.07736-.20455875.13454-.3090825.19984-.12003187.03712-.19748812.12264-.3371625.16652 0 .0475.0398925-.085.05619375-.1332.11525625-.1482.14607-.18952.28096875-.23314.032265-.05732.0745875-.03328-.02809687-.03328-.07617375.08048-.18241875.12424-.28096875.1998-.0994275.02564-.22907813.03332-.36531.03332-.17474063.02486-.1596375.0405 0-.0666.09039937-.10084.16486875-.0755.16858125-.1998-.10553625.09058-.2340225.15718-.36527625.2331-.10857375.0038-.13724438.0333-.25287188.0333.05565375-.0683.08904938-.15266.16858125-.1998.11637-.15326-.07386187-.02956-.1123875 0h-.42148687c-.07534687.1116-.00388125.001.05619375-.0666.07266375-.0448.1477575-.1031.14050125-.1332-.0839025.08628-.18100125.12594-.25288875.1998-.0783.0278-.16858125.04168-.16858125.0666.06118875-.10692.1607175-.17152.224775-.2664.0947025-.0244.1754325-.05872.196695-.09992h-.39339.28096875c.14175 0 .26375625-.015.39340687-.0333.22381313-.0442-.019575-.0666-.14050125-.0666-.02345625-.05096.06935625-.07974.16858125-.0999.08478-.0476.18955688-.08986.28096875-.1332.08871188-.02868.21443063-.1162.22480875-.1332-.08462812.00526-.08395312.028-.16858125.03328.12565125-.01148.216-.03332.36527625-.03332.1354725-.0516.25153875-.1082.36529313-.16652.049545-.07176.07155-.0666-.05619375-.0666.11328187-.04316.27401625-.06386.36529312-.0999.13284-.03374.2514375-.08506.33719625-.1332.0822825-.06632.12976875-.14352.224775-.1998.11016.08874.11140875.09988.30911625.09988.15879375-.00224.25599375-.04746.3371625-.1332.121635-.03932.14315063-.1086.28100251-.1332.12561749.02656.25363125.03328.39338999.03328.13662001-.0424.26454938-.1202.36529313-.1998.08594438-.05004.1879875-.1224.28096875-.16652.10243125.06266.1829925.113.30911625.1332.13041-.02296.19823062-.09736.30909937-.1332.06036188-.0866.14811188-.13264.25288875-.1665.16318125-.095.15040688.03146.22477501.1332.08261999.10264.19193624.0536.30911624.0999.06463125.11786.11216813.19828.19671188.2664.06564375.0942.1435725.1207.28096875.1332.050085.07916.01015875.13624.11242125.16654.04028062.0506.10997437.07212.16858125.0999" stroke="#772600"/><path d="m9.3718625 3.79731v.01666c0-.04654-.00173813-.0218.02809687.0666.01004063.0728-.01366875.0644-.04215375.11656-.00482625.07446-.01404.128-.01404.21646-.00906187.07224-.04336875.1408-.07025062.1998-.0270675.06266-.14436563.0974-.14050125.1832-.06733125.0228-.0689175-.0289-.07023375-.1166-.04026375-.05452-.0542025-.12932-.0843075-.1998-.0186975-.06952-.05855625-.12064-.08429063-.1998-.0415125-.07574-.07671375-.09752-.1123875-.1832-.01395562-.0413-.01152562-.09234-.04215375-.11654-.0459-.06876-.07576875-.0798-.154575-.08326-.06058125.0169-.08386875.04832-.1404675.0666-.04336875.01714-.12774375.0116-.18263812.03332-.013635.02628.027.0388.04215375.0999-.03602813.03528-.04937625.09766-.07025063.14986-.03315937.04974-.05540062.07412-.07025062.14988.02298375.04632.003375.10774-.02811375.14986-.00968625.07728-.04107375.11748-.05619375.1832-.04532625.0365-.0616275.07074-.0983475.1332-.03229875.05356-.0613575.04994-.14050125.04994-.06188062-.02-.0705375-.05976-.12644438-.08326-.00594-.02112-.01025999-.02624-.02809687-.03328" stroke="#782600"/></g><path d="m7.853125 4.470875s-.0284375.3096875-.2276875.516125-.612125.4473125-.612125.4473125.555125-.263875.6120625-.2065c.056875.0573125-.355875.516125-.355875.516125s.5409375-.48175.612125-.48175.22775.47025.2846875.45875c.057-.0114375-.128125-.596375-.0995625-.688125.0284375-.09175 0-.585 0-.585l-.2135.023zm1.281-.042s-.0285.3310625-.22775.55175-.612125.478125-.612125.478125.555125-.282.6120625-.220625c.0570625.06125-.35575.5516875-.35575.5516875s.540875-.515.6120625-.515.2278125.5026875.28475.4904375c.056875-.01225-.128125-.6375-.099625-.735625.0284375-.098125 0-.62525 0-.62525l-.2135.0245zm-1.7933125-3.0028125c0 .0616875-.0604375.11175-.135.11175s-.134875-.05-.134875-.11175.060375-.1116875.135-.1116875.134875.05.134875.1116875z" fill="#812e00"/></g></g></g></g></svg>