<svg height="48" viewBox="0 0 48 48" width="48" xmlns="http://www.w3.org/2000/svg" xmlns:xlink="http://www.w3.org/1999/xlink"><defs><path id="a" d="m8 9h32c2.209139 0 4 1.790861 4 4v22c0 2.209139-1.790861 4-4 4h-32c-2.209139 0-4-1.790861-4-4v-22c0-2.209139 1.790861-4 4-4z"/><mask id="b" fill="#fff"><use fill="#fff" fill-rule="evenodd" xlink:href="#a"/></mask></defs><g fill="none" fill-rule="evenodd"><path d="m0 0h48v48h-48z"/><use fill="#d8d8d8" xlink:href="#a"/><g mask="url(#b)"><g transform="translate(4 9)"><g fill-rule="nonzero"><path d="m0 20h40v10h-40z" fill="#000"/><path d="m0 10h40v10h-40z" fill="#fff"/><path d="m0 0h40v10h-40z" fill="#ce1126"/></g><g fill="none" fill-rule="evenodd" transform="translate(16.49975 10.250125)"><g fill-rule="nonzero"><path d="m3.5405 4.87 3.4244 3.179-.2438-5.7735c-.0358-.875-.7962-.6743-1.3485-.35865-.5596.3586-1.198.3586-1.87235.12185-.67425.23675-1.31265.23675-1.8722-.12185-.55225-.31565-1.3125-.5164-1.3485.3586l-.2439 5.77355 3.5049-3.17905z" fill="#fff" stroke="#c09300" stroke-linejoin="round" stroke-width=".1"/><path d="m.6735 2.0745-.2367 5.616-.40175.3584.244-5.7735c.1147-.0789.31565-.20085.3945-.2009zm.481.402-.20085 4.69775-.4016.411.2439-5.4245c.079.07885.3157.2725.3586.3155zm.4375.3585-.15775 3.9181-.32275.3155.2009-4.4703c.0787.0789.2365.1937.2796.2367zm.4735.201-.1578 3.33935-.31565.256.15785-3.71725c.079.03585.23675.1219.31565.1219zm.4375 0-.11485 2.78285-.32275.31565.122-3.0626c.07875 0 .27965 0 .3156-.0359z" fill="#c09300"/><path d="m.6735.0245-.2367 5.616-.40175.3584.244-5.7735c.1147-.0789.31565-.20085.3945-.2009zm.481.402-.20085 4.69775-.4016.411.2439-5.4245c.079.07885.3157.2725.3586.3155zm.4375.3585-.15775 3.9181-.32275.3155.2009-4.4703c.0787.0789.2365.1937.2796.2367zm.4735.201-.1578 3.33935-.31565.256.15785-3.71725c.079.03585.23675.1219.31565.1219zm.4375 0-.11485 2.78285-.32275.31565.122-3.0626c.07875 0 .27965 0 .3156-.0359z" fill="#c09300" transform="matrix(-1 0 0 1 7 2.05)"/><path d="m3.658 5.503.48065 2.18775-.1579.15775-.165-.122-.2725-1.95085.1147 1.9509-.15785.20085-.15785-.2008.1148-1.95085-.2725 1.9509-.16515.122-.15775-.15775.4805-2.18775h.31575z" fill="#c09300" stroke="#c09300" stroke-width=".1"/></g><g stroke="#c09300" stroke-linejoin="round" stroke-width=".1" transform="translate(1.45 4.5)"><path d="m.974.042-.954 3.38525 1.31275.2009.5594-2.5462-.91815-1.04z" fill="#fff" fill-rule="nonzero"/><path d="m.6585 1.197.1148.27965.62025-.5924"/><path d="m1.088.496.1298 1.2173.3945-.5164m-.1578.2006.2155.74375m.0845-.27325-.4359.662m.136.66085-.1395-.6599-.12185-.6712-.292.3955-.1281-.456-.4087.41925.2078.7626.2869-.47175.15775.4806.2945-.45815"/><path d="m.2995 3.3485.265-.3722.1726.57285.23675-.4016.15785.48075"/></g><g stroke="#c09300" stroke-linejoin="round" stroke-width=".1" transform="matrix(-1 0 0 1 5.55 4.5)"><path d="m.974.042-.954 3.38525 1.31275.2009.5594-2.5462-.91815-1.04z" fill="#fff" fill-rule="nonzero"/><path d="m.6585 1.197.1148.27965.62025-.5924"/><path d="m1.088.496.1298 1.2173.3945-.5164m-.1578.2006.2155.74375m.0845-.27325-.4359.662m.136.66085-.1395-.6599-.12185-.6712-.292.3955-.1281-.456-.4087.41925.2078.7626.2869-.47175.15775.4806.2945-.45815"/><path d="m.2995 3.3485.265-.3722.1726.57285.23675-.4016.15785.48075"/></g><g fill-rule="nonzero" stroke-linecap="round" stroke-linejoin="round" transform="translate(.45 7.7)"><g fill="#fff" stroke="#c09300" stroke-width=".1"><path d="m3.05 1.7405c.99715 0 1.9512-.0789 2.51065-.2367.23675-.043.23675-.1649.23675-.32275.2368-.07885.11475-.3585.27975-.3585-.165.04315-.2008-.2797-.40165-.2365 0-.2799-.2798-.3157-.5165-.237-.4735.158-1.31275.1938-2.109.1938-.7962-.03585-1.62835-.03585-2.109-.19375-.23665-.0787-.5163-.0429-.5163.237-.2009-.0432-.2368.27965-.4017.2365.165 0 .043.27965.2797.3585 0 .1579 0 .27985.2439.3228.55225.1578 1.5064.2367 2.5034.2367z"/><path d="m1.6945.227c.3227.043.6814.0789.96125.043.15765 0 .2725.2726-.04315.3157-.27965.03575-.71725 0-.954-.0431-.20085-.0359-.6384-.11475-.9182-.1938-.2797-.1218-.0788-.3584.0789-.3226.244.07885.5596.15785.87525.2008zm2.7115 0c-.32285.043-.6814.0789-.954.043-.1651 0-.27985.2726.0358.3157.2798.03575.71735 0 .9539-.0431.201-.0359.6385-.11475.9182-.1938.27985-.1218.079-.3584-.07885-.3226-.24385.07885-.5595.15785-.875.2008z"/><path d="m.7045.0695c-.24385-.043-.3586.2366-.27965.39435.03585-.0789.20085-.0789.23675-.15775.0429-.12185-.0359-.12185.0429-.2366zm.954.7335c0-.15765.15775-.13825.15775-.29605 0-.0789-.043-.201-.12185-.201-.079 0-.1579.079-.1579.15785-.0359.15785.122.1815.122.33915zm1.1355-.454c.2365 0 .2131.3157.0983.4735 0-.11475-.20085-.1578-.20085-.2366 0-.1221.18125-.1221.1025-.2369zm2.6015-.2795c.2439-.043.3587.2366.27975.39435-.0359-.0789-.20085-.0789-.2367-.15775-.043-.12185.036-.12185-.043-.2366zm-.954.7335c0-.15765-.15765-.13825-.15765-.29605 0-.0789.043-.201.1219-.201.07885 0 .1578.079.1578.15785.036.15785-.122.1815-.122.33915zm-1.1355-.454c-.2366 0-.21315.3157-.09835.4735 0-.11475.20075-.1578.20075-.2366 0-.1221-.1813-.1221-.1024-.2369z"/><path d="m.7835.14853987c.079 0 .2009.04544304.23675.09981013l-.237-.1zm.394.12202659c.0431 0 .2009.04531645.2798.09968354l-.28-.1zm1.435.15768354c-.0789 0-.2367 0-.27965.0715l.2795-.072zm-.4375.032075c-.043-.0862-.2008-.0862-.27965 0h.2795zm3.142-.311825c-.0789 0-.19375.04552949-.23675.1zm-.3945.12206646c-.043 0-.20085.04531645-.27975.09968354l.28-.1zm-1.435.15768354c.079 0 .23675 0 .27975.0715l-.28-.072zm.4375.032075c.043-.0862.2009-.0862.27975 0h-.28z"/></g><g fill="#c09300" transform="translate(.6 .55)"><path d="m.1174039.23499249c-.02700225-.00542877-.0412113-.0279422-.03438489-.05455383.00829283-.03246619.03286791-.05093466.0562294-.04225927.01486641.00558845.04196979.03438223.04207092.04470754.0001517.01181556-.01415848.04002388-.02032753.04013033-.00268 0-.00682641.00244827-.00920302.00542877-.0050566.00628035-.02088376.00931407-.03438488.00659969zm2.7465238.19972989c-.0101661-.00411253-.0261777-.0287877-.0261777-.0402361.00010166-.02150741.0291767-.05657506.04727235-.05668621.0088445-.00011115.03324313.01372695.04234179.02406385.01651991.01872868.01291094.04957265-.00782789.06707869-.0101661.00861408-.04066439.01178184-.05560855.0057242zm.01824939.1174846c-.0214607-.00734562-.02932963-.01800196-.03106692-.04210803-.00183949-.02508893.00061316-.02896866.02682588-.043453l.01865037-.01034595.01773063.00801811c.02442433.0111219.03535907.02307148.03627881.03972846.00086865.01800196-.01226326.03641776-.03270202.04567738-.01803721.00827677-.01911025.00827677-.03576784.00258649z"/><path d="m.3375.0045c-.0173-.0005-.041.01535-.0547.0235-.0325.0075-.0702.0275-.1015.0062-.0309-.0095-.072-.002-.0766.0359.0079.0326.0535.05125.08125.0297.0205-.02685.0765-.04265.08275.00315-.02285.0345-.02025.0804-.039.11715-.0031.02285-.01265.0446-.025.064-.02315.00235-.04775-.00035-.06725.0141-.0313.0017-.06325.01725-.08125.04375-.02015.0289-.0395.05825-.0453.09375.0053.03625.0468.04665.078.0485.0334.0091.0668.02115.1.0312.05435.0121.10515.0317.1595.0437.07915.02385.16235.03485.2421.05625.0084.0027.01625.00515.025.0062.03315.00685.0504-.02915.05315-.05625.0165-.058.029-.117.0453-.175.0113-.02335.0249-.0759-.02025-.0641-.02575.0154-.0476.03865-.0797.0406-.04365.0025-.0187.04725-.0015.06565.0038.02935-.0055.0644-.025.0875-.026.0165-.0586-.00285-.086-.0094-.02865.0005-.0861-.01415-.0593-.0531.0095-.02885.01035-.0605.02185-.0891.01475-.03065.01685-.0642.0235-.0968-.018-.03885-.049.0128-.0735.0172-.01685.0117-.0802.0167-.0468.04685.02875.02185.0067.05985.0015.0875-.0018.0385-.04185.0477-.0734.039-.0314-.0015-.075-.0248-.0485-.0593.0061-.0288.01615-.057.022-.086.0118-.0349.0218-.06815.0343-.1031.0055-.031.0165-.0604.03125-.0875.0009-.0343.0239-.0638.0235-.0985-.0024-.0169-.01-.023-.02035-.0234zm-.1514725.36279925c.00678276-.00139239.01379267-.00034033.01998905.003.02271483.0107.02325999.031 0 .0532-.01026711.0097-.02180624.019-.02562233.0188-.04252217-.004-.05506076-.011-.05678708-.028-.00181719-.0152.00272577-.0196.03107389-.0345.00989699-.00560295.02039917-.00980307.03125561-.0125zm-.07945207.25956712c-.02570769-.02604112-.02156129-.04504107.01643011-.07560864.01627463-.01307644.02617416-.0116235.04472931.00670586.028662.02816464.02980226.04599107.00450921.07013219-.0124392.01190291-.01793319.01436172-.03249742.01452937-.0151862.00016765-.01948809-.00189999-.03317121-.01575878zm.15690102.05752661c-.01328852-.00346752-.02467606-.01279471-.03146431-.02577146-.00678825-.01297676-.0083731-.02844823-.00437903-.04274843.00747935-.02733238.01167929-.03004043.0483281-.0304183.04119395-.00050382.04913357.00692757.04947877.04660361.00028767.02235713-.00126573.02752131-.01150669.0377867-.01402663.01277519-.03250795.01808071-.05045684.01448491zm4.45052355-.01097218c-.01135-.01012171-.01365-.01459658-.01375-.02743517-.00015-.0218416.01165-.0379298.0373-.05028895.03415-.01635456.048-.01411713.06085.0099619.0171.03196331.01625.04512154-.0042.06669678-.01125.0118797-.0134.01257224-.03925.01278532-.02535.00021309-.02825-.00053272-.0409-.01171988zm-4.25207164.06643559c-.01880627-.00570051-.0285194-.02174421-.02877773-.04742589-.00020666-.01962856.00103331-.02274327.01307139-.03349784.00785317-.00693464.02014957-.01292899.02996603-.01439819.01374305-.00217443.01875461-.00076399.02986271.00811.02841606.02274327.0345126.04525147.01808295.06699568-.0175663.02333095-.03425428.02867885-.06220535.02021624zm1.09507164.03464361c-.004-.005-.013-.008-.0139-.01435.0016-.02775.003-.05585.0118-.0824.0048-.02615.0006-.0535.0097-.079.00935-.0463.00935-.094.0201-.1401.0005-.02375.00275-.0475.00965-.0703.00785-.0361.00065-.0738.0113-.1095-.00115-.01335.01425-.04915.0278-.028.01965.0289.0455.0523.071.07585.0219.0126.0018.0312-.0133.0375-.0208.00815-.02585.031-.02435.0511-.0029.0207-.01125.0403-.0121.0615-.00435.0311-.0035.0627-.0075.0938-.00915.0305-.0057.063-.0087.0944.0005.0199-.009.038-.00775.058-.0024.0203-.0033.0447-.02035.0586-.0165.0083-.0402.0069-.0534-.0071zm1.485-.49c-.0241.01825-.0457.03975-.0672.061-.0296.0224.02435.0355.03125.05465.0079.0293.0075.0605.0095.0906.0089.0276.01285.0569.01085.086-.0025.031-.04315.0245-.0609.04215-.02465.01035-.0345.0345-.0532.0515-.0123.0242-.0156.05385-.0172.0813.0018.0224-.0151.0475 0 .0672.002.00275.0043.0066.00625.00935.0051.00725.01715.0015.025.00315.0252-.0015.0515.00235.075-.00785.0605-.0104.1216-.01125.18285-.014.0375.0012.0735-.01185.1109-.011.02935.0065.0425-.02525.0422-.04835-.0166-.0327-.00225-.0715-.0156-.1047-.01175-.0337-.00715-.0715-.0125-.1063-.00075-.0275-.0355-.0376-.05315-.0172-.017.01725-.0446.0207-.05775.0422-.01485.0301.03135.03015.039.0531.00885.02325.006.049.00785.0735.00575.0296-.0265.03125-.04685.03435-.02685.01-.0645.0168-.0797-.01565-.0095-.024-.0082-.04965-.0109-.075-.00065-.0446-.01135-.0884-.014-.1328-.0026-.05485-.0121-.10935-.01565-.164-.0005-.02285-.0036-.06-.036-.0532zm-.00227669.41262912.02759219.00298924.00264461.03746508.00282093.03736545-.0357905.01255478c-.01177134.00398057-.02375519.007109-.03587866.00936628-.00565433-.00387564-.01115461-.00803139-.01648478-.01245515-.01939387-.01594259-.01445725-.03836186.01101924-.06855314.01436909-.016939.02115695-.02022716.04407697-.0186329zm-1.52722331-.46412912c-.019.00675-.0431.03465-.0625.0344-.044.0031-.03785.046-.00625.0609.00415.013.00025.0294.0015.04375.0062.0395-.0187.0713-.014.111-.0022.0435-.01535.0859-.0172.1297-.0123.04515-.0125.0916-.02025.1375-.0052.04115-.035.02665-.061.0156-.00015-.0178-.0013-.03525-.0015-.0531.0108-.04085-.022-.0528-.0547-.0578-.03425.00325-.0511-.02615-.0437-.05625.01475-.0175.0518-.0127.075-.01565.049.0102.0471-.0556.0219-.0781-.01725-.0318-.06-.0455-.0719-.07815.0048-.0433-.024-.0866-.05935-.1078-.0545-.00385-.0956.0431-.1157.089-.0226.0065-.0452.01335-.0672.0219-.0355.00885-.086.07035-.0375.09375.02725.0075.11.0264.0735.064-.02065.0354-.0601.036-.09535.0266-.0362 0-.0765-.0176-.075-.05935-.0074-.0375-.00615-.0779-.0235-.1125-.00735-.042-.055-.03215-.05775.00625-.03665.0267-.0318.06985-.00625.1015.016.0365.00015.0789-.01565.1125-.0095.0438-.05775.0453-.09215.0594-.017.0066-.0815-.00385-.0579.0329.0377.01325.08265.02525.1219.0156.04115-.0051.0769-.03325.0969-.06875.0276-.028.0751-.01335.1109-.014.03865-.00015.07815.027.11565.0093.0108-.02815.061-.0747.0765-.0265-.00265.04315.0355.0663.075.061.0432-.0025.0272.0305.0265.0562.0029.0467.033.07125.072.0906.0132.0036.0272.0024.0405 0 .0375-.01175.07775-.0284.0891-.0703.0152-.034.0155-.0725.0266-.1078.00885-.0565.0203-.113.02185-.1703.01385-.052.0099-.1068.02035-.1594.00665-.0391.0115-.07815.01565-.1172-.0046-.02085-.0136-.02435-.025-.0203zm-.339.20780424c.0075.00114177.0117.01164611.0125.03025705.00075.02089449.01025.03779276.0218.04110391.00915.00262608.00835.01370131-.0015.02140829-.0058.0045671-.0161.00730736-.0344.00719318-.0289-.00017126-.04685-.00873458-.0625-.02683172l-.0094-.01061851.014-.01073269c.00715-.00616558.02-.01895347.0282-.02854438.01425-.01655575.02365-.02420564.03125-.02317804zm3.3015-.39380424c-.02794866.00138631-.05568765.00557396-.0828.0125-.052-.00325-.07815.05135-.02815.07815.03015.0767.0771-.01585.125-.0094.072.014.078.0916.08915.15.004.05785.0207.1141.0375.16875.0481.0535-.036.087-.0719.0453-.0305-.0332-.096-.074-.1328-.0281-.04525.0191-.0471.0795-.0845.09685-.0604.0185-.068-.0559-.1-.0875-.0293-.04115-.0855-.04475-.1312-.0593-.0215-.0435-.01025-.1173-.0547-.1469-.03725.0152-.10565.0851-.0484.1172.05585.048-.0244.07-.05.10315-.0366.0407-.0425.0968-.0485.1484-.0629.03485-.07515-.0393-.08275-.08585-.005-.0556-.05185-.0393-.0845-.01875-.0475.01925-.07135.0645-.1046.1-.004.03235.00185.0678.0015.1015.01085.0406.06015.0215.09065.0188.049-.0205.069.03135.02975.061-.0266.03375-.111.016-.10315.07025.0272.0031.0555.0021.08285 0 .0545-.015.113-.0535.1187-.1141.00715-.053.08335-.0433.125-.0547.052-.015.1147-.01885.1265.04685.0355.0373.1125.07925.1516.0282.03975-.02425.0588-.0669.05625-.1125-.008-.03925.0635-.04065.0813-.01875.026.04285.1075.0302.1469.0062.0418-.03085.05085-.08525.1109-.086.08915-.02665.18175-.042.26875-.075.0705-.0153-.0105-.05985-.0281-.0859-.0537-.0265-.1004.0821-.161.02815-.04675-.03585-.0435-.1039-.0609-.1563-.01185-.0679-.00885-.14615-.0578-.2-.0335-.03575-.07925-.04435-.1265-.0422zm-.33668379.47351628c.00740894-.00023256.01575871.00337203.02940057.01081377.0258725.01406952.04410086.03738307.04410086.05639438 0 .01232537-.00317526.01313931-.02205043.02174381-.01158383.00523247-.02469648.01104632-.02940057.01093004-.01058421-.00011627-.03669191-.02075545-.03675072-.02906926 0-.00348832-.00341046-.01668576-.00735014-.02732512-.00687973-.01860433-.00588011-.01837177.00370447-.03081342.00605652-.00802312.01099582-.01255793.01840476-.01279048zm.33205049.0172203c.02294968-.00190054.03671949.00684192.04651962.028508.01116471.02508704.00353549.04409238-.02530667.05929665-.01259131.00684192-.02524465.01216341-.02710543.01193535-.00186078-.00022807-.01228118-.00775418-.02325981-.0167247-.01674706-.01337975-.0192281-.01999361-.01941418-.03550196-.00018608-.02402275.02170915-.04538474.04850445-.04751334zm-.43857632.00460052c.00863513-.00106364.01648524.00250269.02708288.00976047.0141302.0096979.01860477.01751879.02198031.03716486.00259054.01376476.00219803.03140869 0 .03910444-.00368955.01420274-.00408205.01357706-.04396061.01376477-.05039771.0003754-.05495078-.0040043-.05416577-.04104403.00078502-.0235878.00102052-.02990707.01727025-.04304617.01256017-.01013587.02331482-.01457813.03187145-.01564177zm-.27230647.07227601c.01592415.00399857.02839744.0188252.03184727.03785593.00463233.02772059.00050666.04010823-.01809504.05154298-.01614078.00978883-.05319942.01299402-.06340502.00545749-.0054767-.00417181-.01012176-.00973117-.01360747-.01628585-.00492186-.01039522-.00398091-.01559283.0021714-.02165671.00448757-.00433135.00919228-.01039523.0091199-.01351379 0-.0032052.00492185-.01412018.01136369-.02425552.00906657-.01554951.02504741-.02306344.04053289-.01905791zm.45870769.05893689c.01244766 0 .0228207.0062.0304276.0157.01272427.0163.01230935.04-.00228207.0563-.00933574.0104-.06016366.0095-.07779783 0-.00774521-.0042-.01071882-.01-.01078797-.022-.00013831-.014.00262784-.0226.01936302-.0343.01424564-.0097.02883706-.0155.04114641-.0156zm-.8751916.24095c-.0048-.00315-.0119-.00585-.00475-.0111.00865-.0151.0259-.02035.04125-.026.02737381-.01231611.05104303-.03158937.06865-.0559.0025-.01665.0212-.02565.0211-.043.00015-.0238.0016-.04815-.0042-.07135-.0064-.0213-.0225-.0376-.0413-.0487-.0128-.01015-.0337-.013-.0384-.03075-.00265-.01715.01265-.0302.018-.0455.01115-.021.0205-.04315.0325-.06375.013-.0144.033-.00075.0397.01315.0095.01385.01785.0288.0225.04485.01515.0166.0285.036.034.0581.0074.0155.01915.0301.0185.0483 0 .0208.0117.03935.011.0603.00065.028.0006.05725-.0096.0837-.007.0147-.021.0235-.03035.03665-.0159.0148-.0335.029-.054.03685-.0144.0046-.0228.0213-.0409.01725-.0257.0005-.05185.004-.07735-.0002.0016.0027-.0078-.0046-.00625-.0029zm-.3425.02688153c-.01215-.01318564-.01475-.01872361-.0149-.03164554-.00015-.01308016.00225-.01824893.0141-.03090714.022-.02336496.03265-.02389239.0705-.00369198.0361.01925103.04835.02109702.0516.00738396.0031-.01318565.0239-.02531644.0437-.02531644.01081361-.00071378.02145544.00311656.0296.010654.0125.01033755.01315.01197257.0135.03586495.0002.02441981-.0001.02531643-.0145.03881853-.0139.01286918-.01615.01371306-.0333.01181433-.02185-.00226793-.035-.01286919-.0385-.03101263-.0026-.01318564-.007-.01635019-.0103-.00738396-.001.00290084-.0065.0064346-.012.00791139-.01015.00263713-.0274.014135-.03965.02637128-.00465.0045886-.01275.00675105-.026.00685653-.0177.00021097-.0202-.00089662-.03385-.01571728zm-.991-.44938153c-.03325.00035-.069.0283-.0735.061.00765.0375.0389.0744.0188.114.0139.05065-.038.06985-.0735.04065-.0213-.0486-.0321-.1018-.064-.14535-.0402-.01135-.0577.05285-.086.075.014.03775.05485.07165.0595.11875.0097.0458-.0181.0966-.05785.12035-.03435.03275-.08135.021-.1235.02815-.0512.03.0376.0409.061.0422.0523.0053.1067-.0016.14525-.04065.0385-.0183.0355-.0848.08125-.09215.0794-.0035.15815.0122.2375.0141.0425.0101.10815-.0051.1375.0265.0001.05535.047.0895.0922.111.0249.00685.0512-.024.0765-.02975.0483-.0154.03365-.0751.0625-.0985.0825-.0044.16585-.0035.2485-.00465.0157.0004.02035-.022.03125-.03125-.0019-.0319-.003-.0636-.0079-.0953-.0159-.04025.0026-.09215-.0265-.1265-.0415-.0113-.07685.0267-.1188.0297-.0463.0206-.0853.0634-.0875.1156-.0274.04485-.07135-.008-.05625-.0453-.00165-.01625.0036-.0352-.0015-.05-.02535-.0304-.06975-.0205-.1047-.025-.0509.002-.1006-.009-.1515-.0078-.0447-.0034-.09115.0039-.1344-.0078-.0516-.0015-.0445-.052-.05315-.0875-.00910272-.00647809-.02008399-.00978126-.03125-.0094zm.1.1844c.01715.0003.03335.0025.05.00465.0215.0036.0445-.00735.06565 0 .0488.00835.09765.0064.14685.011.013-.0002.0223.00925.03125.0172.0001.03415 0 .069 0 .1031-.0015.0129.0038.0299-.0078.039-.00369994.00292028-.00795162.00506313-.0125.0063-.0136-.0035-.028-.01235-.0345-.025-.002-.01785.001-.0352.0016-.0531-.00035-.00465.002-.01185 0-.01565-.01037537-.007799-.02292453-.01216849-.0359-.0125-.0425-.0015-.0841-.0045-.1265-.00625-.0354-.0022-.07175.003-.10635-.00625-.0134-.00485-.03085-.0032-.039-.01715-.01175-.01365.00515-.02985.01715-.036.01574975-.00684267.03284185-.01003889.05-.00935zm.58555075.01250399c.01157397-.00025221.01519083.00420356.02039912.02883642.00332751.01597352.00723373.03514175.00904216.04203559.00267648.01008854-.00159142.01319917-.01352708.01849566-.03573462.01563723-.07132456.01412395-.0836219-.00529649-.00564231-.0087434.00086804-.03648689.01128461-.047248.02097782-.02185851.04412575-.0367391.05642309-.03682318z"/></g></g><path d="m3.499 6.1115c1.6321-1.2553 1.49215-3.09415 1.49215-3.09415-.043.0086-.084.0129-.127.0129-.3424 0-1.159-.19585-1.3495-.4446-.204.22515-1.0385.4446-1.37865.4446-.043 0-.0861-.0043-.127-.0129 0 0-.14215 1.8388 1.49 3.09415z" fill="#fff" fill-rule="nonzero" stroke="#c09300" stroke-width=".1"/><path d="m4.861 3.152c-.014.0009-.02815.0013-.0424.0013-.31025 0-1.031-.15915-1.30875-.39785-.291.2205-1.0235.3978-1.3288.3978-.0142344-.00014618-.02842607-.00158543-.0424-.0043-.00075.0695.0029.1416.0072.2072.01615.245.05915.491.1244.7276.2054.74475.6258 1.37765 1.2286 1.85775.6033-.4805 1.0242-1.114 1.23-1.85925.0654-.2366.1085-.4825.1248-.7275.0043-.06425.00785-.1346.0074-.20275z" fill="#fff" fill-rule="nonzero" stroke="#c09300" stroke-width=".1"/><path d="m2.969 3.0015c-.2936.09225-.6115.1515-.7875.1515-.0143 0-.02815-.002-.0422-.00465-.0007.0695.0035.1423.0078.20785.01647381.24572218.05785265.48913698.1235.7265.1382.5013.3753.95165.6984 1.3391zm1.031-.0045v2.4625c.3397-.396.58665-.8603.7297-1.3781.06558622-.23737663.106964-.48078517.1235-.7265.0042-.06425.00825-.135.00775-.2032-.0141.0009-.028.0016-.04225.0016-.1865 0-.521-.0585-.81875-.15625z" fill="#c09300" fill-rule="nonzero"/><g stroke="#c09300" stroke-width=".1" transform="translate(2.5)"><path d="m1.6155 2.4045c.03335.002-.0451-.1784-.0451-.1784.08825.0902.4215.11175.4215.11175-.2-.0883-.3999-.7548-.3764-1.286.0216-.53325-.0764-.743-.15485-.8215-.1-.1-.4215-.18815-.6332-.1999-.11965-.006-.1.0901-.1.0901-.2215-.05685-.443-.0784-.5431-.01175-.0941.06275-.1137.3764-.045.3215.1665-.1333.31165-.01175.4116.1333.0882.1275.08235.48815-.0451.9096-.1333.443-.498.8861-.498.8861.198 0 .4765-.1764.4765-.1764l-.0667.27635c.20975-.1.3764-.25485.3764-.25485l.2.20975c.0666-.0882.1999-.20975.1999-.20975s.16665.1765.4215.2z" fill="#fff" fill-rule="nonzero"/><path d="m.806 1.1285s-.11175.8214-.3215 1.0547m.498-1.0762s-.04315.83115-.1882 1.0978m.3447-1.0643s0 .9096.1 1.0645m.098-1.0195s.0451.7645.2333 1.041"/></g></g></g></g></g></svg>