<svg height="48" viewBox="0 0 48 48" width="48" xmlns="http://www.w3.org/2000/svg" xmlns:xlink="http://www.w3.org/1999/xlink"><defs><path id="a" d="m8 9h32c2.209139 0 4 1.790861 4 4v22c0 2.209139-1.790861 4-4 4h-32c-2.209139 0-4-1.790861-4-4v-22c0-2.209139 1.790861-4 4-4z"/><mask id="b" fill="#fff"><use fill="#fff" fill-rule="evenodd" xlink:href="#a"/></mask></defs><g fill="none" fill-rule="evenodd"><path d="m0 0h48v48h-48z"/><use fill="#d8d8d8" xlink:href="#a"/><g mask="url(#b)"><g transform="translate(4 9)"><path d="m0 0h40v30h-40z" fill="#c60b1e" fill-rule="nonzero"/><path d="m0 7.5h40v15h-40z" fill="#ffc400" fill-rule="nonzero"/><path d="m7.92775 19.099375h.97525v-4.778125h-.97525z" fill="#ccc" fill-rule="nonzero"/><path d="m8.6229375 14.32775v4.7678125zm.1095625-.0000625v4.7678125zm-.80475 4.7716875h.97525v-4.778125h-.97525z" fill="none" stroke="#000" stroke-width=".1"/><path d="m9.8991875 16.1084375c-.2128125-.0879375-.5745625-.153125-.989625-.166875-.143125.00125-.302625.014625-.4673125.0420625-.5833125.0973125-1.0276875.3301875-.9923125.519875.000625.004.001875.01225.0028125.0159375 0 0-.2185625-.4926875-.22225-.5115-.0389375-.2105.4539375-.469125 1.1014375-.577125.203125-.0339375.40125-.047125.573375-.0454375.41425 0 .7741875.053125.991.133625l.00275.5895" fill="#ad1519" fill-rule="nonzero"/><path d="m9.8991875 16.1084375c-.2128125-.0879375-.5745625-.153125-.989625-.166875-.143125.00125-.302625.014625-.4673125.0420625-.5833125.0973125-1.0276875.3301875-.9923125.519875.000625.004.001875.01225.0028125.0159375 0 0-.2185625-.4926875-.22225-.5115-.0389375-.2105.4539375-.469125 1.1014375-.577125.203125-.0339375.40125-.047125.573375-.0454375.41425 0 .7741875.053125.991.133625l.00275.5895" fill="none" stroke="#000" stroke-linejoin="round" stroke-width=".1"/><path d="m7.3203125 17.63c-.025625-.07725.238125-.2316875.6108125-.3684375.1703125-.0609375.3109375-.1245.4851875-.20125.5178125-.229.90025-.4916875.85325-.5875l-.0051875-.0098125c.027625.022375.0703125.49425.0703125.49425.0473125.0878125-.30275.346625-.7795.575-.1525.0729375-.4746875.192-.62675.24525-.272.094375-.5425.272375-.517625.338375l-.0905-.485625" fill="#ad1519" fill-rule="nonzero"/><path d="m7.3203125 17.63c-.025625-.07725.238125-.2316875.6108125-.3684375.1703125-.0609375.3109375-.1245.4851875-.20125.5178125-.229.90025-.4916875.85325-.5875l-.0051875-.0098125c.027625.022375.0703125.49425.0703125.49425.0473125.0878125-.30275.346625-.7795.575-.1525.0729375-.4746875.192-.62675.24525-.272.094375-.5425.272375-.517625.338375l-.0905-.485625v-.0003125z" fill="none" stroke="#000" stroke-linejoin="round" stroke-width=".1"/><path d="m7.8605 15.87925c.11925-.0435.1973125-.094875.1590625-.18875-.024125-.05975-.08575-.07125-.17775-.0375l-.163125.0591875.146875.362c.016-.00725.031875-.01475.048625-.020875.016375-.006.03375-.0105.050625-.015375l-.064375-.1585v-.000125zm-.070875-.17475.04125-.015c.034125-.0125.0728125.005625.09.0478125.0126875.0321875.009375.0679375-.03.093125-.01344442.0076947-.02751538.0142388-.0420625.0195625l-.059125-.1455zm.452-.151375c-.017125.0045625-.0341875.00975-.0515625.013125-.0171875.003375-.035.0053125-.0525.007625l.0845.3765.263-.0528125c-.003125-.007375-.00725-.0153125-.00875-.023-.001875-.007875-.0015625-.016625-.0020625-.0245-.0460625.01325-.0965.0275-.157.0396875l-.0753125-.336625zm.5266875.324625c.0496875-.1365625.10975-.2675.168875-.4-.02146966.0035958-.04324212.0050613-.065.004375-.0314375.0960625-.070625.192125-.111875.2878125-.049375-.0908125-.1040625-.179375-.14575-.270875-.0204375.002625-.041375.005625-.0620625.0070625-.0204375.00125-.041875.0009375-.0623125.00125.07602559.1227684.14880088.2475201.21825.374125.009625-.00175.0195625-.0040625.03-.00475.00975-.000625.02.0003125.029875.000625zm.5498125-.28975c.009125-.018375.0184375-.03625.02875-.0533125-.014125-.0134375-.057625-.0329375-.1085-.038125-.10725-.010625-.168875.0370625-.1760625.101875-.015125.1355.19875.12375.189.21375-.00425.03875-.0454375.054375-.0890625.0501875-.04875-.005-.084375-.03175-.090625-.0715625l-.0133125-.00125c-.00756252.0237843-.01707393.0469044-.0284375.069125.03125.02025.0720625.03175.1109375.035625.109375.0108125.192875-.033.20075-.105.0141875-.12875-.201875-.13625-.1935-.2120625.0035625-.031875.028125-.052875.0839375-.04725.04.0040625.064875.02575.075625.056875l.010625.001125z" fill="#c8b100" fill-rule="nonzero"/><path d="m16.881625 19.099375h.97525v-4.778125h-.97525z" fill="#ccc" fill-rule="nonzero"/><path d="m17.5890625 14.319375v4.768125zm.109625.0001875v4.7679375zm-.8170625 4.7798125h.97525v-4.778125h-.97525z" fill="none" stroke="#000" stroke-width=".1"/><path d="m15.8854375 16.1084375c.2129375-.0879375.5748125-.153125.989875-.166875.143.00125.3025.014625.46725.0420625.583125.0973125 1.0275.3301875.9921875.519875-.000625.004-.001875.01225-.0029375.0159375 0 0 .21875-.4926875.2220625-.5115.0391875-.2105-.4535-.469125-1.1009375-.577125-.1895056-.0315997-.3813828-.0468018-.5735-.0454375-.414375 0-.774375.053125-.99125.133625l-.0026875.5895" fill="#ad1519" fill-rule="nonzero"/><path d="m15.8854375 16.1084375c.2129375-.0879375.5748125-.153125.989875-.166875.143.00125.3025.014625.46725.0420625.583125.0973125 1.0275.3301875.9921875.519875-.000625.004-.001875.01225-.0029375.0159375 0 0 .21875-.4926875.2220625-.5115.0391875-.2105-.4535-.469125-1.1009375-.577125-.1895056-.0315997-.3813828-.0468018-.5735-.0454375-.414375 0-.774375.053125-.99125.133625l-.0026875.5895" fill="none" stroke="#000" stroke-linejoin="round" stroke-width=".1"/><path d="m18.46425 17.63c.025625-.07725-.238125-.2316875-.61075-.3684375-.1703125-.0609375-.311-.1245-.48525-.20125-.5176875-.229-.900125-.4916875-.8529375-.5875l.005-.0098125c-.02725.022375-.07.49425-.07.49425-.0471875.0878125.302875.346625.779.575.1525.0729375.474875.192.627.24525.272.094375.54225.272375.5176875.338375l.0901875-.485625" fill="#ad1519" fill-rule="nonzero"/><path d="m18.46425 17.63c.025625-.07725-.238125-.2316875-.61075-.3684375-.1703125-.0609375-.311-.1245-.48525-.20125-.5176875-.229-.900125-.4916875-.8529375-.5875l.005-.0098125c-.02725.022375-.07.49425-.07.49425-.0471875.0878125.302875.346625.779.575.1525.0729375.474875.192.627.24525.272.094375.54225.272375.5176875.338375l.0901875-.485625v-.0003125z" fill="none" stroke="#000" stroke-linejoin="round" stroke-width=".1"/><path d="m16.49325 15.8990625c.036875-.14.0845625-.2753125.131375-.4123125-.0103125.0028125-.0215.005-.031875.006625-.0108187.0015269-.0217075.0025074-.032625.0029375-.02225.0985-.0525.1975-.0848125.29625-.057625-.0865-.120375-.1705-.1703125-.2578125-.02.0040625-.04075.0089375-.06125.012-.02.0029375-.041375.004375-.062.006375.0871204.1159597.1711499.2342096.252.354625.009625-.0025.019-.00575.0296875-.00725.009625-.00125.01975-.0010625.0298125-.0014375zm.370875-.4095c-.017875.0008125-.035625.002125-.0534375.001875-.017625-.00025-.035375-.0023125-.0529375-.003625l-.00725.38475.2690625.004625c-.001375-.007875-.003375-.0164375-.003125-.0245 0-.0079375.0025-.01625.00375-.024125-.048125.003125-.100625.00625-.162375.005125l.006375-.3440625zm.422375.06325c.043.003625.084375.0110625.1258125.0185625-.00075-.008125-.002-.01625-.001375-.0245625.000625-.007875.00375-.0158125.005875-.0235l-.364375-.0301875c.0009375.008125.0023125.0160625.0014375.023875-.000625.0085625-.003625.01625-.005625.0240625.0440426-.0014129.0881295-.0004114.1320625.003l-.03175.34625c.01775.000375.0355.0001875.053125.001625.0176875.001375.0353125.0045625.0528125.0071875l.03175-.34625zm.149.37925c.0175.00275.03525.0048125.0526875.00875.0173125.0035625.03425.0091875.051125.014l.043125-.176875.00475.001125c.01.02425.023125.053875.03.0709375l.0539375.133625c.021125.003375.0421875.006125.063.010625.02125.0046875.04175.010875.06225.016625l-.018625-.04c-.0290625-.060375-.059625-.1204375-.0848125-.1815.0670625.0029375.1190625-.021375.1320625-.07525.00925-.0375-.005625-.066875-.041-.092125-.026-.0185-.076625-.0283125-.10925-.035625l-.146875-.0320625-.09225.3776875zm.1885625-.325375c.042375.009375.09525.01625.09525.064375-.00025.0120625-.0014375.020625-.003375.02825-.01375.0565-.0565.0760625-.1278125.05475zm.505125.440625c-.00325.04175-.010625.08225-.01875.126125.018375.00875.036625.016625.054375.026375.0178125.009875.0341875.020625.05125.031375l.0360625-.433875c-.0166379-.0065418-.0323866-.0151511-.046875-.025625l-.3825.243c.0101875.004875.020625.009375.0305.0146875.01.005625.01825.0115.028125.0170625.032125-.0270625.065875-.049.104625-.07775l.143125.078375v.0001875zm-.108375-.0990625.127375-.0825-.0148125.143875-.1125-.061375z" fill="#c8b100" fill-rule="nonzero"/><path d="m12.9045625 20.66c-.784875 0-1.562875-.192375-2.216875-.5125-.4820625-.23875-.80175-.72025-.80175-1.27125v-1.998h6.025375v1.998125c0 .550875-.3195625 1.032375-.801875 1.27125-.653875.32-1.4196875.512375-2.2048125.512375" fill="#ccc" fill-rule="nonzero"/><path d="m12.9045625 20.66c-.784875 0-1.562875-.192375-2.216875-.5125-.4820625-.23875-.80175-.72025-.80175-1.27125v-1.998h6.025375v1.998125c0 .550875-.3195625 1.032375-.801875 1.27125-.653875.32-1.4196875.512375-2.2048125.512375z" fill="none" stroke="#000" stroke-width=".1"/><path d="m12.89175 16.8748125h3.019375v-3.3428125h-3.019375z" fill="#ccc" fill-rule="nonzero"/><path d="m12.89175 16.8748125h3.019375v-3.3428125h-3.019375z" fill="none" stroke="#000" stroke-width=".1"/><path d="m11.3915 20.3035625c-.83375 0-1.509625-.64-1.509625-1.429625v-2.0010625h3.012125v2.0010625c0 .789625-.669125 1.429625-1.5025 1.429625z" fill="#ad1519" fill-rule="nonzero"/><path d="m10.54 20.05375c.0940625.05.2233125.133125.3614375.1664375l-.00875-3.4178125h-.35275v3.251375z" fill="#c8b100" fill-rule="nonzero" stroke="#000" stroke-width=".1"/><path d="m9.876875 18.847c.00925.4216875.176625.735125.344.9404375v-2.9685h-.339625l-.004375 2.028z" fill="#c8b100" fill-rule="nonzero" stroke="#000" stroke-linejoin="round" stroke-width=".1"/><path d="m11.2115 20.295125c.1172501.0125192.2354999.0125192.35275 0v-3.49275h-.35275z" fill="#c7b500" fill-rule="nonzero" stroke="#000" stroke-width=".1"/><path d="m11.874375 20.2201875c.138125-.02775.29375-.11375.3615625-.158125v-3.2596875h-.35275l-.00875 3.4178125z" fill="#c8b100" fill-rule="nonzero" stroke="#000" stroke-width=".1"/><path d="m9.8820625 16.8748125h3.01075v-3.3428125h-3.01075z" fill="#ad1519" fill-rule="nonzero"/><path d="m9.8820625 16.8748125h3.01075v-3.3428125h-3.01075z" fill="none" stroke="#000" stroke-width=".1"/><path d="m12.56375 19.7541875c.146875-.1304375.285-.4273125.3351875-.765625l.00875-2.18625h-.35275l.00875 2.951875z" fill="#c8b100" fill-rule="nonzero" stroke="#000" stroke-width=".1"/><path d="m12.894 18.8739375c0 .789625-.669125 1.429625-1.5025 1.429625-.83375 0-1.509625-.64-1.509625-1.429625v-2.0010625h3.012125z" fill="none" stroke="#000" stroke-width=".1"/><path d="m15.914 18.8739375c0 .789625-.6766875 1.429625-1.5104375 1.429625-.8335 0-1.5095625-.64-1.5095625-1.429625v-2.0010625h3.02z" fill="#ad1519" fill-rule="nonzero"/><path d="m15.914 16.872875v2.0010625c0 .789625-.6766875 1.429625-1.5104375 1.429625-.8335 0-1.5095625-.64-1.5095625-1.429625v-2.0010625z" fill="none" stroke="#000" stroke-width=".1"/><path d="m13.4433125 18.38325c.0048125.01025.0075.0205.0075.031375 0 .036875-.03125.06625-.07025.06625-.03875 0-.0701875-.029375-.0701875-.06625 0-.010875.0026875-.021125.007625-.03l-.098125-.001375c-.0020625.01-.00325.0205-.00325.031375 0 .069375.048.12825.11425.148125l-.000125.240625.1028125.000625.000125-.242375c.0470857-.0148447.0846815-.0505953.101875-.096875h.276125v-.0814375h-.3685625zm1.354625.0000625v.081375l-.2483125.000625c-.00422.0106932-.0095845.0208984-.016.0304375l.2885.3276875-.077375.0626875-.2870625-.328125c-.0053125.0016875-.0079375.00375-.0135.0053125l-.0008125.5421875h-.101625l-.0001875-.5445625c-.004375-.001-.0079375-.003125-.011875-.005l-.298875.3301875-.077375-.0626875.298625-.3315c-.0051752-.0085639-.0093683-.017684-.0125-.0271875h-.256625v-.081375h.81525-.00025zm.1654375 0v.081375h.276375c.016375.045625.0535625.081375.1016875.096875l.0001875.2425.102625-.000625-.00025-.24075c.066375-.0198125.1145625-.07875.1145625-.148125 0-.0108125-.0010625-.02125-.003625-.03125h-.097625c.00475.0101875.00725.0204375.00725.03125 0 .036875-.0310625.06625-.07.06625-.038625 0-.0701875-.029375-.0701875-.06625-.0000497-.0104934.0025975-.0208236.0076875-.03l-.36875-.00125zm-.4174375 1.3825c.080625-.0128125.154875-.035.228125-.0658125l.0504375.0858125c-.0863677.0369013-.1771059.0625894-.27.0764375-.01575.070125-.08125.12275-.159875.12275-.0785625 0-.1440625-.052-.16025-.1215625-.0976866-.0129848-.1931736-.0390955-.283875-.077625l.050625-.0858125c.07725.0325.1595625.05425.245.066125.018125-.0390625.051125-.069375.0945625-.0834375l.000875-.420375h.1014375l.0009375.418875c.045.013375.083.0440625.101875.0845h.0001875zm-.6895625-.1410625-.05.08625c-.0848496-.0529839-.1616182-.1179226-.2279375-.1928125-.0521875.0154375-.11125.00625-.155625-.03-.0689375-.0558125-.0773125-.15375-.0183125-.21875l.0085625-.009125c-.0426075-.0950901-.0693572-.1965153-.0791875-.30025l.102625.0004375c.0078373.0885103.030001.1751597.065625.2565625.02875-.0040625.059625-.000625.0873125.0095625l.256625-.284.077375.0625-.255.2835625c.034375.052375.033.12-.006375.1715.0570847.0634112.1224665.1188281.194375.16475zm-.380625-.297875c.0253125-.028125.0695625-.03125.099-.0075.0295.023875.033125.0660625.007875.09375-.0259439.02804-.0691279.0313115-.099.0075-.0140779-.0109872-.0229364-.0273472-.024443-.0451415s.0044753-.0354108.0165055-.0486085zm-.129375-.2808125-.1054375-.023625-.014875-.26725.104625-.0345625.000125.1533125c0 .059375.0053125.115625.015625.172125zm.0875-.33125.105125.0246875s.0054375.1716875.003125.133125c-.0026875-.045.0115.134375.0115.134375l-.105875.0348125c-.010625-.0545625-.014125-.1104375-.014125-.1679375l.0001875-.1591875h.00025zm.3464375.85475c.0906136.0708976.1930131.1252708.3025.160625l.023375-.101625c-.0898122-.0278362-.1744245-.0702796-.2504375-.125625zm-.0508125.08775c.0918113.068677.1939055.1224031.3025.1591875l-.078625.0735c-.0871459-.0323162-.1701275-.0749086-.2471875-.126875zm.137125-.58875.10025.0425.1835625-.20375-.06025-.086625zm-.077875-.062875-.0601875-.087125.18375-.20375.1.0428125-.2235.248125zm1.1300625.6191875.050125.08625c.0848049-.0530197.1615481-.1179546.227875-.1928125.051875.0154375.11125.00625.155625-.03.068875-.0558125.076875-.15375.018125-.21875l-.008625-.009125c.0427721-.0950164.0694483-.1964833.0789375-.30025l-.1020625.0004375c-.0080297.0884911-.0302295.1751166-.06575.2565625-.0295099-.0040095-.0595527-.0007262-.0875.0095625l-.2564375-.284-.0775.0625.255.2835625c-.0348099.05262-.0322978.1215534.00625.1715-.0569805.063446-.1223054.1188681-.1941875.16475zm.380375-.297875c-.0258152-.0280949-.0689878-.0313738-.09875-.0075-.0140852.0109855-.0229443.0273529-.0244395.0451528-.0014952.0178.0045093.0354159.0165645.0485972.0259439.02804.0691279.0313115.099.0075.0140658-.0110117.0228892-.0274009.0243374-.0452056.0014481-.0178047-.004611-.0354044-.0167124-.0485444zm.129375-.2808125.1055-.023625.014875-.26725-.104375-.0345625-.00025.1533125c0 .059375-.00525.115625-.01575.172125zm-.08725-.33125-.105.0246875s-.00575.1716875-.0034375.133125c.0028125-.045-.0115625.134375-.0115625.134375l.1059375.0348125c.010625-.0545625.0141875-.1104375.0141875-.1679375l-.0001875-.1591875zm-.3465625.8546875c-.090615.0708245-.19296.1251914-.302375.160625l-.023375-.101625c.0897342-.0278382.1742639-.0702825.2501875-.125625l.075625.066625zm.0509375.08775c-.091841.0686301-.1939275.122352-.3025.1591875l.078625.0735c.088125-.0325.17125-.075625.24725-.126875zm-.1370625-.58875-.10025.0425-.183625-.20375.0603125-.086625.223625.247875zm.077875-.062875.0601875-.087125-.183625-.20375-.1.0428125.2234375.248125zm-1.2565625-.5406875.0308125.1h.2828125l.0304375-.1zm1.3209375 0-.031.1h-.2826875l-.0304375-.1h.3440625zm-.7263125 1.3648125c0-.036875.031375-.066625.070125-.066625.038625 0 .069875.0296875.069875.0665625 0 .0366875-.03125.06625-.069875.06625-.03875 0-.0701875-.0295625-.0701875-.06625zm.118875-.4845.105625-.0295625v-.2675l-.105625-.028875zm-.1023125 0-.10525-.0295625v-.2675l.10525-.028875z" fill="#c8b100" fill-rule="nonzero"/><path d="m13.22 18.385625c.012125-.05575.055625-.101.111875-.117875l-.000875-.330125h.101875l.000125.331875c.05025.0158125.088875.0529375.104375.10075l.2745.0004375v.015h-.3685625c-.0131647-.0220838-.0370406-.0355437-.06275-.035375-.02725 0-.051125.015125-.0625.036625l-.098125-.00125zm.7628125.0000625v-.015h.255c.0029014-.0083286.0065409-.0163814.010875-.0240625l-.3145-.3505.0773125-.06275.310625.3448125c.0053125-.002625.011-.005.0165-.006875l.00025-.459375h.1016875v.4565c.004625.00125.0115.002625.0160625.0039375l.3033125-.345375.0779375.061875-.3045.3439375c.007875.0115625.013125.024375.0175.038h.247v.015h-.8153125.00025zm1.349375 0c.013055-.0220723.0368564-.0355439.0625-.035375.0275 0 .051125.015125.06275.036625l.097625-.00125c-.012125-.05575-.0553125-.101-.1115-.117875l.000625-.33h-.1015l-.0004375.331875c-.05.015875-.088625.0528125-.1041875.100625l-.2745625.0004375v.015h.36875zm-1.8830625-.9323125.378375.424125.0775-.06275-.380375-.4225c.0075-.01125.0129375-.023625.0175-.036875h.27675v-.0965h-.276875c-.02125-.0625-.0833125-.107375-.156375-.107375-.0905 0-.1640625.069625-.1640625.1555 0 .068.046.126125.110375.1470625l-.000625.3271875h.10175v-.325c.004375-.00125.0120625-.00125.01625-.002875zm1.99625.0021875-.0009375.325625h-.10175v-.326875c-.0078224-.0025102-.0154302-.0056453-.02275-.009375l-.37625.42475-.0778125-.061875.3834375-.433125c-.003125-.006-.0065-.0125-.00875-.019375h-.27825v-.0964375h.277375c.021375-.0625.0828125-.107375.155625-.107375.0904375 0 .1640625.069625.1640625.1555 0 .06975-.0475.128625-.114.1485625zm-1.00375-.00125-.0008125.200625h-.101625l.00025-.199c-.0498834-.0142623-.0898062-.0517408-.1071875-.100625h-.248125v-.0964375h.248125c.0214375-.0625.0825-.107375.1555-.107375.072875 0 .1345.0448125.1559375.107375h.253125v.0964375h-.25375c-.0162612.0470995-.0537874.0837686-.10125.0989375zm-1.109375.2434375-.105625.0296875v.268125l.105625.0290625zm.1023125 0 .10525.0296875v.268125l-.10525.0290625zm1.9071875 0-.10525.0296875v.268125l.1051875.0290625v-.326875zm.1023125 0 .105625.0296875v.268125l-.105625.0290625zm-1.5966875.0529375.1005-.0426875.1835625.2040625-.0603125.0870625-.22375-.2485zm-.0776875.0630625-.06.087375.1835.203875.1-.0429375-.2235-.24825zm1.15275-.071-.1005-.041875-.181875.205625.061.0864375.2214375-.2501875zm.0784375.0625.060875.08675-.18175.205625-.1003125-.0420625.22125-.2501875zm-1.270875.565375.0308125-.100125h.2828125l.0305.100125zm-.414625-1.0635c0-.0366875.0314375-.066625.07025-.066625.038625 0 .07.03.07.066625 0 .03675-.031375.066375-.07.066375-.03875 0-.07025-.029625-.07025-.066375zm.75625.0484375-.0309375.100375h-.2825l-.030625-.100375h.3441875zm.000125-.0971875-.031-.1h-.2825l-.030625.1h.3441875zm.9793125 1.11225-.031-.100125h-.2826875l-.0304375.100125h.3440625zm.2743125-1.0635c0-.0366875.03125-.066625.070125-.066625.03875 0 .07.03.07.066625 0 .03675-.03125.066375-.07.066375-.038875 0-.0701875-.029625-.0701875-.066375zm-1.0076875 0c0-.0366875.0315-.066625.070125-.066625.03875 0 .07.03.07.066625 0 .03675-.03125.066375-.07.066375-.038625 0-.070125-.029625-.070125-.066375zm.391625.0484375.0310625.100375h.2825l.030625-.100375zm0-.0971875.0310625-.1h.2825l.030625.1zm-.369125.31325-.1053125.029625v.268125l.1053125.0290625v-.326875zm.10125-.0000625.10525.0296875v.268125l-.10525.0290625z" fill="#c8b100" fill-rule="nonzero"/><path d="m14.546125 19.76575c.080625-.01275.154875-.035.228125-.06575l.0504375.0858125c-.0863677.0369013-.1771059.0625894-.27.0764375-.01575.070125-.08125.12275-.159875.12275-.0785625 0-.1440625-.052-.16025-.1215625-.0976866-.0129848-.1931736-.0390955-.283875-.077625l.050625-.0858125c.07725.0325.1595625.05425.245.06625.018125-.0391875.051125-.069375.0945625-.0835625l.000875-.420375h.1014375l.0009375.418875c.045.013375.083.0440625.101875.0845h.0001875zm-.2941875-1.273625c-.0050852-.0087036-.0092334-.0179218-.012375-.0275h-.2566875v-.09625h.255c.0030531-.0082677.0067737-.0162732.011125-.0239375l-.3146875-.35.0773125-.062625.3108125.344125c.0053858-.0026162.0109398-.0048712.016625-.00675l.00025-.4585625h.101375v.455625c.0045625.00125.0115.002625.0160625.004125l.3033125-.345.0779375.062-.3045.343125c.0078125.0114375.013125.02425.0175.0378125h.247v.09625l-.248375.00075c-.003625.010875-.01.020875-.01575.0304375l.2885.3279375-.077375.0625-.2870625-.32825c-.0053125.001875-.0079375.004-.01375.0055l-.000625.54225h-.10175l-.0003125-.5445625c-.00425-.00125-.00775-.0035-.011875-.005375l-.29875.3304375-.0773125-.0625.2985-.331625zm-.8025-1.0395625.3783125.423375.0775-.062625-.380375-.4216875c.0075-.01125.0129375-.023625.0175-.036875h.27675v-.09625h-.276875c-.02125-.0625-.0833125-.1071875-.156375-.1071875-.0905 0-.1640625.0695-.1640625.155125 0 .0679375.046.125875.110375.14675l-.000625.3266875h.10175v-.3245625c.004375-.00125.0120625-.00125.01625-.0028125zm.4073125 2.172125-.05.08625c-.0848496-.0529839-.1616182-.1179226-.2279375-.1928125-.0521875.0154375-.11125.00625-.155625-.03-.0689375-.0558125-.0773125-.15375-.0183125-.21875l.0085625-.009125c-.0426075-.0950901-.0693572-.1965153-.0791875-.30025l.102625.0004375c.0078373.0885103.030001.1751597.065625.2565625.02875-.0040625.059625-.000625.0873125.009625l.256625-.2840625.077375.0625-.255.2835625c.034375.052375.033.12-.006375.1715.0570847.0634112.1224665.1188281.194375.16475zm-.525625-.82125v-.2408125c-.06625-.019625-.114375-.07875-.114375-.148125 0-.06925.048875-.128875.11525-.1489375l-.000875-.329375h.101875l.000125.33125c.05025.0158125.088875.0526875.104375.1004375l.2745.0004375v.09625h-.27625c-.0171224.0462855-.0546461.0820794-.1016875.097l-.0001875.2425-.102875-.000625zm.144875.523375c.025375-.028125.069625-.03125.0990625-.0075.0295.023875.033125.0660625.007875.09375-.0259439.02804-.0691279.0313115-.099.0075-.0140779-.0109872-.0229364-.0273472-.024443-.0451415s.0044753-.0354108.0165055-.0486085zm-.12925-.2808125-.1055-.023625-.014875-.26725.104625-.0345625.000125.1533125c0 .059375.0053125.115625.015625.172125zm.0875-.33125.105.0246875s.0055.1716875.00325.133125c-.00275-.045.0115.134375.0115.134375l-.106.0348125c-.010625-.0545625-.014125-.1104375-.014125-.1679375l.0001875-.1591875h.00025zm.346375.85475c.0906136.0708976.1930131.1252708.3025.160625l.023375-.101625c-.0898122-.0278362-.1744245-.0702796-.2504375-.125625zm-.0508125.08775c.0918113.068677.1939055.1224031.3025.1591875l-.078625.0735c-.0871459-.0323162-.1701275-.0749086-.2471875-.126875z" fill="none"/><path d="m13.866875 19.0685.10025.0425.1835625-.203625-.06025-.0866875-.2235625.247875zm-.077875-.0628125-.0601875-.087125.18375-.20375.1.0428125-.2235.248125zm-.4785-.5909375c0-.036875.0314375-.0666875.070125-.0666875.03875 0 .07.02975.07.0666875 0 .036875-.03125.06625-.07.06625s-.0701875-.029375-.0701875-.06625zm1.6085 1.210125.0501875.08625c.0848049-.0530197.1615481-.1179546.227875-.1928125.051875.0154375.11125.00625.155625-.03.068875-.0558125.076875-.15375.018125-.21875l-.008625-.009125c.0427721-.0950164.0694483-.1964833.0789375-.30025l-.1020625.0004375c-.0080297.0884911-.0302295.1751166-.06575.2565625-.029515-.0039895-.0595579-.0006848-.0875.009625l-.2564375-.2840625-.0775.0625.255.2835625c-.0348099.05262-.0322978.1215534.00625.1715-.0569805.063446-.1223054.1188681-.1941875.16475zm.5258125-.82125-.00025-.2408125c.066375-.019625.1145-.07875.1145-.148125 0-.06925-.04875-.128875-.1151875-.1489375l.00075-.329375h-.10175l-.0004375.33125c-.05.0158125-.088625.0526875-.1041875.1004375l-.274625.0004375v.09625h.2764375c.016375.045625.0535.0814375.101625.097l.0001875.2425.102625-.000625h.00025zm-.145375.523375c-.0258152-.0280949-.0689878-.0313738-.09875-.0075-.0140852.0109855-.0229443.0273529-.0244395.0451528-.0014952.0178.0045093.0354159.0165645.0485972.0259439.02804.0691279.0313115.099.0075.0140658-.0110117.0228892-.0274009.0243374-.0452056.0014481-.0178047-.004611-.0354044-.0167124-.0485444zm.129375-.2808125.1055-.023625.014875-.26725-.104375-.0345-.00025.153125c0 .0595-.00525.11575-.01575.1721875zm-.08725-.33125-.105.0246875s-.00575.17175-.0034375.133125c.0028125-.045-.0115625.134375-.0115625.134375l.1059375.0348125c.010625-.0545625.0141875-.1104375.0141875-.1679375l-.0001875-.1591875zm.1038125-1.260125-.000875.3251875h-.10175v-.3265625c-.0078367-.0023932-.0154491-.0054675-.02275-.0091875l-.37625.423875-.0778125-.061875.3834375-.4320625c-.003125-.006125-.0065-.0125-.00875-.019375h-.27825v-.09625h.277375c.021375-.0625.0828125-.1071875.155625-.1071875.0904375 0 .1640625.069375.1640625.155125 0 .0696875-.0475.1284375-.114.14825zm-1.003625-.00125-.000875.20025h-.101625l.00025-.1985625c-.0498378-.0141931-.089757-.0515751-.1071875-.100375h-.248125v-.09625h.248125c.0214375-.0625.0825-.1071875.1554375-.1071875s.1345625.04475.156.107125h.253125v.09625h-.25375c-.0162935.0470835-.0538804.083697-.101375.09875zm.55325 2.1160625c-.090615.0708245-.19296.1251914-.302375.160625l-.023375-.101625c.0897342-.0278382.1742639-.0702825.2501875-.125625l.075625.066625zm.0509375.08775c-.091841.0686301-.1939275.122352-.3025.1591875l.078625.0735c.088125-.0325.17125-.075625.24725-.12675zm-1.713625-1.96075-.1055.0296875v.2675l.1055.029v-.32625zm.102375-.0000625.10525.02975v.2675l-.10525.029zm1.9071875 0-.1053125.02975v.2675l.10525.029v-.32625z" fill="none"/><path d="m15.44425 17.6965625.105625.0296875v.2675l-.105625.029v-.32625zm-.5354375 1.3719375-.10025.0425-.183625-.203625.0603125-.0866875.223625.247875zm.077875-.0628125.0601875-.087125-.1835625-.20375-.1.0428125.2234375.248125zm-1.1389375-1.2561875.1005-.042625.1835625.20375-.0603125.086875zm-.0776875.063125-.06.087125.1835.2035.1-.0428125-.2235-.247875zm1.15275-.0710625-.1005-.0416875-.181875.205125.0610625.08625.22125-.24975zm.0783125.0624375.060875.0864375-.18175.2051875-.1003125-.042.22125-.2496875zm-1.270875.5641875.0308125-.1h.2828125l.0305.1zm0 .09675.0308125.1h.2828125l.0305-.1zm-.414625-1.158125c0-.036625.0314375-.0665.07025-.0665.038625 0 .07.029875.07.0664375 0 .0366875-.031375.06625-.07.06625-.03875 0-.07025-.0295625-.07025-.06625zm.75625.0483125-.0309375.1001875h-.2825l-.030625-.100125h.3441875zm.000125-.0968125-.031-.1h-.2825l-.030625.1h.3441875zm1.2529375 1.1565c0-.036875.0315625-.0666875.0701875-.0666875.0389375 0 .07.02975.07.0666875 0 .036875-.0310625.06625-.07.06625-.038625 0-.0701875-.029375-.0701875-.06625zm-.273625-.0464375-.031-.1h-.2826875l-.0304375.1h.3440625zm-.0000625.09675-.031.1h-.2826875l-.0304375-.1h.3440625zm-.7263125 1.3648125c0-.036875.031375-.066625.070125-.066625.038625 0 .069875.0296875.069875.0665625 0 .0366875-.03125.06625-.069875.06625-.03875 0-.0701875-.0295625-.0701875-.06625zm.118875-.4845.105625-.0295625v-.2675l-.105625-.028875zm-.1023125 0-.10525-.0295625v-.2675l.10525-.028875zm.984-2.0385c0-.0365625.03125-.0664375.0701875-.0664375.03875 0 .07.029875.07.0664375 0 .0366875-.03125.06625-.07.06625-.038875 0-.0701875-.0295625-.0701875-.06625zm-1.007625 0c0-.0365625.0315-.0664375.070125-.0664375.03875 0 .07.029875.07.0664375 0 .0366875-.03125.06625-.07.06625-.038625 0-.070125-.0295625-.070125-.06625zm.391625.048375.0310625.1001875h.2825l.030625-.100125h-.3441875zm0-.0968125.0310625-.1h.2825l.030625.1zm-.369375.312125-.1053125.029625v.267625l.1053125.029zm.10125 0 .10525.029625v.267625l-.10525.029z" fill="none"/><g fill-rule="nonzero"><path d="m14.88275 14.2196875s.00025.04325.004375.084625c.0041875.0395625-.0126875.07425-.00625.09625.00625.0221875.009375.039625.018125.055625.008.0159375.0125.0564375.0125.0564375s-.023125-.0164375-.0445625-.0325c-.0210625-.016125-.03625-.026125-.03625-.026125s.004375.04325.006375.061875c.0023125.0184375.013125.053375.030625.0740625.017375.02025.0520625.0535.06275.080125.0110625.026875.008875.086125.008875.086125s-.028125-.045-.0523125-.053125c-.02375-.0083125-.0759375-.03725-.0759375-.03725s.047875.0475.047875.0926875c0 .045125-.019375.0965-.019375.0965s-.0216875-.040875-.04975-.0676875c-.028375-.026625-.0675-.0535-.0675-.0535s.030625.07.030625.117c0 .0475-.0085625.1483125-.0085625.1483125s-.023875-.0389375-.04775-.0579375c-.024-.0183125-.0521875-.03475-.061-.046875-.0085-.0123125.0284375.03875.0325.069625.0041875.0309375.01875.1410625.115125.2816875.05625.0821875.14325.226.32975.17875.18675-.047125.1175-.298125.0783125-.4153125-.03925-.116875-.05875-.24675-.0565625-.2920625.0020625-.045.034625-.1785.030375-.2035-.00425-.024375-.014375-.12.00875-.196875.0239375-.08.04375-.111125.0565625-.1441875.01275-.032875.0235625-.0514375.027875-.0801875.004375-.02875.004375-.0825.004375-.0825s.034625.0639375.043375.0865c.008625.022875.008625.0904375.008625.0904375s.0064375-.0675.05875-.100375c.0521875-.033125.1128125-.0679375.128125-.0864375.015125-.01875.0195625-.030875.0195625-.030875s-.004375.1153125-.036875.160625c-.0215625.029375-.1065625.1253125-.1065625.1253125s.043625-.016625.073875-.0183125c.0304375-.0023125.0520625 0 .0520625 0s-.036875.02875-.084625.098625c-.047625.0696875-.028125.075875-.062875.133375-.035.0575-.063125.0596875-.1065.094625-.0651875.0525-.03.26075-.0215625.29175.00875.030625.1215.2858125.12375.3475.002.06175.013125.199375-.095625.28775-.07.057375-.184375.0578125-.210625.0741875-.026125.016125-.0778125.0675-.0778125.174375 0 .10725.03875.1234375.069125.15025.030625.026875.0695625.012375.07825.033125.00875.020375.013125.0326875.026125.045.013125.0121875.021875.0266875.017375.0490625-.00425.02275-.05425.074125-.071625.111375-.0175.036625-.0521875.1335625-.0521875.147875 0 .0145-.0040625.0596875.0108125.0825 0 0 .05425.06325.0173125.075625-.023875.008125-.0471875-.015-.0585-.012375-.032375.0085625-.049375.0285-.058625.026875-.02175-.004125-.02175-.01475-.0239375-.0451875-.002-.03075-.0009375-.04325-.010625-.04325-.013125 0-.0195625.010625-.021875.026875-.00225.016375-.00225.053125-.01725.053125-.0151875 0-.036875-.0265625-.049875-.0325-.013125-.00625-.05-.012375-.052-.02875-.00225-.0164375.021625-.051375.0454375-.057625.023875-.006125.045625-.01825.030375-.030625s-.030375-.012375-.0454375 0c-.01525.012375-.0476875.001875-.045625-.0165625.0021875-.0185625.0065-.041.0041875-.051375-.002-.01-.028125-.030625.006375-.0495.034875-.0183125.049875.0166875.0845625.0104375.034875-.0058125.05225-.018625.06525-.038875.013125-.0204375.0108125-.06375-.013-.0903125-.0239375-.026875-.04775-.031125-.0565625-.0475-.00875-.0164375-.0215625-.0554375-.0215625-.0554375s.00625.071875.001875.08225c-.004125.01025-.001875.05325-.001875.05325s-.023875-.0266875-.0434375-.0470625c-.019375-.020625-.0389375-.082125-.0389375-.082125s-.0020625.0575-.0020625.08025c0 .0223125.025875.043125.0173125.051375-.00875.008125-.04975-.04325-.060625-.051375-.0110625-.00825-.045625-.034875-.061-.063875-.015-.02875-.026125-.0696875-.0303125-.084375-.004375-.014375-.0115625-.0784375-.004375-.094625.01075-.0245.028125-.0678125.028125-.0678125h-.084625c-.0454375 0-.078125-.01425-.095375.016375-.0173125.0309375-.00875.09275.012875.1728125.021875.079875.0345625.119125.0283125.1335625-.006375.014375-.0346875.047375-.0454375.0533125-.011125.006375-.0415.00425-.0545625-.0016875-.0128125-.00625-.034375-.0166875-.0758125-.0166875-.041125 0-.06725.001875-.0823125-.0016875-.0151875-.0041875-.0521875-.0228125-.06975-.01875-.017375.00425-.0473125.0195625-.039125.0433125.01325.036875-.0128125.04525-.030375.043125-.0173125-.002125-.032125-.0083125-.05425-.014375-.0215-.00625-.0541875 0-.0498125-.0248125.0041875-.02475.013-.026625.02375-.045.0109375-.01875.015-.030625.002875-.031875-.01525-.0015625-.030625-.00325-.0425.0065625-.0114375.0095625-.030125.0303125-.0454375.022625-.0153125-.008125-.0271875-.0258125-.0271875-.064625 0-.0385-.040625-.0721875-.0033125-.0705.0373125.00175.0848125.0290625.093375.008125.008375-.0210625.003125-.0304375-.017-.046875-.020375-.016-.04575-.025625-.0185625-.0464375.027125-.02075.033875-.02075.04425-.0321875.010125-.0110625.024625-.04725.04375-.0383125.0371875.0176875.0016875.0434375.039.085.037375.0416875.061.0564375.12375.0498125.0626875-.006375.079875-.0145.079875-.0321875 0-.01775-.00525-.0496875-.007-.0626875-.0015625-.01275.008625-.059375.008625-.059375s-.028875.0178125-.037375.03525c-.008125.01775-.02525.048125-.02525.048125s-.006875-.0360625-.005-.0655c.00125-.01725.0073125-.0473125.0066875-.05325-.001625-.0159375-.0135-.05625-.0135-.05625s-.01025.0435-.016875.05625c-.006875.0128125-.010125.064375-.010125.064375s-.039875-.03475-.02875-.093125c.00825-.045-.006875-.104375.006625-.12375.0133125-.019375.0455-.098125.123625-.1014375.078-.0029375.1389375.003375.16625.001875.027125-.001875.12375-.019375.12375-.019375s-.178125-.091375-.21875-.118875c-.040625-.0270625-.1035-.09775-.1239375-.13-.0203125-.032125-.0389375-.0945625-.0389375-.0945625s-.032.0014375-.0609375.0175c-.0277538.0157443-.052888.0357125-.0745.0591875-.017125.019375-.0440625.0628125-.0440625.0628125s.004875-.05625.004875-.0739375c0-.01725-.0033125-.0515-.0033125-.0515s-.0203125.0770625-.061.1058125c-.04075.02925-.088125.069375-.088125.069375s.005125-.043125.005125-.052875c0-.0095625.01-.059375.01-.059375s-.02875.0429375-.072875.0515c-.0440625.007875-.108625.00625-.11375.03375-.005.026875.011875.064.00175.083125-.0101875.019375-.032125.03225-.032125.03225s-.0254375-.021125-.0475-.022625c-.0220625-.0016875-.0425.0098125-.0425.0098125s-.01875-.024375-.011875-.0403125c.006875-.016.040625-.04.0323125-.0498125-.0085-.009625-.035625.003375-.052625.01125-.016875.008125-.052625.016-.04925-.01125.0034375-.0273125.011875-.04325.0034375-.0626875-.0085-.0189375-.0034375-.031875.0103125-.036875.0134375-.004375.0676875.0015.0728125-.0108125.005-.013-.0135-.029-.04925-.037125-.035625-.007875-.052625-.0289375-.033875-.046625.018625-.0176875.02375-.022375.0321875-.0385.0084375-.01625.011875-.045.0441875-.030625.031875.014375.0251875.04975.059375.061.033625.0115.1134375-.004625.13025-.01425.0171875-.0098125.071375-.049875.09-.059625.01875-.009375.0965625-.0673125.0965625-.0673125s-.045625-.031875-.0626875-.048125c-.016875-.0160625-.04725-.054375-.0623125-.0625-.015375-.0083125-.09-.036875-.1154375-.0385625s-.1035-.02875-.1035-.02875.035625-.0115.0475-.021125c.011875-.0095625.03875-.033875.0525-.032125.0134375.00175.0166875.00175.0166875.00175s-.0725-.0035-.0879375-.0079375c-.01525-.0051875-.059375-.0325-.076125-.0325-.01725 0-.0509375.0066875-.0509375.0066875s.045625-.0289375.0829375-.0353125c.0373125-.00625.06625-.005.06625-.005s-.057625-.0159375-.071375-.035125c-.0135-.019375-.026875-.0479375-.037375-.0609375-.010125-.01275-.016875-.03375-.035625-.0353125-.0185625-.0016875-.050875.0225-.069375.020875-.0185-.0015-.03225-.013125-.034125-.0401875-.00125-.027375 0-.017875-.006375-.032125-.006875-.014625-.034-.048375-.008625-.05625.025625-.008125.079875.00475.0848125-.004875.0051875-.009625-.02875-.0385625-.05075-.0498125-.0220625-.01125-.057625-.030625-.0389375-.0465.01875-.016.03725-.0223125.0475-.036875.010125-.014375.022-.0545.044125-.041875.022.0129375.0525.07575.0695.070875.017125-.005.018375-.049875.01525-.069-.0034375-.019375 0-.053125.016625-.05.017125.00325.030625.025625.0578125.0275.027.0015625.06775-.00625.064375.0126875-.003375.0191875-.01875.043-.037375.064125-.018125.0210625-.02675.062625-.015.089875.011875.0275.0425.0710625.0695.0885.026875.017625.0778125.030625.11025.051375.0320625.021125.106875.08025.13225.0866875.0254375.0065625.050875.019375.050875.019375s.02875-.0128125.067875-.0128125c.0389375 0 .12875.006375.1626875-.008125.0339375-.014625.078125-.0385.0645-.0691875-.0134375-.0303125-.088125-.05775-.0814375-.081625.006875-.0240625.0339375-.025625.0795625-.0275.04575-.0014375.1085.008125.12025-.05625.011875-.0640625.0153125-.10125-.048875-.1154375-.0645-.0145-.112125-.0159375-.12375-.062625-.011875-.0465-.02375-.05775-.0103125-.07075.01375-.0125.0373125-.0191875.0848125-.022125.0475-.0034375.1016875-.0034375.117-.015.0153125-.0108125.0184375-.0414375.037125-.0545.0185625-.0125.09175-.024125.09175-.024125s.087125.0426875.168125.10275c.072375.054125.137875.134.137875.134" fill="#ed72aa" stroke="#000" stroke-width=".1"/><path d="m13.238625 20.01375c0 .1425-.1383125.25075-.317875.25075-.1795 0-.325-.108125-.325-.25075 0-.1078125.05975-.228125.184625-.236875 0 0-.00375-.01125-.0145625-.029875-.013-.01375-.0385-.0395625-.0385-.0395625s.0476875-.009.075125.0014375c.027625.0104375.0458125.027875.0458125.027875s.013125-.025625.03125-.0454375c.0185-.019625.042375-.031875.042375-.031875s.027625.023125.0366875.03875c.009.0159375.014875.035.014875.035s.025375-.0210625.0475-.0295625c.021875-.00875.0503125-.0155.0503125-.0155s-.008125.0275-.0135.0415c-.005375.0139375-.0083125.04325-.0083125.04325.1255625.0379375.1891875.131375.1891875.240875z" fill="#ffd691" stroke="#000" stroke-width=".1"/><path d="m10.9154375 14.30475h-.0554375v-.0555h-.0970625v.221875h.0970625v.1525h-.2079375v.443625h.110875v.8873125h-.221875v.4575h1.705375v-.4575h-.221875v-.8873125h.1109375v-.44375h-.2079375v-.152375h.097125v-.221875h-.0970625v.0555h-.055375v-.0555h-.09725v.0555h-.06925v-.0555h-.097125v.221875h.097125v.1525h-.208v-.4853125h.110875v-.221875h-.110875v.0555h-.0554375v-.055375h-.0970625v.0554375h-.0554375v-.055375h-.1109375v.221875h.1109375v.4851875h-.208v-.1525h.097v-.221875h-.0970625v.055625h-.055625v-.055625h-.1108125v.055625zm-.374375 2.107375h1.705375zm.0000625-.1109375h1.7053125zm0-.111h1.7053125zm0-.1109375h1.7053125zm0-.1248125h1.7053125zm.2218125-.0970625h1.2616875zm0-.1109375h1.2616875zm0-.12475h1.2616875zm0-.111h1.2616875zm0-.1109375h1.2616875zm0-.1109375h1.2616875zm0-.1109375h1.2616875zm-.1108125-.110875h1.483375zm-.0000625-.1109375h1.4834375zm0-.1108125h1.4834375zm0-.1109375h1.4834375zm.2079375-.1109375h1.0675zm.4298125-.110875h.2079375zm0-.1109375h.2079375zm0-.110875h.2079375zm0-.1109375h.2079375zm-.1109375-.13875h.42975zm-.318875.4714375h.221875zm-.0970625-.13875h.4159375zm0 2.038125v-.110875zm0-.221875v-.1109375zm-.110875-.0000625v.1109375zm.2079375.1109375v-.111zm.110875.110875v-.1109375zm0-.2219375v-.1109375zm0-.2328125v-.1zm0-.2109375v-.12475zm-.110875.33275v-.1248125zm-.2079375-.0000625v-.1248125zm.42975-.1248125v.12475zm.097.002875v-.1zm-.318875-.2109375v.1109375zm.221875 0v.1109375zm.2079375 0v.1109375zm-.1109375 0v-.12475zm.1109375-.23575v.1109375zm0-.221875v.110875zm-.1109375-.111v.1109375zm.1109375-.1109375v.1109375zm-.208.0000625v.110875zm-.221875 0v.110875zm-.0970625-.111v.111zm.2079375.0000625v.111zm.208.0000625v.111zm.1109375-.110875v.1109375zm-.208.000125v.110875zm-.221875.0000625v.110875zm-.0970625-.110875v.1109375zm.4159375 0v.1109375zm-.208-.2218125v.110875zm.9566875 0h-.22175zm.097125-.13875h-.416zm0 2.038125v-.110875zm0-.221875v-.1109375zm.110875-.0000625v.1109375zm-.2079375.1109375v-.111zm-.110875.110875v-.1109375zm0-.2219375v-.1109375zm0-.2328125v-.1zm0-.2109375v-.12475zm.1109375.33275v-.1248125zm.208-.0000625v-.1248125zm-.42975-.1248125v.12475zm-.097125.002875v-.1zm.3189375-.2109375v.1109375zm-.22175 0v.1109375zm-.208 0v.1109375zm.110875 0v-.12475zm-.110875-.23575v.1109375zm0-.221875v.110875zm.110875-.111v.1109375zm-.110875-.1109375v.1109375zm.208.0000625v.110875zm.221875 0v.110875zm.097-.111v.111zm-.208.0000625v.111zm-.208.0000625v.111zm-.110875-.110875v.1109375zm.208.000125v.110875zm.221875.0000625v.110875zm.097-.110875v.1109375zm-.416 0v.1109375zm.208-.2218125v.110875zm-.4298125 1.233875v-.12475zm0-.4575625v-.1109375zm0 .2218125v-.1098125zm0-.4425625v-.111zm0-.2218125v-.1109375zm0-.3328125v-.110875zm0-.22175v-.1109375zm-.526875.1801875h.221875zm.4298125-.3328125h.2079375zm.4159375.3328125h.221875z" fill="#c8b100"/><path d="m11.678 16.412125v-.29125c0-.055375-.02775-.22175-.29125-.22175-.2495 0-.2771875.166375-.2771875.221875v.291125z" fill="#c8b100" stroke="#000" stroke-width=".1"/><path d="m11.2065625 16.13475-.1385625-.01375c0-.0555.01375-.13875.0554375-.1664375l.1248125.0970625c-.013875.013875-.0416875.0554375-.0416875.083125zm.374375 0 .138625-.01375c0-.0555-.01375-.13875-.0554375-.1664375l-.1248125.0970625c.01375.013875.0415625.0554375.0415625.083125zm-.138625-.138625.069375-.12475c-.0278125-.013875-.0833125-.0276875-.124875-.0276875-.02775 0-.083125.01375-.1109375.027625l.069375.12475h.097zm-.2634375-.3465625v-.305c0-.083125-.0554375-.1525-.1525-.1525s-.1525.069375-.1525.1525v.305zm.42975 0v-.305c0-.083125.0555-.1525.1525-.1525.097125 0 .1525.069375.1525.1525v.305zm-.110875-.7486875.02775-.2773125h-.2634375l.013875.2773125h.221875zm.208 0-.02775-.2773125h.27725l-.0276875.2773125h-.22175zm-.623875 0 .01375-.2773125h-.263375l.02775.2773125z" fill="#c8b100" stroke="#000" stroke-width=".1"/><path d="m11.5809375 16.412125v-.249625c0-.0415625-.02775-.166375-.194125-.166375-.1525 0-.1803125.1248125-.1803125.166375v.249625h.374375zm-.4298125-.79025v-.2635c0-.069375-.0415625-.138625-.1248125-.138625-.083125 0-.124625.069375-.124625.138625v.2634375h.2495zm.4853125 0v-.2635c0-.069375.0415625-.138625.12475-.138625.083125 0 .1246875.069375.1246875.138625v.2634375h-.2495z" fill="#0039f0"/><path d="m11.9255 16.860375c0-.606125.4366875-1.0975.97525-1.0975.53875 0 .9755.491375.9755 1.0975s-.4366875 1.0975-.9755 1.0975c-.5385625 0-.97525-.491375-.97525-1.0975" fill="#ad1519"/></g><path d="m11.9255 16.860375c0-.606125.4366875-1.0975.97525-1.0975.53875 0 .9755.491375.9755 1.0975s-.4366875 1.0975-.9755 1.0975c-.5385625 0-.97525-.491375-.97525-1.0975z" fill="none" stroke="#000" stroke-width=".1"/><path d="m12.2148125 16.85825c0-.4445.3070625-.8046875.686375-.8046875.379 0 .686125.3601875.686125.8046875 0 .444625-.307125.805-.68625.805-.37925 0-.68625-.360375-.68625-.805" fill="#005bbf" fill-rule="nonzero"/><path d="m12.2148125 16.85825c0-.4445.3070625-.8046875.686375-.8046875.379 0 .686125.3601875.686125.8046875 0 .444625-.307125.805-.68625.805-.37925 0-.68625-.360375-.68625-.805z" fill="none" stroke="#000" stroke-width=".1"/><g fill="none" fill-rule="nonzero" transform="matrix(1 0 0 -1 10.100098 13.6)"><path d="m4.92857143 2.36742424c-.10017857-.15743371-.15053572-.26811079-.13392857-.45336174.01660714-.18465909-.05035715-.28645833-.05035715-.18465909s-.17035714.02485795-.21428571-.15743371c-.05357143-.22194603.09803571.29000947-.05357143.3420928-.13392857.04675663-.30964286-.39713542-.26785714-.35097064.04178571.04616477.10071428.31427556.06696428.35097064-.03321428.03728693-.2175-.12902462-.2175-.12902462s.05839286.11067708.10875.15684185c.05035715.04616478 0 .13375947 0 .13375947s.10875.07930872.16767858.1994555c.05839285.12014678.16714285.64689867.16714285.64689867s.27642857-.07398201.40178572-.16631155c.12535714-.09232955.12535714-.23082387.02517857-.38825758m-1.12178572-.36044034c.03375-.09232954.06696429-.20359848 0-.17578125-.06696428.02781724-.10875.14796402-.17571428.17578125-.06696429.02781724.03375-.0929214-.05410714-.16690341-.08839286-.07398201-.19339286-.07634943-.23035715-.13849432.08357143.10179925.12803572.39240057 0 .39772728-.22607143.00946969-.09214285-.37937974-.09214285-.37937974s-.10875-.04616477-.10875.06510417c0 .11067708-.11732143.10179924-.10071429.17578125.01714286.07398201-.03321429.11067708-.11678571.04616477-.08410715-.06451231-.11732143-.14796401-.15910715-.10179924-.04178571.04616477 0 .09232954.06696429.15684186.06696428.06510416.14196428.11126893.04178571.15743371.04178572.05563447.18428572.15743371.18428572.15743371s-.19285715.31427557-.06696429.9522964c.70285714.01834754.95410714-.13849432 1.02964286-.27758049.075-.13849432-.16767857-.55456913-.23464286-.62855114-.06696428-.07398201-.05035714-.13908617 0-.17578125.05035714-.03728693.05571429-.10179924.05571429-.10179924s-.07232143-.04616477-.03910715-.13849432m-1.30553571-.10179924c-.04178571-.04616477-.07553571.03728693-.15910714.10179924s-.13392857.02781724-.11732143-.04616477-.10017857-.06510417-.10017857-.17578125c0-.11126894-.10875-.06510417-.10875-.06510417s.13392857.38884943-.09214286.37937974c-.12857143-.00532671-.08410714-.29592803 0-.39772728-.0375.06214489-.1425.06451231-.23035714.13849432-.08785715.07398201.01232143.19472065-.05464286.16690341-.06696429-.02781723-.10875-.14796401-.17571429-.17578125-.06696428-.02781723-.03321428.08345171 0 .17578125.03375.09232955-.03857142.13849432-.03857142.13849432s.00535714.06451231.05571428.10179924c.04982143.03669508.06696429.10179924 0 .17578125-.06696428.07398201-.31017857.49005682-.23464286.62855114.07553572.13908617.32625.29592803 1.02964286.27758049.12535714-.63802083-.06696428-.9522964-.06696428-.9522964s.1425-.10179924.18428571-.15743371c-.10071429-.04616478-.02517857-.09232955.04178571-.15743371.06696429-.06451232.10875-.11067709.06696429-.15684186m-1.70785714.00887784c-.15160715-.05208333 0-.56403883-.05303572-.3420928-.04392857.18229166-.21482143.25923295-.21482143.15743371s-.06696428 0-.05035714.18465909c.01714286.18525095-.03321428.29592803-.13392857.45336174-.10017857.15743371-.10017857.29592803.02517857.38825758.12589286.09232954.40178572.16631155.40178572.16631155s.10875-.52675189.16767857-.64689867c.05839285-.12014678.16714285-.1994555.16714285-.1994555s-.04982142-.08759469 0-.13375947c.05035715-.04616477.10875-.15684185.10875-.15684185s-.18375.16631155-.2175.12902462c-.03321428-.03669508.04178572-.08285985.03375-.14796402-.00857142-.06451231-.10071428.19472065-.23464285.14796402m1.84178571 1.75722064c-2.10964286 0-2.77071428-.98958333-2.595-1.35949337.17571429-.36991004.70285714-1.32220644.70285714-1.32220644s-.16714285-.073982 0-.44389204c.16767858-.36991004.82071429-.12014678 1.89214286-.12014678s1.72446429-.24976326 1.89160714.12014678c.16767858.36991004 0 .44389204 0 .44389204s.52714286.9522964.70339286 1.32220644c.17571429.36991004-.48589286 1.35949337-2.595 1.35949337" fill="#ad1519" transform="translate(.204268 .079545)"/><path d="m.53571429.59185606c0-.05859375-.04339286-.10653409-.09642858-.10653409-.05303571 0-.09589285.04794034-.09589285.10653409v.93394886c0 .05859375.04285714.1065341.09589285.1065341.05303572 0 .09642858-.04794035.09642858-.1065341z" fill="#c60b1e" transform="translate(2.362179 3.052675)"/><path d="m1.07142857.59185606c0-.0538589-.03910714-.09706439-.08785714-.09706439h-.41839286c-.04875 0-.08785714.04320549-.08785714.09706439s.03910714.0970644.08785714.0970644h.41839286c.04875 0 .08785714-.0432055.08785714-.0970644" fill="#c60b1e" transform="translate(2.019 3.737038)"/><path d="m1.07142857.59185606c0-.19649621-.14464286-.35629735-.3225-.35629735s-.32196428.15980114-.32196428.35629735.14410714.35629735.32196428.35629735.3225-.15980114.3225-.35629735" fill="#0c4076" transform="translate(2.044071 3.159032)"/><path d="m.53571429.59185606c0-.08700284-.09053572-.15743371-.2025-.15743371-.11196429 0-.2025.07043087-.2025.15743371 0 .08641099.09053571.15684186.2025.15684186.11196428 0 .2025-.07043087.2025-.15684186" fill="#005bbf" transform="translate(.752143 .073449)"/><path d="m.53571429.59185606c0-.08700284-.09053572-.15743371-.2025-.15743371-.11196429 0-.2025.07043087-.2025.15743371 0 .08641099.09053571.15684186.2025.15684186.11196428 0 .2025-.07043087.2025-.15684186" fill="#c6363c" transform="translate(1.566696 .12719)"/><path d="m.53571429.59185606c0-.08700284-.09053572-.15743371-.2025-.15743371-.11196429 0-.2025.07043087-.2025.15743371 0 .08641099.09053571.15684186.2025.15684186.11196428 0 .2025-.07043087.2025-.15684186" fill="#c6363c" transform="translate(3.374732 .12719)"/><g fill="#005bbf"><path d="m.53571429.59185606c0-.08700284-.09053572-.15743371-.2025-.15743371-.11196429 0-.2025.07043087-.2025.15743371 0 .08641099.09053571.15684186.2025.15684186.11196428 0 .2025-.07043087.2025-.15684186" transform="translate(4.212054 .073449)"/><path d="m.53571429.59185606c0-.08700284-.09053572-.15743371-.2025-.15743371-.11196429 0-.2025.07043087-.2025.15743371 0 .08641099.09053571.15684186.2025.15684186.11196428 0 .2025-.07043087.2025-.15684186" transform="translate(2.468625 .138494)"/></g></g><path d="m1.64285714.9469697c-.03339285-.06297349-.05017857-.10724432-.04464285-.1813447.00553571-.07386364-.01678572-.11458333-.01678572-.07386364 0 .0407197-.05678571.00994319-.07142857-.06297348-.01785714-.08877841.03267857.11600379-.01785714.13683712-.04464286.01870265-.10321429-.15885417-.08928572-.14038826s.03357143.12571023.02232143.14038826c-.01107143.01491477-.0725-.05160985-.0725-.05160985s.01946429.04427084.03625.06273674c.01678572.01846591 0 .05350379 0 .05350379s.03625.03172349.05589286.0797822c.01946428.04805871.05571428.25875947.05571428.25875947s.09214286-.0295928.13392858-.06652462c.04178571-.03693182.04178571-.09232955.00839285-.15530303m-.37392857-.14417614c.01125-.03693182.02232143-.08143939 0-.0703125-.02232143.0111269-.03625.05918561-.05857143.0703125-.02232143.0111269.01125-.03716856-.01803571-.06676136-.02946429-.02959281-.06446429-.03053978-.07678572-.05539773.02785715.0407197.04267858.15696023 0 .15909091-.07535714.00378788-.03071428-.15175189-.03071428-.15175189s-.03625-.01846591-.03625.02604166c0 .04427084-.03910714.0407197-.03357143.0703125.00571429.02959281-.01107143.04427084-.03892857.01846591-.02803572-.02580492-.03910714-.0591856-.05303572-.0407197-.01392857.01846591 0 .03693182.02232143.06273675.02232143.02604166.04732143.04450757.01392857.06297348.01392858.02225379.06142858.06297349.06142858.06297349s-.06428572.12571022-.02232143.38091856c.23428571.00733901.31803571-.05539773.34321428-.1110322.025-.05539773-.05589285-.22182765-.07821428-.25142045-.02232143-.02959281-.01678572-.05563447 0-.0703125.01678571-.01491478.01857143-.0407197.01857143-.0407197s-.02410715-.01846591-.01303572-.05539773m-.43517857-.0407197c-.01392857-.0184659-.02517857.01491478-.05303571.0407197-.02785715.02580493-.04464286.0111269-.03910715-.01846591.00553572-.0295928-.03339285-.02604166-.03339285-.0703125 0-.04450757-.03625-.02604166-.03625-.02604166s.04464285.15553977-.03071429.15175189c-.04285714-.00213068-.02803571-.11837121 0-.15909091-.0125.02485795-.0475.02580492-.07678571.05539773-.02928572.0295928.00410714.07788826-.01821429.06676136-.02232143-.01112689-.03625-.0591856-.05857143-.0703125-.02232143-.01112689-.01107143.03338068 0 .0703125.01125.03693182-.01285714.05539773-.01285714.05539773s.00178571.02580492.01857143.0407197c.01660714.01467803.02232143.04071969 0 .0703125-.02232143.0295928-.10339286.19602272-.07821429.25142045.02517857.05563447.10875.11837121.34321429.1110322.04178571-.25520834-.02232143-.38091856-.02232143-.38091856s.0475-.0407197.06142857-.06297349c-.03357143-.01846591-.00839286-.03693182.01392857-.06297348.02232143-.02580493.03625-.04427084.02232143-.06273675m-.56928571.00355114c-.05053572-.02083333 0-.22561553-.01767858-.13683712-.01464285.07291667-.07160714.10369318-.07160714.06297348 0-.04071969-.02232143 0-.01678571.07386364.00571428.07410038-.01107143.11837121-.04464286.1813447-.03339286.06297348-.03339286.11837121.00839286.15530303.04196428.03693182.13392857.06652462.13392857.06652462s.03625-.21070076.05589286-.25875947c.01946428-.04805871.05571428-.0797822.05571428-.0797822s-.01660714-.03503788 0-.05350379c.01678572-.0184659.03625-.06273674.03625-.06273674s-.06125.06652462-.0725.05160985c-.01107143-.01467803.01392857-.03314394.01125-.05918561-.00285714-.02580492-.03357143.07788826-.07821428.05918561m.61392857.70288826c-.70321429 0-.92357143-.39583334-.865-.54379735.05857143-.14796402.23428571-.52888258.23428571-.52888258s-.05571428-.0295928 0-.17755681c.05589286-.14796402.27357143-.04805872.63071429-.04805872.35714285 0 .57482143-.0999053.63053571.04805872.05589286.14796401 0 .17755681 0 .17755681s.17571429.38091856.23446429.52888258c.05857143.14796401-.16196429.54379735-.865.54379735" fill="#ad1519" fill-rule="nonzero" transform="matrix(1 0 0 -1 7.468089 13.368182)"/><path d="m1.64285714.9469697c-.03339285-.06297349-.05017857-.10724432-.04464285-.1813447.00553571-.07386364-.01678572-.11458333-.01678572-.07386364 0 .0407197-.05678571.00994319-.07142857-.06297348-.01785714-.08877841.03267857.11600379-.01785714.13683712-.04464286.01870265-.10321429-.15885417-.08928572-.14038826s.03357143.12571023.02232143.14038826c-.01107143.01491477-.0725-.05160985-.0725-.05160985s.01946429.04427084.03625.06273674c.01678572.01846591 0 .05350379 0 .05350379s.03625.03172349.05589286.0797822c.01946428.04805871.05571428.25875947.05571428.25875947s.09214286-.0295928.13392858-.06652462c.04178571-.03693182.04178571-.09232955.00839285-.15530303m-.37392857-.14417614c.01125-.03693182.02232143-.08143939 0-.0703125-.02232143.0111269-.03625.05918561-.05857143.0703125-.02232143.0111269.01125-.03716856-.01803571-.06676136-.02946429-.02959281-.06446429-.03053978-.07678572-.05539773.02785715.0407197.04267858.15696023 0 .15909091-.07535714.00378788-.03071428-.15175189-.03071428-.15175189s-.03625-.01846591-.03625.02604166c0 .04427084-.03910714.0407197-.03357143.0703125.00571429.02959281-.01107143.04427084-.03892857.01846591-.02803572-.02580492-.03910714-.0591856-.05303572-.0407197-.01392857.01846591 0 .03693182.02232143.06273675.02232143.02604166.04732143.04450757.01392857.06297348.01392858.02225379.06142858.06297349.06142858.06297349s-.06428572.12571022-.02232143.38091856c.23428571.00733901.31803571-.05539773.34321428-.1110322.025-.05539773-.05589285-.22182765-.07821428-.25142045-.02232143-.02959281-.01678572-.05563447 0-.0703125.01678571-.01491478.01857143-.0407197.01857143-.0407197s-.02410715-.01846591-.01303572-.05539773m-.43517857-.0407197c-.01392857-.0184659-.02517857.01491478-.05303571.0407197-.02785715.02580493-.04464286.0111269-.03910715-.01846591.00553572-.0295928-.03339285-.02604166-.03339285-.0703125 0-.04450757-.03625-.02604166-.03625-.02604166s.04464285.15553977-.03071429.15175189c-.04285714-.00213068-.02803571-.11837121 0-.15909091-.0125.02485795-.0475.02580492-.07678571.05539773-.02928572.0295928.00410714.07788826-.01821429.06676136-.02232143-.01112689-.03625-.0591856-.05857143-.0703125-.02232143-.01112689-.01107143.03338068 0 .0703125.01125.03693182-.01285714.05539773-.01285714.05539773s.00178571.02580492.01857143.0407197c.01660714.01467803.02232143.04071969 0 .0703125-.02232143.0295928-.10339286.19602272-.07821429.25142045.02517857.05563447.10875.11837121.34321429.1110322.04178571-.25520834-.02232143-.38091856-.02232143-.38091856s.0475-.0407197.06142857-.06297349c-.03357143-.01846591-.00839286-.03693182.01392857-.06297348.02232143-.02580493.03625-.04427084.02232143-.06273675m-.56928571.00355114c-.05053572-.02083333 0-.22561553-.01767858-.13683712-.01464285.07291667-.07160714.10369318-.07160714.06297348 0-.04071969-.02232143 0-.01678571.07386364.00571428.07410038-.01107143.11837121-.04464286.1813447-.03339286.06297348-.03339286.11837121.00839286.15530303.04196428.03693182.13392857.06652462.13392857.06652462s.03625-.21070076.05589286-.25875947c.01946428-.04805871.05571428-.0797822.05571428-.0797822s-.01660714-.03503788 0-.05350379c.01678572-.0184659.03625-.06273674.03625-.06273674s-.06125.06652462-.0725.05160985c-.01107143-.01467803.01392857-.03314394.01125-.05918561-.00285714-.02580492-.03357143.07788826-.07821428.05918561m.61392857.70288826c-.70321429 0-.92357143-.39583334-.865-.54379735.05857143-.14796402.23428571-.52888258.23428571-.52888258s-.05571428-.0295928 0-.17755681c.05589286-.14796402.27357143-.04805872.63071429-.04805872.35714285 0 .57482143-.0999053.63053571.04805872.05589286.14796401 0 .17755681 0 .17755681s.17571429.38091856.23446429.52888258c.05857143.14796401-.16196429.54379735-.865.54379735" fill="#ad1519" fill-rule="nonzero" transform="matrix(1 0 0 -1 16.468089 13.368182)"/><path d="m7.45 19.05h1.9v1h-1.9z" fill="#c8b100" fill-rule="evenodd" stroke="#000" stroke-width=".1"/><path d="m16.45 19.05h1.9v1h-1.9z" fill="#c8b100" fill-rule="evenodd" stroke="#000" stroke-width=".1"/><path d="m7.4 20h2v1h-2z" fill="#005bbf" fill-rule="evenodd"/><path d="m16.4 20h2v1h-2z" fill="#005bbf" fill-rule="evenodd"/><path d="m7.45 13.45h1.9v1h-1.9z" fill="#c8b100" fill-rule="evenodd" stroke="#000" stroke-width=".1"/><path d="m16.45 13.45h1.9v1h-1.9z" fill="#c8b100" fill-rule="evenodd" stroke="#000" stroke-width=".1"/></g></g></g></svg>