<svg height="48" viewBox="0 0 48 48" width="48" xmlns="http://www.w3.org/2000/svg" xmlns:xlink="http://www.w3.org/1999/xlink"><defs><path id="a" d="m8 9h32c2.209139 0 4 1.790861 4 4v22c0 2.209139-1.790861 4-4 4h-32c-2.209139 0-4-1.790861-4-4v-22c0-2.209139 1.790861-4 4-4z"/><path id="b" d="m0 0h40v30h-40z"/><mask id="c" fill="#fff"><use fill="#fff" fill-rule="evenodd" xlink:href="#a"/></mask><mask id="d" fill="#fff"><use fill="#fff" fill-rule="evenodd" xlink:href="#b"/></mask></defs><g fill="none" fill-rule="evenodd"><path d="m0 0h48v48h-48z"/><use fill="#d8d8d8" xlink:href="#a"/><g mask="url(#c)"><g fill-rule="nonzero" transform="translate(4 9)"><use fill="#006" xlink:href="#b"/><path d="m-10 0v3.34760234l53.1891813 26.59461986h6.6950292v-3.3474854l-53.18918126-26.5947368zm59.8842105 0v3.34754386l-53.18918126 26.59456144h-6.69502924v-3.3475439l53.1891813-26.5945614z" fill="#fff" mask="url(#d)"/><path d="m14.9517544 0v29.9421053h9.9807017v-29.9421053zm-24.9517544 9.98070175v9.98070175h59.8842105v-9.98070175z" fill="#fff" mask="url(#d)"/><path d="m-10 11.9768421v5.9884211h59.8842105v-5.9884211zm26.9479532-11.9768421v29.9421053h5.9883041v-29.9421053zm-26.9479532 29.9421053 19.96140351-9.9807018h4.46339179l-19.96140349 9.9807018zm0-29.9421053 19.96140351 9.98070175h-4.46339181l-15.4980117-7.74888888zm35.4594152 9.98070175 19.9614035-9.98070175h4.4633918l-19.9614035 9.98070175zm24.4247953 19.96140355-19.9614035-9.9807018h4.4633918l15.4980117 7.7490059z" fill="#c00" mask="url(#d)"/></g></g></g></svg>