<svg height="48" viewBox="0 0 48 48" width="48" xmlns="http://www.w3.org/2000/svg" xmlns:xlink="http://www.w3.org/1999/xlink"><defs><path id="a" d="m8 9h32c2.209139 0 4 1.790861 4 4v22c0 2.209139-1.790861 4-4 4h-32c-2.209139 0-4-1.790861-4-4v-22c0-2.209139 1.790861-4 4-4z"/><mask id="b" fill="#fff"><use fill="#fff" fill-rule="evenodd" xlink:href="#a"/></mask></defs><g fill="none" fill-rule="evenodd"><path d="m0 0h48v48h-48z"/><use fill="#d8d8d8" xlink:href="#a"/><g mask="url(#b)"><g transform="translate(4 9)"><path d="m0 0h40v30h-40z" fill="#fff" fill-rule="nonzero"/><path d="m4 .5c-1.93299662 0-3.5 1.56700338-3.5 3.5v22c0 1.9329966 1.56700338 3.5 3.5 3.5h32c1.9329966 0 3.5-1.5670034 3.5-3.5v-22c0-1.93299662-1.5670034-3.5-3.5-3.5z" fill="none" stroke="#dedede"/><g fill="#f00"><path d="m17.0000625 0h6v30h-6z" fill-rule="nonzero"/><path d="m0 12h40v6h-40z" fill-rule="nonzero"/><path d="m9.178 23.3221875c.0639375-1.0515.2480625-1.9471875.2480625-1.9471875s-.615.063-.9260625.063c-.306375 0-.925875-.063-.925875-.063s.184125.8956875.2480625 1.9471875c-1.0515625-.064125-1.9471875-.2480625-1.9471875-.2480625s.063.4629375.063.925875c0 .463125-.063.925875-.063.925875s.8956875-.1839375 1.9471875-.2480625c-.0639375 1.0515-.248125 1.9471875-.248125 1.9471875s.463125-.063.9259375-.063c.463125 0 .9260625.063.9260625.063s-.184125-.8956875-.248125-1.9471875c1.051375.064125 1.9470625.2480625 1.9470625.2480625s-.0628125-.615-.0628125-.925875c0-.306375.0628125-.925875.0628125-.925875s-.8956875.1839375-1.947.2480625zm22.9998125-18c.064125-1.0515.248125-1.9471875.248125-1.9471875s-.615.063-.9259375.063c-.306375 0-.925875-.063-.925875-.063s.1839375.8956875.248125 1.9471875c-1.051625-.064125-1.94725-.2480625-1.94725-.2480625s.063.4629375.063.925875c0 .463125-.063.925875-.063.925875s.8956875-.1839375 1.9471875-.2480625c-.0640625 1.0515-.2480625 1.9471875-.2480625 1.9471875s.4629375-.063.925875-.063c.463125 0 .925875.063.925875.063s-.1839375-.8956875-.2480625-1.9471875c1.0515.064125 1.9471875.2480625 1.9471875.2480625s-.063-.615-.063-.925875c0-.306375.063-.925875.063-.925875s-.8956875.1839375-1.9471875.2480625zm-22.9998125 0c.063875-1.0515.2480625-1.9471875.2480625-1.9471875s-.615.063-.9260625.063c-.306375 0-.925875-.063-.925875-.063s.184125.8956875.2480625 1.9471875c-1.0515625-.064125-1.9471875-.2480625-1.9471875-.2480625s.063.4629375.063.925875c0 .463125-.063.925875-.063.925875s.8956875-.1839375 1.9471875-.2480625c-.0639375 1.0515-.248125 1.9471875-.248125 1.9471875s.463125-.063.9259375-.063c.463125 0 .9260625.063.9260625.063s-.184125-.8956875-.248125-1.9471875c1.051375.064125 1.9470625.2480625 1.9470625.2480625s-.0628125-.615-.0628125-.925875c0-.306375.0628125-.925875.0628125-.925875s-.8956875.1839375-1.947.2480625zm22.9998125 18c.064125-1.0515.248125-1.9471875.248125-1.9471875s-.615.063-.9259375.063c-.306375 0-.925875-.063-.925875-.063s.1839375.8956875.248125 1.9471875c-1.051625-.064125-1.94725-.2480625-1.94725-.2480625s.063.4629375.063.925875c0 .463125-.063.925875-.063.925875s.8956875-.1839375 1.9471875-.2480625c-.0640625 1.0515-.2480625 1.9471875-.2480625 1.9471875s.4629375-.063.925875-.063c.463125 0 .925875.063.925875.063s-.1839375-.8956875-.2480625-1.9471875c1.0515.064125 1.9471875.2480625 1.9471875.2480625s-.063-.615-.063-.925875c0-.306375.063-.925875.063-.925875s-.8956875.1839375-1.9471875.2480625z" fill-rule="evenodd"/></g></g></g></g></svg>