<svg height="48" viewBox="0 0 48 48" width="48" xmlns="http://www.w3.org/2000/svg" xmlns:xlink="http://www.w3.org/1999/xlink"><defs><path id="a" d="m8 9h32c2.209139 0 4 1.790861 4 4v22c0 2.209139-1.790861 4-4 4h-32c-2.209139 0-4-1.790861-4-4v-22c0-2.209139 1.790861-4 4-4z"/><mask id="b" fill="#fff"><use fill="#fff" fill-rule="evenodd" xlink:href="#a"/></mask></defs><g fill="none" fill-rule="evenodd"><path d="m0 0h48v48h-48z"/><use fill="#d8d8d8" xlink:href="#a"/><g mask="url(#b)"><g transform="translate(4 9)"><g fill-rule="nonzero"><path d="m0 0h40v3.33125h-40z" fill="#0d5eaf"/><path d="m0 3.33125h40v3.33125h-40z" fill="#fff"/><path d="m0 6.6625h40v3.33125h-40z" fill="#0d5eaf"/><path d="m0 9.99375h40v3.33125h-40z" fill="#fff"/><path d="m0 13.325h40v3.33125h-40z" fill="#0d5eaf"/><path d="m0 16.65625h40v3.33125h-40z" fill="#fff"/><path d="m0 19.9875h40v3.33125h-40z" fill="#0d5eaf"/><path d="m0 23.31875h40v3.33125h-40z" fill="#fff"/><path d="m0 26.65h40v3.33125h-40z" fill="#0d5eaf"/></g><path d="m0 0h16.65625v16.65625h-16.65625z" fill="#0d5eaf" fill-rule="evenodd"/><g fill="#fff" fill-rule="nonzero"><path d="m6.6625 0h3.33125v16.65625h-3.33125z"/><path d="m0 6.6625h16.65625v3.33125h-16.65625z"/></g></g></g></g></svg>