<svg height="48" viewBox="0 0 48 48" width="48" xmlns="http://www.w3.org/2000/svg" xmlns:xlink="http://www.w3.org/1999/xlink"><defs><path id="a" d="m8 9h32c2.209139 0 4 1.790861 4 4v22c0 2.209139-1.790861 4-4 4h-32c-2.209139 0-4-1.790861-4-4v-22c0-2.209139 1.790861-4 4-4z"/><linearGradient id="b"><stop offset=".216" stop-color="#f9f0aa"/><stop offset="1" stop-color="#b07e09"/></linearGradient><radialGradient id="c" cx="16.173212%" cy="47.663012%" gradientTransform="matrix(.895554 0 0 1 .016892 0)" r="87.913904%" xlink:href="#b"/><radialGradient id="d" cx="29.655215%" cy="77.606685%" gradientTransform="matrix(.92539 0 0 1 .022126 0)" r="102.069255%" xlink:href="#b"/><radialGradient id="e" cx="36.124635%" cy="77.534113%" gradientTransform="matrix(.599416 0 0 1 .144709 0)" r="158.869396%" xlink:href="#b"/><radialGradient id="f" cx="52.041047%" cy="49.54747%" gradientTransform="matrix(.928225 0 0 1 .037352 0)" r="105.412136%" xlink:href="#b"/><linearGradient id="g"><stop offset=".216" stop-color="#b07e09" stop-opacity="0"/><stop offset="1" stop-color="#b07e09"/></linearGradient><linearGradient id="h" x1="49.79988%" x2="47.504992%" xlink:href="#g" y1="51.740273%" y2="31.958115%"/><linearGradient id="i" x1="48.450356%" x2="52.164402%" xlink:href="#g" y1="46.058103%" y2="70.492476%"/><radialGradient id="j" cx="23.701974%" cy="74.903969%" gradientTransform="matrix(.930529 0 0 1 .016466 0)" r="104.177337%" xlink:href="#b"/><linearGradient id="k" x1="42.559096%" x2="81.870504%" xlink:href="#b" y1="67.592313%" y2="-21.459128%"/><linearGradient id="l" x1="47.997408%" x2="52.841795%" xlink:href="#b" y1="44.312251%" y2="62.782747%"/><radialGradient id="m" cx="25.127884%" cy="-20.904083%" gradientTransform="matrix(.817907 0 0 1 .045756 0)" r="1.740325%"><stop offset=".259" stop-color="#a50a0a"/><stop offset="1" stop-color="#4c0505"/></radialGradient><mask id="n" fill="#fff"><use fill="#fff" fill-rule="evenodd" xlink:href="#a"/></mask></defs><g fill="none" fill-rule="evenodd"><path d="m0 0h48v48h-48z"/><use fill="#d8d8d8" xlink:href="#a"/><g mask="url(#n)"><g transform="translate(4 9)"><path d="m0 0h40v30h-40z" fill="#4997d0" fill-rule="nonzero"/><path d="m13.3333125 0h13.3333125v30h-13.3333125z" fill="#fff" fill-rule="nonzero"/><g fill="none" fill-rule="evenodd" transform="translate(15.583411 11.249921)"><g stroke="#24420e" stroke-width=".1" transform="translate(0 .16679)"><path d="m3.25501627 6.83728369c.11125056-.02278836.17533422-.06371781.2514596-.1m.09229212-.16891751c.05612528.05958363.10070884.12291728.12470896.19312596m-.33804336-.21145939c.05854196.05470861.0990005.11300057.13075066.17300087m-2.06576033-5.69094513c-.04350022.06675034-.12883398.11358391-.19916766.14283405m-.00934764-.00825004c.0035-.05700028-.0236-.12608396.005-.18308425m-.09023617.20933438c.0114.01824458.0435.06903353.0676.1m.06040014.02291728c-.01863905.0082-.07495069.0257-.1.0338m-.16464359-.05630011c-.0013.10500053.0286.23137616.053.32583496m-.10552416-.0400002c.03055016.04020181.0612945.07987255.1.1m-.2266673.24791841c.03757669.03916686.07231595.08841711.1.16500082m.12875064-.19291763c-.02145078.01326861-.06295337.06019418-.1.1m.06625033.14750124c-.04083353.04105461-.09158379.07080979-.14283404.1m-.15883413 1.67209219c.0480419.0788754.10083384.14833408.16500082.19516765m.02416679.12660015c-.05391694-.0166-.09000045-.0545-.12270895-.0966m.18312592.35025175.1.0966m-.04791641.08840092c.05229193.03400017.10458386.09512548.15687579.16091747m-.06020864.11866726c.05770862.02758946.10387552.06026366.13479234.1m-.04437522.04500073.1.0072m.06692559-.22845111c-.0102.06391699-.0253.12383396-.0483.17708422m.04220855.09783332.0434-.1m.17845103.24966792-.0146.13483401m1.68525793 1.16267248-.1.1m-.06098398-.1730842-.0676-.1"/><g fill-rule="nonzero"><path d="m4.67127336 7.12211894c-.0332085-.05233359-.08783378-.08450042-.13654235-.11066722-.32195995-.16900084-.64191988-.24345955-1.00483836-.30183484-.08387542-.01404174-.16779251-.09250046-.25362627-.13279233-.2067927-.09854216-.43708552-.13683402-.63791985-.23737619-.01375007-.00608336-.06441699-.03625018-.08791711-.06437532-.07991707-.09250046-.22433446-.1207506-.31404324-.20725103-.3472934-.32791831-.71600358-.62983649-.9071712-1.06446366-.23216783-.52916931-.52096094-1.07446371-.48191908-1.67613338.02533346-.3802519-.03125015-.76458716.06237532-1.1267973.13858402-.53725269.31616824-1.06833868.64196154-1.5130909l-.05458361.03416684c-.32783497.44479389-.50533586.97596321-.64387822 1.51317423-.09366713.36216848-.03708352.74650373-.06250031 1.1267973-.03895853.60166968.24983458 1.1469224.48200241 1.67809172.19116762.4325855.56187781.73437868.90725454 1.06442199.08975045.08445876.23416783.11262557.31416823.20720937.02333345.02608347.07600038.05833363.08770878.06433366.20104267.1006255.43125215.13883402.63808652.23541784.08583376.04225021.16975085.11875059.25362627.132834.36291848.05833362.68292008.13479234 1.00483836.30175151.05070858.02616679.10341718.05833362.13666735.11070888l.05650028-.03416683" fill="#406325"/><g fill="#67923d" transform="translate(0 1.041672)"><path d="m1.34750674 3.85918596c-.11641725-.26250131-.05687529-.90033783-.00825004-.98042157.27637638.54191938.18437592.98917162.00825004.98042157zm1.91084288 1.89125946c-.29550147.01516674-.85875429.3872936-.91100455.47483571.62854481.00483335 1.00083834-.30479319.91100455-.47483571zm.31083489-.1787509c-.28520976-.22708446-.59125295-.98583826-.58466959-1.10417218.62958648.45137725.78900395 1.01167172.58466959 1.10417218z"/><path d="m3.35876679 5.57419454c-.28958478-.17645922-.65775329-.83812919-.66408665-.94808808.63341983.34141838.84158754.8387542.66408665.94808808zm-.64833657-.28250142c.0410002-.32591829-.23608452-1.01000505-.31604325-1.08250541-.12291728.6861701.12487563 1.14892241.31604325 1.08250541zm-1.13792236-1.01167172c-.09600048-.23525118-.02554179-.80500402.01958343-.87492104.23000115.48733577.13600068.88408775-.01958343.87492104zm-.57125285-3.20126601c.14958408-.27700138.76583716-.65466994.8745877-.66375331-.28208474.60700303-.75154542.82617079-.8745877.66375331z"/><path d="m1.03083849.84708757c.08950045-.30341819.6197531-.80271235.72333695-.83475417-.15529245.65316993-.56991952.96583816-.72333695.83475417zm1.15875579 4.13127066c-.20800104-.25733462-.33379333-.99437998-.30375152-1.09833883.46958568.52141927.50125251 1.05138026.30375152 1.09833883zm-1.19375597-1.51917427c-.2879181.04537523-.89000445-.19316763-.95500477-.26404298.60550303-.13125066 1.01196339.08633376.95500477.26404298zm-.09250046-.40333535c.03429184-.23237616.36104347-.65875329.43166883-.69417014-.04625024.4982525-.31033489.77500388-.43166883.69417014zm2.13876069 2.43917887c-.35312676.01812509-1.02625513.46279398-1.08867211.5674195.75117043.00595836 1.19604765-.36416849 1.08867211-.5674195z"/></g><g fill="#406325"><path d="m1.35042342 4.89460781c.17612588.00875004.26687633-.43316884-.01125006-.97417154.05050026.5133359.05041692.92958798.01125006.97417154zm.46583566.83292083c-.1864176-.22791781-.80750404-.47200236-.90467119-.46416899.37021019.50333585.82833748.62900315.90467119.46416899zm-1.01750509-2.20751104c-.0477919-.33512668-.51391923-.94637973-.61429473-.99875499.06320865.71567024.43950219 1.11242222.61429473.99875499zm.34958508 1.42875714c-.2080427-.1533341-.79042061-.22266778-.87250436-.19679265.42237711.3460434.84217088.35241843.87250436.19679265zm-.39000194-1.0345885c-.12020894-.23708452-.61716976-.56175281-.70383686-.57083619.22987615.51608591.60658637.70575353.70383686.57083619zm.11375056-1.98084324c.03770853-.31554324-.23054282-.97692155-.30604319-1.04825524-.11941727.66354498.12158394 1.11100555.30604319 1.04825524zm.18625094-.62166977c.11075055-.27066802.03150015-.93458801-.02175011-1.01738009-.266793.56291948-.15945913 1.02700513.02175011 1.01738009z"/><path d="m1.26750634.99292163c.13066732-.19875099.17341753-.73687868.14520906-.81125405-.30150151.40479369-.28991812.78933728-.14520906.81125405zm.2479179-.25583461c.18341759-.14487573.38433526-.64583656.3785019-.72637863-.40583537.28975145-.50916922.6600033-.3785019.72637863zm-.66875334 1.800009c.00450002.03616685-.0407502-.34083504-.41891876-.76308715.01708342.61741975.26041797.85083759.41891876.76308715zm1.35667345 3.57418454c-.25733462-.19000095-.97437987-.28037641-1.07363037-.24695957.52341929.43146049 1.03658852.43958553 1.07363037.24695957zm.50291918.21833442c-.18925095.06637533-.43512717-.39237696-.31416824-1.07846372.11708392.58146124.25750129 1.04429688.31416824 1.07846372zm.55416944.46458566c.08816711.17008418-.27916806.47650238-.90779621.47146069.49800249-.20375102.88500443-.41083539.90779621-.47146069zm.3079182-.18625093c.20270935-.09375047.04583357-.64733657-.58375291-1.0987555.35816845.55062776.60233634 1.0254218.58375291 1.0987555z"/><path d="m3.35710012 6.61128306c.17825089-.11108389-.02875015-.60183635-.66208664-.94333805.39179362.46600233.67058668.87367103.66208664.94333805zm-1.78292558-1.29125646c.15562578.00925005.24820957-.3859186.0198751-.87183769.02991681.45725228.01741675.83242083-.0198751.87183769zm-.5733362-3.19751599c.12291728.16237581.58562793-.0545836.86821267-.66346165-.42354378.38908528-.80104567.66933668-.86821267.66346165z"/><path d="m1.03583851 1.88875944c.15341744.13104233.56425282-.17925089.71958693-.83237916-.33737668.46854401-.65187826.82233745-.71958693.83237916zm1.15500578 4.12877065c.19750099-.04687524.16475082-.57433621-.30225151-1.09467214.20887604.55900279.33400167 1.03150516.30225151 1.09467214zm-1.20292268-1.51917427c.05862529-.17666755-.34571007-.39041861-.95012975-.26083463.51083588.09150046.91846292.21012605.95012975.26083463zm-.08083374-.40041866c.12095894.07862539.38241858-.19416764.42858548-.69237847-.19475098.38250192-.38191858.67771173-.42858548.69237847zm2.133344 2.44501222c.10733387.20316768-.33166833.56946118-1.08479709.56341948.59512797-.24350121 1.05750529-.49096078 1.08479709-.56341948z"/><path d="m1.05667195 4.67919006c-.11075055-.26091797-.61658642-.64425322-.70758687-.6600033.20608436.56821118.59366963.79771232.70758687.6600033z"/></g><g fill="#67923d" transform="translate(.041667)"><path d="m.72583696 2.49667915c.16975085-.19441764.72792031-.38058524.81667075-.36937685-.33512667.43375217-.74758707.52146094-.81667075.36937685zm1.04458856 3.23293283c-.07529204.16325082-.52900265.03816686-.90192118-.46466899.45354394.28458476.84350422.47958573.90192118.46466899zm-1.01625508-2.21042772c-.17479254.11362557-.54700274-.2807514-.61187806-.99517164.27595971.55012775.54321105.9743382.61187806.99517164zm.35083509 1.43084049c-.0320835.15541744-.44533556.14958408-.86933768-.19654265.44708556.14191738.82250411.22216778.86933768.19654265zm-.39375197-1.03958853c-.09720882.13500067-.47041902-.05291693-.70029517-.56904451.34133504.33195999.64550323.57266953.70029517.56904451zm.11500057-1.98125991c-.18445925.06483366-.42333545-.37833522-.30391818-1.04188021.11112555.56200281.2472929 1.00729671.30391818 1.04188021zm.18625093-.61916976c-.17933423.00945838-.28625143-.45062725-.01950009-1.01342173-.03425018.533211-.02112511.96808817.01950009 1.01342173zm.21000105-.31958493c-.14470905-.02187511-.15487577-.40229368.1466674-.80708737-.11416723.41571041-.17291753.76529549-.1466674.80708737zm.24916792-.2533346c-.13066732-.06845868-.02916682-.43458551.37658521-.72237861-.23025115.36016846-.38825194.6740867-.37658521.72237861z"/><path d="m.80208734 2.53751269c-.15850079.08775044-.39904366-.14595907-.41612708-.76342049.2125844.48683577.35846013.74196205.41612708.76342049zm1.35709012 3.57501787c-.03691685.1927093-.5476694.18333425-1.06992201-.24562623.54866941.17808423 1.01025505.27891807 1.06992201.24562623zm-.34041837-.39500197c-.16762583-.18095924-.29825149-.72279528-.2811264-.80175401.37550188.36429349.42562713.75687878.2811264.80175401zm-.70333685-1.04125521c-.14875074-.24108454-.1615008-.87112935-.12166727-.95650478.34433505.49208579.30225151.94104637.12166727.95650478zm-.10958388.00375002c-.11400057.13770902-.49708582-.08995878-.70300351-.65971163.33883502.37958523.64475322.65883663.70300351.65971163z"/></g><g fill="#406325" transform="translate(.541669 2.125011)"><path d="m.22375112.37500188c.06737534.15095908.47708572.06375031.81221239-.37000185-.49875249.28304308-.69625348.40583536-.81221239.37000185zm.38916861 2.16959418c.1805009-.01541675.22208445-.4598773-.12220894-.95192143.11100055.49391914.15791745.90325452.12220894.95192143zm.7066702 1.04625523c.14458406-.04458356.09375047-.43541885-.27970973-.79908733.18345925.40529369.30020983.75042042.27970973.79908733z"/><path d="m.30125151 1.11542224c.08575043-.34941841-.07091702-.94167137-.17916757-1.06500532-.19650098.64283655-.01020838 1.10833887.17916757 1.06500532z"/></g></g></g><g stroke="#24420e" stroke-width=".1" transform="translate(4.166687 .208457)"><path d="m3.63126816 1.83209249c.02714597.03271768.05115468.04263853.1.1m-.22686776-.81042021c-.0035-.05700029-.0633-.15020909-.0918-.20720937m.19878279.12429228c.00514606.08133374-.02039709.1587508-.09936563.22933448m-.17325087-.02225011c.07304204.065667.1460424.12820898.21908443.16216748m.19909232.05116692c.0105.08250041-.0142.16500083-.0683.24750124m.0134584.06866651.1-.1m-.12291678.50925255c.05833363.01208339.11708392.08108374.1460424.14508406m.01979176-.04487573.1-.1m.03958404 1.28021474c-.02974801.05132939-.06402338.09989778-.10241718.14512572m-.16508416-.00304168c.03291683.06066697.06483366.12275061.10812554.16791751m.10229218.24458455c-.05445861.07387537-.11525058.13187566-.18491759.16791751m.00575003.18750094c-.0455419.03125015-.10108384.12304228-.15362577.19633431m.36304298-.84092087-.1.087m-.05816696-.36283471.1.1m-.42350212 1.50673084c-.03954802-.0108-.0685499.001-.1.0072m-.08316708-.08725654.0615.1m-.35004942.18166807c-.0262.07775039-.0072.15554245.0204.2333345m.16023222-.37583521.1.1m.10208434-.01458291-.10525053.041m-1.23209828 1.02900535-.0917.1m.49571081-.1793505c-.06216698.0187-.11575058-.0043-.17070919-.0204m-.22762614.30343438c-.0399933-.03738374-.08083668-.06930151-.12233394-.0956m-.61433641.11066722c-.03775018.03220849-.08291708.10145884-.1280423.17070918m-.02279178-.19029261c-.10137551.05220859-.132584.1545841-.18491759.24183454m.11658391.1340835c-.06470866-.02246094-.14216738-.05996094-.22191777-.1m.69858682.01041622c-.09666715-.08208447-.19783432-.07404632-.29729315-.1m.44812724.01556559c-.15116742-.0707-.29208479-.061-.42816881-.0137m.365668-.09644969-.1-.058m-.22720997.27516755-.1-.1m2.41430374-2.04976025c-.0523336.03400017-.10458386.09512547-.15691746.16095914m.08637494-3.27540841-.1-.0724"/><g fill-rule="nonzero"><path d="m.01625008 7.07711872c.0332085-.0523336.08783377-.08450042.13654235-.11066722.32191828-.16900085.64191988-.24345955 1.00488002-.30183484.08387542-.01404174.16779251-.09250047.25362627-.13279233.20683437-.09854216.43708552-.13683402.63800319-.23737619.01366674-.00608336.06437532-.03625018.08783378-.06437532.0800004-.09250047.22437612-.12075061.31416823-.20725104.34721007-.32791831.71596192-.62983648.90708787-1.06442199.2322095-.52916931.52100261-1.0744637.48200241-1.67605004-.02541679-.38025191.03125016-.76458716-.06241698-1.12679731-.13858402-.53721101-.31625158-1.06846367-.64200321-1.51309089l.05458361.03416683c.32783497.44479389.50533586.97600488.64387822 1.51313257.09366713.36216848.03708352.74650373.06250031 1.1267973.03895853.60166967-.24983458 1.1469224-.48196074 1.67813339-.19125096.43266883-.56191948.73446201-.90725454 1.06446366-.08975045.08445875-.23416784.11262556-.31416824.20720937-.02333345.02612513-.07604204.05833362-.08775043.06437532-.20095934.1006255-.43125216.13883402-.63804486.23541784-.08583376.04225021-.16970918.11875059-.25362627.132834-.36291848.05833362-.68283675.13479234-1.00471336.30175151-.05070858.02616679-.10341718.05833362-.13658401.11070888l-.05658362-.03425017" fill="#406325"/><g fill="#406325" transform="translate(1.541674 1.125006)"><path d="m1.77709222 3.85835263c.11416724-.30900155-.00041667-1.03492185-.06208364-1.12292229-.27700139.64041987-.13916737 1.14583907.06208364 1.12292229z"/><path d="m1.48084074 4.15168742c.09600048-.23525117.02554179-.80500402-.01958343-.87492104-.23000115.48733577-.13604235.88408776.01958343.87492104zm.70042017-3.08959878c-.13720902-.25416793-.70279518-.600753-.80250402-.60908637.25883463.55700278.68958678.75812879.80250402.60908637z"/><path d="m2.11501057.72792031c-.0745837-.2528346-.51646091-.66887835-.60275301-.69558682.12937565.54429439.47491904.8047957.60275301.69558682zm.19750099.62333645c-.14737573-.16875085-.63183649-.33033499-.70887854-.32062661.29083479.37650189.64883658.45266893.70887854.32062661zm-.11666725 1.93042632c.25550128.0402502.79000395-.1714592.84771257-.23437618-.53750268-.11654225-.89833782.07666705-.84771257.23437618zm-.00625003-.23500118c-.00179167-.23491784-.26645966-.70233684-.33150166-.74721207-.02316678.49983583.200126.81054572.33150166.74721207z"/><path d="m2.2066777 2.47667905c-.00020833-.31708492-.35291843-.92625463-.44008553-.98417159-.03475018.67342004.26383465 1.07625538.44008553.98417159zm-2.20376102 3.13626568c.1865426.22929281.8188791.46387732.92033794.45433561-.36687684-.50971089-.83625418-.62708647-.92033794-.45433561z"/></g><g fill="#67923d" transform="translate(1.041672)"><path d="m2.2733447 4.97627488c-.20100101.02291678-.33708502-.47654405-.05812529-1.11604725-.02041677.59133629.01000005 1.06792201.05812529 1.11604725zm-2.22376112 1.81917576c.29554315.01512508.8587543.38729361.91104622.47483571-.62858647.00487503-1.00083833-.30479319-.91104622-.47483571zm0-.33083498c.08741711-.33196.62525313-.88375442.72975365-.92292128-.15012575.71387856-.57250286 1.06392198-.72975365.92292128zm.88625443-.17625089c-.04104187-.32591829.23604285-1.01000505.31604325-1.08250541.12291728.68612843-.12487563 1.14896408-.31604325 1.08250541zm.89417114-.60583636c.1864176-.2279178.80750404-.47200236.90467119-.46416898-.37021018.50333584-.82833748.62900314-.90467119.46416898zm1.07458871-2.21917776c.03762518-.26383465.40458535-.74500372.48358575-.78625393-.04975025.56333615-.34600173.87575438-.48358575.78625393z"/><path d="m2.41751209 5.04919191c.24237621-.17875089.92104627-.25950129 1.01667175-.22933448-.49225246.40316868-.98137991.41062706-1.01667175.22933448zm.4279188-1.02167177c.12637564-.24916791.64858658-.59041962.7397537-.600003-.24166787.54250271-.63750319.74179537-.7397537.600003zm-.06166697-1.89834283c-.00408336-.31770992.33266833-.94700473.41525207-1.01000505.04854191.67250336-.23845952 1.09192213-.4152104 1.01000505zm-.28875145-1.0800054c-.09675048-.2200011-.04583356-.76725383-.00387501-.83642085.23125115.45679395.15300076.84042087.00387501.83642085zm-.17625088-.09083378c-.2197511-.19512598-.44354388-.82317079-.43375217-.92096294.48958579.38596026.599378.84833757.43375217.92096294z"/><path d="m2.80334735 2.39751199c-.0132084.0339585.12270895-.32062661.59250296-.63783652-.16720917.5945863-.46021063.76167047-.59250296.63783652zm-1.42084044 3.74585206c.29191813-.21554274 1.10550553-.31808492 1.21800609-.28016807-.59387797.48950245-1.17604754.4987525-1.21800609.28016807zm.59708632-.86833767c-.15562578.00925004-.24820957-.3859186-.0198751-.8718377-.03000015.45725229-.01741675.83242083.0198751.8718377zm.70208685-3.08626544c-.1128339.14900075-.53737769-.05008358-.79667065-.60875304.38862694.35708512.73500367.61416974.79667065.60875304zm-.07083369-.33583501c-.12783398.10916721-.47021069-.14929241-.59958633-.6935868.28104307.39041862.54312771.68525343.59958633.6935868zm.20375102.62625313c-.05854196.13104232-.41416874.05533361-.70500353-.32116827.43291883.2456679.60437802.35229343.70500353.32116827zm-.1120839 1.9254263c-.05208359-.15683412.30687654-.3465434.84333755-.23150116-.4534606.08125041-.81525407.1865426-.84333755.23150116zm-.01666675-.2333345c-.13066732.0611253-.35187676-.24520956-.32866831-.74500373.1400007.40583536.28450142.72396195.32866831.74500373z"/><path d="m2.70334685 3.60793471c-.17625088.09208379-.47104402-.30683487-.43625218-.98021324.18366758.53571101.37696022.95408811.43625218.98021324zm-2.19542764 3.1279323c.08408375-.17275086.5479194-.05741695.91567124.45366894-.45812729-.28125141-.85342093-.47104402-.91567124-.45366894z"/></g><g fill="#406325" transform="translate(1.041672)"><path d="m.93958803 6.28461476c.18925095.06637533.43512718-.39237697.31416824-1.07846373-.11708392.58146124-.25750129 1.04433856-.31416824 1.07846373z"/><path d="m1.36792351 6.06628033c.18083423-.27708472.23125115-1.02308845.19083428-1.12363062-.4143354.5664195-.39208529 1.09683882-.19083428 1.12363062zm-1.32042327.73083699c-.08816711.17000085.27916806.47650238.9077962.47146069-.49791915-.20375102-.88492109-.41083539-.9077962-.47146069zm.0066667-.33541835c.15770912.13908403.57533621-.20616769.72542029-.9201296-.33866836.51762759-.65516994.90833788-.72542029.9201296zm1.77959223-.77708721c.07529204.16325081.52900264.03816685.90192118-.46466899-.45354394.28458475-.84350422.47966906-.90192118.46466899zm1.07292203-2.22209445c.13762569.08945878.43062715-.22095944.48166908-.78346225-.21720942.43312717-.42758548.76708717-.48166908.78346225zm-.48708577 1.58792461c.03729185.18116757.51891926.17429254 1.01300507-.22900115-.52091927.1654175-.95833813.25891797-1.01300507.22900115zm.43166883-1.0266718c.10220884.14187571.49437747-.05558361.73600368-.59800299-.3587518.34887674-.67833673.60187801-.73600368.59800299zm-.06291698-1.89834283c.17658421.08400042.4610023-.33133499.41246039-1.00388002-.17000085.54708607-.35250176.97550488-.41250206 1.00388002zm-.29000145-1.07792205c.14758407.00387502.22562612-.37637688-.00558337-.83312917.03958354.43741886.03804186.79500398.00558337.83312917zm-.17625089-.0933338c.16550083-.0725837.05541695-.52958598-.43425217-.91550458.26966802.45916896.4522106.85721262.43425217.91550458zm.48375242 1.44459055c.13229233.12375062.42262712-.04416688.58979462-.63875319-.32491829.42016877-.52866931.63208649-.58979462.63875319zm-1.42042377 3.74626874c.04187521.21862609.62137811.20808437 1.21383941-.27866806-.62250312.20208434-1.1461724.31645991-1.21383941.27866806z"/><path d="m1.67250836 5.82294578c.13633402-.20558436.17808423-.76142047.14850075-.83654585-.31200156.4200021-.29833483.81550408-.14850075.83654585zm.81667075-1.19208929c.14875075-.24108454.16150081-.87117103.12166728-.95654645-.34433506.49208579-.30229318.94108804-.12166728.95654645z"/></g><path d="m2.40792871 6.06419699c-.20125101-.02658347-.22208445-.55466944.18966761-1.11971393-.15108409.57733622-.2276678 1.06008863-.18966761 1.11971393zm1.46500732-2.84709757c-.03929186-.32354329.1656675-.83929586.27633472-.93842136.10720887.599378-.11083389.99792166-.27633472.93842136zm-1.1600058 2.60376302c-.14987575-.02083344-.16250081-.41475208.14750074-.83362917-.11583391.42950215-.17554255.78896228-.14750074.83362917zm.9733382-4.34335505c-.09029212-.24500123.00125001-.83500418.05150026-.90725454.22041777.51071089.10991721.92150461-.05150026.90725454zm-2.4200121 5.00627503c.10308385-.33708502.67458671-.87833773.78362892-.91312957-.1806259.72583697-.62771147 1.06375532-.78362892.91312957zm2.27209469-1.73292533c.11075056-.26091797.61658642-.64425322.70750354-.6600033-.20600103.56821117-.59362797.79771232-.70750354.6600033zm-.00500002-.12625063c-.18054257-.01541675-.22208444-.4598773.12220894-.95192143-.11100055.49391914-.15791745.90325452-.12220894.95192143z" fill="#67923d"/><path d="m3.87501937 3.2933498c.21491775.07675038.3782519-.41208539.27491805-.99642165-.10116718.50279418-.22404279.96708817-.27491805.99642165z" fill="#406325"/><path d="m3.90710287 3.27668305c.02320845-.31362657-.28895978-.96192148-.37146019-1.02946348-.08395875.65846162.18595926 1.09625548.37146019 1.02946348zm-.21750109-1.80084234c.1597508.01404174.26970968-.39312696.04945858-.90375452.01375007.47691905-.01179172.86458766-.04945858.90375452zm-2.41876209 5.00460836c.15779245.15083409.59875299-.18404259.77933723-.90992122-.36833518.51471091-.70700354.9005045-.77933723.90992122zm2.27667805-1.72875865c.1139589.13770903.49708582-.08991711.70300351-.65971163-.33887669.37958523-.64475322.65883663-.70300351.65971163z" fill="#406325"/><path d="m3.90251951 3.27209969c-.18387592.06816701-.45208559-.36500182-.36812684-1.02346345.14625073.55279443.31020989.99012995.36812684 1.02346345z" fill="#67923d"/></g></g><g fill-rule="nonzero"><g transform="translate(1.166673 .416791)"><path d="m1.46834068 4.93085799c-.01347802.01621689-.02990675.02973312-.04841691.03983353-.0185001.00979172-.0398752.01625008-.06137531.01325007-.01077585-.00143181-.02098174-.00568666-.02958348-.0123334-.00836028-.00683621-.01553944-.01500074-.02125011-.02416679-.00590181-.00923809-.00944975-.01978177-.01033338-.03070848-.00083334-.01091672.00158334-.02200011.00583336-.0319585l.00512502.00333335-.04625023.05166693.00054167-.00416669c.01150006.0200001.02600013.03904186.04341689.05416694.00875004.00750004.01841676.0139584.02891681.01816676.01056418.00408178.02184951.00596739.03316683.00554169.02291678-.00066667.04533356-.00858338.06554199-.0198751.02026904-.01141666.03852589-.02608408.05404194-.04341688.01541675-.01737509.02875015-.03695852.03895853-.05783362.01000005-.02083344.01708342-.04375022.01558341-.06645867-.00068058-.01130926-.00386873-.02232544-.00933338-.03225016-.00568349-.00999413-.01269137-.01917446-.02083344-.0272918-.01624954-.01661963-.03565775-.02982288-.05708362-.03883353l.00375002-.00091667-.04308355.04554189-.00354168-.00487502c.00983338-.00445836.02083344-.0060417.03141682-.00491669.01058339.00125.02075011.00487502.02979182.01020838.01779176.01070839.03325017.02708347.03854186.04770857.00541669.02058344.00008333.04200021-.00866671.06033364-.00919686.01832906-.02098449.03523869-.03500018.05020858v.00008333zm0-.00008334c.01308339-.01562507.02479179-.03250016.03308349-.05104192.00816671-.01833342.0125834-.03925019.00695837-.05850029-.00541669-.01916676-.0205001-.03445851-.03750019-.04433356-.01695841-.00991671-.03850019-.01270839-.05604194-.00416668l-.00350002-.00487503.04241688-.04625023.00166667-.00175001.00220835.00083334c.02291678.00875004.04308355.02291678.06029197.0400002.00850004.00875004.01625008.01820842.02233344.02908348.00608336.01070839.00958338.02320845.01041672.03550018.00179168.02491679-.00575003.04904191-.01595841.07083368-.01057657.02172636-.02406156.04191178-.04008354.0600003-.01625008.01804176-.03541684.0333335-.05658361.04508356-.02125011.01158339-.04483356.01991677-.06958368.02054177-.01247367.00037939-.02489362-.00178985-.03650019-.00637503-.01133153-.00484916-.02180101-.01150515-.03100015-.01970843-.01809796-.01618115-.03322847-.03540099-.04470856-.05679195l-.00125001-.00225001.00175001-.00191668.04708357-.05083359.00516669.00325002c-.00416668.00916671-.00645836.01916676-.00591669.02916681.0005.01000005.00387502.0197501.00904171.02841681.00516669.00862504.01200006.01679175.01966677.02320845.0077917.00645836.01733342.01058339.02737513.01229173.0202501.00341668.04125021-.00220835.05979197-.01137506.01858342-.00937505.03525017-.02250011.04937524-.03800019z" fill="#485654"/><g stroke-width=".1"><path d="m3.04597356 2.86522266c-.12720897.12633396-1.58179957 1.51584091-1.71271689 1.6410082-.04595857.05508361-.17637589.20237602-.19000095.22300112-.08875045.09625048-.18500093.22208444-.29991817.33458501-.02041677.02583346-.04758357.01641674-.07225036.03070848-.07558371.04375022-.15404244.11958393-.21054272.18208425l-.50866921.56271114c-.03275016.03558351-.04150021.05750029-.01933343.07791706l.27600138.36875184c.05125026.05058359.11016722.07658372.13312567.03416684.13108398-.22695947.45666895-.5733362.57975289-.8472959.07350037-.16375082.16575083-.46075231.23158449-.532586.08083374-.08987545.2987515-.32208494.49191913-.52937765.0130834-.0139584.02600013-.02783347.03875019-.04154187l.03945854-.04250021c.97942156-.99792166 2.11313556-2.21021939 2.93859802-3.06489033-.03237516-.03233349-.01187506-.01300006-.04333355-.04333355z" fill="#6c301e" stroke="#351710" stroke-linejoin="round"/><path d="m6.46044897.00416669-1.32517329 1.09250546c-.01275007.01554174-.02600013.01108339-.0387502 0l-.12058393-.1007505c.00016666-.00154168.00058333-.00304169.00058333-.00458336 0-.00675003-.00133334-.01325007-.00341668-.01933343l.05916696-.06029197c.00737504-.00916671.00500003-.01291673-.00512502-.02270844-.00758338-.00791671-.01425008-.01520841-.02441679-.02500013-.00950005-.00737504-.01733342-.00154167-.02675014.00733337l-.0597503.06150031c-.03058348.00125-.05541694.02625013-.05633361.05691695-.80158734.78042057-1.49142412 1.47646571-2.28909478 2.24467789l-.94054637.89792115c-.0335835.04341689-.17875089.12108394-.27483471.18375092-.0340835.02216678-.06350031.04233355-.07570871.06429199l-.07683372.22645947c-.02429178.04975025-.10133384.1667925-.10475052.1747092.09875049.09941717.09366714.09216713.16104247.15533411.07583371-.08429208.2787514-.29633481.46321065-.49387747.01487508-.01591674.01583341-.01758342.03470851-.04041686-.01441674-.02033344-.03862519-.05020859-.05804196-.06883368-.01630309-.01557515-.03297456-.03076008-.05000025-.0455419-.01025005-.00883337-.01958343-.01625008-.02625013-.02275011-.00675003-.0065417.01000005-.01854176.01766676-.0267918 1.10271384-1.06583866 2.29013645-2.23730285 3.26155797-3.19147429.0142315.00409722.02948536.00266857.04270855-.00400002l.11604224.13375067c.02729181.0271668.05041692.0266668.07229203.01645841l1.32750664-1.18917261z" fill="#b2b6ba" stroke="#485654"/></g></g><g stroke="#24420e" stroke-width=".1" transform="translate(1.250006 6.375154)"><path d="m1.24625623.09833383c-.32775164-.13833403-1.12042227-.02791681-1.21750609.03883352.67858673.33375167 1.23083949.19058429 1.21750609-.03883352zm3.70918521.13833402c.32775164-.13833402 1.12042227-.02791681 1.21750609.03887519-.67858672.332585-1.23083949.19054262-1.21750609-.03887519z" fill="#67923d"/><path d="m1.2400062.10333385c.0133334.22941781-.53291933.37021018-1.21146439.03762519.63729485.03883353 1.15804746.01575008 1.21146439-.03762519zm3.72168527.13708402c-.0133334.22941781.53291934.37021018 1.2114644.03762519-.63729486.03887519-1.15804746.01700008-1.2114644-.03762519z" fill="#406325"/></g><g transform="translate(2.416679 3.375139)"><path d="m3.18709927 2.87459771c-.86387932-1.25500628-2.16646917-2.27542805-3.17093252-2.83293083.14820907-.00695837.47750239.16166747.61125305.24783457.99750499.64279488 1.84584257 1.49179912 2.73601368 2.49259579-.05241692.05187526-.08675043.08250042-.14358405.12708397z" fill="#b2b6ba" stroke="#485654" stroke-width=".1"/><path d="m3.27293303 2.86459766-.06041697.05808362c-.95875479-1.23417284-2.29559481-2.41438707-3.1945993-2.88043107 1.2533396.57729455 2.30801154 1.74042537 3.25143292 2.81876409l.00354168.00354169z" fill="#8c959d"/><path d="m3.2733497 2.86459766-.06033363.05820862-.00016667.000125-.000125-.00016667c-.22187611-.28433475-.45729396-.55791945-.70267018-.82208744-.2451503-.26444149-.50042527-.51931338-.76525383-.76404549-.26500132-.24458455-.53929436-.47900239-.82542079-.69833682-.14289647-.1098784-.28939423-.21499214-.4392522-.31516824-.15000075-.09970884-.30404319-.19383431-.46387732-.27683472l.00391669-.00816671c.32883498.15183409.63916986.34146004.93229633.5533361.29325146.21216773.56983618.44650223.83450417.69300347.26466799.2466679.51758592.50562752.76367048.77071218.2459179.265293.48458576.53716935.72262862.80937905zm0 0c-.23916786-.27125136-.47891906-.54216938-.72583696-.80637904-.24650124-.26458465-.49958583-.52316928-.76458716-.76929551-.26483466-.24600123-.54158604-.47979406-.83483751-.69125345-.29316813-.21125106-.60325301-.40021034-.93167132-.55125276l.00400002-.00816671c.16020913.08333375.31416824.17791756.46433565.27791806.15000075.10020883.29616815.20625103.4392522.31608491.28600143.21991777.56016947.45491894.82492079.69992017.26462734.24519552.51968004.50052621.76458716.76542049.24445955.26512633.47875239.53983603.69958683.82500413l-.00029167-.00008334z" fill="#485654"/><path d="m.52083594.00291668c-.08225041.02125011-.15525078.0522086-.21908443.09275047-.00950005.05820862-.08137541.12320894-.14945908.13791735-.01237506-.01570841-.01529174-.02029177-.02466679-.03208349-.00160613-.00226555-.00466547-.0029494-.00708337-.00158334-.00583336.00316668-.01375007.00750003-.02383345.01416673-.0254168-.00429168-.05566695.00820838-.06916702.04062521-.01570841.04041687.01608342.09366713.05104193.12850064.03850019.03041682.05779195.04458356.10241718.03833352.04512522-.00933338.07000034-.05054191.08020873-.06366698.15500077.18758427.27154302.28883478.46791901.44333555.0874171.00066667.134334-.05445861.10500052-.11679225-.00970838-.02091677-.03500017-.03483351-.05554194-.0271668.00166667-.00625003.001-.0127084 0-.0187501.10262551-.09437547.1464174-.21208439.03812519-.41141872-.09266713-.16791751-.19633432-.22483446-.29533481-.22416779h-.00050001zm.2602513.18875095c.01825009.03091682.02883348.05750028.04266688.08558376.06179197.12500062.00816671.27508471-.09725049.32108494-.00512502-.00020834-.00354168-.00083334-.00887504.00091667.01720842-.02862515-.03445851-.08975045-.06083364-.06833368.01250006-.03158349-.02791681-.08408375-.06091697-.07054202.01729175-.02941681-.02216678-.07941706-.05916696-.06316698.01916676-.03195849-.0134584-.07775039-.05175026-.06941701.01154172-.03408351-.01741676-.07304204-.05633362-.06658367.00333335-.03012515-.0065417-.0466669-.0211251-.06041697.04625023-.03525018.09775049-.08958378.14320905-.1140839.1133339-.04908358.18345925.04470855.23029282.10491719z" fill="#fab81c" stroke="#6c301e" stroke-width=".1" transform="translate(3.041682 2.66668)"/><path d="m3.30293318 3.02501513c.02841681-.07391704.08529209-.14225072.1461674-.15858413m-.13658402.16900084c.05262527.01091673.13791736-.05179192.15858413-.10783387m-.10900055.16825084c.06900035.01583341.13708402-.05075025.16391749-.1003755m-.10183384.1665362c.08154207.00267544.13183399-.05543172.15583411-.09991087m-.09291713.16333415c.06916701.00041667.13216733-.05666695.15191743-.1010005m-.09108379.17287536c.07533371-.00351807.12850064-.04313253.15083408-.1m-.08250041.1676967c.06916701.00513794.12512563-.04795414.14345905-.09965469m-.06929201.15862992c.06916701.00504399.11229223-.04886363.13066732-.09967129" fill="#fab81c"/><path d="m3.30293318 3.02501513c.01188714-.03550242.03039427-.06843069.05454194-.09704216.01220839-.0140834.0256668-.02725013.04100021-.03808352.01529174-.01083339.03233349-.01945843.05058358-.02341678-.01766675.00583336-.03387517.01500007-.04850024.02625013-.01458341.01116672-.02791681.02408345-.03966687.03820852-.02404178.02808347-.04283354.06029197-.05800029.09416714zm.00958338.01041671c.01687509.00237502.03375017-.00187501.04916691-.0080417.01551776-.00638882.03018492-.01467409.04366689-.02466679.01366673-.00970838.02625013-.02104177.03750019-.03341684.01133339-.01241673.0213751-.02616679.02825014-.04166687-.00512503.01625008-.01458341.03083349-.0255418.04395855-.01100005.01312507-.02383345.02458346-.03750018.03479184-.01389452.01008106-.02908763.01823825-.0451669.02425012-.01604174.0056667-.03375016.00908338-.05041691.00479169zm.04958358.06041697c.01687509.00291668.03408351.00145834.05016692-.00358335.01604175-.00500002.03112516-.01291673.04483356-.02283345.01387507-.00958338.0264168-.02108343.03791685-.03350016.01166673-.01241673.02200012-.02595847.03100016-.04041687-.00752118.01543533-.01704805.0298097-.02833347.04275021-.01121697.01308201-.02394467.02478869-.03791686.03487518-.01413819.01006411-.02987296.0176709-.0465419.02250011-.01675008.00445835-.03466684.00500002-.05112526.00020833zm.06208365.06583367c.01619242-.00032519.03226181-.00289124.04775024-.00762504.01532857-.0048357.02983935-.01195764.04304188-.02112511.01327087-.00909692.02537528-.01978798.03604185-.03183349.01083338-.01195839.02029176-.02520846.02891681-.0390002-.0139929.02987343-.03553534.05558074-.06250032.07458371-.01362506.00916671-.02866681.01645842-.04458355.02070844-.01591675.00433335-.03250016.00566669-.04875025.00429169zm.06291698.06375031c.03195849-.00175001.06220864-.0138334.08804211-.03187516.01308339-.00883337.02500012-.01929176.03583351-.03083348.01083339-.01145839.02054177-.02416679.02800014-.03833353-.00575003.01500008-.01487508.02858348-.0254168.04070854-.01041671.01220839-.02270844.02291678-.03583351.03220849-.01333517.0091225-.02785977.01637079-.04316688.02154178-.01541674.00500002-.03154182.00762504-.04750024.00658336zm.06083364.07180257c.01515064-.00166017.03016764-.00467098.04491689-.00900553.01465438-.0042954.0288211-.01056686.04220854-.01868528.0134584-.0078979.02583346-.0182037.03666685-.0303395.01083339-.01203948.0198751-.02629423.02708347-.0418974-.00550003.01656633-.01404174.03178424-.02458346.04478688-.01066672.01300264-.02341678.02359738-.03708351.03212134-.0276313.01603451-.05825886.02394136-.08916712.02301949zm.06833367.06683611c.01437507-.00021206.02862514-.00212053.04250021-.00636158.01380707-.00418662.02713724-.0106001.03966687-.01908473.01262506-.00821703.02429179-.01871364.03475017-.03090666.01041672-.01219302.01958343-.02629451.02650013-.04241051-.00546322.01715269-.01366383.03267688-.02408345.0455913-.01036556.01308397-.0221864.02415838-.03508351.03286815-.01291673.00837607-.02675013.01484367-.04108354.01823652-.01425007.00349886-.02887514.00424105-.04316688.00212052zm.07416704.05911391c.01348817-.00002141.02692283-.00212238.0400002-.0062554.02598535-.00854319.04940556-.02640975.06737534-.0513986.00907257-.01250393.01690693-.02633087.02333345-.04118143-.0099899.03231549-.02812874.05967526-.05166693.07793195-.01182426.00890323-.02475116.01528063-.03825019.01887048-.01343381.00344121-.02722707.00411033-.04083354.00198087z" fill="#6c301e"/></g><g stroke="#24420e" stroke-width=".1" transform="translate(1.416674 .500125)"><path d="m.05166693.75083709c.30041816-.0986255.78042056-.64387822.81158739-.7465454-.64971159.1730842-.94821308.59762799-.81158739.7465454zm6.07253036.19583431c-.07091702-.29354313-.5533361-.79208729-.64866991-.82958748.11512557.63166982.49650248.94825474.64866991.82958748z" fill="#406325"/><path d="m.05166693.75083709c-.13854236-.14891741.15800079-.56941952.80583736-.74250371-.45658562.35012675-.800004.6740867-.80583736.74250371zm6.07253036.19583431c-.1523341.1205006-.53000265-.19391764-.64525323-.82375412.29845983.46133564.58058624.81292073.64525323.82375412z" fill="#67923d"/></g><g transform="translate(2.750014 1.208462)"><g stroke="#999270" stroke-width=".1"><path d="m.50875254 3.29584981s-.25658461.02758347-.32850164-.32637663c-.07691705-.37862689.22108444-.41883543.22108444-.41883543s.33762669-.03250016.54791941-.03791685l.0933338.74808707-.53383601.03500018z" fill="url(#c)"/><path d="m.54250271 3.18168258s-.16604249.03175015-.20029267-.23137616c-.02429178-.18637593.09104213-.2128344.09104213-.2128344l.38483525.06512533.00208335.34333505-.27766806.03570851z" fill="url(#d)"/><path d="m.4333355 2.73751369s.2460429-.01791676.37458521-.03458351l.0533336.23791786-.29591815.01858342s-.02029177-.21479274-.13200066-.22191777z" fill="url(#e)"/><path d="m.38166858 2.55667945s.31562657-.07737539.35487677.27041802c.01020838.09083379-.0392502.29858483-.19400097.35471011l.57812789-.06066697-.05233359-.6252948-.19479265.01625008s-.4134604.01416674-.49187745.04458356z" fill="url(#f)"/><path d="m.50833588 3.29584981c.00195834 0 2.16263581-.14541739 2.38405358-.13641735.65596162-.35991846-.00316668-1.7733422-.55591944-2.56384615.06312531-.17816756-1.24408956-.57883623-1.83530085-.54266938-.07425037.00458336-.14604239.00945838-.21475107.01475008-.32066827.03400017-.32395995.44558556-.1932093.70512852.12687563.25179293 1.26313132 2.29692815.46416899 2.5132209l-.04900025.00983338z" fill="#f9f0aa"/><path d="m2.82459746 1.43084049c-.1466674-.30433486-.32225162-.59791966-.48825245-.83525418.06308365-.17816756-1.24417288-.57883623-1.83530084-.54266938-.07425037.00458336-.14604239.00945838-.21475107.01475008-.32062661.03400017-.32391829.44558556-.19316763.70512852.03983353.07908373.17916756.33500168.32695996.65554495" fill="url(#h)"/><path d="m.6266698 1.91459291c.23145949.61041971.36100181 1.25488127-.06833368 1.37113185l-.04908357.00983338c.00195834 0 2.16263581-.14541739 2.38401192-.13641734.35575177-.19520931.32470995-.70021184.13362566-1.24767291" fill="url(#i)"/><path d="m.30833488.18708427c-.15437578 0-.19400097.14841741-.19187596.24237621.00558336.24625123.19187596.25800129.19187596.25800129l.2485429-.01387507.11904227-.5067942-.36758517.0202501z" fill="url(#j)"/><path d="m.30833488.18875094.36758517-.0202501.03783352.37858523-.32066827.01404174s.10375052-.30308485-.08475042-.37237687z" fill="url(#k)"/><path d="m2.33834502.59541964c.27858473-.04475022.27479305-.41958543.08441709-.56971118-.64575322-.02375012-1.49563247-.00595836-2.10959388.0400002.06983369-.00208334.26404299.01566675.28562643.27125136.01012505.11929226-.04850024.22883448-.12750064.29108479-.07720872.06091697-.16275081.06091697-.16275081.06091697.01033338.00395835.09012545.00029167.15000075-.00362502.03075015-.00200001.10625053-.01100005.12725064-.01375007.87550437-.11508391 1.74946708-.07595871 1.74946708-.07595871l.00333335.000125-.00020834-.00033334z" fill="url(#l)"/></g><path d="m.76958718 1.18417259c-.00595836-.01375007-.0134584-.03125016-.03041682-.03354184-.01041672.00058334-.02687513-.00216667-.02362512-.01633341.00979172-.00470836.02220845-.00166668.0330835-.00270835.02333345.00041667.04637524-.00475002.06958368-.0061667.01408341.00383336.01091673.02237512-.00433335.01929177-.01700009.00387502-.0072917.02345845-.00312502.03375017.0185001.04308354.03633352.08645876.05533361.12933398.0052917.01262506.01583342.02375011.03008349.02520846.01508341.0015.03150016.001875.04541689-.00483336.01291673-.00833338.01008339-.02600013.00833338-.03904186-.0051667-.01516675.02250011-.01175006.0206251.00179167.00541669.01791676.01166672.03558351.01862509.05291693-.00091667.00833338-.01145839.00595837-.01750008.00700004-.04137521.00320835-.08283375.00550003-.12416729.00933338-.0132084-.00070834-.03312517.01166672-.04125021-.00400002-.00491669-.01608342.02133344-.00708337.02483346-.01929177-.000125-.01362506-.00812504-.02562512-.01279173-.03816685-.01625008-.03820853-.03250016-.07650039-.04875025-.11458391zm.20125101-.01416674c-.00583336-.0133334-.0125834-.03000015-.02862515-.03316683-.01029171-.00091667-.02720846-.00070834-.02566679-.01558341.0065417-.00675004.01904176-.00241668.02791681-.00383336.02466679.00083334.04895857-.00375001.0733337-.00600003.01208339-.001125.01666675.02158345.00108333.0185001-.01491674.0005-.01595841.01687508-.00970838.02708347.01958343.04762523.0400002.09491714.0598753.14233404.00437502.01020838.01000005.02283345.02250011.02441679.01050006.00208334.02700014-.00125001.02937515.01316673-.00166667.01112506-.01808342.00500003-.02625013.0066667-.02175011-.00150001-.04341688.00133334-.06483366.00500003-.00941671.00266668-.02291678.001125-.02333345-.01125006.00225001-.01137506.02437512-.00291668.0254168-.01675008-.00166668-.0135834-.00895838-.02562513-.01375007-.03833353zm.19538597.04774736c.00497525.01173207.02233332.00330772.03239437.00387624.01453878-.00129208.03001732-.01111187.02874586-.02635839-.00243234-.0232574-.01464933-.04687658-.03499255-.06108943-.01879537-.01240395-.04311879-.0110085-.06478875-.00837266-.00121617.00806256.00552805.01576334.00807095.02346413l.0306254.0685318zm.01979305.05360942c.00751706.01641528.01283401.03494111.0258972.04769813.01118392.00806694.02612638.00436177.03863954.00309545.01384239-.00103182.02200116-.01557107.0176926-.0286095-.00650868-.02978201-.02539301-.06097106-.05674467-.06739647-.01385377-.00271748-.02808593-.00271748-.04193971 0-.00114589.00670682.00412522.01350744.00614199.02016735l.01026721.02499814zm-.08626171-.10402346c-.00658337-.01458341-.01291673-.03208349-.02866681-.03862519-.01020839-.00341669-.0267918.00125-.02900015-.01350007.00270835-.01262506.02341679-.00375002.0333335-.0066667.03604185-.00091667.07266703-.01095839.10812554-.000125.03058349.00758337.05791696.03375017.06041697.06612533.00100001.01570841-.01091672.02850014-.02425012.03487517-.00166667-.00562502.01529175.00250002.02108344.00341669.02425012.00775004.04658357.02395845.05737529.04762524.00833337.01658341.01487507.03875019.00166667.05475027-.01508341.01650008-.03916686.01720842-.05991696.01825009-.03125016.00083334-.06275032.00104167-.09354214.0071667-.01112505.00195835-.01908343-.02008343-.00375002-.01875009.01541675-.0005.01683342-.01716675.01016672-.02779181l-.05316693-.1269173zm.30900154-.07941706c.01362507-.00225001.01491674.01316673.01908343.02216677.00408336.0118334.01150006.02258345.01450008.03458351-.01154173.01154172-.02083344-.00600003-.02600013-.01491674-.00600003-.01033339-.01595842-.01983343-.02875015-.0187501-.01699315-.00027664-.0339836.00069822-.05083359.00291669-.00595836.0066667.00275002.01641675.00475003.02404178.0079167.0186251.01500007.03758352.02333345.05583362.01133339-.00083334.02583346.00066667.0339585-.00862505.00316668-.00958338-.01125006-.03112515.00875004-.0266668.01241673.00708337.01100006.02508346.01733342.03675019.0052917.01616674.01600008.03016681.02050011.04645856-.01095839.0120834-.02183345-.00541669-.02583347-.01512507-.0077917-.01445841-.02600013-.01275007-.0400002-.0123334-.01000005-.00208334-.00308334.0071667-.00166667.01183339.00900004.02054177.01600008.04208355.02750014.06145864.00862504.01425008.02708347.0120834.0413752.01166673.01375007-.00083334.03058349-.00108334.0386252-.01416674.00900004-.01041672-.01141673-.03125015.00550002-.0345835.01441674-.00125001.01400007.01566674.01783343.02529179.00304168.01166672.00770837.02291678.01183339.03429184-.00108334.00833337-.01154172.00583336-.01762509.0067917-.04250021.00270834-.08508376.00458335-.12750064.0079167-.01250006 0-.03354183.01000005-.03758352-.00825004.00108334-.01195839.0269168-.00562503.02308345-.02266678-.00304168-.01441674-.01041672-.02750013-.01554174-.0413752-.01570841-.03733352-.03050016-.07500038-.0467919-.1120839-.00583337-.01237506-.01533341-.02583346-.03041682-.02625013-.01000005.00195834-.02508346-.00541669-.01929177-.01695842.01445841-.00279168.02966682-.00083333.04437523-.00233334l.11541724-.00683337zm.09625048.05500027c-.00641669-.01450007-.01258339-.03208349-.02833347-.03875019-.01066672-.00316669-.03020848.00058333-.02900015-.01641675.01029172-.00791671.02750014-.00125001.04041687-.00375002.0333335-.00041667.06750034-.00987505.1002505 0 .03437518.00958338.06312532.04054187.065542.07675038.001125.01733342-.01279173.03137516-.02854181.03600018-.0123334.00062501.00958338.00416669.01291673.00816671.02633347.01266673.04458356.03654185.05858363.06141697.00312501.00937505.02166677.02900015.02441679.01025006-.00112501-.02041677.02658346-.00312502.02033343.01100005.00008333.01483341-.01466674.02445846-.02841681.02429179-.01933343.00150001-.03766685-.00966672-.0474169-.02600013-.01750009-.02304178-.02950015-.05095859-.0527086-.06925035-.00958338-.0069167-.02333345-.01125005-.0345835-.00633336-.00241668.00583336.00291668.01166672.00437502.01733342.00750004.01708342.01270839.03520851.02279178.05095859.00833337.01291673.02470846.01491674.03875019.0148334.01500008.00375002.01083339.02400012-.00512502.01804176-.02437513 0-.04895858-.00183334-.07304204.00320835-.01125005.00525003-.03608351.00041667-.02708346-.01541674.01179172-.00070834.02812514-.00720837.0200001-.02187511-.01383341-.03633352-.02916682-.0720837-.04354189-.10825054l-.01062505-.02612513zm.06699361.04782113c.00725459.01537792.03221253.00683987.04655929.00537755.01948994-.00377372.01894855-.02396314.0127226-.03665228-.00887875-.02217063-.02024788-.04858669-.04818345-.05637-.01423848-.001651-.04580135-.00952865-.04796689.00717008.01028635.02523677.02290067.0497188.03410738.07467255l.00270694.0058021zm.29217486.06092941c.00458335.01083339.00887504.0254168.02241678.02733347.01062505.00250002.02770847-.001.02987515.01375007-.00208335.01104173-.01833343.00437503-.02650014.00595837-.02250011-.00208335-.04487522.00041667-.06708367.00345835-.00958338.00291668-.02291678-.00125001-.02158344-.0133334.00520836-.00875005.02700014-.00154168.02583347-.01675009-.00358336-.01666675-.01150006-.03195849-.01733342-.0479169-.01595842-.04008354-.03175016-.08020874-.04783358-.12020894-.00395835-.01270839-.01845842-.01237506-.02925014-.01166672-.01141673.00008333-.02845848.00250001-.02850015.01733342-.00362501.00958338.00908338.02570846-.00183334.03066682-.01250006.00266668-.01508341-.01145839-.01775009-.02029177-.00408335-.01341673-.01083338-.02583346-.01604174-.03862519.0015-.00891671.0133334-.00733337.02054177-.00808338.05737528-.00241668.11475057-.00500002.17208419-.00725003.01266673-.00195835.0210001.0079167.02166677.0198751.00445836.01400007.01125006.02720847.01720842.04058353-.00475002.01375007-.02116677.00195835-.02308345-.00816671-.00833337-.0144584-.0212501-.02875014-.03916686-.02958348-.01070838.00054167-.02675013-.00354168-.0339585.00608337.00029167.01000005.0060417.01887509.00916671.02825014l.05104192.12858397zm.15541744-.03791685c-.00800004 0-.00404169.01008338-.00491669.01529174.0005.01175006-.00070834.02375012.00125001.03533351.00550002.01291673.02195844.00975005.03266683.01325007.00958338.00541669.00720837.02091677-.0056667.01616675-.01758342-.00104168-.03541684-.00283335-.05279193.00141667-.01041672.00554169-.02970848-.00512503-.02054177-.01633342.00833338-.00141667.01866676-.00416668.02058344-.01391673.00300001-.01725009.00141667-.03491684.00200001-.0523336l.00091667-.15475077c.00500002-.01166673.02141677-.00183334.02512512.0069167.04966692.06316698.0987505.12687564.14970909.18895928.00800004.00966671.01925009.01666675.03200016.01737509.01083338.00008333.01675008.02208344.001125.01775008-.0212501-.00116667-.04275021-.00258334-.06395865.00095834-.00950005.00025-.0205001.00466669-.02900015-.00091667-.01012505-.0074167-.00291668-.01812509.00816671-.01679175.01466674-.00416669-.00020833-.01983343-.00487502-.0271668-.00791671-.01062505-.01583342-.02137511-.02458346-.03133349-.00708337-.00350002-.01554174-.00091667-.02325012-.00125001-.0145834.00041667-.02941681.00083334-.04395855.00141668zm.08746316-.00255769c.01274734.00061867-.0039923-.00799117-.00609351-.01211564-.02969711-.02856198-.05939421-.05722707-.08916135-.0857375.00588338-.00067022.00119068.00902229.00280161.01314676-.00021012.02897443.00021012.0578973-.00021012.08682017.03081775-.00061867.06191566-.00139201.09273341-.00206223zm.08878772-.09577614c-.00625003-.01658341-.0145834-.03695851-.0340835-.04083353-.01012505.00179167-.02925015-.00741671-.01883343-.01833343.02291678-.00033333.04595856.00125001.06887535-.00070834.02908347-.00250001.05900029-.00175.0866671.00854171.06083363.02050011.11133389.07408371.12141727.13833403.00445836.02525012-.00333335.0543336-.0260418.06841701-.03062515.01945843-.06841701.01583341-.10291718.01391673-.01958343-.00095833-.03908353.00166668-.05850029.00358335-.01266673-.00175-.01404174-.0213751.00095834-.01904176.01554174-.0005.01525007-.01758342.00958338-.02783347l-.04708357-.1260423zm.08208375.10391719c.00625003.01416674.01000005.03145849.02345845.04066687.01258339.00595836.02737513.00483336.04083353.00333335.01833343-.00250001.02975015-.02054177.02991682-.03791686.00116667-.03145849-.01166672-.06145864-.02625013-.08858377-.01562508-.02916682-.04400022-.05137526-.07687538-.05716696-.01350007-.00220834-.02770848-.00429168-.04125021-.00208334-.00291668.00516669.00250001.01137506.00358335.01675008l.0466669.12500063zm-.87958773.51733592c.00483335.01458341.01833342.02500012.03354183.0264168.01070839.00187501.02916681-.00066667.02970848.01475007-.00575003.00975005-.02208344.00291668-.03208349.00508336-.0216006-.00065208-.043216.00064484-.06458366.00387502-.01150006.00041667-.02358345.00520836-.03487517.00200001-.01012505-.00479169-.00804171-.01958343.00450002-.01770842.01029172-.00241668.02516679-.00562503.0259168-.0187501-.00095834-.01183339-.00758338-.02225011-.0115834-.03325016-.01604174-.03820853-.03166682-.07658372-.04800024-.11458391-.00358335-.0135834-.01858342-.0139584-.02979181-.01187506-.01033339.00195835-.0256668.0051667-.02820848-.00916671.00125001-.01216673.02070844-.00991672.02929182-.01625008.01300006-.00500003.02583346-.01066672.03916686-.01483341.00895838-.00195834.01350007.00625003.01583341.0133334.02375012.05700029.04750024.11416724.07125036.17100086zm.03125015-.18791761c.02841681-.00108334.05695862.00320835.08525043.00008334.01250006-.00125001.00395835-.02070844.01600008-.01958343.01541674.00070833.01291673.0198751.0139584.03083348.00085763.00656742-.00134753.013165-.00598179.01789682-.00463426.00473183-.01118447.00707394-.01776833.0063533-.02220844.00125001-.04437522-.00208334-.06658366-.00083333.00500002.01708342.01200006.03375017.01854176.05033358.001125-.00558336.01916676-.00645836.0266668-.00750004.04429188-.00200001.09025045.02333345.10883387.06429199.00895838.0198751.01366674.04583357-.00116667.06416699-.01612508.0190001-.04291688.02291678-.06650033.02308345-.02041677-.00029167-.04433356-.00470836-.05637528-.02291678-.00695837-.00895838-.00575003-.02833348.00916671-.0266668.01275006.000125.02750014.01095839.02541679.02479179.0067917.00925004.02187511.00600003.0323335.00583336.01250006-.00041667.02433345-.01008338.02375012-.02333345.00025-.02020843-.00775004-.0400002-.01895843-.05658362-.01216673-.01762508-.03262517-.02950014-.05429194-.02900014-.01220839-.00208334-.02279178.0061667-.03445851.00612503-.01183339-.00154167-.01391673-.01525008-.01812509-.02416679-.01004571-.02487454-.01908092-.05014533-.02708347-.07575038-.00083333-.00445835.00316669-.0080417.00737504-.00750003zm.2854181.04250022c-.0066667-.01645842-.01541675-.03675019-.03500018-.04033354-.01012505.00237501-.02937515-.00708337-.01929176-.01791676.02320845-.00091667.0465419 0 .06970868-.00279168.02933348-.00354168.05966696-.00291668.08770877.00733337.06191698.02058344.11291723.07583372.12225061.14116738.00366669.02433345-.00479169.05158359-.02637513.06512532-.02991682.01945843-.06700033.01658342-.1010005.01575008-.0188751-.00020833-.03750019.00291668-.05612529.00533336-.01250006-.00141667-.0147084-.02095844.00033334-.01916676.01554174-.00116667.01429174-.01833343.00841671-.02845848-.01687509-.04195854-.03375017-.08404208-.05066692-.12595896zm.08458375.10250051c.0066667.01416674.01083339.03141682.02458346.04041687.01258339.00566669.02725013.00408335.04054187.00220834.01833342-.00312501.02862514-.02183344.02825014-.03916686.00016667-.03175016-.01350007-.06166698-.02887515-.08875044-.01625008-.02875015-.04491689-.05054192-.07791705-.05550028-.01341674-.00179168-.02750014-.00345835-.04083354-.00083334-.00275001.00529169.00279168.01137506.00408335.01679175l.05025026.12491729zm.26833468-.17750089c.01300006-.00220834.0147084.0122084.01820842.02100011.00416669.01183339.01020839.02291678.01441674.03466684-.00791671.01291673-.02112511-.00237502-.02450012-.01179173-.0060417-.01029172-.01483341-.02166677-.02808348-.02133344-.01715342-.00059827-.03432755-.00009724-.05141692.00150001-.00937505.00416669.00066667.01625008.00225001.02358345.00762504.01883343.01441674.03804186.02262511.05658362.01104173-.00041667.02387512.0005.03325017-.00633337.00733337-.00883338-.01112506-.03066682.00887504-.02833347.01362507.00500002.01154173.02375011.01733342.03491684.00512503.01654175.01475008.03116682.02041677.04750023-.00733337.01375007-.02266678-.00229167-.02475012-.01258339-.00583336-.0133334-.02166678-.01508341-.03450017-.01458341-.00854171-.00150001-.01541675.00041667-.00941672.00895838.00895838.02145844.01583342.04391689.02729181.06416699.00850004.01450007.02708347.01262506.04145854.01250006.01375007-.00054167.03066682-.00041667.03916686-.01325007.00858338-.01012505-.00820837-.0274168.00341668-.03375017.01404174-.00404168.01733342.01150006.01941677.02166678.00312501.0128334.0076667.02525013.01208339.03758352-.00133334.00825004-.01166672.0055417-.01779175.00637503-.04291689.00183335-.08583377.00279168-.12875065.00533336-.01191672-.00083333-.02875014.00858338-.03625018-.00475002-.00758337-.01645842.02100011-.00750004.02216678-.02183344.00083334-.0127084-.0066667-.02387512-.01041672-.03562518-.01604175-.04020854-.03133349-.08070874-.04783357-.12075061-.0056667-.01304173-.01500008-.02750013-.03083349-.02833347-.00987505.00175001-.02512513-.00562503-.01904176-.01708342.01487507-.00250001.03033348-.00025.04541689-.00150001l.11583391-.00441669zm-1.13667235.59500298c.00625003.02029176.02783347.02858347.04625023.0340835.03208349.01083339.066667.02158344.08958378.04825024.0127084.01541674.02158344.03558351.0206251.05591695-.00166667.02066677-.01937509.03625018-.03850019.0412502-.02378307.00738055-.04942736.0059608-.07225036-.00400002-.01108339-.00479169-.00687504.01945843-.02070844.01125006-.01000005-.00758337-.00683337-.02333345-.01233339-.0339585-.00458735-.01368597-.00995734-.02709703-.01608342-.04016687.00054167-.0135834.0200001-.00650003.02066677.00408335.01362507.02479179.0385002.0466669.06804201.0469169.01491674.00041667.03362517-.00750003.03491684-.02429178.00029167-.02229178-.01750009-.0397502-.03604185-.04929192-.0266668-.0138334-.05729195-.01820842-.08308374-.0338335-.02312512-.01391674-.03945854-.0397502-.0395002-.06700033.00054167-.01820843.01541674-.03241683.03200016-.03762519.02103328-.00735727.04380966-.00812763.06529199-.00220835.01000005.00520836.01416674-.01141672.02479179-.00316668.00479169.00816671.00354169.01916676.00808337.02800014.00333335.01191673.01125006.02237511.01391674.03437517-.0066667.01016672-.01941676.00058334-.02154177-.00845837-.00925005-.01525008-.02158344-.03216683-.04100021-.03354184-.01441674-.00108334-.03270849-.00125-.04191687.01200006-.00404169.0064167-.00383336.01458341-.00125001.02145844zm.27875139-.06875035c.01362507-.00250001.01400007.0130834.01741675.02200011.00333335.01133339.00875005.02195845.0120834.0333335-.00583336.01191673-.02058344.00100001-.02237511-.00883338-.0056667-.01083338-.01404174-.02383345-.02800014-.02300011-.01708342-.00029167-.03416684.00125001-.05108359.00312502-.00945838.00416668-.00029167.01625008.00104167.02375011.00658337.01883343.01233339.03791686.01945843.05650029.01112505-.00083334.02395845-.00041667.0333335-.00750004.00808337-.00833338-.00808337-.02520846.00575003-.02900015.01554174-.00195834.0143334.01833343.01808342.02850015.00404169.01875009.0139584.03541684.0195001.0535836-.0060417.0132084-.02220844.00041667-.02291678-.01029172-.00470836-.01375007-.02016677-.01666675-.03291683-.01533341-.00741671-.00041667-.01750009-.00054167-.01145839.00875004.00750003.02104178.01325006.04279188.02291678.06300032.00500002.01183339.01875009.01441674.03025015.0134584.01633341-.00112501.03525018.000625.04804191-.01175006.01016671-.00975005.00166667-.02437512.00391668-.03554184.01041672-.00833338.02191678.00283334.02083344.01425007.00291668.01441674.0066667.02862514.01112506.04258354-.00166668.00833338-.0120834.0059167-.0185001.00700004-.04241688.00325001-.08487542.00554169-.12720897.00950005-.01166672-.00054167-.02850014.00979171-.03566684-.00362502-.00658337-.01600008.01904176-.00862505.02241678-.02091677.00333335-.01229173-.00408336-.02395846-.00720837-.03558351-.01400007-.04083354-.02725014-.08191708-.04175021-.12250062-.00483336-.01283339-.01362507-.02750013-.02916681-.0276668-.00987505.00233334-.02458346-.00550003-.01783343-.01675009.01437508-.00300001.02958349-.00116667.04433356-.00291668l.11558391-.00825004zm.17416754.17250086c.00375002.01266673.01125005.02658347.02550013.02916682.01041671.00375002.02770847-.00304168.03050015.01191672-.0005.01366674-.02054177.00625003-.02966682.00850005-.02125039-.00114142-.04256068.00031378-.06345865.00433335-.00908338.00133334-.02270845.00450002-.02541679-.00783337-.00220835-.01400007.01933343-.00612503.02391678-.01666675.00333335-.01083339-.00275001-.02150011-.00566669-.03183349-.01404174-.04187521-.02762514-.08391709-.04200021-.1256673-.00479169-.01216673-.01125006-.02808347-.02625013-.02950015-.00966672-.00041667-.02625013-.00125-.02325012-.01529174.00729171-.00687503.0202501-.00216668.02970848-.00341668.03041682.00066667.06041697-.00800004.09083379-.00600003.03125016.00125.06179198.02116677.0723337.05116692.00687503.01687508.00916671.03820852-.00333335.05316693-.01608342.01891676-.04250022.02279178-.06583367.0259168-.00875004-.00116667-.00166667.0079167-.00108333.01250006.00437502.01325007.00883337.0264168.01316673.03958353zm-.01348772-.06262882c.01174792.00137474.02649042-.00114562.03887181-.00380345.018025-.00293278.027527-.01832989.0228048-.03189401-.00501015-.01933804-.01307245-.03959257-.03127022-.05379823-.01750671-.01159366-.04296055-.01191443-.06403771-.00746943-.0080623.00559061.00011518.01466391.00201558.02153762.01053858.0252036.02101957.0504072.03167333.07547333zm.24598888.05054543c.00375002.01062505.00708337.02541679.0205001.0271668.01025005.00225001.02750014-.0015.02875015.0133334-.00250002.01104173-.01833343.00479169-.0267918.00645837-.02250012-.00166668-.04479189.00125001-.06691701.00466669-.00941671.00320835-.02291678-.00095834-.02058343-.01304173.00570836-.00887505.02708347-.00208335.02683347-.01729176-.00229168-.01625008-.00908338-.03150015-.01375007-.04720857-.0132084-.04033353-.02625013-.08066707-.03958353-.12091727-.00320835-.01291673-.01791676-.01208339-.02833348-.01125005-.01058339.00083333-.02583346.00200001-.02883348.0145834-.00345835.01066672.00166668.02225011-.000625.03250017-.00987505.00675003-.01945843-.00375002-.01904176-.01375007-.00364928-.01427895-.00844257-.02824082-.01433341-.04175021-.00041667-.01000005.01266673-.00916671.0200001-.00983338.05750029-.00341669.11500058-.00708337.17250087-.01033339.01258339-.00229168.02041676.00783337.0201251.01958343.00345835.01400007.00929171.02725014.01437507.04062521-.00283335.01179172-.0202501.00541669-.02091677-.00500003-.00725004-.01466674-.01854176-.03050015-.03641685-.03166682-.01166673-.00025001-.02608347-.00241668-.03583351.00512502-.00220835.00858338.00325001.01679175.00520835.02500013.01458341.04429188.02900015.08862544.04354189.13291733zm.08750044-.13708402c-.00437502-.01270839-.00916672-.02887514-.02375012-.03291683-.00987505-.00250001-.02708347.00041667-.02612513-.01479174.00400002-.00883338.01737508-.00333335.02533346-.00500002.02500012.001125.04975025-.00250002.07450037-.0049167.01112506-.00500002.0200001.01750009.00633337.01750009-.01062506 0-.02270845.00791671-.01841676.01979177.00550002.02208344.01354173.04354188.0202501.06533366.01000005.03054182.01945843.0612503.02987515.09166712.00283334.00958338.01041672.01800009.02083343.01833343.01000005.00008333.02762514.00145834.02450013.01583341-.00750004.00650003-.0200001.00241668-.02958348.00333335-.02237512-.00183334-.04458356.00200001-.066792.00475002-.00966672.00416669-.02233345-.00583336-.01633342-.01575008.00858338-.00404168.02695847-.00179167.02570846-.01600008-.00325001-.01708341-.00987505-.0333335-.01487507-.05000025l-.03137516-.09716715zm.2400012-.066667c.0132084-.00237501.01387507.0127084.01683342.02154178.00325001.01154172.0084167.02250011.01166672.0339585-.00608336.01183339-.0206251.00075-.02225011-.00916671-.0055417-.01091672-.01375007-.02395846-.02775014-.02333345-.01713987-.00037141-.03428597.00035229-.05133359.00216667-.00958338.00391669-.000625.01616675.00054167.02366679.00625003.01883343.01166672.03800019.01845842.05658362.01116673-.00041667.02408346.00008333.03358351-.0067917.00833337-.00816671-.00750004-.0252918.00641669-.02875015.01566675-.00166667.01404174.01858343.01766676.02875015.00358335.01875009.0133334.03541684.01845843.05375026-.0047917.01200006-.02195845.00166668-.02200011-.00895837-.00395836-.0133334-.01791676-.01883343-.03083349-.01758343-.0060417.00070834-.02091677-.00312501-.01487508.00708337.00729171.02150011.01275007.04375022.02216678.06445866.00491669.01191673.01866676.01470841.03020849.01391674.01641674-.00083334.03541684.00141667.04850024-.01070839.01041672-.00945838.00225001-.02416679.00470835-.03529184.01054172-.00800004.02191678.00312501.02062511.0145834.00264156.01434999.00609151.02853932.01033338.04250021-.00166667.00812504-.01166672.00583337-.01791675.0066667-.04291688.00250002-.08595877.00395836-.12883398.00708337-.01145839-.00070833-.02683347.00850005-.03491684-.00270834-.00908338-.01612508.01583341-.01041672.0211251-.02020844.00558336-.01108339-.00175001-.02279178-.00450002-.03375017-.0133334-.04145854-.02625013-.08308375-.0400002-.12441729-.00458336-.0134584-.01312506-.02933348-.02933348-.02979181-.00987505.00216668-.02458346-.00583336-.01762509-.01700009.01429174-.00266668.02933348-.00066667.04391689-.00208334.03904186-.00200001.07816706-.00408335.11708392-.00612503zm.08333375.0400002c-.00275002-.01491674-.01416674-.02820847-.03058349-.02591679-.01558341.00404168-.02083344-.02375012-.00137501-.01791676.02116678.000125.04291689-.00325002.06375032.00150001.01008339.01095839.01825009.02400012.02758347.03583351l.09041712.12095894c-.0066667.00145834-.0015-.00775004-.00220834-.01250006l.01479174-.14762574c.01137506-.00941672.03041682-.0054167.04487522-.00841671.01175006-.00175001.03854186-.0056667.03104183.0145834-.01408341.00225002-.0320835.00916672-.02237512.02687514.01500008.04987525.03075016.0995005.04645857.14916741.00283335.01741676.02041677.02270845.03570851.02195844.0132084.00070834.01387507.02341679-.00200001.01791676-.02470846-.00054167-.04958358-.00208334-.07416704.00266668-.01100005.00375002-.03416683.00250001-.0266668-.01479174.01241673-.00225001.03312517-.00595836.02445846-.02387512-.0132084-.04416689-.02737514-.08804211-.04100021-.13208399.00291669.00395835-.00041666.01062505-.00016666.01570841-.00400002.04125021-.00950005.08233374-.01216673.12366728-.00166668.01083339.00208334.02391679-.00308335.03325017-.00979171.00483336-.01604175-.00470836-.02095844-.01150006l-.11900059-.1540841c.00408335-.00150001.00358335.00875004.00583336.01208339.01279173.0400002.02458346.08033374.03800019.12008394.00416669.01616674.02058344.02083343.03533351.02104177.01575008.00804171.00408335.02279178-.00966671.01679175-.02083344-.00300002-.04158355.00116667-.06220865.00350002-.0130834-.00041667-.01375007-.02137511.00125001-.0186251.01950009.00016667.01354173-.02179177.00900004-.0333335-.01416674-.04550022-.02833347-.09100045-.04258354-.13645901.00058224-.00017047.00116559-.00033714.00175-.0005zm.37341316.05368865c.00359222.01165204.02179278.00383223.03149177.00502333.0171229-.00082859.03711957-.0090627.0380775-.02578985.0005987-.02263085-.00939964-.04691888-.02993514-.06162635-.0197572-.01305028-.04610012-.01191097-.06944953-.0098395-.00251455.00745731.00371195.01553606.00550806.02330408l.02430734.0688765zm.0131204.05347126c.00619368.01630835.00956304.03481926.02229724.04794092.01179276.00843535.02814406.00492062.04177015.00412394.0127342-.00093726.02413057-.0107785.02279273-.02343153-.00148648-.02793038-.01560806-.05904746-.04489177-.06996655-.0168468-.00585788-.03532873-.00595161-.05301787-.00421768-.00545043.00449886.00198198.01349657.00272522.01968249.00272522.00866967.00545043.01733933.00827475.02591527zm-.07594868-.10524323c-.00487502-.01437507-.00933338-.0320835-.02441678-.03891686-.00970839-.00366669-.02675014.00075-.02762514-.01408341.00345835-.01208339.02266678-.00333335.03225016-.00575003.03691685.00041667.07475037-.00933338.11083389.00262502.02887514.0076667.05350026.0340835.0533336.06487532-.00016667.01700009-.01391674.02983348-.02862515.03604185-.001-.00558336.01500008.00291668.02083344.00395835.02200011.00791671.04241688.02320845.05100025.04558356.00741671.01729176.01166673.0397502-.00154167.05541695-.01508341.01666675-.03958353.01791675-.06058364.01845842-.03291683.000125-.06608366-.00075-.09866716.00475003-.01183339.0015-.01650008-.02091677-.00166667-.0186251.01500007 0 .01916676-.01583341.01350007-.02733347l-.03866686-.12700063zm.20858438-.00733337c-.00475002-.01441674-.00908338-.0320835-.02408345-.03904186-.00991672-.00375002-.02862515.0005-.02770848-.01541675.00804171-.01066672.02733347-.00166667.0397502-.00433335.02833348.00016667.05658362-.0054167.08479209-.00191668.03291684.00387502.06458366.0269168.07250037.0600003.00600003.01758342.00208334.03979187-.01491674.04966692-.00362502.00400002-.02166678.00825004-.0185001.0079167.02516679.01000005.0466669.02875015.05883363.05304193.0066667.01083339.01000005.02416679.01941676.03316684.01112506.00825004.01241673-.00683337.01429174-.01362507.01458341-.0072917.02200011.01316673.01608342.02416679-.0061667.01750008-.02833348.0210001-.04416689.01683341-.01433341-.00320835-.02516679-.01416673-.03158349-.02687513-.01416674-.02241678-.02308345-.04875024-.04291688-.067167-.00933338-.00816671-.02358346-.01291673-.03541685-.00820838-.00308335.0056667.00166668.0120834.00258335.01791676.00529169.01633341.00866671.0333335.01608341.04887524.00658337.01362507.02262512.01700009.03637518.01708342.01341674-.00033333.01437508.02333345-.00133334.01783342-.02541679-.00008333-.05095858-.00312501-.07625038.00141668-.00916671-.00020834-.02208344.00566669-.0280418-.00416669-.00891672-.01750009.01741675-.00950005.02325011-.0195001.00375002-.01166672-.00270834-.02333345-.00541669-.03466684-.01116672-.03766685-.02237511-.07558371-.03354184-.1130839zm.0630189.04938899c.00572882.01554261.03244384.00712963.04705818.00689198.01695263-.00142593.02689038-.01549508.02326603-.02851855-.00438431-.02124632-.01122382-.04477413-.03203464-.05960377-.01788795-.01069446-.04208929-.01064693-.06313394-.00770001-.00894398.00608396-.00070149.01616051.00116914.02390805l.02367523.06497476zm.27864947-.11688933c.01300007-.00208334.01358341.01241673.01600008.02125011.00291669.01175006.00783338.02291678.01070839.0347085-.00558336.01075006-.02029177.00125001-.0213751-.00854171-.0054167-.01083338-.01216673-.02458345-.0260418-.02520845-.01784544-.00113994-.03574757-.00107033-.0535836.00020833-.00975005.00345835-.00125001.01595841-.00033334.02341678.00562503.0188751.01041672.03804186.01654175.05666695.01083339 0 .02250011.00041667.03250016-.00429168.01166673-.0066667-.00466669-.02458346.00775004-.02925015.01558341-.00341668.01541675.01641675.01779176.0266668.00283335.01941676.01229173.03695852.01708342.05583361-.00520836.01175006-.02208345.00116667-.02187511-.00950005-.00333335-.01233339-.01554175-.01887509-.02779181-.01833342-.00583336.001125-.02316678-.00500003-.01812509.00566669.0066667.02179178.01141673.04429189.02029177.06533366.00458336.0120834.01833342.01516675.02991682.01483341.01658341-.00029167.03562517.00258335.04929191-.00904171.01083339-.00895838.00308335-.02395845.00600003-.03483351.01075005-.00750004.02195844.00362502.0202501.01512508.00208334.0143334.00525003.02850014.00891671.04250021-.00220834.00808337-.01233339.00529169-.01875009.00595836-.04320855.00100001-.08650043.00108334-.12975065.00275002-.01116672-.00100001-.02529179.0066667-.0340835-.00233335-.01095839-.01575008.01241672-.01266673.01970843-.01945843.0079167-.00916671.001375-.02133344-.00100001-.03154182-.01237506-.04262522-.02416679-.0854171-.03687518-.12800064-.00416669-.01291673-.01133339-.02833348-.0265418-.03008349-.00987505.00041667-.0254168-.00391668-.02020844-.01687508.01250007-.00437502.02733347-.000125.04070854-.00145834.04095854-.00070834.08208374-.00154168.12291728-.00220835zm-1.36750683.54708607c-.00387502-.01533341-.00904171-.03541684-.02683347-.03958353-.00987505.00029167-.02683347-.00250001-.02083344-.01633342.01279173-.00516669.02808348-.00116667.04179188-.00316668.0340835-.00175001.06883368-.01020838.10266718-.001125.04966691.01137505.09291713.04945858.10758387.09875049.00941671.03041682.01083339.066667-.00958338.09316713-.02166678.02779181-.0587503.03554185-.0922088.03595851-.02570846-.00025-.05154192-.00041666-.07687538.00470836-.00983338.00595836-.02625013-.00383335-.01758342-.01475007.01075005-.00312502.0279168-.00625003.02458345-.02158344-.00387502-.02141678-.01000005-.04237522-.01500007-.06358365-.00583336-.02416679-.01183339-.04841691-.01775009-.07241703zm.06833367.10166717c.00416669.01345841.00575003.02958349.01691675.03933353.01145839.0066667.0256668.00404169.03825019.00291669.01958344-.00258335.03395851-.0198751.03708352-.0387502.00583337-.03158349-.00333335-.06395865-.01583341-.09291713-.01083339-.02500012-.0333335-.04500022-.06029197-.05054192-.01570841-.00316668-.03241683-.00470836-.04820857-.00158334-.00354169.00483336.00091667.01137506.00150001.01679175l.03062515.12475062zm.29416814-.18458425c.01325007-.00250001.01291673.01266673.01508341.02141677.00233334.01150006.0066667.02250011.00891671.03395851-.00533336.01083338-.02029177.00250001-.02083344-.00775004-.00475002-.01062506-.01125005-.02433346-.02475012-.02441679-.01777263-.00039476-.03555128.00044058-.0532086.00250001-.00975005.00354168-.00208334.01600008-.00133334.02362512.00475002.01883343.00866671.03791685.0139584.05666695.01141673-.00070834.02437512-.00029167.03408351-.0071667.00891671-.00783338-.0054167-.02570847.00866671-.02883348.01570841-.00187501.01262506.01866676.01533341.02866681.00208334.01854176.01050005.03550018.01416673.05366693-.00500002.0118334-.02208344.00241668-.0212501-.00875004-.00291668-.0134584-.01675009-.01883343-.02929182-.01737509-.00612503.00083334-.02070843-.00312501-.01558341.00716671.00558336.0215001.00925005.04362521.01708342.06445865.00404169.01208339.01791676.01458341.02904181.01366674.01737509-.00083334.03770853.00091667.05083359-.01275007.01020839-.00937504.00075001-.02508346.00708337-.0347085.01216673-.00700004.02020843.00583336.01850009.01695841.00137501.01375007.00387502.02741681.00675004.04083354-.00250002.00833338-.01279173.0059167-.01945843.0069167-.04275022.00279168-.08550043.00466669-.12820898.00812504-.01066672-.00041667-.02291678.0064167-.03250016.00050001-.01075005-.01125006.00395835-.01708342.01354173-.01833343.0120834-.00395835.01083339-.01845843.00783338-.02820847-.01095839-.04500023-.02133344-.09008379-.03266683-.13500068-.00345835-.01250006-.01000005-.02816681-.02500013-.02916681-.00983338.001125-.02512512-.00345835-.0192501-.01625008.0123334-.00500003.02716681-.00125001.04041687-.00312502.04066687-.00250001.08141708-.00487502.12200061-.0074167zm.27041802.17083419c.00187501.01291673.01187506.02375011.02483346.02583346.00987505.00416669.02520846-.00154168.03054182.01016672.00383335.0145834-.01625009.00979171-.02458346.01041671-.02391679-.00041666-.04791691-.00083333-.07158369.00279169-.01187506.00083333-.02387512.00404168-.03575018.00275001-.01154172-.00487503-.00625003-.02091677.00612503-.01850009.01125006-.00250002.02625013-.0054167.02945848-.01833343.00137501-.01125005-.00333335-.02200011-.00520836-.03291683-.00900004-.03833352-.01758342-.07683372-.0267918-.11512558-.00133334-.01362506-.01625008-.01400007-.02650013-.01233339-.00958338.00041667-.02445846.0067917-.02750014-.00675003-.00150001-.01416674.0193751-.01125006.02791681-.01695842.01541674-.0052917.03050015-.01133339.04612523-.01583341.00887504-.00195835.01258339.00625003.0133334.0133334zm.18874025-.12737258c-.00474177-.01977569-.0181876-.04282009-.04481944-.04576193-.01883715-.00299631-.04352032.00163436-.05040562.0187406-.00722695.02096631.00247843.0434501.02403361.05567701.01753804.01078674.03832386.01699729.05800544.02473323.00389735-.00653742.01604406-.01906747.0153945-.03050795.00059989-.00767652-.00014417-.01538533-.00220849-.02288096zm.01800198.11541563c-.00521195-.02276444-.02912561-.03599305-.05089318-.04431353-.00945305-.00149581-.02273842-.0129949-.02851244-.00827373-.01584025.01252746-.02335159.03337538-.01635123.05174587.00577403.02257746.02452684.04487446.05135306.04674423.01778196.00219698.03883416-.00514186.04409721-.02211002.00245515-.00777518.0025611-.01601369.00030658-.02383956zm.01892556-.01450152c.0056667.0200001-.00250001.04250021-.01958343.05416694-.02425012.01666675-.05650028.01783342-.08404208.00958338-.02450013-.00708337-.04508356-.02758347-.04941692-.05312527-.00508336-.02033343.00333335-.04354188.02137511-.0545836.00416669-.00416669.02033343-.00583337.0072917-.00900005-.0207501-.01020838-.0412502-.0269168-.04550023-.05095859-.00500002-.0202501.00441669-.04308354.02300012-.05308359.03575018-.0195001.08695877-.00800004.10762554.0281668.00908338.01533341.01083339.03583352 0 .05083359-.00583336.00808337-.01341674.01625008-.02354179.01845843.0202501.00416668.03866686.01658341.05095859.03308349.00583336.00779171.00970838.01691676.01179173.0264168zm.13600068.02312512c.01012505.00041666.02100011-.00562503.02250012-.01637509.00358335-.0081667-.00345835-.02562512.01066672-.02458345.01283339.00075.01154172.01570841.01291673.02500012.00104167.01658342-.000125.03637518-.01437507.04741691-.01033339.00658336-.02320845.00383335-.03479185.00400002-.02341678-.00075001-.0467919-.0056667-.07020868-.00300002-.00983338.00100001-.0206251.01195839-.02987515.00408336-.00800004-.00929172-.00320835-.02166678-.00020833-.0318335.00808337-.02562513.02600013-.0465419.04583356-.06408365.01391674-.01304173.02958348-.0271668.03166682-.04733357.00133772-.01736866-.00294219-.03470741-.01220839-.04945858-.01179173-.0187501-.03958353-.02529179-.05825029-.0133334-.00966672.00625003-.01725009.0206251-.00950005.03104182.00875005.0067917.02500013.00075.02916681.01475007.0054167.00970839-.00016666.0249168-.01250006.02479179-.01833342.00283335-.03491684-.01158339-.03966686-.02858347-.00750004-.02125011.00083333-.04708357.0206251-.05858363.02083344-.01304173.04725024-.01270839.07041702-.00708337.02354178.00583337.04341688.02416679.05058358.04741691.0064167.01800009.0066667.03887519-.00333335.05566694-.01570841.02987515-.0479169.04475023-.06916701.06987535-.00583336.00650003-.01012505.01541675-.0076667.02437512.00316668-.00845837.01654175-.00550002.02425012-.00695836.0144584-.00058334.02875014.00316668.04312521.00279168zm.16416749-.01750009c.00158334.01291673.01141672.02400012.02433346.02633346.00950004.00416669.02362511-.00066667.02979181.00937505.00595836.01437507-.01391673.01183339-.02237511.01125006-.02458346-.00083334-.04933358-.00208335-.07387537.001125-.01195839.00054167-.02404179.00341669-.03595851.00187501-.01166673-.00541669-.0054167-.02070844.00658336-.01833342.01125006-.00216668.0264168-.00470836.03000015-.01758342.00158335-.01104173-.00279168-.02183345-.00450002-.03266683-.00812504-.03845853-.01583341-.07700039-.02416679-.11541725-.00083333-.01183339-.01316673-.01441674-.02279178-.01300006-.00983338-.00108334-.02345845.00687503-.02975015-.00387502-.00720837-.01470841.01437508-.01441674.02300012-.01833343.01700008-.00516669.03375017-.01150006.05091692-.01595841.00875004-.00183334.01241673.00645836.01300007.01354173.01191672.05720862.02375011.11441724.03575017.17158419z" fill="#b07e09"/></g><g stroke-width=".1" transform="translate(3.916686 .000122)"><path d="m.32500163.39208529-.15708412.1867926c-.05000025.21833443.07416703.38279359.31866826.52558597.19804265.12291728.56458615.15375076.68029506.0545836l-.57141952-.54458605-.27041802-.22237612z" fill="url(#m)" stroke="#4c0505"/><path d="m1.48250741 6.01128006c-.02800014-.03375017-.05633361-.06737534-.08479209-.10100051-.35658511.47075236-.80200401.89292113-1.35904846 1.19063095.62821147-.17783422 1.0393802-.63566984 1.44384055-1.08958878zm-.64333655 1.4879241c.22150111-.44883558.48875245-.89767115.75846213-1.3465484-.02955089-.03679537-.05932939-.07340736-.08933378-.10983388-.30637653.50775254-.66583666 1.11167223-.66917001 1.45634062zm1.7387587-4.77085719c-.04104188-.17695921-.09458381-.36825184-.17958423-.54396105-.11066722-.22625113-.27591805-.45125225-.49291914-.70017017-.39100195-.42383545-.78217057-.83317083-1.33029831-1.13542234l.00291668-.00570836.00316668.00187501h.0067917l-.0066667-.00833338h.01958343l-.01062505-.01062505h.01820842l-.01466674-.01666675h.01916677l-.01366674-.01366673h.02054177l-.01137506-.01516675.01654175.00125001-.01550008-.01608341.02283345-.00458336-.01850009-.01158339.0200001-.00383335-.01679175-.01150006.02445845-.00779171-.0215001-.01270839.02720847-.01200006-.02633347-.0190001.02791681-.00950005-.03025015-.01229173.02550012-.01341673-.03000015-.00541669.02033344-.02358345-.02925015.0015.0133334-.02487512-.02783347.00229168c-.000625-.00083334-.00116667-.00166668-.00183334-.00241668l.01525007-.0187501-.02812514.00500003.01237507-.02541679-.02708347.01350006.00775004-.02941681-.0261668.01804176.00400002-.03000015-.02408346.02070843.00250002-.02866681-.02125011.02225011.00191668-.03020848-.02095844.02541679-.00208335-.02966681-.01679175.02333345-.00854171-.02820848-.0139584.02820848-.00708337-.02987515-.0132084.02987515-.00645836-.02987515-.01137506.02987515-.00858338-.02820848-.00891671.02820848-.0066667-.02479179-.01000005.02983348-.00929171-.02812514-.01000005.03208349-.01220839-.02875014-.00525003.03433351-.01466674-.02804181-.00166668.03312516-.01595841-.02512512-.00108334.0328335-.01700008-.02366679.00133334.02875014-.01808343-.01516674.00887505.03100016-.02187511-.01275007.00820837.02708347-.01804175-.01000005.00641669.02625013-.01633341-.00520836.00858338.01958344-.00125001.00270834-.01266673-.00233334.0072917.01520841c-.01595841.04333355-.01720842.09500047-.0145834.14645906.00041667.00958338.02470845.01933343.02854181.0252918.01150005.01791675.00941671.02750013.00941671.02750013-.06633366.10750054-.12562563.19058429-.13229233.31383491.0533336-.06750034.10850054-.15000075.1859176-.15000075-.03833353.06400032-.05654195.25708461-.01350007.28650143l.03208349-.05633362c.00125001.04479189.00750004.07466704.01625009.09675049.0134584-.02708347.02675013-.05291693.0401252-.0725837.00312501.06275031.01116672.11312557.02937514.13800069.01791676-.03083349.04200021-.04958358.06741701-.06541699-.00875005.03583351-.02166678.06966701-.01625008.11262556.02687513-.0459169.05375026-.07304203.08054207-.10470886-.01554175.06608367-.00141668.11541725.01737508.18841761.01666675-.0865421.02320845-.09570881.06316698-.13208399.00437503.07925039-.01083338.15125075.0059167.19554264.03641685-.06979201.06083364-.05983363.08258375-.10500052-.00425002.06583366-.01750009.13716735-.00058334.19591764.01404174-.05887529.05183359-.09041712.08104207-.11125055.00237501.09158379.02354179.07650038-.03341683.15416743.02416679.01108339.10583386-.01566674.15020908-.03466684-.02141677.04908358-.01512507.08758378-.03658351.12233395.04500022-.02266678.08333375-.0592503.12083393-.09679215-.01733342.05633361-.06350031.11266723-.04033353.16900084.01041672-.05262526.05304193-.09595881.09341713-.10387552-.00625003.02950015-.01050005.09058379-.05304193.12012561.10183384.01041671.14200071-.0582503.19325097-.11266723-.0066667.05654194-.00475003.1017505.06466699.18141757-.01400007-.10125051.01008338-.08041707.05595861-.14133404.02216678.08950045.04762524.18458426.14091737.25058459-.03866686-.09445881-.04583356-.14312572-.02387512-.20258435.01200006.06137531.07016702.13541734.08416709.19350097.00858338-.06445866.01833342-.12687564.0400002-.16895918.02720847.07316703.05000025.14875074.05637528.23325116.02033344-.04208354.03687519-.08475042.04833358-.1285423.82237911.85929596 1.00575503 1.95167642.10475052 3.10584886.32375162-.21866776.4072937-.56533616.5871696-.86083764-.17558421.38696027-.2538346.82233745-.56304448 1.14250571.29945983-.25841796.36291848-.49521081.54304438-.74425372-.19195929.52083594-.45758562 1.09167213-.82583746 1.61425807.06541699.07112536.13083399.14333405.19654265.21625108.05716695-.09516714.11429224-.19020928.17070919-.28541809.39041862-.64312822 1.0274218-1.56250781.70471185-2.96443149z" fill="#448127" stroke="#34541f"/></g><g fill="#34541f" transform="translate(3.958353 .416791)"><path d="m.79917066 7.07045202c.01948132-.06225246.04071206-.12394389.06366699-.18500093.02328561-.06095742.04805701-.12133685.07429204-.18108423.05250026-.11958394.11100055-.23633452.17233419-.3514601.06208925-.11477317.12687141-.228069.19429264-.33979336.03370099-.05582255.06777135-.11142127.10220884-.1667925l.10458386-.16533416-.10083384.1676675c-.03366177.05581817-.06699585.1118333-.1000005.16804251-.06600033.11250056-.13100065.22554279-.19229263.3405017-.06204921.11459672-.12005743.23133582-.17391753.35000175-.02692982.05932645-.05243724.11928833-.07650038.17983424-.02434283.06048478-.04696317.12164862-.06783368.18341758zm-.78500392-.39416864c.06893769-.03054841.13675927-.06355584.20333435-.09895883.06670586-.03509175.1320716-.07267393.19595931-.11266723.12783201-.07984962.24946832-.16921393.36387682-.26733467.11479224-.09758382.22200111-.20391768.32341828-.31541824.05072898-.0557567.10011833-.11271769.14812574-.17083419.04833358-.05791695.09541715-.11687558.14166738-.17645921-.04501124.06053156-.0910881.1202634-.13820902.17916756-.04738571.05877414-.09619202.11638864-.14637574.17279253-.100418.11291759-.20822527.21904059-.32270994.31766825-.11493666.09815036-.23733426.18721112-.36608517.26637634-.06442999.03940153-.13033933.07633133-.19758432.11070888-.06733268.03407552-.13584796.06576209-.20541769.09500048zm1.5533411-1.22250611c.03208349-.04475023.06191697-.09108379.09175046-.13733402.02979181-.04625023.05895862-.09300047.0874171-.14008404.05700028-.09416713.11208389-.18958428.16500082-.28608476.05320693-.09640709.10529403-.19342799.15625079-.29104312l.1532091-.29275146-.0727087.1484174-.07429204.14758408c-.05001539.09819599-.10154961.19561095-.15458411.29220979-.05330531.09650164-.10898928.19167011-.16700083.28541809-.05854196.0933338-.11883393.18570927-.18508426.27375137zm.24541789-1.04625523c.07117155-.08461972.13649005-.17399414.19550098-.26750134.05925918-.09325946.11229163-.19033249.15875079-.29058479.09312547-.20041767.1600008-.41225206.20729271-.6279198.00600003-.02695847.01179172-.05395861.01725008-.08100041.01364572-.08163341.02329616-.16388458.02891681-.24645956.00750004-.11016722.00750004-.22083444-.00125-.33091832-.00863447-.11015766-.02590993-.21946673-.05166693-.32691831-.02545987-.10762092-.05891401-.21319226-.10008383-.31583491.04258867.10217716.07750495.20738559.10445885.31475158.02637186.10756475.0442052.21704473.0533336.3274183.00916672.11041722.00979172.22141777.00275002.33191833-.00526659.08296134-.0145833.16561584-.02791681.2476679-.00534007.02714483-.01097933.05422995-.01691675.08125041-.04833357.21600108-.11641725.42808547-.21066772.62850314-.04700966.10026165-.10064242.19728225-.16054247.29041812-.06026293.09282893-.12680759.18142522-.19916766.26516799z"/><path d="m1.74459206 4.16960418c.07679205-.07341703.14458405-.15583411.20408435-.24375122.05983363-.08762544.11175056-.1805009.15812579-.27595971.0464169-.09541714.0874171-.19341763.12612563-.29229313.01933343-.04941691.03812519-.09908383.05666695-.14883408l.01391674-.03733352c.00441669-.01233339.00841671-.02500012.01225006-.03766685.00775004-.0254168.01479174-.05100026.02408345-.07625038l-.00020833.00070833c.0211251-.10516719.03250016-.21229272.03375017-.31958493.00111675-.10739482-.00682812-.21469246-.02375012-.3207516-.01666675-.10612553-.04150021-.21083439-.07216703-.3138349-.03054265-.10309695-.06604244-.20466001-.10637553-.30433486.04173775.0991772.07866969.20030899.11066722.30304318.03167021.10294009.0563515.2079017.07387537.31416824.01725008.10625053.02625013.21400107.02541679.32175161-.00077445.10786399-.01165541.21541807-.03250016.32125161l-.00008333.00033333-.00008334.00041667c-.00916671.02458346-.01637508.05016692-.02425012.07554204-.00395835.01275007-.00791671.0254168-.0125834.0381252l-.0140834.03729185c-.01875009.04970858-.03779185.09929216-.05750029.14875074-.03916686.0987505-.08070873.19666765-.12770897.29216813-.0469169.09541714-.09929216.18833427-.1598758.27583471-.06083364.08720877-.12983398.16875085-.2076677.24116787z"/><path d="m1.50209084 5.38461026c.05008359-.06916702.09958383-.1386257.14887575-.20825104l.0740837-.10445886c.02458346-.03491684.05033359-.06891701.07225036-.10541719.04450023-.07275037.08291708-.14900075.12075061-.2254178.03750018-.07666705.07583371-.15291743.11291723-.22979281.07416704-.1535841.14600073-.30854321.2069177-.46783568.06116042-.1591966.10923666-.32311566.14375072-.49012745.03533351-.16683416.05904196-.33596001.07858372-.50541919.01775009-.16937585.01958344-.34083504.00158335-.51033589-.01825602-.1697047-.05636405-.33668077-.11354224-.49750248-.05625028-.16095914-.12983398-.31566825-.21241773-.46500233.08387542.14858408.1587508.30266818.21654275.46354399.05786743.16101524.09660569.32827502.11541725.49833582.01858342.16991752.01725008.34175171 0 .51179423-.01916677.16966751-.04233355.33908503-.07725039.50637753-.03511965.16735257-.08382283.33156383-.14562573.49100245-.06154197.15945913-.13387567.31429324-.20858437.46775234-.03737519.07679205-.07583372.15291743-.11362557.22945948-.03808353.07637539-.07666705.15266743-.12166728.2254178-.02233344.03654185-.04845857.07041702-.0733337.10508386l-.07487537.10375051c-.05000025.06916702-.1000005.13833403-.15075076.20708437z"/><path d="m1.61709142 5.51044422c.09841716-.15979247.19625098-.3200016.28975145-.48262741.09375047-.16250082.1867926-.32558497.26937634-.49400247.08270875-.16820918.15416744-.34221005.20816771-.52175261.02708347-.08970879.05000025-.18066757.06887535-.27250137.00953247-.04586808.01775806-.09199809.02466679-.13833402.00708336-.04625023.01375007-.0927088.01966676-.13916736.02425012-.18595927.03866686-.37325187.03841686-.56075281-.00020833-.1874176-.01520841-.37500187-.04991692-.55933613-.0345835-.18416758-.08916711-.36483515-.16570916-.53604434-.07618367-.17163369-.17355219-.33305603-.28983478-.48050241.11757579.1466956.21632982.30752959.2939598.4787524.07716706.17125085.13237566.35221009.16750084.53675268.03529184.18458426.05083359.37262686.05166693.56041947.00070833.18791761-.0132084.37562688-.03708352.56191948-.00608018.0465547-.01274741.09303086-.0200001.13941736-.00707108.04645467-.01547738.09269626-.02520846.13866736-.01909406.09198458-.0423683.18305164-.06975035.27291803-.05458361.17983423-.1266673.35400177-.21000105.52225261-.08320875.16841751-.17666755.33137666-.27095969.4935858-.09483381.16208415-.1939593.32141828-.29362647.48041907zm-1.15875579-5.47836073c.01975009-.0005.03958353.00166668.05908362.00470836.01958344.00304168.03891687.00725004.05808363.01225006.03833352.01020839.07562538.02383345.11195889.0397502.0725837.03200016.14041737.0739587.20416769.12095894.06319208.04779307.12247705.10054347.17729255.15775079.0273626.02854983.05382027.0579534.07933373.08816711.02525013.03041681.04987525.06133363.0732087.09316713-.02484969-.03067616-.05041234-.06076785-.07666705-.09025045-.02608346-.02958348-.05304193-.05833363-.08091707-.08625043-.05562528-.05583362-.11445891-.10850055-.17775089-.15533411-.06273267-.04762901-.13033204-.08848194-.20166767-.12187561-.03566685-.01654175-.07250037-.03083349-.11025056-.04183355-.03775018-.01112505-.07650038-.01970843-.11600058-.0212501z"/></g><g stroke="#24420e" stroke-width=".1" transform="translate(2.083344 6.583489)"><path d="m.87583771.09708382c-.20375102.15183409-.77304553.22625113-.85200426.200001.41429374-.34458506.82187911-.35291843.85200426-.200001zm2.9066812.18500092c.21891776.19866766.87933773.33554335.97812989.31083489-.43925219-.44875224-.92092127-.49425247-.97812989-.31083489z" fill="#406325"/><path d="m.87417104.09583381c-.03000015-.15291743-.43575218-.14375072-.84908758.19895933.43525218-.14341738.80158734-.22520946.84908758-.19895933zm2.91293123.18375092c.05708362-.18341758.533086-.13908403.97350487.31091822-.49516915-.20916771-.91446291-.33750169-.97350487-.31091822z" fill="#67923d"/></g></g></g></g></g></g></svg>