<svg width="48" height="48" viewBox="0 0 48 48" fill="none" xmlns="http://www.w3.org/2000/svg">
<rect x="4.75" y="9.75" width="38.5" height="28.5" rx="4.25" fill="#3B5AA3"/>
<rect x="4.75" y="9.75" width="38.5" height="28.5" rx="4.25" stroke="#C62139" stroke-width="1.5"/>
<path fill-rule="evenodd" clip-rule="evenodd" d="M23.65 34.8257C23.7318 34.8648 23.8212 34.8855 23.9118 34.8866C24.0025 34.8877 24.0923 34.869 24.175 34.8319C32.7875 30.2507 32.7875 17.6882 24.1812 13.1694C24.0955 13.1304 24.0021 13.1113 23.9079 13.1134C23.8138 13.1156 23.7213 13.139 23.6375 13.1819C15.2437 17.7694 15.2187 30.1882 23.6437 34.8257H23.65Z" fill="#CBE0E5"/>
<path fill-rule="evenodd" clip-rule="evenodd" d="M23.65 35.0559C23.775 35.1621 24.05 35.1496 24.175 35.0559C30.5187 30.3059 30.55 27.3496 30.275 27.3496H17.7125C17.525 27.3496 17.825 30.3621 23.65 35.0559Z" fill="#ADD2D9"/>
<path fill-rule="evenodd" clip-rule="evenodd" d="M18.7062 29.6996C19.2808 29.5195 19.9016 29.5573 20.45 29.8058C20.925 30.0558 21.2 30.0558 21.7125 30.0558C22.25 30.0683 22.6687 30.4621 23.25 30.4808C24.3187 30.5058 24.7687 31.0371 23.9375 31.0433C23.55 31.0433 22.7062 30.7746 22.3 30.8308C21.45 30.9183 20.9125 31.1058 20.1125 31.9996L21.0375 32.6246C21.8375 32.3058 21.9687 31.9371 22.4125 31.9246C22.9125 31.9058 23.0812 31.5996 23.6625 31.5996C24.3564 31.6575 25.0551 31.5898 25.725 31.3996C26.65 31.1871 26.2125 30.5371 25.65 30.3058C25.1937 30.1121 24.35 30.2996 23.825 30.1058C23.425 29.9496 23.75 29.6996 23.9687 29.6496C24.1812 29.6058 24.4125 29.6808 24.6812 29.7246C25.1625 29.7621 25.7687 29.7183 26.1875 29.6496C27.0625 29.5183 27.025 29.2621 27.4375 29.2558C27.75 29.2371 27.9812 29.1496 28.1875 28.9996C28.4375 28.8308 28.6937 28.4996 28.9937 28.5121L29.7875 28.5433L28.6625 31.0683L25.4937 34.2996L23.85 34.9246L20.2375 32.5683L18.4187 29.7746L18.7125 29.6996H18.7062Z" fill="#FDF9A1"/>
<path fill-rule="evenodd" clip-rule="evenodd" d="M22.8625 27.2494L30.1125 27.2119L30.2375 26.5681C30.2375 26.5681 29.9812 26.5306 29.7687 26.5181C29.5125 26.4994 29.0625 26.7931 28.7687 26.7869C28.55 26.7869 28.3125 26.4119 28.1 26.4119C27.725 26.4119 27.7 26.7431 27.35 26.7556C27.0687 26.7431 26.95 26.5306 26.5812 26.5556C26.2062 26.5744 26.2312 26.7869 25.75 26.7744C25.1125 26.7556 24.8562 26.2056 24.3437 26.1994C23.4937 26.1869 23.4687 27.0119 22.8562 27.2431L22.8625 27.2494Z" fill="#179A3B"/>
<path fill-rule="evenodd" clip-rule="evenodd" d="M22.8625 27.3996L30.325 27.3621V27.1621L22.6875 27.1996L22.8563 27.3996H22.8625Z" fill="#FDF9A1"/>
<path fill-rule="evenodd" clip-rule="evenodd" d="M25.925 29.6427C26.0437 30.0802 26.1625 30.2302 26.625 30.349C27.0813 30.4552 27.7813 30.0115 27.35 29.5802C26.9375 29.1802 26.5 29.0802 26.1313 28.7177C25.35 27.949 24.175 26.0615 24.175 24.7302C24.175 23.5865 24.0625 21.2427 24.0625 19.024C24.0625 18.8802 23.625 19.424 23.625 19.574C23.65 21.5302 23.65 23.0115 23.725 24.9865C23.85 26.4302 24.5375 27.4052 25.1437 28.2802C25.4125 28.7052 25.8062 29.1552 25.925 29.6427Z" fill="#A79270"/>
<path fill-rule="evenodd" clip-rule="evenodd" d="M20.225 19.0553C20.1313 19.2428 20.45 18.999 20.525 18.974C20.9438 18.824 21.1063 18.299 21.825 18.6178C22.3875 18.8615 23.1438 18.7178 22.75 18.9678C22.2625 19.2615 21.2813 19.5865 21.2625 21.0428C21.3438 21.1803 21.35 21.1615 21.4188 21.0053C21.5688 20.6678 22.275 19.749 22.625 19.824C22.7688 19.8615 23.1813 19.4053 23.1875 19.5365C23.2313 19.899 22.625 20.6365 22.6375 21.6178C22.6375 21.849 22.9188 21.924 23.05 21.7615C23.1875 21.6178 23.2625 21.474 23.5 21.2865C23.9125 20.949 23.8 19.499 23.85 19.5678C24.1438 19.9428 24.1875 21.024 24.625 21.4615C24.9938 21.8303 25.2875 21.649 25.2063 21.149C25.05 20.124 24.5688 20.4178 24.3375 19.3615C24.2875 19.1553 24.275 18.974 24.55 19.0553C24.8813 19.1553 25.0813 19.3053 25.325 19.6803C25.575 20.0428 26.0375 20.3865 26.3063 20.5928C26.775 20.9553 26.9438 20.6428 26.7188 20.1803C26.433 19.655 25.9668 19.2509 25.4063 19.0428C25.0188 18.9053 24.8813 18.8928 24.5438 18.8303C24.45 18.8115 24.3563 18.6178 24.5188 18.5115C24.8802 18.2509 25.3015 18.0854 25.7438 18.0303C26.1625 18.0178 26.4938 18.3553 26.7875 18.4428C27.375 18.5928 27.375 18.224 27.1125 17.9428C26.9 17.7115 26.45 17.3178 26.0313 17.374C25.1875 17.4803 25.2438 17.4553 24.7188 17.799C24.5313 17.9115 24.3188 18.0365 24.4 17.899C24.5875 17.5553 24.4125 17.6178 24.7063 17.2678C24.9313 17.0178 25.1 16.8303 25.3313 16.7678C25.5438 16.7115 25.8313 16.4865 25.9125 16.3678C26.125 16.0803 25.9438 15.9115 25.6188 16.0115C25.3313 16.0865 25.1813 16.274 24.9938 16.324C24.5313 16.474 24.1625 17.5115 24.1063 17.6615C24.0375 17.8365 23.9563 17.749 23.9688 17.599C24.0313 16.8678 24.0938 15.6303 23.8438 15.124C23.4438 14.374 23.4813 14.724 23.3313 15.0803C23.1063 15.6428 23.1875 16.174 23.3313 16.724C23.3938 16.999 23.6188 17.3115 23.6625 17.5303C23.6938 17.699 23.5625 17.4803 23.4875 17.374C23.2438 16.999 23.0625 16.749 22.6625 16.5428C22.263 16.3784 21.824 16.3349 21.4 16.4178C21.2875 16.4553 21.525 16.6178 21.6188 16.6928C21.8875 16.9053 22.3938 16.974 22.7438 17.1865C23.0313 17.3678 23.2563 17.4803 23.3563 17.7303C23.3938 17.9178 23.4563 18.1928 23.3313 18.1865C23.0125 18.1678 22.5188 17.8865 21.4938 17.999C20.9688 18.074 20.5188 18.5178 20.225 19.0553Z" fill="#239E46"/>
<path fill-rule="evenodd" clip-rule="evenodd" d="M22.4563 28.4121H22.75V28.9059H22.4563V28.4121Z" fill="black"/>
<path fill-rule="evenodd" clip-rule="evenodd" d="M20.9813 25.1191C22.1563 26.7441 24.0437 27.6941 24.0812 28.4316H20.4062C21.25 27.4191 21.7688 26.7316 20.9813 25.1191Z" fill="#FDF9FF"/>
<path fill-rule="evenodd" clip-rule="evenodd" d="M19.9125 28.468C21.5125 28.8242 23.4187 29.0242 24.6375 28.418C24.65 28.7742 24.2437 29.293 23.9062 29.293H20.8437C21.2 29.2367 21.4062 29.1305 21.9812 29.1055L20.3562 29.118C20.1687 29.1242 19.8562 28.643 19.9125 28.468Z" fill="#A68861"/>
<path fill-rule="evenodd" clip-rule="evenodd" d="M23.5375 35.5631C23.7 35.6568 23.9562 35.6506 24.1 35.5756C33.3375 30.6568 33.3437 17.1756 24.1125 12.3256C24.0201 12.2828 23.9191 12.2617 23.8173 12.2638C23.7155 12.266 23.6155 12.2914 23.525 12.3381C14.525 17.2631 14.5 30.5881 23.5375 35.5693V35.5631ZM23.5812 34.4568C23.6589 34.495 23.744 34.5154 23.8305 34.5164C23.917 34.5175 24.0027 34.4993 24.0812 34.4631C31.8062 29.9131 31.9 17.8943 24.0875 13.5881C23.9375 13.4756 23.7187 13.5131 23.5687 13.5881C16.1687 17.9693 15.7562 29.4943 23.5812 34.4568Z" fill="#BE0027"/>
<path d="M21.2597 24.5823L21.2807 24.6662L21.293 24.7154H21.3438H21.475H21.54V24.6504V23.8379V23.7729H21.475H20.8125H20.7475V23.8379V24.0066V24.0716H20.8125H21.2201C21.2098 24.2033 21.1674 24.2903 21.1024 24.344L21.1023 24.344L21.1001 24.3459C21.0265 24.4125 20.9305 24.4479 20.8063 24.4479C20.642 24.4479 20.5333 24.3973 20.4655 24.3065C20.3958 24.2031 20.3588 24.0712 20.3588 23.9066C20.3588 23.7025 20.405 23.563 20.4853 23.4756L20.4853 23.4757L20.4861 23.4748C20.5751 23.3747 20.6767 23.3279 20.7938 23.3279C20.9057 23.3279 20.9896 23.351 21.0508 23.3916C21.1194 23.4398 21.165 23.5085 21.1867 23.6025L21.1983 23.6529H21.25H21.4438H21.5205L21.5079 23.5772C21.4721 23.3625 21.3734 23.2046 21.2053 23.1179C21.0863 23.0539 20.9506 23.0229 20.8 23.0229C20.5745 23.0229 20.3859 23.1027 20.2395 23.2628L20.2875 23.3066L20.2396 23.2627C20.0885 23.4275 20.0163 23.6467 20.0163 23.9129C20.0163 24.1796 20.0909 24.3991 20.2465 24.5638L20.2463 24.564L20.251 24.5681C20.3963 24.6952 20.5678 24.7591 20.7625 24.7591C20.9076 24.7591 21.0336 24.7328 21.1374 24.6762L21.1374 24.6762L21.1385 24.6756C21.1787 24.6526 21.219 24.6212 21.2597 24.5823Z" fill="#BD0728" stroke="white" stroke-width="0.13"/>
<path d="M22.34 23.1313V23.0681L22.2769 23.0663L22.0644 23.06L21.9975 23.0581V23.125V23.9875C21.9975 24.1755 22.0229 24.3303 22.0789 24.4469L22.0789 24.4469L22.0794 24.4478C22.1853 24.6597 22.3898 24.7588 22.6688 24.7588C22.9391 24.7588 23.1374 24.6619 23.2391 24.4547C23.304 24.3335 23.3337 24.1761 23.3337 23.9875V23.125V23.06H23.2687H23.0562H22.9912V23.125V24.0813C22.9912 24.1827 22.9757 24.2587 22.9489 24.3131C22.8969 24.4028 22.804 24.4538 22.65 24.4538C22.5189 24.4538 22.4401 24.4066 22.3952 24.3201L22.3953 24.32L22.3935 24.317C22.3593 24.2589 22.34 24.1816 22.34 24.0813V23.1313Z" fill="#BD0728" stroke="white" stroke-width="0.13"/>
<path d="M24.8125 23.06H24.7675L24.7517 23.1021L24.1767 24.6334L24.1437 24.7213H24.2375H24.4438H24.489L24.5047 24.6788L24.6578 24.265H25.1717L25.307 24.6766L25.3217 24.7213H25.3688H25.6063H25.6994L25.6673 24.6338L25.1048 23.1026L25.0891 23.06H25.0438H24.8125ZM24.7624 23.9663L24.9164 23.5545L25.0588 23.9663H24.7624Z" fill="#BD0728" stroke="white" stroke-width="0.13"/>
<path d="M26.3125 23.06H26.2475V23.125V24.65V24.715H26.3125H26.5125H26.5775V24.65V23.7558L26.8885 24.6709L26.9034 24.715H26.95H27.1437H27.1903L27.2053 24.6709L27.5162 23.7558V24.65V24.715H27.5812H27.7812H27.8463V24.65V23.125V23.06H27.7812H27.4875H27.4409L27.4259 23.1042L27.0504 24.2145L26.6804 23.1044L26.6656 23.06H26.6187H26.3125Z" fill="#BD0728" stroke="white" stroke-width="0.13"/>
</svg>
