<svg height="48" viewBox="0 0 48 48" width="48" xmlns="http://www.w3.org/2000/svg" xmlns:xlink="http://www.w3.org/1999/xlink"><defs><path id="a" d="m8 9h32c2.209139 0 4 1.790861 4 4v22c0 2.209139-1.790861 4-4 4h-32c-2.209139 0-4-1.790861-4-4v-22c0-2.209139 1.790861-4 4-4z"/><mask id="b" fill="#fff"><use fill="#fff" fill-rule="evenodd" xlink:href="#a"/></mask></defs><g fill="none" fill-rule="evenodd"><path d="m0 0h48v48h-48z"/><use fill="#d8d8d8" xlink:href="#a"/><g mask="url(#b)"><g transform="translate(4 9)"><path d="m0 0h40v30h-40z" fill="#ba0000" fill-rule="evenodd"/><path d="m19.4392778 15.5230665s-2.8169986-1.2129138-2.4127849-4.3557608c.3913892-1.51289525 1.0825416-2.54315708 2.3345834-3.10393734.5868111-.18259739 1.1868285-.26085341 1.7997794-.31302409-.1609869.1521463-.2956156.30434717-.3651947.49562148-.1347925.34342061-.0348169.67379855.1434148 1.00412191.2260365.38254862.3607198.77819444.4042682 1.29116984.0825672.7216035-.2260366 1.4172307-.7955484 1.8389074-.360829.2783164-.7868168.3739262-1.1346577.6912615-.2694758.2652192-.4346648.5304383-.4955124.9911338-.0087315.878061.2304569.9998653.5217069 1.46067z" fill="#fff" fill-rule="evenodd"/><path d="m19.3458636 11.0746304v-.11186h-.5v.11186z" fill="#000" fill-rule="nonzero"/><path d="m19.1214533 15.1527514c-.4989594-.4415038-.7774435-1.2378777-.7866992-2.1258332-.0087785-.8421849.2304044-1.6261869.6235671-2.0090939l-.0819371-.0841317c-.4197134.4087652-.668145 1.2230825-.6590622 2.0944496.0095716.9182636.2990189 1.7459887.8263081 2.2125601z" fill="#ba0000" fill-rule="nonzero"/><path d="m19.5898961 10.4302583.1800871.3011275-.3339797-.1360476-.2496116.2679477.0436574-.3517155-.3343071-.1355565.3609382-.081312.042948-.35177011.1795414.30150941.3607199-.0818577" fill="#ba0000" fill-rule="evenodd"/><path d="m19.6786299 15.3150932s.3342525-3.0487106 3.457672-3.5831872c1.5611367-.0691426 2.7486746.2897764 3.6517294 1.322494.3465313.5076273.5971252 1.0583118.8265998 1.6290787-.1926386-.1092529-.3775281-.1934572-.5808082-.2038804-.3678142-.0282683-.6544255.1641521-.9181167.4313358-.2994902.3282496-.6382722.5728952-1.1159942.7648244-.6657764.2904859-1.421269.1991872-1.9913265-.2217254-.3716343-.2634729-.5879571-.6426926-.9932076-.8823176-.3326153-.1799779-.6346705-.2601985-1.0929648-.1833614-.8421527.2489568-.8884296.5133028-1.2436923.9267937z" fill="#fff" fill-rule="evenodd"/><path d="m24.1504927 13.911506.10669-.0164594-.2980485-.4835406-.10669.0164594z" fill="#000" fill-rule="nonzero"/><path d="m19.9395581 14.9027296c.2759473-.606418.9557713-1.1060324 1.8020383-1.3750868.8026443-.2551855 1.6223218-.2562608 2.1036513.0074088l.0564213-.1029973c-.5138311-.2814739-1.3652007-.280357-2.1956549-.0163299-.8751498.2782372-1.5817344.7975183-1.8733481 1.4383646z" fill="#ba0000" fill-rule="nonzero"/><path d="m24.5921695 13.9667866-.2352046.2603077.0321974-.3590827-.3293411-.1601138.3490415-.0612842.0316517-.359301.1834705.3212645.3488778-.0620482-.2356412.2599802.1840162.3208825" fill="#ba0000" fill-rule="evenodd"/><path d="m19.8891681 15.5352906s2.9970856-.651315 4.4957376 2.1405805c.5613805 1.4583234.5982165 2.698414-.0942456 3.8826775-.3712523.4897823-.8138845.9023454-1.2821655 1.3012111.0424024-.2173597.0635217-.4194938.0088407-.6155704-.0900436-.3577185-.3634485-.5683658-.7005934-.7334456-.4063419-.1798688-.7459971-.4233684-1.0796493-.8153034-.4867808-.5391698-.6402369-1.284512-.4221678-1.9586925.131791-.4361928.4227681-.7616593.5211611-1.2220819.0650497-.3725074.0451855-.6843309-.173211-1.0945475-.5035344-.7194206-.7689173-.6794194-1.273816-.8848824z" fill="#fff" fill-rule="evenodd"/><path d="m22.9208533 19.3230913.0371953.0662503.4628047-.4337497-.0371952-.0662503z" fill="#000" fill-rule="nonzero"/><path d="m20.3630386 15.6517032c.6626605.0690867 1.3522965.5550334 1.8761608 1.2720134.4968657.6800286.7581848 1.4569102.6610244 1.9970755l.1155837.0207902c.1037208-.576638-.1677023-1.3835583-.681784-2.0871494-.541744-.7414508-1.2585271-1.2465265-1.9588072-1.3195352z" fill="#ba0000" fill-rule="nonzero"/><g fill-rule="evenodd"><path d="m22.7281045 19.7661364-.3215919-.1403588.350897-.0834949.0471501-.363121.1690635.3113869.3507878-.0840406-.2463918.2760244.1697184.3110595-.321319-.1407954-.2459553.2763518" fill="#ba0000"/><g fill="none" transform="translate(13.661538 15.806676)"><path d="m6.16006967.03765457s1.46689114 2.69355704-.79183745 4.91599536c-1.24194601.94845863-2.42178926 1.33193498-3.75290566.99991988-.57431408-.21883309-1.09454746-.52770972-1.60888708-.86512743.22047024-.0203553.42042148-.05686386.59319593-.16437039.31815385-.18679942.44350537-.50844587.50735443-.87833382.05839187-.44050392.1967315-.83484006.47924993-1.26519361.3806386-.61857185 1.05296371-.97519884 1.76130624-.95517098.45567489.00403832.8496836.19182003 1.31927431.1570032.37572714-.04218404.6694328-.14881742 1.0018299-.4736836.54910188-.68525864.43613817-.92881277.49158316-1.47103861z" fill="#fff"/><path d="m3.75838662 3.90844726-.03989619.062105.46010382.437895.03989618-.062105z" fill="#000" fill-rule="nonzero"/><g fill="#ba0000"><path d="m6.18143747.52517567c.11985626.65539479-.1528459 1.45376529-.69387604 2.15792016-.5131369.66785161-1.18539104 1.13682302-1.7310812 1.19522189l.01249673.11677182c.58254211-.06234271 1.2807913-.54944852 1.81170922-1.24044227.55949729-.72819003.84293543-1.55799147.71627403-2.25059798z" fill-rule="nonzero"/><path d="m2.89683716 3.95056488.0443669-.34805922.17872279.31324238.36181132-.05675472-.2515762.24977533.17921394.31307866-.33397968-.1589132-.25103048.25015733.0449672-.34800465-.33436169-.15836749"/></g></g><g fill="none" transform="translate(12.351814 11.659216)"><path d="m7.13756052 4.12672279s-2.05310188 2.27837445-4.89978752.88651959c-1.30715936-.85634136-2.06096023-1.84169057-2.18996807-3.20740551.01544384-.61436982.13391931-1.2076749.28131786-1.80490915.09249927.20115182.19334804.37763716.35220667.5048987.28191815.23793323.62703048.24928418.99702758.1866357.43493759-.09129869.85279419-.09184441 1.35256313.03165167.70987054.15351059 1.26955937.6690508 1.48610044 1.34383164.14761684.43111756.10139448.865182.29032221 1.29646328.16458867.34036458.36273904.58195413.7795042.7874717.82883716.2903222 1.02103919.10286792 1.55093179-.02510305z" fill="#fff"/><path d="m3.05695493 3.13129086-.10622-.0179605-.32238947.48203951.10622.01796049z" fill="#000" fill-rule="nonzero"/><g fill="#ba0000"><path d="m6.68481641 4.30877595c-.57828121.33081562-1.42189093.33889096-2.26581052.06258095-.80042172-.26206825-1.46613065-.74029609-1.70252534-1.23557599l-.10598519.05058622c.25235969.52872882.94381072 1.0254491 1.77196842 1.29659847.87272609.28574162 1.749549.27734835 2.36066756-.07225243z" fill-rule="nonzero"/><path d="m2.36274253 2.34893585.3430386-.07378113-.23613236.2726955.17370217.32235588-.31908156-.15422003-.23575037.27296836.0389643-.36781423-.31935443-.15367431.34314775-.07312627.03830944-.36803251"/></g></g></g></g></g></g></svg>