<svg width="48" height="48" viewBox="0 0 48 48" fill="none" xmlns="http://www.w3.org/2000/svg">
<g clip-path="url(#clip0_1911_276)">
<path d="M4 9H44V39H4V9Z" fill="#18C3DF"/>
<path d="M4 19H44V29H4V19Z" fill="white"/>
<path d="M23.5 23.9987L24.3333 24.1654L24 22.332L23.5 23.9987Z" fill="#18C3DF"/>
<path d="M24.5 23.9987L23.6667 24.1654L24 22.332L24.5 23.9987Z" fill="#18C3DF"/>
<path d="M23.8455 23.5228L23.9445 24.3669L25.5851 23.4833L23.8455 23.5228Z" fill="#18C3DF"/>
<path d="M24.1545 24.474L23.7385 23.733L25.5851 23.4835L24.1545 24.474Z" fill="#18C3DF"/>
<path d="M23.8455 24.474L24.2616 23.733L22.4149 23.4835L23.8455 24.474Z" fill="#18C3DF"/>
<path d="M24.1546 23.5228L24.0555 24.3669L22.4149 23.4833L24.1546 23.5228Z" fill="#18C3DF"/>
<path d="M24.4045 23.7063L23.6324 24.0613L24.9797 25.3486L24.4045 23.7063Z" fill="#18C3DF"/>
<path d="M23.5955 24.2942L24.1717 23.6696L24.9797 25.3487L23.5955 24.2942Z" fill="#18C3DF"/>
<path d="M24.4045 24.2923L23.8283 23.6676L23.0204 25.3467L24.4045 24.2923Z" fill="#18C3DF"/>
<path d="M23.5955 23.7044L24.3676 24.0594L23.0204 25.3466L23.5955 23.7044Z" fill="#18C3DF"/>
<path d="M31.8312 21.3327L32.6646 21.4993L32.3312 19.666L31.8312 21.3327Z" fill="#18C3DF"/>
<path d="M32.8312 21.3327L31.9979 21.4993L32.3312 19.666L32.8312 21.3327Z" fill="#18C3DF"/>
<path d="M32.1767 20.8568L32.2757 21.7009L33.9163 20.8173L32.1767 20.8568Z" fill="#18C3DF"/>
<path d="M32.4857 21.808L32.0697 21.067L33.9163 20.8174L32.4857 21.808Z" fill="#18C3DF"/>
<path d="M32.1767 21.808L32.5927 21.067L30.7461 20.8174L32.1767 21.808Z" fill="#18C3DF"/>
<path d="M32.4857 20.8568L32.3867 21.7009L30.7461 20.8173L32.4857 20.8568Z" fill="#18C3DF"/>
<path d="M32.7358 21.0384L31.9636 21.3933L33.3109 22.6806L32.7358 21.0384Z" fill="#18C3DF"/>
<path d="M31.9267 21.6262L32.5029 21.0016L33.3109 22.6807L31.9267 21.6262Z" fill="#18C3DF"/>
<path d="M32.7357 21.6262L32.1595 21.0016L31.3516 22.6807L32.7357 21.6262Z" fill="#18C3DF"/>
<path d="M31.9267 21.0384L32.6989 21.3933L31.3516 22.6806L31.9267 21.0384Z" fill="#18C3DF"/>
<path d="M31.8312 26.3327L32.6646 26.4993L32.3312 24.666L31.8312 26.3327Z" fill="#18C3DF"/>
<path d="M32.8312 26.3327L31.9979 26.4993L32.3312 24.666L32.8312 26.3327Z" fill="#18C3DF"/>
<path d="M32.1767 25.8568L32.2757 26.7009L33.9163 25.8173L32.1767 25.8568Z" fill="#18C3DF"/>
<path d="M32.4857 26.808L32.0697 26.067L33.9163 25.8174L32.4857 26.808Z" fill="#18C3DF"/>
<path d="M32.1767 26.808L32.5927 26.067L30.7461 25.8174L32.1767 26.808Z" fill="#18C3DF"/>
<path d="M32.4857 25.8568L32.3867 26.7009L30.7461 25.8173L32.4857 25.8568Z" fill="#18C3DF"/>
<path d="M32.7358 26.0384L31.9636 26.3933L33.3109 27.6806L32.7358 26.0384Z" fill="#18C3DF"/>
<path d="M31.9267 26.6262L32.5029 26.0016L33.3109 27.6807L31.9267 26.6262Z" fill="#18C3DF"/>
<path d="M32.7357 26.6262L32.1595 26.0016L31.3516 27.6807L32.7357 26.6262Z" fill="#18C3DF"/>
<path d="M31.9267 26.0384L32.6989 26.3933L31.3516 27.6806L31.9267 26.0384Z" fill="#18C3DF"/>
<path d="M15.1687 21.3327L16.0021 21.4993L15.6687 19.666L15.1687 21.3327Z" fill="#18C3DF"/>
<path d="M16.1687 21.3327L15.3354 21.4993L15.6687 19.666L16.1687 21.3327Z" fill="#18C3DF"/>
<path d="M15.5143 20.8568L15.6133 21.7009L17.2539 20.8173L15.5143 20.8568Z" fill="#18C3DF"/>
<path d="M15.8233 21.808L15.4073 21.067L17.2539 20.8174L15.8233 21.808Z" fill="#18C3DF"/>
<path d="M15.5143 21.808L15.9303 21.067L14.0837 20.8174L15.5143 21.808Z" fill="#18C3DF"/>
<path d="M15.8233 20.8568L15.7243 21.7009L14.0837 20.8173L15.8233 20.8568Z" fill="#18C3DF"/>
<path d="M16.0732 21.0384L15.3011 21.3933L16.6484 22.6806L16.0732 21.0384Z" fill="#18C3DF"/>
<path d="M15.2642 21.6262L15.8404 21.0016L16.6484 22.6807L15.2642 21.6262Z" fill="#18C3DF"/>
<path d="M16.0733 21.6262L15.497 21.0016L14.6891 22.6807L16.0733 21.6262Z" fill="#18C3DF"/>
<path d="M15.2642 21.0384L16.0364 21.3933L14.6891 22.6806L15.2642 21.0384Z" fill="#18C3DF"/>
<path d="M15.1687 26.3327L16.0021 26.4993L15.6687 24.666L15.1687 26.3327Z" fill="#18C3DF"/>
<path d="M16.1687 26.3327L15.3354 26.4993L15.6687 24.666L16.1687 26.3327Z" fill="#18C3DF"/>
<path d="M15.5143 25.8568L15.6133 26.7009L17.2539 25.8173L15.5143 25.8568Z" fill="#18C3DF"/>
<path d="M15.8233 26.808L15.4073 26.067L17.2539 25.8174L15.8233 26.808Z" fill="#18C3DF"/>
<path d="M15.5143 26.808L15.9303 26.067L14.0837 25.8174L15.5143 26.808Z" fill="#18C3DF"/>
<path d="M15.8233 25.8568L15.7243 26.7009L14.0837 25.8173L15.8233 25.8568Z" fill="#18C3DF"/>
<path d="M16.0732 26.0384L15.3011 26.3933L16.6484 27.6806L16.0732 26.0384Z" fill="#18C3DF"/>
<path d="M15.2642 26.6262L15.8404 26.0016L16.6484 27.6807L15.2642 26.6262Z" fill="#18C3DF"/>
<path d="M16.0733 26.6262L15.497 26.0016L14.6891 27.6807L16.0733 26.6262Z" fill="#18C3DF"/>
<path d="M15.2642 26.0384L16.0364 26.3933L14.6891 27.6806L15.2642 26.0384Z" fill="#18C3DF"/>
</g>
<defs>
<clipPath id="clip0_1911_276">
<rect x="4" y="9" width="40" height="30" rx="5" fill="white"/>
</clipPath>
</defs>
</svg>
