<svg height="48" viewBox="0 0 48 48" width="48" xmlns="http://www.w3.org/2000/svg" xmlns:xlink="http://www.w3.org/1999/xlink"><defs><rect id="a" height="30" rx="4" width="40" x="4" y="9"/><path id="b" d="m40 30h-40v-30h40z"/><mask id="c" fill="#fff"><use fill="#fff" fill-rule="evenodd" xlink:href="#a"/></mask><mask id="d" fill="#fff"><use fill="#fff" fill-rule="evenodd" xlink:href="#b"/></mask></defs><g fill="none" fill-rule="evenodd"><path d="m0 0h48v48h-48z"/><use fill="#d8d8d8" xlink:href="#a"/><g mask="url(#c)"><g transform="translate(4 9)"><use fill="#fff" fill-rule="nonzero" xlink:href="#b"/><g fill="none" mask="url(#d)"><path d="m4 .5c-1.93299662 0-3.5 1.56700338-3.5 3.5v22c0 1.9329966 1.56700338 3.5 3.5 3.5h32c1.9329966 0 3.5-1.5670034 3.5-3.5v-22c0-1.93299662-1.5670034-3.5-3.5-3.5z" stroke="#dedede"/></g><g fill-rule="nonzero"><path d="m41.8465125 6.69958625h-42.9715125v-3.94958625h42.9715125zm0 20.58893755h-42.9715125v-3.9495863h42.9715125zm-28.37625-16.150375 6.46955 11.2529749 6.6087875-11.2065624z" fill="#00c" mask="url(#d)"/><path d="m18.75 18.5625 1.2308125 2.0859775 1.25725-2.0774-2.4880625-.0085187z" fill="#fff" mask="url(#d)"/><path d="m13.5 18.752975 6.4701375-11.252975 6.6082 11.2065625z" fill="#00c" mask="url(#d)"/><path d="m18.718425 11.1484775 1.2308125-2.0859775 1.25725 2.0774-2.4880625.0085187zm-2.572075 4.670625-1.27135 2.1139425 2.402875-.0074613zm-1.2496125-3.906875 2.4219687.0170375-1.1652475 2.130275-1.2566625-2.1473125zm8.88535 3.9309625 1.2237625 2.09009-2.4504625-.0313138zm1.2014375-3.9309625-2.4219688.0170375 1.1653063 2.130275zm-6.7133625-.00235-1.6681475 3.0265062 1.692 2.9549488 3.0978875.0714987 1.882585-3.0265062-1.7395875-3.0503-3.264855.0237937z" fill="#fff" mask="url(#d)"/></g></g></g></g></svg>