<svg height="48" viewBox="0 0 48 48" width="48" xmlns="http://www.w3.org/2000/svg" xmlns:xlink="http://www.w3.org/1999/xlink"><defs><path id="a" d="m8 9h32c2.209139 0 4 1.790861 4 4v22c0 2.209139-1.790861 4-4 4h-32c-2.209139 0-4-1.790861-4-4v-22c0-2.209139 1.790861-4 4-4z"/><mask id="b" fill="#fff"><use fill="#fff" fill-rule="evenodd" xlink:href="#a"/></mask><mask id="c" fill="#fff"><path d="m0 0h40v30h-40z" fill="#fff" fill-rule="evenodd"/></mask></defs><g fill="none" fill-rule="evenodd"><path d="m0 0h48v48h-48z"/><use fill="#d8d8d8" xlink:href="#a"/><g mask="url(#b)"><g fill="none" fill-rule="evenodd" mask="url(#c)" transform="translate(4 9)"><path d="m40 30h-40v-30h40z" fill="#ba0000"/><g fill="none" transform="translate(8.125 5.125)"><path d="m13.0649256 16.9068359c.01175-.0354492.0354262-.4010156.0236175-.4010156-.0118088 0-.5557751-.6367383-.5439076-.6367383s.6975976.1532813.6975976.129668c0-.0235547.2720125-.6720703.2720125-.6839062 0-.0117188.3309975.7901367.3309975.7901367l.6738625.2948437-.4729375.3890625s.1065137.7546875.1065137.7665821c0 .0117187-.4729375-.4482422-.4729375-.4482422l-.5203487.0590625s-.0708525-.2358399-.09447-.2593946z" fill="#ffef00" fill-opacity=".988" stroke="#000" stroke-width=".1"/><path d="m9.40127547 6.99746094c-.44926126.23074218-2.17351506 2.19644531-2.40992506 2.50300781-.19816376.44507813-.58573752 1.00810545-.98482628 1.37050785-.42605501.3215625-.66281751.7607226-.60418501 1.1765625-.0047.5173828.28611251.8696484.51782251 1.23375.13718125.166289.32165626.2738086.51788126.286875.40243751.0530273.43815752.1766015.63961127.253125.79341877 1.077539 1.9771138 1.8720703 2.82957632 2.5013672.54343752.2857031.92120002.571289 1.05074382.7272656.24957.4753125.2036275.938789.169435 1.1664844-.2109125.7939453-.4219425 1.5877148-.6329138 2.3816015-.1065138.6486328.4586613.5027344.489035.3730078.254975-.3301758.635675-.0983203 1.1795238-2.0085937.2493937-.3347461.4987875-.6694922.7480638-1.0042969 0 0 .2877575-.1147266.2877575-.1433789.43757-.5239453.1044575-.8238281-.1439375-.9181641-.182125-.066914-.3642501-.1339453-.5464926-.2009765 0 0-.6329137-.6311719-.6617012-.6311719-.3008-.8726367-1.7770701-2.7355664-2.11999382-2.9949609-.23735001-.2466797-.35032626-.3518555-.57563252-.4890821-.34644876-.1652343-.45825001-.2190234-.67033751-.3035156-.17672001-.0706641-.05093626-.264082.06139375-.3525 1.16930128-.6348047 2.0962-1.340332 3.2182076-2.05769531l.1726075-.11484375-.40279-2.29541016-1.87001258-.66c-.0981125.06697266-.17254875.13400391-.25891125.20097656z" fill="#fff" stroke="#000" stroke-width=".1"/><path d="m10.965788 19.0830078c.005875-.0235547 1.1704763-.2358398 1.1704763-.2358398s-.1359475.4304297-.1418813.4304297l-1.15855.347871.129955-.5424023z" fill="#ffec00"/><g stroke="#000" stroke-width=".1"><path d="m7.93135043 14.7095703c.22466001-.5954883.84823252-1.0669922 1.26712003-1.1970703"/><path d="m10.9240755 19.0929687c.0752-.0210937.4089-.1182421.50619-.1333593.1036938-.0242578.2069763-.0513282.306675-.0834375.11515-.0234375.1871775-.045.306675-.0667969.0937063-.0355664.1862375-.06.2863475-.0833203m-1.6168 1.085039c.0098113-.0128906.0891238-.0829101.1461113-.1167187.0671512-.0210938.2966875-.1182422.3834612-.1333594.0925117-.0236814.1839025-.0515223.2738925-.0834375.1028125-.0234375.1671438-.045.2739513-.0667969.0835425-.0355664.1662625-.0599414.2555625-.0833203"/><path d="m11.1861005 14.8777344h-.016685c.0522875 0 .02021-.004336-.0502312.0833789-.0249688.0673828-.2397.2167969-.4012625.2167969-.0779613.0083203-.1978113.0166406-.2758901.0166406-.022325 0-.052875-.0166406-.0752-.0166406m.8028188 3.1357617h.0835425c.086715 0 .1737238.0154101.2508625.0166406.0836013 0 .1672025.0236719.2508625.0236719.084365.0118945.1860613.0080273.2733638.0203906.0978775.0033398.176485.0226172.2783575.0226172.0821325.0031055.12643.0167578.217375.0167578l-.217375-.0167578c.0821325.0031055.12643.0167578.217375.0167578m-1.9230638 1.9342969c.00893-.0130078.0816625-.0829102.133715-.1167188.0615113-.0210937.27166-.1182422.3512075-.1333593.0848768-.0237801.1685554-.0516249.250745-.0834375.094235-.0234375.1531025-.045.2508625-.0667969.07661-.0355664.15228-.06.23406-.0833203m.3450975-2.415c-.0472937.1369336.0139825.1713281.0393625.2304492.0440625.0572461.1566275.1444922.3344638.2000976.0685612.0183985.12126.0364454.2006313.0667969.0525225.0048047.0783725.0178711.11703.0332813m-7.30673773-5.5532813h.016685c-.052405 0-.02097375.0033985.066975-.0667969.05422626-.0604687.09958126-.0878906.15040001-.15m.84811502 1.4044922c.0111625 0 .97272377-.4833984 1.07541878-.5865234.0727325-.0527344.12784-.1081641.2162-.1679297.05681125-.0295312.097525-.0673828.150635-.1000195.04406251-.0638672.10181376-.1024219.13365626-.1608399.05904375-.0509765.0337225-.1063476.0816625-.1678125.02256-.0629883.06491875-.1690429.078725-.2267578m1.22470253.7173047c.0052875.0345703-.015275.1407422-.013865.2216016-.00334875.09375-.12425625.3833789-.27042625.4699218"/><path d="m7.86731293 12.9113281c.00564 0 .15198625.047461.39656251.122461.29451376.1056445.90698252.4905468.96773002.5435742.06209876.0486328.17307751.0921679.21561251.15.06656375.0574219.1152675.1235156.16726125.1833984.0611.0744141.11309376.1372266.15040001.2002149.18594375.1504101.68619997 1.1919726.70223877 1.2507421.0280825.0550782.0628625.1316016.08366.1833985.0370125.0426562.062275.1028906.1002862.1668164.0349563.0829101.0741426.1207031.1171476.1833984.0553425.0384375.129955.1113282.2006312.1501172.0753763.0642188.1460525.0904102.2006313.133418.0789012.0333984.9600925.5889844 1.0009825.6168164.0804875.0644531.3263562.3185742.1537487.5033203-.0732025.0625195-.1392375.1453125-.2016887.1805859-.0637438.0636329-.1523975.0921094-.2256.1250391-.3970325.1170117-.59925.0751172-.6773875.0751172h-.0836013m-5.21500262-6.7330664c.1128.0440625.0673275.011543.16890626.0576562.0682675.0298828.11321125.030586.1803625.0550782.0710875.0226757.27007376.0584179.36560126.1541015.0701475.0631641.12366875.1166016.20069.1626563.09106251.0626953.15686251.0905273.26978001.1375195.0952925.0355664.20180626.075.29815626.0783984.10016875.0058594.1241975.0008204.2203125.0008204h.23406001-.23411876.23406001"/><path d="m5.89390038 12.059375c.25074501-.0166406.66875127.058418.67709377.058418l.55183876-.0083203c.28987251-.0278907.35391001-.139043.40126251-.2169141.1086875-.1666992.18400501-.225.26760626-.3501563.133715-.1000195.31783751.133418.32606251.133418.46823751.4419727.09194375.9839063.0668575 1.0005469-.23400126.214043-.28417376.2279297-.42629001.0916992-.14217501-.1667578-.18388751-.2417578-.30097626-.3001758-.22560001-.1083984-.69383752-.0249609-.70229752-.0249609-.0083425 0-.2424025.0916992-.2424025.0916992-.11432751.0417188-.18682501.1417969-.38457751.1750781-.20063126.0139453-.26754751-.0055078-.36789251-.1666992-.13371501-.208418-.066975-.4586133.1338325-.4835742z" fill="#ffe606"/><path d="m18.9857507 1.94492188c-.0367187.00714843-.367775.16570312-.3620175.17601562s-.2841738.79511719-.28999.78486328c-.005875-.01037109-.207975-.68167969-.2285375-.67007812-.0205625.01154297-.7206863.09298828-.7310263.09878906-.01034.00574219.5281625-.675.5281625-.675l-.0725562-.73042969.5718725.22048828s.607475-.46242187.6177563-.46816406c.0102812-.00585937-.1599175.63076172-.1599175.63076172l.3065575.42339844s-.171315.1771875-.1803625.20917968z" fill="#ffef00" fill-opacity=".988"/><path d="m12.119638 9.98632812c.421825.27749998 2.9848526.81316408 3.3687251.86847658.4860975-.0458789 1.1681263.0150586 1.6805438.1844531.4897988.2128125.9896438.2034375 1.3243425-.0513281.4545488-.2494922.6199301-.675.8245563-1.05486329.0781375-.2006836.0816625-.41378907-.003055-.59074219-.1509875-.37587891-.060395-.46757813-.0922375-.68009766.5528375-1.2178125.667165-2.63625.79947-3.68583984-.016685-.61230469.0478225-1.08087891.1206725-1.26984375.293045-.45.7206863-.63714844.9364751-.71894531.7972375-.20578125 1.594475-.41132813 2.3917125-.61699219.6190488-.22535156.214555-.64511719.0863625-.60802735-.4136-.05988281-.3975025-.50449218-2.33355-.04101562l-1.2443251-.15820313s-.2414625-.19394531-.26649-.17988281c-.672335-.12351562-.7711525.31306641-.7319075.57515625l.0922375.57363281s-.2414625.85957032-.2273625.88458985c-.6152888.6890625-1.5311425 2.90203125-1.589775 3.32724609-.0277888.39960938-.17907.32742188-.1384738.71583985.0015275.30351562-.03384.11402343.0677388.73933593.0247925.18826172-.2059188.17373047-.3382825.11935547-1.1278826-.70546875-2.1987776-1.16542968-3.3756576-1.78933593-.0616875-.03128907-.1232575-.06269532-.1848863-.09386719l-1.808795 1.47509765.339575 1.94917969c.1066312.05244141.2016887.084375.3025625.1265625z" fill="#fff"/></g><path d="m21.9156133 2.703125c-.0235.00644531-.7797888-.90199219-.7797888-.90199219s.4428575-.0927539.4457363-.08759765l.87185.83683593z" fill="#ffec00"/><path d="m19.5808882 7.48496094c-.6305637.0965625-1.3483125-.21445313-1.667325-.51486328" stroke="#000" stroke-width=".1"/><path d="m21.9455758 2.73476562c-.055225-.05507812-.3037375-.29765625-.3646613-.37470703-.0713136-.07824457-.145792-.15356085-.22325-.22576172-.076845-.08847656-.1310125-.140625-.2085625-.23390625-.0769625-.06386718-.1437612-.13242187-.2132625-.20800781m1.7407625.87363281c-.0161562-.00199218-.1162075-.03667968-.173665-.06972656-.0513475-.04804687-.2487475-.19980469-.3045012-.26794922-.0660315-.06880557-.1351326-.13461426-.2070938-.19722656-.07097-.07792969-.1213187-.12316406-.1927-.20542969-.0720862-.05519531-.13395-.11507812-.198105-.18134765" stroke="#000" stroke-width=".1"/><path d="m18.1327007 4.57285156.008225.01453125c-.0256738-.04552734-.0137475-.01541015.097525.00275391.0710875-.01125.3068512.1021289.3859875.24257812.04559.06386719.111625.16388672.1498125.23179688.0109275.01933594.0113975.05419922.022325.07365234m2.3470626-2.23464844-.008225-.01453125c.0109862.01945313-.0217375-.03867187-.0327238-.05800781-.0424762-.07546875-.071675-.15867187-.1083937-.22634765-.0409488-.07265625-.0612763-.15703125-.102225-.2296875-.0309613-.07921875-.0841888-.16570313-.1161488-.24767579-.0450613-.08671875-.0666813-.16447265-.1166188-.253125-.0376-.07289062-.0473525-.1180664-.0919437-.19722656l.0919437.19728516c-.0376-.07294922-.0473525-.118125-.0919437-.19728516m2.6331163.72386719c-.015745-.00140625-.1124475-.03029297-.167555-.0590625-.0485862-.043125-.2364687-.178125-.2886975-.23994141-.0623835-.06212116-.1277098-.12123163-.195755-.1771289-.0666813-.07042969-.1143863-.11097657-.1813025-.18539063-.0687375-.04910156-.1270763-.10294922-.1875888-.16259765m-2.2802638.88330078c.14288-.02601563.14288-.09609375.182125-.14707032.028435-.06644531.0495263-.20707031.0109863-.38888671-.0175075-.06867188-.0276125-.12333985-.03995-.2071875-.0215613-.04804688-.022795-.076875-.0283175-.11806641m-1.2722313 9.0742969-.008225-.0145313c.0257325.045586.0132775.0165821-.0910625-.0254297-.0795475-.0175781-.125725-.0435351-.2048613-.0573047m.8117488-1.42617183c-.0054637-.00972656-.8991688-.60878906-1.0396988-.64746093-.0816625-.03738282-.1570975-.05800782-.252625-.10570313-.0536975-.03480469-.1067487-.0515625-.1613275-.08185547-.0774325-.00714843-.139355-.0384375-.2060362-.0375-.073555-.02636718-.10951.02285157-.1867075.01136719-.0660938.01113281-.17954.02636719-.2367625.04259766m.0269075-1.41621094c.0276125-.02144531.1305425-.05566406.2005137-.0965625.0835425-.04306641.395975-.07986328.5431438.00480469" stroke="#000" stroke-width=".1"/><path d="m18.0404632 8.421875c-.0027613-.00492187-.0330175-.15539062-.0873025-.40488281-.0520525-.30773438-.015745-1.02878906.0007637-1.10765625.0121613-.0778125-.00423-.19570313.0254388-.26097656.0175075-.08589844.051465-.16072266.0783725-.23525391.035015-.08953125.0644487-.16558594.1012262-.22886719.0403025-.23537109.7054701-1.18066406.7490626-1.2234375.0375656-.05576269.0773515-.11000523.1192625-.16259765.0190937-.05314454.0593375-.10453125.0966437-.16898438.055225-.07089844.0691488-.12351562.10293-.19160156.0064625-.06697266.0334875-.16757813.0327825-.24802735.01927-.09703125.0074613-.17132812.01833-.23988281-.0094-.08496094.0442388-1.12335937.0485275-1.17246094.01692-.10166015.1184988-.43986328.3646025-.38039062.090475.03310547.19505.04992187.25662.08695312.08695.02419922.1552175.08730469.2199013.13476563.296805.28787109.3592562.48421875.3975025.55212891l.0410075.07265625m-3.3335338 7.80000002-.008225-.0145313c.0221487.0392578.0099875.0196875-.0182125-.0663281-.0073438-.0740039-.0302563-.1740234-.04183-.2443359-.0149813-.0730664-.04935-.1562696-.03995-.2071875-.0262613-.0741797-.0097525-.1353516-.0027025-.2089453.0207975-.091875.0301975-.158379.0327825-.2479688.010105-.10986328.0019975-.18779297.008225-.29162109-.0290225-.08554688-.0348975-.15714844-.079195-.24257813-.0393625-.08167969-.0694425-.15726562-.11656-.24082031l-.1147388-.20349609.1147388.20355468-.1147388-.20349609" stroke="#000" stroke-width=".1"/><path d="m18.2631257 10.5546875c-.137475-.2097656-.2767125-.60996094-.280825-.61728516l-.2777113-.47566406c-.1664387-.23835937-.294925-.23953125-.3862225-.24257812-.1989862-.01277344-.286935-.04957032-.4372175-.0609375-.152985-.06726563-.0391275-.34160157-.04324-.34892579.1568625-.62355468.8148625-.56208984.84177-.5484375.3017988.09855469.3385175.13535157.28905.32566407-.0760225.20537109-.121025.27832031-.1147975.40875.0158625.249375.3182488.61552734.32242.62285156.0041125.00726562.1989275.16582031.1989275.16582031.0924725.07892578.215495.0928711.341455.24855469.1105676.1675781.1263126.2353125.0346626.4014844-.1166776.2184375-.3680688.2830078-.4883301.1207031z" fill="#ffe606" stroke="#000" stroke-width=".1"/><path d="m2.7379678 4.75800781c.026085.02677735.34045626.21621094.34592001.20566407.00546375-.01054688.82273502-.19845704.81721252-.18796875-.0055225.01048828-.45783876.54685546-.43680626.55769531.020915.01089844.47276126.55042969.48327751.5558789.010575.00539063-.85557627-.07101562-.85557627-.07101562l-.57281251.46054687-.12836876-.59783203s-.72062751-.25359375-.73114376-.25898437c-.0104575-.00544922.61669876-.21210938.61669876-.21210938l.18729501-.48773437s.24252.0459375.2743625.03585937z" fill="#ffef00" fill-opacity=".988" stroke="#000" stroke-width=".1"/><path d="m13.2434081 6.08134766c.0017625-.50390625-.9529251-2.93589844-1.1168376-3.28652344-.3047362-.38039063-.627215-.98285156-.7658062-1.50316406-.0897113-.52517578-.3714175-.93714844-.7684501-1.07683594-.45825-.24257813-.90580748-.14748047-1.33656249-.11015625-.21120625.04476562-.39186251.15855469-.49391126.32613281-.23265.33181641-.35896251.30644531-.51993751.44953125-1.32446003.20583984-2.57689256.88746094-3.52981759 1.35199219-.50454501.34933594-.93283252.55224609-1.13129003.59496094-.53791501.00193359-.92919002-.25230469-1.11607377-.38748047l-1.82759505-1.65761719c-.52816251-.39316406-.65870502.17431641-.55730251.26097656.17625.37792969-.20539001.60791016 1.24385503 1.96951172l.54896001 1.12482422s-.0304325.30761719-.004935.32080078c.26461001.62871094.68502502.47203125.88336502.29566406l.43063751-.39117187s.85334377-.26935547.86656252-.29472656c.91509003.13582031 3.27308009-.3121875 3.6618876-.49628907.35044375-.19570312.37276876-.02988281.67633001-.2765625.25380001-.16746093.11421001-.03410156.58309377-.46136718.1444075-.1238086.2585.07664062.285525.21679687.02602625 1.32755859.22677501 2.47306641.34809376 3.79675781.0076375.06855469.01509875.13710938.02261875.20566407.74260003.23378906 1.48549383.46746093 2.22815253.7011914.482925-.45035156.9660851-.90076172 1.4490101-1.35117187-.014335-.11759766-.0396563-.21445313-.059455-.32167969z" fill="#fff" stroke="#000" stroke-width=".1"/><path d="m1.76829903 1.89746094c.0182125.01611328-.32947001 1.14474609-.32947001 1.14474609s-.32048126-.31875-.31772001-.32402344l.22442501-1.18576171.42270626.36503906z" fill="#ffec00"/><path d="m7.05832541 1.22626953c.42640751.47326172.55871251 1.24248047.48139751 1.67320313" stroke="#000" stroke-width=".1"/><path d="m1.77887403 1.85603516c-.0158625.07628906-.08319.41648437-.1145625.50953125-.02654901.10233556-.04893152.20570152-.06709251.30984375-.03213625.11267578-.04611875.18632812-.0818975.30222656-.0113975.09925781-.0323125.19242187-.0576925.29179687m-.2205475-1.93095703c.00705.01464844.03272375.11707032.0365425.18310547-.0121025.06914063-.03143125.31699219-.05798626.40078125-.02155437.09280927-.03892267.18653633-.0520525.28089844-.0264375.10177734-.036895.16875-.0668575.27322266-.006815.09041015-.0231475.17484375-.043475.26466796" stroke="#000" stroke-width=".1"/><path d="m5.40827287 4.03009766.0076375-.01476563c-.0240875.04628906-.0052875.01992188-.050995-.08291015-.04846875-.05320313-.08242625-.31201172-.00799-.45503907.0285525-.07289062.076375-.1828125.11233-.25195312.0102225-.01962891.03918625-.03914063.0494675-.05888672m-3.15922258-.73371094-.0076375.01476563-.03084375.05917968c-.03995.07675782-.093765.14660157-.130425.21427735-.03848125.0740039-.0981125.13710937-.13659375.21117187-.04946751.06925782-.09282501.16113282-.14417251.23261719-.04799875.08513672-.1014025.14578125-.14834375.23595703-.0405375.0713086-.073085.10429688-.1150325.1847461l.11515-.1847461c-.040655.0713086-.0732025.10429688-.11515.1847461m-.83560127-2.59417969c.00746125.01388672.03619.11044922.0423.17214844-.00957625.06416015-.019975.29496093-.04318125.37230468-.01750751.08613282-.03231251.1734375-.04130126.26039063-.02256.09416015-.03055.15621094-.05622375.25277344-.003525.08425781-.01674375.16248046-.03366375.245625m1.98998005 1.41925781c-.10005125-.1050586-.15891875-.0666211-.22325-.07148438-.07108751.01271485-.20069001.07207032-.33211376.20390625-.04788125.05214844-.08824251.09058594-.15181001.14683594-.02849375.04429688-.0520525.06111328-.0835425.08824219m8.30885497-3.90919922-.0082435.01476562c.0259987-.04640625.0071021-.02009765.0307546.09.0310716.0759375.0348763.12873047.0692454.20232422m-1.64759255.10335938c-.00517.00996093-.0182125 1.0836914.0264375 1.22214844.0132775.08865234.03730625.16289062.0497025.26876953.0001175.06386718.01509875.11730468.01968125.17929687.036425.06855469.04418.13740235.08148625.19253906.0182125.07582032.07913626.07886719.11180126.14958985.04559.04904297.1204375.13535156.16538125.17419922m-1.20273003.75357422c-.03307625-.01125-.1180875-.07851563-.19076125-.1144336-.08195626-.04611328-.28393876-.28652344-.29357376-.45585937" stroke="#000" stroke-width=".1"/><path d="m8.6884617 1.99835937c-.002585.00498047-.1122125.11267579-.29181126.29460938-.2297125.21199219-.85434252.57673828-.92954252.60609375-.07191.03251953-.1617975.11074219-.23282626.12169922-.0816625.03251953-.16303125.04523437-.2402875.06357422-.09429375.01992187-.17419376.03691406-.24745501.04101562-.21954875.09521485-1.37686503.058125-1.43655503.04511719-.0673614-.00080209-.13466397-.00428141-.20174751-.01042969-.05499.0131836-.1202025.00761719-.19463875.01195313-.08988751-.00720703-.14158751.00996094-.21719876.01916015-.05963125.03134766-.15886.06386719-.22601125.10839844-.09200251.03714844-.14781501.08771485-.21126501.11619141-.06609375.054375-.96655502.5784375-1.01008877.60175781-.09447001.04160156-.43381002.14208984-.51876252-.09585937-.021855-.09357422-.06503625-.19007813-.06768-.26173829-.02731875-.08572265-.01175-.17730468-.00734375-.25722656.0788425-.40546875.20932626-.56501953.24528126-.63416015l.03854-.07400391m8.36817394-1.49115235-.0076375.01482422c.0207388-.04001953.011045-.01904297-.0457075.0515625-.0579862.04664063-.1294262.12052735-.182125.16875-.0529925.0525-.1039875.12667969-.1517512.14677735-.0478225.06257812-.1082763.08232422-.1737825.11671875-.0884776.03298828-.1494013.06152343-.2259526.10839843-.09776.05185547-.158625.10136719-.2491.15292969-.0558125.07107422-.1126825.11525391-.1600937.19892578-.047.07757813-.0938238.14414063-.13806252.22910157l-.10792375.20724609.10792375-.20724609-.10792375.20724609m.69031247 4.28449219.0154513-.02964844c-.0284938.05478516-.0185063.04042969.008225-.05203125.0002937-.11085937.0266725-.24492187.0277887-.34277344.0167438-.10347656.0337225-.21533203.03478-.32015625-.0062862-.12269531-.00611-.23261718-.0244987-.35097656-.00141-.10880859-.0141-.22171875-.01739-.32841797-.0020563-.10564453-.0099875-.19628906-.0329-.29882812-.0021738-.07675782-.0069325-.18222657-.0256738-.27632813.0099875-.07423828-.0111625-.1425-.0269075-.20185547-.0287875-.11425781-.03995-.18105468-.0702062-.29941406-.0182125-.06351562-.0361313-.14460937-.0635675-.23964844-.0099875-.09005859-.05828-.20701172-.0779025-.28464843-.0268488-.05707032-.0539325-.13441407-.0643313-.20232422-.0280825-.06269532-.06815-.13916016-.0790187-.2100586-.02961-.05414062-.0611-.13828125-.0938825-.21785156-.0282-.06539062-.0489975-.14589844-.07901877-.21-.03037375-.08085937-.06738625-.15-.086245-.23261719-.02896375-.02789062-.03554375-.05859375-.0511125-.08273437" stroke="#000" stroke-width=".1"/><path d="m10.3549642.64472656c-.1006975.2296875-.36013747.56507813-.36395622.57246094l-.2468675.49230469c-.10868751.26941406-.0393625.37734375.00804875.45509765.09828875.17296875.11556125.26648438.18829375.39814453.02743625.16447266-.26508001.21972657-.26895751.22716797-.60900251.21070313-.91785127-.37207031-.92120002-.40195312-.0826025-.30574219-.0717925-.35654297.114915-.41953125.21385001-.04904297.29986001-.05144531.40578626-.12814453.20045501-.14982422.34192501-.60269532.34586126-.61013672.00381875-.00738281.03008-.25681641.03008-.25681641.0156275-.12046875-.04012625-.23074218.02144375-.42117187.08007626-.18398438.12819251-.23425781.31783751-.24878906.24716127-.02226563.43897997.15210937.36871497.34130859z" fill="#ffe606" stroke="#000" stroke-width=".1"/><path d="m9.55578797 6.57324219c-.0920025-.08332031 1.73065753.65859375 1.98140253.66708984.342865-.12503906 1.7558026-1.31742187 1.7558026-1.31742187.0139237.11677734.0640375.41970703.2005725.4836914-.54614.44197266-1.0422251.8671875-1.5884238 1.30898438.0389512.70048828-.0893 1.44257812.26743 2.22644531 0 0-.42629.00820313-.42629 0-.376235-.37523437-.5100675-2.18460937-.5100675-2.18460937-.5991326-.26689454-1.1983826-.52535157-1.79751508-.7921875.0863625-.05566407.15604-.22792969.11703-.39199219z" fill="#ffef00" fill-opacity=".987" stroke="#000" stroke-width=".1"/><path d="m11.290088 8.42773437c.02914-.02109375-.328765.16582032-.42065.21269532-1.65592754.88101562-2.50803756 2.16246091-2.56114756 2.21085941-.02861125.0546093-.08131.1273828-.129485.19875-.038775.0597656-.0945875.1216406-.13124751.1821093-.05076.0700782-.15745.2084766-.2156125.2698828-.007285.0396094.0276125-.0134765.016215.0128907m4.57345257-4.13425784c-.0321362-.01623047.2982738.21574219.3821688.27580078 1.542775 1.06564454 3.0752101 1.23527344 3.1426551 1.26017579.0616875.00041015.1507525.01382812.2363512.02402343.0710875.00703125.1517513.028125.2224863.03298828.0856575.01289063.2579125.04417969.3392813.06779297.03854-.01171875-.0246751-.01828125.0039362-.02027343" stroke="#000" stroke-width=".1"/></g></g></g></g></svg>