<svg height="48" viewBox="0 0 48 48" width="48" xmlns="http://www.w3.org/2000/svg" xmlns:xlink="http://www.w3.org/1999/xlink"><defs><path id="a" d="m8 9h32c2.209139 0 4 1.790861 4 4v22c0 2.209139-1.790861 4-4 4h-32c-2.209139 0-4-1.790861-4-4v-22c0-2.209139 1.790861-4 4-4z"/><mask id="b" fill="#fff"><use fill="#fff" fill-rule="evenodd" xlink:href="#a"/></mask></defs><g fill="none" fill-rule="evenodd"><path d="m0 0h48v48h-48z"/><use fill="#d8d8d8" xlink:href="#a"/><g mask="url(#b)"><g fill-rule="nonzero" transform="translate(4 9)"><path d="m0 0h40v10h-40z" fill="#f93"/><path d="m0 10h40v10h-40z" fill="#fff"/><path d="m0 20h40v10h-40z" fill="#128807"/><g fill="none" transform="translate(8.4 .6)"><circle cx="11.6" cy="14.4" fill="#008" r="4"/><circle cx="11.6" cy="14.4" fill="#fff" r="3.5"/><g fill="#008"><circle cx="11.6" cy="14.4" r="1"/><g transform="translate(.6 7)"><g transform="translate(10.8 7.6)"><circle cx="3.953048" cy=".619028" r="1" transform="matrix(.99144486 .13052619 -.13052619 .99144486 .114618 -.51068)"/><path d="m.33 3.3.25-2.1-.25-1-.25 1z"/></g><g transform="matrix(.96592583 .25881905 -.25881905 .96592583 10.755052 7.541422)"><circle cx="3.953048" cy=".619028" r="1" transform="matrix(.99144486 .13052619 -.13052619 .99144486 .114618 -.51068)"/><path d="m.33 3.3.25-2.1-.25-1-.25 1z"/></g><g transform="matrix(.8660254 .5 -.5 .8660254 10.7267948 7.47320508)"><circle cx="3.953048" cy=".619028" r="1" transform="matrix(.99144486 .13052619 -.13052619 .99144486 .114618 -.51068)"/><path d="m.33 3.3.25-2.1-.25-1-.25 1z"/></g><g transform="matrix(.7071067783 .7071067863 -.7071067863 .7071067783 10.71715769032 7.40000104412)"><circle cx="3.953048" cy=".619028" r="1" transform="matrix(.99144486 .13052619 -.13052619 .99144486 .114618 -.51068)"/><path d="m.33 3.3.25-2.1-.25-1-.25 1z"/></g><g transform="matrix(.5 .8660254 -.8660254 .5 10.7267950512 7.32679487702)"><circle cx="3.953048" cy=".619028" r="1" transform="matrix(.99144486 .13052619 -.13052619 .99144486 .114618 -.51068)"/><path d="m.33 3.3.25-2.1-.25-1-.25 1z"/></g><g transform="matrix(.2588190437 .9659258283 -.9659258283 .2588190437 10.75505108708 7.25857976734)"><circle cx="3.953048" cy=".619028" r="1" transform="matrix(.99144486 .13052619 -.13052619 .99144486 .114618 -.51068)"/><path d="m.33 3.3.25-2.1-.25-1-.25 1z"/></g><g transform="matrix(0 .99999999345 -.99999999345 0 10.80000007251 7.19999985441)"><circle cx="3.953048" cy=".619028" r="1" transform="matrix(.99144486 .13052619 -.13052619 .99144486 .114618 -.51068)"/><path d="m.33 3.3.25-2.1-.25-1-.25 1z"/></g><g transform="matrix(-.2588190483 .96592582367 -.96592582367 -.2588190483 10.85857807213 7.1550518547)"><circle cx="3.953048" cy=".619028" r="1" transform="matrix(.99144486 .13052619 -.13052619 .99144486 .114618 -.51068)"/><path d="m.33 3.3.25-2.1-.25-1-.25 1z"/></g></g><g transform="matrix(-.5 .8660254 -.8660254 -.5 23.508588 8.57372)"><g transform="translate(10.8 7.6)"><circle cx="3.953048" cy=".619028" r="1" transform="matrix(.99144486 .13052619 -.13052619 .99144486 .114618 -.51068)"/><path d="m.33 3.3.25-2.1-.25-1-.25 1z"/></g><g transform="matrix(.96592583 .25881905 -.25881905 .96592583 10.755052 7.541422)"><circle cx="3.953048" cy=".619028" r="1" transform="matrix(.99144486 .13052619 -.13052619 .99144486 .114618 -.51068)"/><path d="m.33 3.3.25-2.1-.25-1-.25 1z"/></g><g transform="matrix(.8660254 .5 -.5 .8660254 10.7267948 7.47320508)"><circle cx="3.953048" cy=".619028" r="1" transform="matrix(.99144486 .13052619 -.13052619 .99144486 .114618 -.51068)"/><path d="m.33 3.3.25-2.1-.25-1-.25 1z"/></g><g transform="matrix(.7071067783 .7071067863 -.7071067863 .7071067783 10.71715769032 7.40000104412)"><circle cx="3.953048" cy=".619028" r="1" transform="matrix(.99144486 .13052619 -.13052619 .99144486 .114618 -.51068)"/><path d="m.33 3.3.25-2.1-.25-1-.25 1z"/></g><g transform="matrix(.5 .8660254 -.8660254 .5 10.7267950512 7.32679487702)"><circle cx="3.953048" cy=".619028" r="1" transform="matrix(.99144486 .13052619 -.13052619 .99144486 .114618 -.51068)"/><path d="m.33 3.3.25-2.1-.25-1-.25 1z"/></g><g transform="matrix(.2588190437 .9659258283 -.9659258283 .2588190437 10.75505108708 7.25857976734)"><circle cx="3.953048" cy=".619028" r="1" transform="matrix(.99144486 .13052619 -.13052619 .99144486 .114618 -.51068)"/><path d="m.33 3.3.25-2.1-.25-1-.25 1z"/></g><g transform="matrix(0 .99999999345 -.99999999345 0 10.80000007251 7.19999985441)"><circle cx="3.953048" cy=".619028" r="1" transform="matrix(.99144486 .13052619 -.13052619 .99144486 .114618 -.51068)"/><path d="m.33 3.3.25-2.1-.25-1-.25 1z"/></g><g transform="matrix(-.2588190483 .96592582367 -.96592582367 -.2588190483 10.85857807213 7.1550518547)"><circle cx="3.953048" cy=".619028" r="1" transform="matrix(.99144486 .13052619 -.13052619 .99144486 .114618 -.51068)"/><path d="m.33 3.3.25-2.1-.25-1-.25 1z"/></g></g><g transform="matrix(-.5 -.8660254 .8660254 -.5 10.691412 27.62628)"><g transform="translate(10.8 7.6)"><circle cx="3.953048" cy=".619028" r="1" transform="matrix(.99144486 .13052619 -.13052619 .99144486 .114618 -.51068)"/><path d="m.33 3.3.25-2.1-.25-1-.25 1z"/></g><g transform="matrix(.96592583 .25881905 -.25881905 .96592583 10.755052 7.541422)"><circle cx="3.953048" cy=".619028" r="1" transform="matrix(.99144486 .13052619 -.13052619 .99144486 .114618 -.51068)"/><path d="m.33 3.3.25-2.1-.25-1-.25 1z"/></g><g transform="matrix(.8660254 .5 -.5 .8660254 10.7267948 7.47320508)"><circle cx="3.953048" cy=".619028" r="1" transform="matrix(.99144486 .13052619 -.13052619 .99144486 .114618 -.51068)"/><path d="m.33 3.3.25-2.1-.25-1-.25 1z"/></g><g transform="matrix(.7071067783 .7071067863 -.7071067863 .7071067783 10.71715769032 7.40000104412)"><circle cx="3.953048" cy=".619028" r="1" transform="matrix(.99144486 .13052619 -.13052619 .99144486 .114618 -.51068)"/><path d="m.33 3.3.25-2.1-.25-1-.25 1z"/></g><g transform="matrix(.5 .8660254 -.8660254 .5 10.7267950512 7.32679487702)"><circle cx="3.953048" cy=".619028" r="1" transform="matrix(.99144486 .13052619 -.13052619 .99144486 .114618 -.51068)"/><path d="m.33 3.3.25-2.1-.25-1-.25 1z"/></g><g transform="matrix(.2588190437 .9659258283 -.9659258283 .2588190437 10.75505108708 7.25857976734)"><circle cx="3.953048" cy=".619028" r="1" transform="matrix(.99144486 .13052619 -.13052619 .99144486 .114618 -.51068)"/><path d="m.33 3.3.25-2.1-.25-1-.25 1z"/></g><g transform="matrix(0 .99999999345 -.99999999345 0 10.80000007251 7.19999985441)"><circle cx="3.953048" cy=".619028" r="1" transform="matrix(.99144486 .13052619 -.13052619 .99144486 .114618 -.51068)"/><path d="m.33 3.3.25-2.1-.25-1-.25 1z"/></g><g transform="matrix(-.2588190483 .96592582367 -.96592582367 -.2588190483 10.85857807213 7.1550518547)"><circle cx="3.953048" cy=".619028" r="1" transform="matrix(.99144486 .13052619 -.13052619 .99144486 .114618 -.51068)"/><path d="m.33 3.3.25-2.1-.25-1-.25 1z"/></g></g></g></g></g></g></g></svg>