<svg height="48" viewBox="0 0 48 48" width="48" xmlns="http://www.w3.org/2000/svg" xmlns:xlink="http://www.w3.org/1999/xlink"><defs><path id="a" d="m8 9h32c2.209139 0 4 1.790861 4 4v22c0 2.209139-1.790861 4-4 4h-32c-2.209139 0-4-1.790861-4-4v-22c0-2.209139 1.790861-4 4-4z"/><mask id="b" fill="#fff"><use fill="#fff" fill-rule="evenodd" xlink:href="#a"/></mask><mask id="c" fill="#fff"><path d="m0 0h40v30h-40z" fill="#fff" fill-rule="evenodd"/></mask></defs><g fill="none" fill-rule="evenodd"><path d="m0 0h48v48h-48z"/><use fill="#d8d8d8" xlink:href="#a"/><g mask="url(#b)"><g fill="none" fill-rule="nonzero" mask="url(#c)" transform="translate(4 9)"><path d="m0 0h40v30h-40z" fill="#003897"/><path d="m0 11.666875h11.666875v-11.666875h6.666875v11.666875h23.333125v6.666875h-23.333125v11.666875h-6.666875v-11.666875h-11.666875z" fill="#fff"/><path d="m0 13.333125h13.333125v-13.333125h3.3333125v13.333125h25v3.3333125h-25v13.333125h-3.3333125v-13.333125h-13.333125z" fill="#d72828"/></g></g></g></svg>