<svg height="48" viewBox="0 0 48 48" width="48" xmlns="http://www.w3.org/2000/svg" xmlns:xlink="http://www.w3.org/1999/xlink"><defs><path id="a" d="m8 9h32c2.209139 0 4 1.790861 4 4v22c0 2.209139-1.790861 4-4 4h-32c-2.209139 0-4-1.790861-4-4v-22c0-2.209139 1.790861-4 4-4z"/><mask id="b" fill="#fff"><use fill="#fff" fill-rule="evenodd" xlink:href="#a"/></mask><mask id="c" fill="#fff"><path d="m0 0h40v30h-40z" fill="#fff" fill-rule="evenodd"/></mask></defs><g fill="none" fill-rule="evenodd"><path d="m0 0h48v48h-48z"/><use fill="#d8d8d8" xlink:href="#a"/><g mask="url(#b)"><g transform="translate(4 9)"><path d="m0 0h40v30h-40z" fill="#fff" fill-rule="nonzero" mask="url(#c)"/><g fill="none" mask="url(#c)"><path d="m4 .5c-1.93299662 0-3.5 1.56700338-3.5 3.5v22c0 1.9329966 1.56700338 3.5 3.5 3.5h32c1.9329966 0 3.5-1.5670034 3.5-3.5v-22c0-1.93299662-1.5670034-3.5-3.5-3.5z" stroke="#dedede"/></g><g fill-rule="evenodd"><path d="m0 0v1.927l17.4168 13.073-17.4168 13.073v1.927h2.6248l17.376-13.073 17.3736 13.073h2.6248v-1.927l-17.4152-13.073 17.416-13.073v-1.927h-2.624l-17.3768 13.073-17.3744-13.073z" fill="#df112d" mask="url(#c)"/><g fill="none" mask="url(#c)"><g transform="translate(17 1.6)"><path d="m4.83471945 2.93702335c.48194487 1.95129643.21760819 4.3613262-1.95908452 5.69843307-2.17684541-1.33710687-2.44118209-3.74713664-1.95908451-5.69843307.51309719-.46652142 2.84524613-.75406964 3.91816903 0z" fill="#e8112d" fill-rule="nonzero" stroke="#000" stroke-width=".1"/><path d="m2.87242808 2.5451759c.79804939 0 1.54127679.21119447 1.97939461.48499902.08597432-.67267654.39108391-1.34550578.75101549-1.85417446-.37550775-.00763538-.54379141.19180062-.5476091.39902469-.09391511-.26601646-.46163477-.2504403-.57509644-.10552088.41078317.27762224.09391511.77056205-.27762224.66885885-.17454467-.04779745-.26678-.16950532-.29945941-.3461879.10280718-.00646758.18425644-.08930098.18899085-.19220254.00473441-.10290157-.06876467-.192864-.17054364-.2087444-.10177897-.01588041-.19919063.0474151-.22602923.14686778-.02683859.09945268.02550478.20316153.12145499.2406409-.11743207.19180062-.32801571.24921864-.47889072.20707137-.19561831-.05482199-.27777494-.23089374-.27777494-.38726622 0-.40681278.39108391-.46942286.50851597-.3990247-.00778808-.27380454-.43811781-.4927871-.57112604-.26601646.14858439-.26601647.14079631-.6413715-.12522015-.8918118-.26586376.2504403-.27380455.62579533-.12506745.8918118-.13300823-.22677064-.56333796-.00778808-.57112605.26601646.11727936-.07039816.50851598-.00778808.50851598.3990247 0 .15637248-.08215664.33244423-.27777494.38726622-.15087501.04214727-.36145866-.01527075-.47904343-.20707137.03296159-.01247979.06204098-.03344646.08429454-.06077759.05865595-.07227939.0602871-.1752946.00394893-.24939481-.05633817-.07410022-.1560387-.10007326-.24137014-.06287947-.08533143.03719379-.13416963.12791107-.11823491.21962212.01593471.09171105.09251092.16063767.18538726.16686801-.03267941.17668258-.12506745.29839045-.29945941.3461879-.37153735.1017032-.68840541-.39123661-.27777494-.66885885-.11330897-.14476671-.48102863-.16034287-.57494374.10552088-.0039704-.20722407-.17210135-.40681278-.5476091-.39902469.35977887.50851597.66488846 1.18134522.75101549 1.85417446.43811782-.27380455 1.18134522-.48499902 1.97924191-.48499902z" fill="#f9dd16" fill-rule="nonzero" stroke="#000" stroke-width=".1"/><g fill="none" fill-rule="evenodd"><g transform="translate(.763538 2.901443)"><g fill="#f9dd16" fill-rule="nonzero" transform="translate(.152708)"><path d="m3.61153238 1.5576165c-.04810287.01145306-.04810287.07345231-.0732996.07345231.12506744-.00351227.18584502-.03787146.22371648-.10093966-.02748735.02519674-.00351227.0732996-.01267472.08490537.09177721-.03206858.13545155-.11025482.10338298-.1629389.02061551.02977796.08032414.04581225.09864904.04810286-.06428985-.05039347-.0183249-.16522951-.12170787-.22493815.03451189-.00229061.10109236.0366498.11941726.08261476-.01603429-.10323027-.03222128-.16981074-.11712665-.22722876.00916245.01038411.05741802.01954656.07803353 0-.0549747-.03435919-.07116169-.0916245-.06642776-.12842701.00641371-.05146242-.02764006-.06199924-.09192992-.04581225-.05787614.01435451-.19042625.02290613-.26845978.02290613-.16064829 0-.30068107 0-.43384201-.09192992.19974141.08261476.45445752-.0917772.45445752-.23639121 0-.16064829-.1974508-.29151861-.59678091-.20432263-.39933011.08734869-.88585621.05054618-.88585621-.08246205 0-.13316094.34878393-.15163855.52790983-.12399849.17897319.02748735.3074002.04581225.64259316-.07345231-.08261476.03206858-.34893664.04123103-.5599784-.0183249-.21119447-.05970863-.72994185-.05970863-.73452308.22020422-.00458122.28006555.55234303.2545634 1.03291353.18370712.27991285-.04123103.42681747-.01374368.42681747.07788082 0 .08734869-.25700673.12399849-.45445752.10109237-.19729809-.02290613-.39933012-.0183249-.63343071.05039347-.1954656.05757073-.33045903 0-.54623473.03680251-.10460464.01786678-.35809909 0-.48316653-.20646054-.07696458.0549747-.30877457.17042157-.34771498.28281429-.05512741.10323027-.0183249.20600242.0549747.30694207.09254075.12720535-.04581225.10796421-.14446129.11254543-.13529885.00626101-.31640994-.0143545-.41093589-.12170788-.08368371-.09498406-.19516018-.1711851-.28418865-.10078695-.04581225.03634439-.00183249.08398913.03435918.07070358.03588627-.01328556.07833895.01328555.11666853.03008337-.0612357-.02626569-.12857971-.00580288-.1548454.01756137-.03619168.03252669.00778808.09452594.05161513.07253606.03435919-.01710324.10491006-.0285563.15072231.01343826-.04962994-.00962057-.10124508-.00763538-.12598369.01908844-.02473862.02672381-.00565018.06535881.04779745.06291549.08582161-.00381769.10781149.05650177.19378581.04397976-.05283679.00687183-.08276746.03451189-.09651114.0549747.08032415-.0366498.16904721.06245736.27319372.03909312-.04062019.01679782-.10613171.05665448-.10552088.08734869.06184654-.0711617.47736364.0549747.48652609-.10109237.01145307.03206858.00916245.08032415-.02290612.12170788.05314221-.03206858.22493814-.04367435.27762223-.16752013.00458123.0366498-.00229061.08490537-.03435919.09620573.05512741.01817219.12766347-.02290613.20187932-.13285553.02947255-.04382705.03649709-.07284148.03145774-.10567359.07360502.00274874.12689994-.01572887.18431796-.06428986.05970863-.05039347.12399849.04123103.22493814-.02290612.10109237-.06428986.18828835-.00916245.24326305-.04123103.05512741-.03222128.13087033.01130036.19057896-.02534944s.15224938.01801948.25105113-.06001405c.15545624.05680719.33687275.16232807.7818624.08062956.25502153-.0468812.33504026.03909312.33504026.15606707 0 .08032414-.04703391.08734869-.08261476.08948659-.14186527.00870433-.20279556-.0529895-.25883921-.03329023-.03756605.01343826-.06047217.07452126-.0061083.09544218-.04489601.02290613-.03909312.06596964-.016187.08169852.02290613.01572887.08200393.00152707.122166-.01725595-.05161513.02336425-.10506276.06535881-.07452126.10933857.01847761.0265711.06520611.04917181.10888045-.00763538.04382705-.05726531.12399849-.10506276.17500279-.09742738zm-2.82661583-1.21188672c-.12857972-.05283679-.17194864-.05421116-.14232339.05039348.01267472.044896.04352164.1079642.07452126.13667321.00122166-.04352164.01725595-.16416056.06780213-.18706669z"/><path d="m.98649045.27517892c.24326305 0 .27365184.11422521.27243018.2565486-.00106895.15377645-.08368371.10078695-.13071762.29823774-.0183249.07727-.07986602.08154581-.14171256.08154581-.06199924 0-.12338766-.00427581-.14186527-.08154581-.0468812-.19729809-.12964866-.14446129-.13071762-.29823774-.00122166-.14232339.02916714-.2565486.27258289-.2565486z"/><path d="m.3603897.83912771c-.06199924-.0366498-.10200861-.01130035-.12720535-.00442851.08032415.02061551.083531.12369307.26723813.17194864-.04138373-.01145306-.06428986.01145306-.10338298-.00916245.07574292.05955593.16064829.12873242.33977419.13087033.0998707.00106895.03084691.05283679-.0345119.02290612.06780213.07009274.20203203.01267472.2869374.14003278.01603428-.09864904-.15835768-.25471611-.07803354-.36726154-.24769156-.01053681-.26800166-.14782086-.41078317-.25700672-.11621041-.08887576-.12659452-.1791259-.17790424-.3481731-.02336425-.07650646-.11300355-.1243039-.16263349-.10613171-.04336893.01588158-.05925051.05344762-.02198988.08169851.03726063.02809818.08490537.03191587.09513678.10323027-.04840828-.05802885-.12094434-.07894978-.15576166-.0427581-.02122634.02214259-.01267472.07360502.03298483.07833895.07436855.00763537.02092092.08017143.10552088.15118042-.07497938-.08429454-.13988007-.09192991-.18004214-.04611766-.02397508.02748735 0 .07635375.05161513.07100899.07467397-.00763538.16125912.18172192.27304101.22982478zm1.99588703.70917363c-.03909312.00687184-.02748735.0711617-.08032415.07574292.1262891 0 .19042625-.02977796.25013489-.07803353-.02748735.01603429-.03894042.05741802-.04123103.08032415.06658047-.05741802.22493815-.06199925.30755291-.04581225.08261475.01618699.09635843-.02290613.12613639-.07574292.02993067-.0528368-.01145306-.08276747-.05268409-.12399849-.04138373-.04123103-.05054618-.09864905-.04138373-.19516019-.22035692-.29365652-.61510581-.15148584-.61968703-.02290612.14232339.16522951.16064829.14690461.28006555.16981074.11926456.02290612.19241145.02290612.11239272.08948659-.02748735.02290613-.14232339.0122166-.23180998.016187-.20019954.00870432-.29182404-.138353-.35092184-.06199925-.04871369.06276278.00152708.09055555.10078695.08704328-.06871837.00061083-.15988475-.00305415-.14430859.06093029.02626569.10781149.12934326-.02000468.16950533.0244332-.03435919-.00824621-.08780681.01282743-.08979201.04520142-.00183249.0325267.07635375.07452126.16232807.0061083.04123283-.03165361.0912935-.04969253.14323964-.05161514z"/></g><path d="m1.76377162.64228775c-.07161981-.0262657-.13728404-.04229998-.22127316-.02489133m-.85836886-.00916245c-.05894509.12674723-.02321154.1892046-.01450721.24799698m-.61312061-.84829016c.04046748.0203101.0632209-.03695522.12262412.02382237-.0163397-.01771407-.0366498.04703391-.08215664.0039704m.28938072-.02779277c-.04046749.0203101-.06322091-.03695522-.12262413.02382237.01633971-.01771407.0366498.04703391.08215664.0039704" stroke="#000" stroke-width=".1" transform="translate(.916245 .458122)"/><g fill-rule="nonzero"><path d="m1.07964202.68550397-.1569833-.04382705m.1569833.05207325-.1753082-.00152707m.17683528.01053682-.14950064.04000936m.26555834-.05726531.15698331-.04382705m-.15698331.05207325.17530821-.00152707m-.17683528.01053682.14950064.04000936" fill="#000"/><path d="m.32526698.21592841c-.04565955-.05680719-.16003746-.00885704-.16232808.06169383.038635-.04581225.1017032.02015739.13606239.006261.02382237-.00962057.04474329-.044896.02626569-.06795483zm-.05802885.1345353c-.04565955-.05680719-.15988476-.00885703-.16217537.06169383.03848229-.04581225.10155049.02015739.13606238.00626101.02382237-.00946786.0447433-.0447433.02611299-.06795484zm-.0305415.18080568c-.05176785-.05130972-.15988476.00916245-.15423458.0794079.03329024-.04962993.10323027.00870433.13590968-.00885703.02260071-.0122166.03939853-.04962994.0183249-.07055087zm.05497469.56028382c-.05741801-.04504871-.15774684.02748735-.14415587.09681656.02733464-.05329492.10353568-.00335957.13392447-.02458591.02107364-.01481263.03359565-.05390575.0102314-.07223065zm-.00305414.12262412c-.06841296-.02519673-.14171257.07482668-.10735338.1363678.00946787-.0590978.09742739-.03512272.11987539-.06459527.01557616-.02046281.01527075-.06154112-.01252201-.07177253zm.08704327.0916245c-.06841296-.02519673-.14171256.07482668-.10750608.1363678.00962057-.0590978.09758009-.03512272.1200281-.06459527.01557616-.02046281.01527075-.06154112-.01252202-.07177253zm1.79278605.17759883c-.06841296-.02519674-.14171256.07482667-.10735337.13636779.00962057-.0590978.09742738-.03512272.11987538-.06459527.01557617-.0204628.01527075-.06154112-.01252201-.07177252zm.09315157.08307288c-.07085628-.01725595-.13224469.09040284-.09116637.14782086.00274873-.05986135.09284616-.04596496.11178189-.07788083.01313284-.02214259.0082462-.06291549-.02061552-.06994003zm-.06566422-.20096307c-.06322091-.0364971-.15240209.04962993-.12903784.1160577.01954656-.05650178.10200861-.01786678.12919055-.04321623.01878302-.01756136.02550215-.05802885-.00015271-.07284147zm1.27510762.14369775c-.07085628-.01725594-.13224469.09040284-.09116637.14782086.00290144-.05986134.09299886-.04596496.11178189-.07788082.01313284-.02214259.0082462-.06291549-.02061552-.06994004zm.00305416-.11254542c-.06428986-.03435919-.15041689.05482199-.12491474.12063892.01756136-.05726531.10139778-.02153176.12766347-.04779745.01817219-.0183249.02351696-.05879238-.00274873-.07284147zm.0488664.21317967c-.07146711-.0142018-.1281216.09620572-.08459996.15163854.00030542-.05986134.09086096-.04993535.10826962-.08276746.0122166-.02275342.00549747-.0630682-.02366966-.06887108zm-2.37918285-.79362088c.044896 0 .06306819.01313284.06306819.09422053 0 .17179593-.0019852.24570636-.05726531.24570636-.05543282 0-.05161513-.07024545-.05161513-.19638184 0-.06566423 0-.09864905-.01328556-.09315158 0-.04306351.01908844-.05039347.05909781-.05039347z" fill="#0051ba"/></g></g><g transform="translate(.916245 4.657579)"><g fill="#f9dd16" fill-rule="nonzero" transform="translate(.137437)"><path d="m3.25037914 1.40185485c-.04329258.01030776-.04329258.06610708-.06596964.06610708.1125607-.00316105.16726052-.03408432.20134484-.0908457-.02473862.02267707-.00316105.06596964-.01140725.07641484.08259948-.02886172.12190639-.09922934.09304468-.14664501.01855396.02680016.07229173.04123102.08878414.04329257-.05786088-.04535413-.01649241-.14870656-.10953709-.20244433.0310607-.00206155.09098313.03298482.10747554.07435328-.01443086-.09290724-.02899916-.15282967-.10541399-.20450588.0082462.0093457.05167622.0175919.07023018 0-.04947723-.03092327-.06404553-.08246205-.05978499-.11558431.00577234-.04631618-.02487605-.05579932-.08273692-.04123102-.05208853.01291905-.17138363.02061551-.24161381.02061551-.14458346 0-.27061296 0-.39045781-.08273693.17976727.07435329.40901177-.08259948.40901177-.21275208 0-.14458347-.17770572-.26236676-.53710282-.18389038-.3593971.07861383-.79727058.04549157-.79727058-.07421584 0-.11984485.31390553-.13647469.47511884-.11159864.16107587.02473861.27666018.04123102.57833385-.06610708-.07435329.02886172-.31404298.03710792-.50398057-.01649241-.19007502-.05373777-.65694766-.05373777-.66107076.19818379-.00412311.252059.49710872.22910707.92962217.16533642.25192157-.03710793.38413572-.01236931.38413572.07009274 0 .07861382-.23130605.11159864-.40901177.09098313-.17756828-.02061552-.3593971-.01649241-.57008764.04535412-.17591904.05181366-.29741313 0-.49161125.03312226-.09414418.0160801-.32228918 0-.43484988-.18581449-.06926812.04947723-.27789711.15337942-.31294348.25453287-.04961467.09290724-.01649241.18540217.04947723.27624786.08328667.11448482-.04123102.09716778-.13001516.10129089-.12176897.0056349-.28476895-.01291906-.3698423-.10953709-.07531534-.08548566-.17564417-.1540666-.25576979-.09070826-.04123103.03270995-.00164924.07559021.03092327.06363322.03229763-.011957.07050505.01195699.10500167.02707504-.05511213-.02363912-.11572174-.0052226-.13936086.01580522-.03257251.02927403.00700927.08507335.04645362.06528246.03092327-.01539292.09441905-.02570067.13565007.01209443-.04466694-.00865851-.09112056-.00687183-.11338532.0171796-.02226475.02405143-.00508515.05882293.04301771.05662394.07723945-.00343592.09703034.0508516.17440723.03958178-.04755311.00618466-.07449071.03106071-.08686002.04947723.07229173-.03298482.15214248.05621163.24587434.03518381-.03655817.01511804-.09551854.05098903-.09496879.07861382.05566188-.06404552.42962728.04947723.43787348-.09098313.01030776.02886172.00824621.07229173-.02061551.10953709.04782799-.02886171.20244433-.03930691.24986001-.15076811.00412311.03298482-.00206155.07641483-.03092327.08658515.04961467.01635497.11489713-.02061551.18169139-.11956997.02652529-.03944435.03284738-.06555733.02831197-.09510623.06624451.00247386.11420994-.01415599.16588616-.05786087.05373776-.04535413.11159864.03710792.20244433-.02061552.09098313-.05786087.16945951-.0082462.21893674-.03710792.04961467-.02899915.1177833.01017032.17152107-.0228145.05373776-.03298482.13702443.01621754.22594601-.05401264.13991061.05112647.30318547.14609526.70367616.0725666.22951937-.04219308.30153623.03518381.30153623.14046036 0 .07229173-.04233052.07861382-.07435328.08053794-.12767874.00783389-.182516-.04769056-.23295529-.02996122-.03380944.01209444-.05442495.06706914-.00549747.08589797-.04040641.02061551-.03518381.05937268-.0145683.07352866.02061552.01415599.07380354.00137437.1099494-.01553035-.04645362.02102782-.09455648.05882293-.06706913.09840471.01662985.023914.05868549.04425464.0979924-.00687183.03944435-.05153878.11159864-.09455649.15750252-.08768465zm-2.54395424-1.09069805c-.11572175-.04755311-.15475379-.04879004-.12809106.04535413.01140725.0404064.03916948.09716778.06706914.12300589.00109949-.03916947.01553035-.1477445.06102192-.16836002z"/><path d="m.88784141.24766102c.21893674 0 .24628665.10280269.24518716.23089374-.00096206.13839881-.07531534.09070826-.11764586.26841398-.01649241.06954299-.07187942.07339122-.1275413.07339122-.05579932 0-.1110489-.00384823-.12767875-.07339122-.04219308-.17756828-.1166838-.13001517-.11764585-.26841398-.0010995-.12809105.02625042-.23089374.2453246-.23089374z"/><path d="m.32435073.75521494c-.05579932-.03298482-.09180775-.01017032-.11448481-.00398566.07229173.01855396.0751779.11132376.24051431.15475378-.03724536-.01030776-.05786087.01030775-.09304468-.00824621.06816863.05360033.14458346.11585918.30579677.1177833.08988363.00096205.02776222.04755311-.03106071.02061551.06102192.06308347.18182882.01140725.25824366.1260295.01443086-.08878414-.14252191-.2292445-.07023018-.33053539-.22292241-.00948313-.2412015-.13303877-.36970486-.23130605-.10458937-.07998819-.11393507-.1612133-.16011381-.31335579-.02102783-.06885581-.1017032-.11187351-.14637014-.09551854-.03903204.01429343-.05332546.04810287-.01979089.07352866.03353456.02528837.07641483.02872428.08562309.09290725-.04356745-.05222597-.10884991-.0710548-.14018548-.03848229-.01910371.01992833-.01140725.06624451.02968633.07050505.0669317.00687184.01882884.07215429.0949688.13606238-.06748145-.07586508-.12589207-.08273692-.16203793-.0415059-.02157757.02473862 0 .06871838.04645362.06390809.06720657-.00687183.14513321.16354974.24573691.20684231zm1.79629832.63825627c-.03518381.00618465-.02473861.06404552-.07229173.06816863.11366019 0 .17138363-.02680017.2251214-.07023018-.02473862.01443086-.03504637.05167621-.03710792.07229173.05992242-.05167622.20244433-.05579932.27679761-.04123103.07435328.0145683.08672259-.02061551.11352276-.06816863.0269376-.04755311-.01030776-.07449071-.04741568-.11159864-.03724536-.03710792-.04549157-.08878414-.03724536-.17564416-.19832123-.26429087-.55359523-.13633726-.55771833-.02061552.12809105.14870657.14458346.13221416.252059.15282967.1073381.02061551.1731703.02061551.10115344.08053794-.02473861.02061551-.12809105.01099494-.20862898.01456829-.18017958.0078339-.26264163-.12451769-.31582965-.05579932-.04384233.05648651.00137436.08149999.09070825.07833895-.06184654.00054975-.14389628-.00274874-.12987773.05483726.02363912.09703035.11640893-.01800421.15255479.02198988-.03092326-.00742158-.07902613.01154469-.0808128.04068128-.00164925.02927403.06871837.06706913.14609526.00549747.03710955-.02848825.08216415-.04472327.12891567-.04645362z"/></g><path d="m1.58739446.57805897c-.06445783-.02363912-.12355564-.03806998-.19914585-.02240219m-.77253197-.0082462c-.05305058.1140725-.02089039.17028413-.01305649.22319728m-.55180855-.76346115c.03642074.01827909.05689881-.03325969.11036171.02144013-.01470573-.01594266-.03298482.04233052-.07394097.00357336m.26044264-.02501349c-.03642074.01827909-.05689882-.03325969-.11036171.02144013.01470573-.01594266.03298482.04233052.07394097.00357336" stroke="#000" stroke-width=".1" transform="translate(.824621 .41231)"/><g fill-rule="nonzero"><path d="m.97167782.61695357-.14128498-.03944435m.14128498.04686593-.15777739-.00137436m.15915176.00948313-.13455058.03600843m.23900251-.05153878.14128498-.03944435m-.14128498.04686593.15777739-.00137436m-.15915176.00948313.13455058.03600843" fill="#000"/><path d="m.29274028.19433557c-.04109359-.05112648-.14403372-.00797134-.14609527.05552444.0347715-.04123102.09153288.01814165.12245615.00563491.02144013-.00865852.04026896-.04040641.02363912-.06115935zm-.05222597.12108177c-.04109359-.05112647-.14389627-.00797133-.14595783.05552445.03463406-.04123103.09139544.01814165.12245615.00563491.02144013-.00852108.04026897-.04026897.02350168-.06115936zm-.02748735.16272511c-.04659106-.04617874-.14389627.00824621-.13881111.07146711.02996121-.04466694.09290724.0078339.1223187-.00797133.02034064-.01099494.03545868-.04466694.01649241-.06349578zm.04947723.50425544c-.05167622-.04054384-.14197216.02473861-.12974029.0871349.02460118-.04796543.09318212-.00302361.12053203-.02212732.01896627-.01333136.03023609-.04851517.00920826-.06500758zm-.00274873.11036171c-.06157167-.02267706-.12754131.06734401-.09661804.12273102.00852108-.05318803.08768465-.03161046.10788785-.05813575.01401855-.01841652.01374368-.05538701-.01126981-.06459527zm.07833895.08246205c-.06157167-.02267706-.12754131.06734401-.09675548.12273102.00865852-.05318803.08782209-.03161046.10802529-.05813575.01401855-.01841652.01374367-.05538701-.01126981-.06459527zm1.61350744.15983894c-.06157166-.02267706-.1275413.06734401-.09661804.12273102.00865852-.05318802.08768465-.03161046.10788785-.05813575.01401855-.01841652.01374368-.05538701-.01126981-.06459527zm.08383642.07476559c-.06377065-.01553035-.11902023.08136256-.08204974.13303878.00247386-.05387521.08356154-.04136847.1006037-.07009275.01181956-.01992833.00742158-.05662394-.01855396-.06294603zm-.05909781-.18086676c-.05689881-.03284738-.13716187.04466694-.11613405.10445193.01759191-.0508516.09180775-.0160801.11627149-.0388946.01690472-.01580523.02295194-.05222597-.00013744-.06555733zm1.14759687.12932798c-.06377065-.01553035-.11902023.08136256-.08204974.13303877.0026113-.0538752.08369898-.04136846.1006037-.07009274.01181956-.01992833.00742158-.05662394-.01855396-.06294603zm.00274873-.10129088c-.05786087-.03092327-.1353752.04933979-.11242326.10857503.01580523-.05153878.091258-.01937858.11489712-.0430177.01635498-.01649241.02116526-.05291315-.00247386-.06555733zm.04397976.1918617c-.0643204-.01278162-.11530943.08658515-.07613996.13647469.00027488-.0538752.08177487-.04494182.09744266-.07449072.01099494-.02047807.00494772-.05676137-.0213027-.06198397zm-2.14126456-.71425879c.0404064 0 .05676138.01181956.05676138.08479847 0 .15461635-.00178668.22113573-.05153879.22113573-.04988954 0-.04645362-.0632209-.04645362-.17674366 0-.0590978 0-.08878414-.01195699-.08383641 0-.03875717.01717959-.04535413.05318802-.04535413z" fill="#0051ba"/></g></g><g transform="translate(1.407963 6.261008)"><g fill="#f9dd16" fill-rule="nonzero" transform="translate(.102314)"><path d="m2.41972669 1.16821237c-.03222892.0085898-.03222892.05508924-.04911073.05508924.08379519-.00263421.12451617-.0284036.14989005-.07570475-.01841653.01889756-.00235323.0549747-.00849207.06367903.06149073-.02405143.09075254-.08269111.0692666-.12220418.01381239.02233347.05381717.03435919.06609486.03607715-.04307421-.03779511-.01227769-.12392214-.08154428-.16870361.02312297-.00171796.06773188.02748735.08000957.06196107-.01074298-.0774227-.02158826-.12735806-.07847486-.17042157.00613884.00778808.03847007.01465992.05228247 0-.03683305-.02576939-.04767834-.06871838-.0445066-.09632026.00429718-.03859682-.01851884-.04649943-.06159305-.03435919-.03877701.01076588-.12758559.0171796-.17986805.0171796-.10763436 0-.20145632 0-.29067415-.06894744.13382675.06196107.30448654-.0688329.30448654-.17729341 0-.12048621-.13229203-.21863896-.39984321-.15324197-.26755118.06551152-.59352366.03790964-.59352366-.06184654 0-.0998707.23368523-.11372891.35369959-.09299887.11991203.02061552.20595813.03435919.43053741-.05508923-.05535189.02405143-.23378754.03092327-.37518553-.01374367-.14150029-.04478148-.48906104-.04478148-.49213046.16515316-.00306942.21004917.37006983.19092255.69205207.13778034.18754161-.03092327.2859677-.01030776.2859677.05841062 0 .06551152-.17219451.09299887-.30448654.07581927-.13218972-.01717959-.26755118-.01374367-.42439858.03779511-.13096195.04317805-.22140755 0-.36597726.02760188-.07008511.01340008-.23992639 0-.32372158-.1548454-.05156627.04123102-.20687896.12781617-.23296903.21211071-.03693537.07742271-.01227769.15450182.03683305.23020656.06200229.09540401-.03069421.08097315-.09678907.08440907-.09065023.00469576-.21199466-.01076588-.27532704-.09128091-.05606809-.07123805-.13075733-.12838883-.1904064-.07559021-.03069421.02725829-.00122777.06299184.02302065.05302768.0240438-.00996417.0524871.00996416.07816792.02256253-.04102793-.01969927-.08614841-.00435216-.10374643.01317102-.02424842.02439503.00521802.07089446.03458215.05440205.02302065-.01282743.07028973-.02141723.10098394.0100787-.03325206-.00721543-.0678342-.00572654-.08440907.01431632s-.00378562.04901911.03202429.04718662c.05750048-.00286327.0722337.04237633.1298365.03298482-.03540066.00515388-.05545421.02588392-.06466247.04123103.05381718-.02748735.11326163.04684302.18303979.02931984-.02721553.01259836-.07110824.04249086-.07069899.06551151.04143718-.05337127.31983364.04123103.32597248-.07581927.00767356.02405143.00613885.06024311-.0153471.09128091.03560528-.02405143.15070856-.03275576.1860069-.1256401.00306942.02748735-.00153471.06367903-.02302066.0721543.03693537.01362914.08553453-.0171796.13525914-.09964165.01974661-.03287029.02445306-.05463111.02107669-.07925519.04931536.00206155.08502296-.01179665.12349303-.04821739.04000478-.03779511.08307899.03092327.15070856-.0171796.06773188-.04821739.12615319-.00687183.16298624-.03092327.03693536-.02416596.08768312.00847527.1276879-.01901208.04000479-.02748735.10200709.01351461.16820426-.04501054.10415568.0426054.22570474.12174606.52384781.06047217.17086442-.0351609.22447697.02931984.22447697.1170503 0 .06024311-.03151272.06551152-.05535189.06711495-.09504973.00652824-.13587302-.03974213-.17342227-.02496768-.02516925.0100787-.04051635.05589095-.00409256.07158164-.03008032.0171796-.02619239.04947723-.01084529.06127389.01534711.01179665.05494263.0011453.08185122-.01294196-.03458214.01752318-.07039205.0490191-.04992924.08200392.01238.01992833.04368809.03687887.0729499-.00572653.02936412-.04294898.08307899-.07879707.11725187-.07307054zm-1.8938326-.90891503c-.08614841-.0396276-.11520559-.04065838-.09535667.0377951.00849206.03367201.02915949.08097315.04992924.10250491.00081851-.03264123.01156149-.12312042.04542743-.14030001z"/><path d="m.6609486.20638419c.16298624 0 .18334673.0856689.18252822.19241145-.0007162.11533234-.05606808.07559021-.0875808.22367831-.01227769.05795249-.05351024.06115935-.09494742.06115935-.04153949 0-.08266973-.00320686-.09504973-.06115935-.0314104-.14797357-.0868646-.10834597-.0875808-.22367831-.00081851-.10674255.01954198-.19241145.18263053-.19241145z"/><path d="m.2414611.62934578c-.04153949-.02748735-.06834577-.00847526-.08522758-.00332138.05381717.01546163.05596577.0927698.17904954.12896148-.0277271-.0085898-.0430742.0085898-.0692666-.00687184.05074776.04466695.10763436.09654932.22764871.09815275.06691337.00080171.02066743.03962759-.02312297.01717959.04542743.05256956.13536146.00950604.19224805.10502459.01074298-.07398679-.10609964-.19103709-.05228246-.27544616-.16595335-.00790261-.17956112-.11086564-.27522473-.19275504-.07786097-.06665682-.08481833-.13434442-.11919584-.26112982-.01565404-.05737985-.07571238-.09322793-.10896444-.07959879-.02905718.01191119-.03969784.04008572-.01473322.06127389.02496463.02107363.0568866.0239369.06374164.0774227-.03243354-.04352164-.08103271-.05921234-.1043603-.03206858-.01422165.01660694-.00849207.05520376.02209983.05875421.04982693.00572653.01401702.06012858.07069899.11338532-.05023619-.0632209-.09371965-.06894743-.12062824-.03458825-.0160633.02061552 0 .05726532.03458214.05325674.05003156-.00572653.10804361.13629145.18293748.17236859zm1.33724431.53188023c-.02619239.00515388-.01841653.05337127-.05381718.05680719.0846137 0 .12758559-.02233347.16759037-.05852515-.01841652.01202571-.02609007.04306351-.02762479.06024311.04460892-.04306352.15070856-.04649944.20606045-.03435919s.06456015-.01717959.08451139-.05680719c.02005354-.0396276-.00767356-.0620756-.03529834-.09299887-.0277271-.03092327-.03386595-.07398678-.0277271-.14637014-.14763914-.22024239-.4121209-.11361438-.41519032-.01717959.09535667.12392214.10763436.11017846.18764392.12735805.07990726.0171796.12891568.0171796.07530313.06711495-.01841653.01717959-.09535667.00916245-.15531269.01214025-.13413369.00652824-.1955221-.10376475-.23511763-.04649944-.03263818.04707209.00102314.06791666.06752725.06528246-.04604131.00045812-.10712278-.00229061-.09668675.04569772.01759801.08085862.08665998-.01500351.11356857.0183249-.02302066-.00618466-.05883057.00962057-.06016065.03390106-.00122777.02439503.05115701.05589095.10875981.00458123.027626-.02374021.06116665-.0372694.09597056-.03871135z"/></g><path d="m1.18172699.48171581c-.04798528-.01969927-.09198031-.03172498-.14825302-.01866849m-.57510714-.00687184c-.03949321.09506042-.01555173.14190344-.00971983.18599773m-.41079081-.63621762c.02711322.01523258.04235801-.02771641.08215816.01786678-.0109476-.01328555-.02455536.03527543-.05504494.0029778m.19388507-.02084458c-.02711321.01523258-.042358-.02771641-.08215816.01786678.0109476-.01328555.02455537.03527543.05504495.0029778" stroke="#000" stroke-width=".1" transform="translate(.613884 .343592)"/><path d="m.21792887.1619463c-.03059189-.04260539-.10722509-.00664277-.1087598.04627038.02588544-.03435919.06814114.01511804.09116179.00469575.01596099-.00721543.02997801-.033672.01759801-.05096613zm-.03887933.10090148c-.03059189-.04260539-.10712278-.00664277-.10865749.04627038.02578313-.03435919.06803883.01511804.0911618.00469575.01596098-.0071009.02997801-.03355747.01749569-.05096613zm-.0204628.13560426c-.03468446-.03848229-.10712279.00687184-.10333717.05955593.02230446-.03722245.06916428.00652825.09105949-.00664278.01514247-.00916245.02639701-.03722245.01227768-.05291315zm.03683305.42021287c-.03847008-.03378654-.10569039.02061551-.09658444.07261241.01831421-.03997118.06936891-.00251967.0897294-.01843943.01411933-.01110947.02250908-.04042931.00685504-.05417298zm-.00204628.09196809c-.04583669-.01889755-.09494742.05612001-.07192676.10227585.00634347-.04432335.06527635-.02634205.08031651-.04844646.01043603-.0153471.0102314-.04615584-.00838975-.05382939zm.05831899.06871837c-.04583668-.01889755-.09494741.05612001-.07202907.10227585.00644578-.04432335.06537866-.02634204.08041882-.04844645.01043603-.01534711.0102314-.04615584-.00838975-.0538294zm1.20116665.13319912c-.04583668-.01889755-.09494741.05612001-.07192675.10227585.00644578-.04432335.06527634-.02634204.08031651-.04844645.01043603-.01534711.0102314-.04615585-.00838976-.0538294zm.06241156.06230466c-.04747371-.01294196-.08860395.06780213-.06108147.11086565.00184165-.04489601.06220692-.03447372.07489386-.05841062.00879901-.01660694.00552496-.04718662-.01381239-.05245503zm-.04399503-.1507223c-.04235801-.02737282-.1021094.03722245-.08645535.08704327.01309619-.04237633.06834577-.01340008.08655766-.03241216.01258463-.01317102.01708645-.04352164-.00010231-.05463111zm.85432211.10777332c-.04747371-.01294196-.08860395.06780213-.06108147.11086564.00194396-.044896.06230924-.03447372.07489386-.05841062.00879901-.01660694.00552496-.04718661-.01381239-.05245502zm.00204628-.08440907c-.04307421-.02576939-.10077932.04111649-.08369287.09047919.01176611-.04294898.06793651-.01614882.08553452-.03584809.01217537-.01374367.01575636-.04409429-.00184165-.0546311zm.03274049.15988475c-.04788297-.01065135-.08584147.07215429-.05668197.11372891.00020462-.04489601.06087684-.03745151.07254064-.0620756.00818512-.01706506.00368331-.04730115-.01585867-.05165331zm-1.59405251-.59521566c.03008032 0 .04225569.00984963.04225569.0706654 0 .12884695-.00133008.18427977-.03836776.18427977-.03713999 0-.03458214-.05268409-.03458214-.14728638 0-.04924817 0-.07398679-.00890132-.06986368 0-.03229764.01278925-.03779511.03959553-.03779511z" fill="#0051ba" fill-rule="nonzero"/></g></g></g></g></g></g></g></g></svg>