<svg height="48" viewBox="0 0 48 48" width="48" xmlns="http://www.w3.org/2000/svg" xmlns:xlink="http://www.w3.org/1999/xlink"><defs><path id="a" d="m8 9h32c2.209139 0 4 1.790861 4 4v22c0 2.209139-1.790861 4-4 4h-32c-2.209139 0-4-1.790861-4-4v-22c0-2.209139 1.790861-4 4-4z"/><mask id="b" fill="#fff"><use fill="#fff" fill-rule="evenodd" xlink:href="#a"/></mask></defs><g fill="none" fill-rule="evenodd"><path d="m0 0h48v48h-48z"/><use fill="#d8d8d8" xlink:href="#a"/><g mask="url(#b)"><g fill-rule="nonzero" transform="translate(4 9)"><path d="m0 0h40v30h-40z" fill="#fff"/><path d="m0 0h40v9h-40z" fill="#000"/><path d="m0 21h40v9h-40z" fill="#060"/><g fill="none" transform="translate(14.625 4.5)"><path d="m9.22460327 4.50284276-8.78658946 15.21895304-.48734069-.2812122 8.78681801-15.21883497c-.05699725-.24575127-.03046596-.49637694.06755623-.77020434.0761636-.21276487.16280776-.37875324.37662664-.74908753.21176647-.36699128.40914339-.67920568.70724741-1.0832274.45053969-.61061848.96558199-1.18432733 1.54944639-1.69009039l.2046461-.17727142-.0512058.26586306c-.146088.7584948-.3854513 1.49137472-.6890587 2.18692255-.2008095.46004338-.3718968.78591908-.5844429 1.15404891-.2143911.37118232-.3151821.52963255-.46128578.70168347-.18791985.22129337-.39146552.36921749-.63241745.44245722zm-8.85524208 14.96286144 8.7312591-15.1231172.03755344-.01003441c.39282584-.10496444.60830813-.3587152 1.01641837-1.06528987.2106803-.36489746.3787922-.68510574.5763148-1.137619.2611332-.59824183.4738195-1.22431308.6188878-1.86992303-.4866117.4484345-.9224861.94563549-1.3099974 1.4708312-.29322073.39740341-.48716305.7041849-.69573301 1.06563664-.40917812.7086965-.5213014 1.02191563-.41588344 1.41536083l-8.72135397 15.16036704z" fill="#000"/><path d="m.07875 19.40625.3249375.1875 8.7586875-15.170625c.51225-.136875.7935-.624375 1.07475-1.1113125.1875-.32475.9375-1.62375 1.262625-3.3118125-1.299375 1.1255625-2.049375 2.424375-2.236875 2.7493125-.28125.487125-.5625.97425-.42525 1.4865z" fill="#fff"/></g><g fill="none" transform="matrix(-1 0 0 1 25.5 4.5)"><path d="m.43801381 19.7217958-.48734069-.2812122 8.78681801-15.21883497c-.05699725-.24575127-.03046596-.49637694.06755623-.77020434.0761636-.21276487.16280776-.37875324.37662664-.74908753.21176647-.36699128.40914339-.67920568.70724741-1.0832274.45053969-.61061848.96558199-1.18432733 1.54944639-1.69009039l.2046461-.17727142-.0512058.26586306c-.1279124.66412654-.3282722 1.3115073-.582311 1.93409792-.1308262.32062504-.2701571.62059108-.414668.90171381-.0987004.19200594-.1728848.32565898-.2765226.50515973-.2143911.37118232-.3151821.52963255-.46128578.70168347-.18791985.22129337-.39146552.36921749-.63241745.44245722zm-.06865262-.2560916 8.7312591-15.1231172.03755344-.01003441c.39282584-.10496444.60830813-.3587152 1.01641837-1.06528987.2509032-.43456339.4548843-.83137606.6813008-1.38627079.2140393-.52456091.3892115-1.06675527.5138776-1.62124898-.4866019.44842869-.9224683.94562192-1.3099732 1.47080894-.29322073.39740341-.48716305.7041849-.69573301 1.06563664-.40917812.7086965-.5213014 1.02191563-.41588344 1.41536083l-8.72135397 15.16036704z" fill="#000"/><path d="m.07875 19.40625.3249375.1875 8.7586875-15.170625c.51225-.136875.7935-.624375 1.07475-1.1113125.1875-.32475.9375-1.62375 1.262625-3.3118125-1.299375 1.1255625-2.049375 2.424375-2.236875 2.7493125-.28125.487125-.5625.97425-.42525 1.4865z" fill="#fff"/></g><path d="m40 10.5h-16.4500638c-.5618617-1.5-2.4347342-4.5-3.5584578-4.5-1.1237235 0-2.996596 3-3.5584578 4.5h-16.4330206v9h16.4330206c.5618618 1.5 2.4347343 4.5 3.5584578 4.5 1.1237236 0 2.9965961-3 3.5584578-4.5h16.4500638z" fill="#b00"/><path d="m23.625 19.5c.5625-1.5.9375-3 .9375-4.5s-.375-3-.9375-4.5c-.5625 1.5-.9375 3-.9375 4.5s.375 3 .9375 4.5" fill="#000"/><path d="m.9375 9c.5625-1.5.9375-3 .9375-4.5s-.375-3-.9375-4.5c-.5625 1.5-.9375 3-.9375 4.5s.375 3 .9375 4.5" fill="#000" transform="matrix(-1 0 0 1 17.4375 10.5)"/><g fill="#fff" transform="translate(19.125 6)"><ellipse cx=".9375" cy="9" rx="1" ry="1.125"/><path d="m1.125 10.096875s.75 1.5.75 3.9375-.75 3.9375-.75 3.9375z"/><path d="m0 .159375s.75 1.5.75 3.9375-.75 3.9375-.75 3.9375z" transform="matrix(-1 0 0 -1 .75 8.0625)"/><path d="m0 .159375s.75 1.5.75 3.9375-.75 3.9375-.75 3.9375z" transform="matrix(-1 0 0 1 .75 9.9375)"/><path d="m0 .159375s.75 1.5.75 3.9375-.75 3.9375-.75 3.9375z" transform="matrix(1 0 0 -1 1.125 8.0625)"/></g></g></g></g></svg>