<svg height="48" viewBox="0 0 48 48" width="48" xmlns="http://www.w3.org/2000/svg" xmlns:xlink="http://www.w3.org/1999/xlink"><defs><path id="a" d="m8 9h32c2.209139 0 4 1.790861 4 4v22c0 2.209139-1.790861 4-4 4h-32c-2.209139 0-4-1.790861-4-4v-22c0-2.209139 1.790861-4 4-4z"/><mask id="b" fill="#fff"><use fill="#fff" fill-rule="evenodd" xlink:href="#a"/></mask></defs><g fill="none" fill-rule="evenodd"><path d="m0 0h48v48h-48z"/><use fill="#d8d8d8" xlink:href="#a"/><g fill-rule="nonzero" mask="url(#b)"><g transform="translate(4 9)"><path d="m0 0h40v30h-40z" fill="#be0027"/><path d="m11.165 15.2708984c.8002734-.9732422 2.4580078-.0233789 3.8112305-.7241601-1.6030078.088125-2.4767578-.7692774-3.7432032-.6491016 1.3122071-.8060742 2.4293555.2636719 3.8966016-.1663476-1.9432617-.1634766-1.8590039-1.0321289-3.6260156-1.1554688 1.5696094-.6694922 2.3458594.6884766 3.8833594.3796289-1.812129-.4183594-2.053418-1.4857031-3.4007227-1.7116406 1.9692187-.2972461 1.8408398.8668359 3.7713281 1.0089844-1.9594336-.8405274-1.4458594-1.5701368-3.0846679-2.2103321 1.8338085-.04335934 1.7122265 1.2275391 3.5701171 1.5609375-1.5904687-1.0089843-1.3940039-1.92978512-2.7040429-2.65031246 1.5541406.028125 1.7058984 1.61888676 3.2920312 2.11171876-1.4149219-1.12265626-1.0427929-2.06912111-2.2654687-3.07166017 1.5458789.36257813 1.3208203 1.73496094 2.9308008 2.61046877-1.1931446-1.32509768-.7353516-2.27373049-1.776211-3.35847658 1.4867578.47882812.9219727 1.783125 2.4647461 3.02314448-.8844141-1.45634761-.3383789-2.38517573-1.2087305-3.61388667 1.3804102.71285156.7119727 2.04328125 1.9935352 3.37253907-.6032227-1.49460938.0008789-2.42296876-.6156445-3.74654298 1.1807812.8822461.4784765 2.30408204 1.4309765 3.66046875-.3472265-1.8703125.4594336-2.17792968.208418-3.81585937.8968359 1.10097656-.1055859 2.20195312.5829492 3.82382812-.083789-1.84429687.8961328-2.27314453.726211-3.75392578.8888085 1.32685547-.4984571 2.4816211.0817382 3.90263676.15-1.74984379 1.2999024-2.20294926 1.3177735-3.56460941.6991992 1.24992187-.8268164 2.14875-.5791407 3.80595701.5021485-1.82789061 1.7271094-2.05376951 1.8716602-3.28271483.4239258 1.44597657-1.2459961 2.11816407-1.1483203 3.72070313.4974023-1.62509766 2.0285156-1.81570313 2.3415234-3.01611328.1931836 1.52970703-1.3125 1.80128906-1.7364258 3.49130858.7917188-1.37929686 2.1763477-1.49244139 2.7997852-2.58339843-.0489258 1.51265623-1.7486719 1.71093753-2.2703906 3.12732423.9799804-1.2017578 2.208457-.9931641 3.1883789-2.05869141-.103418 1.36517581-1.8335742 1.28800781-2.7544336 2.70140621 1.0626562-.9803906 2.662207-.6866015 3.4763672-1.5307617-.0394922 1.2075-2.1625781 1.1167383-3.1638281 2.1960352 1.2348632-.6764649 2.7982617-.2791407 3.7045898-.9074414-.1655859 1.0586718-2.4067969.8112304-3.4778906 1.6374609 1.477207-.4092773 2.6177929.2232422 3.8145703-.234082-.5824219 1.0304883-2.6152735.3782226-3.6945703 1.048125 1.2820312-.2170899 2.6441015.5595703 3.8139258.3103711-.3844922.8906836-2.6121094-.0537891-3.8138672.5002734 1.4361328-.0125977 2.3673047.9043359 3.6991992.84375-.7243945.8063672-2.6828906-.3025195-3.8239453-.1130859 1.3921875.2879297 2.4557226 1.4414648 3.511289 1.4970703-.86625.6650976-2.4857226-.8494922-3.800625-.6571875 1.3538086.3624023 2.4911719 1.9026562 3.2680078 1.9364062-.8369531.5719922-2.4912304-1.31625-3.6246093-1.2491601 1.3766601.6222656 2.0080664 2.1981445 2.9119336 2.4196875-1.1190821.3590625-2.2188282-1.7119336-3.4212891-1.783711 1.392832.8784961 1.4715234 2.2217578 2.5439648 2.8197657-1.1283398.2758593-1.9314843-2.0605664-3.1206445-2.2577344 1.1419922.8394726 1.3141406 2.6326758 2.0713477 3.1996875-1.1488477.0607031-1.5639844-2.385586-2.7414258-2.7350391 1.00875.8425781.7672266 2.6707031 1.5515625 3.4490039-1.1968359-.2455078-1.0425586-2.3752734-2.2920703-3.0924609.8976562 1.1320312.4410351 2.7448828 1.0260937 3.6525586-1.1642578-.4709766-.6585937-2.3770313-1.7701172-3.4564453.6063282 1.2059765-.0453515 2.6124609.4328321 3.7784765-1.0636524-.518789-.3482813-2.7764062-1.1634375-3.6718359.374707 1.3937109-.3164063 2.5470703-.0378516 3.7965234-1.0874414-1.261289.1650586-2.5306054-.7781836-3.8159179.2503711 1.4752148-.7814062 2.5017773-.6191601 3.736582-.8622657-1.0072266.4631836-2.6234766-.2067188-3.8951953.1442578 1.4504297-1.1880469 2.7210937-1.096582 3.6345703-.701836-1.17.7791797-2.5536914.3826172-3.8839453-.0834961 1.3811719-1.4279297 2.1317578-1.6811133 3.39-.4519336-1.3880274 1.1463281-2.3913281 1.0083398-3.7552735-.4576757 1.2975-1.7567578 1.817754-2.2144336 3.0752344-.374707-1.3841601 1.5183985-2.1191601 1.5684375-3.5753906-.5851757 1.3657031-2.1399609 1.6655859-2.653125 2.7107812-.1915429-1.3769531 1.9809375-1.9925976 2.0617969-3.2973632-.699375 1.2528515-2.4005859 1.3037109-2.9877539 2.300039-.0890625-1.3720312 2.2020703-1.5419531 2.5617188-2.9780273-.696211 1.0709765-2.5625391.9320508-3.3390235 1.8027539.122461-1.2727734 2.6008594-1.3515234 2.9958399-2.4960938-.9212696.88875-2.6345508.5204297-3.5991797 1.2253711.5368945-1.2500976 2.8616015-.9850781 3.3871875-1.8906445-1.0291406.5369531-2.8523438.0164063-3.7498242.5533594.815625-1.1839453 2.6251757-.4766602 3.6492187-1.2919922-1.6657031.2427539-2.6663672-.4201172-3.8192578-.1132617z" fill="#ff0"/><path d="m25.8551367 14.9387891c0 3.2109375-2.6029687 5.8138476-5.8138476 5.8138476-3.2109375 0-5.8137891-2.6029687-5.8137891-5.8138476 0-3.2109375 2.6029688-5.8137891 5.8137891-5.8137891 3.2109375 0 5.8138476 2.6029102 5.8138476 5.8137891z" fill="#ff0"/><path d="m25.0866211 14.9920313c0 2.7916406-2.2630664 5.0545898-5.0545899 5.0545898-2.791582 0-5.0545312-2.2630078-5.0545312-5.0545898 0-2.7915821 2.2630078-5.0545313 5.0545312-5.0545313 2.7916407 0 5.0545899 2.2630078 5.0545899 5.0545313z" fill="#be0027"/><path d="m24.4081055 14.965332c0 2.3971289-1.9432032 4.3403321-4.3402735 4.3403321-2.3971289 0-4.340332-1.9432618-4.340332-4.3403321s1.9432617-4.340332 4.340332-4.340332 4.3402735 1.9432617 4.3402735 4.340332z" fill="#ff0"/><path d="m16.3339258 12.1284595c1.2012304-.0264257 2.6972461.083086 3.6831445.8726368 1.0464258-.6535547 2.2854492-.9557227 3.5472656-.8386524l.6459961 1.1786133c-.9368554-.0945117-1.8510351.0378516-2.9352539.4760156 1.3826367 1.0954688 2.0739258 2.5083985 2.0286328 4.2271875-.1586132.1964063-.4079882.4154883-.5666015.6118946.2303906-1.6696875-.6498047-3.5319727-1.9266211-4.5104297 1.0388672 1.4997656 1.6584375 2.8521093 1.484707 4.7144531-.1851562.1095703-.4042969.2644336-.5893359.3740039.271875-1.6432617-.1132617-3.5698828-1.3259766-4.6918359.6988477 1.0275586 1.3977539 2.8710351.9632813 4.7484375-.1889063.0567187-.4797657.2153906-.6686133.2720507.4873242-1.5374414.1812304-3.4603125-.6346875-4.6124414-.8083594 1.1598047-1.0728516 2.9313868-.6120117 4.5671485-.2266993-.0566602-.3966797-.1246875-.6232618-.1813477-.3324023-1.760332.1284961-3.7474805.9292969-4.7824219-.8159179.4722657-1.5866015 2.4969141-1.3713281 4.5671485-.1964063-.0906446-.3475781-.1586719-.5439258-.249375-.2644336-1.5450586.4343555-3.5546485 1.4392969-4.7144531-1.1408789.7177734-2.0663672 2.478164-1.9039453 4.3744921-.1737891-.1548632-.3362696-.2303906-.51-.3852539-.2002149-1.6546875.7555078-3.3205078 1.8812109-4.317832-.948164-.4231641-1.760332-.50625-2.9351953-.4873828.1850977-.3815625.3588867-.8310352.5439844-1.2125977z" fill="#be0027"/></g></g></g></svg>