<svg height="48" viewBox="0 0 48 48" width="48" xmlns="http://www.w3.org/2000/svg" xmlns:xlink="http://www.w3.org/1999/xlink"><defs><path id="a" d="m8 9h32c2.209139 0 4 1.790861 4 4v22c0 2.209139-1.790861 4-4 4h-32c-2.209139 0-4-1.790861-4-4v-22c0-2.209139 1.790861-4 4-4z"/><mask id="b" fill="#fff"><use fill="#fff" fill-rule="evenodd" xlink:href="#a"/></mask></defs><g fill="none" fill-rule="evenodd"><path d="m0 0h48v48h-48z"/><use fill="#d8d8d8" xlink:href="#a"/><g mask="url(#b)"><g transform="translate(4 9)"><path d="m0 0h40v30h-40z" fill="#032ea1" fill-rule="nonzero"/><path d="m0 7.5h40v15h-40z" fill="#e00025" fill-rule="nonzero"/><g fill="none" fill-rule="evenodd" stroke="#000" stroke-width=".1" transform="translate(10.298187 8.78)"><g fill="#fff" fill-rule="nonzero"><g stroke-linejoin="bevel" transform="translate(2.1 5.325)"><path d="m3.3765.0345h8.535v3.2841h-8.535z"/><path d="m11.47125 1.848h.26895v1.237125h-.26895zm-8.09475-.61125h8.535v.38175h-8.535zm0-.5175h8.535v.336675h-8.535z"/><path d="m3.3765.2025h8.535v.32655h-8.535z"/><path d="m5.6235 1.848h.26895v1.237125h-.26895zm3.67425 0h.26895v1.237125h-.26895zm-5.85375 0h.26895v1.237125h-.26895zm.52725 0h.26895v1.237125h-.26895zm.5625 0h.26895v1.237125h-.26895zm.5625 0h.26895v1.237125h-.26895zm4.7115 0h.26895v1.237125h-.26895zm.5625 0h.26895v1.237125h-.26895zm.5625 0h.26895v1.237125h-.26895z"/><path d="m.038175 3.49125c.132-.067275.2826-.2238.331875-.398925h14.48025c.049275.175125.199875.33165.331875.398925z"/></g><path d="m9.525.36s-.0108-.3084.16875-.311775c.1797.0033.168825.311775.168825.311775zm-.93675 4.0905v-.4152c-.005925-.2076-.207-.2226-.21285-.37395 0 0-.02595-.227025.0339-.3306.0813.303525.2292.2478.2292.123 0-.108975-.083775-.2103-.2556-.47475-.0549-.0846-.021-.3495.056025-.444225.02985.23025.063975.3405.162825.3405.060375 0 .10965-.0393.10965-.15465 0-.146775-.099375-.220875-.148275-.354375-.057-.15585-.0177-.3147.07695-.4035.040575.22725.0285.317775.12945.317775.203475-.06435 0-.35895-.0435-.433275-.04995-.086625.067275-.2595.067275-.2595.064725.20175.0855.21825.15525.1995.08805-.023625.076725-.1542-.03075-.259725-.0678-.066675-.0606-.1659.012225-.24555.073125.142875.166725.13425.175725.04935l-.0588-.329475h1.294125l-.064275.318675c-.018375.0912.1047.111.1812-.03855.0729.07965.080025.178875.012225.24555-.1074.105525-.1188.2361-.03075.259725.06975.01875.0906.00225.15525-.1995 0 0 .105225.117825.067275.2595-.0435.07425-.246975.368925-.0435.433275.10095 0 .088875-.0906.12945-.317775.094725.0888.13395.24765.07695.4035-.048825.1335-.1482.2076-.1482.354375 0 .11535.049275.15465.109575.15465.098925 0 .13305-.11025.1629-.3405.07695.094725.110925.359625.056025.44415-.171825.264525-.2556.36585-.2556.47475 0 .124875.147825.1806.2292-.123.059775.10365.033825.33075.033825.33075-.005925.151275-.206925.166275-.21285.373875v.4152zm.5415-3.4515-.029775-.234375h1.18785l-.029775.234375zm.0795-.23925-.025575-.192675h1.0203l-.025575.192675zm.162-.1995-.017025-.192675h.67935l-.017025.192675zm2.4765 8.256c-.152025-.058575-.373275-.218925-.373275-.38025v-1.822275l.19785-.25185h-3.9582l.18975.251925v1.822275c0 .16125-.152025.3216-.303975.38025z"/><path d="m8.418 7.173h.26895v1.237125h-.26895zm2.274 0h.26895v1.237125h-.26895z" stroke-linejoin="bevel"/><path d="m7.64325 4.28775v2.0742h4.051725v-.446775l.00585-1.6275c-.16575.065175-.194775.2154-.194775.2154v.883275h-3.65625v-.88335s-.0408-.150225-.20655-.215325z"/><path d="m11.145 8.81625c-.13245-.058575-.4209-.218925-.4209-.38025v-2.0394c.02835-.11385.1827-.18105.282075-.25185h-2.686725c.127875.06765.27045.1239.321375.251925v2.0394c0 .16125-.228075.3216-.360525.380175z"/><path d="m11.50575 6.1665v-1.469025h-.36825v-.143175h-2.913v.143175h-.36825v1.469025zm-.94125 2.64975c-.12975-.058575-.318675-.218925-.318675-.38025v-1.74105l.1065-.15825h-1.32675l.1065.15825v1.741125c0 .16125-.188925.3216-.318675.38025z"/><path d="m9.35325 6.537h.67245v2.278275h-.67245z"/><path d="m10.3785 6.036c.001575-.150075.43785-.156825.6624-.284625h-2.6964c.22455.1278.650625.1383.650625.284625l.091275.29115 1.116225.04485z" stroke-linejoin="bevel"/><path d="m10.90575 4.4505c0-.367425.015375-.50895.12825-.50895v1.1685c-.27675.1005-.474375.45375-.474375.45375h-1.740825s-.19755-.35325-.474375-.45375v-1.1685c.1392 0 .1401.1479.1401.50895zm.12825-.15075c0-.42135.363825-.46875.363825-.46875v.375c-.13845-.006-.205275.11835-.205275.3033s.111525.18795.111525.18795v1.06425h-.270075z"/><path d="m8.346 4.29975c0-.42135-.363825-.46875-.363825-.46875v.375c.13845-.006.205275.11835.205275.3033s-.111525.18795-.111525.18795v1.06425h.270075z"/></g><path d="m.05625.419h3.649575zm1.158.00075h1.3527v.497175h-1.3527z" transform="translate(7.8 5.35)"/><g fill="#fff" fill-rule="nonzero" transform="translate(8.7 1.125)"><path d="m.14475 3.543c.22425.26925.203475.726.200925.99525h1.300725c-.002625-.26925-.0234-.726.20085-.99525zm.73125-3.08475-.1782-.0918v-.262275c.072825.0219.15465.030825.1626.147.02535-.16575.0711-.157725.143025-.2223.07185.064575.1176.056475.14295.222225.008025-.1161.089775-.125025.162675-.147v.26235l-.178275.0918z"/><path d="m.864.88875-.29595-.203475v-.241725c.103725.024.2202.033825.2316.161175.03615-.181725.10125-.275625.203625-.3465.102375.070875.167475.164775.203625.3465.0114-.12735.127875-.1371.231675-.161175v.241725l-.296025.203475z"/><path d="m.843 1.56-.34035-.298875v-.3552c.119325.035325.253275.049725.2664.236775.041475-.267.1164-.405.234075-.509025.11775.1041.1926.242025.23415.509025.013125-.18705.147-.20145.266325-.236775v.3552l-.340275.298875zm.62775.39675-.3078.4257h-.34845l-.3078-.4257zm-1.1415.71475c.153975.08415.21075.251775.22725.566475h.86625c.0165-.3147.073275-.482325.22725-.566475z"/><g stroke-linejoin="bevel"><path d="m1.66275 1.95675v-.42765c-.14625.040275-.240975.126825-.2832.24435 0-.141975-.18675-.469275-.390525-.63225-.2043.1824-.394275.4785-.39045.63225-.0348-.1119-.13695-.204075-.2832-.24435v.42765z"/><path d="m1.728 2.6715v-.42765c-.16035.040275-.26415.126825-.310425.24435 0-.141975-.20475-.46935-.4281-.63225-.22395.1824-.432225.4785-.428025.63225-.0381-.1119-.15015-.204075-.310425-.24435v.42765z"/><path d="m1.908 3.549v-.493275c-.1995.051525-.3234.198975-.38625.285 0-.267075-.3015-.67425-.5325-.8076-.237.136875-.532575.557625-.532575.8076-.0645-.0855-.18675-.233475-.38625-.285v.493275z"/><path d="m1.8 4.644v-.50715c-.17595.069-.2286.2385-.28395.353775.02175-.514425-.28965-1.06725-.5268-1.2075-.237225.14025-.554475.705-.5268 1.2075-.05685-.114525-.108-.284775-.28395-.353775v.50715z"/></g><path d="m1.677 5.412v-.50715c-.18435.043875-.19575.111825-.2544.22545.02175-.307275-.195825-.65775-.432975-.798-.237225.14025-.4548.4908-.43305.798-.05865-.113625-.06585-.181575-.2544-.22545v.50715z"/></g><g fill="#fff" fill-rule="nonzero" transform="translate(2.1 2.175)"><path d="m.370125 6.24225v-1.533c-.05025-.195225-.216-.367875-.3405-.40245v-1.34955l.280575.151725.320325 1.41075v1.72245z"/><path d="m.370125 6.24825v-1.538925c-.05025-.195225-.216-.367875-.3405-.40245v-1.443225c.188325 0 .280575.245475.280575.245475l.320325 1.41075v1.716525z"/><path d="m.170625 6.64125c.12975-.058575.318675-.218925.318675-.38025v-1.916025l-.088875-.1581h3.26415l-.127425.1581v1.916025c0 .161325.12975.321675.2595.38025z"/><path d="m3.138 6.64125c-.12975-.058575-.318675-.218925-.318675-.38025v-1.822275l.2715-.251925h-2.219175l.2715.252v1.8222c0 .161325-.189.321675-.31875.38025z"/><path d="m2.82675 6.64125c-.12975-.058575-.318675-.218925-.318675-.38025v-1.647375l.17775-.251925h-1.409925l.17775.252v1.647375c0 .16125-.189.3216-.31875.380175z"/><path d="m1.644 4.362h.67365v2.279475h-.67365z"/><path d="m.7275 4.998h.26895v1.237125h-.26895zm2.30625 0h.26895v1.237125h-.26895zm-2.53575-2.0865h.324v1.268175h-.324zm0-.2385h.322125v.235425h-.322125z" stroke-linejoin="bevel"/><path d="m3.16275 3.1845h.462v.97905h-.462z" stroke-linejoin="bevel"/><path d="m.81675 4.17v-2.170575c.0924 0 .10665.31815.318675.31815.1104 0 .098625-.131775.036675-.2391-.0549-.0951-.122775-.22635-.030525-.470925.063225.187125.2334.246525.201975.12915-.054-.2016-.209625-.23475-.092925-.54765.0405.261.207975.249525.167325.0978-.04575-.171-.140475-.24105-.0237-.4821.065475.27375.1539.257625.1539.087825 0-.251025-.0096-.521775.315225-.6222 0 0 .01875-.2301.1359-.2301.117225 0 .135975.2301.135975.2301.32475.1005.31515.37125.31515.6222 0 .1698.0885.18585.1539-.08775.11685.240975.022125.311025-.023625.482025-.040725.151725.12675.163275.16725-.0978.116775.3129-.038775.34605-.09285.54765-.0315.117375.13875.057975.201975-.12915.09225.2445.024375.375825-.030525.470925-.06195.10725-.073725.2391.036675.2391.212025 0 .226275-.31815.318675-.31815v2.170575zm-.50745-1.6395v1.655925h.188325v-1.660125c-.067875-.034275-.131625-.039525-.188325.0042z"/><path d="m.315225 3.60225c.2334.119325.464625.257475.523125.584475h-.523125zm3.237525-.49575v1.080525h.152625v-1.083225c-.047625-.02235-.112725-.0258-.152625.0027z"/><path d="m3.70575 3.594c-.2334.119325-.464625.257475-.523125.584475h.523125z"/><g transform="translate(1.2 .6)"><path d="m.96225.47025.13605-.114375v-.146475c-.0498.004875-.07695.021975-.1137.0702-.031275-.097125-.10005-.172875-.19215-.219975-.092175.0471-.16095.119475-.192225.216525-.03675-.048225-.0639-.061875-.1137-.06675v.146475l.136125.114375z"/><path d="m1.035.837.063225-.136875v-.190425c-.0498.00495-.07695.022275-.1137.071175-.031275-.098475-.10005-.17535-.19215-.22305-.092175.0477-.16095.121125-.192225.219525-.03675-.048825-.0639-.0627-.1137-.06765v.190425l.0633.136875z"/><path d="m1.04475 1.33425.202125-.246525v-.243225c-.07395.008325-.1143.037725-.1689.12045-.0465-.16665-.148575-.2031-.28545-.28395-.136875.08085-.239025.111375-.28545.278025-.054675-.082725-.095025-.1062-.1689-.114525v.243225l.20205.246525z"/><path d="m1.104 1.8225s.2355-.2055.249525-.3183v-.260025c-.091275.010725-.1776.034425-.245025.141225-.057375-.21525-.146925-.27525-.3159-.37965-.168975.1044-.258525.1644-.3159.37965-.067425-.106875-.15375-.1305-.245025-.141225v.260025c.029775.1128.249525.3183.249525.3183z"/><path d="m1.2045 2.724s.322575-.357075.33-.4962v-.40545c-.12075.016725-.2349.09975-.324075.266325-.075825-.335625-.19425-.569625-.41775-.732375-.2235.16275-.342.39675-.41775.732375-.08925-.166575-.2034-.249675-.324075-.266325v.40545c.0231.139125.33.4962.33.4962z"/><path d="m1.2045 3.25725s.2757-.28065.33-.40245v-.40545c-.12075.016725-.2349.09975-.324075.266325-.075825-.335625-.19425-.527775-.41775-.690525-.2235.16275-.342.3549-.41775.690525-.08925-.166575-.2034-.249675-.324075-.266325v.40545c.069975.1218.33.40245.33.40245z"/><path d="m1.3155 3.567c-.080475-.3501-.1497-.60975-.537225-.873075-.387525.26325-.45675.522975-.537225.873075z"/><path d="m1.515 3.762v-.50715c-.17595.069-.335025.171-.393675.284625-.065475-.28155-.191775-.4056-.348975-.575925-.157275.170325-.262575.294375-.328125.575925-.05865-.113625-.21765-.215625-.393675-.284625v.50715z"/></g></g><g fill="#fff" fill-rule="nonzero" transform="matrix(-1 0 0 1 17.3055 2.175)"><path d="m.370125 6.24225v-1.533c-.05025-.195225-.216-.367875-.3405-.40245v-1.34955l.280575.151725.320325 1.41075v1.72245z"/><path d="m.370125 6.24825v-1.538925c-.05025-.195225-.216-.367875-.3405-.40245v-1.443225c.188325 0 .280575.245475.280575.245475l.320325 1.41075v1.716525z"/><path d="m.170625 6.64125c.12975-.058575.318675-.218925.318675-.38025v-1.916025l-.088875-.1581h3.26415l-.127425.1581v1.916025c0 .161325.12975.321675.2595.38025z"/><path d="m3.138 6.64125c-.12975-.058575-.318675-.218925-.318675-.38025v-1.822275l.2715-.251925h-2.219175l.2715.252v1.8222c0 .161325-.189.321675-.31875.38025z"/><path d="m2.82675 6.64125c-.12975-.058575-.318675-.218925-.318675-.38025v-1.647375l.17775-.251925h-1.409925l.17775.252v1.647375c0 .16125-.189.3216-.31875.380175z"/><path d="m1.644 4.362h.67365v2.279475h-.67365z"/><path d="m.7275 4.998h.26895v1.237125h-.26895zm2.30625 0h.26895v1.237125h-.26895zm-2.53575-2.0865h.324v1.268175h-.324zm0-.2385h.322125v.235425h-.322125z" stroke-linejoin="bevel"/><path d="m3.16275 3.1845h.462v.97905h-.462z" stroke-linejoin="bevel"/><path d="m.81675 4.17v-2.170575c.0924 0 .10665.31815.318675.31815.1104 0 .098625-.131775.036675-.2391-.0549-.0951-.122775-.22635-.030525-.470925.063225.187125.2334.246525.201975.12915-.054-.2016-.209625-.23475-.092925-.54765.0405.261.207975.249525.167325.0978-.04575-.171-.140475-.24105-.0237-.4821.065475.27375.1539.257625.1539.087825 0-.251025-.0096-.521775.315225-.6222 0 0 .01875-.2301.1359-.2301.117225 0 .135975.2301.135975.2301.32475.1005.31515.37125.31515.6222 0 .1698.0885.18585.1539-.08775.11685.240975.022125.311025-.023625.482025-.040725.151725.12675.163275.16725-.0978.116775.3129-.038775.34605-.09285.54765-.0315.117375.13875.057975.201975-.12915.09225.2445.024375.375825-.030525.470925-.06195.10725-.073725.2391.036675.2391.212025 0 .226275-.31815.318675-.31815v2.170575zm-.50745-1.6395v1.655925h.188325v-1.660125c-.067875-.034275-.131625-.039525-.188325.0042z"/><path d="m.315225 3.60225c.2334.119325.464625.257475.523125.584475h-.523125zm3.237525-.49575v1.080525h.152625v-1.083225c-.047625-.02235-.112725-.0258-.152625.0027z"/><path d="m3.70575 3.594c-.2334.119325-.464625.257475-.523125.584475h.523125z"/><g transform="translate(1.2 .6)"><path d="m.96225.47025.13605-.114375v-.146475c-.0498.004875-.07695.021975-.1137.0702-.031275-.097125-.10005-.172875-.19215-.219975-.092175.0471-.16095.119475-.192225.216525-.03675-.048225-.0639-.061875-.1137-.06675v.146475l.136125.114375z"/><path d="m1.035.837.063225-.136875v-.190425c-.0498.00495-.07695.022275-.1137.071175-.031275-.098475-.10005-.17535-.19215-.22305-.092175.0477-.16095.121125-.192225.219525-.03675-.048825-.0639-.0627-.1137-.06765v.190425l.0633.136875z"/><path d="m1.04475 1.33425.202125-.246525v-.243225c-.07395.008325-.1143.037725-.1689.12045-.0465-.16665-.148575-.2031-.28545-.28395-.136875.08085-.239025.111375-.28545.278025-.054675-.082725-.095025-.1062-.1689-.114525v.243225l.20205.246525z"/><path d="m1.104 1.8225s.2355-.2055.249525-.3183v-.260025c-.091275.010725-.1776.034425-.245025.141225-.057375-.21525-.146925-.27525-.3159-.37965-.168975.1044-.258525.1644-.3159.37965-.067425-.106875-.15375-.1305-.245025-.141225v.260025c.029775.1128.249525.3183.249525.3183z"/><path d="m1.2045 2.724s.322575-.357075.33-.4962v-.40545c-.12075.016725-.2349.09975-.324075.266325-.075825-.335625-.19425-.569625-.41775-.732375-.2235.16275-.342.39675-.41775.732375-.08925-.166575-.2034-.249675-.324075-.266325v.40545c.0231.139125.33.4962.33.4962z"/><path d="m1.2045 3.25725s.2757-.28065.33-.40245v-.40545c-.12075.016725-.2349.09975-.324075.266325-.075825-.335625-.19425-.527775-.41775-.690525-.2235.16275-.342.3549-.41775.690525-.08925-.166575-.2034-.249675-.324075-.266325v.40545c.069975.1218.33.40245.33.40245z"/><path d="m1.3155 3.567c-.080475-.3501-.1497-.60975-.537225-.873075-.387525.26325-.45675.522975-.537225.873075z"/><path d="m1.515 3.762v-.50715c-.17595.069-.335025.171-.393675.284625-.065475-.28155-.191775-.4056-.348975-.575925-.157275.170325-.262575.294375-.328125.575925-.05865-.113625-.21765-.215625-.393675-.284625v.50715z"/></g></g><g fill="#fff" fill-rule="nonzero" transform="translate(0 8.775)"><path d="m.50205 1.89375h18.39975v.939825h-18.39975z"/><path d="m.0171 2.832h19.3695v.9384h-19.3695zm1.4511-2.34375h16.467v.60825h-16.467z"/><path d="m.986775 1.092h17.43v.79665h-17.43zm.769125-1.071h15.89175v.46305h-15.89175z"/><path d="m3.48075.02325h1.200375v3.745125h-1.200375z"/><path d="m3.74625.02325h.668775v3.7452h-.668775z"/><path d="m9.081.02325h1.20045v3.745125h-1.200375z"/><path d="m9.35475.02325h.668775v3.7452h-.668775z"/><path d="m14.71425.02325h1.200375v3.745125h-1.200375z"/><path d="m14.97975.02325h.668775v3.7452h-.668775z"/></g><path d="m.070125.01725h14.48025m-13.216125 3.6555h.6933m-.6933-.46875h.6933m-.6933-.46875h.6933m-.6933-.46875h.6933m-.6933-.46875h.6933m-.6933-.46875h.6933m-.6933-.46875h.6933m4.9302 2.81325h.645525m-.645525-.468975h.645525m-.645525-.46905h.645525m-.645525-.468975h.645525m-.645525-.468975h.645525m-.645525-.468975h.645525m-.645525-.46905h.645525m4.964475 2.81325h.6933m-.6933-.46875h.6933m-.6933-.46875h.6933m-.6933-.46875h.6933m-.6933-.46875h.6933m-.6933-.46875h.6933m-.6933-.46875h.6933" transform="translate(2.4 8.4)"/></g></g></g></g></svg>