<svg height="48" viewBox="0 0 48 48" width="48" xmlns="http://www.w3.org/2000/svg" xmlns:xlink="http://www.w3.org/1999/xlink"><defs><path id="a" d="m8 9h32c2.209139 0 4 1.790861 4 4v22c0 2.209139-1.790861 4-4 4h-32c-2.209139 0-4-1.790861-4-4v-22c0-2.209139 1.790861-4 4-4z"/><path id="b" d="m0 0h40v30h-40z"/><mask id="c" fill="#fff"><use fill="#fff" fill-rule="evenodd" xlink:href="#a"/></mask><mask id="d" fill="#fff"><use fill="#fff" fill-rule="evenodd" xlink:href="#b"/></mask></defs><g fill="none" fill-rule="evenodd"><path d="m0 0h48v48h-48z"/><use fill="#d8d8d8" xlink:href="#a"/><g mask="url(#c)"><g fill-rule="nonzero" transform="translate(4 9)"><use fill="#ffe900" xlink:href="#b"/><path d="m-1.70546875.0140625.05039062 21.5964844 33.63164063-21.6105469-33.68203125.01394531z" fill="#35a100" mask="url(#d)"/><path d="m41.5912109 30.0310547-.0789257-22.4560547-33.92460942 22.4730469 34.00371092-.0165821z" fill="#c70000" mask="url(#d)"/><path d="m-1.68378906 23.2248633.02871093 6.7611328 7.33886719-.009375 35.84531254-24.03164063-.0404297-5.878125-7.2515625-.06685547-35.92089846 23.2248047z" fill="#000" mask="url(#d)"/><path d="m26.9290039 9.23554688-.5808398-2.47529297 1.9543359 1.58642578 2.2273828-1.44351563-1.0216992 2.42056641 1.9572656 1.58326173-2.5858594-.090293-1.0177734 2.4218555-.5762695-2.4764649-2.586211-.0867187zm-16.1276367 10.48300782-.5808399-2.475293 1.954336 1.5864258 2.2273828-1.4435156-1.0216992 2.4205664 1.9572656 1.5832617-2.5858594-.090293-1.0177734 2.4218555-.5762695-2.4764648-2.58621098-.0867188z" fill="#fff" mask="url(#d)"/></g></g></g></svg>