<svg height="48" viewBox="0 0 48 48" width="48" xmlns="http://www.w3.org/2000/svg" xmlns:xlink="http://www.w3.org/1999/xlink"><defs><path id="a" d="m8 9h32c2.209139 0 4 1.790861 4 4v22c0 2.209139-1.790861 4-4 4h-32c-2.209139 0-4-1.790861-4-4v-22c0-2.209139 1.790861-4 4-4z"/><mask id="b" fill="#fff"><use fill="#fff" fill-rule="evenodd" xlink:href="#a"/></mask></defs><g fill="none" fill-rule="evenodd"><path d="m0 0h48v48h-48z"/><use fill="#d8d8d8" xlink:href="#a"/><g mask="url(#b)"><g transform="translate(4 9)"><path d="m40 30h-40v-30h40z" fill="#fff" fill-rule="nonzero"/><path d="m4 .5c-1.93299662 0-3.5 1.56700338-3.5 3.5v22c0 1.9329966 1.56700338 3.5 3.5 3.5h32c1.9329966 0 3.5-1.5670034 3.5-3.5v-22c0-1.93299662-1.5670034-3.5-3.5-3.5z" fill="none" stroke="#dedede"/><g fill-rule="nonzero"><path d="m20.3719141 14.654707c0 3.6408399-2.9514844 6.5922657-6.5922071 6.5922657-3.6408398 0-6.592207-2.9514844-6.592207-6.5922657 0-3.6408398 2.9514258-6.592207 6.592207-6.592207 3.6408399 0 6.5922071 2.9514844 6.5922071 6.592207z" fill="#fff"/><path d="m28.585332 15.0392969c0 4.7507226-3.8105859 8.6017383-8.5113867 8.6017383s-8.5114453-3.8509571-8.5114453-8.6017383c0-4.7507813 3.8105859-8.6017969 8.5114453-8.6017969s8.5113281 3.8510742 8.5113281 8.6017969z" fill="#c70000"/><path d="m2.6875 7.04511719 4.90195313-5.67011719 1.16138671 1.00400391-4.90195312 5.67017578zm1.60541016 1.38791015 4.90195312-5.67011718 1.16132812 1.0040039-4.90195312 5.67011719z" fill="#000"/><path d="m2.6875 7.04511719 4.90195313-5.67011719 1.16138671 1.00400391-4.90195312 5.67017578z" fill="#000"/><path d="m2.6875 7.04511719 4.90195312-5.67011719 1.16138672 1.00400391-4.90195312 5.67017578zm3.24515625 2.80546875 4.90195315-5.67011719 1.1613281 1.0040625-4.90195312 5.67011715z" fill="#000"/><path d="m2.6875 7.04511719 4.90195313-5.67011719 1.16138671 1.00400391-4.90195312 5.67017578z" fill="#000"/><path d="m2.6875 7.04699219 4.90195312-5.67011719 1.16138672 1.00400391-4.90195312 5.67017578zm29.8142578-5.67199219 4.8633984 5.70322266-1.1681835.99609375-4.8633985-5.70316407zm-3.2640234 2.78337891 4.8633984 5.70322265-1.168125.99609374-4.8633984-5.70316405z" fill="#000"/><path d="m30.0625 7.47347656 4.6055859-3.97347656.8578711.99333984-4.9216406 4.42494141-.5418164-1.44486328z" fill="#fff"/><path d="m35.6857422 21.4339648-4.711875 5.6149805-1.1552344-.9609375 4.7119336-5.6149219zm-4.8266602-18.6839648 4.8633985 5.70316406-1.168125.99615235-4.8633985-5.70316407zm6.4231641 20.011875-4.7119336 5.6149805-1.1551758-.9608789 4.7119336-5.6149805zm-3.2276367-2.684707-4.7119336 5.615039-1.1551758-.9609375 4.711875-5.6149804z" fill="#000"/><path d="m11.7371997 13.5049676c.2690625 2.1664453.6619336 4.5805664 3.9960351 4.8313477 1.2496875.0748828 3.6806836-.2973047 4.515293-3.7025391 1.095-3.2712305 4.3930664-4.2117188 6.6375-2.4382617 1.2725391.830039 1.6246289 2.1483984 1.7158008 3.1381054-.1018945 3.1783008-1.9262109 5.9296875-4.2669727 7.1566407-2.6912109 1.5996093-6.4195312 1.6330078-9.6855468-.7904297-1.471875-1.3810547-3.5284571-3.9269531-2.9121094-8.1949219z" fill="#3d5897"/><path d="m31.098418 21.375 4.6133203 3.9645117-.8549414.995918-5.1067969-4.2100195z" fill="#fff"/><path d="m5.48068359 20.5625 4.86339841 5.7032227-1.16818356.9960937-4.86339844-5.7031641z" fill="#000"/><path d="m4.625 25.2859766 4.60558594-3.9734766.85787106.9933398-4.92164059 4.4249414-.54181641-1.4448632z" fill="#fff"/><path d="m7.11964844 19.1875 4.86345706 5.7031641-1.1681836.9960937-4.86339846-5.703164zm-3.26396485 2.7833789 4.86339844 5.7031641-1.168125.9960937-4.86345703-5.7031055z" fill="#000"/></g></g></g></g></svg>