<svg height="48" viewBox="0 0 48 48" width="48" xmlns="http://www.w3.org/2000/svg" xmlns:xlink="http://www.w3.org/1999/xlink"><defs><path id="a" d="m8 9h32c2.209139 0 4 1.790861 4 4v22c0 2.209139-1.790861 4-4 4h-32c-2.209139 0-4-1.790861-4-4v-22c0-2.209139 1.790861-4 4-4z"/><mask id="b" fill="#fff"><use fill="#fff" fill-rule="evenodd" xlink:href="#a"/></mask></defs><g fill="none" fill-rule="evenodd"><path d="m0 0h48v48h-48z"/><use fill="#d8d8d8" xlink:href="#a"/><g mask="url(#b)"><g transform="translate(4 9)"><path d="m0 0h40v30h-40z" fill="#006" fill-rule="nonzero"/><path d="m0 0h25v12.5h-25z" fill="#006" fill-rule="evenodd"/><g fill="none"><g fill-rule="nonzero"><path d="m0 0v1.693125l20.9006875 13.4505h2.630875v-1.693125l-20.90075-13.450375zm23.5315625 0v1.6930625l-20.90075 13.4505h-2.6308125v-1.6930625l20.9006875-13.4505z" fill="#fff"/><path d="m9.8048125 0v15.1435625h3.921875v-15.1435625zm-9.8048125 5.047875v5.0478125h23.5315625v-5.0478125z" fill="#fff"/><path d="m0 6.0574375v3.02875h23.5315625v-3.02875zm10.5891875-6.0574375v15.1435625h2.353125v-15.1435625zm-10.5891875 15.1435625 7.843875-5.047875h1.753875l-7.843875 5.047875zm0-15.1435625 7.843875 5.047875h-1.7539375l-6.0899375-3.919125zm13.9338125 5.047875 7.843875-5.047875h1.753875l-7.843875 5.047875zm9.59775 10.095625-7.843875-5.0478125h1.753875l6.09 3.9191875v1.1286875z" fill="#c00"/></g><g fill-rule="evenodd" transform="translate(21.5 7.875)"><path d="m6.520625 3.3213125c-.0630625.038125-.18925.1525-.3155.114375-.1261875-.038125-.410125-.533875-.725625-.457625-.315625.07625-.504875.1906875-.6310625.1906875-.12625 0-.4733125.1144375-.4733125.4195 0 .305125.0315625.5339375.0946875.5339375s.15775-.190625.15775-.190625.0315625.38125.2524375.38125.694125.0381875.725625.152625c.031625.114375-.2208125.381375-.1576875.6101875s.3470625.6101875.3470625.6101875-.4101875.3050625-.4101875.4958125.063125.381375.063125.381375l-1.83.07625s-.12625 5.4154375-.063125 5.835c.063125.419375.2208125 1.449125.2208125 1.449125s-.410125-.133375-.75725.209875c-.3470625.3433125-1.56175.93425-1.5933125 1.2011875s-.142.495875-.01575.6865c.1261875.190625.57025.70875.4416875.6865625-.4235625-.073125-.58125-.674875-.867625-.89625-.2815-.21725-.836125-.1715625-.8991875.057125-.063125.228875-.0315625.6101875 0 .6865.0315.07625.3785625 1.2966875.47325 1.563625s1.0885.6673125 1.53025.62925c.8360625.019 1.2146875-.36225 1.24625-.324.0315625.038 1.79875 1.8605 5.426875 1.868625 2.82425.00625 4.953625-1.830625 4.953625-1.792375 0 .0380625 1.1674375.3813125 1.5775625.267.4101875-.114625 1.0096875-.3815625 1.135875-.6485.12625-.266875.4733125-1.6399375.504875-1.8685625.0315625-.2289375 0-.495875-.284-.5721875s-.4416875-.05725-.5994375.019-.205125.28625-.44175.6675c-.1261875.1145625-.4575.4195625-.3628125.34325s.2996875-.64825.33125-.839125c.0315625-.190625.12625-.533875-.094625-.7245625-.220875-.190625-.5591875-.2685625-.9465625-.552875-.367875-.252125-.6625-.6675-.8834375-.6675-.220875 0-.4733125-.1143125-.44175-.1143125s.2845-.5540625.221375-1.126c-.063125-.5721875.031-6.04375-.0005-6.04375-.0315625 0-1.577625.114375-1.577625.038125s.12625-.6101875 0-.9534375c-.1261875-.3431875-.6625625-.5720625-.5048125-.6483125s.851875-.2669375.8203125-.5720625-.47325-.2669375-.6625625-.381375c-.1893125-.114375-.75725-.6483125-.820375-.6483125s1.640625-1.0296875 1.5145-1.0296875c-.1261875 0-.78875-.190625-1.009625-.07625 0-.1906875.915-.76275.75725-.8390625-.15775-.07625-.8835-.1525-.6941875-.190625.189375-.038125.2524375-.4958125.220875-.4958125s-.8203125.114375-.8203125.114375-.189375-.266875-.2524375-.266875c-.063125 0-.3470625.1525-.3470625.1525l-.15775-.4195-.3470625.2288125-.15775-.1906875s-.284.07625-.284 0c.0119375-.00275-.0326875-.1915-.07725-.1915-.0446875 0-.357.2426875-.368125.2291875-.0111875-.0134375-.357-.498875-.357-.485375s-.2454375.916875-.2565625.916875-.2454375.0269375-.2565625.0404375c-.0111875.0135-1.249375-.714625-1.2381875-.701125.011125.0135.3234375.701125.3234375.701125s-.2676875.1483125-.2676875.161875c0 .0134375.044625.31.044625.31l-.825625-.283125s.312375.6336875.29.6336875c-.02225 0-.6135.027-.6023125.027.011125 0 .278875.5258125.278875.5258125l-.100375.310125s.8885625.6270625.8254375.66525zm5.2691875 13.2716875c.078875.114375.5048125.64825.4416875.64825s-1.12.7055625-1.5460625.839125c-.4259375.133375-1.8141875.38125-1.7353125.36225s1.246625-.6584375 1.7199375-.963375c.47325-.305 1.1196875-.848125 1.1196875-.88625zm-6.5945625-.01925c-.063125.07625-.362875.6675-.362875.6675s.8676875.6101875 1.5145.8390625c.6468125.2286875 1.751125.305 1.688.2859375-.063125-.019-1.38825-.6101875-1.766875-.9151875-.378625-.3051875-1.057-.877375-1.0728125-.877375z" fill="#fff"/><g fill="#fec500" stroke="#6d6666" stroke-width=".1" transform="translate(5.75 .5)"><path d="m.13822188 1.95175577s.55215868.40041852.67835487.49576289c.12619619.09534436.53636737.5148503.56791162.49578607.03156344-.01906424.25241157-.22881721.25241157-.22881721s-.45748757-.43857017-.74144338-.53391454-.75723468-.19068874-.75723468-.22881721z"/><path d="m.05936125 1.5131856c.04733556 0 .91499431.53393773 1.183178.80088341.26818369.26694567.37860775.61019467.41017119.61019467.03154425 0 .44171543-.07628013.42592412-.07628013-.01577212 0-.18930387-.68645161-.58368375-.89620458-.39439906-.20975297-1.41979825-.43859337-1.43558956-.43859337z"/><path d="m4.1451475.13372558c-.01577213 0-.17353175.5720662-.22086731.74366751-.04731638.1716245-.12619619.53391454-.12619619.53391454s-.694127.07628013-.66258275-.01906423c.03156344-.09534437 1.05696262-1.25851782 1.00964625-1.25851782z"/><path d="m.2170825.8266876s.82034237.66738738 1.10429819 1.04876485c.28395581.38135428.56791162 1.04876485.58368375 1.04876485.01579131 0 .77300681-.19068874.77300681-.1716245 0 .01906423-.88343088-1.06782909-1.30937419-1.39199066s-1.13584243-.49578607-1.15161456-.53391454z"/><path d="m1.0690075.64859908s.41017119.76273174.48903181 1.02970061c.07887981.26694567.31551925.95342048.31551925.95342048h.64679144s-.31550006-.85807611-.66256356-1.27758205-.77300682-.66738738-.78877894-.70553904z"/><path d="m1.28966375.22904675c.01579131.0572159.59947506.72460328.74146256 1.16317345.14196831.43857018.25241156.99157215.25241156.99157215l.56791163-.1716245s-.50482313-1.12504499-.82032319-1.43014232c-.31551925-.30507415-.70989912-.51482712-.74146256-.55297878z"/><path d="m6.00671875 2.0280591s-1.18315881.15256027-1.60910213.2860331c-.42594331.13347284-.66258275.62925891-.66258275.62925891s.55215869.24788144.58370294.20975297.36283563-.43857017.72567125-.59113044c.36283563-.15253707.99385494-.5148503.96231069-.53391454z"/><path d="m5.95932562 1.09363327c-.03156343.01908743-.97808281.95344368-1.27782993 1.25851782-.29972794.30509734-.58370294.62925891-.61524719.64832315-.03154425.01908743-.61524719-.09532118-.58370294-.13347284.03156344-.03812847.86765875-.85807611 1.41981744-1.22036615.5521395-.36231324 1.00962706-.51485031 1.05696262-.55300198z"/><path d="m5.72274375.42615313c-.09465194.13347283-1.02541838 1.04876484-1.27782994 1.37292642-.25241156.32416157-.66256356.89622777-.66256356.89622777s-.489051-.26696886-.45748756-.38137747c.03154425-.1144086.69410781-.78179598 1.16738668-1.16317345.47325969-.38137747 1.27781075-.6864748 1.23049438-.72460327z"/><path d="m4.77622437.3498498c-.01577212.01908743-.56791162.72460328-.67835487.91529201-.11042406.19068874-.44171544 1.02970062-.44171544 1.02970062s-.48903181-.51485031-.48903181-.53391455c0-.01906423.61524719-.8008834.97808281-1.10598074.36283563-.30509734.64679144-.24788144.63101931-.30509734z"/><path d="m3.40853937 1.39168678c0 .13405265-.08989343.24270951-.20079718.24270951s-.20079719-.10865686-.20079719-.24270951.08989344-.24270952.20079719-.24270952.20079718.10865687.20079718.24270952zm.40159438.3237673c0 .11913987-.08989344.21573663-.20079719.21573663s-.20079719-.09659676-.20079719-.21573663c0-.11913988.08989344-.21573664.20079719-.21573664s.20079719.09659676.20079719.21573664zm-.89241063-.24282548c0 .11913987-.10986762.21573664-.24540812.21573664s-.24540813-.09659677-.24540813-.21573664.10986763-.21573663.24540813-.21573663.24540812.09659676.24540812.21573663z"/><path d="m3.56472562 1.91769268c0 .23085814-.12485306.41797523-.27887112.41797523s-.27887113-.18714028-.27887113-.41797523c0-.23085815.12485307-.41797524.27887113-.41797524s.27887112.18714028.27887112.41797524zm-.75848187.01345165c0 .1787214-.12485306.32360495-.27887113.32360495-.15401806 0-.27887112-.14488355-.27887112-.32360495 0-.17872141.12485306-.32360496.27887112-.32360496.15401807 0 .27887113.14488355.27887113.32360496z"/><path d="m2.42690687 2.18742145c0 .15638703-.09490137.28315723-.21194512.28315723s-.21194513-.1267702-.21194513-.28315723.09488219-.28315723.21194513-.28315723c.11704375 0 .21194512.1267702.21194512.28315723zm1.56167063-.02713522c0 .18616619-.14482725.33707979-.32350125.33707979-.17865481 0-.32350125-.1509136-.32350125-.33707979 0-.1861662.14482725-.3370798.32350125-.3370798.17865481 0 .32350125.1509136.32350125.3370798zm-.78073938-.48541903c0 .11169508-.11487556.2022386-.25657525.2022386-.14169968 0-.25657524-.09054352-.25657524-.2022386s.11487556-.2022386.25657524-.2022386c.14169969 0 .25657525.09054352.25657525.2022386z"/><path d="m3.25235312 2.11993128c0 .16383182-.15983187.29663207-.35696425.29663207-.19713237 0-.35696425-.13280025-.35696425-.29663207s.15983188-.29663208.35696425-.29663208c.19713238 0 .35696425.13280026.35696425.29663208zm.91466813.52577397c0 .20107897-.14983519.36405267-.33464919.36405267s-.33464919-.16299689-.33464919-.36405267.14983519-.36405267.33464919-.36405267c.18483319 0 .33464919.16299689.33464919.36405267zm-1.82933625-.09439347c0 .13405264-.08490469.24270951-.18963006.24270951-.10472538 0-.18964925-.10865687-.18964925-.24270951 0-.13405265.08490468-.24270952.18964925-.24270952.10474456 0 .18963006.10865687.18963006.24270952z"/><path d="m3.676205 2.51095683c0 .17127661-.129861.31013011-.29003825.31013011s-.29003825-.1388535-.29003825-.31013011c0-.17127662.129861-.31013012.29003825-.31013012s.29003825.1388535.29003825.31013012zm-.91466813-.01345166c0 .14894224-.11487556.2696592-.25655606.2696592-.14169969 0-.25655606-.12074015-.25655606-.2696592 0-.14894223.11487556-.26965919.25655606-.26965919.14169969 0 .25655606.12074015.25655606.26965919z"/><path d="m3.20783812 2.57821508c0 .16383182-.11986431.29663207-.26772318.29663207-.14785888 0-.26772319-.13280025-.26772319-.29663207s.11986431-.29663208.26772319-.29663208c.14785887 0 .26772318.13280026.26772318.29663208zm-1.16026812-1.77979245c.066926 0 .53544637.18876375.53544637.18876375s-.58007649.26968239-.49083543.24270952c.08924106-.02697288.6470025-.10786832.60237237-.10786832-.04461094 0-.49081625.51236871-.35696425.48539583.13387119-.02694968.40159438-.35055464.42389025-.35055464.02231507 0 .29003825.51236871.31235331.48539584.02229588-.02697288 0-.51236871.02229588-.51236871.02231506 0 .55776144.32360495.51313131.29663207-.04461094-.02697288-.35694506-.40450039-.33464918-.40450039.02231506 0 .73624356.08089544.69161343.05392256-.04461094-.02694968-.46850119-.2696592-.46850119-.2696592s.31233413-.35055463.24540813-.35055463-.58005731.35055463-.53544638.32358176c.04463013-.02694969.55776144-.72808216.55776144-.72808216l-.51313131.29663208s.08924106-.43147327.04461094-.40452359c-.04461094.02697288-.40157519.56631447-.42389025.56631447-.02231507 0-.11155613-.53934159-.11155613-.53934159s.02231507.59326415-.11153693.62023703c-.13387119.02697288-.60237238.13484119-.60237238.10786832z"/></g><g fill-rule="nonzero" transform="translate(4.625 3.1875)"><path d="m1.7193125 2.471c.011125.0539375.368125 1.02475.91475.99775s.7696875-.18875.747375-.20225-.2565625-.17525-.3904375-.525875c-.133875-.3505625-.1561875-.498875-.1561875-.498875zm1.9521875-.3775625s.4015625.9573125.58 1.092125c.1785625.134875.59125.24275.76975.22925s.3904375 0 .3904375 0-.1784375-.094375-.3235-.62025-.189625-.701125-.189625-.701125zm2.454125.3505625s-.078125.701125 0 .8764375.4685.498875.4685.498875.4685-.0674375.4796875-.498875c.011125-.4315-.1561875-.836-.1561875-.836z" fill="#00389b"/><g stroke-width=".1"><path d="m1.33984875 1.21707789s.02231506.10784512 0 .18878695c-.02231506.08094182-.21194512.29663207-.21194512.4718978 0 .17528891.22309306.71460731.90355856.72810534.68044631.01347484 1.53939394-.44494811 1.52822681-.45844615-.01112875-.01345165-1.628635-1.32136949-1.6508925-1.30789465-.0222575.01349804-.56890937.40450039-.56890937.3775739zm4.49543938.93034394s.14499993.47192099.200778.52586675c.05577806.05392256.07809312.16179088.08924106.16179088.01114793 0 .93702156.24268632.93702156.24268632s.08924106-.31008373-.04461094-.55281643c-.13387118-.24270951-.63583537-.87642138-.63583537-.87642138l-.54665188.49889386zm.63587375-.5797893c.02229587 0 .24540812.22921147.42389025.10784512.17846293-.12131997.46850118-.44492492.46850118-.44492492s-.24540812.09439348-.42389025.08089544c-.17848212-.01347484-.45735325.2696592-.46850118.25618436z" fill="#005120" stroke="#000"/><path d="m1.3064625 1.27100045s-.066926-.22921148-.24540812-.24270951c-.17848213-.01347484-.50198338.02697288-.61352032-.08089544-.11155612-.10786832-.14501912-.36405267-.20079718-.35057783-.05577807.01347484-.20079719 0-.21194513 0s-.066926-.21573664.08924106-.32360495c.15616707-.10786832.29003825-.01349804.37926013-.09439348.08924106-.08089544.22311225-.13484119.40159437-.14831604.17848213-.01347484.46850119.26968239.60237238.3370798.133852.0674206.42389025.14831604.53542719.08089544.11155612-.0674206.73624356-.36405267.95933662-.37752752.22309306-.01347484.69161344-.02694968.87009556-.01347484.17848213.01347484.8812435.12134316 1.09318863.24270951.21194512.12134316 1.33859675.59326415 1.49476381.70110928.15616706.10789151.50198338.26968239.50198338.26968239s-.6135395.72810534-.9147065.8494485c-.30118619.12134316-1.26052282.31013011-1.82943219.2696592-.56890938-.04044772-1.0150955-.10786832-1.45015288-.37752751-.4351725-.26963601-.90373125-.52582036-.92598875-.66066156-.0222575-.134818-.01112875-.31010692-.01112875-.31010692l-.52427925.22921148z" fill="#005120" stroke="#000"/><path d="m.61475313.39457907c-.02231507.01347484-.133852.0674206-.11155613.09439347.02231506.02694969.06694519.10784513.20079719.09439348.13387119-.01349804.27887112-.10789151.27887112-.10789151s-.167315-.09439348-.36811218-.08089544z" fill="#005120" stroke="#000"/><path d="m.60362438.42155195v.14831603s.15616706.05392257.15616706.01347485.01114794-.13481801-.02231506-.13481801-.12270407-.01349803-.133852-.02697287z" fill="#000" stroke="#000"/><path d="m2.16510313.5336413c.0394495-.08581225 0-.20019766.22875337-.33369369.22873419-.13347284.62706669-.09532118.62706669-.09532118s-.1143575.1048533-.11831013.21450744c-.00393343.10963094.00788607.15731472.00788607.15731472s-.21691469-.08581225-.38256038-.033374c-.16564569.05243824-.358883.10487648-.36283562.09056671zm1.02557187-.46716653c-.02365819.01430977-.19718994.24788144-.17748437.31940711.01972475.07150248.25241156.24312698.32735793.22881721.07492719-.01428658.41803807-.21453063.43776282-.31462946s.03549687-.23359486.00788606-.26219121-.591589.03815166-.59552244.02859635zm.75330125-.03812847c-.04338294.05243824-.02761081.30509734-.01183869.33369369.01577213.02859635.28790844.35753558.3470635.37659982.05915507.01906423.49693707-.03337401.53243394-.09056672.03549688-.0571927.14196831-.30034287.11042406-.35753558-.03156343-.05721589-.12621537-.13349603-.41805725-.20975297-.29184187-.07625694-.46537362-.06674801-.56002556-.05243824zm1.115945.31938392c.07099375.04290612.48509838.2860331.72962388.4814763.24450631.1954432.34311087.41950594.41410462.43857017.07099375.01906424.358883-.19068873.37072169-.24788144.01183869-.05721589-.35099694-.36229004-.59552244-.50054053-.2445255-.1382273-.91892775-.15731473-.91892775-.1716245zm-.0867275.20499851c-.03549687.03812847.44171544 1.04398719.53241475 1.0773612.0907185.03335081.63497194-.19546639.62708588-.27172333-.00786688-.07625694-.14985438-.22881721-.48506-.45285676-.33520563-.22406274-.60728438-.37184535-.67444063-.35278111zm-.59155062.3670445c-.07492719.05243824-.19323732.95344368-.11831013.9963498.07492719.04290613.99780756-.10965414 1.03330444-.20975297.03547769-.10012202-.37862694-.89622778-.50088969-.89622778-.12224356 0-.34311087.03815167-.41410462.10965414zm-.95438625-.19066554c-.09862375.10963095-.07886063.94864283-.03549688 1.00108107.04338294.05241505.59156981.22403955.65072488.16206919.05917425-.06197036.13805406-1.00585873.08283243-1.0773612-.05522162-.07150248-.20902862-.24312698-.32733875-.25741356-.11832931-.01428658-.31551925.1382273-.37072168.1716245zm-1.23836126-.01430977c-.0907185.08581225-.09465193.3098518.00393344.34800346.09860456.03812847.34311088.16684684.57186425.2860331.22875338.11918626.35890219.26219121.42594331.25741356.06704113-.00477766.13014882-.84376634.05915507-.89145012-.07099375-.04766059-.28002238-.08581225-.47721232-.07628014-.19718993.00953212-.48509837.0333972-.58368375.07628014z" fill="#001707" stroke="#000007"/></g></g><path d="m2.7485 14.5750625c.161875-.1575.4135-.542625.7550625-.560125.341625-.0175.70125.2975625.70125.2975625s.3595 1.4705.3415625 1.4705c-.018 0-.5933125.420125-.61125.420125-.018 0-.25175-.5776875-.4675-.52525-.2156875.0525625-.19775.8403125-.2336875.7878125s-.9528125-1.137875-.916875-1.172875c.036-.035.4495-.665125.4315-.7176875zm9.493125-.1925625c.107875-.0175.5933125-.3851875.934875-.367625.341625.0175.539375.175.719125.3325625s.3955625.560125.3955625.560125-.4315 1.190375-.4674375 1.190375-.21575.1050625-.25175.0175-.14375-.367625-.3595625-.402625c-.2156875-.035-.2696875.3850625-.2696875.3850625l-.7010625-1.7154375z" fill="#d40f0f" fill-opacity=".996"/><path d="m12.47525 14.7504375c0 .105125.6651875 1.750625 1.7439375 2.065625 1.078625.3150625 1.42025-.2975625 1.5460625-.507625s.5753125-.1925.5753125-.1925-.1078125 1.5404375-.2876875 1.7329375c-.17975.1925625-.323625.6126875-1.330375.630125-1.0066875.0175625-1.923625-.9451875-2.2291875-1.2253125-.30575-.280125-.70125-1.01525-.863125-1.3479375-.1616875-.3325.8630625-1.12025.845-1.1553125zm-11.72225 3.2729375c.018 0 .4854375.5076875 1.1685625.455125.6831875-.0524375 1.8518125-.455125 2.391125-1.1553125.539375-.700125.809-1.4529375.809-1.4529375s-.791-1.400375-.809-1.400375-.089875.455125-.23375.7526875c-.1438125.297625-.539375 1.1378125-1.2045 1.4005-.66525.2625-.66525.3675-.934875.3325-.2696875-.035-.9708125-.4550625-.9708125-.472625 0-.0175-.3415625.8228125-.3415625.8228125s-.0719375.542625.1258125.7176875z" fill="#fddc59" fill-opacity=".996"/><path d="m2.736375 14.5264375c-.050875 0-1.322125.6931875-1.27125.99025.0508125.2970625 2.1865625 4.5055625 6.762875 4.555 4.5764375.049625 7.3734375-3.812375 7.1699375-4.456-.203375-.643625-1.627125-1.3863125-1.627125-1.3863125s.355875.2970625.3050625.693125c-.050875.396125-1.62725 3.8125-5.5935625 3.7135-3.9663125-.0990625-5.8478125-3.11925-5.8478125-3.4658125s.2034375-.5446875.10175-.6436875z" fill="#fddc59" fill-opacity=".996"/><path d="m15.1356875 17.58625c.1079375-.0875.773125-1.9080625 1.150625-1.8555.377625.0525.2518125.595125.2158125.7351875-.0359375.14-.4135 1.4004375-.4135 1.4004375s.018-.297625-.23375-.367625c-.251625-.07-.6651875.1225625-.719125.0875625zm-14.3826875.4556875c0-.0989375-.305125-.4455625.0508125-.544625.356-.0989375.8136875.0990625.8136875.0990625s-.2543125-.7426875-.559375-1.336875c-.305125-.5940625-.406875-.495-.6610625-.3960625-.25425.0990625-.248125.361125-.0955.7571875.1525.396125.4514375 1.520375.4514375 1.4213125z" fill="#d40f0f" fill-opacity=".996"/><path d="m4.9485 14.6466875.4414375-1.4951875-1.226-.939875 1.5355-.0354375.50075-1.4755.5076875 1.473 1.5354375.0284375-1.2218125.945625.448125 1.4929375-1.2625625-.8885z" fill="#fdc400"/><path d="m13.2273455 6.8645625-.000033 5.7525c.01125 2.8114375-2.8555625 5.273375-4.7591875 5.7525-1.9038125-.479125-4.7705-2.9410625-4.7591875-5.75225v-5.7525h9.518375z" fill="#fff"/><g fill-opacity=".996"><path d="m3.7087575 6.86464839.00807794 3.59924701s.04578137-.0736286.67179275-.0287528c.62603056.0448758.67987068.7934556 1.35976056.7934556.67987069 0 .67987069-.7934556 1.35974137-.7934556.67987069 0 .67987069.7934556 1.35974138.7934556s.67987069-.7934556 1.35974137-.7934556c.67987073 0 .67987073.7934556 1.39819313.8388241.6414189-.0453685.6414189-.8388241 1.3251271-.8836999l.6760332.0448758v-3.57058379h-9.5182088z" fill="#d40f0f" stroke="#000" stroke-width=".1"/><path d="m3.70875 11.625375v1.1901875h.6799375c.626.044875.679875.7934375 1.35975.7934375s.679875-.7934375 1.35975-.7934375.679875.7934375 1.3598125.7934375.679875-.7934375 1.35975-.7934375.6414375.7480625 1.35975.7934375c.6414375-.045375.6760625-.7485625 1.3598125-.7934375h.679875v-1.1901875h-.679875c-.6799375 0-.6799375.7934375-1.3598125.7934375s-.679875-.7934375-1.35975-.7934375-.679875.793375-1.35975.793375c-.6799375 0-.6799375-.7934375-1.3598125-.7934375s-.679875.7934375-1.35975.7934375-.679875-.7934375-1.35975-.7934375h-.6799375zm.2051875 2.380125.47475 1.1901875c.6260625.044875.679875.7934375 1.3598125.7934375.679875 0 .679875-.7934375 1.35975-.7934375s.679875.7934375 1.35975.7934375.6799375-.7934375 1.3598125-.7934375.6414375.748125 1.35975.7934375c.6414375-.045375.66025-.7485625 1.344-.7934375l.490625-1.2085625-.474875.018375c-.679875 0-.679875.7934375-1.35975.7935-.679875 0-.679875-.7935-1.35975-.7935s-.679875.7934375-1.3598125.7934375c-.679875 0-.679875-.7934375-1.35975-.7934375s-.679875.7934375-1.35975.7934375-.679875-.7934375-1.3598125-.7934375zm4.5541875 4.3639375c.6799375 0 2.2376875-1.1901875 2.22175-1.1901875.0158125 0-.182125-.7934375-.862-.7934375s-.679875.7934375-1.3598125.7934375c-.679875 0-.679875-.7934375-1.35975-.7934375s-.8534375.7934375-.855.7934375c-.0315 0 1.534875 1.1901875 2.2146875 1.1901875z" fill="#0062bb"/><path d="m4.95330778 9.61111738c.07708819 0 .77106944.10059738 1.27214266.06706492.501167-.03353246.69398125-.20127636.69398125-.23480882v-.10059739h.65534337s.11563228.46953606.0385441.50306852c-.07708819.03353247-.26990244.16774389-.30844653.16774389-.0385441 0 0-.23480881-.07708819-.16774389-.07708819.06706493-.11563228.16774389-.11563228.16774389s-.07708819-.10067896-.11563228-.10067896c-.0385441 0-.11563229.10067896-.11563229.10067896s0-.10067896-.03863787-.10067896c-.03854409 0-.23126456.16774386-.23126456.16774386l-.19272047-.1342114s-.11572606.1677439-.15427016.1677439c-.03854409 0-.26980865-.13412985-.26980865-.13412985l-.38553472.20119475s0-.30187372-.07708819-.26834126-.501167.03353246-.501167.03353246-.11572606.2012764-.15427016.2012764c-.03854409 0-.19272047-.16766235-.15417637-.16766235.03854409 0 .11563228-.10067897.07708819-.13421144-.03845032-.03353246-.23126457 0-.23126457-.03353246s-.07708818-.23480882-.03854409-.23480882.19272047.03361405.19272047.03361405v-.20127637h.19272047z" fill="#fdc400" stroke="#000" stroke-width=".1"/><path d="m5.64719525 7.6991959c-.03854409 0-.30844653.26834129-.26990244.57013345.0385441.30187375.69398125.73787735.69398125.73787735s.34699063-.13412985.46262291 0 .11563228.53660099.07708819.53660099c-.0385441 0-.501167.10067897-.501167.03345087 0-.06698334 0-.13404826-.0385441-.13404826-.03854409 0-.4626229.03345087-.4626229.03345087l.03854409-.13404826-.38544094-.06706492.15417638-.13421144s-.61689306-.23472724-.57834897-.23472724.26990244-.13412985.26990244-.13412985l-.46262291-.26850446h.26990244s-.38553472-.2682597-.34699063-.2682597c.03845032 0 .23126457.03345087.23126457.03345087l-.11563229-.26817811h.11563229l-.11563229-.20127636.19272047-.06706493.11572607.16766232-.0385441-.40247114.26980866.03361405v.33532463s.11563228-.20119478.11563228-.23472724.34699062.13412985.30844653.06706492z" fill="#fdc400" stroke="#000" stroke-width=".1"/><path d="m11.6228125 9.7783125c-.0481875.0419375-.1928125.134125-.1928125.134125s.32775-.025125.318125-.025125-.115625-.083875-.1253125-.109zm.2794375.1590625c-.0191875.0251875-.0770625.285125-.0385.2683125.0385-.01675.1926875-.209625.1926875-.209625zm.4426875.0335c.048125.041875.2698125.2346875.240875.19275-.028875-.041875-.0578125-.218-.0770625-.22625-.019375-.0084375-.144625.0501875-.1638125.0335zm-3.8834375-.276625c-.028875.0084375-.2698125.16775-.2698125.16775s.4048125-.067125.3854375-.067125c-.0191875 0-.12525-.075375-.115625-.100625zm.250375.2015625c-.0385.0335-.16375.26825-.115625.2599375.04825-.0084375.26025-.159375.26025-.159375l-.1445625-.100625zm-.1546875-.3271875c-.028875-.008375-.231375-.09225-.2216875-.09225s.269875-.0586875.269875-.0586875zm-3.8160625-.1085-.289125-.20125.36625.100625zm-.2505625.1338125c-.0385625 0-.4048125.2011875-.3951875.2011875s.5108125.008375.5011875 0c-.009625-.0083125-.08675-.184375-.106-.20125zm.23125.2936875c-.0385625.016875-.3276875.209625-.3084375.209625.0193125 0 .43375.008375.43375 0s-.1156875-.20125-.1253125-.209625zm-.0385625-2.088125s-.106-.23475-.096375-.23475.269875.1844375.269875.1844375zm.289125-.2935c0-.008375.0289375-.150875.0289375-.150875s.2601875.1760625.2505625.1760625-.26025 0-.2795-.0251875zm.4048125.109c0-.008375.0289375-.218.0289375-.218s.2409375.285125.2216875.2935c-.0193125.008375-.2313125-.041875-.250625-.0755z" fill="#000"/><path d="m9.24178938 9.08210275c0 .01680703.40475987.30187375.41441934.36893868.00956569.06706492-.73252534.08387195-.73252534.08387195s-.21203941-.14253337-.27946813-.13421144c-.0675225.00840351-.09640712.15093687-.09640712.15093687l.17349531.08387195-.32767169.01672544.09640713.15934039.2505835-.01680703-.05786304.15093688s.15417638.10067896.18315479.08387196c.02888462-.0167254.12529175-.16766232.20237993-.19287286.07708819-.02512895.24092403-.02512895.24092403-.02512895s-.12529175.18446934-.06742871.18446934c.05776925 0 .31801221-.19287285.31801221-.19287285s.05786304.17606582.06742872.17606582c.00965947 0 .19281425-.20119477.19281425-.20119477s0 .15934038.02888463.15934038c.02888462 0 .29878711-.20127636.29878711-.20127636s.2120394.23480883.240924.2180018c.0289784-.01672544.057863-.25153426.0867476-.25153426.0288847 0 .2120394-.02512895.2120394-.03353246 0-.00840352-.1156322-.09227547-.1349512-.20959829-.0192251-.11740441.019319-.39406763.0096595-.39406763s-1.30112107.04185439-1.32034622.01672544z" fill="#fdc400" stroke="#000" stroke-width=".1"/><path d="m7.18891781 8.571365h3.77807149c.3855347 0 .7324315-.13412985.7324315-.33540621 0-.20119478-.6167993-.23472724-.8480638-.16766232-.2313584.06706493-1.23369237.46953607-1.65777119.4360036-.42407881-.03353246-.80951975-.26834128-.84806384-.50306852-.03863788-.23480883.19272047-.4360036.61679928-.4360036s.96378991.13412985 1.07942215.10059739c.1156323-.03353247.3855348-.30187375.501167-.33532463.1156323-.03361405.4626229-.06714651.4626229-.06714651l-.1541763.10059739.501167-.10059739s-.3855347.36893868-.7710695.46953606c-.3855347.10067898-1.19505444.06706493-1.50350097.06706493s-.4626229-.03345088-.42407881.1677439c.03854409.20119477.26990244.33540621.46262291.30179216.19281425-.03353246.77106943-.20119477.77106943-.20119477l-.15427015-.10059739.69398129-.03353247s-.0385441-.10059738 0-.10059738.3855347.03345087.3855347.03345087-.2313584-.10059739-.1928143-.10059739.1928143 0 .501167.03361405c.3084466.03345088.9637899.13412985.9252458.40238955-.0385441.26834129-.2698086.50306853-.5397111.50306853-.2699024 0-.501167-.06706493-.501167.03361405 0 .10059739.3084466.16766231.501167.16766231.1927205 0 .4240789-.13412985.462623-.13412985.038544 0 .1156322.20119478.1541763.20119478s.2699025-.06706493.2699025-.06706493l-.1541764.36893868.2698086.06706492s-.1541763.13412985-.1156322.13412985.2698086 0 .2698086.03353246c0 .03353247-.3083527.23480883-.3083527.26834129 0 .03353247.2312645.13412985.2312645.13412985s-.1541763.20127634-.1927204.16774394c-.0385441-.0335325-.1928143-.2012764-.1928143-.2012764s-.0385441.1342114-.1156323.1342114-.2312645-.03353243-.2312645-.03353243.1156323-.20127636.0770882-.20127636-.2313584.13412985-.2313584.10059739l-.1155385-.10084215s.3083528-.1090009.3083528-.26834129c0-.1592588-.1252918-.31859919-.684228-.34372813-.5590301-.02521054-.5686895.11732282-.9831089.10059738-.41441932-.01680702-.41441932-.15934038-.72286586-.15934038-.30835275 0-1.26257696.33540621-1.70588093.3270027-.44330397-.00832193-1.002334-.03353247-.98310885-.0502579.01931894-.01680703.36630957-.78821684.37587525-.81310103z" fill="#fdc400" stroke="#000" stroke-width=".1"/><path d="m6.456715 8.37833025c-.03854409.01680703-.37587525.058743-.39519419.36893868-.01922515.31027726.02897841.31027726.0675225.29347023.0385441-.01672543.11563228-.28506672.11563228-.28506672s-.11563228.36893867.00965947.45281062c.07851689.05160241.16650739.09127031.26024297.11732283l.04810978-.29347024s-.09631334.28514831.13495122.3857457c.23135835.10059739.318106.02512895.29878706-.05033949-.01922515-.07546843-.08674765-.2682597-.08674765-.2682597s.18315478.17606583.19281425.19279127c.00956569.01680702.09631334.15093687.32767169.09227546.23126456-.058743.06742871-.19287285.06742871-.19287285l-.27946812-.20070525s.28912759.25985619.41441934.16766231c.12529175-.09219387-.09640712-.29347024-.08674765-.28506672.00965947.00840351.18315478.28506672.2505835.1090009.06742872-.17606583-.10597282-.22640532-.16383585-.39406763-.05786303-.1677439-.10606659-.18446934-.04820356-.28514831.05786303-.10059739.0675225-.29338865.0675225-.29338865s.24092403.0502579.22160509-.12580793c-.01922515-.17606582-.26024296-.2180018-.30835275-.22640531-.04820356-.00840351-.03863787-.18438775-.05786303-.17606582-.01931893.00840351-.17349531.1090009-.17349531.1090009s-.13495122-.2767448-.16383584-.25993778c-.02888463.01680703-.18315478.15934039-.29878707.16766231-.11563228.00840352-.18315478.15093688-.18315478.15093688s-.40475987-.16766231-.3951004.1090009c.00965947.2767448.24092403.20967987.24092403.2180018 0 .00832192-.0385441.3857457-.07708819.40247114z" fill="#fdc400" stroke="#000" stroke-width=".1"/><path d="m6.679625 7.9535625c.04660359-.0141875.11512721-.073375.19457943-.06625s.20670139.0678125.14370489.1009375c-.06312212.033125-.1096001.047375-.18088727.0306875-.07116156-.0166875-.1259302-.0523125-.15739705-.065375zm.79000002-.008375c-.04660359-.0141875-.11512721-.0734375-.19457943-.06625s-.20663858.0678125-.14364208.1009375c.06305932.033125.1096001.0473125.18088727.030625.07109875-.016625.12586739-.05225.15733424-.0653125z" fill="#000"/><path d="m6.85521844 8.44025737c.00965947.04193598.03854409.39414922.05776925.36893868.01931893-.02512895.16392962-.36053516.15427015-.36053516s-.20237993.00840351-.2120394-.00840352z" fill="#000039" stroke="#000" stroke-width=".1"/></g><path d="m6.75862375 8.45213237c.00459528-.09912881.07708819-.09219387.23135834-.07546843.15417638.01680702.23126457.08387195.2216051.10067897-.00956569.01672544-.13485744.05866141-.24092403.0502579-.12529175-.03353246-.21550932.00726129-.21203941-.07546844z" stroke="#000" stroke-width=".1"/><path d="m6.9915445 8.200027-.0206.15934039m.66547175-.58653254s.12529175.05033949.10606659.10059739c-.01931893.05033949-.10606659.07546843-.10606659.07546843m-1.04444303-.21800179c-.0308.00840351-.0719.02512895-.0925.09219387-.0205.06714651.0925.10908249.0925.10908249" stroke="#000" stroke-width=".1"/><path d="m6.88759969 8.08188138s-.13635794.11862822.09537553.11862822.06817897-.10671645.06817897-.10671645" stroke="#000" stroke-width=".1"/><path d="m7.39675 17.36.400625-1.316375-1.1125-.8275 1.3933125-.031125.4544375-1.299.460625 1.296875 1.393375.025-1.10875.8325.406625 1.314375-1.145625-.78225z" fill="#fdc400"/><path d="m7.5864375 17.0071875.33375-1.045625-.927-.657375 1.1610625-.02475.37875-1.031875.3838125 1.030125 1.161125.019875-.9239375.661375.3388125 1.0440625-.9546875-.621375z" fill="#003017" fill-opacity=".996"/><path d="m5.1038125 14.6940625.39625-1.2448125-1.1004375-.7825 1.37825-.0295.4495625-1.2284375.4556875 1.226375 1.3783125.023625-1.09675.7873125.4021875 1.2429375-1.13325-.73975z" fill="#fdc400"/><path d="m5.2920625 14.36025.3301875-.988875-.9170625-.621625 1.1485625-.023375.374625-.975875.37975.97425 1.1485625.01875-.9139375.6254375.3351875.987375-.944375-.5876875z" fill="#003017" fill-opacity=".996"/><path d="m9.723125 14.6940625.4014375-1.2448125-1.1146875-.7825 1.3960625-.0295.4553125-1.2284375.4615625 1.226375 1.3960625.023625-1.110875.7873125.407375 1.2429375-1.147875-.73975z" fill="#fdc400"/><path d="m9.913625 14.36025.3345-.988875-.928875-.621625 1.163375-.023375.379375-.975875.384625.97425 1.163375.01875-.9256875.6254375.3394375.987375-.9565-.5876875z" fill="#003017" fill-opacity=".996"/><path d="m1.8295 15.409625c.501625 2.1589375 2.618875 3.76125 5.4705 4.1401875 3.6628125.4866875 7.157125-1.369125 7.7996875-4.1423125"/><path d="m1.8205 15.7436875.687875-.388625.06475.1414375-.2698125.1524375.0893125.195.26975-.152375.06475.1414375-.687875.388625-.06475-.1414375.31175-.176125-.08925-.1950625-.31175.176125zm.2879375.601875.64225-.4754375.21975.3665625-.10675.079-.140625-.2345-.1484375.1099375.130875.21825-.10175.0753125-.130875-.21825-.1768125.130875.1439375.24-.1084375.0803125-.223125-.372125m.4475.690375.5665625-.5821875.097.1164375-.2221875.228375.1336875.160625.2221875-.2283125.097.1165-.5665625.5821875-.0969375-.1165.25675-.263875-.13375-.160625-.25675.263875-.0969375-.1165m.7398125.34475.091875.089625.167125-.315625zm-.359375.1075.6395-.5173125.1450625.1413125-.3769375.77325-.1164375-.1134375.09925-.1899375-.124375-.121125-.1556875.1348125-.1104375-.1075m.558125.518375.3810625-.577375-.133375-.1086875.0753125-.1140625.382625.311875-.07525.1140625-.133375-.10875-.3810625.5775-.116-.0945625m.313.2501875.402-.731875.121875.082625-.157625.2870625.168125.114.157625-.2870625.121875.0826875-.402.731875-.121875-.082625.1821875-.33175-.168125-.114-.1821875.33175zm.755625.47825.324375-.778.3660625.188375-.0530625.1273125-.2355-.12125-.0766875.1839375.2223125.114375-.0518125.124375-.2223125-.1145-.1428125.3425-.1305-.067125m.7158125-.118125c-.0450625.131875-.0665625.217875-.0645625.258.0024375.04.022375.0678125.059875.083625.036875.0155625.0676875.0095.0925-.018125.0251875-.027875.060625-.1084375.106125-.24175s.0671875-.21975.0650625-.2595625-.02175-.0675-.0589375-.08325c-.037125-.015625-.0684375-.009375-.09375.0188125-.025375.02825-.0608125.1089375-.1063125.24225m-.1373125-.0579375c.0290625-.085.0558125-.1513125.0803125-.1989375.024625-.048.0489375-.081625.0730625-.1008125.0333125-.027625.06725-.043125.101625-.0465s.07525.005.12275.025.083125.0439375.1068125.0718125c.02375.027875.04.0645.04875.109875.00625.032875.0041875.0760625-.00625.129625-.010125.0536875-.029625.122875-.0585625.2075-.02875.084375-.0555.1505-.080125.1985-.0245.047625-.04875.0815-.07275.1015625-.0336875.0275-.0676875.042875-.1020625.04625s-.0753125-.005-.1228125-.025-.0830625-.0439375-.10675-.0718125c-.02375-.027875-.0398125-.064375-.0483125-.1096875-.0065625-.032125-.00475-.075.005375-.12875.01025-.0540625.029875-.1235625.0589375-.208625m.66375-.182125.1378125.045625-.1484375.553875c-.0169375.063375-.0215625.1086875-.0139375.136.008125.0270625.029875.0465.0654375.05825.03525.011625.062625.0083125.0821875-.01.0198125-.0181875.038375-.0595.055625-.1239375l.147875-.55175.1359375.045-.152.56725c-.0148125.055125-.0285.0945625-.041125.11825-.01113402.0221086-.02670848.041683-.04575.0575-.02750543.0222272-.06097285.0358185-.0961875.0390625-.0365.003375-.077125-.0023125-.1219375-.017125-.0845625-.028-.1388125-.068-.1628125-.120125-.023625-.0523125-.021875-.1291875.0053125-.230625zm.369125 1.011125.1685-.83675.14425.035875.07825.6339375.1139375-.5861875.1325.033-.1685.8366875-.14325-.035625-.0795-.635375-.1141875.58725zm.754375.042625.062875.0109375c.032.005625.0548125.006875.068375.004.01355581-.0028616.02571501-.0102984.0344375-.0210625.01625-.0196875.03-.048125.0409375-.0853125.0110625-.0375.0225-.0984375.034375-.1828125.0115625-.082125.0166875-.1425.015375-.181-.0013125-.0385625-.0085625-.06875-.0216875-.090625-.00711268-.0111376-.01732191-.0199566-.029375-.025375-.012375-.00625-.032375-.011875-.0600625-.016625l-.0609375-.010625-.084375.5985m-.1566875.100625.119375-.847125.22825.03975c.0465625.008125.082875.0189375.1090625.0325.0265.013625.04725.031875.06225.0548125.0226875.033625.03625.0735625.0409375.1198125.005.0459375.0009375.1155-.0121875.208625-.016875.1203125-.0326875.20475-.0473125.2533125-.0145625.048125-.0334375.088125-.0565.11975-.022375.0318125-.05025.0519375-.0835625.0604375-.0329375.008125-.0878125.0055625-.16475-.0078125zm.596875.098125.07425-.8534375.3945.0423125-.0123125.141875-.252375-.0270625-.0171875.1973125.235.0251875-.0118125.13525-.2349375-.02525-.020375.235.2583125.02775-.0125.1440625-.4005-.0429375m.651875-.069125.063625.0025c.032375.001375.055125-.0003125.0683125-.005.01320263-.0046808.02445007-.0136612.0319375-.0255.0140625-.0216875.0245625-.05175.0315-.0900625.0069375-.03875.0118125-.10075.0145625-.186125.0026875-.0830625.0013125-.1436875-.004125-.18175-.0054375-.038125-.015875-.067125-.03125-.0870625-.00827786-.010135-.01940173-.0175581-.0319375-.0213125-.012875-.004625-.033375-.0075-.061375-.008625l-.061625-.0025zm-.1448125.1206875.02775-.856875.230875.00925c.0470625.001875.084375.0078125.11175.0178125.02775.01.0503125.0254375.0676875.0461875.026125.030375.0439375.06825.0535.1135625.0099375.045.0133125.1145625.0103125.20875-.004.1216875-.010625.207625-.0199375.25775-.00925.04975-.0236875.091875-.0431875.1264375-.0188125.0345-.044375.0581875-.0765.071-.031875.0125-.086625.0171875-.164375.0140625zm.859625.01125-.030625-.856875.14375-.00625.030625.85675zm.3838125-.0225625-.05275-.7136875-.1648125.0150625-.010375-.1409375.4729375-.043125.0104375.1409375-.1648125.015.05275.713625zm.50625-.919375.14175-.027375.0890625.569375c.0101875.065125.0241875.108.042.1286875.018125.02025.045375.026875.081875.01975.03625-.007.0594375-.0235.069625-.0495625.0105-.0261875.0105625-.0723125.0001875-.1385l-.08875-.56725.13975-.0269375.09125.583125c.0088125.056625.012375.09875.0105625.12625-.0015625.027-.0075.0516875-.0179375.0740625-.0156189.0333786-.0399801.0619079-.0705.0825625-.03125.021125-.07.036125-.116.045-.086875.0168125-.1515625.0078125-.1939375-.0269375-.042125-.0351875-.071375-.1049375-.0876875-.209125zm.7678125.2174375.0584375-.0158125c.0435-.0118125.0719375-.029375.085375-.0529375.0133125-.0238125.015-.0586875.005-.1045-.0101875-.046125-.0253125-.075875-.045375-.089125-.019875-.01375-.052375-.0145-.0975-.0023125l-.0603125.016375zm-.032125.505-.182625-.833125.2425-.065625c.0739375-.02.13125-.0160625.17175.0119375s.0699375.083875.08825.1675c.0180625.08225.014125.14825-.01175.1980625-.025625.049375-.074.083625-.1450625.102875l-.10175.0275.0774375.35325-.13875.0375625m.5510625-.6036875c.038375.1344375.0695625.21675.093625.246875.0241875.0295625.0554375.037625.093625.0241875.0375625-.01325.058375-.03925.062375-.0780625.0041875-.03925-.013125-.1268125-.051875-.2626875s-.070125-.2186875-.094-.248375c-.0239375-.02975-.0548125-.0379375-.09275-.024625-.037875.013375-.058875.039875-.063.0795s.01325.1273125.052.2631875m-.1399375.049375c-.02475-.08675-.0408125-.1571875-.04825-.2114375-.0075-.0545625-.0071875-.0976875.0009375-.129375.0106875-.0446875.028625-.0801875.0536875-.1065625s.0618125-.048125.1101875-.065125c.0484375-.0170625.0896875-.022875.123875-.017375.034125.0055.067375.023.099625.0525.02325.0214375.0458125.0566875.0675.105875.022125.0490625.0454375.1168125.070125.203125.0245.086.0405625.15625.048125.210875.007375.05425.0073125.0975-.0003125.12975-.0110625.0448125-.029125.080375-.0541875.1066875-.025.026375-.0618125.048125-.1101875.065125-.0484375.0170625-.0896875.022875-.123875.017375-.034125-.0055-.0671875-.0230625-.099125-.0526875-.023125-.020625-.045625-.0555625-.06775-.104625-.022125-.049375-.045625-.1175-.070375-.2041875m.705375.196-.287125-.7959375.13725-.0610625.3873125.4735-.2045625-.555.1260625-.0560625.287125.795875-.13625.06075-.389125-.474.2049375.556zm.89375-.439-.301-.633125-.14625.085875-.0594375-.125.4195625-.246375.0594375.125-.1461875.085875.3010625.633125-.127125.074625m.3396875-.2025-.4120625-.725.12075-.08475.161625.284375.1665-.116875-.161625-.284375.12075-.0846875.4120625.725-.12075.0846875-.18675-.3285625-.1665.116875.18675.3285625-.12075.0846875m.51475-.37075-.4650625-.6841875.31625-.2654375.077375.11375-.202375.16975.1075.1581875.188375-.1580625.07375.1084375-.188375.1580625.128.188375.2071875-.1738125.0785.1155zm.397-.73575.1025625-.112.0348125.039375c.03325.0375.060125.0586875.080625.063375.0205.004125.041125-.005125.061875-.02775.0216875-.02375.03275-.04775.033125-.072125.0006875-.0246875-.0095-.0489375-.030625-.07275-.016125-.0183125-.033875-.029625-.0531875-.034-.0195625-.004625-.0515625-.003-.0960625.005l-.0890625.0160625c-.07625.0144375-.1305625.0170625-.163125.0078125-.03225-.0095-.063625-.0314375-.0940625-.065875-.045375-.051375-.0673125-.1065625-.065625-.165625.001625-.059.0265-.1148125.074625-.167375.051-.055625.10375-.0828125.158375-.0815s.1075.0309375.15875.0889375c.005125.0058125.009.0104375.0115625.013875.0028125.0031875.005125.006125.007.00875l-.0971875.106125-.014375-.01625c-.0293125-.033125-.055125-.0514375-.0775-.055125-.0225-.003625-.044875.0068125-.06725.03125-.0164375.0179375-.024625.0375625-.0245625.0588125 0 .02075.0085.040625.025375.05975.0226875.025625.0689375.0310625.13875.01625.0005861-.0001904.0011965-.0002956.0018125-.0003125l.0940625-.0191875c.0664375-.0143125.1185625-.0160625.15625-.0051875.0375.010625.07425.03625.1103125.0770625.0491875.055625.0728125.114125.0709375.1755-.001875.0614375-.0294375.121125-.0825625.179125-.0553125.060375-.1105625.0895-.1658125.087375-.055-.002375-.111375-.036125-.1689375-.10125-.006125-.006875-.0156875-.01875-.02875-.0356875l-.002125-.002375m.597125-.240875-.5914375-.5506875.2545625-.3375625.0983125.0915625-.162875.2159375.13675.1273125.151625-.2010625.09375.0873125-.151625.201.1628125.151625.16675-.2210625.099875.0929375zm.15025-.767625.0683125-.1126875-.3029375-.1441875zm.1415.3825-.5429375-.6393125.1078125-.17775.7380625.317375-.0865.14275-.182125-.0853125-.0924375.152375.140125.1545625zm.0915625-.69725.0656875-.1421875.0441875.0251875c.0421875.0240625.0736875.03475.0944375.032.020625-.00325.037625-.0191875.0509375-.0479375.013875-.03.0175-.05675.0110625-.08-.006375-.02375-.022875-.043125-.049625-.0584375-.0205-.0116875-.040625-.01625-.0601875-.013625-.019875.0024375-.0498125.0151875-.08975.03825l-.08.046375c-.06825.040375-.119125.061875-.152625.064375-.0333125.0023125-.0693125-.0075625-.1079375-.029625-.057625-.032875-.0940625-.077625-.1091875-.13425s-.0073125-.1183125.0235-.185c.0326875-.070625.0750625-.1149375.12725-.13275.0521875-.01775.1108125-.008125.175875.029.0065625.00375.0115.0068125.0149375.0091875.0035625.002.0065625.0039375.009125.0058125l-.06225.1346875-.0183125-.010375c-.037125-.02125-.066875-.029625-.0891875-.02525-.02225.004375-.040625.022125-.055.053125-.0105.0228125-.0126875.04425-.006625.0644375.0059375.0196875.019625.035625.041.0478125.0288125.0164375.0743125.0054375.136375-.033.000453-.0004291.0009832-.0007684.0015625-.001l.083875-.051c.0590625-.036875.1080625-.0566875.146875-.0595625.038625-.003.0808125.0085625.1265625.034625.0624375.035625.101375.0829375.1169375.141875.015625.0589375.006375.12525-.0276875.198875-.035375.076625-.079625.1235625-.1326875.140875-.052875.0169375-.115875.0045625-.189-.037125-.0127212-.0075722-.0252063-.0155343-.0374375-.023875l-.002625-.0015" fill="#000" fill-rule="nonzero"/></g></g></g></g></g></svg>