<svg width="48" height="48" viewBox="0 0 48 48" fill="none" xmlns="http://www.w3.org/2000/svg">
<g clip-path="url(#clip0_1911_283)">
<path d="M4 9H44V39H4V9Z" fill="#000066"/>
<path d="M4 9H24V24H4V9Z" fill="#012169"/>
<path d="M6.34375 9L13.9688 14.6562L21.5625 9H24V10.9375L16.5 16.5312L24 22.0938V24H21.5L14 18.4062L6.53125 24H4V22.125L11.4688 16.5625L4 11V9H6.34375Z" fill="white"/>
<path d="M17.25 17.7812L24 22.75V24L15.5312 17.7812H17.25ZM11.5 18.4062L11.6875 19.5L5.6875 24H4L11.5 18.4062ZM24 9V9.09375L16.2188 14.9688L16.2812 13.5938L22.4375 9H24ZM4 9L11.4688 14.5H9.59375L4 10.3125V9Z" fill="#C8102E"/>
<path d="M11.5312 9V24H16.5312V9H11.5312ZM4 14V19H24V14H4Z" fill="white"/>
<path d="M4 15.0312V18.0312H24V15.0312H4ZM12.5312 9V24H15.5312V9H12.5312Z" fill="#C8102E"/>
<path d="M38.7241 20.3648V25.4514C38.7241 29.8626 36.6383 31.3766 33.8445 32.5748C31.0507 31.3766 28.9431 29.8626 28.9431 25.4514V20.3594H38.7241V20.3648Z" fill="white" stroke="white" stroke-width="0.522816" stroke-linejoin="round"/>
<path d="M25.9096 32.1616C26.0676 32.5755 27.1895 33.1256 28.4965 32.423C29.3842 31.922 29.956 31.2249 30.5061 29.9723C30.6586 29.6565 30.7402 29.2643 30.3754 29.0302C30.0867 28.8178 29.6129 28.5836 29.406 28.3766C29.3025 28.2677 29.199 28.1915 29.1228 28.1152C29.1772 28.1697 29.2263 28.2187 29.2753 28.295C29.7981 28.9212 29.2535 29.8362 28.6762 30.3862C28.2569 30.7783 27.5053 31.7423 26.4052 30.8273C26.171 30.6204 25.621 31.4809 25.9151 32.1616H25.9096ZM41.7793 32.1616C41.5941 32.5755 40.4722 33.1256 39.1924 32.423C38.3102 31.922 37.7329 31.2249 37.1611 29.9723C37.0304 29.6565 36.9487 29.2643 37.3136 29.0302C37.6022 28.8178 38.076 28.5836 38.283 28.3766C38.3864 28.2677 38.4627 28.1915 38.5661 28.1152C38.5117 28.1697 38.4627 28.2187 38.4137 28.295C37.8908 28.9212 38.4354 29.8362 38.9855 30.3862C39.4048 30.7783 40.1836 31.7423 41.2837 30.8273C41.5179 30.6204 42.0407 31.4809 41.7738 32.1616H41.7793Z" fill="#FCEA83" stroke="white" stroke-width="0.522816" stroke-linejoin="round"/>
<path d="M33.8445 34.4054C35.9303 34.4054 39.1434 33.4632 40.8698 30.1738C41.153 29.6292 40.8698 29.3406 40.5267 29.1609C40.1389 28.9655 39.7856 28.708 39.4811 28.3984C39.9004 28.8178 39.8187 29.1064 39.5355 29.5748C38.2013 31.7967 36.3769 32.9186 33.8445 32.9186C31.3121 32.9186 29.4877 31.7967 28.1534 29.5748C27.8702 29.1064 27.7885 28.8178 28.1806 28.4039C27.8806 28.7172 27.5264 28.9737 27.135 29.1609C26.7973 29.3406 26.5087 29.6292 26.7973 30.1738C28.5183 33.4632 31.7532 34.4054 33.8445 34.4054Z" fill="#FCEA83" stroke="white" stroke-width="0.522816" stroke-linejoin="round"/>
<path d="M29.0139 29.9933C28.9594 29.7318 28.6272 29.8353 28.5237 30.1512C28.3828 29.9706 28.2588 29.7773 28.1534 29.5739C27.843 29.1056 27.7885 28.7897 28.2351 28.3486C28.442 28.1416 28.8614 27.902 29.1446 28.1634C29.7436 28.659 29.4332 29.4704 29.0139 29.9933ZM38.6478 29.9933C38.7023 29.7318 39.0672 29.8353 39.1707 30.1512C39.3014 29.966 39.4321 29.7863 39.5355 29.5739C39.846 29.1056 39.9004 28.7897 39.4266 28.3486C39.2469 28.1416 38.8276 27.902 38.5171 28.1634C37.9399 28.659 38.2285 29.4704 38.6478 29.9933ZM25.9096 32.1608C25.6482 31.7687 25.4413 30.7448 25.3868 30.4888C25.3106 30.2547 25.2834 30.0423 25.572 29.9442C25.8606 29.8353 26.1166 30.2002 26.2473 30.5161C26.378 30.8265 26.5904 31.2948 26.8246 31.8721C26.2473 31.5345 25.7789 31.7632 25.9096 32.1608ZM41.7793 32.1608C42.0135 31.7687 42.2204 30.7448 42.3021 30.4888C42.3566 30.2547 42.4056 30.0423 42.1169 29.9442C41.8283 29.8353 41.5723 30.2002 41.4416 30.5161C41.3109 30.8265 41.0985 31.2948 40.8644 31.8721C41.4416 31.5345 41.8828 31.7632 41.7793 32.1608Z" fill="#C8102E" stroke="white" stroke-width="0.522816" stroke-linejoin="round"/>
<path d="M31.8349 20.3389C31.4973 20.4152 31.2631 20.4424 30.9472 20.1538C30.7403 19.9468 30.7893 19.582 31.0017 19.4458C31.2359 19.2933 31.4428 19.1898 31.7314 19.2661C32.0201 19.3478 32.7771 20.0503 32.5919 20.0775C32.4067 20.0775 32.1236 20.2573 31.8349 20.3389ZM32.6409 19.0864C32.7498 19.0047 32.8805 18.9557 33.2182 18.923C33.5341 18.9012 33.7628 18.9012 33.8445 19.1408C33.9534 19.424 34.0296 19.7617 34.2366 19.9196C34.1059 19.9958 33.4524 20.0775 33.2182 19.9468C32.9078 19.7889 32.8261 19.1844 32.6464 19.0864H32.6409ZM34.8901 19.1136C34.9936 19.0319 35.1243 19.0319 35.4619 19.0591C35.7996 19.0864 35.9303 19.1136 36.0065 19.3478C36.0882 19.6092 36.0065 19.9468 36.1699 20.181C36.0065 20.2355 35.4892 20.2355 35.304 20.0503C35.0208 19.8434 35.0426 19.2389 34.8901 19.1082V19.1136Z" fill="white" stroke="white" stroke-width="0.522816" stroke-linejoin="round"/>
<path d="M36.4531 19.2653C36.2189 19.2108 36.061 19.189 35.963 19.2653C36.0882 19.4232 35.9848 20.0495 36.2462 20.2564C36.4259 20.3871 36.8997 20.4198 37.0032 20.1257C37.1339 19.8643 37.1339 19.4722 36.4586 19.2653H36.4531ZM33.7682 19.0039C33.8445 18.9276 34.0024 18.9004 34.3128 18.9004C34.6559 18.9004 34.8574 18.9548 34.9664 19.1618C35.0753 19.4232 35.0426 19.7609 35.2278 19.9733C35.1515 20.0767 34.4435 20.0767 34.2366 19.9188C33.948 19.7336 33.9207 19.1346 33.7682 19.0039ZM31.5517 19.238C31.5517 19.1073 31.7314 19.0856 32.2052 19.0583C32.6682 19.0039 32.6954 19.0311 32.8533 19.3687C32.9296 19.5539 33.033 19.8643 33.2454 19.9678C32.6682 20.104 32.483 20.1802 32.1726 19.995C31.9458 19.8532 31.7585 19.6566 31.628 19.4232C31.6007 19.347 31.6007 19.2653 31.5463 19.238H31.5517Z" fill="#073163" stroke="white" stroke-width="0.522816" stroke-linejoin="round"/>
<path d="M31.6007 16.9177C31.4155 16.9177 31.263 16.8414 31.1541 16.7107C30.9744 16.4711 30.4788 16.3676 30.2664 16.58C30.1902 16.6345 30.0867 16.6345 30.0105 16.6563C29.8798 16.6563 29.7218 16.787 29.7708 17.0484C29.8797 16.9667 29.9015 17.0484 29.9832 17.0484C30.0377 17.0211 30.0105 17.0756 30.0105 17.1246C30.0105 17.2553 30.2936 17.5167 30.5551 17.4895C30.8437 17.4895 30.9744 17.5984 31.0234 17.6529C31.1051 17.7237 31.0506 17.7019 31.1051 17.8326C31.1813 17.9088 31.2086 17.9361 31.0779 18.0395C31.0184 18.0891 30.9706 18.1512 30.9378 18.2213C30.9049 18.2914 30.8879 18.3678 30.8879 18.4453C30.8879 18.5227 30.9049 18.5992 30.9378 18.6693C30.9706 18.7394 31.0184 18.8014 31.0779 18.851C31.4155 19.107 32.276 19.5045 33.2454 18.7421C34.1821 18.0123 35.6416 18.4316 35.7505 18.6876C35.8812 18.9545 35.9303 19.107 35.9575 19.2377C35.9847 19.3466 36.1154 19.4501 36.3006 19.4228C36.4803 19.4228 36.6873 19.4991 36.7907 19.5808C36.9269 19.657 37.1066 19.6352 37.0576 19.3956C36.9487 18.6658 36.5075 18.5624 36.4585 18.2247C36.7145 18.2465 36.8942 18.2465 37.0031 18.143C37.0794 18.0395 37.1828 17.8544 37.2918 17.8054C37.368 17.7509 37.368 17.6964 37.2645 17.7237C37.1338 17.7509 37.0576 17.8054 36.818 17.7781C35.6198 17.6474 32.2542 16.7325 31.6007 16.9177Z" fill="#059334" stroke="white" stroke-width="0.522816" stroke-linejoin="round"/>
<path d="M36.9269 17.8055C36.7278 17.9459 36.5577 18.1235 36.4258 18.3283C36.1699 18.666 35.3857 19.0036 34.4163 19.0036C33.4796 19.0036 32.9077 18.8511 32.4884 18.5135C32.3093 18.3703 32.1159 18.2462 31.9111 18.1431C31.6279 18.0124 31.5735 17.7238 31.6497 17.4896C31.5735 17.6203 31.5244 17.751 31.3665 17.7238C31.2576 17.7238 31.0506 17.7238 31.1051 17.8327C31.0779 17.7783 31.0779 17.702 31.0506 17.6693L30.9962 17.6203C31.0779 17.6748 31.263 17.5169 31.3937 17.5169C31.4972 17.5441 31.6279 17.4134 31.6007 17.2554L31.5244 16.9178C31.7314 16.8089 34.4707 17.3099 35.0208 17.3589C35.5654 17.3861 37.1338 17.6203 36.9269 17.8055Z" fill="black" stroke="white" stroke-width="0.522816" stroke-linejoin="round"/>
<path d="M31.9656 16.8144C32.227 16.553 32.5374 16.4223 32.8533 16.4986H32.9295C33.0929 16.3679 33.4523 16.3406 33.6647 16.4441H33.7682C34.0786 16.3406 34.6777 16.4441 34.8901 16.6565L34.9663 16.711C35.6743 16.6565 36.0882 16.9669 36.5838 17.4679C36.6382 17.5224 36.7145 17.6204 36.8452 17.6477C37.0031 17.6749 37.0304 17.7566 36.8996 17.8328C36.6903 17.9623 36.5058 18.1283 36.355 18.323C36.1154 18.6388 35.3584 18.9547 34.4163 18.9547C33.5068 18.9547 32.9567 18.7913 32.5374 18.4809C32.3032 18.3012 32.1235 18.1977 31.9928 18.116C31.8349 18.0616 31.6279 17.8546 31.7042 17.6477C31.7586 17.4407 31.6279 17.1793 31.5244 16.9179C31.6007 16.8634 31.8076 16.7872 31.9111 16.8417L31.9656 16.8144Z" fill="#059334" stroke="white" stroke-width="0.522816" stroke-linejoin="round"/>
<path d="M36.5838 17.4679C36.0936 16.9669 35.6743 16.6565 34.9663 16.7055C34.9663 16.7327 34.9663 16.8144 34.9391 16.8689C35.4325 17.0903 35.8698 17.4197 36.2189 17.8328C36.3278 17.7239 36.5075 17.5987 36.5838 17.4679ZM34.89 16.6565C34.6777 16.4495 34.0786 16.3406 33.7682 16.4495C33.7682 16.553 33.7682 16.711 33.7137 16.8144C33.8989 16.8907 34.0514 17.0758 34.2093 17.2556C34.3182 17.2283 34.5742 17.1521 34.7049 17.1248C34.7829 16.9757 34.845 16.8187 34.89 16.6565ZM33.6647 16.4441C33.4523 16.3406 33.0874 16.3679 32.9295 16.4986C32.875 16.6075 32.8532 16.8144 32.8532 16.9179C32.9622 16.9179 33.1147 16.9941 33.1637 17.0486C33.327 16.9941 33.534 16.8907 33.6102 16.8144C33.6375 16.7055 33.6865 16.553 33.6647 16.4495V16.4441ZM31.9655 16.8144C32.227 16.553 32.5374 16.4223 32.8532 16.4986C32.7988 16.5802 32.777 16.7327 32.777 16.8907C32.4884 16.8634 32.1235 16.9451 31.9655 17.0486V16.8144Z" fill="#00493D" stroke="white" stroke-width="0.522816" stroke-linejoin="round"/>
<path d="M36.1154 17.882C35.7873 17.4936 35.3784 17.1813 34.9173 16.9671C34.9173 16.9943 34.8628 17.0978 34.8356 17.1795C34.9935 17.4137 35.3039 17.9365 35.4346 18.2251C35.5654 18.1707 35.9302 18.0127 36.1154 17.882ZM34.1331 18.4593C34.1782 18.1034 34.2036 17.7452 34.2093 17.3864C34.34 17.3592 34.6014 17.283 34.7049 17.2557C34.8356 17.4681 35.1515 18.0182 35.2822 18.2741C34.9663 18.3504 34.4435 18.4811 34.1331 18.4593ZM33.2181 17.2067C33.3488 17.1523 33.534 17.0433 33.6593 16.9453C33.7682 17.0216 33.9751 17.2067 34.0514 17.3102C34.0514 17.5444 33.9751 18.2251 33.9479 18.4539C33.7409 18.4539 33.4033 18.4048 33.2181 18.3014C33.2454 17.9093 33.2726 17.4681 33.2181 17.2067ZM31.9111 17.5171C31.9383 17.4627 31.9655 17.283 31.9655 17.2067C32.1725 17.076 32.6953 16.9453 33.0874 17.1523C33.1147 17.4137 33.0874 18.0672 33.0602 18.2251C32.7109 17.9411 32.3265 17.7031 31.9165 17.5171H31.9111Z" fill="#00493D" stroke="white" stroke-width="0.522816" stroke-linejoin="round"/>
<path d="M30.6095 17.0451C30.5551 17.0451 30.5278 16.8926 30.4244 16.8926C30.3971 16.8926 30.3209 16.9198 30.2937 16.8926C30.2937 16.947 30.3209 17.0015 30.3481 17.0233C30.3754 17.0995 30.5061 17.0505 30.6095 17.0505V17.0451Z" fill="black"/>
<path d="M30.6095 17.4915C30.92 17.4915 30.9744 17.0994 31.1324 17.0776M30.7893 17.5187C31.0234 17.6277 31.2086 17.0776 31.3883 17.0994M30.3209 16.8434C30.3971 16.8434 30.4516 16.7345 30.5823 16.8652C30.6368 16.9197 30.713 16.9469 30.7675 16.9469M30.713 17.2301C30.6041 17.3935 30.4244 17.4915 30.3209 17.4425M30.2664 16.582C30.1902 16.6365 30.1412 16.7345 30.0867 16.8162M30.0105 16.9687V17.0994" stroke="white" stroke-width="0.522816" stroke-linejoin="round"/>
<path d="M32.8043 16.5811C32.2542 16.1617 31.6007 15.7696 31.0016 15.6934C31.6267 16.1101 32.2201 16.5724 32.777 17.0766" fill="black"/>
<path d="M32.8043 16.5811C32.2542 16.1617 31.6007 15.7696 31.0016 15.6934C31.6267 16.1101 32.2201 16.5724 32.777 17.0766" stroke="white" stroke-width="0.522816" stroke-linejoin="round"/>
<path d="M33.1147 16.1885C32.4612 15.7419 31.7042 15.2463 30.9744 15.1973C31.6573 15.593 32.2656 16.1055 32.7716 16.7113M33.9479 15.4587C34.2428 14.7885 34.6794 14.1902 35.2277 13.7051C34.9663 14.2551 34.6831 15.377 34.547 15.8236" fill="black"/>
<path d="M33.1147 16.1885C32.4612 15.7419 31.7042 15.2463 30.9744 15.1973C31.6573 15.593 32.2656 16.1055 32.7716 16.7113M33.9479 15.4587C34.2428 14.7885 34.6794 14.1902 35.2277 13.7051C34.9663 14.2551 34.6831 15.377 34.547 15.8236" stroke="white" stroke-width="0.522816" stroke-linejoin="round"/>
<path d="M34.5252 15.3282C34.7776 14.7145 35.2521 14.2186 35.854 13.9395C35.4018 14.5036 35.065 15.1513 34.8629 15.8456" fill="black"/>
<path d="M34.5252 15.3282C34.7776 14.7145 35.2521 14.2186 35.854 13.9395C35.4018 14.5036 35.065 15.1513 34.8629 15.8456" stroke="white" stroke-width="0.522816" stroke-linejoin="round"/>
<path d="M34.7594 15.8459C35.2594 15.0805 35.9761 14.4814 36.818 14.125C36.1645 14.7785 35.2005 15.9766 34.9663 16.4504M35.1243 16.4232C35.5926 16.1618 36.5348 15.7425 37.2101 15.8786C36.7962 16.0311 35.5436 16.6029 34.9936 17.1312" fill="black"/>
<path d="M34.7594 15.8459C35.2594 15.0805 35.9761 14.4814 36.818 14.125C36.1645 14.7785 35.2005 15.9766 34.9663 16.4504M35.1243 16.4232C35.5926 16.1618 36.5348 15.7425 37.2101 15.8786C36.7962 16.0311 35.5436 16.6029 34.9936 17.1312" stroke="white" stroke-width="0.522816" stroke-linejoin="round"/>
<path d="M35.0208 16.2378C35.4619 15.7695 36.2734 15.0669 37.1338 14.7783C36.5075 15.3773 35.1733 16.7388 34.9936 16.9458M33.7682 15.9546C33.4523 14.9852 32.984 14.0757 32.2814 13.7871C32.841 14.5871 33.2303 15.4936 33.4251 16.4502M33.1637 15.9274C32.6463 15.3011 31.9383 14.6748 31.1323 14.5441C31.9222 15.0609 32.5462 15.7946 32.9295 16.6572" fill="black"/>
<path d="M35.0208 16.2378C35.4619 15.7695 36.2734 15.0669 37.1338 14.7783C36.5075 15.3773 35.1733 16.7388 34.9936 16.9458M33.7682 15.9546C33.4523 14.9852 32.984 14.0757 32.2814 13.7871C32.841 14.5871 33.2303 15.4936 33.4251 16.4502M33.1637 15.9274C32.6463 15.3011 31.9383 14.6748 31.1323 14.5441C31.9222 15.0609 32.5462 15.7946 32.9295 16.6572" stroke="white" stroke-width="0.522816" stroke-linejoin="round"/>
<path d="M33.4578 15.9007C32.8043 14.7243 32.3032 14.5174 32.02 14.2832C32.2542 14.7243 32.826 15.9007 33.1637 16.3963" fill="black"/>
<path d="M33.4578 15.9007C32.8043 14.7243 32.3032 14.5174 32.02 14.2832C32.2542 14.7243 32.826 15.9007 33.1637 16.3963" stroke="white" stroke-width="0.522816" stroke-linejoin="round"/>
<path d="M32.1507 15.8242C32.5232 16.0585 32.8423 16.3683 33.0875 16.7337" stroke="white" stroke-width="0.522816" stroke-linejoin="round"/>
<path d="M32.1507 16.3673C32.3032 16.4981 32.5919 16.656 32.8533 16.8902ZM35.255 16.7595C35.5164 16.5525 36.0882 16.2149 36.3768 16.1059ZM35.0698 16.5797C35.3312 16.2366 35.854 15.7683 36.0392 15.6104ZM35.7996 14.9568C35.4486 15.3501 35.1178 15.7609 34.8084 16.1876ZM35.1243 14.7227C34.8771 15.0883 34.6586 15.4724 34.4707 15.8718ZM33.0602 14.7771C33.2182 15.1965 33.5068 15.899 33.6048 16.1876ZM32.826 15.2182C32.935 15.3816 33.1419 15.7411 33.2182 16.0025Z" fill="black"/>
<path d="M32.1507 16.3673C32.3032 16.4981 32.5919 16.656 32.8533 16.8902M35.255 16.7595C35.5164 16.5525 36.0882 16.2149 36.3768 16.1059M35.0698 16.5797C35.3312 16.2366 35.854 15.7683 36.0392 15.6104M35.7996 14.9568C35.4486 15.3501 35.1178 15.7609 34.8084 16.1876M35.1243 14.7227C34.8771 15.0883 34.6586 15.4724 34.4707 15.8718M33.0602 14.7771C33.2182 15.1965 33.5068 15.899 33.6048 16.1876M32.826 15.2182C32.935 15.3816 33.1419 15.7411 33.2182 16.0025" stroke="white" stroke-width="0.522816" stroke-linejoin="round"/>
<path d="M33.7138 15.0878C33.7138 14.8536 33.8717 14.5977 34.0296 14.5977C34.2093 14.5977 34.3401 14.9081 34.3401 15.0878C34.3401 15.3002 34.1821 15.4799 34.0296 15.4799C33.8662 15.4799 33.7138 15.3274 33.7138 15.0878Z" fill="black" stroke="white" stroke-width="0.522816" stroke-linejoin="round"/>
<path d="M33.3761 15.2997C33.4033 15.0383 33.583 14.8314 33.741 14.8531C33.8989 14.8804 33.9752 15.1962 33.9479 15.376C33.9207 15.5829 33.741 15.7408 33.6103 15.7136C33.4796 15.7136 33.3489 15.5339 33.3761 15.2997ZM34.0786 15.376C34.0242 15.1418 34.1331 14.8858 34.291 14.8531C34.4435 14.8314 34.6014 15.0873 34.6287 15.2997C34.6831 15.5067 34.547 15.7136 34.4163 15.7136C34.291 15.7408 34.1059 15.6101 34.0786 15.376Z" fill="black" stroke="white" stroke-width="0.522816" stroke-linejoin="round"/>
<path d="M33.6865 15.5839C33.6865 15.3279 33.8445 15.0938 34.0024 15.0938C34.1821 15.0938 34.3128 15.3769 34.3128 15.5839C34.3128 15.7963 34.1603 15.976 34.0024 15.976C33.8445 15.976 33.6865 15.8235 33.6865 15.5839Z" fill="black" stroke="white" stroke-width="0.522816" stroke-linejoin="round"/>
<path d="M33.2182 15.7147C33.2182 15.4805 33.4033 15.2246 33.5558 15.2246C33.7192 15.2246 33.8717 15.535 33.8717 15.7147C33.8717 15.9271 33.6865 16.1068 33.5558 16.1068C33.4033 16.1068 33.2182 15.9543 33.2182 15.7147ZM34.1821 15.6112C34.1821 15.3771 34.3455 15.1211 34.498 15.1211C34.6777 15.1211 34.8084 15.4315 34.8084 15.6112C34.8084 15.8236 34.6559 16.0033 34.498 16.0033C34.34 16.0033 34.1821 15.8454 34.1821 15.6112Z" fill="black" stroke="white" stroke-width="0.522816" stroke-linejoin="round"/>
<path d="M34.0786 15.8237C34.0786 15.5623 34.2638 15.3281 34.4163 15.3281C34.5797 15.3281 34.7322 15.6113 34.7322 15.8183C34.7322 16.0307 34.5742 16.2158 34.4163 16.2158C34.2638 16.2158 34.0786 16.0524 34.0786 15.8237Z" fill="black" stroke="white" stroke-width="0.522816" stroke-linejoin="round"/>
<path d="M33.6648 16.058C33.6648 15.7966 33.8172 15.5624 33.9752 15.5624C34.1603 15.5624 34.291 15.8728 34.291 16.0525C34.291 16.2704 34.1277 16.4501 33.9752 16.4501C33.8172 16.4501 33.6593 16.2867 33.6593 16.058H33.6648ZM33.0112 16.058C33.0112 15.7966 33.1419 15.5624 33.2726 15.5624C33.4033 15.5624 33.5068 15.8728 33.5068 16.0525C33.5068 16.2704 33.3761 16.4501 33.2726 16.4501C33.1419 16.4501 33.0112 16.2867 33.0112 16.058ZM34.4708 16.009C34.4708 15.7693 34.6015 15.5352 34.7322 15.5352C34.8629 15.5352 34.9936 15.8238 34.9936 16.0035C34.9936 16.2377 34.8356 16.3956 34.7322 16.3956C34.6015 16.3956 34.4708 16.2377 34.4708 16.0035V16.009Z" fill="black" stroke="white" stroke-width="0.522816" stroke-linejoin="round"/>
<path d="M34.6287 16.4449C34.6831 16.1889 34.8356 15.9765 34.9391 16.0092C35.048 16.031 35.0698 16.3414 35.0208 16.5266C34.9936 16.7607 34.8356 16.8914 34.7322 16.8642C34.6232 16.8424 34.5742 16.6573 34.6232 16.4503L34.6287 16.4449Z" fill="black" stroke="white" stroke-width="0.522816" stroke-linejoin="round"/>
<path d="M34.1331 16.3691C34.1603 16.1349 34.3128 15.9007 34.4435 15.9279C34.6015 15.9279 34.6777 16.2384 34.6559 16.4181C34.6287 16.6577 34.4925 16.8156 34.3673 16.7884C34.2366 16.7884 34.1059 16.6033 34.1331 16.3691ZM33.4033 16.4453C33.3216 16.1894 33.1637 16.0096 33.0602 16.0314C32.9568 16.0587 32.9295 16.3691 32.984 16.5542C33.0385 16.7612 33.1909 16.8919 33.2944 16.8647C33.3761 16.8429 33.4578 16.6577 33.4033 16.4508V16.4453Z" fill="black" stroke="white" stroke-width="0.522816" stroke-linejoin="round"/>
<path d="M33.2182 16.3961C33.2182 16.1619 33.3489 15.9277 33.4796 15.9277C33.6375 15.9277 33.741 16.2164 33.741 16.3961C33.741 16.6303 33.6103 16.7882 33.4796 16.7882C33.3707 16.7882 33.2182 16.6303 33.2182 16.3961Z" fill="black" stroke="white" stroke-width="0.522816" stroke-linejoin="round"/>
<path d="M33.6103 16.4988C33.6103 16.2374 33.7682 16.0087 33.9207 16.0087C34.1059 16.0087 34.2366 16.2919 34.2366 16.4988C34.2366 16.7112 34.0786 16.8909 33.9207 16.8909C33.7682 16.8909 33.6103 16.733 33.6103 16.4988ZM33.741 13.6288C33.6865 13.8357 33.5068 14.0209 33.6321 14.3095C33.4033 14.2279 33.1964 14.2006 33.0112 14.413C33.2454 14.3858 33.4524 14.4675 33.5558 14.62C33.3489 14.5927 33.2454 14.7017 33.1909 14.8324C33.3761 14.7779 33.5558 14.7234 33.6375 14.7507C33.5558 14.8324 33.4251 14.9576 33.4033 15.0665C33.5558 14.9358 33.741 14.9576 33.8445 14.8814C33.7682 15.0665 33.9207 15.2463 34.0514 15.426C34.0296 15.17 34.1821 14.9903 34.1059 14.8541C34.3401 14.9086 34.3673 15.1156 34.7049 15.1156C34.5742 15.0393 34.498 14.7779 34.3401 14.7779C34.4163 14.7507 34.7322 14.7234 34.7866 14.7779C34.7322 14.669 34.547 14.571 34.4435 14.571C34.5524 14.462 34.7322 14.2551 34.8629 14.2006C34.6777 14.2279 34.3945 14.2551 34.291 14.413C34.547 14.2006 34.498 13.814 34.7812 13.7595C34.6287 13.7323 34.3945 13.8357 34.2094 14.0209C34.291 13.863 34.291 13.656 34.3945 13.6016C34.1821 13.656 33.9479 13.9174 33.8717 14.0481C33.8604 13.9003 33.8157 13.7569 33.741 13.6288Z" fill="black" stroke="white" stroke-width="0.522816" stroke-linejoin="round"/>
<path d="M33.8717 14.0487C33.8717 14.125 33.8717 14.2829 33.8445 14.3319ZM34.2093 14.0215C34.1549 14.0759 34.0514 14.2557 34.0514 14.4136Z" fill="black"/>
<path d="M33.8717 14.0487C33.8717 14.125 33.8717 14.2829 33.8445 14.3319M34.2093 14.0215C34.1549 14.0759 34.0514 14.2557 34.0514 14.4136" stroke="white" stroke-width="0.522816" stroke-linejoin="round"/>
<path d="M34.3673 14.332C34.2775 14.3856 34.2113 14.4713 34.1821 14.5717" stroke="white" stroke-width="0.522816" stroke-linejoin="round"/>
<path d="M25.9096 32.1597C26.0676 32.5736 27.1895 33.1236 28.4965 32.4211C29.3842 31.92 29.956 31.2229 30.5061 29.9704C30.6586 29.6545 30.7402 29.2624 30.3754 29.0282C30.0867 28.8158 29.6129 28.5816 29.406 28.3747C29.3025 28.2658 29.199 28.1895 29.1228 28.1133C29.1772 28.1677 29.2263 28.2168 29.2753 28.293C29.7981 28.9193 29.2535 29.8342 28.6762 30.3843C28.2569 30.7764 27.5053 31.7403 26.4052 30.8254C26.171 30.6184 25.621 31.4789 25.9151 32.1597H25.9096ZM41.7793 32.1597C41.5941 32.5736 40.4722 33.1236 39.1924 32.4211C38.3102 31.92 37.7329 31.2229 37.1611 29.9704C37.0304 29.6545 36.9487 29.2624 37.3136 29.0282C37.6022 28.8158 38.076 28.5816 38.283 28.3747C38.3864 28.2658 38.4627 28.1895 38.5661 28.1133C38.5117 28.1677 38.4627 28.2168 38.4137 28.293C37.8908 28.9193 38.4354 29.8342 38.9855 30.3843C39.4048 30.7764 40.1836 31.7403 41.2837 30.8254C41.5179 30.6184 42.0407 31.4789 41.7738 32.1597H41.7793Z" fill="#FCEA83" stroke="black" stroke-width="0.076244"/>
<path d="M33.8445 34.4034C35.9303 34.4034 39.1434 33.4613 40.8698 30.1719C41.153 29.6273 40.8698 29.3386 40.5267 29.1589C40.1389 28.9636 39.7856 28.706 39.4811 28.3965C39.9004 28.8158 39.8187 29.1045 39.5355 29.5728C38.2013 31.7948 36.3769 32.9167 33.8445 32.9167C31.3121 32.9167 29.4877 31.7948 28.1534 29.5728C27.8702 29.1045 27.7885 28.8158 28.1806 28.4019C27.8806 28.7153 27.5264 28.9718 27.135 29.1589C26.7973 29.3386 26.5087 29.6273 26.7973 30.1719C28.5183 33.4613 31.7532 34.4034 33.8445 34.4034Z" fill="#FCEA83" stroke="black" stroke-width="0.076244"/>
<path d="M29.0139 29.9913C28.9594 29.7299 28.6272 29.8334 28.5237 30.1492C28.3828 29.9686 28.2588 29.7754 28.1534 29.572C27.843 29.1036 27.7885 28.7877 28.2351 28.3466C28.442 28.1397 28.8614 27.9 29.1446 28.1614C29.7436 28.657 29.4332 29.4685 29.0139 29.9913ZM38.6478 29.9913C38.7023 29.7299 39.0672 29.8334 39.1707 30.1492C39.3014 29.9641 39.4321 29.7844 39.5355 29.572C39.846 29.1036 39.9004 28.7877 39.4266 28.3466C39.2469 28.1397 38.8276 27.9 38.5171 28.1614C37.9399 28.657 38.2285 29.4685 38.6478 29.9913ZM25.9096 32.1588C25.6482 31.7667 25.4413 30.7428 25.3868 30.4869C25.3106 30.2527 25.2834 30.0403 25.572 29.9423C25.8606 29.8334 26.1166 30.1982 26.2473 30.5141C26.378 30.8245 26.5904 31.2929 26.8246 31.8702C26.2473 31.5325 25.7789 31.7613 25.9096 32.1588ZM41.7793 32.1588C42.0135 31.7667 42.2204 30.7428 42.3021 30.4869C42.3566 30.2527 42.4056 30.0403 42.1169 29.9423C41.8283 29.8334 41.5723 30.1982 41.4416 30.5141C41.3109 30.8245 41.0985 31.2929 40.8644 31.8702C41.4416 31.5325 41.8828 31.7613 41.7793 32.1588Z" fill="#C8102E" stroke="black" stroke-width="0.076244"/>
<path d="M27.4236 29.8044L27.2167 29.9134C27.1622 29.9352 27.1622 29.9896 27.1622 30.0168H27.135L27.0315 29.7827H27.0588C27.0588 29.8044 27.086 29.8371 27.135 29.8044L27.5816 29.5703C27.636 29.543 27.636 29.5158 27.6088 29.494L27.6306 29.4668L27.7613 29.7282H27.7395C27.7123 29.701 27.685 29.6737 27.6306 29.701L27.4509 29.8099L27.5271 29.9624L27.7395 29.8861C27.794 29.8589 27.7613 29.8044 27.7613 29.7772H27.7885L27.8974 30.0168C27.8702 29.9896 27.843 29.9624 27.7885 29.9896L27.3474 30.2238C27.2929 30.251 27.2929 30.2783 27.3202 30.3L27.2929 30.3273L27.1622 30.0931L27.1895 30.0659C27.2167 30.0931 27.2439 30.1203 27.2984 30.0931L27.5053 29.9842L27.4236 29.8044ZM27.8702 30.1475C27.9247 30.1203 27.9247 30.0931 27.892 30.0386H27.9192L28.1806 30.4307L28.0009 30.5614V30.5397C28.1044 30.458 28.1044 30.3545 28.0772 30.3273C28.0499 30.3 28.0227 30.2728 28.0227 30.251C28.0009 30.251 28.0009 30.2238 27.9465 30.2783L27.7613 30.409C27.7885 30.4307 27.8157 30.5124 27.9465 30.4307H27.9737L27.685 30.6431V30.6159C27.8157 30.507 27.7613 30.4307 27.7395 30.409L27.5543 30.5397C27.4999 30.5614 27.4999 30.5941 27.4999 30.6159C27.5271 30.6159 27.5271 30.6431 27.5543 30.6704C27.5816 30.7248 27.6633 30.7738 27.7885 30.7248L27.8157 30.7466L27.6088 30.8229L27.3474 30.409H27.3746C27.3964 30.4307 27.4291 30.4634 27.4781 30.4307L27.8702 30.1475ZM28.2841 31.1387L28.1044 31.2912C28.0772 31.3184 28.0772 31.3729 28.1044 31.4001H28.0772L27.892 31.215L27.9192 31.1877C27.9465 31.215 27.9737 31.2422 28.0281 31.1877L28.3658 30.8501C28.4203 30.8229 28.4203 30.7956 28.3876 30.7412L28.5727 30.959C28.5455 30.9263 28.4965 30.9263 28.4638 30.959L28.3113 31.1115L28.442 31.2422L28.6 31.1115C28.6544 31.057 28.6272 31.0352 28.6 31.0026L28.6272 30.9808L28.8069 31.1877H28.7797C28.7579 31.1877 28.7252 31.1659 28.6762 31.215L28.3386 31.5308C28.2841 31.5853 28.2841 31.6071 28.3113 31.6343V31.6615L28.1316 31.4491C28.1534 31.4491 28.2079 31.4764 28.2351 31.4491L28.4148 31.2694L28.2841 31.1387ZM28.6762 31.6888L28.7579 31.765L28.8614 31.5308C28.8614 31.5308 28.7797 31.5526 28.649 31.6343L28.6762 31.6888L28.649 31.7105L28.5945 31.6561C28.5727 31.6833 28.5455 31.6833 28.5183 31.7105C28.442 31.765 28.4638 31.7922 28.4965 31.8195V31.8413L28.3658 31.7105H28.3876L28.4965 31.6833L29.0139 31.4001L29.0411 31.4219C29.0411 31.4219 29.0139 31.4491 28.7797 31.972C28.7797 32.0264 28.7579 32.0482 28.7797 32.1027L28.5727 31.9229L28.6 31.8957C28.6272 31.9502 28.6762 31.9502 28.7034 31.8957C28.7034 31.8685 28.7307 31.814 28.7307 31.7868L28.649 31.7105L28.6762 31.6833V31.6888ZM28.8832 32.2061L28.9104 32.1789C28.9376 32.2061 28.9649 32.2061 29.0193 32.1789L29.357 31.7378L29.3297 31.7105C29.2753 31.6833 29.199 31.6833 29.1228 31.765V31.7378L29.2263 31.6071L29.6184 31.8957L29.4877 32.0482H29.4604C29.5367 31.972 29.5149 31.8685 29.4604 31.8413V31.814L29.1228 32.2606C29.0683 32.2878 29.0956 32.3368 29.1228 32.3641H29.0956L28.8832 32.2061Z" fill="#00493D"/>
<path d="M29.5639 32.3104L29.4332 32.4955C29.406 32.55 29.4332 32.5718 29.4604 32.6045L29.4332 32.6262L29.2263 32.4683V32.4411C29.2807 32.4683 29.3025 32.4683 29.3297 32.4193L29.6184 32.0272C29.6402 31.9727 29.6184 31.9455 29.5911 31.9183L29.6184 31.8965L29.8253 32.049V32.0762C29.7709 32.049 29.7491 32.049 29.7164 32.1034L29.5911 32.2886L29.7491 32.3921L29.8798 32.2069C29.9016 32.1524 29.8798 32.1307 29.8525 32.1034L29.8798 32.0762L30.0867 32.2341V32.2614C30.0595 32.2341 30.0105 32.2341 29.9778 32.2886L29.7218 32.7025C29.6674 32.7297 29.6946 32.757 29.7218 32.7842V32.806L29.4877 32.6535H29.5149C29.5367 32.6535 29.5694 32.6535 29.5911 32.6262L29.7218 32.4193L29.5639 32.3104ZM30.0867 33.0456L30.114 33.0184C30.1412 33.0456 30.1902 33.0456 30.2174 32.9911L30.4244 32.55C30.4516 32.4955 30.4244 32.4683 30.3971 32.4411L30.8437 32.6535L30.7348 32.8604L30.713 32.8332C30.7893 32.7297 30.713 32.6262 30.6858 32.599C30.6586 32.599 30.6313 32.5718 30.6095 32.5718C30.5823 32.5718 30.5823 32.5718 30.5551 32.6262C30.5279 32.6535 30.4516 32.806 30.4516 32.806C30.4788 32.8332 30.5279 32.8877 30.6368 32.7515H30.6586L30.5061 33.0674L30.4788 33.0456C30.5551 32.8822 30.4516 32.8604 30.4244 32.8604L30.3209 33.0674C30.2937 33.1218 30.3209 33.1491 30.3481 33.1491V33.1763L30.0867 33.0456ZM30.8437 33.4105C30.7675 33.356 30.7675 33.1981 30.8437 33.0456C30.8982 32.8822 31.0017 32.757 31.1051 32.806C31.1814 32.8332 31.1596 32.9911 31.1051 33.1491C31.0234 33.3288 30.92 33.4323 30.8437 33.4105H30.8165C31.0017 33.4867 31.1324 33.3832 31.2086 33.1981C31.2848 33.0456 31.2631 32.8604 31.0997 32.7842C30.9472 32.7025 30.7893 32.806 30.713 32.9911C30.6368 33.1763 30.6586 33.356 30.8219 33.4105H30.8437ZM31.6497 33.4595L31.7586 33.1491C31.7804 33.0946 31.7586 33.0674 31.7314 33.0401L31.8621 33.0674V33.0946C31.8349 33.0946 31.8077 33.0946 31.7804 33.1491L31.677 33.4595C31.6225 33.5902 31.5463 33.6937 31.3938 33.6447C31.2848 33.6174 31.2086 33.4867 31.2631 33.356L31.3938 33.0184C31.4155 32.9639 31.3938 32.9367 31.3665 32.9094V32.8877L31.6007 32.9911V33.0184C31.5735 32.9911 31.5245 32.9911 31.5245 33.0456L31.3883 33.3778C31.3611 33.4813 31.3611 33.5847 31.4428 33.612C31.519 33.6392 31.5953 33.5847 31.6443 33.454L31.6497 33.4595ZM31.8894 33.1218C31.8894 33.0946 31.8894 33.0946 31.8621 33.0946L32.0418 33.1218L32.2052 33.6174L32.2815 33.3016C32.3032 33.2471 32.2815 33.2253 32.2542 33.1981L32.4067 33.2253L32.3849 33.2525C32.3577 33.2525 32.3305 33.2525 32.3032 33.307L32.1725 33.8788H32.1508L31.9384 33.2525L31.8077 33.6719C31.8077 33.7481 31.8349 33.7481 31.8621 33.7754V33.8026L31.7042 33.7481V33.7209C31.7314 33.7481 31.7804 33.7209 31.7804 33.6664L31.9111 33.1981L31.8894 33.1218ZM32.7771 33.6447C32.7226 33.8788 32.6137 33.9333 32.5647 33.9333H32.5102C32.5102 33.9333 32.4884 33.9061 32.5102 33.8788L32.5919 33.356C32.6191 33.3288 32.6191 33.3016 32.6463 33.3288H32.7008C32.7498 33.3288 32.7988 33.4377 32.7771 33.6447L32.8533 33.6719C32.9078 33.4105 32.7988 33.3016 32.6681 33.2798C32.5647 33.2525 32.4067 33.2253 32.4067 33.2253V33.2525C32.434 33.2798 32.4884 33.2798 32.4612 33.3615L32.3849 33.8244C32.3577 33.8788 32.3305 33.9061 32.3032 33.9061H32.2815L32.5374 33.9605C32.6681 33.9823 32.7988 33.9605 32.8533 33.6719L32.7771 33.6447ZM33.0112 33.4323C33.0112 33.3778 32.9568 33.356 32.9295 33.356V33.3288L33.4033 33.3832L33.3761 33.5902C33.3761 33.4595 33.2944 33.4105 33.2454 33.4105C33.2182 33.3832 33.1909 33.3832 33.1637 33.3832C33.1419 33.3832 33.1419 33.3832 33.1419 33.4595L33.1147 33.6719C33.1419 33.6719 33.2182 33.6937 33.2726 33.5412L33.2454 33.8788H33.2182C33.2182 33.7209 33.1419 33.7209 33.1093 33.7209L33.0875 33.9551C33.0875 34.0095 33.0875 34.0095 33.1147 34.0095L33.1692 34.0368C33.2454 34.0368 33.3217 34.0095 33.3761 33.8516H33.4033L33.3489 34.0585L32.8533 34.0041C32.9078 34.0041 32.9295 33.9823 32.9622 33.9333L33.0112 33.4323ZM33.8717 33.7481C33.8717 33.9823 33.79 34.0585 33.7138 34.0585C33.6865 34.0368 33.6865 34.0368 33.6593 34.0368L33.6375 34.0095L33.6647 33.4649C33.6647 33.4323 33.6647 33.4323 33.6865 33.4323H33.741C33.7955 33.4323 33.8717 33.5139 33.8717 33.7481H33.9752C33.9752 33.4867 33.8445 33.4105 33.7138 33.4105C33.6048 33.3832 33.4524 33.3832 33.4524 33.3832V33.4105C33.4796 33.4105 33.534 33.4323 33.534 33.4867L33.5068 33.9823C33.5068 34.0368 33.4796 34.0585 33.4524 34.0585V34.0858H33.6865C33.8172 34.0858 33.9479 34.0313 33.9752 33.7481H33.8663H33.8717ZM34.6287 33.9551C34.6287 34.0095 34.6559 34.0095 34.7049 34.0095V34.0368L34.4163 34.0585C34.4435 34.0368 34.498 34.0041 34.498 33.9551L34.4435 33.4649C34.4163 33.4105 34.3891 33.4105 34.3401 33.4105V33.3832L34.6287 33.356C34.6015 33.3832 34.547 33.4105 34.5742 33.4649L34.6287 33.9551ZM34.8901 34.0095V33.9823C34.9173 33.9823 34.9446 33.9551 34.9446 33.9061L34.8356 33.3615H34.8084C34.7539 33.3832 34.7049 33.4323 34.7322 33.5412H34.7049L34.6777 33.356L35.1515 33.2798L35.1733 33.4595H35.1515C35.1515 33.356 35.0698 33.3288 34.9881 33.3288H34.9663L35.0753 33.8734C35.0753 33.9278 35.097 33.9551 35.1515 33.9551V33.9823L34.8901 34.0095ZM36.012 33.4867L35.9031 33.1763C35.9031 33.1218 35.854 33.1218 35.8268 33.1218V33.0946L35.9575 33.0401V33.0674C35.9303 33.0946 35.9303 33.0946 35.9303 33.1491L36.0392 33.4867C36.061 33.5956 36.061 33.7481 35.9085 33.8026C35.7996 33.8244 35.6743 33.7754 35.6471 33.6174L35.5382 33.2798C35.5164 33.2253 35.4892 33.2253 35.4619 33.2253L35.4347 33.1981L35.6961 33.1218V33.1491C35.6743 33.1763 35.6416 33.2035 35.6743 33.2525L35.7506 33.5902C35.7778 33.6991 35.8595 33.7481 35.9303 33.7481C36.012 33.7209 36.0392 33.6174 36.012 33.4867ZM36.3006 33.3016C36.4259 33.2471 36.4041 33.1763 36.3769 33.0946C36.3496 33.0184 36.3006 32.9639 36.2462 32.9911C36.2189 32.9911 36.1917 33.0184 36.2189 33.0456L36.3006 33.3016L36.3224 33.3288L36.3769 33.5412C36.4041 33.5956 36.4531 33.5956 36.4858 33.563V33.5902L36.2462 33.6991L36.2189 33.6719C36.2734 33.6447 36.2734 33.6174 36.2734 33.563L36.0882 33.1218C36.061 33.0456 36.0338 33.0674 35.9847 33.0674V33.0456L36.2462 32.9367C36.3551 32.9149 36.4531 32.9367 36.5076 33.0456C36.5348 33.1763 36.4803 33.2525 36.3769 33.307C36.3496 33.307 36.3224 33.3288 36.3224 33.3288L36.3006 33.3016Z" fill="#00493D"/>
<path d="M36.9487 33.3776C36.8725 33.4103 36.769 33.3014 36.6873 33.1216C36.611 32.9637 36.611 32.8058 36.6873 32.784C36.769 32.7568 36.8725 32.8602 36.9487 33.0182C37.0304 33.1761 37.0304 33.3286 36.9487 33.3831C37.1121 33.3286 37.1611 33.1489 37.0794 32.9637C37.0032 32.8058 36.8452 32.7023 36.6873 32.7568C36.6506 32.7751 36.6181 32.8007 36.5915 32.832C36.565 32.8632 36.545 32.8995 36.5328 32.9387C36.5206 32.9778 36.5164 33.019 36.5205 33.0598C36.5246 33.1006 36.5369 33.1402 36.5566 33.1761C36.6383 33.3558 36.7962 33.4593 36.9487 33.3831V33.3776ZM36.9759 32.6533H36.9269L37.0794 32.5444L37.5532 32.8058L37.3898 32.5226C37.368 32.4681 37.3136 32.4681 37.2918 32.4681V32.4409L37.4225 32.3864C37.3953 32.4191 37.368 32.4409 37.4225 32.4954L37.6839 33.0182L37.6567 33.0454L37.0794 32.7295L37.2918 33.1216C37.3136 33.1761 37.368 33.1761 37.3953 33.1489V33.1761L37.2646 33.2524V33.2251C37.2918 33.1979 37.2918 33.1707 37.2646 33.1216L37.0576 32.7023L36.9759 32.6478V32.6533ZM38.1523 32.7295V32.7023C38.1523 32.6751 38.1795 32.6478 38.1523 32.5988L37.8364 32.1577H37.8092C37.7547 32.1795 37.7329 32.2884 37.8092 32.3647L37.7874 32.3919L37.6785 32.2067L38.0706 31.9453L38.1795 32.1087C38.0978 32.027 38.0161 32.027 37.9671 32.0542L37.9399 32.076L38.2557 32.5226C38.283 32.577 38.332 32.577 38.3647 32.5498V32.5716L38.1523 32.7295Z" fill="#00493D"/>
<path d="M38.4409 32.1027L38.5934 32.2879C38.6206 32.3097 38.6751 32.3097 38.7023 32.2879V32.3097L38.4899 32.4948V32.4676C38.5171 32.4404 38.5171 32.4132 38.4899 32.3641L38.1795 31.972C38.1522 31.9176 38.125 31.9448 38.0706 31.9448L38.2829 31.7651V31.7923C38.2829 31.8141 38.2557 31.8468 38.2829 31.8958L38.4137 32.0483L38.5661 31.9448L38.4409 31.7651C38.4137 31.7106 38.3592 31.7379 38.332 31.7379L38.5444 31.5527V31.5799C38.5171 31.6071 38.5171 31.6344 38.5444 31.6888L38.8548 32.0755C38.882 32.1027 38.9092 32.1027 38.9365 32.0755L38.9583 32.1027L38.7513 32.2879L38.7241 32.2607C38.7513 32.2334 38.7785 32.2062 38.7513 32.1517L38.5934 31.972L38.4409 32.1027ZM38.6751 31.5527C38.6478 31.5309 38.5934 31.5309 38.5661 31.5527V31.5309L38.9092 31.215L39.0672 31.373H39.0399C38.9583 31.2641 38.8548 31.3185 38.8058 31.3457C38.8058 31.373 38.7785 31.373 38.7513 31.4002C38.7513 31.4002 38.7513 31.422 38.7785 31.4764L38.9365 31.6344C38.9583 31.6071 39.0399 31.5527 38.9365 31.422H38.9583L39.1706 31.6616V31.6834C39.0399 31.5527 38.9855 31.6289 38.9583 31.6616L39.1216 31.8141C39.1434 31.8686 39.1706 31.8686 39.1706 31.8686L39.2469 31.7923C39.2741 31.7651 39.3014 31.6834 39.2469 31.5309H39.2741L39.3776 31.7106L39.0399 32.0483L39.0127 32.0265C39.0399 31.9993 39.0672 31.972 39.0127 31.9176L38.6751 31.5527ZM39.3014 30.8229C39.2741 30.8502 39.2741 30.9046 39.3231 30.9318C39.3776 30.9809 39.4321 30.9809 39.5355 30.9318C39.59 30.9046 39.688 30.8774 39.7697 30.9536C39.9004 31.0843 39.846 31.1878 39.8242 31.2423C39.7969 31.2695 39.7425 31.2967 39.7152 31.3185C39.688 31.3185 39.688 31.3185 39.688 31.3457V31.373L39.5083 31.215H39.5355C39.639 31.2695 39.7425 31.2913 39.7969 31.215C39.8514 31.1606 39.7969 31.1061 39.7697 31.0843C39.7152 31.0299 39.6608 31.0299 39.5845 31.0843C39.5083 31.1116 39.4048 31.1116 39.3231 31.0571C39.2197 30.9536 39.2197 30.8774 39.2687 30.7957L39.3776 30.7195C39.4048 30.7195 39.4048 30.7195 39.3776 30.665L39.5628 30.7957H39.5355C39.4048 30.7412 39.3231 30.7739 39.3014 30.8229ZM39.5355 30.616C39.4811 30.5887 39.4538 30.616 39.4266 30.6432H39.4048L39.6935 30.2239L39.8732 30.3546L39.846 30.3818C39.8134 30.3538 39.7718 30.3384 39.7289 30.3384C39.6859 30.3384 39.6444 30.3538 39.6118 30.3818C39.6118 30.409 39.5845 30.4363 39.5845 30.458C39.5628 30.458 39.5628 30.4853 39.6118 30.5125C39.639 30.5397 39.7969 30.6432 39.7969 30.6432C39.8242 30.616 39.8732 30.5615 39.7697 30.458V30.4308L40.0311 30.6432C39.8732 30.5615 39.846 30.6432 39.8242 30.665L40.0039 30.7957C40.0583 30.8229 40.0801 30.8229 40.0801 30.8229C40.0801 30.7957 40.1074 30.7685 40.1346 30.7467C40.1618 30.6922 40.189 30.616 40.0801 30.5125L40.1074 30.4853L40.2381 30.6432L39.9767 31.0353H39.9494C39.9767 30.9809 39.9767 30.9536 39.9276 30.9046L39.5355 30.616ZM40.2381 30.1476L40.1618 30.2783C40.0529 30.1694 40.0039 30.0932 40.0039 30.0932L40.2381 30.1476H40.2925C40.3198 30.1476 40.3688 30.1694 40.396 30.1694C40.4722 30.1966 40.4505 30.2239 40.4232 30.2783H40.4505L40.5812 30.0387C40.5267 30.0932 40.4995 30.0659 40.4505 30.0659C39.9004 29.9625 39.8514 29.9352 39.8514 29.9352V29.9625L40.2653 30.4308C40.2925 30.458 40.2925 30.5125 40.2925 30.5397H40.3198L40.396 30.409L40.3688 30.3818C40.3415 30.4363 40.3143 30.458 40.2653 30.3818L40.2108 30.3273L40.2925 30.1476H40.2381ZM40.0801 29.5703C40.0583 29.5976 40.0583 29.652 40.1346 29.6793C40.2108 29.701 40.2435 29.6793 40.3198 29.6248C40.396 29.5703 40.4722 29.5159 40.5757 29.5703C40.7391 29.652 40.7064 29.7827 40.6846 29.8318L40.6029 29.9407V29.9897L40.396 29.8808C40.5267 29.908 40.6302 29.8808 40.6574 29.8045C40.6846 29.7501 40.6302 29.701 40.6029 29.6738C40.5485 29.652 40.4995 29.6738 40.4232 29.7283C40.3415 29.8045 40.2598 29.8372 40.1618 29.7827C40.0529 29.7283 40.0039 29.652 40.0529 29.5703C40.0529 29.5159 40.1074 29.4941 40.1346 29.4669C40.1346 29.4396 40.1346 29.4396 40.1074 29.4124V29.3906L40.3198 29.4941H40.2925C40.1618 29.4669 40.0801 29.5213 40.0801 29.5703Z" fill="#00493D"/>
<path d="M31.8349 20.3389C31.4972 20.4152 31.2631 20.4424 30.9472 20.1538C30.7402 19.9468 30.7893 19.582 31.0016 19.4458C31.2358 19.2933 31.4428 19.1898 31.7314 19.2661C32.02 19.3478 32.777 20.0503 32.5919 20.0775C32.4067 20.0775 32.1235 20.2573 31.8349 20.3389ZM32.6409 19.0864C32.7498 19.0047 32.8805 18.9557 33.2182 18.923C33.534 18.9012 33.7628 18.9012 33.8445 19.1408C33.9534 19.424 34.0296 19.7617 34.2366 19.9196C34.1059 19.9958 33.4523 20.0775 33.2182 19.9468C32.9077 19.7889 32.8261 19.1844 32.6463 19.0864H32.6409ZM34.8901 19.1136C34.9936 19.0319 35.1243 19.0319 35.4619 19.0591C35.7996 19.0864 35.9303 19.1136 36.0065 19.3478C36.0882 19.6092 36.0065 19.9468 36.1699 20.181C36.0065 20.2355 35.4891 20.2355 35.304 20.0503C35.0208 19.8434 35.0426 19.2389 34.8901 19.1082V19.1136Z" fill="white" stroke="black" stroke-width="0.076244"/>
<path d="M36.4531 19.2653C36.2189 19.2108 36.061 19.189 35.963 19.2653C36.0882 19.4232 35.9847 20.0495 36.2461 20.2564C36.4259 20.3871 36.8997 20.4198 37.0031 20.1257C37.1338 19.8643 37.1338 19.4722 36.4585 19.2653H36.4531ZM33.7682 19.0039C33.8445 18.9276 34.0024 18.9004 34.3128 18.9004C34.6559 18.9004 34.8574 18.9548 34.9663 19.1618C35.0753 19.4232 35.0426 19.7609 35.2277 19.9733C35.1515 20.0767 34.4435 20.0767 34.2366 19.9188C33.9479 19.7336 33.9207 19.1346 33.7682 19.0039ZM31.5517 19.238C31.5517 19.1073 31.7314 19.0856 32.2052 19.0583C32.6681 19.0039 32.6954 19.0311 32.8533 19.3687C32.9295 19.5539 33.033 19.8643 33.2454 19.9678C32.6681 20.104 32.483 20.1802 32.1725 19.995C31.9458 19.8532 31.7585 19.6566 31.6279 19.4232C31.6007 19.347 31.6007 19.2653 31.5462 19.238H31.5517Z" fill="#073163" stroke="black" stroke-width="0.076244"/>
<path d="M32.8042 16.5811C32.2542 16.1617 31.6006 15.7696 31.0016 15.6934C31.6267 16.1101 32.2201 16.5724 32.777 17.0766" fill="#F9D050"/>
<path d="M32.8042 16.5811C32.2542 16.1617 31.6006 15.7696 31.0016 15.6934C31.6267 16.1101 32.2201 16.5724 32.777 17.0766" stroke="black" stroke-width="0.032676"/>
<path d="M33.1146 16.1885C32.4611 15.7419 31.7041 15.2463 30.9743 15.1973C31.6573 15.593 32.2656 16.1055 32.7715 16.7113M33.9479 15.4587C34.2427 14.7885 34.6793 14.1902 35.2277 13.7051C34.9663 14.2551 34.6831 15.377 34.5469 15.8236" fill="#F9D050"/>
<path d="M33.1146 16.1885C32.4611 15.7419 31.7041 15.2463 30.9743 15.1973C31.6573 15.593 32.2656 16.1055 32.7715 16.7113M33.9479 15.4587C34.2427 14.7885 34.6793 14.1902 35.2277 13.7051C34.9663 14.2551 34.6831 15.377 34.5469 15.8236" stroke="black" stroke-width="0.032676"/>
<path d="M34.5251 15.3282C34.7775 14.7145 35.252 14.2186 35.854 13.9395C35.4017 14.5036 35.065 15.1513 34.8628 15.8456" fill="#F9D050"/>
<path d="M34.5251 15.3282C34.7775 14.7145 35.252 14.2186 35.854 13.9395C35.4017 14.5036 35.065 15.1513 34.8628 15.8456" stroke="black" stroke-width="0.032676"/>
<path d="M34.7593 15.8459C35.2593 15.0805 35.976 14.4814 36.8179 14.125C36.1644 14.7785 35.2004 15.9766 34.9663 16.4504M35.1242 16.4232C35.5926 16.1618 36.5347 15.7425 37.21 15.8786C36.7961 16.0311 35.5435 16.6029 34.9935 17.1312" fill="#F9D050"/>
<path d="M34.7593 15.8459C35.2593 15.0805 35.976 14.4814 36.8179 14.125C36.1644 14.7785 35.2004 15.9766 34.9663 16.4504M35.1242 16.4232C35.5926 16.1618 36.5347 15.7425 37.21 15.8786C36.7961 16.0311 35.5435 16.6029 34.9935 17.1312" stroke="black" stroke-width="0.032676"/>
<path d="M35.0207 16.2378C35.4618 15.7695 36.2733 15.0669 37.1338 14.7783C36.5075 15.3773 35.1732 16.7388 34.9935 16.9458M33.7681 15.9546C33.4523 14.9852 32.9839 14.0757 32.2814 13.7871C32.8409 14.5871 33.2302 15.4936 33.425 16.4502M33.1636 15.9274C32.6463 15.3011 31.9383 14.6748 31.1323 14.5441C31.9221 15.0609 32.5461 15.7946 32.9295 16.6572" fill="#F9D050"/>
<path d="M35.0207 16.2378C35.4618 15.7695 36.2733 15.0669 37.1338 14.7783C36.5075 15.3773 35.1732 16.7388 34.9935 16.9458M33.7681 15.9546C33.4523 14.9852 32.9839 14.0757 32.2814 13.7871C32.8409 14.5871 33.2302 15.4936 33.425 16.4502M33.1636 15.9274C32.6463 15.3011 31.9383 14.6748 31.1323 14.5441C31.9221 15.0609 32.5461 15.7946 32.9295 16.6572" stroke="black" stroke-width="0.032676"/>
<path d="M33.4577 15.9007C32.8042 14.7243 32.3032 14.5174 32.02 14.2832C32.2542 14.7243 32.826 15.9007 33.1636 16.3963" fill="#F9D050"/>
<path d="M33.4577 15.9007C32.8042 14.7243 32.3032 14.5174 32.02 14.2832C32.2542 14.7243 32.826 15.9007 33.1636 16.3963" stroke="black" stroke-width="0.032676"/>
<path d="M32.1507 15.8242C32.5231 16.0585 32.8423 16.3683 33.0874 16.7337" stroke="black" stroke-width="0.032676"/>
<path d="M32.1507 16.3673C32.3032 16.4981 32.5918 16.656 32.8532 16.8902ZM35.2549 16.7595C35.5163 16.5525 36.0881 16.2149 36.3768 16.1059ZM35.0697 16.5797C35.3311 16.2366 35.854 15.7683 36.0391 15.6104ZM35.7995 14.9568C35.4486 15.3501 35.1177 15.7609 34.8083 16.1876ZM35.1242 14.7227C34.877 15.0883 34.6585 15.4724 34.4707 15.8718ZM33.0602 14.7771C33.2181 15.1965 33.5067 15.899 33.6048 16.1876ZM32.826 15.2182C32.9349 15.3816 33.1419 15.7411 33.2181 16.0025Z" fill="#F9D050"/>
<path d="M32.1507 16.3673C32.3032 16.4981 32.5918 16.656 32.8532 16.8902M35.2549 16.7595C35.5163 16.5525 36.0881 16.2149 36.3768 16.1059M35.0697 16.5797C35.3311 16.2366 35.854 15.7683 36.0391 15.6104M35.7995 14.9568C35.4486 15.3501 35.1177 15.7609 34.8083 16.1876M35.1242 14.7227C34.877 15.0883 34.6585 15.4724 34.4707 15.8718M33.0602 14.7771C33.2181 15.1965 33.5067 15.899 33.6048 16.1876M32.826 15.2182C32.9349 15.3816 33.1419 15.7411 33.2181 16.0025" stroke="black" stroke-width="0.032676"/>
<path d="M33.7137 15.0878C33.7137 14.8536 33.8716 14.5977 34.0296 14.5977C34.2093 14.5977 34.34 14.9081 34.34 15.0878C34.34 15.3002 34.1821 15.4799 34.0296 15.4799C33.8662 15.4799 33.7137 15.3274 33.7137 15.0878Z" fill="#F9D050" stroke="black" stroke-width="0.032676"/>
<path d="M33.3761 15.2997C33.4033 15.0383 33.583 14.8314 33.7409 14.8531C33.8989 14.8804 33.9751 15.1962 33.9479 15.376C33.9207 15.5829 33.7409 15.7408 33.6102 15.7136C33.4795 15.7136 33.3488 15.5339 33.3761 15.2997ZM34.0786 15.376C34.0241 15.1418 34.1331 14.8858 34.291 14.8531C34.4435 14.8314 34.6014 15.0873 34.6286 15.2997C34.6831 15.5067 34.547 15.7136 34.4163 15.7136C34.291 15.7408 34.1058 15.6101 34.0786 15.376Z" fill="#F9D050" stroke="black" stroke-width="0.032676"/>
<path d="M33.6865 15.5839C33.6865 15.3279 33.8444 15.0938 34.0023 15.0938C34.1821 15.0938 34.3128 15.3769 34.3128 15.5839C34.3128 15.7963 34.1603 15.976 34.0023 15.976C33.8444 15.976 33.6865 15.8235 33.6865 15.5839Z" fill="#F9D050" stroke="black" stroke-width="0.032676"/>
<path d="M33.2181 15.7147C33.2181 15.4805 33.4033 15.2246 33.5558 15.2246C33.7192 15.2246 33.8716 15.535 33.8716 15.7147C33.8716 15.9271 33.6865 16.1068 33.5558 16.1068C33.4033 16.1068 33.2181 15.9543 33.2181 15.7147ZM34.1821 15.6112C34.1821 15.3771 34.3454 15.1211 34.4979 15.1211C34.6777 15.1211 34.8084 15.4315 34.8084 15.6112C34.8084 15.8236 34.6559 16.0033 34.4979 16.0033C34.34 16.0033 34.1821 15.8454 34.1821 15.6112Z" fill="#F9D050" stroke="black" stroke-width="0.032676"/>
<path d="M34.0786 15.8237C34.0786 15.5623 34.2638 15.3281 34.4162 15.3281C34.5796 15.3281 34.7321 15.6113 34.7321 15.8183C34.7321 16.0307 34.5742 16.2158 34.4162 16.2158C34.2638 16.2158 34.0786 16.0524 34.0786 15.8237Z" fill="#F9D050" stroke="black" stroke-width="0.032676"/>
<path d="M33.6647 16.058C33.6647 15.7966 33.8172 15.5624 33.9751 15.5624C34.1603 15.5624 34.291 15.8728 34.291 16.0525C34.291 16.2704 34.1276 16.4501 33.9751 16.4501C33.8172 16.4501 33.6592 16.2867 33.6592 16.058H33.6647ZM33.0112 16.058C33.0112 15.7966 33.1419 15.5624 33.2726 15.5624C33.4033 15.5624 33.5068 15.8728 33.5068 16.0525C33.5068 16.2704 33.3761 16.4501 33.2726 16.4501C33.1419 16.4501 33.0112 16.2867 33.0112 16.058ZM34.4707 16.009C34.4707 15.7693 34.6014 15.5352 34.7321 15.5352C34.8628 15.5352 34.9935 15.8238 34.9935 16.0035C34.9935 16.2377 34.8356 16.3956 34.7321 16.3956C34.6014 16.3956 34.4707 16.2377 34.4707 16.0035V16.009Z" fill="#F9D050" stroke="black" stroke-width="0.032676"/>
<path d="M34.6286 16.4449C34.6831 16.1889 34.8356 15.9765 34.9391 16.0092C35.048 16.031 35.0698 16.3414 35.0208 16.5266C34.9935 16.7607 34.8356 16.8914 34.7321 16.8642C34.6232 16.8424 34.5742 16.6573 34.6232 16.4503L34.6286 16.4449Z" fill="#F9D050" stroke="black" stroke-width="0.032676"/>
<path d="M34.1331 16.3691C34.1603 16.1349 34.3128 15.9007 34.4435 15.9279C34.6014 15.9279 34.6777 16.2384 34.6559 16.4181C34.6286 16.6577 34.4925 16.8156 34.3672 16.7884C34.2365 16.7884 34.1058 16.6033 34.1331 16.3691ZM33.4033 16.4453C33.3216 16.1894 33.1637 16.0096 33.0602 16.0314C32.9567 16.0587 32.9295 16.3691 32.9839 16.5542C33.0384 16.7612 33.1909 16.8919 33.2944 16.8647C33.3761 16.8429 33.4577 16.6577 33.4033 16.4508V16.4453Z" fill="#F9D050" stroke="black" stroke-width="0.032676"/>
<path d="M33.2181 16.3961C33.2181 16.1619 33.3488 15.9277 33.4795 15.9277C33.6375 15.9277 33.7409 16.2164 33.7409 16.3961C33.7409 16.6303 33.6102 16.7882 33.4795 16.7882C33.3706 16.7882 33.2181 16.6303 33.2181 16.3961Z" fill="#F9D050" stroke="black" stroke-width="0.032676"/>
<path d="M33.6102 16.4988C33.6102 16.2374 33.7682 16.0087 33.9207 16.0087C34.1058 16.0087 34.2365 16.2919 34.2365 16.4988C34.2365 16.7112 34.0786 16.8909 33.9207 16.8909C33.7682 16.8909 33.6102 16.733 33.6102 16.4988ZM33.7409 13.6288C33.6865 13.8357 33.5068 14.0209 33.632 14.3095C33.4033 14.2279 33.1963 14.2006 33.0112 14.413C33.2453 14.3858 33.4523 14.4675 33.5558 14.62C33.3488 14.5927 33.2453 14.7017 33.1909 14.8324C33.3761 14.7779 33.5558 14.7234 33.6375 14.7507C33.5558 14.8324 33.4251 14.9576 33.4033 15.0665C33.5558 14.9358 33.7409 14.9576 33.8444 14.8814C33.7682 15.0665 33.9207 15.2463 34.0514 15.426C34.0296 15.17 34.1821 14.9903 34.1058 14.8541C34.34 14.9086 34.3672 15.1156 34.7049 15.1156C34.5742 15.0393 34.4979 14.7779 34.34 14.7779C34.4162 14.7507 34.7321 14.7234 34.7866 14.7779C34.7321 14.669 34.5469 14.571 34.4435 14.571C34.5524 14.462 34.7321 14.2551 34.8628 14.2006C34.6776 14.2279 34.3945 14.2551 34.291 14.413C34.5469 14.2006 34.4979 13.814 34.7811 13.7595C34.6286 13.7323 34.3945 13.8357 34.2093 14.0209C34.291 13.863 34.291 13.656 34.3945 13.6016C34.1821 13.656 33.9479 13.9174 33.8716 14.0481C33.8603 13.9003 33.8157 13.7569 33.7409 13.6288Z" fill="#F9D050" stroke="black" stroke-width="0.032676"/>
<path d="M33.8717 14.0487C33.8717 14.125 33.8717 14.2829 33.8444 14.3319ZM34.2093 14.0215C34.1548 14.0759 34.0514 14.2557 34.0514 14.4136Z" fill="#F9D050"/>
<path d="M33.8717 14.0487C33.8717 14.125 33.8717 14.2829 33.8444 14.3319M34.2093 14.0215C34.1548 14.0759 34.0514 14.2557 34.0514 14.4136" stroke="black" stroke-width="0.032676"/>
<path d="M34.3672 14.332C34.2775 14.3856 34.2113 14.4713 34.1821 14.5717" stroke="black" stroke-width="0.032676"/>
<path d="M31.6007 16.9177C31.4155 16.9177 31.263 16.8414 31.1541 16.7107C30.9744 16.4711 30.4788 16.3676 30.2664 16.58C30.1901 16.6345 30.0867 16.6345 30.0104 16.6563C29.8797 16.6563 29.7218 16.787 29.7708 17.0484C29.8797 16.9667 29.9015 17.0484 29.9832 17.0484C30.0377 17.0211 30.0104 17.0756 30.0104 17.1246C30.0104 17.2553 30.2936 17.5167 30.555 17.4895C30.8437 17.4895 30.9744 17.5984 31.0234 17.6529C31.1051 17.7237 31.0506 17.7019 31.1051 17.8326C31.1813 17.9088 31.2085 17.9361 31.0778 18.0395C31.0184 18.0891 30.9705 18.1512 30.9377 18.2213C30.9049 18.2914 30.8879 18.3678 30.8879 18.4453C30.8879 18.5227 30.9049 18.5992 30.9377 18.6693C30.9705 18.7394 31.0184 18.8014 31.0778 18.851C31.4155 19.107 32.276 19.5045 33.2453 18.7421C34.1821 18.0123 35.6416 18.4316 35.7505 18.6876C35.8812 18.9545 35.9302 19.107 35.9575 19.2377C35.9847 19.3466 36.1154 19.4501 36.3006 19.4228C36.4803 19.4228 36.6872 19.4991 36.7907 19.5808C36.9268 19.657 37.1066 19.6352 37.0575 19.3956C36.9486 18.6658 36.5075 18.5624 36.4585 18.2247C36.7144 18.2465 36.8942 18.2465 37.0031 18.143C37.0793 18.0395 37.1828 17.8544 37.2917 17.8054C37.368 17.7509 37.368 17.6964 37.2645 17.7237C37.1338 17.7509 37.0575 17.8054 36.8179 17.7781C35.6198 17.6474 32.2542 16.7325 31.6007 16.9177Z" fill="#059334" stroke="black" stroke-width="0.076244"/>
<path d="M36.9269 17.8055C36.7278 17.9459 36.5577 18.1235 36.4258 18.3283C36.1699 18.666 35.3856 19.0036 34.4162 19.0036C33.4795 19.0036 32.9077 18.8511 32.4884 18.5135C32.3093 18.3703 32.1158 18.2462 31.9111 18.1431C31.6279 18.0124 31.5734 17.7238 31.6497 17.4896C31.5734 17.6203 31.5244 17.751 31.3665 17.7238C31.2576 17.7238 31.0506 17.7238 31.1051 17.8327C31.0778 17.7783 31.0778 17.702 31.0506 17.6693L30.9962 17.6203C31.0778 17.6748 31.263 17.5169 31.3937 17.5169C31.4972 17.5441 31.6279 17.4134 31.6007 17.2554L31.5244 16.9178C31.7314 16.8089 34.4707 17.3099 35.0208 17.3589C35.5654 17.3861 37.1338 17.6203 36.9269 17.8055Z" fill="black" stroke="black" stroke-width="0.076244"/>
<path d="M31.9655 16.8144C32.2269 16.553 32.5374 16.4223 32.8532 16.4986H32.9295C33.0929 16.3679 33.4523 16.3406 33.6647 16.4441H33.7682C34.0786 16.3406 34.6776 16.4441 34.89 16.6565L34.9663 16.711C35.6743 16.6565 36.0882 16.9669 36.5837 17.4679C36.6382 17.5224 36.7145 17.6204 36.8452 17.6477C37.0031 17.6749 37.0303 17.7566 36.8996 17.8328C36.6902 17.9623 36.5058 18.1283 36.355 18.323C36.1154 18.6388 35.3584 18.9547 34.4162 18.9547C33.5068 18.9547 32.9567 18.7913 32.5374 18.4809C32.3032 18.3012 32.1235 18.1977 31.9928 18.116C31.8348 18.0616 31.6279 17.8546 31.7041 17.6477C31.7586 17.4407 31.6279 17.1793 31.5244 16.9179C31.6007 16.8634 31.8076 16.7872 31.9111 16.8417L31.9655 16.8144Z" fill="#059334" stroke="black" stroke-width="0.076244"/>
<path d="M36.5837 17.4679C36.0936 16.9669 35.6742 16.6565 34.9663 16.7055C34.9663 16.7327 34.9663 16.8144 34.939 16.8689C35.4324 17.0903 35.8698 17.4197 36.2188 17.8328C36.3278 17.7239 36.5075 17.5987 36.5837 17.4679ZM34.89 16.6565C34.6776 16.4495 34.0786 16.3406 33.7681 16.4495C33.7681 16.553 33.7681 16.711 33.7137 16.8144C33.8988 16.8907 34.0513 17.0758 34.2093 17.2556C34.3182 17.2283 34.5742 17.1521 34.7049 17.1248C34.7829 16.9757 34.8449 16.8187 34.89 16.6565ZM33.6647 16.4441C33.4523 16.3406 33.0874 16.3679 32.9295 16.4986C32.875 16.6075 32.8532 16.8144 32.8532 16.9179C32.9621 16.9179 33.1146 16.9941 33.1636 17.0486C33.327 16.9941 33.534 16.8907 33.6102 16.8144C33.6374 16.7055 33.6865 16.553 33.6647 16.4495V16.4441ZM31.9655 16.8144C32.2269 16.553 32.5373 16.4223 32.8532 16.4986C32.7988 16.5802 32.777 16.7327 32.777 16.8907C32.4883 16.8634 32.1234 16.9451 31.9655 17.0486V16.8144Z" fill="#00493D" stroke="black" stroke-width="0.076244"/>
<path d="M36.1154 17.882C35.7873 17.4936 35.3784 17.1813 34.9172 16.9671C34.9172 16.9943 34.8628 17.0978 34.8356 17.1795C34.9935 17.4137 35.3039 17.9365 35.4346 18.2251C35.5653 18.1707 35.9302 18.0127 36.1154 17.882ZM34.133 18.4593C34.1782 18.1034 34.2036 17.7452 34.2093 17.3864C34.34 17.3592 34.6014 17.283 34.7049 17.2557C34.8356 17.4681 35.1514 18.0182 35.2821 18.2741C34.9663 18.3504 34.4434 18.4811 34.133 18.4593ZM33.2181 17.2067C33.3488 17.1523 33.534 17.0433 33.6592 16.9453C33.7681 17.0216 33.9751 17.2067 34.0513 17.3102C34.0513 17.5444 33.9751 18.2251 33.9479 18.4539C33.7409 18.4539 33.4033 18.4048 33.2181 18.3014C33.2453 17.9093 33.2726 17.4681 33.2181 17.2067ZM31.9111 17.5171C31.9383 17.4627 31.9655 17.283 31.9655 17.2067C32.1725 17.076 32.6953 16.9453 33.0874 17.1523C33.1146 17.4137 33.0874 18.0672 33.0602 18.2251C32.7109 17.9411 32.3265 17.7031 31.9165 17.5171H31.9111Z" fill="#00493D" stroke="black" stroke-width="0.076244"/>
<path d="M30.6095 17.0451C30.555 17.0451 30.5278 16.8926 30.4243 16.8926C30.3971 16.8926 30.3209 16.9198 30.2936 16.8926C30.2936 16.947 30.3209 17.0015 30.3481 17.0233C30.3753 17.0995 30.506 17.0505 30.6095 17.0505V17.0451Z" fill="black"/>
<path d="M30.6095 17.4915C30.9199 17.4915 30.9744 17.0994 31.1323 17.0776M30.7892 17.5187C31.0234 17.6277 31.2086 17.0776 31.3883 17.0994M30.3209 16.8434C30.3971 16.8434 30.4516 16.7345 30.5823 16.8652C30.6367 16.9197 30.713 16.9469 30.7674 16.9469M30.713 17.2301C30.6041 17.3935 30.4243 17.4915 30.3209 17.4425M30.2664 16.582C30.1902 16.6365 30.1412 16.7345 30.0867 16.8162M30.0105 16.9687V17.0994" stroke="black" stroke-width="0.076244"/>
<path d="M38.724 20.3629V25.4494C38.724 29.8607 36.6382 31.3747 33.8444 32.5728C31.0506 31.3747 28.943 29.8607 28.943 25.4494V20.3574H38.724V20.3629Z" fill="white"/>
<path d="M33.8444 24.6656C34.0786 24.6656 34.4435 24.4587 34.7594 24.1428C35.097 23.7779 35.6743 23.6527 36.2733 24.1428C36.8724 24.6384 37.2373 24.4314 37.5531 24.1428C37.8636 23.8596 38.125 23.7507 38.724 23.7507V20.3633H28.9376V23.7561C29.5366 23.7561 29.798 23.8651 30.1139 24.1483C30.4243 24.4369 30.7892 24.6438 31.3937 24.1483C32.02 23.6581 32.5646 23.7834 32.9295 24.1483C33.2181 24.4641 33.583 24.6711 33.8444 24.6711V24.6656Z" fill="#C8102E"/>
<path d="M33.8444 27.2788C34.1603 27.2788 34.7866 26.9357 34.9391 26.8595C35.5163 26.5164 35.9302 26.8322 36.2733 26.9902C36.6382 27.1427 37.3135 27.3278 37.7329 26.9902C38.1522 26.6471 38.3864 26.6743 38.675 26.6743C38.7295 26.2822 38.7295 25.8901 38.7295 25.449V25.1331C38.3592 25.0568 38.1794 25.1603 37.7873 25.5034C37.3952 25.8411 36.9486 25.7648 36.3714 25.5579C35.8268 25.3183 35.2822 24.9044 34.7321 25.5579C34.504 25.8128 34.1857 25.9691 33.8444 25.9936C33.4523 25.9936 33.1147 25.7376 32.9567 25.5579C32.3849 24.9044 31.8621 25.3183 31.312 25.5579C30.7402 25.7648 30.2664 25.8411 29.8797 25.5034C29.5149 25.1603 29.3297 25.0568 28.9376 25.1331V25.449C28.9376 25.8901 28.9648 26.2822 29.0138 26.6743C29.3025 26.6743 29.5149 26.6471 29.9287 26.9902C30.3481 27.3278 31.0506 27.1427 31.3937 26.9902C31.7586 26.8322 32.1725 26.5164 32.7498 26.8595C32.9077 26.9357 33.5068 27.2734 33.8444 27.2734V27.2788ZM33.8444 28.4007C34.2966 28.3763 34.736 28.2417 35.1242 28.0086C35.647 27.7199 36.0119 27.8452 36.5347 28.1121C37.0793 28.3735 37.5259 28.2918 37.8418 28.1121C37.9943 28.0031 38.125 27.7962 38.4626 27.8779C38.3101 28.5314 38.0705 29.1032 37.7873 29.5716C37.5648 29.6453 37.3299 29.6742 37.0962 29.6564C36.8625 29.6387 36.6346 29.5746 36.4258 29.4681C35.8812 29.2067 35.2005 29.0488 34.8356 29.2829C34.5397 29.4756 34.1972 29.5847 33.8444 29.5988C33.5558 29.5988 33.1909 29.4899 32.8533 29.2829C32.4884 29.0488 31.8076 29.2067 31.263 29.4681C31.0546 29.5755 30.8269 29.6405 30.5932 29.6592C30.3595 29.6779 30.1244 29.65 29.9015 29.577C29.6183 29.1032 29.3841 28.5259 29.2262 27.8779C29.5639 27.7962 29.6946 28.0086 29.8525 28.1121C30.0478 28.2223 30.2682 28.2802 30.4924 28.2802C30.7166 28.2802 30.9371 28.2223 31.1323 28.1121C31.6769 27.8506 32.0418 27.7199 32.5646 28.0031C32.9524 28.2381 33.3918 28.3746 33.8444 28.4007ZM33.8444 32.5723C34.8538 32.1811 35.7964 31.6355 36.6382 30.9549C36.4258 30.8786 36.3006 30.9276 36.1154 30.7969C35.9302 30.6662 35.3856 30.6172 34.9173 30.8786C34.5925 31.0681 34.2232 31.1679 33.8471 31.1679C33.4711 31.1679 33.1018 31.0681 32.777 30.8786C32.3032 30.6172 31.7586 30.6662 31.5789 30.7969C31.3937 30.9276 31.263 30.8786 31.0506 30.9603C31.8891 31.6444 32.8325 32.1888 33.8444 32.5723Z" fill="#0B50A0"/>
<path d="M33.1637 21.6376C33.1909 21.6921 33.1419 21.8228 33.1637 21.8718C33.2181 21.9807 33.2181 22.0352 33.2944 22.0842H33.4795C34.0514 22.0842 34.7321 21.85 35.3039 21.85C35.854 21.85 36.1916 22.0297 36.5021 22.0297C36.6872 22.0297 36.8451 21.899 36.8451 21.7683C36.8451 21.6376 36.6382 21.5614 36.1916 21.5614C35.5653 21.5614 35.2277 21.7193 34.7049 21.7193C33.9206 21.7193 33.7899 21.4307 33.7899 21.3C33.7899 21.1693 33.9206 20.9895 34.34 20.9895C34.4707 20.9895 34.5742 20.9623 34.6286 20.9079C34.6559 20.8534 34.7321 20.7499 34.89 20.6737C35.0698 20.5648 35.4346 20.6737 35.6198 20.543C35.6198 20.6519 35.4619 20.8044 35.3312 20.8588C35.5926 20.7771 35.8758 20.7771 35.9302 20.9895C35.7995 20.9079 35.5926 20.9623 35.5163 20.9895C35.4074 21.0113 35.3584 21.044 35.2549 21.0658C35.3584 21.0386 35.4129 21.2455 35.5653 21.2455C35.4129 21.3762 35.1514 21.3762 34.89 21.2727C34.8083 21.2455 34.6014 21.1693 34.4707 21.1693C34.2093 21.1693 34.0514 21.2237 34.0514 21.3272C34.0514 21.4579 34.2147 21.5341 34.6776 21.5341C35.1514 21.5341 35.4128 21.4034 36.1154 21.4034C36.0609 21.3272 36.1426 21.2455 36.0391 21.1693C36.3005 21.1693 36.5837 21.2455 36.6927 21.4307C36.6654 21.2455 36.8179 21.093 36.7689 20.9351C36.9268 20.9623 37.0575 21.1148 37.0793 21.2455C37.0793 21.1693 37.1882 21.1693 37.1882 21.093C37.2611 21.1324 37.32 21.1932 37.357 21.2673C37.3941 21.3414 37.4074 21.425 37.3952 21.5069C37.4714 21.3762 37.5531 21.4307 37.6021 21.2727C37.6566 21.3817 37.6294 21.6921 37.4442 21.7955C37.6076 21.6866 37.8363 21.6866 37.9943 21.8718C37.8363 21.85 37.7601 21.9263 37.6838 21.9535C37.3038 22.1477 36.8792 22.2379 36.453 22.2149C36.0391 22.1877 35.9847 22.106 35.7233 22.106C35.8812 22.1332 36.1916 22.4491 36.4857 22.4491C36.6654 22.4491 36.7961 22.4491 36.8724 22.4218C36.9486 22.3946 37.0793 22.4218 37.1828 22.4763C37.2645 22.5525 37.4224 22.6288 37.5259 22.607C37.4987 22.7105 37.4442 22.7595 37.368 22.7867C37.4987 22.8684 37.4224 22.9174 37.5531 23.0209C37.4987 23.0209 37.4442 23.0754 37.368 23.0481C37.4442 23.1244 37.4442 23.2333 37.5259 23.2823C37.4987 23.2823 37.417 23.3095 37.368 23.2823C37.4442 23.3912 37.368 23.5165 37.4442 23.5709C37.5259 23.6799 37.368 23.8051 37.2373 23.7016C37.2645 23.7779 37.1828 23.8596 37.1066 23.8324C37.0303 23.8051 36.9759 23.7234 36.9976 23.7016C36.9976 23.6744 36.9976 23.6744 37.0303 23.6472C36.9759 23.7289 36.8724 23.7289 36.8179 23.7016C36.7961 23.6744 36.7635 23.6472 36.7635 23.6254C36.5837 23.6799 36.5075 23.5165 36.5347 23.4402C36.5565 23.364 36.7144 23.3313 36.7689 23.364C36.8234 23.3858 36.8724 23.4185 36.9268 23.364C36.9813 23.3368 37.0031 23.2823 37.0031 23.2333C37.0031 23.1516 36.9268 22.9174 36.5837 22.9447C36.1916 22.9719 35.5653 22.8684 35.2549 22.7595C35.2277 22.7377 35.2005 22.7377 35.1732 22.705C35.1732 22.814 35.0698 22.8684 35.0698 22.9719C35.0698 23.1026 35.1242 23.2061 35.2821 23.2551C35.2005 23.3858 35.0698 23.364 35.0207 23.2823C35.0207 23.364 34.9118 23.413 34.9118 23.5165C34.89 23.462 34.8574 23.4402 34.8356 23.3858C34.7593 23.5709 34.5469 23.6744 34.4435 23.6254C34.3128 23.7289 34.1603 23.7016 34.1058 23.5982C34.0296 23.6526 33.9206 23.6526 33.8716 23.5982C33.8716 23.6744 33.8172 23.6526 33.7899 23.7561C33.7899 23.8106 33.6865 23.8324 33.6375 23.8106C33.583 23.7779 33.5558 23.6744 33.6102 23.6254C33.534 23.6799 33.4523 23.6799 33.4033 23.6254C33.4033 23.5709 33.4033 23.4947 33.4577 23.462H33.5068C33.4523 23.4402 33.376 23.462 33.3216 23.4402C33.2671 23.3858 33.2671 23.3313 33.2944 23.2823C33.3216 23.2551 33.4033 23.2061 33.4577 23.2551L33.4795 23.2823C33.4795 23.2278 33.5068 23.1788 33.534 23.1788C33.5884 23.1516 33.6592 23.1516 33.7409 23.2333C33.7954 23.3095 33.8444 23.3095 34.0023 23.2878C34.133 23.2878 34.34 23.1516 34.4925 23.0209C34.0568 22.9447 34.3128 22.656 34.4435 22.5525C34.34 22.5253 34.1821 22.5253 34.0786 22.5798C33.534 22.8684 32.9567 23.2061 32.5918 23.1026C32.5969 23.1572 32.6156 23.2096 32.6463 23.2551C32.5646 23.2551 32.4067 23.2551 32.3576 23.1788C32.3304 23.2333 32.2814 23.364 32.3304 23.4675C32.276 23.413 32.1235 23.3586 32.0418 23.3368C32.0962 23.3912 32.0418 23.4947 32.069 23.5709C31.9928 23.4947 31.8621 23.4402 31.8076 23.4947C31.7531 23.5492 31.6497 23.5709 31.5734 23.5492C31.5226 23.6209 31.4501 23.6744 31.3665 23.7016C31.3665 23.6472 31.3665 23.5709 31.3392 23.5437C31.312 23.6254 31.2303 23.7289 31.1323 23.7779C31.1323 23.7234 31.1323 23.6472 31.1051 23.5982C31.1051 23.7016 30.8981 23.7561 30.8709 23.8324C30.8981 23.7561 30.8981 23.6744 30.8981 23.6254C30.8692 23.6717 30.8311 23.7115 30.7861 23.7425C30.7411 23.7734 30.6903 23.7947 30.6367 23.8051C30.6585 23.7507 30.6912 23.6962 30.6585 23.6472C30.6367 23.7561 30.4788 23.8106 30.3481 23.7779C30.3481 23.8324 30.2391 23.9086 30.1139 23.8324C30.0322 23.8051 29.9832 23.7234 30.0322 23.6744C29.9287 23.6744 29.8253 23.5709 29.8797 23.4947C29.8797 23.4675 29.9015 23.4402 29.9015 23.413C29.8253 23.3586 29.798 23.2551 29.8797 23.1788C29.9015 23.1516 29.9832 23.1516 30.0322 23.1516C30.0322 22.9447 30.2174 22.9447 30.2936 23.0971C30.3481 23.1788 30.506 23.3095 30.6367 23.2823C30.6912 23.2823 30.713 23.2551 30.7674 23.2551C31.0017 23.1777 31.2222 23.0637 31.4209 22.9174C31.4427 22.8412 31.4427 22.7867 31.4427 22.7377C31.3392 22.7922 31.2358 22.8412 31.1813 22.9174V22.8412C31.1051 22.8412 30.9744 22.814 30.9199 22.814C30.9471 22.7867 30.9744 22.656 31.0288 22.6288C30.8981 22.656 30.7674 22.6288 30.6585 22.607C30.713 22.5525 30.713 22.4763 30.7402 22.3946C30.6857 22.4218 30.555 22.3728 30.4515 22.3946C30.4788 22.3184 30.506 22.2149 30.5822 22.1877C30.4733 22.2149 30.3481 22.1877 30.2174 22.1332C30.3263 22.1332 30.3753 22.0025 30.4515 22.0025C30.2446 22.0025 30.1901 21.899 30.0867 21.85C30.1629 21.8718 30.2174 21.7955 30.2936 21.7955C30.2174 21.7683 30.0867 21.6376 30.1411 21.5614C30.1139 21.5886 30.0867 21.6376 30.0322 21.6703C29.9777 21.6921 29.8797 21.6703 29.798 21.5886C29.7436 21.4797 29.7708 21.3544 29.8797 21.3272C29.8558 21.3257 29.8329 21.3173 29.8136 21.3031C29.7943 21.2889 29.7794 21.2695 29.7708 21.2472C29.7622 21.2248 29.7602 21.2005 29.7651 21.177C29.7699 21.1535 29.7813 21.132 29.798 21.1148C29.8253 21.0603 29.9287 20.9895 29.9832 21.0603L30.0594 21.1693C30.0322 21.1148 30.0322 21.0113 30.0322 20.9351C30.0594 20.8588 30.1139 20.8588 30.1956 20.8262C30.2664 20.8262 30.3208 20.9079 30.3208 20.9895C30.3208 21.0658 30.3481 21.1148 30.3753 21.2237L30.3971 21.1148C30.3971 21.0113 30.5278 21.0386 30.6095 21.0603C30.6857 21.093 30.713 21.2455 30.6095 21.3272C30.555 21.3817 30.5822 21.4579 30.6367 21.5069C30.8164 21.7955 31.1268 22.0297 31.3937 22.057C31.3937 21.948 31.4482 21.85 31.5244 21.7683C31.5244 21.7139 31.5462 21.6376 31.5789 21.5886C31.6007 21.4307 31.6769 21.3544 31.7804 21.4034C31.7586 21.3762 31.7259 21.349 31.7259 21.3272C31.6497 21.2455 31.5734 21.1148 31.6279 21.0113C31.6823 20.9079 31.8348 20.9351 31.8893 20.9895C31.8621 20.8262 32.0418 20.7009 32.0418 20.6192C32.069 20.7009 32.1235 20.8044 32.0962 20.8806C32.1235 20.7771 32.3032 20.6464 32.4339 20.5974C32.3794 20.6737 32.5428 20.8044 32.5156 20.8806C32.57 20.7499 32.777 20.6737 32.9295 20.6737C32.875 20.7281 32.875 20.8316 32.875 20.8806C32.9567 20.8806 33.0929 20.8588 33.1419 20.7771C33.1419 20.8861 33.0874 20.9895 33.0329 21.0386C33.0602 21.0113 33.1637 21.0113 33.2453 21.0113C33.1637 21.093 33.1909 21.1747 33.1146 21.2237C33.2181 21.1693 33.3488 21.1693 33.376 21.2782C33.4305 21.3544 33.3488 21.4851 33.2944 21.5614C33.2399 21.5886 33.1909 21.6376 33.1637 21.6376Z" fill="#F9D050" stroke="black" stroke-width="0.076244"/>
<path d="M31.5516 21.9531C31.3665 22.0294 31.312 22.2145 31.2848 22.318" stroke="black" stroke-width="0.076244"/>
<path d="M31.5244 22.1328C31.263 22.2962 31.1541 22.4215 31.2086 22.7101M31.6497 22.9225C31.8131 22.868 31.9111 22.8136 32.0418 22.5794" stroke="black" stroke-width="0.076244"/>
<path d="M31.9655 22.6836C31.9111 22.7925 31.9655 22.9722 31.8893 23.0485C31.9593 23.0136 32.0198 22.9621 32.0653 22.8985C32.1109 22.8349 32.1402 22.7611 32.1507 22.6836" stroke="black" stroke-width="0.076244"/>
<path d="M32.02 22.9719C32.1235 22.9174 32.2814 22.7595 32.3576 22.5798C32.3304 22.656 32.3576 22.7867 32.3032 22.8684C32.4339 22.7377 32.4883 22.656 32.5156 22.5253L32.5374 22.6342C32.5918 22.5798 32.6463 22.5253 32.6463 22.4218M32.6408 22.4981V22.6288C32.7498 22.5525 32.777 22.4491 32.777 22.3184" stroke="black" stroke-width="0.076244"/>
<path d="M32.7498 22.4769C32.9077 22.368 32.9295 22.2155 32.9295 21.9813M32.9295 22.2427C33.0384 22.161 33.0602 22.112 33.0602 21.8724M32.7225 21.1698C32.6681 21.1698 32.6136 21.1971 32.6136 21.2788C32.6136 21.3278 32.5374 21.404 32.5374 21.4857C32.5156 21.5892 32.4611 21.6164 32.3849 21.5892C32.3032 21.5347 32.3032 21.5347 32.3032 21.4585C32.3032 21.3496 32.4339 21.3278 32.4339 21.2243C32.4611 21.1698 32.4884 21.0936 32.5156 21.0936C32.3849 21.1698 32.1997 21.1154 32.1725 20.9629" stroke="black" stroke-width="0.076244"/>
<path d="M32.9567 21.2464C32.9022 21.2737 32.8478 21.192 32.777 21.2246C32.7498 21.2246 32.6681 21.2464 32.6463 21.2246" stroke="black" stroke-width="0.076244"/>
<path d="M32.5918 21.3767C32.6191 21.4039 32.7498 21.4584 32.8805 21.4039C32.7715 21.4312 32.6953 21.3005 32.7988 21.2242M32.3576 21.1153C32.2487 21.1153 32.1725 21.197 32.1997 21.2787C32.2269 21.3549 32.3304 21.3549 32.4067 21.3005M32.1725 22.4223C32.1997 22.3951 32.2269 22.3461 32.2269 22.3134C32.2814 22.3134 32.3359 22.2916 32.3576 22.2644C32.4611 22.2644 32.5374 22.1882 32.5646 22.1119C32.6191 22.1119 32.6463 21.9812 32.6735 21.9268C32.6953 21.954 32.7498 21.9268 32.777 21.8178C32.8314 21.8505 32.9077 21.8178 32.9295 21.7416M31.8621 21.5619C31.8621 21.5891 31.8076 21.6381 31.7531 21.6708C31.7804 21.7198 31.7531 21.8505 31.7041 21.8723C31.7314 21.9268 31.7041 22.003 31.6769 22.0575C31.6769 22.0847 31.7041 22.1664 31.7041 22.1882M31.9655 21.0391C31.9111 21.1698 31.9383 21.3277 32.0418 21.3549" stroke="black" stroke-width="0.076244"/>
<path d="M32.02 21.4531C31.9928 21.5892 31.9928 21.7689 31.9655 21.8506C31.9383 21.9051 31.8893 22.0848 32.0962 22.1338C32.3304 22.1883 32.4611 22.1611 32.5918 21.7689M32.9839 22.7873C32.9839 22.8146 32.9567 22.869 32.9077 22.869M33.1637 22.7383C33.1637 22.7928 33.1092 22.869 33.0874 22.8908M33.3488 22.6839C33.3488 22.7383 33.3488 22.8146 33.2944 22.8418M31.7586 21.0664C31.7804 21.0664 31.813 21.1209 31.8348 21.1699C31.7586 21.1154 31.6769 21.2461 31.7259 21.3278M31.6769 21.5075L31.5734 21.5892M31.6007 21.7417C31.5734 21.7417 31.5462 21.7689 31.5244 21.7689M30.3481 21.2734C30.3481 21.2461 30.3481 21.2461 30.3753 21.2189M30.1139 21.1971C30.0867 21.1971 30.0867 21.1971 30.0594 21.1699M30.1357 21.562H30.1901M30.0322 21.4041C29.9908 21.363 29.9374 21.3363 29.8797 21.3278M31.4699 22.3734C31.2848 22.5259 31.2085 22.6566 31.1813 22.8418M31.6497 22.4987C31.6034 22.5957 31.5319 22.6785 31.4427 22.7383M30.6367 23.2829C30.5495 23.311 30.4571 23.3188 30.3664 23.3056C30.2758 23.2923 30.1894 23.2585 30.1139 23.2067C30.0867 23.1795 30.0594 23.1795 30.0322 23.1522M31.4155 22.9235C31.3937 23.0215 31.361 23.1522 31.312 23.1795C31.5244 23.0705 31.7041 22.918 31.7314 22.6839M29.9015 23.4136C29.9832 23.3864 30.0649 23.4409 30.1139 23.3864M34.4435 22.5532C34.4979 22.5804 34.5742 22.6076 34.6014 22.6294C34.6286 22.5749 34.7321 22.4987 34.8083 22.4769M32.5918 23.1032C32.5646 22.9943 32.6191 22.869 32.777 22.8146M31.5734 23.5443C31.6007 23.4899 31.6007 23.4136 31.6279 23.3646M30.4243 23.626C30.3971 23.6805 30.3481 23.7295 30.3481 23.7785M30.0322 23.675C30.0322 23.675 30.0322 23.6478 30.0594 23.6478C30.1139 23.626 30.1901 23.5716 30.2174 23.5171M33.583 23.3102C33.5285 23.3374 33.5068 23.3102 33.4795 23.2829M33.5558 23.4409C33.5558 23.4409 33.534 23.4681 33.5013 23.4681M33.6865 23.5716C33.6592 23.5988 33.632 23.626 33.6102 23.626M34.4435 23.626C34.4979 23.5988 34.5252 23.5443 34.5524 23.4409M34.1058 23.5988C34.1821 23.5716 34.2365 23.5171 34.3128 23.4409M34.8356 23.3864C34.8356 23.3319 34.8356 23.2829 34.8628 23.2339M36.7689 23.626C36.7144 23.5716 36.7144 23.4953 36.7961 23.4409C36.8506 23.4136 36.8724 23.3864 36.9268 23.3646" stroke="black" stroke-width="0.076244"/>
<path d="M35.1732 22.7057C34.7593 22.5259 34.7866 22.2918 34.4435 22.319M37.0303 23.5226C37.0575 23.5443 37.0303 23.626 37.0303 23.6478M37.2645 23.5226C37.2373 23.5988 37.2373 23.626 37.2373 23.7023M35.2549 21.0664H35.0371M33.0602 21.9541C33.0602 22.0086 33.1419 22.112 33.3488 22.112C33.3216 22.112 33.2944 22.0848 33.2944 22.0848M33.1637 21.6382C33.1419 21.6655 33.1092 21.6382 33.1092 21.6382C33.0602 21.5838 33.1419 21.4857 33.2181 21.4313C33.1419 21.4585 33.0874 21.4585 33.0329 21.4585C32.9785 21.6165 32.826 21.6927 32.7225 21.5892C32.6953 21.6927 32.5646 21.8234 32.4611 21.7962C32.3522 21.7417 32.3304 21.6655 32.3522 21.5892C32.2269 21.7417 32.069 21.6437 32.02 21.5892C31.9928 21.5348 32.02 21.4041 32.0745 21.2461" stroke="black" stroke-width="0.076244"/>
<path d="M34.8356 22.6289C34.7593 22.6834 34.6776 22.6289 34.6014 22.7106C34.5469 22.7651 34.6286 22.7868 34.6776 22.7868C34.6559 22.8685 34.6559 22.8958 34.7866 22.8958C34.7321 22.972 34.89 22.9992 34.8628 23.1027C34.8956 23.0687 34.9181 23.0261 34.9278 22.9799C34.9374 22.9336 34.9338 22.8856 34.9173 22.8413C34.89 22.7596 34.7539 22.7106 34.8356 22.6289Z" fill="black"/>
<path d="M32.4611 21.7954C32.3522 21.7409 32.3304 21.6647 32.3522 21.5885C32.3304 21.6429 32.2814 21.6647 32.2269 21.6647C32.118 21.8989 31.9928 22.1113 31.8348 22.1113C31.6497 22.1331 31.6769 22.3182 31.8076 22.3182C32.0962 22.3727 32.2269 22.2638 32.4611 21.7954ZM29.8797 21.1691C29.956 21.0929 29.9015 21.0112 29.8525 20.9894C29.7708 20.9622 29.6183 20.9894 29.5366 21.1147C29.6183 21.0929 29.7 21.0929 29.7218 21.1419C29.749 21.1963 29.798 21.2508 29.8797 21.1691ZM30.0104 20.7008C30.1901 20.7008 30.2446 20.728 30.2664 20.8042C30.2936 20.8587 30.2446 20.9349 30.1901 20.9349C30.1139 20.9349 30.0322 20.8805 30.0594 20.8587C30.0867 20.8042 30.0867 20.728 30.005 20.6953L30.0104 20.7008ZM30.5278 21.1147C30.6585 21.1419 30.713 21.0602 30.6367 20.9622C30.6095 20.8805 30.5278 20.8315 30.3971 20.8532C30.5278 20.9349 30.3971 21.0656 30.5278 21.1147ZM29.5639 21.5612C29.5873 21.6076 29.6265 21.644 29.6744 21.664C29.7224 21.6839 29.7759 21.6861 29.8253 21.6701C29.9015 21.6375 29.9342 21.5612 29.9015 21.5068C29.847 21.4305 29.7708 21.4033 29.749 21.5068C29.6946 21.6157 29.6183 21.5885 29.5639 21.5612ZM29.956 23.1515C29.9015 23.048 29.749 23.048 29.6183 23.1515C29.6728 23.1242 29.7708 23.1515 29.798 23.2059C29.8253 23.2604 29.8797 23.2604 29.9069 23.2604C29.9287 23.2331 29.9832 23.2059 29.956 23.1515ZM30.1629 22.999C30.1629 22.8683 29.9832 22.8356 29.8797 22.89C29.9342 22.89 30.0104 22.9445 30.0104 22.999C30.0322 23.0534 30.0867 23.0752 30.1139 23.0752C30.1684 23.048 30.1901 23.0208 30.1684 22.999H30.1629ZM29.9015 23.4673C29.749 23.4401 29.6673 23.6253 29.6673 23.7505C29.6946 23.6743 29.7762 23.6253 29.8525 23.647C29.9287 23.647 29.956 23.6253 29.956 23.5708C29.9832 23.5163 29.956 23.4946 29.9015 23.4619V23.4673ZM29.9287 23.9085C29.9832 23.9357 30.0377 23.8812 30.0594 23.805C30.0594 23.7505 30.1684 23.7505 30.1901 23.7777C30.2446 23.805 30.2446 23.9085 30.1629 23.9629C30.1085 23.9901 29.9832 24.0174 29.9287 23.9085ZM33.5558 23.1242C33.5013 23.1024 33.376 23.048 33.2726 23.1242C33.3488 23.1024 33.4033 23.1515 33.4251 23.2059C33.4251 23.2604 33.5068 23.2822 33.534 23.2331C33.5558 23.2059 33.5884 23.1515 33.5558 23.1242ZM33.3216 23.3094C33.2181 23.2549 33.0874 23.3856 33.0602 23.4946C33.1134 23.4511 33.1774 23.4229 33.2453 23.4129C33.2998 23.4401 33.3488 23.4129 33.3488 23.3584C33.3761 23.3366 33.3761 23.3094 33.3216 23.3094ZM33.4577 23.5218C33.3761 23.5218 33.2726 23.6253 33.2726 23.7287C33.2944 23.6743 33.3488 23.647 33.4033 23.6743C33.4577 23.6743 33.534 23.647 33.534 23.598C33.534 23.5436 33.5068 23.5163 33.4523 23.5163L33.4577 23.5218ZM33.6865 23.7287C33.632 23.7015 33.5558 23.7287 33.5558 23.805C33.5558 23.8812 33.5558 23.9629 33.534 23.9901C33.5884 23.9357 33.6375 23.9085 33.6865 23.8812C33.7137 23.8594 33.7409 23.7777 33.6865 23.7287ZM36.6382 23.4946C36.5837 23.4401 36.5075 23.4673 36.4803 23.5163C36.453 23.5708 36.4258 23.7015 36.4803 23.805C36.4803 23.7505 36.5347 23.6743 36.5892 23.6743C36.6654 23.647 36.6872 23.5436 36.6382 23.4946ZM36.7961 23.598C36.6872 23.6525 36.6872 23.8322 36.7689 23.9357C36.7689 23.8812 36.7961 23.805 36.8452 23.7777C36.9268 23.7777 36.9541 23.6743 36.9268 23.6253C36.8724 23.5708 36.8179 23.598 36.7961 23.598ZM37.1066 23.7015C37.0521 23.6743 36.9976 23.7287 36.9976 23.7777C36.9759 23.8594 37.0303 23.9629 37.1066 24.0119C37.1066 23.9575 37.1338 23.9085 37.161 23.8812C37.2373 23.8268 37.2155 23.7287 37.1066 23.7015ZM37.3407 23.6743C37.2863 23.6743 37.2373 23.7505 37.2863 23.8322C37.3135 23.8867 37.368 23.9085 37.4714 23.8867C37.4442 23.8867 37.3952 23.805 37.417 23.7777C37.4442 23.7233 37.417 23.6743 37.3407 23.6743Z" fill="#073163"/>
<path d="M30.0867 28.5543L31.3937 24.5352L32.7007 28.5543L29.2752 26.0764H33.5122L30.0867 28.5543Z" fill="#F9D050"/>
<path d="M30.3481 28.1902L33.0602 26.2079H29.7218L32.4066 28.1902L31.3937 25.0098L30.3481 28.1902Z" fill="#024919"/>
<path d="M34.9935 28.5543L36.3005 24.5352L37.6076 28.5543L34.182 26.0764H38.419L34.9935 28.5543Z" fill="#F9D050"/>
<path d="M35.2549 28.1902L37.967 26.2079H34.6286L37.3135 28.1902L36.3005 25.0098L35.2549 28.1902Z" fill="#024919"/>
<path d="M32.5374 31.3961L33.8444 27.377L35.1515 31.3961L31.7259 28.9182H35.9629L32.5374 31.3961Z" fill="#F9D050"/>
<path d="M32.7988 31.032L35.5109 29.0497H32.1725L34.8574 31.032L33.8444 27.8516L32.7988 31.032Z" fill="#024919"/>
<path d="M38.724 20.3629V25.4494C38.724 29.8607 36.6382 31.3747 33.8444 32.5728C31.0506 31.3747 28.943 29.8607 28.943 25.4494V20.3574H38.724V20.3629Z" stroke="black" stroke-width="0.076244"/>
</g>
<defs>
<clipPath id="clip0_1911_283">
<rect x="4" y="9" width="40" height="30" rx="5" fill="white"/>
</clipPath>
</defs>
</svg>
