<svg height="48" viewBox="0 0 48 48" width="48" xmlns="http://www.w3.org/2000/svg" xmlns:xlink="http://www.w3.org/1999/xlink"><defs><path id="a" d="m8 9h32c2.209139 0 4 1.790861 4 4v22c0 2.209139-1.790861 4-4 4h-32c-2.209139 0-4-1.790861-4-4v-22c0-2.209139 1.790861-4 4-4z"/><mask id="b" fill="#fff"><use fill="#fff" fill-rule="evenodd" xlink:href="#a"/></mask></defs><g fill="none" fill-rule="evenodd"><path d="m0 0h48v48h-48z"/><use fill="#d8d8d8" xlink:href="#a"/><g mask="url(#b)"><g fill-rule="nonzero" transform="translate(4 9)"><path d="m0 0h40v30h-40z" fill="#6fdcff"/><g fill="#ffe400"><g transform="translate(1.5 .3125)"><path d="m2.2646875 28.8746875c.20325.199.136375.5336875.7015625.490625.862875 0 .88775-.5278125.88775-.8964375 0-.368-1.2856875-.88275-1.344875-1.4243125-.06-.542125.29675-.6935.59525-.6935.29675 0 .505125.1735625.505125.324875s-.148375.195125-.35675.195125.0891875-.1083125-.0891875-.195125-.297625.129875-.297625.260375c0 .1298125.446.172875.7435625.075625.0600625.2923125.08925.3145-.327625.8123125.2985-.1950625.3268125-.238125.6553125-.1298125-.3276875-.281875-.082375-.856-.07125-1.0021875s-.0625625-.3196875-.196375-.4064375c-.2384375-.216625-.7590625-.226375-1.07125-.08675-.4545625.202875-.476875.8011875-.357625.996875l1.2599375 1.291875c.0891875.152.12.574125-.415125.595625-.56525.043125-.7590625-.7275-.859375-.983875-.1346875.2799375-.2848125 1.052375-.85 1.009375-.5360625-.0215625-.639-.44375-.5498125-.5956875l1.29425-1.3173125c.118375-.1956875.0960625-.794-.3585-.996875-.3121875-.139625-.8319375-.129875-1.070375.08675-.1338125.08675-.2084375.2603125-.19725.4064375s.2564375.7203125-.07125 1.0021875c.3285-.1083125.3576875-.06525.6553125.1298125-.416875-.4978125-.386875-.52-.327625-.8123125.297625.09725.7444375.0541875.7444375-.075625 0-.1305-.1200625-.347125-.2984375-.260375-.1775625.0868125.1191875.195125-.088375.195125-.20925 0-.357625-.04375-.357625-.195125s.208375-.324875.506-.324875.654375.151375.594375.6935c-.0591875.5415625-1.3783125 1.1326875-1.3783125 1.500625 0 .368625.0918125.820125.954625.820125.56525.0430625.632125-.291625.837125-.490625z"/><path d="m2.1960625 21.1433125c.20325-.199.3705-.7888125.93575-.74575.8628125 0 1.189625.476875 1.189625.8455625 0 .3679375-1.754875 3.38025-1.814 3.9218125-.0600625.542125.29675.6935.5951875.6935.29675 0 .5051875-.1735.5051875-.324875s-.148375-.195125-.3568125-.195125.08925.1083125-.0891875.195125-.297625-.129875-.297625-.2603125c0-.129875.446-.1729375.743625-.0756875.06-.2923125.0891875-.3145-.327625-.8123125.2985.1950625.32675.238125.65525.1298125-.327625.281875-.0823125.856-.0711875 1.0021875s-.0625625.3196875-.196375.4064375c-.2384375.216625-.7590625.2264375-1.07125.0868125-.4545625-.2029375-.476875-.80125-.3576875-.9969375l1.695625-3.662125c.08925-.1520625-.1483125-.6505-.6835625-.672-.5651875-.043125-.759.549375-.859375.80575l.7701875-.056125s.03.11875 0 .19575c-.3979375.0260625-.7701875.0985-.7701875.0985l-.0291875.390125h.38l-.03.1729375s-.3208125-.0215625-.35 0c-.03.0215-.06.3908125-.06.3908125s-.0591875.0215-.1235.0215c-.0651875 0-.124375-.0215-.124375-.0215s-.03-.3693125-.0591875-.3908125c-.03-.0215625-.3508125 0-.3508125 0l-.029125-.1729375h.3799375l-.03-.390125s-.37225-.0724375-.77025-.0985c-.029125-.077 0-.19575 0-.19575l.77025.056125c-.100375-.2564375-.2941875-.8488125-.8585625-.80575-.5360625.0215-.773625.52-.6844375.672l1.6965 3.662125c.118375.19575.0960625.794-.3585.996875-.3121875.1396875-.832.129875-1.070375-.08675-.1338125-.08675-.2084375-.2603125-.1973125-.4064375s.2564375-.7203125-.0711875-1.0021875c.3285.1083125.3576875.06525.6553125-.1298125-.416875.4978125-.386875.52-.3276875.8123125.297625-.09725.7445-.0541875.7445.075625 0 .1305-.1200625.347125-.2985.260375-.1775-.0868125.11925-.195125-.0883125-.195125-.2093125 0-.3576875.04375-.3576875.195125s.2084375.324875.5060625.324875.654375-.151375.594375-.6935c-.0591875-.5415625-1.814-3.553875-1.814-3.921875 0-.3685625.32675-.8455 1.189625-.8455.5651875-.043125.765875.54675.970875.74575z"/><path d="m2.1960625 19.6505c.20325.199.3705.7888125.93575.74575.8628125 0 1.189625-.476875 1.189625-.8455625 0-.368-1.754875-3.38025-1.8140625-3.9218125-.06-.5421875.2968125-.6935.59525-.6935.29675 0 .5051875.1735.5051875.324875s-.148375.1950625-.3568125.1950625.0891875-.10825-.0891875-.195-.297625.1298125-.297625.26025c0 .129875.446.1729375.743625.0756875.06.2923125.0891875.3145-.327625.8123125.2984375-.1950625.32675-.238125.65525-.1298125-.327625-.281875-.0823125-.856-.0711875-1.0021875s-.062625-.3196875-.196375-.4064375c-.2384375-.216625-.7590625-.2264375-1.07125-.0868125-.454625.2029375-.476875.80125-.3576875.9969375l1.695625 3.662125c.08925.1520625-.148375.6505-.6835625.672-.5651875.043125-.7590625-.549375-.859375-.80575l.7701875.056125s.03-.11875 0-.19575c-.3979375-.0260625-.7701875-.0985-.7701875-.0985l-.0291875-.3901875h.38l-.03-.172875s-.3208125.0215625-.35 0c-.03-.0215-.06-.3908125-.06-.3908125s-.0591875-.0215-.1235625-.0215c-.065125 0-.124375.0215-.124375.0215s-.03.3693125-.059125.3908125c-.03.0215625-.3508125 0-.3508125 0l-.0291875.172875h.38l-.03.3901875s-.37225.0724375-.77025.0985c-.029125.077 0 .19575 0 .19575l.7701875-.056125c-.1003125.2564375-.2941875.8488125-.8585.80575-.5360625-.0215-.773625-.52-.6844375-.672l1.6965-3.662125c.118375-.19575.0960625-.794-.3585-.996875-.3121875-.1396875-.832-.129875-1.0704375.08675-.13375.08675-.208375.2603125-.19725.4064375s.2564375.7203125-.0711875 1.0021875c.3285-.1083125.3576875-.06525.65525.1298125-.4168125-.4978125-.3868125-.52-.327625-.8123125.297625.09725.7445.0541875.7445-.075625 0-.1305-.1200625-.347125-.2985-.260375-.1775.0868125.11925.1950625-.0883125.1950625-.2093125 0-.3576875-.0436875-.3576875-.195s.2084375-.325.5060625-.325.654375.151375.594375.6935625c-.0591875.5415625-1.814 3.5538125-1.814 3.921875 0 .3685625.32675.8455 1.189625.8455.5651875.0430625.765875-.54675.970875-.74575z"/><path d="m2.1960625 9.725625c.20325-.199.3705-.78875.93575-.74575.8628125 0 1.189625.4769375 1.189625.845625 0 .3679375-1.754875 3.38025-1.814 3.92175-.0600625.5421875.29675.6935625.5951875.6935625.29675 0 .5051875-.1735625.5051875-.3249375s-.148375-.1950625-.3568125-.1950625.08925.1083125-.0891875.1950625-.297625-.1298125-.297625-.2603125c0-.1298125.446-.172875.743625-.075625.06-.292375.0891875-.3145-.327625-.8123125.2985.195.32675.238125.65525.1298125-.327625.281875-.0823125.856-.0711875 1.002125s-.0625625.3196875-.196375.4065c-.2384375.2165625-.7590625.226375-1.07125.08675-.4545625-.202875-.476875-.8011875-.3576875-.996875l1.695625-3.6621875c.08925-.152-.1483125-.6504375-.6835625-.672-.5651875-.0430625-.759.549375-.859375.80575l.7701875-.056125s.03.11875 0 .19575c-.3979375.026125-.7701875.0985-.7701875.0985l-.0291875.3901875h.38l-.03.172875s-.3208125-.0215-.35 0c-.03.0215625-.06.3908125-.06.3908125s-.0591875.0215625-.1235.0215625c-.0651875 0-.124375-.0215625-.124375-.0215625s-.03-.36925-.0591875-.3908125c-.03-.0215-.3508125 0-.3508125 0l-.029125-.172875h.3799375l-.03-.3901875s-.37225-.072375-.77025-.0985c-.029125-.077 0-.19575 0-.19575l.77025.056125c-.100375-.256375-.2941875-.84875-.8585625-.80575-.5360625.0215625-.773625.52-.6844375.672l1.6965 3.662125c.118375.19575.0960625.7940625-.3585.9969375-.3121875.139625-.832.1298125-1.070375-.08675-.1338125-.0868125-.2084375-.2603125-.1973125-.4065s.2564375-.72025-.0711875-1.002125c.3285.1083125.3576875.06525.6553125-.1298125-.416875.4978125-.386875.52-.3276875.81225.297625-.0971875.7445-.054125.7445.0756875 0 .1305-.1200625.347125-.2985.2603125-.1775-.08675.11925-.1950625-.0883125-.1950625-.2093125 0-.3576875.04375-.3576875.1950625s.2084375.3249375.5060625.3249375.654375-.151375.594375-.6935625c-.0591875-.5415-1.814-3.5538125-1.814-3.9218125 0-.368625.32675-.8455625 1.189625-.8455625.5651875-.0430625.765875.54675.970875.74575z"/><path d="m2.1960625 8.232875c.20325.199.3705.78875.93575.74575.8628125 0 1.189625-.4769375 1.189625-.845625 0-.3679375-1.754875-3.38025-1.8140625-3.92175-.06-.5421875.2968125-.6935625.59525-.6935625.29675 0 .5051875.1735625.5051875.3249375s-.148375.1950625-.3568125.1950625.0891875-.1083125-.0891875-.1950625-.297625.1298125-.297625.2603125c0 .1298125.446.172875.743625.075625.06.2923125.0891875.3145-.327625.8123125.2984375-.195.32675-.238125.65525-.1298125-.327625-.281875-.0823125-.856-.0711875-1.002125s-.062625-.3196875-.196375-.4065c-.2384375-.216625-.7590625-.226375-1.07125-.08675-.454625.202875-.476875.8011875-.3576875.996875l1.695625 3.6621875c.08925.152-.148375.6504375-.6835625.672-.5651875.0430625-.7590625-.549375-.859375-.80575l.7701875.0560625s.03-.11875 0-.1956875c-.3979375-.026125-.7701875-.0985625-.7701875-.0985625l-.0291875-.390125h.38l-.03-.172875s-.3208125.0215-.35 0c-.03-.0215625-.06-.3908125-.06-.3908125s-.0591875-.0215625-.1235625-.0215625c-.065125 0-.124375.0215625-.124375.0215625s-.03.36925-.059125.3908125c-.03.0215-.3508125 0-.3508125 0l-.0291875.172875h.38l-.03.390125s-.37225.0725-.77025.0985625c-.029125.077 0 .1956875 0 .1956875l.7701875-.0560625c-.1003125.256375-.2941875.84875-.8585.80575-.5360625-.0215625-.773625-.52-.6844375-.672l1.6965-3.662125c.118375-.19575.0960625-.7940625-.3585-.9969375-.3121875-.139625-.832-.129875-1.0704375.08675-.13375.0868125-.208375.2603125-.19725.4065s.2564375.72025-.0711875 1.002125c.3285-.1083125.3576875-.06525.65525.1298125-.4168125-.4978125-.3868125-.52-.327625-.81225.297625.0971875.7445.054125.7445-.0756875 0-.1305-.1200625-.347125-.2985-.2603125-.1775.08675.11925.1950625-.0883125.1950625-.2093125 0-.3576875-.04375-.3576875-.1950625s.2084375-.3249375.5060625-.3249375.654375.151375.594375.6935625c-.0591875.5415-1.814 3.5538125-1.814 3.9218125 0 .368625.32675.8455625 1.189625.8455625.5651875.0430625.765875-.54675.970875-.74575z"/><path d="m2.264625.5001875c.2033125-.199.136375-.53375.701625-.490625.8628125 0 .8876875.5278125.8876875.8964375 0 .3679375-1.285625.88275-1.344875 1.42425-.06.5421875.2968125.6935625.59525.6935625.29675 0 .5051875-.1735625.5051875-.3249375s-.148375-.1950625-.3568125-.1950625.0891875.1083125-.0891875.1950625-.297625-.1298125-.297625-.2603125c0-.1298125.446-.172875.743625-.075625.06-.292375.0891875-.3145625-.327625-.8123125.2984375.195.32675.238125.65525.1298125-.327625.281875-.0823125.856-.0711875 1.002125s-.062625.3196875-.196375.4065c-.2384375.2165625-.7590625.226375-1.07125.08675-.454625-.202875-.476875-.8011875-.3576875-.996875l1.26-1.291875c.089125-.152.12-.574125-.4151875-.595625-.5651875-.043125-.7590625.7274375-.859375.9838125-.1346875-.279875-.28475-1.052375-.85-1.0093125-.536.0215625-.6389375.4436875-.54975.595625l1.29425 1.3173125c.118375.19575.0960625.7940625-.3585.9969375-.3121875.139625-.832.1298125-1.0704375-.08675-.13375-.0868125-.208375-.2603125-.19725-.4065s.2564375-.72025-.0711875-1.002125c.3285.1083125.3576875.06525.65525-.1298125-.4168125.49775-.3868125.52-.327625.81225.297625-.0971875.7445-.054125.7445.0756875 0 .1305-.1200625.347125-.2985.2603125-.1775-.08675.11925-.1950625-.0883125-.1950625-.2093125 0-.3576875.04375-.3576875.1950625s.2084375.3249375.5060625.3249375.654375-.151375.594375-.6935625c-.0591875-.5415-1.3783125-1.132625-1.3783125-1.500625 0-.368625.09175-.8200625.954625-.8200625.5651875-.043125.632125.291625.8370625.490625z"/></g><g transform="translate(10.309381 4.253362)"><rect height="10.759718" rx="5.379859" width="11.356072" x="5.930186" y="3.231918"/><path d="m11.3360601.02368072c-.047228-.00046694-.3024461 1.79052916-.4011047 2.19303467-.0883857.89586494 1.205382.86317888.9937231-.03548772l-.5923515-2.15754695zm.4556037 17.33395258c.0470946.0035354.4329236-1.7663148.5608662-2.1613492.1538246-.8878602-1.1392094-.9404247-.9939232-.0300178l.433057 2.1913003zm-9.04536749-8.77854249c-.00400237.04462648 1.86210497.41871513 2.27841868.54185487.93635563.15002236.99805891-1.07483781.03648832-.94155872zm18.12542229.21279294c.0020011-.04469319-1.8788483-.35180876-2.3002317-.4600063-.9420923-.11640241-.9494967 1.10985859.0052698.94222578l2.2949619-.48228619zm-16.21628941-5.88075629c-.03215242.03281947 1.19357493 1.4174411 1.44118853 1.75757627.63957952.66506131 1.48521466-.26315616.6414473-.71996056l-2.08256913-1.03788254zm14.08569171 11.40670204c.0290173-.0353543-1.3189159-1.3139797-1.5967475-1.6324354-.6980809-.6100286-1.4554636.3842948-.5730067.7699903l2.1698209.8624451zm-11.27202209-13.34265083c-.04295882.01867775.53138199 1.74196701.62303638 2.14600677.32285825.84616878 1.47867744.29444138.88319075-.43312368zm8.20553579 15.49859683c.0442263-.0158094-.4023721-1.7727186-.4642755-2.181828-.2599542-.8653802-1.4535292-.3910321-.9126749.3739552l1.3769504 1.8078061zm2.0131946-14.29901834c-.0340868-.0310184-1.5149656 1.10799081-1.8779143 1.33712678-.7121559.59521987.2539507 1.41123743.7495114.61916742zm-12.2019072 12.92286844c.03175217.033153 1.59254501-1.0056635 1.97136981-1.2103849.75404745-.5469246-.14988895-1.424512-.7022834-.6669958zm-2.34072231-9.6170401c-.01934482.04082422 1.60922157.98158247 1.95862891 1.22886254.83042611.43645899 1.31844903-.69921492.36488319-.87645342zm16.93805101 6.5665632c.0223466-.0394233-1.5333766-1.0850438-1.8638393-1.3547372-.796406-.4900908-1.3665443.6107624-.4281875.8503713zm-5.3831944-11.53224316c-.043826-.01674326-.9719768 1.56199355-1.2190567 1.90252896-.4277205.80327666.7892016 1.22079108.9386903.31098454l.2804331-2.2135135zm-6.26038155 16.29306826c.04249188.0196116 1.08410997-1.4942867 1.35560441-1.8177453.48562154-.7731921-.69781408-1.2697535-.9136088-.3720208l-.44199561 2.1896994zm-5.16840025-4.6220761c.01714351.0416915 1.86684111-.3993036 2.29796361-.4620074.91067372-.2551514.39790278-1.3810195-.40397305-.8609109zm16.8159786-6.84206001c-.0140084-.042692-1.8915892.27549681-2.3262471.30971712-.9271502.19458213-.4981623 1.35153533.3399351.88539205z"/><path d="m13.1824891.14135054c-.0461607-.00940558-.6764014 1.69627323-.8585094 2.07176272-.2767642.86071074.9975252 1.07523804.9809154.15462508l-.122406-2.22632109zm-3.23325191 17.06686076c.04536025.0124741.79907421-1.6476444 1.00826501-2.0102595.3392012-.8404321-.9162771-1.1382755-.96724067-.2187965zm-.65172007-16.89876101c-.04616072.0096057.12794259 1.80920692.12674188 2.22245214.12540775.89186256 1.3786848.58588099.9602365-.24514547l-1.08664484-1.97730667zm4.53669208 16.79803461c.0466944-.0065372.005003-1.813276.0364216-2.2254539-.0597021-.8979996-1.3323906-.675134-.975779.181441l.9393574 2.0439462zm-7.75326745-15.30027918c-.03868962.02561521.85150528 1.62396366 1.01793737 2.00585694.47721652.77786158 1.51036292.03928998.78713376-.57567493l-1.80507113-1.430182zm10.99719235 13.85942418c.0404907-.0230137-.7304334-1.6760613-.8684486-2.0680272-.4191154-.8074124-1.5038925-.1385489-.8274244.5225768zm-13.3425841-11.6215629c-.02648238.03708867 1.40936965 1.22672794 1.70928095 1.52677265.73983902.56406805 1.4248455-.47641604.51697344-.80481091zm15.6219367 9.3135266c.0290839-.0352876-1.3160476-1.3165145-1.5932788-1.6355705-.6967468-.6113628-1.4563308.3815597-.5746743.7688562l2.1679531.8666476zm-16.65121414-6.51920179c-.01207383.04329236 1.7567758.7193602 2.144139.90920619.8944641.30217931 1.18023368-.89386375.20879056-.92114661zm17.84192064 3.85695539c.0152758-.0423585-1.6998086-.83316108-2.072363-1.04808861-.8701831-.36021375-1.2428709.81408311-.2758304.90520381l2.3481934.1429515zm-17.89995508-.426253c.00653722.0443597 1.91373561.0174771 2.34852695.0501631.94816264-.0502298.72196174-1.25761288-.1845762-.92581599zm18.02469578-3.00111414c-.0033353-.04469319-1.9078654-.14335173-2.339188-.20458807-.9495635-.01227395-.8123487 1.2070496.116269.93568857zm-16.39172678 6.56789734c.02634897.0371554 1.72942624-.7765274 2.1356006-.9271501.82969234-.4377264.0693745-1.4300486-.59301856-.7563155zm14.82879938-10.16136303c-.0235473-.03882303-1.7821909.66085882-2.1983712.7843988-.8597768.38202669-.1741033 1.42204384.5361182.79353755l1.6623197-1.57786964zm-12.05048406 12.51876193c.03982363.0241477 1.25888035-1.3657438 1.5679304-1.6573835.57654212-.7149576-.53845285-1.3375937-.86217828-.4694119zm9.31953016-14.92265506c-.0379558-.0266825-1.3559379 1.279626-1.6856002 1.55018655-.6275057.67533407.4391272 1.36981284.82569.52497818l.8599102-2.07523143z"/><g transform="translate(.0004 8.769651)"><path d="m2.93153882 3.42493355c.09098733.34402081.11369776 2.27906905 2.16098537 4.1282497 2.04714202 1.84904304 5.52751641 2.25760215 5.52751641 2.25760215s.0227104.2580156-.2275411.2794825c-.2502516.0216045-1.43308679-.2149442-2.02443161-.3869546-.59149041-.17201041-1.11455834-.47309742-1.18283523-.45149291-.06827689.0214669-.18197465.2149442-.3639493.1934773s-1.02357101-.86005202-1.38752031-1.07513383c-.3639493-.2149442-1.59235098-1.48355533-2.00172115-2.10705864-.40951575-.62350331-.50050308-1.03206242-.63691128-1.03206242-.13655377 0-.61420083.3009494-.61420083.3009494s-.43222619-.62350331-.81888593-1.61263194c-.38665974-.98899102-.34123886-1.56956053-.25025154-1.61249433.09098733-.04307141.09098733.73097541.38665974 1.44048393.29581799.70964612.70518816.92459032.70518816.92459032s-.27296197-.36548771-.47764706-1.29007803-.27296197-1.80610924-.13655378-2.08559175c.13655378-.2794825.27296198-.3654877.29581799-.3440208.02271044.02146689-.25025153.43002601-.06827688 1.48355533s.70518816 1.95665274.81888592 1.91358134c.11369776-.0429338-.06827689-.25801561-.15926421-.88151892-.09098733-.62350331.09098732-1.01059552.25025154-1.05352932.06827688-.0645383.18197465.68804161.20468508 1.01059552zm-1.43323234 1.76276262c-.38665974-.3440208-1.00086058-1.54809363-1.13726877-1.48355533-.13655378.06453831 1.00086057 1.78464234 1.02357101 1.93518585.02271043.1504059.27296197.62350331.09098732.55896501-.18197465-.06453831-1.54678452-1.41901703-1.38752031-1.16100142.15926421.2580156 1.18283523 1.44048392 1.11455834 1.50502223-.06827689.0645383-.84159636-.64510782-.8643068-.55896501-.02285602.0860052.77331947.79551371.75060904.88151892-.02271044.0860052-.50050308-.45149291-.50050308-.34402081s.50050308.64497021.50050308.73097541-.43222619-.3869546-.29567242-.128939c.1364082.25801561.52306794.49456431.5003575.58056952-.02271043.0860052-.31838285-.10760971-.31838285-.06453831 0 .0429338.56863439.23654871.70504259.38695461.13655378.1505435 1.06913746 1.16113903 1.77432563 1.67717024.70518816.51603122 2.70690931 1.39755012 2.84331751 1.39755012.13655377 0 .34123886-.2794825.29567241-.3869546-.04542087-.1076097-2.00172115-.73111302-2.5476451-1.20407282-.54592395-.47309742-1.88787781-1.59116504-2.00172115-1.65570335-.11369776-.06440069-.40937017-.04293379-.40937017-.1074721 0-.0645383.38665973.04307141.3639493 0-.02271044-.04293379-.54592395-.2580156-.52321352-.3009494.02271044-.0430714.3639493.0860052.3639493.0429338 0-.0429338-.61420084-.36548771-.59134482-.43002601.02271044-.06453831.45493662.1934773.45493662.1505435 0-.0430714-.5914904-.43002601-.56877996-.49456431.02285601-.0645383.45493662.30108701.43222619.21508181-.02271044-.0860052-.34123887-.53763572-.34123887-.60203641 0-.06453831.52321352.4729598.56877997.3654877.04542087-.1074721-.18197465-.98912862-.15926421-1.01059552.02271043-.0214669.38505836.19567903.45333524.06660243.06813131-.128939-.26742994-.30838026-.58988902-.56116675zm6.71238973 6.77046713c-.27558241.0342645-.39990749-.0540801-.24340929-.2661345.21662262-.0151369.79326389-.1897619.9970755-.2697123.20381161-.0799505.42130771-.1948534.6022633-.3486995.18051885-.1678822.27703821.1076097.1866332.2503095-.07497355.1004541-.41315524.2812714-.66165983.3769092-.36089212.1135269-.67112251.2706756-.88090288.2573276zm1.81785399-.7060683c-.18197468-.1936149-.0227105-.3225539.2502515-.4730974.4093702-.2149442.295818-.4944267.8188859-.7309755.2275411-.12907656 3.4802288-1.37608318 4.5493663-2.0426579 1.0691374-.66657472 4.0490087-2.79523787 4.8450386-4.2573263.7961755-1.46208844.4095158-1.56956054.5232136-1.63409884.1136977-.0644007.2275411.21508181.204685.53763572-.0227104.3224163-.2729619 1.29007803-.204685 1.37608323.0682768.0860052 1.2055456-.75257992 1.6604822-1.78464234.4549367-1.03206243.818886-2.10719625 1.0464271-2.10719625.2273955 0-.3866598 1.76317544-.7734651 2.45121705-.3866597.68804162-.8415963 1.03206243-.7278986 1.18260593.1138434.1504059 1.2511121-.75257992 1.6377719-1.41915463.3868053-.66657472.7507546-1.26861113.8188859-1.13953453.0682769.128939-.3639493 1.54809364-.9780046 2.21466836-.6142008.6664371-1.3420994 1.13953452-1.2284016 1.24700662.1136977.10760971.9325836.21508181 1.797036-.34402081.8643068-.55896501.9552941-1.37608323 1.0691375-1.33301182.1136977.04293379-.1138434 1.16100142-.9327293 1.84904303-.8188859.68804162-1.9334442.75257992-1.8878778.90312343.0454209.1505435 2.3656705-.62350331 2.320104-.45149291-.0454209.1720104-3.0025817 1.26847352-3.0254377 1.37608323.0001455.0860052.5006486.1074721 1.2966785-.0645383.7961755-.17201041 1.5469301-.75244231 1.6606279-.62350331.0225649.1934773-.56878.66657471-1.4786532.88151891-.9098733.21508181-1.3648099.51603122-1.3875203.58056952-.0227105.06440069 1.6150614-.19361491 1.6150614-.10760971s-2.1382749.47309742-2.1609854.58070712c-.0227104.1074721 2.047142-.38709221 2.0017212-.27962011-.0455665.1074721-2.7978967.88151892-2.7751862.92459032.022856.0429338 2.2975391-.47309741 2.2519727-.38709221-.0454209.0860052-3.8441781 1.09660073-3.8668886 1.16113903-.022856.0644007 3.343675-.70964612 3.3209646-.64510782-.0227104.06453831-1.7514696.47295981-1.7514696.51603122 0 .04293379 1.3875203-.21494421 1.3648099-.15054351-.0227105.0645383-3.5030848.90312342-3.5713617 1.03206238-.0681313.1290767 1.797036-.34402076 1.7743256-.10747206-.0227104.23654876-4.0261527 1.52662676-4.0490087 1.29007806-.0227105-.2365487 2.4339473-.8385851 2.4112369-.9029858-.0227105-.0645383-1.4102308.1504059-1.4330868.0214669-.0227104-.1290767.9098732-.40855916.8417419-.47309746-.0682769-.0644007-.773465.19347726-.7051881.0430714.0682769-.1505435 1.3875203-.73111302 1.3648098-.77404681-.0227104-.04307141-.477647.15040589-.4322261 0 .0455664-.15054351 2.8660279-.92459033 2.820607-1.01059553-.0455664-.0860052-1.296533.1934773-1.4102307.2149442-.0455665-.08586759 1.7514696-.70950851 1.7059031-.81698061-.0454208-.1074721-.9552941.3654877-1.0007149.23654871-.0455665-.12907661 1.5694949-.73111303 1.4785076-.81711823s-.8415964.23654871-.9325837.15054351 1.5239285-1.16100142 1.273677-1.18260593c-.250106-.0214669-.545924.32269152-.5913449.10760971.0455665-.27962011 1.2738226-.73111302 1.0008606-.94605722-.4322262-.12907661-1.9107338.0860052-2.5249346.43002601-.6142009.3440208-2.6386325 2.25760215-3.1391355 2.55855155-.5003575.30108701-2.1836958.96766173-2.5020787 1.09660073-.5005031.1720104-.5914904.430026-1.0918479.66657471-.9100188.23654866-.9098732.49456436-1.3420994.64497026-.1591187.0430714-1.7968905.7955137-1.8197465.731113zm-2.29724801.9671113c-.27296197.1290766-.52306793.4730974-.36409488.6020364.09113291.1720104.36409488-.3654877.5914904-.3440208.22754111.0214669.54592395.0216045 1.16012479.0646759.61420084.0429338.9325837-.1290766 1.2738226-.1076097.3412388.0214669 1.1147039-.1720104 1.4786532-.1720104s.4320806.0429338.477647-.1076097c.0454209-.1504059-1.1374143-.0429338-1.6606278-.0644007-.523068-.0214669-1.18283526.1074721-1.569495.1074721-.3639493-.0214669-1.00086057-.1290766-1.38752031.0214669z"/><path d="m9.23226872 11.853581h.00050308c.13807119 0 .25.1119288.25.25 0 .1380711-.11192881.25-.25.25h-.00050308c-.13807118 0-.25-.1119289-.25-.25 0-.1380712.11192882-.25.25-.25z"/><path d="m15.2887822 11.6596908c.250106-.0430714.9181713.1720104 1.3798046.2794825.8484386.301087 2.4170601.1505435 2.4170601.301087s-.0975384.3440208-.4719695.3654877c-.374431.0214669-1.2749872-.128939-1.250093-.128939.0248941 0 .7238223.3009495.524087.3869547-.1997354.0860052-.7986504-.1720104-.8983725-.1074721s.5489811.1934773.449259.2365487c-.0998677.0429338-.5505825-.0645383-.700384-.0429338-.149656.0213293.1263632.1718728-.0484781.2364111-.17455.0645383-.4681843-.0858676-.5929462-.0430714-.1247618.043209.2685946.2796201.093899.301087-.1746957.0214669-.5952755-.1074721-.819905-.128939s.22099.2149442.071334.2364111c-.1499471.0214669-.5571335-.1718728-.6568557-.1718728-.0997221 0 .0078613.257878-.1417946.257878-.1498015 0-.325953-.2149442-.400781-.2149442-.0748279 0 .0014558.2580156-.1482001.2580156-.149656 0-.2033749-.2794825-.3281367-.2580156-.1476179.0216045.0036395.3654877-.1959503.3440208-.1995898-.0216045-.2260853-.3654877-.3757413-.3440208-.1499471.0214669.0264955.3440208-.123306.3440208-.149656 0-.1739678-.3225539-.3237693-.3440208-.149656-.0214669-.0757015.3009494-.1754236.3009494s-.1739677-.3009494-.2239016-.3009494c-.0497882 0-.0005823.3009494-.1754235.2794825-.1748413-.0214669-.1738222-.3440208-.2239016-.3225539-.0497883.0216045-.0506618.2365487-.175278.2365487-.1246163 0-.1241795-.2149442-.1739678-.1934773-.0500794.0214669-.2253574.3009494-.3501192.2580156-.1247618-.0430714.0299894-.2580156-.0197989-.2580156-.0499338 0-.204685.1504059-.3045527.128939s.0050953-.1934773-.0199445-.1934773c-.0248941 0-.2547645.1074721-.3544866.1074721s-.3742854.1505435-.449259.0214669c-.0746824-.128939.195368-.128939.2451563-.2580156.0500794-.128939-.1452886-.4944267.0543012-.6235034.1997354-.128939.8236901.1720105 1.7469566-.0429337 1.6968773-.4300261 3.0065124-.9244528 3.1408825-.9031235z"/></g></g></g></g></g></g></svg>