<svg height="48" viewBox="0 0 48 48" width="48" xmlns="http://www.w3.org/2000/svg" xmlns:xlink="http://www.w3.org/1999/xlink"><defs><path id="a" d="m8 9h32c2.209139 0 4 1.790861 4 4v22c0 2.209139-1.790861 4-4 4h-32c-2.209139 0-4-1.790861-4-4v-22c0-2.209139 1.790861-4 4-4z"/><mask id="b" fill="#fff"><use fill="#fff" fill-rule="evenodd" xlink:href="#a"/></mask><mask id="c" fill="#fff"><path d="m0 0h40v30h-40z" fill="#fff" fill-rule="evenodd"/></mask></defs><g fill="none" fill-rule="evenodd"><path d="m0 0h48v48h-48z"/><use fill="#d8d8d8" xlink:href="#a"/><g mask="url(#b)"><g fill="none" fill-rule="evenodd" mask="url(#c)" transform="translate(4 9)"><g fill-rule="nonzero" transform="translate(-2.5)"><path d="m0 0h45v30h-45z" fill="#e90012"/><path d="m0 7.45375h45v15.0925h-45z" fill="#003dd2"/><path d="m28.96375 14.999875c0 3.569796-2.8938915 6.4636875-6.4636875 6.4636875s-6.4636875-2.8938915-6.4636875-6.4636875c-.0071957-2.3140298 1.2231942-4.4553669 3.2260121-5.61446393 2.0028179-1.15909708 4.4724704-1.15909708 6.4752883 0 2.0028179 1.15909703 3.2332078 3.30043413 3.2260121 5.61446393z" fill="#fff"/></g></g></g></g></svg>