<svg height="48" viewBox="0 0 48 48" width="48" xmlns="http://www.w3.org/2000/svg" xmlns:xlink="http://www.w3.org/1999/xlink"><defs><path id="a" d="m8 9h32c2.209139 0 4 1.790861 4 4v22c0 2.209139-1.790861 4-4 4h-32c-2.209139 0-4-1.790861-4-4v-22c0-2.209139 1.790861-4 4-4z"/><mask id="b" fill="#fff"><use fill="#fff" fill-rule="evenodd" xlink:href="#a"/></mask></defs><g fill="none" fill-rule="evenodd"><path d="m0 0h48v48h-48z"/><use fill="#d8d8d8" xlink:href="#a"/><g mask="url(#b)"><g transform="translate(4 9)"><g fill-rule="nonzero"><path d="m0 22.4998975h40v7.5001025h-40zm0-22.4998975h40v7.50016114h-40z" fill="#f00"/><path d="m0 7.5h40v15h-40z" fill="#fff"/><path d="m19.5350781 7.5625c-.4576172.91365234-.7627734.91365234-1.5254297 1.52285156-.305039.30457032-.7626562.45685547-.1525195.76148438-.6101367.30451176-.9152344.45685546-1.220332 1.06593746l.1525195.1522852s.5797852-.2841797.6101953-.1522852c.1013672.1217579-.763125.5889258-.8747461.6599414-.1115625.0710157-.6507422.4060547-.6507422.4060547-.7626562.6091993-1.220332.4567969-1.6779492 1.3705078l1.5254297-.1521679c.3050977 1.0659375-.7627148 1.218164-1.5254297 1.6750781l-1.220332.7614844c.3051562 1.0659375 1.220332.4567968 1.9830469.1522265l.1525781.1523438v.3045117l-1.5254297.7614844s-1.8007617 1.0303125-1.8304687 1.0659375c-.0123047.0551953 0 .3045703 0 .3045703.6101367.1523437 1.5254296.3046289 2.135625 0 .7626562-.3045703.9151757-.6091406 1.8304687-.6091406-1.0678125.7613672-1.8304687 1.0659961-3.0508594 1.2182226v.6091992c.9152344 0 1.5253711 0 2.2881446-.1522851l1.9830468-.6091406c.4576172 0 .9152344.4568554.7627149.9136523-.4576172 1.6750781-2.2882031 1.3705664-2.8983985 2.7410742l2.4407813-.9136523c.6101367-.3045703 1.2202734-.6091406 1.9829883-.4567969.9152343.3044531.9152343.9137109 2.135625 1.2181641l-.3050391-.7613086c.3050391.1522265.6101367.1522265.9151758.3045117.7627734.3046875.915293.6091406 1.8304687.4568555-.7626562-.913711-.9151757-.7613672-1.5253711-1.3705078-.6101367-.913711-.9152343-2.2842188 0-2.4365625l1.0678125.3046289c1.067754.1522265 1.067754-.1522852 2.5931836.4568554.915293.3045117 1.2203907.7613672 2.2882032.4567969-.4576172-1.0659375-2.135625-1.8274219-3.2033789-2.1319922 1.2202734-.7614844.9151757.3045703 2.5931836-.1523437v-.3044532c-1.2202735-.9137109-1.6779493-1.6751953-3.3559571-1.6751953l2.5933008-.3045703v-.3045703s-2.5575586-.670957-2.6170312-.6948047c.0178125-.0773437.0803906-.1972265.2501953-.2634961.4856836.3144141 1.9545117.2777344 2.0378906.271875-.0428906-.3747656-.7388672-.6841406-1.3490039-.9886523 0 0-2.6126953-1.6103321-2.6256445-1.7528906.0517968-.4081055 1.0730859.0648632 2.1679687.3822656-.3050391-.6091406-.9152344-.9136524-1.5253711-1.0659375l.9152344-.1522266c-.6101367-1.37056639-2.135625-1.21828124-3.0508008-1.82742186-.6102539-.45685547-.6102539-.76148438-1.5254297-1.21828125z" fill="#007900"/></g><path d="m17.850918 17.6659512c.1132031-.3629297.2622656-.6840234-.4170118-.9933984-.6792773-.3092578.3395508 1.2371484.4170118.9933984zm.8044922-.7259766c-.1369336.0178125-.2085938.5176758.0654492.6544336.3039843.047461.0537304-.6483984-.0654492-.6544336zm.7927734-.0533203c-.1430859.0417188-.1490039.7436133.3515625.61875.5005664-.1248047-.0060352-.6781054-.3515625-.61875zm.9234375-1.8023437c.1072266-.1725586-.005918-.8803711-.4350586-.5830078-.4289648.2974804.2979492.6305859.4350586.5830078zm-.9357422-.5888672c.1311914-.0475781.1430859-.4818164-.2322656-.3687891-.375293.113086.1311328.4580274.2322656.3687891zm-.8455078.1722656s-.262207-.3628711-.4648242-.2855859c-.2562305.2439258.4826953.2915039.4648242.2855859zm-2.9056641 1.1595703c.1116211.0101367.9390821-.1364648 1.2250782-.4576172.2859375-.3212695-1.4722852.137461-1.4722852.1433789 0 .005918.1661133.2838282.2472656.3142383zm8.2681641-2.0484375c.0426562-.0758789-.4404492-.4202343-.7275-.2845312-.0738867.2542383.7250977.3367969.7275.2845312zm-1.6265625-.8185547c.0894141-.1308398-.2084766-.6662109-.8043164-.368789-.5958985.2974219.6255469.5770312.8043164.368789zm-1.8832031-.3152343s.1488867-.4818164.5064843-.3867188c.4052344.3094336-.4886718.4045899-.5064843.3867188zm-.3515625-.3626953c-.0537305-.1368165-.4290821-.0534961-.8580469.2260546-.4291406.2796094.9890625.0833204.8580469-.2260546zm1.096289-1.2966797s.3822071-.1710938.4945313 0c.160957.2558203-.5004492.0059765-.4945313 0zm-.3205078-.1675782c-.0774609-.1546875-.5003906-.1693359-.4895508.0541993-.0708984.1751367.5496094.1425.4895508-.0541993zm-1.0078125.000586c-.0416601-.0892383-.6433594.0016992-.8221875.3628711.2870508.1395703.9533789-.1368164.8221875-.3628711zm-1.2873047.3691406s-.7916015.4839844-.8401758.8387695c.0240235.3063868.983086-.5532422.983086-.5532422s.0834375-.339082-.1429102-.2855273zm-.8759765-.4400391c.0221484-.0984375.3911132-.3264843.4230468-.309375.0298829.0992579-.3013476.3679688-.4230468.309375zm.2501953 1.8498047c.0178125-.1427929-.9414844-.130957-.5779688.3092578.3026953.3691993.6435938-.2438086.5779688-.3092578zm-.8730469.6316407c-.0500391-.096504-.1219922-.3537891-.2533594-.377461-.1070508-.0060351-.6839062.1129688-.7280273.210586-.0237891.0773437.2387695.552832.3282422.5647265.1013086.0416016.6352734-.3502734.6531445-.3978515zm5.1755859 3.2291015c.0297657-.1010742 1.0100977-.4398633 1.3485352-.1157812.3991406.5472656-1.3723242.2883984-1.3485352.1157812zm2.6941407.6404297c.2148047-.3635156-.6595899-.7944727-1.0307813-.3791016.1268555.499043.8571094.6796875 1.0307813.3791016z" style="stroke:#fff;stroke-width:.5;fill:#fff;fill-rule:evenodd;stroke-linecap:round;stroke-linejoin:round"/></g></g></g></svg>