<svg width="48" height="48" viewBox="0 0 48 48" fill="none" xmlns="http://www.w3.org/2000/svg">
<g clip-path="url(#clip0_1911_280)">
<mask id="mask0_1911_280" style="mask-type:luminance" maskUnits="userSpaceOnUse" x="4" y="9" width="40" height="30">
<path d="M4.00195 9H43.998V39H4.00195V9Z" fill="white"/>
</mask>
<g mask="url(#mask0_1911_280)">
<path fill-rule="evenodd" clip-rule="evenodd" d="M1.5 31.5H46.5V39H1.5V31.5ZM1.5 9H46.5V16.5H1.5V9Z" fill="#EE161F"/>
<path fill-rule="evenodd" clip-rule="evenodd" d="M1.5 16.5H46.5V31.5H1.5V16.5Z" fill="white"/>
<path d="M23.7715 16.6172C23.3145 17.5254 23.0098 17.5254 22.2481 18.1406C21.9434 18.4395 21.4863 18.5918 22.0957 18.9023C21.4805 19.2012 21.1758 19.3535 20.8711 19.9629L21.0234 20.1152C21.0234 20.1152 21.6094 19.834 21.6328 19.9629C21.7383 20.0859 20.8711 20.5488 20.7598 20.625L20.1152 21.0352C19.3477 21.6387 18.8848 21.4863 18.4336 22.4004L19.957 22.248C20.2617 23.3145 19.1953 23.4668 18.4336 23.9238L17.209 24.6855C17.5195 25.752 18.4336 25.1426 19.1953 24.8379L19.3477 24.9902V25.2949L17.8242 26.0566C17.8242 26.0566 16.0195 27.0879 15.9902 27.123C15.9785 27.1816 15.9902 27.4277 15.9902 27.4277C16.5996 27.5801 17.5137 27.7324 18.1289 27.4277C18.8906 27.123 19.043 26.8184 19.957 26.8184C19.0772 27.5048 18.0207 27.9275 16.9102 28.0371V28.6465C17.8242 28.6465 18.4336 28.6465 19.1953 28.4941L21.1758 27.8848C21.6328 27.8848 22.0957 28.3418 21.9375 28.7988C21.4863 30.4746 19.6523 30.1699 19.043 31.541L21.4805 30.6211C22.0898 30.3164 22.6992 30.0176 23.4609 30.1699C24.375 30.4746 24.375 31.084 25.5938 31.3887L25.2891 30.627C25.5938 30.7793 25.8984 30.7793 26.209 30.9316C26.9707 31.2363 27.1231 31.541 28.0371 31.3887C27.2754 30.4746 27.1231 30.627 26.5137 30.0176C25.9043 29.1035 25.5938 27.7324 26.5137 27.5801L27.5801 27.8848C28.6465 28.0371 28.6465 27.7324 30.1699 28.3418C31.0898 28.6465 31.3945 29.1035 32.4551 28.7988C32.0039 27.7324 30.3281 26.9707 29.2559 26.666C30.4805 25.9043 30.1699 26.9707 31.8516 26.5137V26.209C30.6387 25.2891 30.1758 24.5273 28.5 24.5273L31.0957 24.2227V23.918C31.0957 23.918 28.5352 23.25 28.4766 23.2207C28.4941 23.1445 28.5586 23.0273 28.7285 22.957C29.2148 23.2734 30.6797 23.2383 30.7676 23.2324C30.7207 22.8574 30.0234 22.5469 29.4199 22.2422C29.4199 22.2422 26.8008 20.6309 26.7891 20.4902C26.8418 20.0801 27.8613 20.5547 28.957 20.8711C28.6523 20.2617 28.043 19.957 27.4336 19.8047L28.3477 19.6523C27.7383 18.2813 26.2148 18.4336 25.3008 17.8242C24.6856 17.3672 24.6856 17.0625 23.7715 16.6113V16.6172Z" fill="#00A850"/>
<path fill-rule="evenodd" clip-rule="evenodd" d="M22.125 26.7529C22.2363 26.3955 22.3828 26.0732 21.7031 25.7627C21.0234 25.4521 22.043 26.999 22.125 26.7588V26.7529ZM22.9277 26.0322C22.793 26.0498 22.7168 26.5478 22.9922 26.6885C23.2969 26.7353 23.0508 26.0381 22.9277 26.0322ZM23.7187 25.9736C23.5781 26.0205 23.5723 26.7236 24.0703 26.5947C24.5742 26.4717 24.0703 25.9209 23.7187 25.9795V25.9736ZM24.6445 24.1748C24.75 23.999 24.6387 23.2959 24.2109 23.5889C23.7773 23.8877 24.5039 24.2217 24.6445 24.1748ZM23.707 23.5889C23.8418 23.5361 23.8535 23.1025 23.4727 23.2197C23.1035 23.331 23.6074 23.6767 23.707 23.5889ZM22.8633 23.7588C22.8633 23.7588 22.5996 23.3955 22.3945 23.4717C22.1426 23.7178 22.8809 23.7646 22.8633 23.7588ZM19.957 24.9189C20.0684 24.9306 20.8945 24.7842 21.1816 24.4619C21.4687 24.1396 19.7109 24.5967 19.7109 24.6025C19.7109 24.6084 19.875 24.8896 19.957 24.9189ZM28.2246 22.8681C28.2656 22.792 27.7852 22.4521 27.498 22.5869C27.4219 22.8389 28.2246 22.9209 28.2246 22.8681ZM26.5957 22.0478C26.6895 21.9189 26.3906 21.3857 25.793 21.6846C25.1953 21.9775 26.4199 22.2588 26.5957 22.0537V22.0478ZM24.7148 21.7373C24.7148 21.7373 24.8613 21.2568 25.2187 21.3506C25.6289 21.6611 24.7324 21.7549 24.7148 21.7373ZM24.3633 21.374C24.3047 21.2392 23.9355 21.3154 23.5078 21.6025C23.0742 21.8779 24.4922 21.6846 24.3633 21.3681V21.374ZM25.459 20.0791C25.459 20.0791 25.8398 19.9033 25.957 20.0791C26.1152 20.331 25.4531 20.0791 25.459 20.0791ZM25.1367 19.9092C25.0605 19.7568 24.6387 19.7392 24.6504 19.9678C24.5801 20.1435 25.2012 20.1084 25.1367 19.9092ZM24.1289 19.9092C24.0879 19.8213 23.4844 19.9092 23.3086 20.2724C23.6016 20.4131 24.2637 20.1377 24.1289 19.9092ZM22.8398 20.2783C22.8398 20.2783 22.0547 20.7646 22.002 21.1162C22.0254 21.4209 22.9863 20.5654 22.9863 20.5654C22.9863 20.5654 23.0684 20.2256 22.8457 20.2783H22.8398ZM21.9668 19.8389C21.9902 19.7392 22.3594 19.5107 22.3887 19.5283C22.418 19.6279 22.0898 19.8974 21.9668 19.8389ZM22.2188 21.6904C22.2363 21.5439 21.2812 21.5556 21.6387 21.9951C21.9434 22.3642 22.2832 21.7549 22.2188 21.6904ZM21.3398 22.3174C21.293 22.2236 21.2227 21.9658 21.0937 21.9424C20.9824 21.9424 20.4082 22.0596 20.3613 22.1533C20.3379 22.2295 20.6016 22.7041 20.6895 22.7158C20.7949 22.7568 21.3281 22.3642 21.3457 22.3174H21.3398ZM26.5195 25.5517C26.5488 25.4463 27.5332 25.1123 27.8672 25.4346C28.2656 25.9795 26.4961 25.7275 26.5195 25.5517ZM29.2148 26.1904C29.4316 25.8271 28.5527 25.3935 28.1836 25.8096C28.3125 26.3076 29.0391 26.4892 29.2148 26.1904Z" fill="white" stroke="white" stroke-width="0.1875" stroke-linecap="round" stroke-linejoin="round"/>
</g>
</g>
<defs>
<clipPath id="clip0_1911_280">
<rect x="4" y="9" width="40" height="30" rx="5" fill="white"/>
</clipPath>
</defs>
</svg>
