<svg height="48" viewBox="0 0 48 48" width="48" xmlns="http://www.w3.org/2000/svg" xmlns:xlink="http://www.w3.org/1999/xlink"><defs><path id="a" d="m8 9h32c2.209139 0 4 1.790861 4 4v22c0 2.209139-1.790861 4-4 4h-32c-2.209139 0-4-1.790861-4-4v-22c0-2.209139 1.790861-4 4-4z"/><mask id="b" fill="#fff"><use fill="#fff" fill-rule="evenodd" xlink:href="#a"/></mask></defs><g fill="none" fill-rule="evenodd"><path d="m0 0h48v48h-48z"/><use fill="#d8d8d8" xlink:href="#a"/><g mask="url(#b)"><g transform="translate(4 9)"><path d="m0 0h40v15h-40z" fill="#002b7f" fill-rule="nonzero"/><path d="m0 15h40v15h-40z" fill="#ce1126" fill-rule="nonzero"/><g fill="none" fill-rule="evenodd" stroke-linecap="round" stroke-linejoin="round" transform="translate(5.95 2.65)"><g fill-rule="nonzero" transform="translate(.15 2.3)"><path d="m4.71885 1.1645-.0919 3.125h-3.171c-.39015-.7585-.71235-1.40265-.71235-2.2749 0-.73.57415-1.30975 1.40165-1.30975.876 0 1.8385.2952 2.5735.4596z" fill="#ffd83d"/><g stroke="#000" stroke-width=".1"><g transform="translate(.9 .8)"><path d="m.2228.508v1.8038m.2547-1.9878v2.40165m.25465-2.52805v2.86125m.25465-2.92035v2.2441m.2547-2.2552v2.26635m.25465-2.3455v2.34425m.2547-2.34425v2.34425m.25465-2.3213v2.34425m.2547-2.32125v2.34425m.25465-2.19495v2.3443m.25465-2.3213v2.643m.2547-2.643v2.3443m.25465-2.3443v2.3443" fill="#ffd83d"/><path d="m1.81975.14615c.5382.08875 1.72035.64185 1.5855 1.39015-.191 1.0605-.8104.6349-1.6315.4825l-.62035.20685c-.222.2266-.5489.43415-.76975.16085h-.36765v1.4361h4.0671v-3.4696z" fill="#000"/></g><circle cx="4.54375" cy=".70215" fill="#ffd83d" r="1"/><circle cx="3.98865" cy=".56855" fill="#ffd83d" r="1"/><circle cx="3.4255" cy=".4271" fill="#ffd83d" r="1"/><circle cx="2.86015" cy=".3328" fill="#ffd83d" r="1"/><circle cx="2.2948" cy=".27705" fill="#ffd83d" r="1"/><circle cx="1.74045" cy=".30865" fill="#ffd83d" r="1"/><circle cx="1.21195" cy=".4896" fill="#ffd83d" r="1"/><circle cx=".7668" cy=".817" fill="#ffd83d" r="1"/><circle cx=".45085" cy="1.2737" fill="#ffd83d" r="1"/><circle cx=".2986" cy="1.8108" fill="#ffd83d" r="1"/><circle cx=".30435" cy="2.36805" fill="#ffd83d" r="1"/><circle cx=".4106" cy="2.91375" fill="#ffd83d" r="1"/><path d="m4.6499 1.0265-.023.32175c-.6145-.09415-1.4857-.4366-2.29775-.4366-.7503 0-1.3327.30015-1.3327 1.057 0 .746.3158 1.42425.7352 2.114l-.4365.2068c-.3902-.7585-.7124-1.40265-.7124-2.2749 0-.73.5742-1.4476 1.5625-1.4476.876 0 1.7695.2952 2.5046.4595z" fill="#ffd83d"/></g></g><g fill-rule="nonzero" transform="matrix(-1 0 0 1 10.1469 2.3)"><path d="m4.71885 1.1645-.0919 3.125h-3.171c-.39015-.7585-.71235-1.40265-.71235-2.2749 0-.73.57415-1.30975 1.40165-1.30975.876 0 1.8385.2952 2.5735.4596z" fill="#ffd83d"/><g stroke="#000" stroke-width=".1"><g transform="translate(.9 .8)"><path d="m.2228.508v1.8038m.2547-1.9878v2.40165m.25465-2.52805v2.86125m.25465-2.92035v2.2441m.2547-2.2552v2.26635m.25465-2.3455v2.34425m.2547-2.34425v2.34425m.25465-2.3213v2.34425m.2547-2.32125v2.34425m.25465-2.19495v2.3443m.25465-2.3213v2.643m.2547-2.643v2.3443m.25465-2.3443v2.3443" fill="#ffd83d"/><path d="m1.81975.14615c.5382.08875 1.72035.64185 1.5855 1.39015-.191 1.0605-.8104.6349-1.6315.4825l-.62035.20685c-.222.2266-.5489.43415-.76975.16085h-.36765v1.4361h4.0671v-3.4696z" fill="#000"/></g><circle cx="4.54375" cy=".70215" fill="#ffd83d" r="1"/><circle cx="3.98865" cy=".56855" fill="#ffd83d" r="1"/><circle cx="3.4255" cy=".4271" fill="#ffd83d" r="1"/><circle cx="2.86015" cy=".3328" fill="#ffd83d" r="1"/><circle cx="2.2948" cy=".27705" fill="#ffd83d" r="1"/><circle cx="1.74045" cy=".30865" fill="#ffd83d" r="1"/><circle cx="1.21195" cy=".4896" fill="#ffd83d" r="1"/><circle cx=".7668" cy=".817" fill="#ffd83d" r="1"/><circle cx=".45085" cy="1.2737" fill="#ffd83d" r="1"/><circle cx=".2986" cy="1.8108" fill="#ffd83d" r="1"/><circle cx=".30435" cy="2.36805" fill="#ffd83d" r="1"/><circle cx=".4106" cy="2.91375" fill="#ffd83d" r="1"/><path d="m4.6499 1.0265-.023.32175c-.6145-.09415-1.4857-.4366-2.29775-.4366-.7503 0-1.3327.30015-1.3327 1.057 0 .746.3158 1.42425.7352 2.114l-.4365.2068c-.3902-.7585-.7124-1.40265-.7124-2.2749 0-.73.5742-1.4476 1.5625-1.4476.876 0 1.7695.2952 2.5046.4595z" fill="#ffd83d"/></g></g><g stroke="#000" stroke-width=".1"><path d="m5.1485.00625-.25785.4828.2578.4813.25775-.48125-.2578-.48275zm0 1.21875-.25785.48125.2578.4828.25775-.48275-.2578-.48125zm-.91915-.12735.4066.2578.4052-.25785-.40525-.2578-.40665.2578zm1.0263 0 .4053.2578.4065-.25785-.4065-.2578-.40535.2578z" fill="#ffd83d" fill-rule="nonzero"/><circle cx="5.20315" cy="1.15815" fill="#ffd83d" fill-rule="nonzero" r="1"/><circle cx="5.14845" cy="2.35" fill="#ffd83d" fill-rule="nonzero" r="1"/><path d="m5.0172 1.84375c0 .1557-.0011.2462-.0015.33125-.12466742.00556147-.24888983.01858479-.372.039m1.0095 0c-.12310403-.02046058-.24732918-.03348418-.372-.039v-.33125m-.639.6766c.1672941-.0560613.33662385-.08429129.50625-.0844.1725 0 .3415.0292.5062.0843"/><path d="m4.6375 3.2344c-.0496.8541-.1505 1.724-.4828 2.3562l.5406-.21875c.18885-.7164.2285-1.6421.286-2.07965zm1.0219 0-.34375.0578c.0574.4375.0971 1.36325.2859 2.0797l.5407.21875c-.3324-.6323-.43325-1.50215-.4828-2.35625z" fill="#ffd83d" fill-rule="nonzero"/><path d="m5.14765 5.0844c-.64565 0-1.12.3043-1.1485 1.07965-.15775-.2777-.8255-1.1512-1.44835-1.0343-.3705.0695-.69785.5833-.6422 1.17185-.30675-.8815-1.20535-1.0259-1.861-.50465.58215.47865.8411 1.89175 1.3313 2.5047h7.5375c.4902-.6129.7507-2.026 1.3328-2.50465-.6556-.52125-1.55415-.3768-1.8609.5047.05565-.5885-.2733-1.1023-.64375-1.1718-.6229-.1169-1.289.7566-1.44685 1.03435-.0285-.7753-.5043-1.07965-1.15-1.07965z" fill="#ffd83d" fill-rule="nonzero"/></g><g fill-rule="nonzero" transform="translate(.45 2.85)"><g stroke="#000" stroke-width=".1"><path d="m8.45535 5.4513c0 .279-1.6831.5859-3.7569.5859-2.07385 0-3.757-.30685-3.757-.5859 0-.279 1.68315-.4251 3.757-.4251 2.07375 0 3.75685.146 3.75685.4251z" fill="#000"/><circle cx="4.77325" cy=".29705" fill="#ffd83d" r="1"/><circle cx="4.76175" cy=".66465" fill="#ffd83d" r="1"/><circle cx="4.7445" cy="1.05525" fill="#ffd83d" r="1"/><circle cx="4.7158" cy="1.4804" fill="#ffd83d" r="1"/><circle cx="4.69845" cy="1.96855" fill="#ffd83d" r="1"/></g><path d="m4.5969 2.4603c-.02765-.00035-.0538.023-.0469.0672.00815.05215.01835.14975.02815.2156.011.07465.0545.0565.0656-.0015.011-.0581.0066-.09535.0094-.2032.00135-.0539-.02865-.07775-.05625-.0781zm.2031 0c-.02765.00035-.05765.0242-.05625.0781.00275.10785-.0017.1451.0094.20315.011.0581.0545.07625.0656.0016.00975-.06585.02-.1635.02815-.2156.0069-.04425-.01925-.0675-.0469-.0672zm-.38223324.0281c-.02636976.0035-.05367758.029-.05211416.05625.00286628.0498.01719767.1095.02277389.1844.00573256.0775.06264122.0474.0684259.00315.00573256-.0442.01224683-.1096.00651427-.1953-.0021888-.03215-.01683288-.04625-.03423901-.0485-.00375373-.00046912-.00755504-.00046912-.01130877 0zm.554008 0c-.01740491.00215-.03204797.0163-.0341845.0485-.00443199.06513203-.00225045.13052328.00651382.19525.00573215.04425.06263683.0743.06842109-.0031.00557583-.0749.01990622-.1345.02277229-.18435.00156332-.0272-.02574259-.0527-.0521105-.05625-.00380491-.00048224-.0076594-.00048224-.01146431 0zm-.76681698.0875c-.0270859.006-.05195356.03385-.04378109.06565.01605307.06365.03093864.134.03093864.1985 0 .0553.05516417.0355.05837478-.00315.00552119-.06499752.0085583-.13013236.00910646-.1953 0-.0557-.02766964-.0715-.05469717-.0656zm.98298391 0c-.01924121.0045-.03644169.02385-.03644169.06565 0 .0747.00600559.15665.00921246.19535s.05830671.0585.05830671.00315c0-.0645.0148099-.13485.03090255-.1985.00816294-.03175-.01667571-.0596-.04373003-.0656-.00593677-.00150583-.01225492-.00150583-.01819169 0zm-2.95984169.0085c-.02775-.00085-.04715.03675-.02815.0782.0304.06635.0627.10825.09375.1797.02765.0635.07.0239.05625-.02035-.01385-.04425-.02885-.0935-.0703-.1875-.0155-.0353-.035-.0495-.0515-.05zm4.9406 0c-.0166.0006-.036.0148-.0515.05-.0415.094-.0565.14335-.07035.1875-.01385.0443.0285.084.05625.0204.031-.0715.0633-.11335.09375-.1797.019-.0415-.0004-.079-.02815-.07815zm-4.7406.0032c-.0204.0062-.0328.0321-.02035.0625.0249.0608.06085.12315.086.189.022.0581.07125.04165.05465-.0109-.01665-.0525-.0216-.08325-.05475-.1828-.0166-.04975-.04525-.064-.0656-.0578zm4.525 0c-.0175.0037-.0376.0205-.05.0578-.0332.0995-.03815.1303-.0547.1828-.01665.0525.0325.069.05465.011.0251-.066.061-.1283.0859-.1891.0125-.0304.00015-.0563-.02025-.0625-.00510645-.00139492-.01049355-.00139492-.0156 0zm-4.275.0485c-.02575.0048-.04565.044-.02815.0921.02215.06085.0536.1184.08125.1875.02765.06915.0735.0552.0625.011-.011-.0443-.0246-.1176-.0578-.22815-.0145-.04835-.0379-.06625-.05785-.0625zm4.0406 0c-.02-.0039-.0433.014-.0578.0625-.03325.1105-.0468.1838-.05785.228-.0111.0443.0348.05825.0625-.0109.02765-.0691.0591-.12665.08125-.1875.0175-.048-.0025-.0873-.02815-.09215zm-4.65935.0343c-.02785.00285-.05325.04825-.036.0828.0277.0553.0452.07415.0719.13285.02765.06085.058.01375.0469-.025-.0111-.0387-.02525-.08375-.039-.139-.0102-.0405-.0271-.0533-.0438-.0516zm5.2781 0c-.0167-.0017-.0336.011-.04375.0515-.0138.05535-.028.1004-.039.13915-.01115.03875.01915.08585.0468.025.02675-.05865.04425-.0775.072-.1328.0172-.0345-.00815-.08-.036-.0828zm-3.3515.1399c-.02925 0-.0605.0387-.05.075.0165.058.04215.1095.0609.18435.0165.06635.0637.0333.0609-.0109-.00275-.04425-.01035-.1045-.02965-.1985-.0073-.0352-.0247-.05-.0422-.05zm1.425 0c-.0176 0-.035.01475-.04225.05-.01935.094-.0269.1542-.0297.1985-.0027.04415.0444.0772.061.01085.0187-.0748.04435-.1263.061-.18435.0103-.0363-.02085-.075-.05-.075zm-.7125.05935c-.036 0-.041.0483-.04225.0875-.00415.1286-.0575.2535-.1031.31565-.04565.0622-.1128.04565-.175.0125-.06225-.0332-.0993-.058-.16565-.1078s-.1167-.0207-.0375.09215c.23085.329.48125.61025.48125 1.1469 0 .0695.0121.09065.0422.09065.03 0 .0437-.0212.0437-.0906 0-.5366.2488-.8178.4797-1.14685.07915-.11285.02885-.142-.0375-.09215-.06635.04975-.1035.0746-.16565.1078-.0622.03315-.1294.0497-.175-.0125-.04565-.0622-.099-.187-.1031-.31565-.0013-.0392-.00625-.0875-.0422-.0875zm-1.7641-.0805c-.00319374-.00001039-.00636811.00049616-.0094.0015-.0135.0043-.0224.0205-.0172.0485.0093.0501.044.14835.05785.1953.0138.047.0716.037.0578-.0266-.0139-.0636-.01315-.0828-.02975-.1547-.009-.0393-.03735-.0635-.05935-.064zm3.5281 0c-.022.0006-.0503.02475-.05935.064-.0166.072-.0159.09115-.0297.15475-.0139.0636.0439.0736.05775.0265.0138-.0469.0485-.14515.0578-.19525.00525-.028-.0037-.0442-.0171-.0485-.00303313-.00099875-.00620667-.00150517-.0094-.0015zm-4.5765.0203c-.029.00225-.04975.0386-.02035.09215.03165.05785.086.1304.1109.1719.025.0415.068.0135.0375-.039-.03035-.0525-.0405-.1129-.0765-.1875-.0135-.028-.0342-.0389-.0515-.0375zm5.625 0c-.0175-.0014-.03815.0095-.0516.0375-.036.0746-.0462.135-.0766.1875s.01265.0805.0375.039c.0249-.0415.07925-.114.111-.17185.02935-.0535.0086-.0899-.02035-.0922zm-7.2095.1664c-.03335-.00175-.0438.0585-.0125.0985.0457.058.0775.0888.12975.1359.0415.0373.0535-.0111.0328-.0485-.02065-.03725-.05065-.0752-.0921-.1375-.02275-.034-.04265-.0475-.05785-.0484zm8.7938 0c-.01515.0008-.035.01435-.0578.0485-.0415.0622-.0715.10015-.0922.1375-.0207.0373-.00865.0857.03285.0484.0523-.0471.084-.0779.12965-.136.03135-.03985.0209-.10015-.0125-.0984zm-8.54215.05c-.02665.00035-.0442.02-.0235.06565.02975.06535.0689.13935.0938.1891.0248.04975.10065.0665.07025-.011-.0304-.07735-.0364-.1171-.064-.189-.0139-.036-.05-.055-.0766-.0547zm8.2906 0c-.0266-.00035-.06275.01875-.0765.0547-.0277.0719-.0337.11165-.0641.189-.0305.0775.0454.06075.0703.011.02485-.04975.064-.12375.0937-.189.0207-.0457.00315-.06535-.0235-.0657zm-8.7781.0172c-.0387.0004-.042.0392-.00785.064.04565.03325.1.07.15315.1125.06215.04985.08625.004.053-.0375-.0331-.0414-.0654-.0835-.14835-.125-.02075-.0103-.03715-.0141-.05-.014zm9.2656 0c-.0129-.00015-.02925.0037-.05.014-.083.0415-.11525.0836-.1485.125-.0331.0415-.009.08735.0532.0375.053-.0425.1075-.07925.153-.1125.03425-.0248.031-.0636-.00775-.064zm-5.4828.036c-.0217.003-.0404.0275-.0313.0593.0165.058.0354.1196.04685.1797.01115.0581.0783.0588.06725.00625-.011-.0525-.0166-.11825-.036-.1985-.0072-.03-.02235-.0445-.0375-.0468-.00308236-.00046765-.00621764-.00046765-.0093 0zm1.6905 0c-.015.0023-.0302.01675-.0375.0468-.01925.0802-.02485.146-.03585.1985-.0111.0525.0561.0518.06715-.0063.0115-.0601.0303-.12165.0469-.1797.009-.03175-.0096-.05635-.03125-.05935-.00314786-.0004881-.00635214-.0004881-.0095 0zm-3.19525-.0993c-.017.0047-.0268.0372-.014.0828.0705.253.092.3862.07965.4485-.0125.06215-.0466.07065-.0922.05-.04908186-.02250408-.09613841-.04918563-.14065-.07975-.0414-.029-.0845.0057-.025.0547.3028.24885.51265.53325.5938.87815.0166.0705.0609.0788.0485 0-.06865-.4345-.08185-.79165.02185-1.0156.039-.08415-.0003-.165-.0625-.0281-.0415.09125-.1086.12725-.1625.0485-.054-.07885-.1653-.289-.1985-.3845-.0124-.0357-.02775-.05225-.0406-.0546-.00255124-.00057584-.00519876-.00057584-.00775 0zm4.7015 0c-.01275.00235-.0281.0189-.0405.05465-.03325.09535-.1446.3055-.1985.38435-.054.0788-.121.0428-.1625-.0485-.0622-.1368-.1015-.056-.0625.0282.1037.224.0905.58115.0219 1.01565-.0125.0788.03185.0705.0484 0 .0812-.3449.291-.6293.5938-.8781.0596-.049.0165-.0837-.025-.05465-.0415.029-.095.059-.1406.0797-.0456.02075-.07975.01225-.0922-.05-.0125-.0622.0092-.1955.0797-.4484.0127-.0456.0029-.0781-.014-.0828-.00259931-.00059864-.00530069-.00059864-.0079 0zm-6.22335.1211c-.02735.00035-.05.0195-.0375.061.0199.0664.06115.1382.075.17965.0138.0415.05825.02215.05-.0359-.0083-.058-.0124-.09265-.0235-.15625-.0055-.0318-.0367-.0488-.064-.0485zm7.7531 0c-.0273-.00035-.0585.01665-.064.0485-.01115.0635-.0152.09815-.0235.1562-.0083.058.03615.0774.05.036.0138-.0415.055-.1133.075-.17975.0125-.0415-.0102-.0606-.0375-.061zm-6.814-.08675c-.0318-.0057-.0364.0762-.0095.1094.036.0443.086.09775.136.15785.0415.04975.0671.0055.0422-.036s-.0618-.0855-.12815-.1905c-.0165-.02635-.03-.0388-.0405-.0407zm5.875 0c-.01065.0019-.0241.01435-.0407.04065-.06635.105-.10325.1491-.1281.1906-.0249.0415.0007.0857.0422.036.05-.06015.1-.1136.1359-.15785.027-.03315.0224-.115-.00935-.10935zm-6.59818978.1977c-.02092699-.00135-.03867519.0146-.02988056.0547.0122913.05585.0300395.1022.04471488.15475.01462241.0525.05297972.0435.05297972-.00625 0-.0498-.00943039-.1053-.01822502-.15785-.00439732-.02625-.02876799-.0439-.049642-.0453zm7.32702607 0c-.02093201.0014-.04536152.019-.04981288.0453-.00874375.0525-.01812341.108-.01812341.15785 0 .04975.03831352.05875.05299242.00625.01462591-.0525.03243137-.0989.04467262-.1547.00884973-.04-.00884974-.056-.02967576-.05465zm-6.67418629.071c-.031.00475-.0582.03465-.0219.0813.058.07465.1216.127.14375.1547.0221.02765.07815.0175.0422-.04065-.03675-.0593-.0923-.13075-.1172-.175-.00935-.0165-.0283-.0231-.04685-.0203zm6.0031 0c-.0136.0015-.0274.008-.03435.02035-.0249.04425-.0805.1157-.1172.175-.036.0581.02.0683.0422.04065.0221-.02765.08565-.08.14375-.1547.03625-.04665.009-.0765-.0219-.08125-.00414509-.00059969-.00835491-.00059969-.0125 0zm-7.036.2087c-.02435-.00215-.0328.0175 0 .0625.0747.10235.157.25715.1625.3235.0056.06635-.0272.0656-.05775.0656-.09125 0-.1358-.0666-.21875-.086-.083-.0193-.095.02435-.036.06725.3042.2212.609.468.7313.6922.0498.0913.1171.12465.07975.0375-.11435-.2668-.142-.4928-.1172-.62965.025-.13685.0589-.229.05475-.3078-.00415-.07875-.04885-.07335-.0672 0-.0124.0498-.0365.11575-.053.14065-.01665.0249-.08335.03885-.147-.04685-.0635-.0857-.224-.25075-.2765-.2922-.0197-.0155-.04-.02525-.0547-.0265zm8.0813 0c-.0146.00135-.035.011-.0546.0266-.0525.0415-.213.2065-.2766.2922s-.1303.07175-.14685.04685c-.01665-.0249-.04075-.09085-.0532-.1406-.01835-.07335-.063-.07875-.06715 0-.00415.07885.02975.171.05465.30785s-.0028.36285-.11715.6297c-.03735.08715.0299.0538.07965-.0375.12235-.2242.42715-.471.73125-.69215.0591-.0429.0471-.0865-.03585-.0672-.083.01935-.1275.086-.21875.086-.0305 0-.0634.0007-.05785-.06565.0056-.06635.0879-.22115.1625-.3235.0329-.045.0245-.06465 0-.0625z" fill="#000"/><path d="m1.10635 5.1325.1.30875m.1005-.3672.1.312m.11665-.3476.1.31825m.101-.3585.1.3175m.1578-.3429.1.3196m.1742-.31925.1.3189m.1677-.4095.0803.3213m.17155-.305.0804.32125m.1633-.35365.0805.3212m.16415-.3464.0442.323m.2172-.3231.0384.32315m.19865-.3395.0326.32335m.2287-.33965.0272.3235m.2734-.3316.0272.3235m3.9411.0088-.1.30875m-.0894-.3672-.1.312m-.08955-.3476-.1.31825m-.1051-.3585-.1.3175m-.14595-.3429-.1.3196m-.17825-.31925-.1.3189m-.17175-.4095-.0805.3213m-.17145-.305-.0804.32125m-.1633-.35365-.0804.3212m-.1824-.3464-.0442.323m-.22025-.3231-.0382.32315m-.20155-.3395-.0326.32335m-.2315-.33965-.027.3235m-.2736-.3316-.027.3235m-.36015-.3445v.3561" fill="#ffd83d" stroke="#000" stroke-width=".1"/></g></g></g></g></g></svg>