<svg height="48" viewBox="0 0 48 48" width="48" xmlns="http://www.w3.org/2000/svg" xmlns:xlink="http://www.w3.org/1999/xlink"><defs><path id="a" d="m8 9h32c2.209139 0 4 1.790861 4 4v22c0 2.209139-1.790861 4-4 4h-32c-2.209139 0-4-1.790861-4-4v-22c0-2.209139 1.790861-4 4-4z"/><mask id="b" fill="#fff"><use fill="#fff" fill-rule="evenodd" xlink:href="#a"/></mask></defs><g fill="none" fill-rule="evenodd"><path d="m0 0h48v48h-48z"/><use fill="#d8d8d8" xlink:href="#a"/><g mask="url(#b)"><g fill-rule="nonzero" transform="translate(4 9)"><path d="m0 0h40v30h-40z" fill="#ffb700"/><path d="m1.6666875 15 5.5-13.3333125h5.5v26.666625h-5.5z" fill="#ff5b00"/><path d="m1.6666875 1.6666875h5.5v26.666625h-5.5z" fill="#005641"/><path d="m14.3333125 1.6666875h24.1666875v26.666625h-24.16675z" fill="#8d2029"/><g fill="#ffb700" stroke="#000" stroke-width=".1"><path d="m36.6803125 26.1846875c.3709375.2785 1.1315.258375 1.454375.5833125.3866875.383125-.030125.889375-.026625.9333125l.021125.2675s-.2608125.003125-.370625.0201875c-.165125.02575-.2295.160125-.536875.1401875-.773125-.0501875-.741875-.7465625-.785625-1.3416875-.03875-.2266875-.128625-.522125-.1796875-.74875-.04375-.1941875-.053125-.5034375-.053125-.5034375.0000625 0 .2266875.461375.4770625.649375z"/><path d="m.0158125.0353125s.226625.461375.477.649375c.3709375.2785 1.1315.258375 1.454375.5833125.3866875.383125-.030125.889375-.026625.9333125l.021125.2675s-.2608125.003125-.370625.0201875c-.165125.02575-.2295.160125-.536875.1401875-.773125-.0501875-.741875-.7465625-.785625-1.3416875-.03875-.2266875-.128625-.522125-.1796875-.74875-.04375-.1941875-.053125-.5034375-.053125-.5034375z" transform="matrix(-1 0 0 1 16.645812 25.5)"/><path d="m.0158125.0353125s.226625.461375.477.649375c.3709375.2785 1.1315.258375 1.454375.5833125.3866875.383125-.030125.889375-.026625.9333125l.021125.2675s-.2608125.003125-.370625.0201875c-.165125.02575-.2295.160125-.536875.1401875-.773125-.0501875-.741875-.7465625-.785625-1.3416875-.03875-.2266875-.128625-.522125-.1796875-.74875-.04375-.1941875-.053125-.5034375-.053125-.5034375z" transform="matrix(1 0 0 -1 36.1875 4.5)"/><path d="m.4928125.6846875c.3709375.2785 1.1315.258375 1.454375.5833125.3866875.383125-.030125.889375-.026625.9333125l.021125.2675s-.2608125.003125-.370625.0201875c-.165125.02575-.2295.160125-.536875.1401875-.773125-.0501875-.741875-.7465625-.785625-1.3416875-.03875-.2266875-.128625-.522125-.1796875-.74875-.04375-.1941875-.053125-.5034375-.053125-.5034375.0000625 0 .2266875.461375.4770625.649375z" transform="matrix(-1 0 0 -1 16.645875 4.5)"/></g><g fill="none" transform="translate(18.8125 8.625)"><g stroke="#000" stroke-width=".5"><g fill="#ffb700"><path d="m3.9055 12.6103125.1453125-.083875.0621875.0840625c.0828125.111875.311875.110625.464-.0025l.11625-.0866875.097375.0866875c.128.113875.3670625.114.5196875.000375.106875-.079625.121875-.08125.1925-.020625.0420625.0360625.165625.0771875.2745.09125.196125.0255.1990625.024125.31375-.148.096125-.144125.11125-.2025.08825-.3423125-.01710485-.1098985-.02926295-.22051-.0364375-.3315-.00875-.1623125-.0078125-.1633125.228625-.245625.130625-.0455.28175-.1064375.335875-.135625.094375-.050625.3546875-.3565625.3546875-.416875 0-.0159375-.1016875-.0404375-.226-.054375-.4945-.0554375-.578125-.3209375-.256875-.8140625.52425-.804375.840625-1.5875.8426875-2.0865.0009375-.223125.013625-.2979375.0423125-.249375.117125.198125-.0926875 1.0291875-.410625 1.6259375l-.127875.240375.122125-.028125c.067125-.0154375.462-.1820625.8775-.37025 1.137125-.515 1.52775-.6159375 2.26375-.585.6165.026.8790625.1465 1.314375.603125.230625.241875.4528125.414875.8591875.66925.8658125.542.901875.5889375.943125 1.22625.0416875.6458125.0209375.6808125-.4675.78875-.4175.0921875-.679125.286875-.749375.5571875-.0375.144375.0414375.1485625.251875.0133125l.15425-.099125.068625.099125c.0901875.1303125.281875.130875.4410625.00125l.1203125-.0980625.1229375.0979375c.1909375.1521875.444875.11525.5165625-.075.01375-.036625.0505-.025.125.03975.1395.12125.497125.17325.535625.0779375.0148125-.036375-.013125-.12625-.062125-.199625-.208125-.312-.273125-.46075-.275875-.630625-.00375-.23625.0666875-.350125.335375-.54225.326375-.233375.4271875-.534375.179-.534375-.15325 0-.3076875-.1355-.40625-.35625-.20025-.44875-.161-.95175.1395625-1.7885625.3053125-.85.3391875-1.00675.340375-1.5751875.001-.459625-.010625-.539125-.115125-.791125-.063875-.1540625-.193625-.3835-.28825-.5098125l-.1720625-.2296875.220875-.183c.674375-.55875.5364375-1.47325-.2754375-1.825625-.2484375-.1078125-.3105-.1173125-.74575-.114375-.2610625.00175-.659375.036125-.8848125.076375-.23.041-.6191875.074-.88625.075-.4240625.00175-.4960625-.00875-.6595625-.095625-.1704375-.0908125-.1996875-.133875-.233-.3435625-.006875-.043125-.037-.086125-.067-.095625-.0579375-.018125-.325625.214125-.36525.3170625-.0195.0508125-.0354375.0473125-.0926875-.0204375-.038125-.045-.091125-.1483125-.118-.229625-.0675-.2045625.0154375-.357875.2558125-.47275l.1865-.089125-.11-.06825c-.226875-.1408125-.6128125-.0445-.752375.1878125-.0395.06575-.0825.119625-.095625.11975-.013125 0-.08825-.062625-.166875-.139375-.2929375-.28625-.1921875-.709875.19975-.83925.209-.0689375.3939375-.01625.432375.123.05875.2128125.241375-.066875.208625-.319375-.02175-.168-.0185-.17375.0976875-.17375.1615 0 .5054375.212.611875.37725.1235.191875.1145.494125-.0214375.719375l-.10675.176875.1395625-.028c.20475-.0410625.40375-.168125.504375-.3225.106375-.163.1178125-.4804375.0235-.65175-.0915-.1660625-.0810625-.192375.054125-.13625.23.095375.3528125.200625.445.381.083125.1625.0876875.20275.04275.371875-.02775.104375-.089375.2415-.137125.305-.07425.09875-.076875.11525-.017625.11525.110125 0 .3401875-.10425.421875-.19125.04125-.0439375.1015-.152125.13375-.2404375l.05875-.160625.067375.1225c.095375.173.28075.32875.506875.425625.243125.10425.34425.110125.217125.012625-.085625-.06575-.24375-.529375-.1958125-.574625.028125-.026625.35825.227375.735125.565625.3565.32.5805.425.9079375.425.41825 0 .661875-.3641875.47375-.7084375-.1095625-.20075-.35375-.228625-.4965-.05675-.065625.0790625-.08375.141875-.064375.224875.0235.1015625.014375.115-.07825.115-.1215625 0-.36125-.1554375-.786875-.510625-.649-.5415625-1.437625-1.000625-2.007125-1.1683125-.3654375-.107625-1.1460625-.149625-1.5175-.081625-.402125.0735625-.8776875.303625-1.136875.55-.459.436375-.46625 1.0171875-.019375 1.546125l.128125.1515-.0866875.134625c-.126125.195875-.1153125.4595.02675.65375.062625.0854375.12575.155375.1403125.1553125.0145625 0 .030625-.055.0355-.1221875.0125-.169875.0855-.28375.210625-.32875.11275-.040625.185625-.0214375.7016875.1845625.543.21675 1.4359375.231625 2.385375.0398125.4654375-.094 1.01425-.0885 1.25575.0126875.442625.1854375.54525.667875.2198125 1.0340625-.140875.1585-.27675.223125-.7328125.34825-.3470625.09525-.42925.1015625-1.218125.09375-.673875-.006875-.916125.00625-1.19125.063625-.298625.0623125-.4823125.068625-1.359625.0465l-1.014375-.025625.1125.093125c.061875.05125.149375.114375.194375.1401875.0764375.043875.073875.0498125-.0398125.091875-.066875.024875-.2151875.045125-.329625.045125h-.208125l-.028125.176875c-.0153125.0971875-.0141875.21075.002625.2523125.024875.06125.015625.07-.0489375.0465625-.043875-.015875-.16575-.0471875-.2709375-.0695-.10525-.022375-.246875-.0678125-.31475-.1010625-.11425-.0559375-.126875-.054375-.169.02-.0375.0664375-.39.32875-.44175.32875-.008375 0-.019125-.0505-.0239375-.112375-.004875-.061875-.055625-.22275-.113125-.3576875-.05725-.134875-.117125-.2820625-.1329375-.327-.0239375-.067875-.03475-.07125-.0635625-.0204375-.019.03375-.046875.125625-.061875.204375s-.068125.2065-.118125.2840625l-.09075.141-.057875-.120625c-.0621875-.129375-.165375-.2635625-.20275-.2635625-.012625 0-.034125.041375-.04775.092-.0285.105625-.27325.3985-.333.3985-.022 0-.04-.0828125-.04-.184 0-.101125-.019375-.1839375-.043125-.1839375s-.04325.026125-.04325.058125c0 .0778125-.209.30975-.279125.30975-.030625 0-.0798125.0275-.109375.06125-.077.088-.14.075625-.1076875-.0210625.0151875-.045375.0053125-.151125-.021875-.235-.0273125-.0840625-.05625-.1734375-.064375-.19875-.010375-.03175-.0853125-.0233125-.24375.0275-.25625.0821875-.342125.067625-.210375-.035625.048125-.037625.121375-.1683125.16275-.2903125.041375-.121875.1025-.2301875.135625-.2405.0465625-.014375.044125.0034375-.01075.077625-.0391875.052875-.071375.124375-.0715.15875 0 .03425-.029625.115625-.0655.180875-.035875.065125-.0584375.125-.050125.1328125s.10575-.02925.2165625-.082375l.2015-.0965625.0008125.086375c.0004375.0475.02475.172875.0539375.278625l.053125.1921875.137125-.063c.1401875-.064375.2729375-.294125.2729375-.4721875 0-.088.0504375-.0745.0710625.0190625.006125.0275.03775.1305.070375.229l.059375.179.093875-.113125c.051625-.062125.116375-.184125.143875-.271.0476875-.1508125.122625-.215625.122625-.106125 0 .0789375.2154375.362.256875.3376875.0201875-.01175.0601875-.118.0889375-.236125.06-.245625.1565625-.412625.2179375-.37675.023125.0135625.0320625.03975.02.0583125-.012125.0185.0375.178125.1101875.354875.05428017.13165681.10838438.26338609.1623125.3951875.0265625.0655.050625.056.2065-.0816875.0970625-.085625.185125-.181625.19575-.213125.016-.04775.037625-.046.128375.0103125.126875.07875.5535.205625.5864375.174375.012375-.0116875.025-.12375.028125-.249l.005625-.2276875.12275.0255c.067375.014.20925.013125.3151875-.001875l.192625-.0275-.171625-.1176875c-.0945-.06475-.19-.1485625-.2121875-.18625-.02375-.040125-.10775-.0741875-.2029375-.08225-.257125-.021875-.7129375-.2775-.7129375-.4 0-.0229375.063125.016125.140375.086875.171125.156875.4089375.2553125.616625.2553125h.155375l-.096125-.1278125c-.0551875-.0734375-.10475-.2128125-.116375-.3275-.0185-.182625-.0378125-.2116875-.2285625-.34425-.1145625-.0796875-.2565-.199125-.315375-.265375l-.1070625-.1205-.0545625.143125c-.03.078625-.06675.143-.0815625.143-.014875 0-.072625-.046-.128375-.1021875-.05575-.056125-.1125-.101875-.12625-.1016875-.013625.00025-.063125.076-.10975.16825l-.084875.1678125-.065625-.0966875c-.036125-.053125-.121375-.1473125-.189375-.209125-.068125-.061875-.104-.1125-.079625-.1125s.1083125.064375.18675.143125l.1425.143125.058125-.1048125c.034375-.0621875.04725-.1578125.0316875-.235-.02275-.11275-.0195625-.119375.023625-.0485625.0275.045.110875.13125.1853125.1915625l.1354375.1098125.093375-.171125c.0929375-.1703125.093625-.170625.135875-.0689375.056625.136.466.471625.8145625.66775.05375.0301875.031125-.07375-.068125-.31275-.02625-.06325-.04775-.177375-.04775-.2535625 0-.113-.032625-.16325-.177125-.27325-.20875-.15875-.27625-.2716875-.3155-.5278125-.0159375-.10375-.0525-.2191875-.081125-.2564375-.042625-.055375-.049625-.024375-.03825.168125.0076875.129875-.0091875.29125-.0375.35875l-.0515.1225-.0398125-.102125c-.021875-.05625-.118625-.1539375-.215-.2171875-.0964375-.0633125-.164125-.125625-.1504375-.138625.01375-.013.1129375.044625.2204375.128125.163875.127125.2.140875.222625.084875.026625-.0658125 0-.3520625-.0515625-.552125-.025625-.099875-.0234375-.099375.0998125.023875.090875.090875.141125.19925.18.3883125.0495.2401875.0745.2801875.296625.47525.133375.117125.249375.206375.2579375.1983125.0085-.008125.0253125-.311.0375-.6733125.023125-.6946875-.003125-.86-.1704375-1.074625l-.0859375-.11025.135125-.1458125c.17625-.190125.25725-.3425.292375-.5505l.0285625-.169125-.1525.144375c-.124875.11825-.1845625.144375-.3291875.144375-.143125 0-.199125-.0239375-.295625-.126875-.1158125-.1233125-.321-.2420625-.5183125-.2998125-.0729375-.021375-.097125-.0120625-.097125.03725 0 .0360625-.0403125.140375-.0895.23175l-.089375.1660625-.1875-.18525c-.115-.113625-.2515-.2020625-.353-.22875-.259375-.06825-.2734375-.0614375-.2734375.13175 0 .293125-.125125.34775-.350375.1529375-.1716875-.1485625-.3140625-.1808125-.6396875-.145l-.2514375.027625.0451875.1135c.0378125.0948125.02925.13475-.0516875.2425-.13125.1745625-.3020625.25025-.565.25025-.121 0-.2725.025-.336625.055625-.0640625.030625-.223375.0659375-.3539375.0784375-.130625.0125-.26975.0348125-.30925.0495625-.061875.023125-.06875.0040625-.04875-.136625.0304375-.2153125-.12-.374125-.354375-.374125-.3039375 0-.4441875.272-.325125.63075.0258281.07962615.04805893.16037454.066625.242.01425.0664375.15125.24275.3189375.410625.1616875.16175.3145625.330125.339625.3740625.025125.0439375.108125.1145.184375.156875l.13875.07675-.018375-.1483125c-.020125-.163125.0154375-.18875.1021875-.0735625.031125.041125.109875.107625.1751875.14775.102875.06325.11875.0645.11875.009625 0-.034875.0209375-.115125.0465625-.1784375l.0465625-.115.0808125.1565c.0445.086125.1890625.281875.32125.435.2566875.297.413125.6289375.332375.705375-.03275.031-.12125.0285625-.304625-.00825-.142125-.0285-.3179375-.043625-.390625-.0335-.14875.020625-.160375.0014375-.069-.1129375.0964375-.12075.081125-.140625-.108375-.140625-.2191875 0-.7633125-.105125-.97225-.1878125-.203125-.080375-.25-.0603125-.30975.1323125-.026875.086625-.07625.24375-.1095.3490625l-.060625.1915.219875-.02125c.1208125-.011625.27625-.038125.3454375-.05875.069125-.02075.132-.03175.139625-.0245.0076875.00725-.023125.0820625-.0685.16625l-.0823125.153125.137-.0279375c.075375-.0153125.18875-.0529375.251875-.0835.11-.053125.1189375-.049375.205625.09.10675.17125.1920625.164125.211-.0175.0196875-.18775.0814375-.16.197625.08875.1116875.239375.2279375.32375.25025.181875.0075-.047.067625-.123625.13375-.17025.13375-.09425.234625-.0659375.292375.082.059875.153125-.0735625.3110625-.46175.546375-.7775.47125-1.2295 1.116-1.3585625 1.937625-.1164375.7410625.2470625 1.506875.97625 2.056875.349.26325.903375.5410625.868125.435-.149625-.45-.1446875-1.3090625.0083125-1.4539375.023-.02175.015125.067875-.0175.199125-.1215.4890625-.06875.87875.2426875 1.7920625.2816875.8260625.2426875 1.179125-.1559375 1.4125-.128.075-.2104375.08725-.55475.083125-.3735625-.0045625-.41425.0029375-.5341875.0985-.11625.092625-.267.396875-.267.53875 0 .076875.085375.06675.253125-.030125z"/><path d="m9.9691875 12.59375.1566875-.1008125.10625.10075c.139375.131875.302625.1289375.4365625-.008.058375-.0596875.110875-.1010625.1165625-.091875.005625.0090625.03175.0533125.0579375.0983125.033125.056875.10125.085625.2240625.0941875.148125.0104375.1878125-.003875.246625-.088875l.070125-.101375.15425.099125c.4223125.2714375.647375-.0133125.458625-.580375-.095875-.2883125-.043125-.450375.26625-.817375.130375-.15475.2371875-.319875.2373125-.367 0-.075125-.024125-.0851875-.19775-.08175-.1660625.0033125-.2146875-.0145625-.302125-.1108125-.14225-.1565625-.13375-.3358125.025125-.5348125l.127-.1589375-.2253125-.152875c-.124-.0840625-.3475-.283-.4966875-.442125-.335125-.3573125-.664625-.52675-1.0991875-.565125l-.29125-.0258125.000375.220625c.000625.283875.13375.557.4975 1.0195625.4134375.526.4423125.6075.4590625 1.294875l.0141875.5815-.1196875.1135c-.108125.1025-.156875.115625-.5058125.1358125-.332125.019125-.401875.03625-.499375.122625-.129375.1146875-.168125.1770625-.208125.3354375-.0233125.09225-.013875.112375.05275.112375.0446875 0 .1516875-.0453125.237875-.100625zm-8.8876875-1.50275c.036875-.05.0671875-.130625.0671875-.179375 0-.0734375.0328125-.093125.194375-.116l.194375-.027625-.1296875-.1033125c-.154-.1226875-.16825-.2185625-.0325-.21875.1351875 0 .3641875-.1404375.3989375-.244375.01625-.048125.006-.11275-.023-.1458125-.0758125-.0865-.21825-.0735-.24475.022375-.0284375.103125-.0760625.1033125-.1840625.001-.1625-.15375-.166125-.47225-.007625-.6576875.07475-.0875.0740625-.093125-.02125-.183375-.1025-.097125-.175625-.28925-.1275-.3348125.015375-.0145.09625-.0029375.18.025625.11875.04075.16575.041375.2146875.002875.1483125-.116625-.012375-.2665625-.2501875-.2335-.09575.0133125-.1353125 0-.1490625-.049625-.010375-.0376875-.094125-.086875-.1884375-.110625-.1685625-.0426875-.16975-.042125-.16975.074 0 .12725-.072625.15125-.210625.069625-.11225-.066375-.221-.014875-.221.104625 0 .1114375.1120625.166375.3129375.1534375.1540625-.01.15975.104625.0134375.269375l-.1051875.118375.0833125.1198125c.1235.177375.113125.471875-.02175.61825l-.10575.114625-.069375-.092c-.096375-.1278125-.22825-.11925-.264375.0171875-.02375.089375-.004125.1301875.10775.224875.0751875.063625.185.115625.243875.115625.146 0 .14025.1148125-.0114375.23075l-.11875.09075.1835.028375c.1008125.015625.183375.045.183375.0654375 0 .078.127125.320625.168.320625.023625 0 .073125-.041.110125-.0909375z"/><path d="m3.4701875 10.055625c.166625-.065625.527375-.3710625.527375-.4465625 0-.02375-.0995-.13325-.22125-.2433125-.2560625-.2316875-.534625-.621875-.60675-.85-.037625-.119-.2195-.322625-.7316875-.819375l-.681625-.6611875-.1965.04975c-.108125.027375-.239875.0504375-.2929375.05125-.0915625.001375-.089875.006625.0316875.10075l.1283125.099375.179875-.1c.174375-.0966875.180625-.09725.2020625-.019375.012625.045625-.0145.1245625-.06275.182625-.0466875.05625-.0733125.12-.059125.141875.0141875.0216875-.030625.067125-.09975.1009375-.128.062625-.216875.269-.1158125.269.090875 0 .29125-.24725.268125-.330875-.01175-.0428125-.0060625-.086875.01275-.097875.078125-.045625.073125.1484375-.006125.243875-.0466875.05625-.0733125.12-.059125.141875.0141875.0216875-.030625.0671875-.09975.101-.1271875.06225-.216875.269-.116875.269.09825 0 .2953125-.23625.2709375-.324625-.012875-.04625-.0079375-.093125.010875-.104125.0525-.03075.0809375.1225.0365625.1975-.02375.0403125-.023625.0951875.0005.13875.043625.078875-.000625.2303125-.0810625.2775-.034375.020125-.0110625.0596875.0725.122875.121125.0914375.1234375.101.1234375.504375 0 .337.013625.424.075625.4826875.069375.065875.0755.0660625.0755.0029375 0-.0689375.1210625-.15325.22-.15325.029375 0 .211875.1546875.405625.34375.195.1901875.399125.352.456875.3623125.0575.01025.1196875.021125.13825.0241875.0185625.003125.1059375-.022875.1941875-.0576875zm-2.0839375-1.630625c0-.10875-.22425-.224625-.4923125-.2546875-.2164375-.024375-.22-.0229375-.22.0851875 0 .0895.0340625.1246875.1834375.18975.240125.1045625.52875.0935.52875-.02025z"/><path d="m1.631875 8.415c.109375-.0991875.1610625-.2171875.0953125-.2171875-.075625 0-.2764375.1801875-.2764375.248125 0 .105875.0373125.0995.1810625-.0309375zm-.233125-.32125c.009375-.061375-.0285625-.1023125-.14225-.153625-.2451875-.11075-.5383125-.1620625-.6089375-.1065625-.13.10225-.0433125.239375.166875.264125.0845625.01.199375.03575.254875.057375.1615625.06275.315125.0341875.3295625-.06125zm0-.3284375c.0133125-.0875-.042625-.11875-.4991875-.279375-.3408125-.12-.49175-.0634375-.3828125.1435.0379375.072125.101625.105.2445.1264375.10625.0159375.251375.047.322625.069125.19025.059.3001875.038125.315-.0596875zm.22875-.307625c.068875-.069875.12525-.15225.12525-.183125 0-.10025-.2720625.0770625-.30675.199875-.0415625.1473125.025875.141125.1815-.0166875zm-.22875-.0206875c.015125-.099625-.150625-.1895625-.476375-.25875-.2390625-.05075-.3445-.021875-.3265625.089125.00975.060625.089375.105.3151875.1754375.3614375.11275.470125.1115.4878125-.0058125zm.31875-.4636875c.4175-.1858125.453625-.6545.06-.7775-.1635625-.051125-.267875-.0235625-.3304375.087125-.0479375.0848125-.015875.2389375.049625.2389375.0221875 0 .04025.0285625.04025.063375 0 .16275-.637375.2365-.89875.104-.091875-.0465625-.131875-.167375-.055375-.167375.057125 0 .096625-.123125.0675-.2101875-.039875-.118625-.159375-.15975-.332875-.114375-.39125.1023125-.3803125.562125.018125.75725.3266875.16 1.042875.16975 1.382.01875z"/><path d="m1.4578125 6.613c.0241875-.022875.01375-.058125-.026875-.09-.08875-.0696875-.084-.1734375.013375-.29225.073125-.0891875.0821875-.2226875.1073125-1.569125.043375-2.320375.2159375-4.065625.443375-4.484375.090625-.166625.077875-.1673125-.1560625-.008125-.3014375.205-.530875.472125-.7341875.854375-.383875.7216875-.5173125 1.6926875-.5173125 3.7653125 0 1.176875.008 1.330875.075 1.4415.06375.105.0670625.143875.0223125.256125-.029.07275-.042125.14225-.0291875.1545.085625.08125.71.059625.8021875-.0276875zm3.5076875-2.2126875c.013125-.02-.0158125-.12125-.0641875-.2248125-.0754375-.1615625-.1058125-.188375-.2133125-.188375-.3366875 0-.878-.1505-1.4360625-.39925-.32225-.143625-.4335625-.176625-.47225-.14-.0985625.093375.0653125.315.3190625.4315.225.103375.854375.230375 1.1415625.230375.1665625 0 .1705.0075.075625.1445l-.069625.10075.1884375.004875c.103625.002625.2466875.018875.3179375.036.185.044625.1866875.044625.2129375.0045z"/></g><path d="m6.9325 5.446c0-.06-.176125-.2225-.354625-.32725-.140125-.08225-.1633125-.08475-.163625-.017625-.0004375.101875-.091.3576875-.1265625.3576875-.02 0-.0496875-.05-.0659375-.1110625-.01625-.061125-.084125-.1815625-.1509375-.267625l-.1215625-.1564375-.094625.145c-.08825.1351875-.2410625.267625-.308875.267625-.01625 0-.019375-.07125-.0070625-.1583125.0133125-.0945625.003-.1695625-.02575-.186375-.0264375-.0154375-.048125-.01-.048125.012 0 .0509375-.2121875.29175-.257125.29175-.0185 0-.044375-.069-.0575-.1533125-.013125-.084375-.035625-.2176875-.04975-.296375-.0141875-.07875.0160625-.0253125.0671875.1185625l.0929375.2616875.101875-.1595c.056125-.0876875.1020625-.1835.1021875-.2129375 0-.029375.0190625-.0425.042125-.029.023.0135625.055.119.07125.234375l.029375.20975.112125-.123c.0616875-.067625.134-.158125.160625-.20125.047625-.07675.0503125-.0766875.145.0035625.0529375.045.134375.1525.1810625.239.0466875.0864375.0910625.1508125.09875.143125.0075-.007875.024625-.0970625.037875-.19825.01325-.101125.025-.1876875.02625-.19225.006625-.025.337875.1901875.4604375.29925.07875.07.1535625.1175.16625.105625.0126875-.012.023-.1154375.023-.22975 0-.17725-.01875-.22475-.127125-.321625-.124625-.1114375-.128125-.1120625-.174125-.030625-.0598125.105875-.1303125.107375-.1303125.002875 0-.07625-.2355-.369375-.296875-.369375-.0158125 0-.065375.064375-.110125.143125s-.092875.143-.106875.1429375c-.0605-.0003125-.3925-.3705-.392375-.4373125 0-.053125.022375-.0395625.080625.0491875.0441875.0675.1325.168125.19625.22375.129125.112625.1760625.08525.225875-.131875.0141875-.06175.03875-.1123125.05475-.1123125.05525 0 .34425.307.385.40875l.04075.10225.0309375-.1125c.03775-.1375.0795-.1425.1398125-.017125.02525.052375.14975.16125.27675.2420625l.2308125.146875.0464375-.14775c.0254375-.08125.05925-.1279375.075-.10375.0235.0360625-.0365.28075-.08175.3334375-.006875.0079375-.081625-.035625-.16625-.096875l-.1539375-.1110625-.000625.199c-.000375.109375-.01225.2404375-.0265625.291-.028.0989375-.1023125.12675-.1023125.0383125zm-1.151-1.586625c-.274375-.229125-.3160625-.2815625-.31-.390125l.0065-.115625.0179375.1116875c.0104375.0651875.0835.162875.175625.23475l.1576875.123125.096875-.1120625c.053375-.061625.0976875-.135.0985625-.163125.0021875-.0733125.015375-.0671875.201125.094.165.14325.167625.1439375.1921875.05125.01375-.051875.00875-.1491875-.0108125-.2165-.0539375-.185-.043375-.2129375.038375-.101375.040625.055625.106125.1341875.145375.1746875.0684375.0703125.072625.069375.098125-.020625.0145625-.051625.026875-.14625.027125-.2101875l.000625-.11625.14875.168625c.1390625.157625.151875.1634375.194375.0883125.024875-.0441875.045625-.150625.046-.23625.0004375-.1109375.012125-.138875.0403125-.0966875.047125.070625.014375.2625-.0725.4259375l-.0623125.1173125-.081875-.1275c-.10475-.163125-.139625-.1605-.206875.0155-.0634375.16625-.10475.1789375-.166625.0510625-.04-.08275-.0476875-.072625-.076125.10125l-.031625.19325-.189375-.147-.1891875-.146875-.085125.09675c-.046875.053125-.08575.11975-.0865.1478125-.0016875.061-.0471875.062875-.116625.005zm2.4406875-.853375c-.099875-.09-.16875-.1758125-.1529375-.19075.0158125-.015.0335625-.01925.0395-.0095.0059375.0096875.0875.0955.1814375.19075.2160625.2191875.171625.2254375-.068.0095zm-3.2509375-.336c-.0909375-.1228125-.0846875-.20425.0259375-.337375.079875-.09625.116375-.10925.2559375-.0915625.0895.011375.282125.0905.428125.17575.1684375.0985.34275.164375.47775.180875.116875.0141875.2125.0195625.2125.011875 0-.007625-.0485-.08675-.107875-.1758125-.1409375-.211375-.136125-.2340625.022875-.107375.163125.13.358375.168125.7945.1548125l.213125-.0065625-.123625-.1221875c-.172875-.1709375-.1196875-.18625.07125-.0205.1790625.155375.167875.166375-.2090625.2039375-.160125.016-.332375.004375-.475625-.032-.214125-.054375-.2225-.053625-.181875.018125.023375.0414375.06125.07525.0841875.07525.022875 0 .041625.021.041625.046625 0 .07875-.462625.0095-.68375-.1025-.505-.255625-.5685625-.27775-.68875-.239875-.066875.0210625-.13375.08275-.156875.1445625-.077.20625.2155.3665625.336125.18425.035-.0528125.026875-.089-.034625-.15325-.0841875-.088125-.07625-.100625.0373125-.059375.080625.029375.0915625.223.0165.2940625-.0858125.08125-.28175.05825-.35575-.041875z" fill="#000"/><path d="m6.9605 2.160625c-.063125-.05975-.013625-.074375.2695-.0796875.35025-.0065625.563-.065.814-.223375.201125-.126875.255625-.101875.06475.02975-.174125.12-.44575.212375-.708.240625-.126875.01375-.2716875.032625-.3215625.0420625-.049875.009375-.1033125.00525-.11875-.009375z" fill="#000"/></g><g><g fill="#ffb700"><path d="m3.9055 12.6103125.1453125-.083875.0621875.0840625c.0828125.111875.311875.110625.464-.0025l.11625-.0866875.097375.0866875c.128.113875.3670625.114.5196875.000375.106875-.079625.121875-.08125.1925-.020625.0420625.0360625.165625.0771875.2745.09125.196125.0255.1990625.024125.31375-.148.096125-.144125.11125-.2025.08825-.3423125-.01710485-.1098985-.02926295-.22051-.0364375-.3315-.00875-.1623125-.0078125-.1633125.228625-.245625.130625-.0455.28175-.1064375.335875-.135625.094375-.050625.3546875-.3565625.3546875-.416875 0-.0159375-.1016875-.0404375-.226-.054375-.4945-.0554375-.578125-.3209375-.256875-.8140625.52425-.804375.840625-1.5875.8426875-2.0865.0009375-.223125.013625-.2979375.0423125-.249375.117125.198125-.0926875 1.0291875-.410625 1.6259375l-.127875.240375.122125-.028125c.067125-.0154375.462-.1820625.8775-.37025 1.137125-.515 1.52775-.6159375 2.26375-.585.6165.026.8790625.1465 1.314375.603125.230625.241875.4528125.414875.8591875.66925.8658125.542.901875.5889375.943125 1.22625.0416875.6458125.0209375.6808125-.4675.78875-.4175.0921875-.679125.286875-.749375.5571875-.0375.144375.0414375.1485625.251875.0133125l.15425-.099125.068625.099125c.0901875.1303125.281875.130875.4410625.00125l.1203125-.0980625.1229375.0979375c.1909375.1521875.444875.11525.5165625-.075.01375-.036625.0505-.025.125.03975.1395.12125.497125.17325.535625.0779375.0148125-.036375-.013125-.12625-.062125-.199625-.208125-.312-.273125-.46075-.275875-.630625-.00375-.23625.0666875-.350125.335375-.54225.326375-.233375.4271875-.534375.179-.534375-.15325 0-.3076875-.1355-.40625-.35625-.20025-.44875-.161-.95175.1395625-1.7885625.3053125-.85.3391875-1.00675.340375-1.5751875.001-.459625-.010625-.539125-.115125-.791125-.063875-.1540625-.193625-.3835-.28825-.5098125l-.1720625-.2296875.220875-.183c.674375-.55875.5364375-1.47325-.2754375-1.825625-.2484375-.1078125-.3105-.1173125-.74575-.114375-.2610625.00175-.659375.036125-.8848125.076375-.23.041-.6191875.074-.88625.075-.4240625.00175-.4960625-.00875-.6595625-.095625-.1704375-.0908125-.1996875-.133875-.233-.3435625-.006875-.043125-.037-.086125-.067-.095625-.0579375-.018125-.325625.214125-.36525.3170625-.0195.0508125-.0354375.0473125-.0926875-.0204375-.038125-.045-.091125-.1483125-.118-.229625-.0675-.2045625.0154375-.357875.2558125-.47275l.1865-.089125-.11-.06825c-.226875-.1408125-.6128125-.0445-.752375.1878125-.0395.06575-.0825.119625-.095625.11975-.013125 0-.08825-.062625-.166875-.139375-.2929375-.28625-.1921875-.709875.19975-.83925.209-.0689375.3939375-.01625.432375.123.05875.2128125.241375-.066875.208625-.319375-.02175-.168-.0185-.17375.0976875-.17375.1615 0 .5054375.212.611875.37725.1235.191875.1145.494125-.0214375.719375l-.10675.176875.1395625-.028c.20475-.0410625.40375-.168125.504375-.3225.106375-.163.1178125-.4804375.0235-.65175-.0915-.1660625-.0810625-.192375.054125-.13625.23.095375.3528125.200625.445.381.083125.1625.0876875.20275.04275.371875-.02775.104375-.089375.2415-.137125.305-.07425.09875-.076875.11525-.017625.11525.110125 0 .3401875-.10425.421875-.19125.04125-.0439375.1015-.152125.13375-.2404375l.05875-.160625.067375.1225c.095375.173.28075.32875.506875.425625.243125.10425.34425.110125.217125.012625-.085625-.06575-.24375-.529375-.1958125-.574625.028125-.026625.35825.227375.735125.565625.3565.32.5805.425.9079375.425.41825 0 .661875-.3641875.47375-.7084375-.1095625-.20075-.35375-.228625-.4965-.05675-.065625.0790625-.08375.141875-.064375.224875.0235.1015625.014375.115-.07825.115-.1215625 0-.36125-.1554375-.786875-.510625-.649-.5415625-1.437625-1.000625-2.007125-1.1683125-.3654375-.107625-1.1460625-.149625-1.5175-.081625-.402125.0735625-.8776875.303625-1.136875.55-.459.436375-.46625 1.0171875-.019375 1.546125l.128125.1515-.0866875.134625c-.126125.195875-.1153125.4595.02675.65375.062625.0854375.12575.155375.1403125.1553125.0145625 0 .030625-.055.0355-.1221875.0125-.169875.0855-.28375.210625-.32875.11275-.040625.185625-.0214375.7016875.1845625.543.21675 1.4359375.231625 2.385375.0398125.4654375-.094 1.01425-.0885 1.25575.0126875.442625.1854375.54525.667875.2198125 1.0340625-.140875.1585-.27675.223125-.7328125.34825-.3470625.09525-.42925.1015625-1.218125.09375-.673875-.006875-.916125.00625-1.19125.063625-.298625.0623125-.4823125.068625-1.359625.0465l-1.014375-.025625.1125.093125c.061875.05125.149375.114375.194375.1401875.0764375.043875.073875.0498125-.0398125.091875-.066875.024875-.2151875.045125-.329625.045125h-.208125l-.028125.176875c-.0153125.0971875-.0141875.21075.002625.2523125.024875.06125.015625.07-.0489375.0465625-.043875-.015875-.16575-.0471875-.2709375-.0695-.10525-.022375-.246875-.0678125-.31475-.1010625-.11425-.0559375-.126875-.054375-.169.02-.0375.0664375-.39.32875-.44175.32875-.008375 0-.019125-.0505-.0239375-.112375-.004875-.061875-.055625-.22275-.113125-.3576875-.05725-.134875-.117125-.2820625-.1329375-.327-.0239375-.067875-.03475-.07125-.0635625-.0204375-.019.03375-.046875.125625-.061875.204375s-.068125.2065-.118125.2840625l-.09075.141-.057875-.120625c-.0621875-.129375-.165375-.2635625-.20275-.2635625-.012625 0-.034125.041375-.04775.092-.0285.105625-.27325.3985-.333.3985-.022 0-.04-.0828125-.04-.184 0-.101125-.019375-.1839375-.043125-.1839375s-.04325.026125-.04325.058125c0 .0778125-.209.30975-.279125.30975-.030625 0-.0798125.0275-.109375.06125-.077.088-.14.075625-.1076875-.0210625.0151875-.045375.0053125-.151125-.021875-.235-.0273125-.0840625-.05625-.1734375-.064375-.19875-.010375-.03175-.0853125-.0233125-.24375.0275-.25625.0821875-.342125.067625-.210375-.035625.048125-.037625.121375-.1683125.16275-.2903125.041375-.121875.1025-.2301875.135625-.2405.0465625-.014375.044125.0034375-.01075.077625-.0391875.052875-.071375.124375-.0715.15875 0 .03425-.029625.115625-.0655.180875-.035875.065125-.0584375.125-.050125.1328125s.10575-.02925.2165625-.082375l.2015-.0965625.0008125.086375c.0004375.0475.02475.172875.0539375.278625l.053125.1921875.137125-.063c.1401875-.064375.2729375-.294125.2729375-.4721875 0-.088.0504375-.0745.0710625.0190625.006125.0275.03775.1305.070375.229l.059375.179.093875-.113125c.051625-.062125.116375-.184125.143875-.271.0476875-.1508125.122625-.215625.122625-.106125 0 .0789375.2154375.362.256875.3376875.0201875-.01175.0601875-.118.0889375-.236125.06-.245625.1565625-.412625.2179375-.37675.023125.0135625.0320625.03975.02.0583125-.012125.0185.0375.178125.1101875.354875.05428017.13165681.10838438.26338609.1623125.3951875.0265625.0655.050625.056.2065-.0816875.0970625-.085625.185125-.181625.19575-.213125.016-.04775.037625-.046.128375.0103125.126875.07875.5535.205625.5864375.174375.012375-.0116875.025-.12375.028125-.249l.005625-.2276875.12275.0255c.067375.014.20925.013125.3151875-.001875l.192625-.0275-.171625-.1176875c-.0945-.06475-.19-.1485625-.2121875-.18625-.02375-.040125-.10775-.0741875-.2029375-.08225-.257125-.021875-.7129375-.2775-.7129375-.4 0-.0229375.063125.016125.140375.086875.171125.156875.4089375.2553125.616625.2553125h.155375l-.096125-.1278125c-.0551875-.0734375-.10475-.2128125-.116375-.3275-.0185-.182625-.0378125-.2116875-.2285625-.34425-.1145625-.0796875-.2565-.199125-.315375-.265375l-.1070625-.1205-.0545625.143125c-.03.078625-.06675.143-.0815625.143-.014875 0-.072625-.046-.128375-.1021875-.05575-.056125-.1125-.101875-.12625-.1016875-.013625.00025-.063125.076-.10975.16825l-.084875.1678125-.065625-.0966875c-.036125-.053125-.121375-.1473125-.189375-.209125-.068125-.061875-.104-.1125-.079625-.1125s.1083125.064375.18675.143125l.1425.143125.058125-.1048125c.034375-.0621875.04725-.1578125.0316875-.235-.02275-.11275-.0195625-.119375.023625-.0485625.0275.045.110875.13125.1853125.1915625l.1354375.1098125.093375-.171125c.0929375-.1703125.093625-.170625.135875-.0689375.056625.136.466.471625.8145625.66775.05375.0301875.031125-.07375-.068125-.31275-.02625-.06325-.04775-.177375-.04775-.2535625 0-.113-.032625-.16325-.177125-.27325-.20875-.15875-.27625-.2716875-.3155-.5278125-.0159375-.10375-.0525-.2191875-.081125-.2564375-.042625-.055375-.049625-.024375-.03825.168125.0076875.129875-.0091875.29125-.0375.35875l-.0515.1225-.0398125-.102125c-.021875-.05625-.118625-.1539375-.215-.2171875-.0964375-.0633125-.164125-.125625-.1504375-.138625.01375-.013.1129375.044625.2204375.128125.163875.127125.2.140875.222625.084875.026625-.0658125 0-.3520625-.0515625-.552125-.025625-.099875-.0234375-.099375.0998125.023875.090875.090875.141125.19925.18.3883125.0495.2401875.0745.2801875.296625.47525.133375.117125.249375.206375.2579375.1983125.0085-.008125.0253125-.311.0375-.6733125.023125-.6946875-.003125-.86-.1704375-1.074625l-.0859375-.11025.135125-.1458125c.17625-.190125.25725-.3425.292375-.5505l.0285625-.169125-.1525.144375c-.124875.11825-.1845625.144375-.3291875.144375-.143125 0-.199125-.0239375-.295625-.126875-.1158125-.1233125-.321-.2420625-.5183125-.2998125-.0729375-.021375-.097125-.0120625-.097125.03725 0 .0360625-.0403125.140375-.0895.23175l-.089375.1660625-.1875-.18525c-.115-.113625-.2515-.2020625-.353-.22875-.259375-.06825-.2734375-.0614375-.2734375.13175 0 .293125-.125125.34775-.350375.1529375-.1716875-.1485625-.3140625-.1808125-.6396875-.145l-.2514375.027625.0451875.1135c.0378125.0948125.02925.13475-.0516875.2425-.13125.1745625-.3020625.25025-.565.25025-.121 0-.2725.025-.336625.055625-.0640625.030625-.223375.0659375-.3539375.0784375-.130625.0125-.26975.0348125-.30925.0495625-.061875.023125-.06875.0040625-.04875-.136625.0304375-.2153125-.12-.374125-.354375-.374125-.3039375 0-.4441875.272-.325125.63075.0258281.07962615.04805893.16037454.066625.242.01425.0664375.15125.24275.3189375.410625.1616875.16175.3145625.330125.339625.3740625.025125.0439375.108125.1145.184375.156875l.13875.07675-.018375-.1483125c-.020125-.163125.0154375-.18875.1021875-.0735625.031125.041125.109875.107625.1751875.14775.102875.06325.11875.0645.11875.009625 0-.034875.0209375-.115125.0465625-.1784375l.0465625-.115.0808125.1565c.0445.086125.1890625.281875.32125.435.2566875.297.413125.6289375.332375.705375-.03275.031-.12125.0285625-.304625-.00825-.142125-.0285-.3179375-.043625-.390625-.0335-.14875.020625-.160375.0014375-.069-.1129375.0964375-.12075.081125-.140625-.108375-.140625-.2191875 0-.7633125-.105125-.97225-.1878125-.203125-.080375-.25-.0603125-.30975.1323125-.026875.086625-.07625.24375-.1095.3490625l-.060625.1915.219875-.02125c.1208125-.011625.27625-.038125.3454375-.05875.069125-.02075.132-.03175.139625-.0245.0076875.00725-.023125.0820625-.0685.16625l-.0823125.153125.137-.0279375c.075375-.0153125.18875-.0529375.251875-.0835.11-.053125.1189375-.049375.205625.09.10675.17125.1920625.164125.211-.0175.0196875-.18775.0814375-.16.197625.08875.1116875.239375.2279375.32375.25025.181875.0075-.047.067625-.123625.13375-.17025.13375-.09425.234625-.0659375.292375.082.059875.153125-.0735625.3110625-.46175.546375-.7775.47125-1.2295 1.116-1.3585625 1.937625-.1164375.7410625.2470625 1.506875.97625 2.056875.349.26325.903375.5410625.868125.435-.149625-.45-.1446875-1.3090625.0083125-1.4539375.023-.02175.015125.067875-.0175.199125-.1215.4890625-.06875.87875.2426875 1.7920625.2816875.8260625.2426875 1.179125-.1559375 1.4125-.128.075-.2104375.08725-.55475.083125-.3735625-.0045625-.41425.0029375-.5341875.0985-.11625.092625-.267.396875-.267.53875 0 .076875.085375.06675.253125-.030125z"/><path d="m9.9691875 12.59375.1566875-.1008125.10625.10075c.139375.131875.302625.1289375.4365625-.008.058375-.0596875.110875-.1010625.1165625-.091875.005625.0090625.03175.0533125.0579375.0983125.033125.056875.10125.085625.2240625.0941875.148125.0104375.1878125-.003875.246625-.088875l.070125-.101375.15425.099125c.4223125.2714375.647375-.0133125.458625-.580375-.095875-.2883125-.043125-.450375.26625-.817375.130375-.15475.2371875-.319875.2373125-.367 0-.075125-.024125-.0851875-.19775-.08175-.1660625.0033125-.2146875-.0145625-.302125-.1108125-.14225-.1565625-.13375-.3358125.025125-.5348125l.127-.1589375-.2253125-.152875c-.124-.0840625-.3475-.283-.4966875-.442125-.335125-.3573125-.664625-.52675-1.0991875-.565125l-.29125-.0258125.000375.220625c.000625.283875.13375.557.4975 1.0195625.4134375.526.4423125.6075.4590625 1.294875l.0141875.5815-.1196875.1135c-.108125.1025-.156875.115625-.5058125.1358125-.332125.019125-.401875.03625-.499375.122625-.129375.1146875-.168125.1770625-.208125.3354375-.0233125.09225-.013875.112375.05275.112375.0446875 0 .1516875-.0453125.237875-.100625zm-8.8876875-1.50275c.036875-.05.0671875-.130625.0671875-.179375 0-.0734375.0328125-.093125.194375-.116l.194375-.027625-.1296875-.1033125c-.154-.1226875-.16825-.2185625-.0325-.21875.1351875 0 .3641875-.1404375.3989375-.244375.01625-.048125.006-.11275-.023-.1458125-.0758125-.0865-.21825-.0735-.24475.022375-.0284375.103125-.0760625.1033125-.1840625.001-.1625-.15375-.166125-.47225-.007625-.6576875.07475-.0875.0740625-.093125-.02125-.183375-.1025-.097125-.175625-.28925-.1275-.3348125.015375-.0145.09625-.0029375.18.025625.11875.04075.16575.041375.2146875.002875.1483125-.116625-.012375-.2665625-.2501875-.2335-.09575.0133125-.1353125 0-.1490625-.049625-.010375-.0376875-.094125-.086875-.1884375-.110625-.1685625-.0426875-.16975-.042125-.16975.074 0 .12725-.072625.15125-.210625.069625-.11225-.066375-.221-.014875-.221.104625 0 .1114375.1120625.166375.3129375.1534375.1540625-.01.15975.104625.0134375.269375l-.1051875.118375.0833125.1198125c.1235.177375.113125.471875-.02175.61825l-.10575.114625-.069375-.092c-.096375-.1278125-.22825-.11925-.264375.0171875-.02375.089375-.004125.1301875.10775.224875.0751875.063625.185.115625.243875.115625.146 0 .14025.1148125-.0114375.23075l-.11875.09075.1835.028375c.1008125.015625.183375.045.183375.0654375 0 .078.127125.320625.168.320625.023625 0 .073125-.041.110125-.0909375z"/><path d="m3.4701875 10.055625c.166625-.065625.527375-.3710625.527375-.4465625 0-.02375-.0995-.13325-.22125-.2433125-.2560625-.2316875-.534625-.621875-.60675-.85-.037625-.119-.2195-.322625-.7316875-.819375l-.681625-.6611875-.1965.04975c-.108125.027375-.239875.0504375-.2929375.05125-.0915625.001375-.089875.006625.0316875.10075l.1283125.099375.179875-.1c.174375-.0966875.180625-.09725.2020625-.019375.012625.045625-.0145.1245625-.06275.182625-.0466875.05625-.0733125.12-.059125.141875.0141875.0216875-.030625.067125-.09975.1009375-.128.062625-.216875.269-.1158125.269.090875 0 .29125-.24725.268125-.330875-.01175-.0428125-.0060625-.086875.01275-.097875.078125-.045625.073125.1484375-.006125.243875-.0466875.05625-.0733125.12-.059125.141875.0141875.0216875-.030625.0671875-.09975.101-.1271875.06225-.216875.269-.116875.269.09825 0 .2953125-.23625.2709375-.324625-.012875-.04625-.0079375-.093125.010875-.104125.0525-.03075.0809375.1225.0365625.1975-.02375.0403125-.023625.0951875.0005.13875.043625.078875-.000625.2303125-.0810625.2775-.034375.020125-.0110625.0596875.0725.122875.121125.0914375.1234375.101.1234375.504375 0 .337.013625.424.075625.4826875.069375.065875.0755.0660625.0755.0029375 0-.0689375.1210625-.15325.22-.15325.029375 0 .211875.1546875.405625.34375.195.1901875.399125.352.456875.3623125.0575.01025.1196875.021125.13825.0241875.0185625.003125.1059375-.022875.1941875-.0576875zm-2.0839375-1.630625c0-.10875-.22425-.224625-.4923125-.2546875-.2164375-.024375-.22-.0229375-.22.0851875 0 .0895.0340625.1246875.1834375.18975.240125.1045625.52875.0935.52875-.02025z"/><path d="m1.631875 8.415c.109375-.0991875.1610625-.2171875.0953125-.2171875-.075625 0-.2764375.1801875-.2764375.248125 0 .105875.0373125.0995.1810625-.0309375zm-.233125-.32125c.009375-.061375-.0285625-.1023125-.14225-.153625-.2451875-.11075-.5383125-.1620625-.6089375-.1065625-.13.10225-.0433125.239375.166875.264125.0845625.01.199375.03575.254875.057375.1615625.06275.315125.0341875.3295625-.06125zm0-.3284375c.0133125-.0875-.042625-.11875-.4991875-.279375-.3408125-.12-.49175-.0634375-.3828125.1435.0379375.072125.101625.105.2445.1264375.10625.0159375.251375.047.322625.069125.19025.059.3001875.038125.315-.0596875zm.22875-.307625c.068875-.069875.12525-.15225.12525-.183125 0-.10025-.2720625.0770625-.30675.199875-.0415625.1473125.025875.141125.1815-.0166875zm-.22875-.0206875c.015125-.099625-.150625-.1895625-.476375-.25875-.2390625-.05075-.3445-.021875-.3265625.089125.00975.060625.089375.105.3151875.1754375.3614375.11275.470125.1115.4878125-.0058125zm.31875-.4636875c.4175-.1858125.453625-.6545.06-.7775-.1635625-.051125-.267875-.0235625-.3304375.087125-.0479375.0848125-.015875.2389375.049625.2389375.0221875 0 .04025.0285625.04025.063375 0 .16275-.637375.2365-.89875.104-.091875-.0465625-.131875-.167375-.055375-.167375.057125 0 .096625-.123125.0675-.2101875-.039875-.118625-.159375-.15975-.332875-.114375-.39125.1023125-.3803125.562125.018125.75725.3266875.16 1.042875.16975 1.382.01875z"/><path d="m1.4578125 6.613c.0241875-.022875.01375-.058125-.026875-.09-.08875-.0696875-.084-.1734375.013375-.29225.073125-.0891875.0821875-.2226875.1073125-1.569125.043375-2.320375.2159375-4.065625.443375-4.484375.090625-.166625.077875-.1673125-.1560625-.008125-.3014375.205-.530875.472125-.7341875.854375-.383875.7216875-.5173125 1.6926875-.5173125 3.7653125 0 1.176875.008 1.330875.075 1.4415.06375.105.0670625.143875.0223125.256125-.029.07275-.042125.14225-.0291875.1545.085625.08125.71.059625.8021875-.0276875zm3.5076875-2.2126875c.013125-.02-.0158125-.12125-.0641875-.2248125-.0754375-.1615625-.1058125-.188375-.2133125-.188375-.3366875 0-.878-.1505-1.4360625-.39925-.32225-.143625-.4335625-.176625-.47225-.14-.0985625.093375.0653125.315.3190625.4315.225.103375.854375.230375 1.1415625.230375.1665625 0 .1705.0075.075625.1445l-.069625.10075.1884375.004875c.103625.002625.2466875.018875.3179375.036.185.044625.1866875.044625.2129375.0045z"/></g><path d="m6.9325 5.446c0-.06-.176125-.2225-.354625-.32725-.140125-.08225-.1633125-.08475-.163625-.017625-.0004375.101875-.091.3576875-.1265625.3576875-.02 0-.0496875-.05-.0659375-.1110625-.01625-.061125-.084125-.1815625-.1509375-.267625l-.1215625-.1564375-.094625.145c-.08825.1351875-.2410625.267625-.308875.267625-.01625 0-.019375-.07125-.0070625-.1583125.0133125-.0945625.003-.1695625-.02575-.186375-.0264375-.0154375-.048125-.01-.048125.012 0 .0509375-.2121875.29175-.257125.29175-.0185 0-.044375-.069-.0575-.1533125-.013125-.084375-.035625-.2176875-.04975-.296375-.0141875-.07875.0160625-.0253125.0671875.1185625l.0929375.2616875.101875-.1595c.056125-.0876875.1020625-.1835.1021875-.2129375 0-.029375.0190625-.0425.042125-.029.023.0135625.055.119.07125.234375l.029375.20975.112125-.123c.0616875-.067625.134-.158125.160625-.20125.047625-.07675.0503125-.0766875.145.0035625.0529375.045.134375.1525.1810625.239.0466875.0864375.0910625.1508125.09875.143125.0075-.007875.024625-.0970625.037875-.19825.01325-.101125.025-.1876875.02625-.19225.006625-.025.337875.1901875.4604375.29925.07875.07.1535625.1175.16625.105625.0126875-.012.023-.1154375.023-.22975 0-.17725-.01875-.22475-.127125-.321625-.124625-.1114375-.128125-.1120625-.174125-.030625-.0598125.105875-.1303125.107375-.1303125.002875 0-.07625-.2355-.369375-.296875-.369375-.0158125 0-.065375.064375-.110125.143125s-.092875.143-.106875.1429375c-.0605-.0003125-.3925-.3705-.392375-.4373125 0-.053125.022375-.0395625.080625.0491875.0441875.0675.1325.168125.19625.22375.129125.112625.1760625.08525.225875-.131875.0141875-.06175.03875-.1123125.05475-.1123125.05525 0 .34425.307.385.40875l.04075.10225.0309375-.1125c.03775-.1375.0795-.1425.1398125-.017125.02525.052375.14975.16125.27675.2420625l.2308125.146875.0464375-.14775c.0254375-.08125.05925-.1279375.075-.10375.0235.0360625-.0365.28075-.08175.3334375-.006875.0079375-.081625-.035625-.16625-.096875l-.1539375-.1110625-.000625.199c-.000375.109375-.01225.2404375-.0265625.291-.028.0989375-.1023125.12675-.1023125.0383125zm-1.151-1.586625c-.274375-.229125-.3160625-.2815625-.31-.390125l.0065-.115625.0179375.1116875c.0104375.0651875.0835.162875.175625.23475l.1576875.123125.096875-.1120625c.053375-.061625.0976875-.135.0985625-.163125.0021875-.0733125.015375-.0671875.201125.094.165.14325.167625.1439375.1921875.05125.01375-.051875.00875-.1491875-.0108125-.2165-.0539375-.185-.043375-.2129375.038375-.101375.040625.055625.106125.1341875.145375.1746875.0684375.0703125.072625.069375.098125-.020625.0145625-.051625.026875-.14625.027125-.2101875l.000625-.11625.14875.168625c.1390625.157625.151875.1634375.194375.0883125.024875-.0441875.045625-.150625.046-.23625.0004375-.1109375.012125-.138875.0403125-.0966875.047125.070625.014375.2625-.0725.4259375l-.0623125.1173125-.081875-.1275c-.10475-.163125-.139625-.1605-.206875.0155-.0634375.16625-.10475.1789375-.166625.0510625-.04-.08275-.0476875-.072625-.076125.10125l-.031625.19325-.189375-.147-.1891875-.146875-.085125.09675c-.046875.053125-.08575.11975-.0865.1478125-.0016875.061-.0471875.062875-.116625.005zm2.4406875-.853375c-.099875-.09-.16875-.1758125-.1529375-.19075.0158125-.015.0335625-.01925.0395-.0095.0059375.0096875.0875.0955.1814375.19075.2160625.2191875.171625.2254375-.068.0095zm-3.2509375-.336c-.0909375-.1228125-.0846875-.20425.0259375-.337375.079875-.09625.116375-.10925.2559375-.0915625.0895.011375.282125.0905.428125.17575.1684375.0985.34275.164375.47775.180875.116875.0141875.2125.0195625.2125.011875 0-.007625-.0485-.08675-.107875-.1758125-.1409375-.211375-.136125-.2340625.022875-.107375.163125.13.358375.168125.7945.1548125l.213125-.0065625-.123625-.1221875c-.172875-.1709375-.1196875-.18625.07125-.0205.1790625.155375.167875.166375-.2090625.2039375-.160125.016-.332375.004375-.475625-.032-.214125-.054375-.2225-.053625-.181875.018125.023375.0414375.06125.07525.0841875.07525.022875 0 .041625.021.041625.046625 0 .07875-.462625.0095-.68375-.1025-.505-.255625-.5685625-.27775-.68875-.239875-.066875.0210625-.13375.08275-.156875.1445625-.077.20625.2155.3665625.336125.18425.035-.0528125.026875-.089-.034625-.15325-.0841875-.088125-.07625-.100625.0373125-.059375.080625.029375.0915625.223.0165.2940625-.0858125.08125-.28175.05825-.35575-.041875z" fill="#000"/><path d="m6.9605 2.160625c-.063125-.05975-.013625-.074375.2695-.0796875.35025-.0065625.563-.065.814-.223375.201125-.126875.255625-.101875.06475.02975-.174125.12-.44575.212375-.708.240625-.126875.01375-.2716875.032625-.3215625.0420625-.049875.009375-.1033125.00525-.11875-.009375z" fill="#000"/></g></g></g></g></g></svg>