<svg height="48" viewBox="0 0 48 48" width="48" xmlns="http://www.w3.org/2000/svg" xmlns:xlink="http://www.w3.org/1999/xlink"><defs><path id="a" d="m8 9h32c2.209139 0 4 1.790861 4 4v22c0 2.209139-1.790861 4-4 4h-32c-2.209139 0-4-1.790861-4-4v-22c0-2.209139 1.790861-4 4-4z"/><mask id="b" fill="#fff"><use fill="#fff" fill-rule="evenodd" xlink:href="#a"/></mask></defs><g fill="none" fill-rule="evenodd"><path d="m0 0h48v48h-48z"/><use fill="#d8d8d8" xlink:href="#a"/><g mask="url(#b)"><g transform="translate(4 9)"><g fill="none" fill-rule="nonzero"><path d="m0 0h13.3335625v30h-13.3335625z" fill="#00319c"/><path d="m13.3335625 0h13.333625v30h-13.333625z" fill="#ffde00"/><path d="m26.666375 0h13.333625v30h-13.333625z" fill="#de2110"/></g><path d="m22.5235 20.0235625 1.5166875 2.18825c.08425.1215625.1685.243125.04125.323625-.1271875.0805625-.085875.4041875-.001625.52575.1685.243125.38.2841875.50725.2036875l1.1449375-.724625c.12725-.0805.1701875-.282625.0016875-.52575-.09675-.1225-.38-.2841875-.50725-.2036875-.12725.0805625-.2115-.041-.29575-.162625l-1.5166875-2.18825" fill="#ff1900" fill-rule="evenodd" stroke="#000" stroke-width=".1"/><path d="m23.3136303 19.0407219c0 1.0262855-.4024458 1.8582728-.8989281 1.8582728-.49644 0-.8989281-.8319873-.8989281-1.8582728 0-1.0262854.4024458-1.8582727.8989281-1.8582727.49644 0 .8989281.8319873.8989281 1.8582727z" fill="#a77b3b" fill-rule="evenodd" stroke="#000" stroke-width=".1" transform="matrix(.76522949 -.64375758 .64375758 .76522949 -6.995298 18.899834)"/><path d="m16.372 19.133875-1.338875 2.29175c-.074375.1273125-.14875.254625-.282.1835625-.13325-.071125-.4153125.1125-.4896875.23975-.14875.2546875-.0899375.4530625.0433125.524125l1.199125.63975c.13325.0710625.340875.014875.489625-.2398125.069625-.1383125.09-.453-.0433125-.524125-.13325-.0710625-.0588125-.198375.0155625-.3256875l1.3389375-2.2916875" fill="#ff1900" fill-rule="evenodd" stroke="#000" stroke-width=".1"/><path d="m20.6980625 17.5360625h-1.22075c-.040375.0385625-.3875 2.224875-.763 3.0620625-.45775 1.020625-1.82875 1.9213125-1.82875 1.9213125s.821375.24875 1.0658125.411625c.06075-.0170625 1.371-.2915625 1.5235625-1.8955625.152625 1.604-.913125 2.3330625-.913125 2.3330625s1.5259375.4374375 1.5259375 1.458125c0-1.0206875 1.5259375-1.458125 1.5259375-1.458125s-.765375-.7290625-.9179375-2.3330625c.305125 1.604 1.4675 1.8785 1.5283125 1.895625.244375-.1629375 1.0658125-.4116875 1.0658125-.4116875s-1.371-.900625-1.82875-1.9213125c-.3754375-.8371875-.722625-3.0235-.7629375-3.0620625zm-5.1903125-7.291875 2.2889375.7290625c.7629375 0 1.5259375-.72825 1.5259375-1.457375.025375-1.621875-.610375-2.1879375-.763-2.1879375l.30525-.291625-.4578125-.4375s.1530625-.756375 1.6785-.72825 1.526.7290625 1.526 1.458125-.763.7290625-.763 2.18725c0 .7290625.763 1.458125 1.526 1.458125l2.2889375-.7290625v7.2906875h-9.15575v-7.2914375z" fill="#a77b3b" fill-rule="evenodd" stroke="#000" stroke-width=".1"/><g fill="none" fill-rule="evenodd" stroke="#000" stroke-width=".1" transform="translate(19 8.875)"><path d="m.0172572 1.66177595.1526009.43744448.15259048-.43744448.1526009.43744448.3052018-.43744448.14859962.46214647.15659176-.46214647.2251241.46214647.23266818-.46214647.1526009.43744448.1526009-.43744448"/><path d="m.62740838.05809668-.30516302 1.60393548m.45804598-1.60393548v1.60393548m.30490463-1.60393548v1.60393548m.30533528-1.60393548.15258151 1.60393548m.15275377-1.60393548.15258151 1.60393548"/></g><g fill="none" fill-rule="evenodd" stroke="#000" stroke-width=".1" transform="translate(11.4375 5.8125)"><path d="m2.54418469.05848566c1.52594429.72908777 1.52594429 2.18718101 1.52594429 2.91626878-.0538751.66324477 0 14.58134386 0 14.58134386s-.09930933-.8239428-.76299368-1.4581344l-.76295061-.7290466-.76299368-.7290878c-.55774291-.4845221-.76295061-1.4581344-.76295061-2.1872221v-10.20689958s0-.72908777 1.52594429-2.18722216z" fill="#a77b3b" transform="matrix(-1 0 0 1 5.08837 0)"/><path d="m1.7625 2.1875v14"/><path d="m3.3625 2.1875v12"/><path d="m2.5625 2.98750305v12.19999695"/><path d="m1.01854186 2.97487429c.01795836 0 .76295061-.72908777.76295061-.72908777l.76299368.72908777.76295061-.72908777.76299368.72908777" transform="matrix(-1 0 0 1 5.088972 0)"/><path d="m1.01854186 4.43208848c.01795836 0 .76295061-.72908777.76295061-.72908777l.76299368.72908777.76295061-.72908777.76299368.72908777" transform="matrix(-1 0 0 -1 5.088972 8.13509)"/><path d="m1.01854186 5.89106179c.01795836 0 .76295061-.72908777.76295061-.72908777l.76299368.72908777.76295061-.72908777.76299368.72908777" transform="matrix(-1 0 0 1 5.088972 0)"/></g><g fill="none" fill-rule="evenodd" stroke="#000" stroke-width=".1" transform="translate(23.625 5.8125)"><path d="m2.56437781.05848566c1.52594429.72908777 1.52594429 2.18718101 1.52594429 2.91626878-.05387509.66324477 0 14.58134386 0 14.58134386s-.09930933-.8239428-.76299367-1.4581344l-.76295062-.7290466-.76299368-.7290878c-.5577429-.4845221-.76295061-1.4581344-.76295061-2.1872221v-10.20689958s0-.72908777 1.52594429-2.18722216z" fill="#a77b3b"/><path d="m2.475 2.8875v12.3"/><path d="m1.775 2.1875v12.5"/><path d="m3.275 2.1875v14"/><path d="m1.03813206 2.97487429c.01795837 0 .76295061-.72908777.76295061-.72908777l.76299368.72908777.76295062-.72908777.76299367.72908777"/><path d="m1.03813206 4.43208848c.01795837 0 .76295061-.72908777.76295061-.72908777l.76299368.72908777.76295062-.72908777.76299367.72908777" transform="matrix(1 0 0 -1 0 8.13509)"/><path d="m1.03813206 5.89106179c.01795837 0 .76295061-.72908777.76295061-.72908777l.76299368.72908777.76295062-.72908777.76299367.72908777"/></g><path d="m18.1468405 18.590187c0 1.0136755-.4072548 1.8354401-.9096699 1.8354401-.5023722 0-.9096698-.8217646-.9096698-1.8354401s.4072548-1.8354401.9096698-1.8354401c.5023723 0 .9096699.8217646.9096699 1.8354401z" fill="#a77b3b" fill-rule="evenodd" stroke="#000" stroke-width=".1" transform="matrix(.92307735 .38461435 -.38461435 .92307735 8.475982 -5.199657)"/><path d="m15.5074375 10.97425h9.1558125v4.3744375h-9.1558125z" fill="#f00" fill-rule="evenodd"/><path d="m15.5074375 15.34875h9.1558125v2.18725c0 1.458125-2.2889375 1.458125-4.577875 2.91625-2.289-1.458125-4.5779375-1.458125-4.5779375-2.91625z" fill="#564dff" fill-rule="evenodd"/><path d="m15.5073825 10.9742297h9.1557519v6.5616664c0 1.4581344-2.288938 1.4581344-4.5778759 2.9162688-2.2888949-1.4581344-4.577876-1.4581344-4.577876-2.9162688z" fill="none" stroke="#ff0" stroke-width=".1"/><path d="m18.40678 11.2658239s-1.5259428 1.0714093-1.5259428 2.0984914c0 1.0270048 1.602243 1.3693526 1.602243 1.3693526s-.5341011 0-.5341011 1.3693526c0 .6846763 1.6022732.3423478 1.6022732.6846763 0 .3423478-.0226399 1.1705562 0 1.7117003 0 .3423285-1.0681721 0-1.0681721.3423285 0 .1711836.8011366 1.0270241 1.6022732 1.0270241.8011064 0 1.602243-.8558405 1.602243-1.0270241 0-.3423285-1.0681721 0-1.0681721-.3423285v-1.7117003c0-.3423285 1.6022732 0 1.6022732-.6846763 0-1.3693526-.5341011-1.3693526-.5341011-1.3693526s1.6022732-.3423478 1.6022732-1.3693526-1.525973-2.0984914-1.525973-2.0984914c0-.0000193.8583542 1.4137378.8583542 2.0984914 0 .3423478-.4005533 1.0270048-1.4687253 1.0270048 0 0-.2701406-.3423285-.5341012 0 0 0-.3071601-.3423285-.5340709 0-.07832.1181609-.217264-.3423285-.5341011 0-.134603.0907607-.2406877-.3423285-.5341011 0-.534071 0-1.6022129-.3423285-1.6022431-1.0270048 0-.6846763.9918719-2.0984914.9918719-2.0984914z" fill="#ff0" fill-rule="evenodd" stroke="#000" stroke-width=".1"/><path d="m18.4340545 17.3920897c-.1068082.0684618.1380999 1.1840052.2136464 1.2324096.1068082.0684618.7477175.0684618.8545256 0 .0761193-.0487909 0-1.0954859-.1068081-1.1639478-.1068082-.0684811-.8858174-.1168856-.9613639-.0684618z" fill="#ff0" fill-rule="evenodd" stroke="#000" stroke-width=".1"/><path d="m20.6645864 17.3920897c-.1068082.0684618.1380999 1.1840052.2136464 1.2324096.1068082.0684618.7477175.0684618.8545256 0 .0761193-.0487909 0-1.0954859-.1068081-1.1639478-.1068082-.0684811-.8858174-.1168856-.9613639-.0684618z" fill="#ff0" fill-rule="evenodd" stroke="#000" stroke-width=".1" transform="matrix(-1 0 0 1 42.401594 0)"/><path d="m19.5329755 16.9881804c0 .2121256-.2473664.3840951-.5524942.3840951-.3051279 0-.5524943-.1719695-.5524943-.3840951 0-.2121255.2473664-.3840951.5524943-.3840951.3051278 0 .5524942.1719696.5524942.3840951z" fill="#ff0" fill-rule="evenodd" stroke="#000" stroke-width=".1"/><path d="m21.7429846 16.9883233c0 .212131-.2473708.384105-.5525042.384105s-.5525042-.171974-.5525042-.384105c0-.2121311.2473708-.3841051.5525042-.3841051s.5525042.171974.5525042.3841051z" fill="#ff0" fill-rule="evenodd" stroke="#000" stroke-width=".1"/><path d="m21.0470625 19.218625c0 .0945625-.1195625.1711875-.2670625.1711875s-.267-.076625-.267-.1711875.1195625-.1711875.267-.1711875c.1475 0 .2670625.076625.2670625.1711875zm-1.388875 0c0 .0945625-.1195625.1711875-.2670625.1711875s-.267-.076625-.267-.1711875.1195625-.1711875.267-.1711875c.1475 0 .2670625.076625.2670625.1711875z" fill="#000" fill-rule="nonzero"/><g stroke="#000"><path d="m20.0855302 13.7447569-.3268816-.4119198-.5365395.0702593.0739475-.5122901-.4310803-.3123524.4310803-.3127539-.0739475-.5122901.5365395.0706607.3268816-.4123212.3268815.4123212.5365396-.0706607-.0739475.5122901.4310803.3127539-.4310803.3123524.0739475.5122901-.5365396-.0702593z" fill="#ff0" fill-rule="evenodd" stroke-width=".1"/><path d="m22.3741339 15.348674.9155752.4374444.9155752-.4374444-.9155752-.4374444z" fill="#ff0" fill-rule="evenodd" stroke-width=".1"/><path d="m15.8126339 15.348674.9155752.4374444.9155752-.4374444-.9155752-.4374444z" fill="#ff0" fill-rule="evenodd" stroke-width=".1"/><path d="m23.6784809 18.4585439c-.1509289-.2950244-.6037581-.4425782-.9056158-.4425782-.3019003 0-.6038007 0-.9056584.4425782 0-.5900904.4473765-.8851564.9056584-.8851564.4581967 0 .9056158.4372906.9056158.8851564z" fill="#ff0" fill-rule="evenodd" stroke-width=".1" transform="matrix(.86716942 -.49801326 .49801326 .86716942 -5.94726 13.73425)"/><path d="m17.4912432 17.0985379c.0013055.1050123-.0565752.2025859-.1515361.2554555-.094961.0528696-.2123359.0528696-.3072969 0s-.1528416-.1504432-.1515361-.2554555c.0019854-.1597076.138038-.288179.3051845-.288179.1671466 0 .3031991.1284714.3051846.288179z" fill="#ff0" fill-rule="evenodd" stroke-width=".1"/><path d="m17.1859932 18.1192879c.0013055.1050123-.0565752.2025859-.1515361.2554555-.094961.0528696-.2123359.0528696-.3072969 0s-.1528416-.1504432-.1515361-.2554555c.0019854-.1597076.138038-.288179.3051845-.288179.1671466 0 .3031991.1284714.3051846.288179z" fill="#ff0" fill-rule="evenodd" stroke-width=".1"/><path d="m17.0334307 17.5360379c.0013055.1050123-.0565752.2025859-.1515361.2554555-.094961.0528696-.2123359.0528696-.3072969 0s-.1528416-.1504432-.1515361-.2554555c.0019854-.1597076.138038-.288179.3051845-.288179.1671466 0 .3031991.1284714.3051846.288179z" fill="#ff0" fill-rule="evenodd" stroke-width=".1"/><path d="m17.7964307 18.1192879c.0013055.1050123-.0565752.2025859-.1515361.2554555-.094961.0528696-.2123359.0528696-.3072969 0s-.1528416-.1504432-.1515361-.2554555c.0019854-.1597076.138038-.288179.3051845-.288179.1671466 0 .3031991.1284714.3051846.288179z" fill="#ff0" fill-rule="evenodd" stroke-width=".1"/><path d="m17.9490557 17.5360379c.0013055.1050123-.0565752.2025859-.1515361.2554555-.094961.0528696-.2123359.0528696-.3072969 0s-.1528416-.1504432-.1515361-.2554555c.0019854-.1597076.138038-.288179.3051845-.288179.1671466 0 .3031991.1284714.3051846.288179z" fill="#ff0" fill-rule="evenodd" stroke-width=".1"/><path d="m17.4912432 17.6818504c.0013055.1050123-.0565752.2025859-.1515361.2554555-.094961.0528696-.2123359.0528696-.3072969 0s-.1528416-.1504432-.1515361-.2554555c.0019854-.1597076.138038-.288179.3051845-.288179.1671466 0 .3031991.1284714.3051846.288179z" fill="#ff0" fill-rule="evenodd" stroke-width=".1"/></g><g fill="none" fill-rule="nonzero" transform="translate(16.5625 5.125)"><path d="m2.048375 2.39875c-.7701875 0-.872.1215625-1.2208125.243125 0-.335375.857625-.729125 1.62775-.729125 0 .2430625-.2035.486125-.4069375.4860625z" fill="#da4500"/><path d="m3.21775 1.62075c0 .1610625-.136625.291625-.3051875.291625s-.3051875-.1305625-.3051875-.291625.136625-.291625.3051875-.291625.3051875.130625.3051875.291625z" fill="#cac9c7"/><path d="m.01327819.59989651v.43744443h.76299368v2.18722215h.45778759v-2.18722215h.76295061v-.43744443h-.76295061v-.58324553h-.45778759v.58324553z" fill="#ff0" stroke="#000" stroke-width=".1"/><path d="m2.4539375 1.9129375c-.8984375 0-1.4241875.080875-1.831125.2429375 0-.4471875.52575-.9720625 1.4241875-.9720625.2034375 0 .406875.486.406875.729125z" fill="#da4500"/></g><g fill="none" fill-rule="nonzero" stroke="#000" stroke-width=".1" transform="translate(8.375 13)"><path d="m.83606506 4.06294269c-.43272375-.24404718-.50786191-.36787916.10817331-.17395035l8.66332922 4.26264469-.10276922.12000852-8.6688249-4.20873731z" fill="#008500" transform="matrix(.94013306 .34080762 -.34080762 .94013306 2.358425 -1.360662)"/><g fill="#008f00"><path d="m5.899875 7.6503125c.048125-.6615625-1.163125-1.37725-1.2110625-1.33075s.073625.4316875.303375.6324375c-.439875-.226625-.900625-.3661875-.91025-.2678125-.035875.132625.6835625.449375.7433125.57175.00975.0874375-.528375.076-.5185625.1634375.00975.0875 1.515625.8483125 1.593125.230875zm-1.2101875-1.9271875c.0480625-.6615-1.1631875-1.3771875-1.211125-1.330625-.0479375.0464375.073625.431625.303375.6323125-.439875-.2265625-.900625-.366125-.91025-.26775-.035875.132625.683625.449375.7433125.5716875.00975.0875-.5283125.0760625-.5185625.1635s1.515625.8483125 1.5931875.230875zm-.926125-1.74975c.048125-.6615625-1.1631875-1.3771875-1.2110625-1.3306875-.0479375.0464375.073625.431625.3033125.632375-.439875-.226625-.9005625-.3661875-.9101875-.2678125-.035875.1326875.6835625.449375.7433125.57175.00975.0874375-.528375.076-.518625.1634375.0098125.0875 1.515625.8483125 1.59325.2309375zm-.9155625-1.895875c.0480625-.6615625-1.1631875-1.3771875-1.211125-1.3306875-.0479375.0464375.0736875.431625.303375.632375-.439875-.226625-.900625-.3661875-.91025-.2678125-.035875.1326875.683625.449375.743375.57175.00975.0874375-.528375.076-.518625.1634375.00975.0875 1.515625.8483125 1.5931875.2309375z"/><path d="m3.1626875 1.991625c.5860625-.355125.47125-1.7115625.40375-1.7208125-.067625-.009375-.32025.3125-.35325.6083125-.06975-.4728125-.2251875-.910125-.313875-.85925-.1330625.051.0264375.7925-.04125.9109375-.0679375.059375-.37725-.3615-.4451875-.3021875-.067875.059375.1834375 1.6693125.7498125 1.363zm.848875 1.6644375c.6765625-.1478125 1.04225-1.463.9818125-1.4933125-.0604375-.030375-.411.1925-.5455.46075.0995-.4679375.10575-.92975.004375-.9100625-.1431875.005625-.251875.7554375-.357125.8455-.08475.0343125-.2293125-.461125-.3140625-.426875-.08475.0343125-.4103125 1.632.2305625 1.524zm1.0140625 1.702625c.617-.3035625.629875-1.664375.5634375-1.679375-.0664375-.0150625-.348125.283875-.40875.575625-.0251875-.476875-.139-.92575-.2320625-.882625-.1373125.039375-.0479375.7915625-.1265.90375-.0731875.0533125-.341875-.392375-.415-.339125-.07325.0533125.026125 1.6783125.618875 1.4216875zm1.097625 2.223c.646-.242375.8028125-1.5949375.7383125-1.6163125-.0645-.0214375-.3764375.24875-.467625.533125.0255-.476875-.04025-.934375-.137375-.9005-.1408125.0259375-.1315625.782875-.2215625.886875-.0784375.0459375-.2985-.4234375-.377-.3775-.0784375.046-.151625 1.67225.46525 1.47425z"/></g></g><path d="m16.0349204 22.4382269c0 .3257607-.4394869.5898067-.9815576.5898067-.5421133 0-.9815575-.2640876-.9815575-.5898067 0-.3257607.4394869-.5898067.9815575-.5898067.5421134 0 .9815576.2640876.9815576.5898067z" fill="#ff1900" fill-rule="evenodd" stroke="#000" stroke-width=".1" transform="matrix(.87313536 .48747784 -.48747784 .87313536 12.847878 -4.491563)"/><g fill="#ff0" fill-rule="evenodd" stroke="#000" stroke-width=".1" transform="translate(24.5625 13.0625)"><path d="m3.74632146.54773268v-.22387695h.23163323v-.22384536h.23166592v.22384536h.23163323v.22387695h-.23163323v.559645h-.23166592v-.559645z" transform="matrix(.93907025 .34372527 -.34372527 .93907025 .456938 -1.370355)"/><path d="m2.13791855 2.10636979h.23166592v6.49202096h-.23166592z" transform="matrix(.93969262 .34202014 -.34202014 .93969262 1.974631 -.493928)"/><path d="m1.92105908 8.46771525h.46329914v1.79092085h-.46329914zm-.11571855-7.49941986h.69493238c.46333184 0-.11581662 1.23124426-.11581662 1.23124426h-.46329915s-.57914845-1.23124426-.11581661-1.23124426z" transform="matrix(.93907025 .34372527 -.34372527 .93907025 2.06066 -.397947)"/><path d="m4.12303777 1.12555568c0 .09271608-.10372174.16789982-.23166592.16789982s-.23163323-.07518374-.23163323-.16789982.10372174-.16789982.23163323-.16789982.23166592.07518374.23166592.16789982z" transform="matrix(.93907025 .34372527 -.34372527 .93907025 .653321 -1.270294)"/></g><path d="m25.9697334 22.6594786c0 .3267777-.4381756.5916479-.978629.5916479-.5404959 0-.978629-.264912-.978629-.5916479 0-.3267777.4381756-.5916479.978629-.5916479.5404959 0 .978629.264912.978629.5916479z" fill="#ff1900" fill-rule="evenodd" stroke="#000" stroke-width=".1" transform="matrix(.83372992 -.55217246 .55217246 .83372992 -8.356667 17.566993)"/></g></g></g></svg>