<svg height="48" viewBox="0 0 48 48" width="48" xmlns="http://www.w3.org/2000/svg" xmlns:xlink="http://www.w3.org/1999/xlink"><defs><path id="a" d="m8 9h32c2.209139 0 4 1.790861 4 4v22c0 2.209139-1.790861 4-4 4h-32c-2.209139 0-4-1.790861-4-4v-22c0-2.209139 1.790861-4 4-4z"/><mask id="b" fill="#fff"><use fill="#fff" fill-rule="evenodd" xlink:href="#a"/></mask></defs><g fill="none" fill-rule="evenodd"><path d="m0 0h48v48h-48z"/><use fill="#d8d8d8" xlink:href="#a"/><g mask="url(#b)"><g transform="translate(4 9)"><path d="m0 0h40v30h-40z" fill="#d20000" fill-rule="nonzero"/><path d="m0 0h6l14 14.464375 14-14.464375h6l-40 30h6l14-14.464375 14 14.464375h6zm40 12v6l-40-6v6zm-22.5-12 2.5 12.857125 2.5-12.857125zm0 30 2.5-12.857125 2.5 12.857125z" fill="#ffe600" fill-rule="nonzero"/><g fill-rule="evenodd"><circle cx="20.03125" cy="15.03125" fill="#d20000" r="5.46875"/><circle cx="20" cy="15" fill="#ffe600" r="4.375"/></g></g></g></g></svg>