<svg height="48" viewBox="0 0 48 48" width="48" xmlns="http://www.w3.org/2000/svg" xmlns:xlink="http://www.w3.org/1999/xlink"><defs><path id="a" d="m8 9h32c2.209139 0 4 1.790861 4 4v22c0 2.209139-1.790861 4-4 4h-32c-2.209139 0-4-1.790861-4-4v-22c0-2.209139 1.790861-4 4-4z"/><mask id="b" fill="#fff"><use fill="#fff" fill-rule="evenodd" xlink:href="#a"/></mask></defs><g fill="none" fill-rule="evenodd"><path d="m0 0h48v48h-48z"/><use fill="#d8d8d8" xlink:href="#a"/><g mask="url(#b)"><g transform="translate(4 9)"><g fill-rule="nonzero"><path d="m0 0h40v10h-40z" fill="#fecb00"/><path d="m0 20h40v10h-40z" fill="#ea2839"/><path d="m0 10h40v10h-40z" fill="#34b233"/></g><path d="m20 5-2.5 7.6875h-7.9375l6.4375 4.625-2.5 7.6875 6.5-4.75 6.5 4.75-2.5-7.6875 6.5-4.625h-7.9375z" fill="#fff" fill-rule="evenodd"/></g></g></g></svg>