<svg height="48" viewBox="0 0 48 48" width="48" xmlns="http://www.w3.org/2000/svg" xmlns:xlink="http://www.w3.org/1999/xlink"><defs><path id="a" d="m8 9h32c2.209139 0 4 1.790861 4 4v22c0 2.209139-1.790861 4-4 4h-32c-2.209139 0-4-1.790861-4-4v-22c0-2.209139 1.790861-4 4-4z"/><mask id="b" fill="#fff"><use fill="#fff" fill-rule="evenodd" xlink:href="#a"/></mask></defs><g fill="none" fill-rule="evenodd"><path d="m0 0h48v48h-48z"/><use fill="#d8d8d8" xlink:href="#a"/><g mask="url(#b)"><g transform="translate(4 9)"><g fill-rule="nonzero"><path d="m0 0h40v30h-40z" fill="#c4272f"/><path d="m13.3948125 0h13.3354375v30h-13.3354375z" fill="#015197"/><circle cx="6.75" cy="11.816" fill="#f9cf02" r="2.1875"/><circle cx="6.75" cy="10.821688" fill="#c4272f" r="2.386375"/></g><path d="m5.7570625 8.2378125c0 .548375.4445625.9929375.9929375.9929375s.9929375-.4445625.9929375-.9929375c0-.3971875-.24825-.446875-.24825-.59575 0-.1489375.1489375-.3475-.1489375-.5958125.1489375.24825-.09925.2979375-.09925.546125 0 .24825.09925.24825.09925.446875 0 .1096803-.08891345.19859375-.19859375.19859375s-.19859375-.08891345-.19859375-.19859375c0-.198625.198625-.3971875.198625-.6950625 0-.2979375-.0496875-.3971875-.198625-.6454375s-.397125-.446875-.1985625-.6454375c-.297875.099375-.1489375.4965-.1489375.74475 0 .2481875-.1985625.3971875-.1985625.695 0 .2979375.1489375.3475625.1489375.5461875 0 .1096803-.08891345.19859375-.19859375.19859375s-.19859375-.08891345-.19859375-.19859375c0-.198625.09925-.198625.09925-.446875 0-.2481875-.2481875-.297875-.09925-.546125-.297875.24825-.1489375.446875-.1489375.5958125s-.24825.1985625-.24825.59575z" fill="#f9cf02" fill-rule="evenodd"/><circle cx="6.75" cy="11.219375" fill="#f9cf02" fill-rule="nonzero" r="1.590938"/><path d="m2.375 14.4011875v9.5455h1.988625v-9.5455zm6.761375 0v9.5455h1.988625v-9.5455zm-4.375 1.5909375v.795375h3.97725v-.7954375zm0 5.568125v.7955h3.97725v-.7954375zm0-7.1590625h3.97725l-1.988625 1.1931875zm0 8.3523125h3.97725l-1.988625 1.193125z" fill="#f9cf02" fill-rule="nonzero"/><circle cx="6.75" cy="19.173938" fill="#f9cf02" fill-rule="nonzero" r="2.107938" stroke="#c4272f" stroke-width=".5"/><path d="m6.75 17.066c.57892385.0044581 1.04588372.4750277 1.04588372 1.0539687 0 .5789411-.46695987 1.0495107-1.04588372 1.0539688-.37848051-.0029146-.72946472.1973309-.91955132.5246275-.19008661.3272966-.19008661.7313859 0 1.0586825.1900866.3272966.54107081.5275421.91955132.5246275" fill="none" stroke="#c4272f" stroke-width=".5"/><circle cx="6.75" cy="18.119938" fill="#c4272f" fill-rule="nonzero" r="1"/><circle cx="6.75" cy="20.227938" fill="#c4272f" fill-rule="nonzero" r="1"/></g></g></g></svg>