<svg height="48" viewBox="0 0 48 48" width="48" xmlns="http://www.w3.org/2000/svg" xmlns:xlink="http://www.w3.org/1999/xlink"><defs><path id="a" d="m8 9h32c2.209139 0 4 1.790861 4 4v22c0 2.209139-1.790861 4-4 4h-32c-2.209139 0-4-1.790861-4-4v-22c0-2.209139 1.790861-4 4-4z"/><mask id="b" fill="#fff"><use fill="#fff" fill-rule="evenodd" xlink:href="#a"/></mask></defs><g fill="none" fill-rule="evenodd"><path d="m0 0h48v48h-48z"/><use fill="#d8d8d8" xlink:href="#a"/><g mask="url(#b)"><g fill-rule="nonzero" transform="translate(4 9)"><path d="m0 0h40v30h-40z" fill="#00785e"/><path d="m18.4321875 6.7954375 2.5365625 1.8426875-.96875-2.981875-.96875 2.981875 2.5365625-1.8426875z" fill="#fbd116"/><g fill="none"><g transform="translate(12.375 7.625)"><path d="m7.625 13.1015625h-6.4048125c-.08083591-.0818304-.16012085-.1651786-.2378125-.25h6.642625c.05082345.0179137.0859325.0645779.0890625.118375.002875.0575-.0333125.1114375-.0890625.1315625zm0-1.9585c.0371875-.076.1095625-.251875.0766875-.471875-.01248739-.0830068-.0383878-.163431-.0766875-.238125-.359375.34-1.0346875.885-2.0308125 1.186375-.47643537.1439376-.97148428.2168671-1.4691875.2164375h-3.9458125c.11615873.1708032.23814725.3375681.36575.5h3.814375c1.24375 0 2.383125-.44875 3.265625-1.1928125zm-6.849625-1.5435c-.194012.07470296-.39840311.1189754-.6059375.13125.929375 1.051125 2.28725 1.714375 3.799375 1.714375 1.43625 0 2.7335-.59825 3.65625-1.5590625.17691613-1.21951746.27183749-2.44952796.284125-3.68175.01401963-1.41499551-.08096964-2.82896908-.284125-4.229375-.4121875.369375-1.184375 1.16775-1.5484375 2.3916875-.13927034.46922814-.20979513.95616499-.209375 1.445625 0 1.0425.315125 2.01175.8554375 2.817875-.6635-.8570625-1.058625-1.932125-1.058625-3.099125 0-.7751875.174375-1.5098125.485875-2.1670625-.21806301-.23005961-.37923854-.50797502-.470625-.8115-.4175.736625-.655875 1.5875-.655875 2.4941875 0 1.127625.36875 2.169375.9921875 3.0116875-1.085625-1.138125-2.6166875-1.847625-4.3125-1.847625-.091125 0-.181875.0023125-.2720625.00625.17153922.15980125.31425309.34797214.421875.55625 1.687.0025 3.21.7075 4.293125 1.8375-1.034375-.8640625-2.3658125-1.384375-3.817875-1.384375-.8114375 0-1.5851875.1625-2.2904375.4565625.7246875 1.914875 2.575875 3.2778125 4.743625 3.2778125.1405 0 .279625-.00625.4170625-.0175-.2925.0525-.59375.08-.90125.08-1.367875 0-2.609375-.5425-3.5216875-1.42375zm6.849625 5.5488125h-3.319375c1.0273125.4083125 2.1471875.6328125 3.319375.6328125.0501967-.095609.07697285-.201771.078125-.30975.00097076-.1124991-.02586595-.2234958-.078125-.323125zm0-1.53125h-5.8520625c.15833339.1358417.32134882.2661289.48875.390625h5.3633125c.0134375-.01375.0795625-.08425.0795625-.1953125 0-.111125-.066125-.181625-.0795625-.1953125zm0 .78125h-4.7934375c.29111998.1838446.59257645.3507871.902875.5h3.8905625c.04933233-.078359.07454392-.1694902.0725-.2620625-.00241294-.0843364-.0274534-.1664734-.0725-.2378125z" fill="#fff"/><path d="m.15525 3.297875 1.5865 1.479375-.4140625-2.129375-.9165 1.966375 1.896875-1.05225zm2.3056875-2.0005625 2.169375.0376875-1.7328125-1.30525.63425 2.07475.7065-2.05175z" fill="#fbd116"/></g><g transform="matrix(-1 0 0 1 27.625 7.625)"><path d="m7.625 13.1015625h-6.4048125c-.08083591-.0818304-.16012085-.1651786-.2378125-.25h6.642625c.05082345.0179137.0859325.0645779.0890625.118375.002875.0575-.0333125.1114375-.0890625.1315625zm0-1.9585c.0371875-.076.1095625-.251875.0766875-.471875-.01248739-.0830068-.0383878-.163431-.0766875-.238125-.359375.34-1.0346875.885-2.0308125 1.186375-.47643537.1439376-.97148428.2168671-1.4691875.2164375h-3.9458125c.11615873.1708032.23814725.3375681.36575.5h3.814375c1.24375 0 2.383125-.44875 3.265625-1.1928125zm-6.849625-1.5435c-.194012.07470296-.39840311.1189754-.6059375.13125.929375 1.051125 2.28725 1.714375 3.799375 1.714375 1.43625 0 2.7335-.59825 3.65625-1.5590625.17691613-1.21951746.27183749-2.44952796.284125-3.68175.01401963-1.41499551-.08096964-2.82896908-.284125-4.229375-.4121875.369375-1.184375 1.16775-1.5484375 2.3916875-.13927034.46922814-.20979513.95616499-.209375 1.445625 0 1.0425.315125 2.01175.8554375 2.817875-.6635-.8570625-1.058625-1.932125-1.058625-3.099125 0-.7751875.174375-1.5098125.485875-2.1670625-.21806301-.23005961-.37923854-.50797502-.470625-.8115-.4175.736625-.655875 1.5875-.655875 2.4941875 0 1.127625.36875 2.169375.9921875 3.0116875-1.085625-1.138125-2.6166875-1.847625-4.3125-1.847625-.091125 0-.181875.0023125-.2720625.00625.17153922.15980125.31425309.34797214.421875.55625 1.687.0025 3.21.7075 4.293125 1.8375-1.034375-.8640625-2.3658125-1.384375-3.817875-1.384375-.8114375 0-1.5851875.1625-2.2904375.4565625.7246875 1.914875 2.575875 3.2778125 4.743625 3.2778125.1405 0 .279625-.00625.4170625-.0175-.2925.0525-.59375.08-.90125.08-1.367875 0-2.609375-.5425-3.5216875-1.42375zm6.849625 5.5488125h-3.319375c1.0273125.4083125 2.1471875.6328125 3.319375.6328125.0501967-.095609.07697285-.201771.078125-.30975.00097076-.1124991-.02586595-.2234958-.078125-.323125zm0-1.53125h-5.8520625c.15833339.1358417.32134882.2661289.48875.390625h5.3633125c.0134375-.01375.0795625-.08425.0795625-.1953125 0-.111125-.066125-.181625-.0795625-.1953125zm0 .78125h-4.7934375c.29111998.1838446.59257645.3507871.902875.5h3.8905625c.04933233-.078359.07454392-.1694902.0725-.2620625-.00241294-.0843364-.0274534-.1664734-.0725-.2378125z" fill="#fff"/><path d="m.15525 3.297875 1.5865 1.479375-.4140625-2.129375-.9165 1.966375 1.896875-1.05225zm2.3056875-2.0005625 2.169375.0376875-1.7328125-1.30525.63425 2.07475.7065-2.05175z" fill="#fbd116"/></g></g></g></g></g></svg>