<svg height="48" viewBox="0 0 48 48" width="48" xmlns="http://www.w3.org/2000/svg" xmlns:xlink="http://www.w3.org/1999/xlink"><defs><path id="a" d="m8 9h32c2.209139 0 4 1.790861 4 4v22c0 2.209139-1.790861 4-4 4h-32c-2.209139 0-4-1.790861-4-4v-22c0-2.209139 1.790861-4 4-4z"/><mask id="b" fill="#fff"><use fill="#fff" fill-rule="evenodd" xlink:href="#a"/></mask></defs><g fill="none" fill-rule="evenodd"><path d="m0 0h48v48h-48z"/><use fill="#d8d8d8" xlink:href="#a"/><g mask="url(#b)"><g transform="translate(4 9)"><path d="m0 0h20v30h-20z" fill="#fff" fill-rule="nonzero"/><path d="m4 .5c-1.93299662 0-3.5 1.56700338-3.5 3.5v22c0 1.9329966 1.56700338 3.5 3.5 3.5h32c1.9329966 0 3.5-1.5670034 3.5-3.5v-22c0-1.93299662-1.5670034-3.5-3.5-3.5z" stroke="#dedede"/><path d="m20 0h20v30h-20z" fill="#ce0000" fill-rule="nonzero"/><g transform="translate(3.22275 3.1736)"><path d="m6.56728647 5.80533483c0 .13813096-.11200585.25-.25.25-.13799414 0-.25-.11186904-.25-.25 0-.13813097.11200586-.25.25-.25.13799415 0 .25.11186903.25.25z" fill="#f1eeee"/><path d="m.07263639 4.99362675v3.71764421h3.71784403c0 .6194575.61965733 1.23911483 1.23931465 1.23911483v3.71744441h3.7175443v-3.71744441c.61965733 0 1.23931465-.61965733 1.23931465-1.23911483h3.71784408v-3.71764421h-3.71784408c0-.6194575-.61965732-1.23911482-1.23931465-1.23911482v-3.71744439h-3.7175443v3.71744439c-.61965732 0-1.23931465.61965732-1.23931465 1.23911482z" fill="#c00"/><path d="m.19672771 5.11751825v3.46966139h3.71784404c0 .6194575.6194575 1.23931465 1.23911483 1.23931465v3.71744441h3.46996112v-3.71744441c.61965732 0 1.23911482-.61985715 1.23911482-1.23931465h3.71784408v-3.46966139h-3.71784408c0-.6194575-.6194575-1.23931465-1.23911482-1.23931465v-3.71744439h-3.46996113v3.71744439c-.61965732 0-1.23911482.61985715-1.23911482 1.23931465z" fill="#ffe600"/><path d="m.32061921 5.24140975v3.22207821h3.7175443c0 .6194575.61965733 1.23911483 1.23931465 1.23911483v3.71744441h3.2219783v-3.71744441c.61965733 0 1.23931465-.61965733 1.23931465-1.23911483h3.71754429v-3.22207821h-3.71754429c0-.6194575-.61965732-1.23911482-1.23931465-1.23911482v-3.71744439h-3.2219783v3.71744439c-.61965732 0-1.23931465.61965732-1.23931465 1.23911482z" fill="#707070"/><path d="m.44461063 5.36530125v2.97399548h3.7175443c0 .61945749.61965732 1.23931464 1.23931465 1.23931464v3.71744443h2.97409538v-3.71744443c.61965733 0 1.23931465-.61985715 1.23931465-1.23931464h3.71754429v-2.97399548h-3.71754429c0-.6194575-.61965732-1.23911482-1.23931465-1.23911482v-3.71744439h-2.97409538v3.71744439c-.61965733 0-1.23931465.61965732-1.23931465 1.23911482z" fill="#a0a0a0"/><g fill-rule="nonzero"><g transform="translate(3.696763 3.696763)"><path d="m1.73548013.12219299c.21770933.21780925.04116395.7473455-.39435464 1.182964s-.96515475.61196406-1.182964.39425472c-.21780925-.21780925-.04126386-.7473455.39425472-1.182964.43551859-.4356185.96515475-.61206397 1.182964-.39425472z" fill="#d0d0d0"/><path d="m1.47271025.38486295c.21780925.21780925.15886087.62974849-.13148485.92009421-.29034573.29034573-.70238487.34919419-.92009421.13138494-.21780925-.21780925-.15886088-.62964857.13148485-.9199943.29034572-.29034572.70228496-.34919419.92009421-.13148485z" fill="#808080"/><path d="m.37706978 1.04198746.08762326-.08762326.35049305.17524653-.17524653-.35049305.08762327-.08762327.35049304.7009861zm.52583948-.52573957.08762327-.08762326.52583948.52573957-.08762326.08762326z" fill="#d0d0d0"/></g><g transform="translate(8.192825 3.696763)"><path d="m1.72928555 1.69941171c-.21780925.21780925-.74744541.04116395-1.182964-.39435463-.43551859-.43551859-.61216389-.96515475-.39435464-1.182964.21780925-.21770934.7473455-.04116395 1.182964.39435463.4356185.43551859.61206398.96515475.39435464 1.182964z" fill="#d0d0d0"/><path d="m1.46651568 1.43674175c-.21780926.21770934-.62974849.15886087-.92009422-.13148485-.29034572-.29034573-.34919418-.70238487-.13138493-.92009421.21780925-.21780925.62964857-.15886088.92009421.13148485.29044564.29034572.34919419.70228496.13138494.9199943z" fill="#808080"/><path d="m.80939116.34110128.08762327.08762326-.17524653.35049305.35049305-.17524653.08762326.08762327-.7009861.35049304zm.52573958.52583948.08762326.08762327-.52573957.52573957-.08762327-.08762326z" fill="#d0d0d0"/></g><g transform="translate(8.192825 8.192825)"><path d="m.151867 1.69321714c-.21770934-.21780925-.04116395-.7473455.39435464-1.182964s.96515475-.61196407 1.182964-.39425473c.21780925.21780925.04126386.7473455-.39425473 1.182964-.43551858.4356185-.96515475.61206398-1.182964.39425473z" fill="#d0d0d0"/><path d="m.41463688 1.43054717c-.21780925-.21780925-.15886088-.62974848.13148485-.92009421.29034572-.29034572.70238487-.34919418.92009421-.13138493.21780925.21780925.15886087.62964857-.13148485.91999429-.29034573.29034573-.70228496.34919419-.92009421.13148485z" fill="#808080"/><path d="m1.51027735.77342266-.08762326.08762327-.35049305-.17524653.17524652.35049305-.08762326.08762326-.35049305-.7009861zm-.52583949.52573958-.08762326.08762326-.52583949-.52573957.08762327-.08762327z" fill="#d0d0d0"/></g><g transform="translate(3.696763 8.192825)"><path d="m.15836131.11559876c.21780925-.21780925.74744542-.04116395 1.182964.39435464.43551859.43551859.61216389.96515475.39435464 1.182964-.21780925.21770934-.7473455.04116395-1.182964-.39435464-.4356185-.43551858-.61206398-.96515475-.39435464-1.182964z" fill="#d0d0d0"/><path d="m.42113119.37836864c.21780925-.21780925.62974848-.15886088.92009421.13138493.29034572.29024582.34919419.70238488.13138494.92009422-.21780925.21780925-.62964858.15886087-.92009421-.13148485-.29044564-.29034573-.34919419-.70228496-.13138494-.9199943z" fill="#808080"/><path d="m1.0782557 1.4739092-.08762326-.08762326.17524652-.35049305-.35049305.17524652-.08762326-.08762326.7009861-.35049305zm-.52573957-.52583949-.08762327-.08762326.52573958-.52573957.08762326.08762326z" fill="#d0d0d0"/></g></g><path d="m9.49108242 6.85249253c0 1.43718964-1.16513205 2.60225925-2.60242545 2.60225925-1.43729341 0-2.60242546-1.16506961-2.60242546-2.60225925s1.16513205-2.60225926 2.60242546-2.60225926c1.4372934 0 2.60242545 1.16506962 2.60242545 2.60225926z" stroke="#707070" stroke-width=".1"/><path d="m8.87133528 6.85246617c0 1.09500359-.88770992 1.98267726-1.9827786 1.98267726-1.09506867 0-1.9827786-.88767367-1.9827786-1.98267726s.88770993-1.98267726 1.9827786-1.98267726c1.09506868 0 1.9827786.88767367 1.9827786 1.98267726z" stroke="#707070" stroke-width=".1"/><path d="m6.02122681 8.95885414c0 .06845097-.05549048.12394145-.12394145.12394145-.06845098 0-.12394146-.05549048-.12394146-.12394145 0-.06842339.05546811-.1238915.1238915-.1238915s.1238915.05546811.1238915.1238915zm1.98276357 0c0 .06842338-.05546812.1238915-.12389151.1238915-.06842338 0-.1238915-.05546812-.1238915-.1238915 0-.06842339.05546812-.1238915.1238915-.1238915.06842339 0 .12389151.05546811.12389151.1238915zm-1.19795088.00029973v.12918687h-.16525527c-.16525528 0-.16525528.12918686 0 .12918686h.16525527v.12928678c.00059948.13388275.14417374.15006857.15476446.0103909l.01049082-.13967768h.16525527c.16515536 0 .16515536-.12918686 0-.12918686h-.16525527v-.12918686c0-.12918687-.16525528-.12918687-.16525528 0z" fill="#d0d0d0"/><path d="m6.27150762 7.12875687v.07323587s-.03886596.05605091-.28654905.07323586c-.247783.01718495-.28654905 0-.28654905 0 .00649432.063944.05465214.18503795.04096413.32971125.0095916.16835256-.04745844.32071912-.04745844.32071912.00649431.00889222-.02327961.01328837-.07533402.00889222.04096412-.03666789.03616832-.14267505.04096412-.29304337.00469589-.15046822-.15636306-.37686995-.12289237-.43951508.03347068-.06264514.73685468-.07323587.73685468-.07323587zm.983139-.26576725c.24098895-.01109028.64533484-.00869238.64533484-.00869238s.09531653.19123252.09141994.29684003c-.0039965.10570743-.0367678.19562868-.08182834.15066805-.04496062-.04496062.02088171-.03656797.02897463-.15066805.007993-.11410007-.07703254-.23229656-.07703254-.23229656s-.17284863.07543394-.43282095.06024724c-.25997233-.01528661-.14487313-.11160226-.17404758-.11609833z" fill="#d0d0d0" stroke="#707070" stroke-width=".1"/><path d="m7.33657487 7.05182425c.24098895-.01109029.39915044.02577743.39915044.02577743s.09531653.19133243.09141994.29693994c-.0039965.10560752-.0367678.19552877-.08182834.15056814-.04496062-.04496062.02098163-.03646806.02897463-.15056814.007993-.11410007-.07703254-.23239647-.07703254-.23239647s-.17284863.07553385-.43282095.06024724c-.25997233-.0151867-.18583725-.03077305-.2150117-.03526912-.02907454-.00449606-.03616833.071937-.42942393.08262764-.39335551.01069064-.5938799-.08262764-.5938799-.08262764s-.03896587.05605092-.28654905.07323587c-.247783.01718495-.28654905 0-.28654905 0 .0063944.063944.05465214.18503795.04096413.32971125.0095916.16835256-.04745844.32071912-.04745844.32071912.00649431.00889222-.02327961.01328837-.07543394.00889222.04096413-.03666789.03626824-.14267505.04096413-.29304337.00469589-.15046822-.15626315-.37686995-.12289238-.43951508.0335706-.06264514.2118145-.0039965.24578475-.03656798.03367052-.03257147-.15886087-.26187066-.12289237-.47618297.0359685-.21431232.24018965-.15386526.49126976-.14647173.2509802.00739353.80709318.07233665.94147549 0 .13438231-.07243656.07623324-.34040189.20472071-.51275095.08182834-.10990375.2046208-.14647172.32741326-.14647172.08192825 0 .20472072.29294345.20472072.36617931l-.04096413.03666789h-.04096412v.03656797c-.09341819.00939178-.10640682-.07993-.16375659-.14647172-.02457848.10320961.08192825.439615.08192825.65922267 0 .18313961-.07653298.26386891-.08132878.2509802z" fill="#d0d0d0" stroke="#707070" stroke-width=".1"/><path d="m6.54826525 6.7341025c.00339703.07293612-.31632297.23669271-.34240014.30143601-.02597725.06484321.08132878.1007118.04805792.13767943-.03317095.03696762-.06044707.02327961-.06724112.03017357-.00679405.00679405-.12029465-.25387766-.12029465-.25387766s.29993733-.13528153.2885473-.19363043c-.01139002-.05844881-.2214061-.09391775-.25967258-.24098895-.03826649-.1470712-.01698513-.43112243-.04805792-.49057037-.03107278-.05934803-.39915043-.11599841-.39955008-.20581975-.00029974-.08992125.37836863-.33640539.41933276-.37297336.04096412-.03666789.08192825.03656797.04096412.07323586-.04096412.03656797-.33740451.26306961-.33740451.2997375 0 .03656797.24558493.07323586.32741326.07323586.08192825 0 .12289238-.03666789.12289238-.07323586.00039965-.03167226-.08192825-.03666789-.08192825-.10990375s.04096412-.10990375.12279246-.10990375c.04096413 0 .11959526.04695887.12279246.10990375.0031972.06294487-.07283621.06834015-.08192825.10990375-.00899212.0415636.08192825.07323586.1638565.07323586.08182834 0 .3612836.21301345.40224773.24968134.04096412.03656797.08192825.03656797.04096412.07323586-.04096412.03656798-.01698512.07993-.05794925.04336203-.03476955-.03536903-.04096412-.07323587-.04096412-.07323587-.00349694-.03337077-.30343426-.18313961-.34439839-.14657163-.04096412.03666788 0 .47618297 0 .51275095 0 .07323586.08532528.07293612.08192825.18313961z" fill="#d0d0d0" stroke="#707070" stroke-width=".1"/><path d="m6.026722 5.88484625h.5v.51275095h-.5z" fill="#a7a7a7"/><path d="m5.31776764 6.46984106h2.86250049c.05509041 0 .09975.04465959.09975.09975 0 .0550904-.04465959.09975-.09975.09975h-2.86250049c-.0550904 0-.09975-.0446596-.09975-.09975 0-.05509041.0446596-.09975.09975-.09975z" fill="#808080" transform="matrix(.53202532 .84672844 -.84672844 .53202532 8.678904 -2.663465)"/><path d="m6.48540198 5.65671801c.00106935.09001774-.04634175.17365894-.12412603.21897933s-.17392823.04532039-.25171251 0-.12519538-.12896159-.12412603-.21897933c.00162632-.13690321.11306946-.24703038.24998229-.24703038s.24835596.11012717.24998228.24703038z" fill="#d0d0d0" stroke="#707070" stroke-width=".7993"/><path d="m7.5813605 6.17781475c0 .152-.19003358.33-.40934151.33-.21930794 0-.40934152-.178-.40934152-.33s.19003358.22.40934152.22c.21930793 0 .40934151-.372.40934151-.22z" fill="#808080"/><path d="m6.06768612 6.39739738h.5v.5h-.5z" fill="#a7a7a7"/><path d="m7.47194089 6.07296871c-.07398649.09225437-.1442457.15809721-.15673209.14706141-.01267275-.01103581.03708643-.09473433.11107292-.18698871.07398649-.09225437.1442457-.15809721.15691845-.14706141.01267275.01103581-.03727279.09473433-.11125928.18698871zm.1928867.23881979c-.08423651.04922713-.15468209.08109457-.15691846.07117475-.00242273-.00991983.06410921-.05778299.14834571-.10701012.08442288-.04922713.15468209-.08109457.15691846-.07117474.00242273.00991982-.06392284.05778298-.14834571.10701011z" fill="#808080"/><path d="m7.44987565 6.15035378c.03327086.06879945.05525161.12715409.04905704.13010588-.00619458.00306532-.03826649-.05029398-.07163727-.11920696-.03337077-.06891297-.05525161-.12715409-.04905703-.13021941.00619457-.00306532.03826648.05040751.07163726.11920696zm-.031972.35977796c0 .01135304-.12828765.02077607-.28654905.02077607s-.28644914-.0093095-.28644914-.02077607c0-.0115801.12828765-.0208896.28644914-.0208896.1582614 0 .28654905.0093095.28654905.0208896zm-.94117575-.0417792c0 .0115801-.09171968.0208896-.20472071.0208896-.11300104 0-.20472072-.0093095-.20472072-.0208896 0-.01135304.09171968-.02077607.20472072-.02077607.11300103 0 .20472071.00930949.20472071.02077607z" fill="#808080"/><path d="m5.93170521 7.85572022c.28784791.00219808.3868612-.04925686.27046314-.13618073-.11639806-.08692388-.33300836-.0599475-.30503286.01508679.0279755.07503428-.08122887.10001241-.10690638.04725861-.02567751-.05265389-.12878721-.20881713.05665039-.21930794.18533769-.01049081.5778939-.06734102.67600797.0415636.09811408.10890463-.11090287.20761818.0471587.23079788.15806158.02297987.18054189-.02647682.4524038-.04136378.27196183-.01498687.37577092.05045581.46898928.04126386.09311845-.00899212.07993-.16925177.00619457-.20981625-.07363551-.04066438-.21521152-.04815782-.25147976-.0927188-.03626824-.04456097-.13498179-.00829273-.12588975-.05864863.00929186-.05025599.14007733.03466963.14157601.00899212 0-.0007993.0215811-.01788434.02597726-.02218057-.01648557-.00379668-.02587734.00229798-.03826649.00889221.01348819-.01079055.01258897-.01568626.01708504-.02447856-.00229799-.00329712-.01858373.01238915-.02128137.00919195-.00279755-.00329712.01898338-.02567752.00899213-.0175846-.00329711.0023979-.02917445.0151867-.02947419.0063944.00039965-.00359685.0135881-.0127888.00899213-.01778443-.00379668-.00419632-.02347944.0047958-.02597725.00579493.01129011-.01498688.01049081-.01478705-.00039965-.02597725-.00939178-.01109029-.01628574-.01089047-.03167227.00169851.0063944-.01798425.00809292-.02188084-.00739352-.02867489-.01268889-.00699387-.01328836-.01348819-.02907454.01888346.00599475-.03466963-.01019107-.03616832-.00349694-.05255397.0039965-.01498688.02517795-.02138128.0599475-.01798425.06754085.00049956.10370918.0815286.12578984.08122886.02198075-.00019982.04675905-.08572492.1414761-.05095537.09471705.03466963.10640681.04166351.15406508.0623454.04765826.02058197-.03347069.0519545-.00629449.09261888.02727611.04066439.21321327.17624565.16035956.31772175-.05285371.14137619-.18903445.1638565-.20122377.22500295-.01218933.06124637.43102252.03616833.54402356.0567503.11290112.02058198.18413874.10490813.1886348.1190957.00459597.01418758-.19812649.01328837-.19812649.01328837s-.10400891-.05375293-.35219156-.05864864c-.24808274-.00489571-.34259996-.10490813-.43541868-.1174971-.09291862-.01258898-.29084528.02098162-.40144842.015986-.11070305-.00489571-.22280488-.0223804-.29444214-.03207191-.07163726-.00979143-.42822497.16085912-.42702602.20072421-.0743349-.00289746-.24928169-.01238915-.24208799-.00759335.0071937.00469589.03137252-.07743219.167853-.0919195.13638056-.0143874.26916427-.07973018.26476812-.12269255-.00439615-.04296238.0263769-.1902334.03776693-.2533781.01139002-.0631447.06244531-.09371793.05025599-.12668905-.01218933-.03307104-.16805283-.0671412-.31762184-.06624199-.14956901.00099913-.31542376.00939178-.33960259.04536028-.023979.03606841-.00589484.1406768.02517795.12858738.03107279-.0119895-.00749344-.08042956.02517795-.09451722.03267139-.01398775.11639806-.02657673.19492929-.02837515.07863114-.00179843.21521152.06694137.21381275.08892212-.00139878.02198075.0439615.0951167-.01878355.12289238-.06294488.02787559-.19143235.04026474-.31452455.03397025-.1230922-.00609466-.24758318-.04845756-.29244389-.07553385-.0447608-.0271762-.07223674-.10970393-.07223674-.11539894 0 0 .06754085.16415624.35528885.16645422z" fill="#d0d0d0" stroke="#808080" stroke-width=".1"/><path d="m7.58248299 7.72084445c-.05220319.0314327-.11750548.0314327-.16970867 0-.0522032-.03143269-.0827539-.08914789-.07939567-.14999121.00481275-.08719583.07692146-.15543427.16425-.15543427.08732855 0 .15943725.06823844.16425.15543427.00335823.06084332-.02719247.11855852-.07939566.14999121z" fill="#000" fill-rule="nonzero"/><path d="m8.94316787 6.97089513.15936044.03436989.26626681-.18224039-.02058197.09571617-.13877846.09261889c-.02577743.01698512-.05135503.03257147-.07663289.04665914.01578617.02208066.03337077.04845756.05245406.07923061l.08592475.13887837-.01978267.09161977-.16585475-.2837515-.15936044-.03446982zm-.271762-1.17197363.30832998-.14197566-.08372668-.18184075.04126387-.01908329.20152351.43761675-.04126386.01898337-.08412633-.18264004-.30832997.14197566zm-.47758175-.58049163.28385142-.25997232.05575117.06094663-.00729361.43941517.22280488-.20402133.05215432.05685022-.28385141.25997232-.05575118-.06094662.00749344-.439615-.22310461.20422115-.0519545-.05685022zm-1.24091325-.5011611.04655923-.3820654.07983009.00969152-.04106404.33700486.29713977.03616832-.00549518.04516045zm-.61046537.05475206-.06893963-.37866838.07923062-.0143874.0607468.33390757.29444214-.0535531.00819282.0447608-.37367275.0679405zm-1.12721283.55631279-.02827523-.03526911.20082412-.16115886.08932178.11150235c-.01805582.03968951-.04061786.07716999-.06724112.11170218-.02657672.03397025-.05714995.06494312-.09161976.09261888-.04655922.03726737-.09401766.06494313-.1422754.08292738-.04815782.01768451-.09151985.0223804-.13008607.01398775-.03684986-.00731927-.06991318-.02746169-.09331828-.05685021-.02360563-.02984904-.03651689-.06675342-.03666789-.10480822-.00089921-.04096412.01188959-.08212807.03826649-.12339194.0263769-.04136377.0631447-.08092912.11050323-.11879596.03097276-.02537252.06500954-.0467546.10131127-.06364426.03347069-.01528661.0631447-.02297988.08892213-.02307979.02577742 0 .05095537.00679405.07533402.02048206l-.0487573.05515171c-.01714136-.00902418-.03609274-.01407788-.05545144-.01478706-.0175846-.00029973-.03826648.0047958-.06204566.01528662-.02579979.01154951-.04995566.02646635-.07183709.04436115-.02867488.02297987-.0511552.04566001-.06764076.06804041-.01658547.02218057-.02777567.04296237-.03347069.06244531-.00549518.0191832-.00749343.03696763-.00599475.0535531.00279755.02827524.01298863.05325336.0303734.07493438.02138128.02677655.04655923.04346193.07543394.04995625.02917445.00619457.06114645.00259772.095916-.01099038.03486946-.01348819.0679405-.03287121.09921311-.05794925.0271762-.02168101.0511552-.04625949.07173718-.07343569.02058197-.02747593.03446981-.0503559.04196325-.06853997l-.04496063-.055951zm-.01298862 2.76757626-.31382516.22280487-.23749202-.33430723.03706754-.02627698.19083288.26876462.09721486-.06893962-.16515536-.23269622.03696762-.02627698.16525528.2325963.14257513-.10121137.04655923.0655426zm-.46229514-.50056163c.04466089-.01258898.07453473-.04136377.08962152-.08652422.01488696-.04526037.01428748-.09641557-.00199825-.15366543-.01638565-.05824899-.04286247-.10241031-.07933053-.1326838-.03666789-.0303734-.07873105-.03896588-.12648922-.02547769-.02837302.00735481-.05360724.02368696-.071937.04655923-.01798426.0223804-.02887472.05085546-.03237165.08542518-.00369677.03446982-.00019983.07093788.01069063.10950411.01548644.05475205.0407643.09861363.0759335.13148485.03476955.03267138.08012983.04116395.135881.02537777zm.02178093.07993c-.06144619.01738478-.11689763.00499563-.16635432-.03746719-.0495566-.04226299-.08602466-.10460838-.10930427-.1870362-.0151867-.05395275-.02088171-.10500803-.01668539-.15296604.00419633-.047958.0175846-.08742343.04046456-.11829639.02183604-.030493.05352759-.05251475.08972143-.0623454.03746719-.01059073.07453472-.00809292.11090287.00739352.03636815.01558635.06853998.0431622.09621574.08272755.02757585.03966526.04845756.08482571.06284496.13558126.01558635.0551517.02098163.10670655.01638565.15486438-.00459597.04805791-.01828398.08742344-.04116395.11799666-.02287996.03057322-.05055572.05045581-.08292737.05964776zm.03217182-.78131575-.38486295-.00869239.00609466-.26946401c.00129887-.05415258.00569502-.09521661.01338828-.12329203.00739352-.0279755.0199825-.05025598.03796675-.06674155.01552447-.01550073.03661116-.02413691.05854872-.023979.02727612.00059948.04995625.01508679.06814033.04346194.01798425.02837515.02897462.07173718.0327713.13008608.00699387-.02098163.01368801-.03706754.02028224-.047958.01408766-.0231797.03167226-.04516045.05265388-.06564252l.1071062-.10330952-.00229798.10111145-.08192825.07863114c-.02357935.02297987-.04166351.04196325-.05425249.05685021s-.02148119.02837515-.02667664.04036465c-.00519545.01178967-.0087923.023979-.01099037.03626824-.00149869.00919195-.0023979.023979-.00289746.04466088l-.00209817.09331828.17085038.0039965zm-.21321327-.08522536.0039965-.17294854c.00134384-.02887769-.00039784-.05781634-.00519545-.0863244-.00439615-.02088171-.01178968-.0367678-.02198075-.04775817-.00859698-.01019387-.02105011-.01634803-.0343699-.01698513-.01818408-.00039965-.03337078.00979143-.0455601.03057323-.01218933.02038215-.01878355.05305353-.01978268.09811407l-.00439615.19243148zm1.06936348-1.69321714.00259773-.45010581.07443481-.04456098.41113994.20252264-.07863114.04695888-.1206943-.06354435-.21810899.13058563.00259773.1342824zm.06933928-.22570234.17684512-.10580733-.10920436-.05894838c-.02680455-.01398148-.05282097-.02942456-.07793175-.04625949.00599475.02507804.00919195.05175468.0095916.07993zm1.85897197-.12059439.41533627-.17364792.06993875.05095537-.02547769.45759925-.07403516-.05395275.01129011-.135881-.2054201-.14966892-.12259264.05495187zm.23479438-.02447856.16655414.12139369.01148993-.12359176c.00244626-.0301708.00651526-.060188.01218933-.08992125-.0217119.01589163-.04509735.02936004-.06973893.04016482l-.12039456.0519545zm1.02909875 1.43284517.37437214-.08962152.06274505.2621704c.01258897.05265389.01878355.0935181.01848381.12259264 0 .02897463-.00669414.05375293-.01978268.07423499-.01107321.01894798-.02928549.03266118-.05055572.03806666-.02647681.0063944-.05215433-.00189834-.07693263-.02467839-.02467838-.02278005-.04625948-.06194575-.0647433-.1174971-.00062685.01743163-.00310529.0347472-.00739352.05165476-.00779318.02597725-.0191832.05165477-.03426999.07683272l-.07723236.12718861-.02357935-.0983139.0591482-.09691513c.01698512-.02817532.02967401-.0511552.03816657-.0687398.00829274-.01768451.01348819-.03297112.01538653-.04595975.00199825-.01268888.00249781-.02527786.00149869-.03786683-.0020099-.01481545-.00491265-.029496-.00869239-.0439615l-.02168101-.09072055-.1662544.03976517-.01868364-.07823149zm.2278005.02817532.04026474.16815274c.00859247.03576867.0175846.0631447.02697637.08222798.0095916.01898338.0207818.03257148.03347069.04056448.01298862.007993.02537777.01059072.03746719.00769326.01768451-.00429624.02977392-.01798425.03636815-.04106404.00659422-.02297987.00459597-.05625073-.00589484-.10011232l-.0447608-.1870362z" fill="#d0d0d0" fill-rule="nonzero"/></g></g></g></g></svg>