<svg height="48" viewBox="0 0 48 48" width="48" xmlns="http://www.w3.org/2000/svg" xmlns:xlink="http://www.w3.org/1999/xlink"><defs><path id="a" d="m8 9h32c2.209139 0 4 1.790861 4 4v22c0 2.209139-1.790861 4-4 4h-32c-2.209139 0-4-1.790861-4-4v-22c0-2.209139 1.790861-4 4-4z"/><mask id="b" fill="#fff"><use fill="#fff" fill-rule="evenodd" xlink:href="#a"/></mask></defs><g fill="none" fill-rule="evenodd"><path d="m0 0h48v48h-48z"/><use fill="#d8d8d8" xlink:href="#a"/><g mask="url(#b)"><g fill-rule="nonzero" transform="translate(4 9)"><path d="m0 0h40v30h-40z" fill="#cc0001"/><g fill="#fff"><path d="m0 27.9375h40v2.0625h-40z"/><path d="m0 .0473125h40v2.1433125h-40z" transform="translate(0 23.525875)"/><path d="m0 .0473125h40v2.1433125h-40z" transform="translate(0 19.239375)"/><path d="m0 .0473125h40v2.1433125h-40z" transform="translate(0 14.952687)"/><path d="m0 .0473125h40v2.1433125h-40z" transform="translate(0 10.666063)"/><path d="m0 .0473125h40v2.1433125h-40z" transform="translate(0 6.379375)"/><path d="m0 .0473125h40v2.1433125h-40z" transform="translate(0 2.092875)"/></g><path d="m0 0h23.2909375v17.1464375h-23.2909375z" fill="#010066"/><g fill="#fc0" transform="translate(3.75 3)"><path d="m5.606875.0331875c-3.0664375 0-5.555375 2.480625-5.555375 5.536875s2.4889375 5.5369375 5.555375 5.5369375c1.107875 0 2.140125-.3241875 3.0070625-.881875-.51819304.1787853-1.06258206.2698689-1.61075.2695-2.719125 0-4.9259375-2.1995-4.9259375-4.909625 0-2.71 2.206875-4.9095625 4.9259375-4.9095625.6009375 0 1.1765625.1073125 1.709125.3039375-.8866875-.5971875-1.9555-.9461875-3.1054375-.9461875z"/><path d="m14.8196875 8.4525-2.3400625-1.2209375.691875 2.49875-1.5651875-2.09025-.4883125 2.544125-.48025-2.5455625-1.57175 2.0855625.6998125-2.4966875-2.3439375 1.213875 1.74125-1.9533125-2.651875.101875 2.43775-1.023125-2.4345-1.030375 2.6515.1098125-1.735-1.9585625 2.34 1.2209375-.691875-2.49875 1.5651875 2.09025.4883125-2.544125.48025 2.5455625 1.57175-2.0855625-.69975 2.4966875 2.3439375-1.213875-1.74125 1.9533125 2.651875-.101875-2.4378125 1.023125 2.4345625 1.030375-2.6515625-.1098125z"/></g></g></g></g></svg>