<svg height="48" viewBox="0 0 48 48" width="48" xmlns="http://www.w3.org/2000/svg" xmlns:xlink="http://www.w3.org/1999/xlink"><defs><path id="a" d="m8 9h32c2.209139 0 4 1.790861 4 4v22c0 2.209139-1.790861 4-4 4h-32c-2.209139 0-4-1.790861-4-4v-22c0-2.209139 1.790861-4 4-4z"/><mask id="b" fill="#fff"><use fill="#fff" fill-rule="evenodd" xlink:href="#a"/></mask></defs><g fill="none" fill-rule="evenodd"><path d="m0 0h48v48h-48z"/><use fill="#d8d8d8" xlink:href="#a"/><g fill-rule="nonzero" mask="url(#b)"><g transform="translate(4 9)"><path d="m0 0h40v30h-40z" fill="#ef2b2d"/><path d="m11.25 0h7.5v30h-7.5z" fill="#fff"/><path d="m0 11.25h40v7.5h-40z" fill="#fff"/><g fill="#002868"><path d="m13.125 0h3.75v30h-3.75z"/><path d="m0 13.125h40v3.75h-40z"/></g></g></g></g></svg>