<svg height="48" viewBox="0 0 48 48" width="48" xmlns="http://www.w3.org/2000/svg" xmlns:xlink="http://www.w3.org/1999/xlink"><defs><path id="a" d="m8 9h32c2.209139 0 4 1.790861 4 4v22c0 2.209139-1.790861 4-4 4h-32c-2.209139 0-4-1.790861-4-4v-22c0-2.209139 1.790861-4 4-4z"/><mask id="b" fill="#fff"><use fill="#fff" fill-rule="evenodd" xlink:href="#a"/></mask></defs><g fill="none" fill-rule="evenodd"><path d="m0 0h48v48h-48z"/><use fill="#d8d8d8" xlink:href="#a"/><g mask="url(#b)"><g transform="translate(4 9)"><path d="m0 0h40v30h-40z" fill="#fff" fill-rule="nonzero"/><g fill="none"><path d="m4 .5c-1.93299662 0-3.5 1.56700338-3.5 3.5v22c0 1.9329966 1.56700338 3.5 3.5 3.5h32c1.9329966 0 3.5-1.5670034 3.5-3.5v-22c0-1.93299662-1.5670034-3.5-3.5-3.5z" stroke="#dedede"/><g fill-rule="nonzero"><path d="m3.95257313 29.5998745 19.19812197-.0006094-15.78068976-15.9697509 15.95818136.0186943-18.92954012-12.06544828c-1.21088581-.77180322-2.81817286-.41585646-3.58997608.79502936-.266102.4174887-.40747513.90227414-.40749728 1.39736256l-.00130019 22.22486576c-.00008825 1.9724883 1.58620166 3.5745331 3.5527001 3.5998566z" fill="#ce0000" stroke="#000063" stroke-width=".8"/><path d="m9.84007814 20.4122401-1.58121094.5225052 1.23691406 1.1613696-1.66628906-.1068283.68648437 1.5338358-1.49701171-.7186201.03082031 1.6721219-1.10074219-1.2220634-.62935547 1.5572245-.53613281-1.5389812-1.19326172 1.2038201.10904297-1.6216606-1.57523438.6681588.73839844-1.4570036-1.71884765.0299961 1.25566406-1.0713228-1.59931641-.612552 1.58126953-.521745-1.23761718-1.1613696 1.66617187.1061266-.68572266-1.5331341 1.49707032.71862-.03087891-1.672882 1.10080078 1.2221219.62859375-1.5565229.53683594 1.5389813 1.19326172-1.2045218-.1097461 1.6216606 1.5759375-.6673986-.73833984 1.4569451 1.71808594-.0299961-1.25566406 1.0713813zm-1.8994336-10.7984797-.66386718.4904041.3271875.2697895c.79458984-.6129028 1.36001953-1.17306393 1.80193359-2.10265073.10365234 1.24077443-1.03611328 4.02608503-4.02714844 4.05684123-3.20115234-.0026897-4.31191406-2.95791971-4.18839844-4.10917361.58810547 1.06471544.9469336 1.58388774 1.87007813 2.13820171l.28242187-.2586799-.6252539-.51987394.80490234-.20886174-.43300781-.72739086.84322266.06139553-.1059375-.84702442.73921875.43169828.23132812-.78843555.53115234.6350052.49751954-.60202703.2709375.81802235.69082031-.47964527-.08859375.83193867.82810547-.09700494-.38824219.76908134.80167969.23839008z" fill="#fff"/></g></g></g></g></g></svg>