<svg height="48" viewBox="0 0 48 48" width="48" xmlns="http://www.w3.org/2000/svg" xmlns:xlink="http://www.w3.org/1999/xlink"><defs><path id="a" d="m8 9h32c2.209139 0 4 1.790861 4 4v22c0 2.209139-1.790861 4-4 4h-32c-2.209139 0-4-1.790861-4-4v-22c0-2.209139 1.790861-4 4-4z"/><mask id="b" fill="#fff"><use fill="#fff" fill-rule="evenodd" xlink:href="#a"/></mask><mask id="c" fill="#fff"><path d="m0 0h22.4648986v11.25h-22.4648986z" fill="#fff" fill-rule="evenodd"/></mask><mask id="d" fill="#fff"><path d="m0 0 11.2324493 5.625h-11.2324493zm11.2324493 0h11.2324493l-11.2324493 5.625zm0 5.625h11.2324493v5.625zm0 0v5.625h-11.2324493z" fill="#fff" fill-rule="evenodd"/></mask><mask id="e" fill="#fff"><path d="m0 0h22.4648986v11.25h-22.4648986z" fill="#fff" fill-rule="evenodd"/></mask><mask id="f" fill="#fff"><path d="m0 0h22.4648986v11.25h-22.4648986z" fill="#fff" fill-rule="evenodd"/></mask></defs><g fill="none" fill-rule="evenodd"><path d="m0 0h48v48h-48z"/><use fill="#d8d8d8" xlink:href="#a"/><g mask="url(#b)"><g transform="translate(4 9)"><path d="m.00024961 0h39.93759749v30h-39.93759749z" fill="#00247d"/><g fill-rule="nonzero"><g fill="none" transform="translate(27.311529 1.547172)"><g fill="#fff" transform="translate(.00834 .033413)"><g transform="translate(1.893201 3.792319)"><path d="m1.89320125 1.27990758v.94807969l1.89320125-.94807969z"/><path d="m2.07347416 1.83749363v-.94807969l1.89320125.94807969z" transform="matrix(.80901699 -.58778525 .58778525 .80901699 -.503269 2.126086)"/></g><g transform="matrix(-1 0 0 1 5.679604 3.792319)"><path d="m1.89320125 1.27990758v.94807969l1.89320125-.94807969z"/><path d="m2.07347416 1.83749363v-.94807969l1.89320125.94807969z" transform="matrix(.80901699 -.58778525 .58778525 .80901699 -.503269 2.126086)"/></g><g transform="matrix(.30901699 .95105652 -.95105652 .30901699 5.004725 3.303397)"><path d="m1.89320125 1.27990758v.94807969l1.89320125-.94807969z"/><path d="m2.07347416 1.83749363v-.94807969l1.89320125.94807969z" transform="matrix(.80901699 -.58778525 .58778525 .80901699 -.503269 2.126086)"/></g><g transform="matrix(.30901699 -.95105652 .95105652 .30901699 1.398016 6.901668)"><path d="m1.89320125 1.27990758v.94807969l1.89320125-.94807969z"/><path d="m2.07347416 1.83749363v-.94807969l1.89320125.94807969z" transform="matrix(.80901699 -.58778525 .58778525 .80901699 -.503269 2.126086)"/></g><g transform="matrix(-.30901699 .95105652 .95105652 .30901699 2.56808 3.303397)"><path d="m1.89320125 1.27990758v.94807969l1.89320125-.94807969z"/><path d="m2.07347416 1.83749363v-.94807969l1.89320125.94807969z" transform="matrix(.80901699 -.58778525 .58778525 .80901699 -.503269 2.126086)"/></g></g><g fill="#cc142b" transform="translate(1.292715 1.962984)"><g transform="translate(1.251014 2.505938)"><path d="m1.25101404.84575391v.62648437l1.25101404-.62648437z"/><path d="m1.37013711 1.21420284v-.62648437l1.25101404.62648437z" transform="matrix(.80901699 -.58778525 .58778525 .80901699 -.332557 1.404902)"/></g><g transform="matrix(-1 0 0 1 3.753042 2.505938)"><path d="m1.25101404.84575391v.62648437l1.25101404-.62648437z"/><path d="m1.37013711 1.21420284v-.62648437l1.25101404.62648437z" transform="matrix(.80901699 -.58778525 .58778525 .80901699 -.332557 1.404902)"/></g><g transform="matrix(.30901699 .95105652 -.95105652 .30901699 3.307087 2.182862)"><path d="m1.25101404.84575391v.62648437l1.25101404-.62648437z"/><path d="m1.37013711 1.21420284v-.62648437l1.25101404.62648437z" transform="matrix(.80901699 -.58778525 .58778525 .80901699 -.332557 1.404902)"/></g><g transform="matrix(.30901699 -.95105652 .95105652 .30901699 .923799 4.560573)"><path d="m1.25101404.84575391v.62648437l1.25101404-.62648437z"/><path d="m1.37013711 1.21420284v-.62648437l1.25101404.62648437z" transform="matrix(.80901699 -.58778525 .58778525 .80901699 -.332557 1.404902)"/></g><g transform="matrix(-.30901699 .95105652 .95105652 .30901699 1.696969 2.182862)"><path d="m1.25101404.84575391v.62648437l1.25101404-.62648437z"/><path d="m1.37013711 1.21420284v-.62648437l1.25101404.62648437z" transform="matrix(.80901699 -.58778525 .58778525 .80901699 -.332557 1.404902)"/></g></g></g><g fill="none" transform="translate(32.26209 5.875)"><g fill="#fff" transform="translate(.00834 .033413)"><g transform="translate(1.893201 3.792319)"><path d="m1.89320125 1.27990758v.94807969l1.89320125-.94807969z"/><path d="m2.07347416 1.83749363v-.94807969l1.89320125.94807969z" transform="matrix(.80901699 -.58778525 .58778525 .80901699 -.503269 2.126086)"/></g><g transform="matrix(-1 0 0 1 5.679604 3.792319)"><path d="m1.89320125 1.27990758v.94807969l1.89320125-.94807969z"/><path d="m2.07347416 1.83749363v-.94807969l1.89320125.94807969z" transform="matrix(.80901699 -.58778525 .58778525 .80901699 -.503269 2.126086)"/></g><g transform="matrix(.30901699 .95105652 -.95105652 .30901699 5.004725 3.303397)"><path d="m1.89320125 1.27990758v.94807969l1.89320125-.94807969z"/><path d="m2.07347416 1.83749363v-.94807969l1.89320125.94807969z" transform="matrix(.80901699 -.58778525 .58778525 .80901699 -.503269 2.126086)"/></g><g transform="matrix(.30901699 -.95105652 .95105652 .30901699 1.398016 6.901668)"><path d="m1.89320125 1.27990758v.94807969l1.89320125-.94807969z"/><path d="m2.07347416 1.83749363v-.94807969l1.89320125.94807969z" transform="matrix(.80901699 -.58778525 .58778525 .80901699 -.503269 2.126086)"/></g><g transform="matrix(-.30901699 .95105652 .95105652 .30901699 2.56808 3.303397)"><path d="m1.89320125 1.27990758v.94807969l1.89320125-.94807969z"/><path d="m2.07347416 1.83749363v-.94807969l1.89320125.94807969z" transform="matrix(.80901699 -.58778525 .58778525 .80901699 -.503269 2.126086)"/></g></g><g fill="#cc142b" transform="translate(1.292715 1.962984)"><g transform="translate(1.251014 2.505938)"><path d="m1.25101404.84575391v.62648437l1.25101404-.62648437z"/><path d="m1.37013711 1.21420284v-.62648437l1.25101404.62648437z" transform="matrix(.80901699 -.58778525 .58778525 .80901699 -.332557 1.404902)"/></g><g transform="matrix(-1 0 0 1 3.753042 2.505938)"><path d="m1.25101404.84575391v.62648437l1.25101404-.62648437z"/><path d="m1.37013711 1.21420284v-.62648437l1.25101404.62648437z" transform="matrix(.80901699 -.58778525 .58778525 .80901699 -.332557 1.404902)"/></g><g transform="matrix(.30901699 .95105652 -.95105652 .30901699 3.307087 2.182862)"><path d="m1.25101404.84575391v.62648437l1.25101404-.62648437z"/><path d="m1.37013711 1.21420284v-.62648437l1.25101404.62648437z" transform="matrix(.80901699 -.58778525 .58778525 .80901699 -.332557 1.404902)"/></g><g transform="matrix(.30901699 -.95105652 .95105652 .30901699 .923799 4.560573)"><path d="m1.25101404.84575391v.62648437l1.25101404-.62648437z"/><path d="m1.37013711 1.21420284v-.62648437l1.25101404.62648437z" transform="matrix(.80901699 -.58778525 .58778525 .80901699 -.332557 1.404902)"/></g><g transform="matrix(-.30901699 .95105652 .95105652 .30901699 1.696969 2.182862)"><path d="m1.25101404.84575391v.62648437l1.25101404-.62648437z"/><path d="m1.37013711 1.21420284v-.62648437l1.25101404.62648437z" transform="matrix(.80901699 -.58778525 .58778525 .80901699 -.332557 1.404902)"/></g></g></g><g fill="none" transform="matrix(.1391731 .99026807 -.99026807 .1391731 28.974326 6.349567)"><g fill="#fff" transform="matrix(.1391731 -.99026807 .99026807 .1391731 .011595 7.510315)"><g transform="translate(1.893201 3.792319)"><path d="m1.89320125 1.27990758v.94807969l1.89320125-.94807969z"/><path d="m2.07347416 1.83749363v-.94807969l1.89320125.94807969z" transform="matrix(.80901699 -.58778525 .58778525 .80901699 -.503269 2.126086)"/></g><g transform="matrix(-1 0 0 1 5.679604 3.792319)"><path d="m1.89320125 1.27990758v.94807969l1.89320125-.94807969z"/><path d="m2.07347416 1.83749363v-.94807969l1.89320125.94807969z" transform="matrix(.80901699 -.58778525 .58778525 .80901699 -.503269 2.126086)"/></g><g transform="matrix(.30901699 .95105652 -.95105652 .30901699 5.004725 3.303397)"><path d="m1.89320125 1.27990758v.94807969l1.89320125-.94807969z"/><path d="m2.07347416 1.83749363v-.94807969l1.89320125.94807969z" transform="matrix(.80901699 -.58778525 .58778525 .80901699 -.503269 2.126086)"/></g><g transform="matrix(.30901699 -.95105652 .95105652 .30901699 1.398016 6.901668)"><path d="m1.89320125 1.27990758v.94807969l1.89320125-.94807969z"/><path d="m2.07347416 1.83749363v-.94807969l1.89320125.94807969z" transform="matrix(.80901699 -.58778525 .58778525 .80901699 -.503269 2.126086)"/></g><g transform="matrix(-.30901699 .95105652 .95105652 .30901699 2.56808 3.303397)"><path d="m1.89320125 1.27990758v.94807969l1.89320125-.94807969z"/><path d="m2.07347416 1.83749363v-.94807969l1.89320125.94807969z" transform="matrix(.80901699 -.58778525 .58778525 .80901699 -.503269 2.126086)"/></g></g><g fill="#cc142b" transform="matrix(.1391731 -.99026807 .99026807 .1391731 2.101138 6.506985)"><g transform="translate(1.251014 2.505937)"><path d="m1.25101404.84575391v.62648437l1.25101404-.62648437z"/><path d="m1.37013711 1.21420284v-.62648437l1.25101404.62648437z" transform="matrix(.80901699 -.58778525 .58778525 .80901699 -.332557 1.404902)"/></g><g transform="matrix(-1 0 0 1 3.753042 2.505937)"><path d="m1.25101404.84575391v.62648437l1.25101404-.62648437z"/><path d="m1.37013711 1.21420284v-.62648437l1.25101404.62648437z" transform="matrix(.80901699 -.58778525 .58778525 .80901699 -.332557 1.404902)"/></g><g transform="matrix(.30901699 .95105652 -.95105652 .30901699 3.307087 2.182862)"><path d="m1.25101404.84575391v.62648437l1.25101404-.62648437z"/><path d="m1.37013711 1.21420284v-.62648437l1.25101404.62648437z" transform="matrix(.80901699 -.58778525 .58778525 .80901699 -.332557 1.404902)"/></g><g transform="matrix(.30901699 -.95105652 .95105652 .30901699 .923799 4.560573)"><path d="m1.25101404.84575391v.62648437l1.25101404-.62648437z"/><path d="m1.37013711 1.21420284v-.62648437l1.25101404.62648437z" transform="matrix(.80901699 -.58778525 .58778525 .80901699 -.332557 1.404902)"/></g><g transform="matrix(-.30901699 .95105652 .95105652 .30901699 1.696969 2.182862)"><path d="m1.25101404.84575391v.62648437l1.25101404-.62648437z"/><path d="m1.37013711 1.21420284v-.62648437l1.25101404.62648437z" transform="matrix(.80901699 -.58778525 .58778525 .80901699 -.332557 1.404902)"/></g></g></g><g fill="none" transform="translate(26.894524 15.956312)"><g fill="#fff" transform="translate(.00834 .033413)"><g transform="translate(2.101704 4.209975)"><path d="m2.10170359 1.42086656v1.05249375l2.10170359-1.05249375z"/><path d="m2.30183035 2.03986077v-1.05249375l2.10170359 1.05249375z" transform="matrix(.80901699 -.58778525 .58778525 .80901699 -.558695 2.360236)"/></g><g transform="matrix(-1 0 0 1 6.30511 4.209975)"><path d="m2.10170359 1.42086656v1.05249375l2.10170359-1.05249375z"/><path d="m2.30183035 2.03986077v-1.05249375l2.10170359 1.05249375z" transform="matrix(.80901699 -.58778525 .58778525 .80901699 -.558695 2.360236)"/></g><g transform="matrix(.30901699 .95105652 -.95105652 .30901699 5.555907 3.667209)"><path d="m2.10170359 1.42086656v1.05249375l2.10170359-1.05249375z"/><path d="m2.30183035 2.03986077v-1.05249375l2.10170359 1.05249375z" transform="matrix(.80901699 -.58778525 .58778525 .80901699 -.558695 2.360236)"/></g><g transform="matrix(.30901699 -.95105652 .95105652 .30901699 1.551983 7.661762)"><path d="m2.10170359 1.42086656v1.05249375l2.10170359-1.05249375z"/><path d="m2.30183035 2.03986077v-1.05249375l2.10170359 1.05249375z" transform="matrix(.80901699 -.58778525 .58778525 .80901699 -.558695 2.360236)"/></g><g transform="matrix(-.30901699 .95105652 .95105652 .30901699 2.850907 3.667209)"><path d="m2.10170359 1.42086656v1.05249375l2.10170359-1.05249375z"/><path d="m2.30183035 2.03986077v-1.05249375l2.10170359 1.05249375z" transform="matrix(.80901699 -.58778525 .58778525 .80901699 -.558695 2.360236)"/></g></g><g fill="#cc142b" transform="translate(1.292715 1.962984)"><g transform="translate(1.459516 2.923594)"><path d="m1.45951638.98671289v.73089844l1.45951638-.73089844z"/><path d="m1.5984933 1.41656998v-.73089844l1.45951638.73089844z" transform="matrix(.80901699 -.58778525 .58778525 .80901699 -.387983 1.639052)"/></g><g transform="matrix(-1 0 0 1 4.37855 2.923594)"><path d="m1.45951638.98671289v.73089844l1.45951638-.73089844z"/><path d="m1.5984933 1.41656998v-.73089844l1.45951638.73089844z" transform="matrix(.80901699 -.58778525 .58778525 .80901699 -.387983 1.639052)"/></g><g transform="matrix(.30901699 .95105652 -.95105652 .30901699 3.858269 2.546673)"><path d="m1.45951638.98671289v.73089844l1.45951638-.73089844z"/><path d="m1.5984933 1.41656998v-.73089844l1.45951638.73089844z" transform="matrix(.80901699 -.58778525 .58778525 .80901699 -.387983 1.639052)"/></g><g transform="matrix(.30901699 -.95105652 .95105652 .30901699 1.077766 5.320668)"><path d="m1.45951638.98671289v.73089844l1.45951638-.73089844z"/><path d="m1.5984933 1.41656998v-.73089844l1.45951638.73089844z" transform="matrix(.80901699 -.58778525 .58778525 .80901699 -.387983 1.639052)"/></g><g transform="matrix(-.30901699 .95105652 .95105652 .30901699 1.979796 2.546673)"><path d="m1.45951638.98671289v.73089844l1.45951638-.73089844z"/><path d="m1.5984933 1.41656998v-.73089844l1.45951638.73089844z" transform="matrix(.80901699 -.58778525 .58778525 .80901699 -.387983 1.639052)"/></g></g></g><g fill="#000"><path d="m0 0 22.4648986 11.25m-22.4648986 0 22.4648986-11.25" mask="url(#c)" stroke="#fff" stroke-width="2.25"/><path d="m0 0 22.4648986 11.25m-22.4648986 0 22.4648986-11.25" mask="url(#d)" stroke="#cc142b" stroke-width="1.5"/><path d="m11.2324493 0v11.25m-11.2324493-5.625h22.4648986" mask="url(#e)" stroke="#fff" stroke-width="3.75"/><path d="m11.2324493 0v11.25m-11.2324493-5.625h22.4648986" mask="url(#f)" stroke="#cc142b" stroke-width="2.25"/></g></g></g></g></g></svg>