<svg height="48" viewBox="0 0 48 48" width="48" xmlns="http://www.w3.org/2000/svg" xmlns:xlink="http://www.w3.org/1999/xlink"><defs><path id="a" d="m8 9h32c2.209139 0 4 1.790861 4 4v22c0 2.209139-1.790861 4-4 4h-32c-2.209139 0-4-1.790861-4-4v-22c0-2.209139 1.790861-4 4-4z"/><mask id="b" fill="#fff"><use fill="#fff" fill-rule="evenodd" xlink:href="#a"/></mask></defs><g fill="none" fill-rule="evenodd"><path d="m0 0h48v48h-48z"/><use fill="#d8d8d8" xlink:href="#a"/><g mask="url(#b)"><g transform="translate(4 9)"><path d="m0 0h40v30h-40z" fill="#fff" fill-rule="nonzero"/><path d="m4 .5c-1.93299662 0-3.5 1.56700338-3.5 3.5v22c0 1.9329966 1.56700338 3.5 3.5 3.5h32c1.9329966 0 3.5-1.5670034 3.5-3.5v-22c0-1.93299662-1.5670034-3.5-3.5-3.5z" fill="none" stroke="#dedede"/><g fill-rule="evenodd"><path d="m20 0h20v15h-20z" fill="#db0000"/><path d="m0 15h20v15h-20z" fill="#0000ab"/><path d="m12.6163125 11.434-2.6224375-1.832875-2.609625 1.850875.9705625-3.00775-2.6048125-1.85725 3.222625-.025875.9995625-2.998625 1.0209375 2.9916875 3.222625.0039375-2.5914375 1.87475.992 3.0010625z" fill="#0000ab"/><path d="m32.680875 26.1970625-2.647125-1.734-2.634125 1.7510625.9796875-2.8455625-2.6293125-1.757125 3.2529375-.0245 1.0089375-2.8369375 1.0305625 2.830375 3.2529375.00375-2.6158125 1.7736875z" fill="#d80000"/></g></g></g></g></svg>