<svg height="48" viewBox="0 0 48 48" width="48" xmlns="http://www.w3.org/2000/svg" xmlns:xlink="http://www.w3.org/1999/xlink"><defs><path id="a" d="m8 9h32c2.209139 0 4 1.790861 4 4v22c0 2.209139-1.790861 4-4 4h-32c-2.209139 0-4-1.790861-4-4v-22c0-2.209139 1.790861-4 4-4z"/><path id="b" d="m25.98075 15-25.98075 15v-30"/><mask id="c" fill="#fff"><use fill="#fff" fill-rule="evenodd" xlink:href="#a"/></mask><mask id="d" fill="#fff"><use fill="#fff" fill-rule="evenodd" xlink:href="#b"/></mask></defs><g fill="none" fill-rule="evenodd"><path d="m0 0h48v48h-48z"/><use fill="#d8d8d8" xlink:href="#a"/><g mask="url(#c)"><g transform="translate(4 9)"><path d="m0 0h40v15h-40z" fill="#0038a8" fill-rule="nonzero"/><path d="m0 15h40v15h-40z" fill="#ce1126" fill-rule="nonzero"/><g fill="none" fill-rule="evenodd"><use fill="#fff" fill-rule="nonzero" xlink:href="#b"/><g mask="url(#d)" stroke="#dedede"><path d="m4 .5c-1.93299662 0-3.5 1.56700338-3.5 3.5v22c0 1.9329966 1.56700338 3.5 3.5 3.5h32c1.9329966 0 3.5-1.5670034 3.5-3.5v-22c0-1.93299662-1.5670034-3.5-3.5-3.5z"/></g></g><g fill="#fcd116" fill-rule="nonzero" transform="translate(0 1.666675)"><circle cx="9.666661" cy="13.333325" r="2.999998"/><g transform="translate(.333333 3.999998)"><g transform="translate(2.999998 2.666665)"><path d="m0 6.6666625.39266642.39266642 5.94066295-.39266642-5.94066295-.39266642z"/><path d="m.66450612 7.41053524.3206348.32063479 5.34818845-1.06450753z"/><path d="m.33117299.74387274.3206348.32063479 5.34818846-1.06450753z" transform="matrix(1 0 0 -1 .333333 6.666662)"/></g><g transform="matrix(.70710678 .70710678 -.70710678 .70710678 9.56903 .140945)"><path d="m0 6.6666625.39266642.39266642 5.94066295-.39266642-5.94066295-.39266642z"/><path d="m.66450612 7.41053524.3206348.32063479 5.34818845-1.06450753z"/><path d="m.33117299.74387274.3206348.32063479 5.34818846-1.06450753z" transform="matrix(1 0 0 -1 .333333 6.666662)"/></g><g transform="matrix(0 1 -1 0 15.99999 2.999998)"><path d="m0 6.6666625.39266642.39266642 5.94066296-.39266642-5.94066296-.39266642z"/><path d="m.66450612 7.41053524.3206348.32063479 5.34818845-1.06450753z"/><path d="m.33117299.74387274.3206348.32063479 5.34818846-1.06450753z" transform="matrix(1 0 0 -1 .333333 6.666662)"/></g><g transform="matrix(-.70710678 .70710678 -.70710678 -.70710678 18.52571 9.56903)"><path d="m0 6.6666625.39266642.39266642 5.94066296-.39266642-5.94066296-.39266642z"/><path d="m.66450612 7.41053524.3206348.32063479 5.34818845-1.06450753z"/><path d="m.33117299.74387274.3206348.32063479 5.34818846-1.06450753z" transform="matrix(1 0 0 -1 .333333 6.666662)"/></g></g><g transform="matrix(-1 0 0 -1 18.999989 22.666653)"><g transform="translate(2.999998 2.666665)"><path d="m0 6.6666625.39266642.39266642 5.94066295-.39266642-5.94066295-.39266642z"/><path d="m.66450612 7.41053524.3206348.32063479 5.34818845-1.06450753z"/><path d="m.33117299.74387274.3206348.32063479 5.34818846-1.06450753z" transform="matrix(1 0 0 -1 .333333 6.666662)"/></g><g transform="matrix(.70710678 .70710678 -.70710678 .70710678 9.56903 .140945)"><path d="m0 6.6666625.39266642.39266642 5.94066295-.39266642-5.94066295-.39266642z"/><path d="m.66450612 7.41053524.3206348.32063479 5.34818845-1.06450753z"/><path d="m.33117299.74387274.3206348.32063479 5.34818846-1.06450753z" transform="matrix(1 0 0 -1 .333333 6.666662)"/></g><g transform="matrix(0 1 -1 0 15.99999 2.999998)"><path d="m0 6.6666625.39266642.39266642 5.94066295-.39266642-5.94066295-.39266642z"/><path d="m.66450612 7.41053524.3206348.32063479 5.34818845-1.06450753z"/><path d="m.33117299.74387274.3206348.32063479 5.34818846-1.06450753z" transform="matrix(1 0 0 -1 .333333 6.666662)"/></g><g transform="matrix(-.70710678 .70710678 -.70710678 -.70710678 18.52571 9.56903)"><path d="m0 6.6666625.39266642.39266642 5.94066295-.39266642-5.94066295-.39266642z"/><path d="m.66450612 7.41053524.3206348.32063479 5.34818845-1.06450753z"/><path d="m.33117299.74387274.3206348.32063479 5.34818846-1.06450753z" transform="matrix(1 0 0 -1 .333333 6.666662)"/></g></g><g transform="translate(.326666)"><g transform="translate(19.653988 11.666659)"><path d="m3.33333125 1.66666563-1.12733263.39199975-.02433332 1.19333259-.72099955-.95133274-1.14233262.34566645.68166625-.97966605z"/><path d="m3.33333125 0-1.12733263.39199976-.02433332 1.19333258-.72099955-.95133274-1.14233262.34566645.68166625-.97966605z" transform="matrix(1 0 0 -1 0 1.666666)"/></g><g transform="matrix(-.5 .8660254 -.8660254 -.5 4.616373 23.68196190092)"><path d="m3.33333125 1.66666563-1.12733263.39199975-.02433332 1.19333259-.72099955-.95133274-1.14233262.34566645.68166625-.97966605z"/><path d="m3.33333125 0-1.12733263.39199976-.02433332 1.19333258-.72099955-.95133274-1.14233262.34566645.68166625-.97966605z" transform="matrix(1 0 0 -1 0 1.666666)"/></g><g transform="matrix(-.5 -.8660254 .8660254 -.5 1.729624 4.65135409908)"><path d="m3.33333125 1.66666563-1.12733263.39199975-.02433332 1.19333259-.72099955-.95133274-1.14233262.34566645.68166625-.97966605z"/><path d="m3.33333125 0-1.12733263.39199976-.02433332 1.19333258-.72099955-.95133274-1.14233262.34566645.68166625-.97966605z" transform="matrix(1 0 0 -1 0 1.666666)"/></g></g></g></g></g></g></svg>