<svg height="48" viewBox="0 0 48 48" width="48" xmlns="http://www.w3.org/2000/svg" xmlns:xlink="http://www.w3.org/1999/xlink"><defs><path id="a" d="m8 9h32c2.209139 0 4 1.790861 4 4v22c0 2.209139-1.790861 4-4 4h-32c-2.209139 0-4-1.790861-4-4v-22c0-2.209139 1.790861-4 4-4z"/><mask id="b" fill="#fff"><use fill="#fff" fill-rule="evenodd" xlink:href="#a"/></mask><mask id="c" fill="#fff"><path d="m0 0h40v30h-40z" fill="#fff" fill-rule="evenodd"/></mask></defs><g fill="none" fill-rule="evenodd"><path d="m0 0h48v48h-48z"/><use fill="#d8d8d8" xlink:href="#a"/><g mask="url(#b)"><g fill="none" fill-rule="evenodd" mask="url(#c)" transform="translate(4 9)"><g transform="translate(.000031)"><path d="m-.00003125 0h40.00000005v30h-40.00000005z" fill="#0c590b" fill-rule="nonzero"/><path d="m-.00003125 0h11.28046875v30h-11.28046875z" fill="#fff" fill-rule="nonzero"/><path d="m4 .5c-1.93299662 0-3.5 1.56700338-3.5 3.5v22c0 1.9329966 1.56700338 3.5 3.5 3.5h32c1.9329966 0 3.5-1.5670034 3.5-3.5v-22c0-1.93299662-1.5670034-3.5-3.5-3.5z" fill="none" stroke="#dedede" transform="translate(-.000031)"/><path d="m11 0h29v30h-29z" fill="#0c590b" fill-rule="evenodd"/><g fill="#fff" fill-rule="nonzero" transform="translate(17.101562 8.085938)"><path d="m12.9317578 5.12109375-1.8260742-.38414063-.960293 1.59996094-.19892576-1.85542969-1.81851562-.41894531 1.70314453-.76253906-.16353516-1.85882813 1.25156251 1.38410157 1.7173242-.72996094-.9295898 1.61800781z"/><path d="m13.6204102 9.84878906c-1.6209961 3.57187504-5.87560551 5.13210934-9.45761723 3.47285154-3.58253906-1.6597265-5.1431836-5.91386716-3.48345703-9.49634763.8465039-1.8271875 2.23177734-3.08285156 4.18722656-3.76816406-.22494141.19019531-.44748047.38748047-.69140625.63914062-2.52597656 2.60689453-2.46035156 6.77296875.14648437 9.29876953 2.60683594 2.52597654 6.77296878 2.46041014 9.29871098-.14648437z"/></g></g></g></g></g></svg>