<svg height="48" viewBox="0 0 48 48" width="48" xmlns="http://www.w3.org/2000/svg" xmlns:xlink="http://www.w3.org/1999/xlink"><defs><path id="a" d="m8 9h32c2.209139 0 4 1.790861 4 4v22c0 2.209139-1.790861 4-4 4h-32c-2.209139 0-4-1.790861-4-4v-22c0-2.209139 1.790861-4 4-4z"/><mask id="b" fill="#fff"><use fill="#fff" fill-rule="evenodd" xlink:href="#a"/></mask></defs><g fill="none" fill-rule="evenodd"><path d="m0 0h48v48h-48z"/><use fill="#d8d8d8" xlink:href="#a"/><g mask="url(#b)"><g transform="translate(4 9)"><path d="m16 0h24v30h-24z" fill="#f00" fill-rule="nonzero"/><path d="m0 0h16v30h-16z" fill="#060" fill-rule="nonzero"/><g style="stroke-linecap:round;stroke-linejoin:round;fill-rule:evenodd;stroke:#000;stroke-width:.1;fill:#ff0" transform="translate(9.25 8.25)"><path d="m11.966 10.886c-2.014-.060625-11.249375-5.8253125-11.3126875-6.7433125l.51-.8505c.9160625 1.3310625 10.3573125 6.937375 11.2846875 6.73875l-.482.8548125"/><path d="m1.056 3.1766875c-.180625.48625 2.41 2.087875 5.526875 3.9835625 3.116875 1.895625 5.804375 3.0670625 6.0035 2.8990625.0121875-.02175.098125-.169375.0901875-.16825-.037375.05625-.12825.074-.27.033125-.842125-.242875-3.038375-1.251-5.7583125-2.900375-2.719875-1.6495-5.08625-3.169625-5.4540625-3.8154375-.025625-.04475-.04375-.1264375-.040125-.19h-.0089375l-.0783125.136875-.0108125.021375zm10.9573125 7.736c-.034125.061875-.0978125.064-.21875.05075-.7533125-.083375-3.03925-1.195-5.744125-2.81425-3.147375-1.884-5.7466875-3.600625-5.4646875-4.049375l.07675-.135625.015125.00475c-.253625.7603125 5.1298125 3.8385625 5.44675 4.0348125 3.115 1.9298125 5.741 3.05675 5.9734375 2.763875l-.0845625.145375v-.000125z"/><path d="m6.76125 4.69875c2.015875-.016 4.5034375-.275625 5.935-.8460625l-.3085-.501125c-.846125.4683125-3.3473125.77625-5.6434375.8223125-2.7158125-.025-4.63275-.277875-5.593125-.9223125l-.29125.533625c1.765625.747125 3.574875.9058125 5.901375.9135"/><path d="m12.779375 3.864c-.049375.07875-.9829375.40075-2.35825.638375-.9325.142125-2.1489375.26375-3.666875.265125-1.44225.001375-2.620375-.10125-3.5123125-.2221875-1.44375-.226375-2.18875-.54125-2.46425-.652625.02625-.052375.04325-.089125.068625-.138125.793.3158125 1.541625.50625 2.418625.641125.8860625.12 2.05.2241875 3.485.222875 1.511-.0015625 2.714-.1323125 3.641125-.27025 1.4103125-.2275 2.18075-.52025 2.2889375-.65625l.0995625.172h-.000125zm-.27075-.508125c-.152875.1226875-.9145.3928125-2.2545625.606875-.894375.128125-2.0315.242875-3.484375.24425-1.38025.001375-2.5079375-.091625-3.365625-.2165625-1.3609375-.17775-2.0853125-.498375-2.3464375-.591875.026-.045.0525-.0895.079625-.13425.203125.10225.9021875.386 2.28175.5814375.848.12025 1.977375.209875 3.3508125.2084375 1.446-.0014375 2.5701875-.118375 3.45875-.245875 1.3470625-.1853125 2.071875-.5298125 2.181875-.6160625l.09825.163375v.0001875zm-12.366625 3.7714375c1.239875.666875 3.99375 1.0029375 6.599625 1.0260625 2.3726875.00375 5.46375-.36675 6.61975-.979375l-.031875-.667375c-.3615625.565125-3.674125 1.10725-6.613625 1.085-2.9395625-.022125-5.6691875-.476125-6.579125-1.063875l.00525.599375z"/><path d="m13.4246875 7.03125v.15925c-.17375.20775-1.263.5216875-2.629125.7428125-1.0396875.159375-2.3951875.279625-4.0841875.279625-1.6045625 0-2.8841875-.114375-3.8765-.26675-1.56875-.2285-2.572-.6285-2.7734375-.747875l.0009375-.185625c.605.4021875 2.2440625.696375 2.794375.7865.9859375.15125 2.2579375.264875 3.8545.264875 1.681125 0 3.0289375-.119375 4.062125-.27775.98-.141625 2.37625-.5098125 2.651125-.755zm.000625-.5660625v.1591875c-.173625.2075-1.263.5215625-2.6290625.742625-1.0396875.159375-2.395125.279625-4.084125.279625-1.604625 0-2.8841875-.11425-3.8765625-.26675-1.568625-.2283125-2.571875-.6283125-2.773375-.74775l.000875-.185625c.605.402125 2.2440625.6964375 2.7945.786375.985875.1514375 2.257875.265 3.854375.265 1.681125 0 3.029-.119375 4.062125-.277875.98-.1415625 2.37625-.50975 2.651125-.755v.0001875zm-6.6893125 4.3060625c-2.8514375-.016875-5.29475-.7771875-5.810625-.902875l.37625.589c.91125.3833125 3.294875.954625 5.46175.891375 2.166875-.063125 4.060625-.2310625 5.3951875-.88075l.38575-.6103125c-.9095625.4283125-4.004625.90925-5.8084375.913625z"/><path d="m12.3033125 10.33125c-.0562349.0861147-.1139518.1712523-.173125.255375-.629375.221875-1.62125.455-2.03975.5229375-.855.176125-2.1776875.30625-3.3515625.306875-2.526-.037-4.59375-.5315-5.5664375-.9533125l-.0785625-.135.0128125-.0201875.133125.051625c1.729875.618875 3.67275.8658125 5.513125.910125 1.169375.004125 2.33975-.134 3.28625-.30325 1.451375-.2908125 2.03825-.51 2.2183125-.609375l.045875-.025625zm.3345-.551625c.0014375.00175.0029375.003375.004375.0051875-.0430911.07280734-.0866964.14530916-.1308125.2175-.33575.12-1.246875.3865625-2.5773125.572625-.8765625.119375-1.4214375.235-3.16525.268875-3.267625-.083125-5.38325-.7220625-5.885875-.8796875l-.0745-.142875c1.89375.494375 3.828125.8395625 5.960625.8748125 1.5953125-.034 2.2740625-.1515 3.143375-.27 1.5514375-.24125 2.333125-.496625 2.5676875-.570375-.0032066-.00457525-.0066271-.00899682-.01025-.01325l.16825-.0628125-.000125.000125z"/><path d="m12.672 6.600625c.00925 1.8758125-.950625 3.559125-1.723875 4.3016875-1.093875 1.050625-2.5441875 1.7264375-4.2379375 1.7575-1.89125.0348125-3.674625-1.198125-4.153-1.739875-.9351875-1.0590625-1.6965625-2.403875-1.721-4.21625.1158125-2.0473125.9195-3.473375 2.0845-4.45125 1.165-.9779375 2.71625-1.45425 4.008125-1.4201875 1.4904375.039375 3.2315625.770625 4.4346875 2.222125.788125.95125 1.1295 1.9833125 1.3084375 3.54625zm-5.94575-6.4226875c3.632375 0 6.61975 2.955875 6.61975 6.5801875 0 3.6241875-2.987375 6.5801875-6.61975 6.5801875-3.6323125 0-6.595-2.9559375-6.595-6.58025 0-3.624375 2.9626875-6.58025 6.595-6.58025z"/><path d="m6.744.1553125c3.635625 0 6.60075 2.965625 6.60075 6.6015 0 3.6358125-2.9651875 6.60125-6.60075 6.60125-3.635625 0-6.60075-2.965375-6.60075-6.60125 0-3.636 2.9651875-6.6015625 6.60075-6.6015625zm-6.4554375 6.6015625c0 3.550625 2.915625 6.4560625 6.4554375 6.4560625s6.455625-2.9054375 6.455625-6.456125c0-3.550875-2.915875-6.45625-6.455625-6.45625s-6.4554375 2.905625-6.4554375 6.45625z"/><path d="m6.749375.704c3.315375 0 6.04625 2.721375 6.04625 6.046875 0 3.325625-2.7309375 6.046875-6.04625 6.046875-3.315375 0-6.04625-2.72125-6.04625-6.046875 0-3.3255 2.7309375-6.046875 6.04625-6.046875zm-5.9010625 6.046875c0 3.245625 2.6653125 5.901625 5.901 5.901625 3.235625 0 5.9009375-2.6559375 5.9009375-5.901625 0-3.245625-2.6651875-5.901625-5.901-5.901625-3.23575 0-5.9010625 2.6559375-5.9010625 5.901625z"/><path d="m7.0153125.12875h-.565625l.000625 13.2639375h.567625z"/><path d="m6.95875.0530625.143875.0000625.00125 13.416625h-.144125zm-.5615.0000625h.145125l.0001875 13.41675h-.1451875v-13.41675z"/><path d="m13.349375 7.0123125v-.4903125l-.399375-.372-2.2666875-.6-3.266625-.333375-3.933375.2-2.8.6666875-.5653125.41875v.490375l1.432-.6424375 3.4-.533375h3.2666875l2.4.2666875 1.666625.4z"/><path d="m6.7466875 5.7346875c1.558875-.002875 3.07125.1476875 4.271.38125 1.2379375.2475 2.109125.5570625 2.407.90475l-.000375.17225c-.35925-.4326875-1.5315625-.749875-2.4345625-.93125-1.190625-.2315625-2.692875-.381125-4.243125-.378125-1.635875.0029375-3.159125.157875-4.3323125.386875-.94125.1866875-2.1966875.55775-2.3534375.92375v-.17925c.0860625-.2533125 1.020875-.631875 2.33225-.894375 1.182-.230625 2.708125-.382875 4.3535625-.3858125zm.000625-.56625c1.558875-.00275 3.071375.147875 4.271.381375 1.2379375.247625 2.109125.5570625 2.407.90475l-.0003125.172125c-.35925-.4325-1.5315625-.7498125-2.4345625-.9310625-1.1905-.2316875-2.6928125-.38125-4.243125-.37825-1.635875.0029375-3.1516875.158-4.325.38675-.908375.17225-2.215.558-2.36075.924v-.179375c.0860625-.250625 1.03975-.64275 2.3323125-.894375 1.181875-.230625 2.708-.38275 4.3534375-.3858125zm-.032-2.8878125c2.456625-.01225 4.599375.3435 5.5796875.845625l.3575.61875c-.852-.45925-3.163625-.93675-5.9335625-.8653125-2.256875.013875-4.6685.2484375-5.8784375.894l.426875-.714c.993125-.515 3.334875-.77625 5.448125-.7789375z"/><path d="m6.748 2.79125c1.401125-.003625 2.755.075375 3.83175.2696875 1.0026875.186625 1.959.4666875 2.095625.6173125l.106125.187375c-.3325-.2171875-1.16-.4589375-2.222625-.6604375-1.0670625-.200625-2.42-.267-3.8133125-.2633125-1.5815625-.0054375-2.8101875.078125-3.8646875.261875-1.1151875.20875-1.8889375.506875-2.0798125.6484375l.103875-.198c.370875-.18925.959375-.4173125 1.94825-.5953125 1.0904375-.1991875 2.3321875-.2589375 3.8948125-.2675zm-.000625-.565625c1.340875-.0034375 2.6648125.07125 3.696875.256875.813875.158375 1.61875.40575 1.9135625.625875l.155.246375c-.2635625-.293-1.255625-.570625-2.1315625-.72625-1.0240625-.1765625-2.293-.2464375-3.633875-.257625-1.4071875.0039375-2.7076875.090125-3.716875.273875-.9626875.183125-1.5839375.400125-1.846875.5695l.1364375-.20575c.3628125-.191.948875-.366375 1.686875-.5098125 1.016625-.185125 2.325125-.269125 3.740625-.273125zm3.2793125 7.275c-1.2145625-.2266875-2.43125-.259625-3.281125-.249625-4.093875.048-5.416375.840625-5.57775 1.080625l-.3059375-.49875c1.0423125-.7555 3.2715625-1.179125 5.9058125-1.1358125 1.367875.022375 2.5483125.11325 3.54125.305625l-.282375.498125z"/><path d="m6.722 9.180625c1.13875.0170625 2.256625.0640625 3.335625.26525l-.07825.1379375c-1.0020625-.184875-2.0703125-.255625-3.2535-.25-1.510875-.01175-3.039.129375-4.369375.51125-.4198125.11675-1.11475.386625-1.185625.6096875l-.07775-.128125c.0225-.131875.4425-.4055 1.227625-.6260625 1.523875-.436375 2.94925-.51 4.40125-.52v.0001875zm.0516875-.573125c1.1798125.022125 2.39825.0766875 3.582625.31125l-.0813125.14375c-1.0695-.2123125-2.09125-.283125-3.494375-.3046875-1.515625.00275-3.123375.1108125-4.5851875.5358125-.471875.1375-1.2864375.4346875-1.313625.67l-.07775-.1376875c.0176875-.21375.7228125-.4925 1.3571875-.6770625 1.473125-.4283125 3.085-.5384375 4.6125-.54125z"/><path d="m12.58875 9.90875-.492.763125-1.4134375-1.2551875-3.666625-2.4666875-4.133375-2.2666875-2.146-.734.457375-.848125.1553125-.0845625 1.3333125.3333125 4.4 2.2666875 2.533375 1.6 2.1333125 1.533375.8666875 1z"/><path d="m.66 3.969375c.376375-.2553125 3.142625.976875 6.037 2.72225 2.88675 1.75025 5.645125 3.728125 5.396125 4.098125l-.081875.128875-.0375.029625c.008-.00575.0495-.0565-.004125-.19375-.123-.4046875-2.0796875-1.9660625-5.32625-3.92625-3.165-1.8873125-5.80275-3.0248125-6.0665-2.6996875l.083125-.15925zm12.029375 5.9284375c.2379375-.470125-2.32775-2.4029375-5.50875-4.2848125-3.254375-1.844375-5.5996875-2.93-6.028125-2.60625l-.095125.173125c-.000875.0095625.0034375-.01175.0235625-.02725.077875-.068.207-.0634375.26525-.064375.737625.0109375 2.844375.9805 5.800375 2.675125 1.2951875.754375 5.471375 3.4326875 5.4554375 4.1859375.001125.064625.005375.078-.019.11l.10625-.1615v-.0001875z"/></g><g fill="none" fill-rule="nonzero" transform="translate(12.000037 10.400048)"><path d="m.04000012 5.33401667c0 1.08467005.44420139 2.06580645 1.16380364 2.78280869.72100226.71853558 1.70080532 1.17200367 2.78734205 1.17200367 1.09200341 0 2.08307317-.44360139 2.80100875-1.15933696.71800224-.7156689 1.1628703-1.70347199 1.1630703-2.79200872h-.00013333v-5.27934983l-7.91602474-.00933337.0008 5.28521652z" fill="#fff" stroke="#000" stroke-width=".1"/><path d="m.18800059 5.34135002v.00300001c0 1.03713658.42933467 1.9816062 1.11833683 2.66734167.69026882.68693548 1.64093846 1.11400348 2.68094171 1.11400348 1.0453366 0 1.99400623-.42400132 2.68134171-1.10833679s1.11320348-1.62887176 1.11333681-2.66960835h-.00013333v-5.12174933l-7.58935705-.00133334-.00466668 5.11668265zm6.06795229-3.58321119.00026667 3.25934352-.00266667.34486774c0 .09066695-.00546669.19413394-.01600005.28220088-.06173353.51533495-.2986676.96446968-.64973537 1.31387077-.41093462.40906795-.97800305.66280208-1.60313834.66280208-.62173528 0-1.17587034-.26253416-1.5885383-.67333544-.42333466-.42133465-.66866876-.99906979-.66866876-1.59647166l-.00086666-3.60147792 4.52934748.00813336v.00013333z" fill="#f00" stroke="#000" stroke-width=".1"/><g transform="translate(3.380944 .266667)"><g fill="#ff0"><path d="m.07520024 1.26900397 1.09700342.00066666-.05000015-.42626799-1.0014698.00253334zm-.0185334.00166667h1.12973687c.02380007 0 .04333347.0235334.04333347.05226683 0 .02866675-.0195334.05200016-.04333347.05200016h-1.12973687c-.02380007 0-.04333346-.02333341-.04333346-.05200016 0-.02866676.01953339-.05226683.04333346-.05226683z"/><path d="m.08066692.67000635h1.08300338c.02280007 0 .04153347.02255319.04153347.05s-.01866673.04992908-.04153347.04992908h-1.08300338c-.02280007 0-.04153346-.02241135-.04153346-.05 0-.02744681.01866672-.05.04153346-.05zm.02266674.09466271h1.0358699c.02180007 0 .03966679.0225142.03966679.05 0 .02755681-.01786672.05-.03966679.05h-1.0358699c-.02180007 0-.03966679-.02244319-.03966679-.05 0-.0274858.01786672-.05.03966679-.05zm.33466771-.70600221.08180025.00013333v.05800019h.05966686v-.05933352l.08380026.00033333v.05913352h.05973352v-.05933352h.08386693l-.00013334.13400042c0 .0211334-.01693338.03466677-.03666678.03466677h-.29400092c-.01973339 0-.03800011-.01573338-.03800011-.03500011l-.00026667-.13266708zm.30800096.17933389.01846673.43000135-.28686757-.00100001.01900006-.43013467.24933411.00113333z"/><path d="m.39600124.4373347.00866669.23186739h-.27493419l.00773336-.23186739h.25866747z"/><path d="m.08666694.26933418.08000025.0002v.05813351h.05846685v-.05946685l.08200025.00026667v.05933351h.05866685v-.05960018l.08200026.00013333-.0002.13413375c0 .0209334-.01666672.03453345-.03573345.03453345h-.2878009c-.01933339 0-.03720011-.01566672-.03720011-.03500011z"/></g><path d="m.59335355.37400117c-.0026-.04180013.0877-.0422668.0866 0v.10240032h-.0866z" fill="#000"/><path d="m.23800101.5226683c-.0003-.04040013.0837-.04120013.0826 0v.07913358h-.0826v-.07913358l.38101759-.18938392" fill="#000"/><g transform="translate(.719019)"><path d="m.39600124.4373347.00866669.23186739h-.27493419l.00773336-.23186739h.25866747z" fill="#ff0"/><path d="m.08666694.26933418.08000025.0002v.05813351h.05846685v-.05946685l.08200025.00026667v.05933351h.05866685v-.05960018l.08200026.00013333-.0002.13413375c0 .0209334-.01666672.03453345-.03573345.03453345h-.2878009c-.01933339 0-.03720011-.01566672-.03720011-.03500011z" fill="#ff0"/><path d="m.23800101.5226683c-.0003-.04040013.0837-.04120013.0826 0v.07913358h-.0826v-.07913358l.38101759-.18938392" fill="#000"/></g></g><g transform="translate(6.380944 .266667)"><g fill="#ff0"><path d="m.07520024 1.26900397 1.09700342.00066666-.05000015-.42626799-1.0014698.00253334zm-.0185334.00166667h1.12973687c.02380007 0 .04333347.0235334.04333347.05226683 0 .02866675-.0195334.05200016-.04333347.05200016h-1.12973687c-.02380007 0-.04333346-.02333341-.04333346-.05200016 0-.02866676.01953339-.05226683.04333346-.05226683z"/><path d="m.08066692.67000635h1.08300338c.02280007 0 .04153347.02255319.04153347.05s-.01866673.04992908-.04153347.04992908h-1.08300338c-.02280007 0-.04153346-.02241135-.04153346-.05 0-.02744681.01866672-.05.04153346-.05zm.02266674.09466271h1.0358699c.02180007 0 .03966679.0225142.03966679.05 0 .02755681-.01786672.05-.03966679.05h-1.0358699c-.02180007 0-.03966679-.02244319-.03966679-.05 0-.0274858.01786672-.05.03966679-.05zm.33466771-.70600221.08180025.00013333v.05800019h.05966686v-.05933352l.08380026.00033333v.05913352h.05973352v-.05933352h.08386693l-.00013334.13400042c0 .0211334-.01693338.03466677-.03666678.03466677h-.29400092c-.01973339 0-.03800011-.01573338-.03800011-.03500011l-.00026667-.13266708zm.30800096.17933389.01846673.43000135-.28686757-.00100001.01900006-.43013467.24933411.00113333z"/><path d="m.39600124.4373347.00866669.23186739h-.27493419l.00773336-.23186739h.25866747z"/><path d="m.08666694.26933418.08000025.0002v.05813351h.05846685v-.05946685l.08200025.00026667v.05933351h.05866685v-.05960018l.08200026.00013333-.0002.13413375c0 .0209334-.01666672.03453345-.03573345.03453345h-.2878009c-.01933339 0-.03720011-.01566672-.03720011-.03500011z"/></g><path d="m.59335355.37400117c-.0026-.04180013.0877-.0422668.0866 0v.10240032h-.0866z" fill="#000"/><path d="m.23800101.5226683c-.0003-.04040013.0837-.04120013.0826 0v.07913358h-.0826v-.07913358l.38101759-.18938392" fill="#000"/><g transform="translate(.719019)"><path d="m.39600124.4373347.00866669.23186739h-.27493419l.00773336-.23186739h.25866747z" fill="#ff0"/><path d="m.08666694.26933418.08000025.0002v.05813351h.05846685v-.05946685l.08200025.00026667v.05933351h.05866685v-.05960018l.08200026.00013333-.0002.13413375c0 .0209334-.01666672.03453345-.03573345.03453345h-.2878009c-.01933339 0-.03720011-.01566672-.03720011-.03500011z" fill="#ff0"/><path d="m.23800101.5226683c-.0003-.04040013.0837-.04120013.0826 0v.07913358h-.0826v-.07913358l.38101759-.18938392" fill="#000"/></g></g><g transform="translate(.380944 .266667)"><g fill="#ff0"><path d="m.07520024 1.26900397 1.09700342.00066666-.05000015-.42626799-1.0014698.00253334zm-.0185334.00166667h1.12973687c.02380007 0 .04333347.0235334.04333347.05226683 0 .02866675-.0195334.05200016-.04333347.05200016h-1.12973687c-.02380007 0-.04333346-.02333341-.04333346-.05200016 0-.02866676.01953339-.05226683.04333346-.05226683z"/><path d="m.08066692.67000635h1.08300338c.02280007 0 .04153347.02255319.04153347.05s-.01866673.04992908-.04153347.04992908h-1.08300338c-.02280007 0-.04153346-.02241135-.04153346-.05 0-.02744681.01866672-.05.04153346-.05zm.02266674.09466271h1.0358699c.02180007 0 .03966679.0225142.03966679.05 0 .02755681-.01786672.05-.03966679.05h-1.0358699c-.02180007 0-.03966679-.02244319-.03966679-.05 0-.0274858.01786672-.05.03966679-.05zm.33466771-.70600221.08180025.00013333v.05800019h.05966686v-.05933352l.08380026.00033333v.05913352h.05973352v-.05933352h.08386693l-.00013334.13400042c0 .0211334-.01693338.03466677-.03666678.03466677h-.29400092c-.01973339 0-.03800011-.01573338-.03800011-.03500011l-.00026667-.13266708zm.30800096.17933389.01846673.43000135-.28686757-.00100001.01900006-.43013467.24933411.00113333z"/><path d="m.39600124.4373347.00866669.23186739h-.27493419l.00773336-.23186739h.25866747z"/><path d="m.08666694.26933418.08000025.0002v.05813351h.05846685v-.05946685l.08200025.00026667v.05933351h.05866685v-.05960018l.08200026.00013333-.0002.13413375c0 .0209334-.01666672.03453345-.03573345.03453345h-.2878009c-.01933339 0-.03720011-.01566672-.03720011-.03500011z"/></g><path d="m.59335355.37400117c-.0026-.04180013.0877-.0422668.0866 0v.10240032h-.0866z" fill="#000"/><path d="m.23800101.5226683c-.0003-.04040013.0837-.04120013.0826 0v.07913358h-.0826v-.07913358l.38101759-.18938392" fill="#000"/><g transform="translate(.719019)"><path d="m.39600124.4373347.00866669.23186739h-.27493419l.00773336-.23186739h.25866747z" fill="#ff0"/><path d="m.08666694.26933418.08000025.0002v.05813351h.05846685v-.05946685l.08200025.00026667v.05933351h.05866685v-.05960018l.08200026.00013333-.0002.13413375c0 .0209334-.01666672.03453345-.03573345.03453345h-.2878009c-.01933339 0-.03720011-.01566672-.03720011-.03500011z" fill="#ff0"/><path d="m.23800101.5226683c-.0003-.04040013.0837-.04120013.0826 0v.07913358h-.0826v-.07913358l.38101759-.18938392" fill="#000"/></g></g><g transform="translate(6.380944 3.499951)"><g fill="#ff0"><path d="m.07520024 1.26900397 1.09700342.00066666-.05000015-.42626799-1.0014698.00253334zm-.0185334.00166667h1.12973687c.02380007 0 .04333347.0235334.04333347.05226683 0 .02866675-.0195334.05200016-.04333347.05200016h-1.12973687c-.02380007 0-.04333346-.02333341-.04333346-.05200016 0-.02866676.01953339-.05226683.04333346-.05226683z"/><path d="m.08066692.67000635h1.08300338c.02280007 0 .04153347.02255319.04153347.05s-.01866673.04992908-.04153347.04992908h-1.08300338c-.02280007 0-.04153346-.02241135-.04153346-.05 0-.02744681.01866672-.05.04153346-.05zm.02266674.09466271h1.0358699c.02180007 0 .03966679.0225142.03966679.05 0 .02755681-.01786672.05-.03966679.05h-1.0358699c-.02180007 0-.03966679-.02244319-.03966679-.05 0-.0274858.01786672-.05.03966679-.05zm.33466771-.70600221.08180025.00013333v.05800019h.05966686v-.05933352l.08380026.00033333v.05913352h.05973352v-.05933352h.08386693l-.00013334.13400042c0 .0211334-.01693338.03466677-.03666678.03466677h-.29400092c-.01973339 0-.03800011-.01573338-.03800011-.03500011l-.00026667-.13266708zm.30800096.17933389.01846673.43000135-.28686757-.00100001.01900006-.43013467.24933411.00113333z"/><path d="m.39600124.4373347.00866669.23186739h-.27493419l.00773336-.23186739h.25866747z"/><path d="m.08666694.26933418.08000025.0002v.05813351h.05846685v-.05946685l.08200025.00026667v.05933351h.05866685v-.05960018l.08200026.00013333-.0002.13413375c0 .0209334-.01666672.03453345-.03573345.03453345h-.2878009c-.01933339 0-.03720011-.01566672-.03720011-.03500011z"/></g><path d="m.59335355.37400117c-.0026-.04180013.0877-.0422668.0866 0v.10240032h-.0866z" fill="#000"/><path d="m.23800101.5226683c-.0003-.04040013.0837-.04120013.0826 0v.07913358h-.0826v-.07913358l.38101759-.18938392" fill="#000"/><g transform="translate(.719019)"><path d="m.39600124.4373347.00866669.23186739h-.27493419l.00773336-.23186739h.25866747z" fill="#ff0"/><path d="m.08666694.26933418.08000025.0002v.05813351h.05846685v-.05946685l.08200025.00026667v.05933351h.05866685v-.05960018l.08200026.00013333-.0002.13413375c0 .0209334-.01666672.03453345-.03573345.03453345h-.2878009c-.01933339 0-.03720011-.01566672-.03720011-.03500011z" fill="#ff0"/><path d="m.23800101.5226683c-.0003-.04040013.0837-.04120013.0826 0v.07913358h-.0826v-.07913358l.38101759-.18938392" fill="#000"/></g></g><g transform="translate(.380944 3.499951)"><g fill="#ff0"><path d="m.07520024 1.26900397 1.09700342.00066666-.05000015-.42626799-1.0014698.00253334zm-.0185334.00166667h1.12973687c.02380007 0 .04333347.0235334.04333347.05226683 0 .02866675-.0195334.05200016-.04333347.05200016h-1.12973687c-.02380007 0-.04333346-.02333341-.04333346-.05200016 0-.02866676.01953339-.05226683.04333346-.05226683z"/><path d="m.08066692.67000635h1.08300338c.02280007 0 .04153347.02255319.04153347.05s-.01866673.04992908-.04153347.04992908h-1.08300338c-.02280007 0-.04153346-.02241135-.04153346-.05 0-.02744681.01866672-.05.04153346-.05zm.02266674.09466271h1.0358699c.02180007 0 .03966679.0225142.03966679.05 0 .02755681-.01786672.05-.03966679.05h-1.0358699c-.02180007 0-.03966679-.02244319-.03966679-.05 0-.0274858.01786672-.05.03966679-.05zm.33466771-.70600221.08180025.00013333v.05800019h.05966686v-.05933352l.08380026.00033333v.05913352h.05973352v-.05933352h.08386693l-.00013334.13400042c0 .0211334-.01693338.03466677-.03666678.03466677h-.29400092c-.01973339 0-.03800011-.01573338-.03800011-.03500011l-.00026667-.13266708zm.30800096.17933389.01846673.43000135-.28686757-.00100001.01900006-.43013467.24933411.00113333z"/><path d="m.39600124.4373347.00866669.23186739h-.27493419l.00773336-.23186739h.25866747z"/><path d="m.08666694.26933418.08000025.0002v.05813351h.05846685v-.05946685l.08200025.00026667v.05933351h.05866685v-.05960018l.08200026.00013333-.0002.13413375c0 .0209334-.01666672.03453345-.03573345.03453345h-.2878009c-.01933339 0-.03720011-.01566672-.03720011-.03500011z"/></g><path d="m.59335355.37400117c-.0026-.04180013.0877-.0422668.0866 0v.10240032h-.0866z" fill="#000"/><path d="m.23800101.5226683c-.0003-.04040013.0837-.04120013.0826 0v.07913358h-.0826v-.07913358l.38101759-.18938392" fill="#000"/><g transform="translate(.719019)"><path d="m.39600124.4373347.00866669.23186739h-.27493419l.00773336-.23186739h.25866747z" fill="#ff0"/><path d="m.08666694.26933418.08000025.0002v.05813351h.05846685v-.05946685l.08200025.00026667v.05933351h.05866685v-.05960018l.08200026.00013333-.0002.13413375c0 .0209334-.01666672.03453345-.03573345.03453345h-.2878009c-.01933339 0-.03720011-.01566672-.03720011-.03500011z" fill="#ff0"/><path d="m.23800101.5226683c-.0003-.04040013.0837-.04120013.0826 0v.07913358h-.0826v-.07913358l.38101759-.18938392" fill="#000"/></g></g><g transform="matrix(.81915204 .57357644 -.57357644 .81915204 6.225792 6.199952)"><g fill="#ff0"><path d="m.07520024 1.26900397 1.09700342.00066666-.05000015-.42626799-1.0014698.00253334zm-.0185334.00166667h1.12973687c.02380007 0 .04333347.0235334.04333347.05226683 0 .02866675-.0195334.05200016-.04333347.05200016h-1.12973687c-.02380007 0-.04333346-.02333341-.04333346-.05200016 0-.02866676.01953339-.05226683.04333346-.05226683z"/><path d="m.08066692.67000635h1.08300338c.02280007 0 .04153347.02255319.04153347.05s-.01866673.04992908-.04153347.04992908h-1.08300338c-.02280007 0-.04153346-.02241135-.04153346-.05 0-.02744681.01866672-.05.04153346-.05zm.02266674.09466271h1.0358699c.02180007 0 .03966679.0225142.03966679.05 0 .02755681-.01786672.05-.03966679.05h-1.0358699c-.02180007 0-.03966679-.02244319-.03966679-.05 0-.0274858.01786672-.05.03966679-.05zm.33466771-.70600221.08180025.00013333v.05800019h.05966686v-.05933352l.08380026.00033333v.05913352h.05973352v-.05933352h.08386693l-.00013334.13400042c0 .0211334-.01693338.03466677-.03666678.03466677h-.29400092c-.01973339 0-.03800011-.01573338-.03800011-.03500011l-.00026667-.13266708zm.30800096.17933389.01846673.43000135-.28686757-.00100001.01900006-.43013467.24933411.00113333z"/><path d="m.39600124.4373347.00866669.23186739h-.27493419l.00773336-.23186739h.25866747z"/><path d="m.08666694.26933418.08000025.0002v.05813351h.05846685v-.05946685l.08200025.00026667v.05933351h.05866685v-.05960018l.08200026.00013333-.0002.13413375c0 .0209334-.01666672.03453345-.03573345.03453345h-.2878009c-.01933339 0-.03720011-.01566672-.03720011-.03500011z"/></g><path d="m.59335355.37400117c-.0026-.04180013.0877-.0422668.0866 0v.10240032h-.0866z" fill="#000"/><path d="m.23800101.5226683c-.0003-.04040013.0837-.04120013.0826 0v.07913358h-.0826v-.07913358l.38101759-.18938392" fill="#000"/><g transform="translate(.719019)"><path d="m.39600124.4373347.00866669.23186739h-.27493419l.00773336-.23186739h.25866747z" fill="#ff0"/><path d="m.08666694.26933418.08000025.0002v.05813351h.05846685v-.05946685l.08200025.00026667v.05933351h.05866685v-.05960018l.08200026.00013333-.0002.13413375c0 .0209334-.01666672.03453345-.03573345.03453345h-.2878009c-.01933339 0-.03720011-.01566672-.03720011-.03500011z" fill="#ff0"/><path d="m.23800101.5226683c-.0003-.04040013.0837-.04120013.0826 0v.07913358h-.0826v-.07913358l.38101759-.18938392" fill="#000"/></g></g><g transform="matrix(.81915204 -.57357644 .57357644 .81915204 .699962 6.920682)"><g fill="#ff0"><path d="m.07520024 1.26900397 1.09700342.00066666-.05000015-.42626799-1.0014698.00253334zm-.0185334.00166667h1.12973687c.02380007 0 .04333347.0235334.04333347.05226683 0 .02866675-.0195334.05200016-.04333347.05200016h-1.12973687c-.02380007 0-.04333346-.02333341-.04333346-.05200016 0-.02866676.01953339-.05226683.04333346-.05226683z"/><path d="m.08066692.67000635h1.08300338c.02280007 0 .04153347.02255319.04153347.05s-.01866673.04992908-.04153347.04992908h-1.08300338c-.02280007 0-.04153346-.02241135-.04153346-.05 0-.02744681.01866672-.05.04153346-.05zm.02266674.09466271h1.0358699c.02180007 0 .03966679.0225142.03966679.05 0 .02755681-.01786672.05-.03966679.05h-1.0358699c-.02180007 0-.03966679-.02244319-.03966679-.05 0-.0274858.01786672-.05.03966679-.05zm.33466771-.70600221.08180025.00013333v.05800019h.05966686v-.05933352l.08380026.00033333v.05913352h.05973352v-.05933352h.08386693l-.00013334.13400042c0 .0211334-.01693338.03466677-.03666678.03466677h-.29400092c-.01973339 0-.03800011-.01573338-.03800011-.03500011l-.00026667-.13266708zm.30800096.17933389.01846673.43000135-.28686757-.00100001.01900006-.43013467.24933411.00113333z"/><path d="m.39600124.4373347.00866669.23186739h-.27493419l.00773336-.23186739h.25866747z"/><path d="m.08666694.26933418.08000025.0002v.05813351h.05846685v-.05946685l.08200025.00026667v.05933351h.05866685v-.05960018l.08200026.00013333-.0002.13413375c0 .0209334-.01666672.03453345-.03573345.03453345h-.2878009c-.01933339 0-.03720011-.01566672-.03720011-.03500011z"/></g><path d="m.59335355.37400117c-.0026-.04180013.0877-.0422668.0866 0v.10240032h-.0866z" fill="#000"/><path d="m.23800101.5226683c-.0003-.04040013.0837-.04120013.0826 0v.07913358h-.0826v-.07913358l.38101759-.18938392" fill="#000"/><g transform="translate(.719019)"><path d="m.39600124.4373347.00866669.23186739h-.27493419l.00773336-.23186739h.25866747z" fill="#ff0"/><path d="m.08666694.26933418.08000025.0002v.05813351h.05846685v-.05946685l.08200025.00026667v.05933351h.05866685v-.05960018l.08200026.00013333-.0002.13413375c0 .0209334-.01666672.03453345-.03573345.03453345h-.2878009c-.01933339 0-.03720011-.01566672-.03720011-.03500011z" fill="#ff0"/><path d="m.23800101.5226683c-.0003-.04040013.0837-.04120013.0826 0v.07913358h-.0826v-.07913358l.38101759-.18938392" fill="#000"/></g></g><g transform="translate(3.466678 4.000013)"><path d="m.04240013.76040238v.00033333c-.00055258.14053799.05213633.2760714.14746713.37933452.09100028.09780031.21633401.15853383.35346777.15853383.13780043 0 .26293416-.06033352.35353444-.15766716.09053362-.09733364.14680046-.23146739.14680046-.37953452v-.71786891l-.99946979-.00086667-.00186667.71766891" fill="#039"/><g fill="#fff"><circle cx=".422534" cy=".466601" r="1"/><circle cx=".977069" cy=".467067" r="1"/><circle cx=".699268" cy=".733268" r="1"/><circle cx=".422534" cy="1.012002" r="1"/><circle cx=".976469" cy="1.011269" r="1"/></g></g><g transform="translate(3.466678 2.265607)"><path d="m.04240013.76040238v.00033333c-.00055258.14053799.05213633.2760714.14746713.37933452.09100028.09780031.21633401.15853383.35346777.15853383.13780043 0 .26293416-.06033352.35353444-.15766716.09053362-.09733364.14680046-.23146739.14680046-.37953452v-.71786891l-.99946979-.00086667-.00186667.71766891" fill="#039"/><g fill="#fff"><circle cx=".422534" cy=".466601" r="1"/><circle cx=".977069" cy=".467067" r="1"/><circle cx=".699268" cy=".733268" r="1"/><circle cx=".422534" cy="1.012002" r="1"/><circle cx=".976469" cy="1.011269" r="1"/></g></g><g transform="translate(2.080073 4.000013)"><path d="m.04240013.76040238v.00033333c-.00055258.14053799.05213633.2760714.14746713.37933452.09100028.09780031.21633401.15853383.35346777.15853383.13780043 0 .26293416-.06033352.35353444-.15766716.09053362-.09733364.14680046-.23146739.14680046-.37953452v-.71786891l-.99946979-.00086667-.00186667.71766891" fill="#039"/><g fill="#fff"><circle cx=".422534" cy=".466601" r="1"/><circle cx=".977069" cy=".467067" r="1"/><circle cx=".699268" cy=".733268" r="1"/><circle cx=".422534" cy="1.012002" r="1"/><circle cx=".976469" cy="1.011269" r="1"/></g></g><g transform="translate(4.849682 4.000013)"><path d="m.04240013.76040238v.00033333c-.00055258.14053799.05213633.2760714.14746713.37933452.09100028.09780031.21633401.15853383.35346777.15853383.13780043 0 .26293416-.06033352.35353444-.15766716.09053362-.09733364.14680046-.23146739.14680046-.37953452v-.71786891l-.99946979-.00086667-.00186667.71766891" fill="#039"/><g fill="#fff"><circle cx=".422534" cy=".466601" r="1"/><circle cx=".977069" cy=".467067" r="1"/><circle cx=".699268" cy=".733268" r="1"/><circle cx=".422534" cy="1.012002" r="1"/><circle cx=".976469" cy="1.011269" r="1"/></g></g><g transform="translate(3.466678 5.718951)"><path d="m.04240013.76040238v.00033333c-.00055258.14053799.05213633.2760714.14746713.37933452.09100028.09780031.21633401.15853383.35346777.15853383.13780043 0 .26293416-.06033352.35353444-.15766716.09053362-.09733364.14680046-.23146739.14680046-.37953452v-.71786891l-.99946979-.00086667-.00186667.71766891" fill="#039"/><g fill="#fff"><circle cx=".422534" cy=".466601" r="1"/><circle cx=".977069" cy=".467067" r="1"/><circle cx=".699268" cy=".733268" r="1"/><circle cx=".422534" cy="1.012002" r="1"/><circle cx=".976469" cy="1.011269" r="1"/></g></g></g></g></g></g></svg>