<svg height="48" viewBox="0 0 48 48" width="48" xmlns="http://www.w3.org/2000/svg" xmlns:xlink="http://www.w3.org/1999/xlink"><defs><path id="a" d="m8 9h32c2.209139 0 4 1.790861 4 4v22c0 2.209139-1.790861 4-4 4h-32c-2.209139 0-4-1.790861-4-4v-22c0-2.209139 1.790861-4 4-4z"/><mask id="b" fill="#fff"><use fill="#fff" fill-rule="evenodd" xlink:href="#a"/></mask></defs><g fill="none" fill-rule="evenodd"><path d="m0 0h48v48h-48z"/><use fill="#d8d8d8" xlink:href="#a"/><g mask="url(#b)"><g transform="translate(4 9)"><path d="m0 0h40v30h-40z" fill="#fff" fill-rule="nonzero"/><path d="m4 .5c-1.93299662 0-3.5 1.56700338-3.5 3.5v22c0 1.9329966 1.56700338 3.5 3.5 3.5h32c1.9329966 0 3.5-1.5670034 3.5-3.5v-22c0-1.93299662-1.5670034-3.5-3.5-3.5z" fill="none" stroke="#dedede"/><g fill-rule="nonzero"><path d="m0 10.0001875h40v19.9998125h-40z" fill="#0039a6"/><path d="m0 19.9998125h40v10.0001875h-40z" fill="#d52b1e"/></g></g></g></g></svg>