<svg height="48" viewBox="0 0 48 48" width="48" xmlns="http://www.w3.org/2000/svg" xmlns:xlink="http://www.w3.org/1999/xlink"><defs><path id="a" d="m8 9h32c2.209139 0 4 1.790861 4 4v22c0 2.209139-1.790861 4-4 4h-32c-2.209139 0-4-1.790861-4-4v-22c0-2.209139 1.790861-4 4-4z"/><mask id="b" fill="#fff"><use fill="#fff" fill-rule="evenodd" xlink:href="#a"/></mask></defs><g fill="none" fill-rule="evenodd"><path d="m0 0h48v48h-48z"/><use fill="#d8d8d8" xlink:href="#a"/><g fill-rule="nonzero" mask="url(#b)"><g transform="translate(4 9)"><path d="m0 0h14.375v12.0074813h-14.375zm0 17.9924014h14.375v12.0075986h-14.375z" fill="#006aa7"/><path d="m14.375 0h6v29.9998242h-6z" fill="#fecc00"/><path d="m0 12.0124805h40v6h-40z" fill="#fecc00"/><path d="m20.375 17.9931406h19.625v12.0068594h-19.625zm0-17.9931406h19.625v12.0068008h-19.625z" fill="#006aa7"/></g></g></g></svg>