<svg height="48" viewBox="0 0 48 48" width="48" xmlns="http://www.w3.org/2000/svg" xmlns:xlink="http://www.w3.org/1999/xlink"><defs><path id="a" d="m8 9h32c2.209139 0 4 1.790861 4 4v22c0 2.209139-1.790861 4-4 4h-32c-2.209139 0-4-1.790861-4-4v-22c0-2.209139 1.790861-4 4-4z"/><mask id="b" fill="#fff"><use fill="#fff" fill-rule="evenodd" xlink:href="#a"/></mask><mask id="c" fill="#fff"><path d="m0 0h40v30h-40z" fill="#fff" fill-rule="evenodd"/></mask></defs><g fill="none" fill-rule="evenodd"><path d="m0 0h48v48h-48z"/><use fill="#d8d8d8" xlink:href="#a"/><g mask="url(#b)"><g fill="none" fill-rule="evenodd" mask="url(#c)" transform="translate(4 9)"><g transform="translate(-1.25)"><path d="m0 0h45v30h-45z" fill="#fff" fill-rule="nonzero"/><path d="m4 .5c-1.93299662 0-3.5 1.56700338-3.5 3.5v22c0 1.9329966 1.56700338 3.5 3.5 3.5h32c1.9329966 0 3.5-1.5670034 3.5-3.5v-22c0-1.93299662-1.5670034-3.5-3.5-3.5z" fill="none" stroke="#dedede" transform="translate(1.25)"/><g fill-rule="nonzero"><path d="m0 0h45v15h-45z" fill="#df0000"/><path d="m10.378125 2.5141875c-2.0776875.476375-3.6215 2.0148125-4.0579375 4.1063125-.593 2.8418125 1.25775 5.624375 4.1054375 6.218-2.8769375.8203125-5.849375-.83325-6.662125-3.68325-.81225-2.85.84125-5.8225 3.6914375-6.635125 1.0004375-.2853125 1.9215625-.287125 2.9233125-.0059375z" fill="#fff"/><path d="m9.56125 6.8720625.305875.9449375-.80825-.576875-.804375.5823125.2989375-.9465-.8020625-.584625.99225-.0085625.30825-.944125.3144375.9418125.9930625.0015625zm1.0974375 3.2536875.305875.9449375-.80825-.576875-.804375.5823125.2989375-.9464375-.8020625-.5846875.9923125-.0085625.3081875-.944125.3145.941875.993.0015zm3.6515625-.0234375.305875.9449375-.80825-.576875-.804375.5823125.2989375-.9464375-.8020625-.5846875.9923125-.0085625.3081875-.944125.3145.941875.993.0015zm1.08925-3.2273125.305875.944875-.80825-.576875-.804375.5823125.2989375-.9464375-.8020625-.584625.9923125-.0085625.30825-.944125.314375.9418125.993125.0015625zm-2.891-2.141.305875.944875-.80825-.576875-.804375.5823125.2989375-.9464375-.8020625-.5846875.99225-.0085.30825-.944125.3145.94175.993.0015625z" fill="#fff"/></g></g></g></g></g></svg>