<svg height="48" viewBox="0 0 48 48" width="48" xmlns="http://www.w3.org/2000/svg" xmlns:xlink="http://www.w3.org/1999/xlink"><defs><path id="a" d="m8 9h32c2.209139 0 4 1.790861 4 4v22c0 2.209139-1.790861 4-4 4h-32c-2.209139 0-4-1.790861-4-4v-22c0-2.209139 1.790861-4 4-4z"/><mask id="b" fill="#fff"><use fill="#fff" fill-rule="evenodd" xlink:href="#a"/></mask></defs><g fill="none" fill-rule="evenodd"><path d="m0 0h48v48h-48z"/><use fill="#d8d8d8" xlink:href="#a"/><g mask="url(#b)"><g transform="translate(4 9)"><path d="m0 0h40v30h-40z" fill="#fff" fill-rule="nonzero"/><path d="m4 .5c-1.93299662 0-3.5 1.56700338-3.5 3.5v22c0 1.9329966 1.56700338 3.5 3.5 3.5h32c1.9329966 0 3.5-1.5670034 3.5-3.5v-22c0-1.93299662-1.5670034-3.5-3.5-3.5z" fill="none" stroke="#dedede"/><g fill-rule="nonzero"><path d="m0 19.9375h40v10.0001953h-40z" fill="#de2918"/><path d="m0 10.0001953h40v10.0001953h-40z" fill="#08399c"/><path d="m17.0138672 5.4478125c-.2355469 3.61236328-.3704297 5.5919531-.9204492 6.5080078-.5947266.9837305-1.1733399 1.7039649-3.4939453 2.571211-2.3208985-.8677735-2.89921879-1.5878907-3.49412114-2.5716797-.55001953-.9158203-.68496094-2.89511722-.92044922-6.50742191l.34294922-.11548828c.69041016-.21058594 1.20550781-.37992188 1.58654294-.45509766.5456836-.11548828 1.0094532-.24609375 2.4759961-.27667969 1.466543.02519532 1.9325977.16388672 2.4782813.279375.3779297.08056641.9150586.2391211 1.6003125.45375l.3447656.11414063z" fill="#de2918"/><path d="m16.6757812 5.32939453c-.2227734 3.60457031-.4091601 5.25527347-.6997851 6.04921877-.5640234 1.3589648-1.4569922 2.1040429-3.3788086 2.8147265-1.921875-.7113281-2.81484375-1.4566406-3.37875-2.8154296-.29068359-.7933594-.47431641-2.43984379-.69070312-6.05273442.67582031-.21105469 1.20568359-.37605469 1.58671872-.45117187.5456836-.11554688 1.0094532-.25160157 2.4759961-.27685547 1.466543.0252539 1.9357617.16130859 2.4814453.27679687.3810352.07517578.9217969.24011719 1.6038867.45486328z" fill="#08399c"/><path d="m12.5953125 6.43300781.092168.21814453.4048828.05548829-.2623828.15820312.2537109.16957031-.3690234.06181641-.1122657.19769531-.1263281-.20355469-.3512695-.04980468.2390625-.17332032-.2460938-.15767578.3887696-.05958984z" fill="#fc0"/><path d="m15.8367187 10.5246094-.224414-.1774219-.1622461-.2668359-.3176953-.27562504-.165586-.27849609-.3177539-.28429688-.1554492-.27849609-.1689258-.13634766-.1115039-.10734375-.2870508.25166016-.1564453.27333984-.1948828.17671875-.2141601-.16722656-.1618946-.28517578-.6010547-1.06740234-.6011718 1.06740234-.1618946.28517578-.2141015.16722656-.1949414-.17671875-.1564453-.27333984-.2869922-.25166016-.1115625.10734375-.1689258.13640625-.1554492.2784375-.3177539.28429688-.1655274.27849609-.31775388.27562504-.1621875.2668359-.22388672.181582c.11625.9894141.7469531 1.7646094 1.0906055 2.1192188.3834961.3723633 1.1741601.8705859 2.1410156 1.2003515.9696094-.3227343 1.7712305-.8279882 2.1547266-1.2003515.3436523-.3546094.9743554-1.1298047 1.0913086-2.1233789z" fill="#fff"/><path d="m13.5615234 4.91542969.092168.21814453.4048828.05548828-.2623828.15820313.2537109.16957031-.3690234.0618164-.1122656.19769532-.1263281-.20355469-.3512696-.04980469.2390625-.17332031-.2460937-.15767578.3887695-.05958985zm-1.9324218-.00328125.0921679.21814453.4048828.05548828-.2623828.15820312.253711.16957032-.3690235.0618164-.1122656.19769532-.1263281-.20355469-.3512696-.04980469.2390626-.17332031-.2460938-.15767578.3887695-.05958985z" fill="#fc0"/><path d="m15.3351562 11.8962891-.4375781.0013476-.4038281-.0300586-.4891406-.2398828-.5513086.0032813-.4774805.2332617-.376582.0333398-.3766406-.0333398-.4774219-.2332031-.5513672-.0033399-.489082.2398828-.4038282.0300586-.4430859-.0060937-.21398437-.3625196.00796875-.0083203.65460942.1082813.4037695-.03.4891406-.2399414.5513672.0033398.4774219.2332617.376582.0332813.3766406-.0332813.4774219-.2332617.5513672-.0033398.489082.2399414.4038281.03.6371485-.1116797.0084375.0167578zm-5.0666015.5572265.4331836-.0300586.4891406-.2398828.5513086.0033399.4774219.2332031.3766406.0333398.376582-.0332812.4774805-.2332617.5513672-.0033399.489082.2398828.439043.0300586.2833008-.3492187-.0095508-.0079102-.3035156.0884766-.4038282-.03-.489082-.2398828-.5513672.0032812-.4774219.2332617-.3766406.0333399-.376582-.0333399-.4774805-.2332031-.5513086-.0033398-.489082.2398828-.4038281.0300586-.2974805-.075-.0035742.0146484z" fill="#08399c"/></g></g></g></g></svg>