<svg height="48" viewBox="0 0 48 48" width="48" xmlns="http://www.w3.org/2000/svg" xmlns:xlink="http://www.w3.org/1999/xlink"><defs><path id="a" d="m8 9h32c2.209139 0 4 1.790861 4 4v22c0 2.209139-1.790861 4-4 4h-32c-2.209139 0-4-1.790861-4-4v-22c0-2.209139 1.790861-4 4-4z"/><mask id="b" fill="#fff"><use fill="#fff" fill-rule="evenodd" xlink:href="#a"/></mask></defs><g fill="none" fill-rule="evenodd"><path d="m0 0h48v48h-48z"/><use fill="#d8d8d8" xlink:href="#a"/><g mask="url(#b)"><g transform="translate(4 9)"><path d="m0 0h40v30h-40z" fill="#ee1c25" fill-rule="nonzero"/><path d="m0 0h40v20h-40z" fill="#0b4ea2" fill-rule="nonzero"/><path d="m0 0h40v10h-40z" fill="#fff" fill-rule="nonzero"/><path d="m4 .5c-1.93299662 0-3.5 1.56700338-3.5 3.5v22c0 1.9329966 1.56700338 3.5 3.5 3.5h32c1.9329966 0 3.5-1.5670034 3.5-3.5v-22c0-1.93299662-1.5670034-3.5-3.5-3.5z" fill="none" stroke="#dedede"/><path d="m0 10h40v10h-40z" fill="#0b4ea2" fill-rule="evenodd"/><path d="m0 20h40v10h-40z" fill="#ee1c25" fill-rule="evenodd"/><g fill-rule="nonzero"><path d="m14.56275 23.175c-2.6890625-1.29525-6.5355-3.866125-6.5355-8.951625 0-5.085625.243125-7.398375.243125-7.398375h12.584875s.2431875 2.3128125.2431875 7.398375c0 5.0855-3.8464375 7.656375-6.5356875 8.951625z" fill="#fff"/><path d="m14.56275 22.5c-2.467-1.1883125-5.995875-3.546875-5.995875-8.2125 0-4.6656875.223125-6.7875.223125-6.7875h11.545625s.223125 2.121875.223125 6.7875-3.528875 7.0241875-5.996 8.2125z" fill="#ee1c25"/><path d="m15.090375 13.0641875c.668.0108125 1.97125.0369375 3.1318125-.351375 0 0-.030625.4153125-.030625.8990625 0 .483875.030625.899125.030625.899125-1.0645-.35625-2.379-.3636875-3.13175-.354125v2.5769375h-1.0551875v-2.5769375c-.75275-.0095625-2.06725-.002125-3.13175.3540625 0 0 .030625-.41525.030625-.899125 0-.48375-.030625-.899-.030625-.899 1.1605.3883125 2.46375.3621875 3.13175.351375v-1.618375c-.6088125-.0054375-1.4861875.023625-2.478125.355625 0 0 .030625-.4153125.030625-.899125 0-.48375-.030625-.8990625-.030625-.8990625.9905.3314375 1.86675.361 2.4754375.3556875-.0313125-1.024875-.329875-2.3165625-.329875-2.3165625s.6144375.0479375.8600625.0479375c.245875 0 .8601875-.0479375.8601875-.0479375s-.2985 1.2916875-.3298125 2.3165c.6086875.00525 1.4849375-.02425 2.475375-.3556875 0 0-.030625.41525-.030625.8990625 0 .48375.030625.8990625.030625.8990625-.991875-.3319375-1.8693125-.361-2.478125-.355625v1.618375z" fill="#fff"/><path d="m14.5625 16.4546875c-1.242375 0-1.9078125 1.7234375-1.9078125 1.7234375s-.3691875-.8171875-1.3828125-.8171875c-.6858125 0-1.19125.6100625-1.5125 1.175 1.2476875 1.9853125 3.238375 3.210375 4.803125 3.9640625 1.5649375-.75375 3.556875-1.9785625 4.8046875-3.9640625-.32125-.5649375-.8266875-1.175-1.5125-1.175-1.0136875 0-1.384375.8171875-1.384375.8171875s-.665375-1.7234375-1.9078125-1.7234375z" fill="#0b4ea2"/></g></g></g></g></svg>