<svg height="48" viewBox="0 0 48 48" width="48" xmlns="http://www.w3.org/2000/svg" xmlns:xlink="http://www.w3.org/1999/xlink"><defs><path id="a" d="m8 9h32c2.209139 0 4 1.790861 4 4v22c0 2.209139-1.790861 4-4 4h-32c-2.209139 0-4-1.790861-4-4v-22c0-2.209139 1.790861-4 4-4z"/><mask id="b" fill="#fff"><use fill="#fff" fill-rule="evenodd" xlink:href="#a"/></mask></defs><g fill="none" fill-rule="evenodd"><path d="m0 0h48v48h-48z"/><use fill="#d8d8d8" xlink:href="#a"/><g mask="url(#b)"><g fill-rule="nonzero" transform="translate(4 9)"><path d="m0 0h40v30h-40z" fill="#28ae66"/><g fill="#fff" transform="translate(14.414062 2.578125)"><path d="m1.01367188 5.47851563c1.63476562.78515625 3.58007812 0 4.28320312-1.08984375.7265625-1.01953125.81445312-2.72460938-.43359375-4.2890625 1.93359375 1.60546875 2.3671875 3.42773437 1.40039063 4.92773437-1.2890625 1.71679688-4.13671876 1.6640625-5.25000001.45117188z"/><path d="m3.9140625 1.48828125.328125.00585937-.2578125.20507813.09960937.328125-.27539062-.19335938-.26367188.19335938.08789063-.32226563-.26367188-.20507812.32812501-.00585938.11132812-.32226562zm-1.62304687 2.0390625h.328125l-.2578125.2109375.09960937.32226562-.27539062-.19335937-.26953125.19921875.09375-.328125-.26367188-.19921875.328125-.01171875.10546875-.32226563zm.10546875-1.60546875h.33398437l-.26367187.2109375.09960937.32226562-.26953125-.19335937-.26953125.19921875.09375-.328125-.26367188-.20507813.32812501-.00585937.10546875-.32226563zm0-1.61132812h.33398437l-.26953125.21679687.09960937.32226563-.26953125-.1875-.26953125.19335937.09375-.32226562-.26367187-.20507813.328125-.00585937.10546875-.32226563zm-1.79882813 2.03906249h.328125l-.26367187.2109375.09960937.32226563-.26953125-.19335938-.26953125.19921875.09375-.328125-.26367187-.19921875.328125-.01171875.10546875-.32226562z"/></g><path d="m2.78320312 0h9.64453128v30h-9.64453128z" fill="#ca3745"/><g fill="#faae29" transform="translate(2)"><g transform="translate(.753906 3.75)"><path d="m.02929688 4.07226562v-.21679687l.3984375-.53320312-.07617188-.11132813.234375-.31640625-.07617187-.11132813-.15820313.21679688-.08203125-.10546875.5625-.75.08203125.10546875-.08203125.10546875.1640625.22265625.3984375-.5390625-.40429687-.52148438-.15820313.19921875.08203125.11132813-.08203125.10546875-.5625-.75.08203125-.10546875.15820313.2109375.08203125-.10546875-.24023438-.32226562.07617188-.10546875-.3984375-.5390625v-.21679688l.5625.75-.08203125.10546875.24023437.32226562-.15820312.21679688.15820312.2109375.24609375-.31640625.56835938.76171875-.56835938.73828125-.234375-.32226563-.1640625.21679688.15820313.21679687-.234375.31640626.07617187.11132812-.5625.75z"/><path d="m.02929688 1.39453125.08203125.2109375v.328125h.24023437l.1640625.10546875-.1640625.11132813h-.234375v.31640625l-.08203125.21679687v-1.2890625z"/></g><g transform="translate(.753906 8.847656)"><path d="m.02929688 4.11914063v-.21679688l.3984375-.53320312-.07617188-.11132813.234375-.32226562-.07617187-.10546875-.15820313.21679687-.08203125-.11132812.5625-.75000001.08203125.11132813-.08203125.10546875.1640625.21679687.3984375-.5390625-.40429687-.52148437-.15820313.19921875.08203125.11132813-.08203125.10546875-.5625-.75.08203125-.11132813.15820313.2109375.08203125-.10546875-.24023438-.32226562.07617188-.10546875-.3984375-.5390625v-.2109375l.5625.75-.08203125.10546875.24023437.32226562-.15820312.2109375.15820312.21679687.24023438-.32226562.56835937.76171875-.56835937.73828125-.234375-.32226563-.1640625.21679688.15820312.2109375-.234375.32226562.07617188.11132813-.5625.75z"/><path d="m.02929688 1.43554688.08203125.21679687v.32226562h.24023437l.1640625.10546875-.1640625.10546876h-.234375v.32226562l-.08203125.21679688v-1.2890625z"/></g><g transform="translate(.753906 14.003906)"><path d="m.02929688 4.1015625v-.2109375l.3984375-.5390625-.07617188-.10546875.234375-.32226563-.07617187-.10546875-.15820313.2109375-.08203125-.10546875.5625-.75.08203125.10546875-.08203125.11132813.1640625.21679687.3984375-.5390625-.40429687-.52734375-.15820313.20507813.08203125.10546875-.08203125.10546875-.5625-.75.08203125-.10546875.15820313.21679687.08203125-.11132812-.24023438-.31640625.07617188-.11132812-.3984375-.53320313v-.21679687l.5625.75-.08203125.11132812.24023437.31640625-.15820312.21679687.15820312.21679688.24609375-.32226563.5625.76171875-.56835937.73828125-.234375-.32226562-.1640625.2109375.15820312.21679687-.234375.32226563.07617188.10546875z"/><path d="m.02929688 1.42382813.08789062.21679687v.32226562h.234375l.1640625.10546876-.1640625.09960937h-.234375v.32226562l-.08203125.21679688v-1.2890625z"/></g><g transform="translate(.753906 18.808594)"><path d="m.02929688 4.11914062v-.21679687l.3984375-.53320313-.07617188-.10546875.234375-.32226562-.07617187-.10546875-.15820313.2109375-.08203125-.10546875.5625-.75.08203125.10546875-.08203125.10546875.1640625.21679687.3984375-.53320312-.40429687-.52734375-.15820313.20507812.08203125.10546875-.08203125.10546875-.5625-.75.08203125-.10546875.15820313.21679688.08203125-.11132813-.24023438-.32226562.07617188-.10546875-.3984375-.53320312v-.21679688l.5625.75-.08203125.10546875.24023437.32226562-.15820312.21679688.15820312.2109375.24609375-.31640625.5625.76171875-.56835937.73828125-.234375-.32226562-.1640625.2109375.15820312.21679687-.234375.32226563.07617188.10546875-.5625.75z"/><path d="m.02929688 1.44140625.08203125.2109375v.32226563h.24023437l.1640625.11132812-.1640625.10546875h-.234375v.32226563l-.08203125.2109375v-1.2890625z"/></g><g transform="translate(8.898438 3.75)"><path d="m1.52929688 4.07226562v-.21679687l-.3984375-.53320312.08203125-.11132813-.24023438-.31640625.07617188-.11132813.1640625.21679688.08203125-.10546875-.5625-.75-.08203125.10546875.08203125.10546875-.16992188.21679687-.39257812-.5390625.3984375-.52148437.1640625.19921875-.08203125.11132813.07617187.10546875.5625-.75-.07617187-.10546875-.1640625.2109375-.07617188-.10546875.234375-.32226563-.07617187-.10546875.3984375-.5390625v-.2109375l-.55664063.75.07617188.10546875-.234375.32226562.15820312.21679688-.1640625.2109375-.24023437-.32226563-.56835938.76171875.56835938.73828125.24023437-.32226562.1640625.21679687-.1640625.21679688.24023438.31640625-.07617188.11132813z"/><path d="m1.52929687 1.39453125-.08203125.2109375v.328125h-.234375l-.1640625.10546875.15820313.11132813h.24023437v.31640625l.08203125.21679687z"/></g><g transform="translate(8.898438 8.847656)"><path d="m1.55859375 4.11914063v-.21679688l-.3984375-.53320312.07617187-.11132813-.234375-.32226562.07617188-.10546875.15820312.21679687.08203125-.11132812-.56249999-.75000001-.08203125.11132813.08203125.10546875-.1640625.21679687-.3984375-.5390625.40429687-.52148437.15820313.19921875-.08203125.10546875.08203125.11132813.56249999-.75-.08203125-.11132813-.15820312.21679687-.08203125-.10546875.24023437-.32226562-.07617187-.10546875.3984375-.5390625v-.2109375l-.5625.75.08203125.10546875-.24023437.32226563.15820312.2109375-.15820312.21679687-.24023438-.32226563-.56835937.76171875.56835937.73828125.234375-.32226562.1640625.21679687-.15820312.2109375.23437499.32226563-.07617187.10546875.5625.75z"/><path d="m1.55859375 1.43554688-.08203125.21679687v.32226562h-.24609375l-.1640625.10546875.1640625.10546876h.234375v.32226562l.08789062.21679688v-1.2890625z"/></g><g transform="translate(8.898438 14.003906)"><path d="m1.52929688 4.1015625v-.2109375l-.3984375-.5390625.08203125-.10546875-.24023438-.32226563.07617188-.10546875.1640625.2109375.08203125-.10546875-.5625-.75-.08203125.10546875.08203125.11132813-.16992188.21679687-.39257812-.5390625.3984375-.52734375.1640625.20507813-.08203125.10546875.07617187.10546875.5625-.75-.07617187-.10546875-.1640625.21679687-.07617188-.11132812.234375-.31640625-.07617187-.11132812.3984375-.53320313v-.21679687l-.55664063.75.07617188.11132812-.234375.31640625.15820312.21679687-.1640625.21679688-.24023437-.32226563-.56835938.76171875.56835938.73828125.24023437-.32226562.1640625.2109375-.1640625.21679687.24023438.32226563-.07617188.10546875.55078125.75z"/><path d="m1.52929687 1.42382813-.08203125.21679687v.32226563h-.234375l-.1640625.10546875.15820313.10546875h.24023437v.32226562l.08203125.21679688z"/></g><g transform="translate(8.898438 18.808594)"><path d="m1.52929687 4.11914062v-.21679687l-.3984375-.53320313.08203125-.10546875-.24023437-.32226562.07617187-.10546875.1640625.2109375.08203125-.10546875-.56249999-.75-.08203125.10546875.08203125.10546875-.16992188.21679687-.39257812-.53320312.3984375-.52734375.1640625.20507812-.08203125.10546875.07617187.10546875.5625-.74414062-.07617188-.10546875-.1640625.21679687-.07617187-.11132812.234375-.32226562-.07617188-.10546875.3984375-.53320313v-.21679687l-.55664062.75.07617187.10546875-.23437499.32226562.15820312.21679687-.1640625.21093751-.24023437-.31640625-.56835938.76171875.56835938.73828125.24023437-.32226563.1640625.2109375-.1640625.21679688.24023437.32226562-.07617187.10546875.55664062.75z"/><path d="m1.52929687 1.44140625-.08203125.2109375v.32226563h-.234375l-.1640625.11132812.15820313.10546875h.24023437v.32226563l.08203125.2109375v-1.2890625z"/></g><path d="m.78320313 2.03320313v-.2109375l.39843749-.5390625-.07617187-.10546875.234375-.32226563-.07617187-.10546875-.15820313.21679688-.08203125-.11132813.5625-.75.08203125.11132813-.08203125.10546875.1640625.21679687.3984375-.5390625h.1640625l-.5625.75-.24609375-.32226562-.15820313.21679687.15820313.2109375-.234375.32226563.0703125.11132812-.55664062.75zm0-2.03320313h.48632812l-.1640625.10546875h-.234375v.32226563l-.09375.21679687v-.64453125zm9.64453127 2.03320312v-.2109375l-.3984375-.5390625.0820312-.10546874-.24023435-.32226563.07617187-.10546875.16406248.21679688.0761719-.11132813-.5625-.75-.07617187.11132813.07617187.10546875-.1640625.21679687-.3984375-.5390625h-.1640625l.56835937.75.24023438-.32226562.1640625.21679687-.1640625.2109375.24023437.32226563-.07617187.10546874zm0-2.03320312h-.48046878l.15820318.10546875h.2402343v.32226563l.0820313.21679687z"/></g><g fill="#faae29" transform="translate(3 23)"><path d="m3.80273438 6.57226562s.3515625-.609375 1.21875-.79101562c.87304687-.1875 1.02539062.40429687 1.5234375.40429687.49804687 0 1.2890625-.41015625 1.2890625-.41015625s-.79101563.77929688-1.40625.76171875c-.60351563-.01757812-.80859376-.41015625-1.43554688-.3515625-.62109375.05859375-1.18945312.40429688-1.18945312.38671875z"/><path d="m5.484375 6.57226562s-.34570312-.609375-1.21289062-.79101562c-.87890626-.1875-1.02539063.40429687-1.5234375.40429687-.49804688 0-1.2890625-.41015625-1.2890625-.41015625s.79101562.77929688 1.40039062.76171875c.609375-.01757812.8203125-.41015625 1.43554687-.3515625.62695313.05859375 1.18945313.40429688 1.18945313.38671875z"/><g transform="translate(.28125 .964844)"><path d="m2.35546875 4.59960937c-.07617187-.15820312-.26953125-.86132812-.16992187-.94921875.15820312-.05859375.56835937.66210938.52734375 1.30078125-.26953125.14648438-1.171875-.05859375-1.16601563-.24609375.06445313-.26367187.58007813-.17578125.80859375-.10546875z"/><path d="m1.8046875 3.984375c-.046875-.17578125-.12890625-.9140625-.01171875-.97265625.15820312-.01171875.4453125.80273437.31054687 1.41796875-.28710937.0703125-1.14257812-.38085938-1.1015625-.5625.10546875-.234375.5859375-.01171875.80273438.1171875z"/><path d="m1.359375 3.3046875c-.03515625-.1875-.046875-.9375.0703125-.97265625.15820312.01171875.375.8671875.1875 1.45898437-.29296875.0234375-1.1015625-.5625-1.04296875-.73242187.1171875-.22265625.5859375.07617187.78515625.24609375z"/><path d="m1.0078125 2.578125c-.01171875-.19335938.05859375-.9375.18164063-.94921875.15820312.04101563.26953125.93164062.01171875 1.4765625-.28710938-.03515625-1.01953125-.77929688-.9375-.9375.140625-.19335938.56835937.19921875.74414062.41015625z"/><path d="m.76171875 1.81054687c.01171875-.19335937.1640625-.90820312.28710937-.90234374.14648438.07617187.1640625.97265624-.14648437 1.46484374-.28125-.09375-.93164063-.96679687-.83789062-1.11328125.16992187-.1640625.54492187.31054688.703125.55078125z"/><path d="m.83203125.9375c-.01757812.76171875-.15820312.7734375-.41015625.2109375-.1171875-.21679687-.12890625-1.09570312-.02929687-1.13085937.14648437 0 .43359375.62695312.43945312.91992187z"/></g><g transform="translate(6.199219 1.023438)"><path d="m.41015625 4.62890625c.07617188-.1640625.26953125-.8671875.16992188-.95507812-.15820313-.05859375-.5625.65625-.52734375 1.30078125.26953125.14648437 1.17773437-.05859375 1.16601562-.24609375-.06445312-.26367188-.57421875-.17578125-.80859375-.10546875z"/><path d="m.9609375 4.0078125c.05273438-.17578125.12890625-.9140625.01757813-.97265625-.15820313-.01171875-.45117188.796875-.31054688 1.41796875.28125.0703125 1.14257813-.38085937 1.09570313-.5625-.09960938-.24023437-.5859375-.01171875-.80273438.1171875z"/><path d="m1.40625 3.328125c.03515625-.1875.046875-.9375-.0703125-.97265625-.15820312.01171875-.375.86132812-.18164062 1.453125.29296875.0234375 1.1015625-.55664063 1.04296875-.73242187-.12890625-.22265626-.5859375.08203124-.79101563.25195312z"/><path d="m1.7578125 2.59570312c.01171875-.18749999-.05859375-.93164062-.18164063-.94335937-.15820312.04101562-.26953125.93164062-.01171875 1.4765625.29296875-.03515625 1.01953125-.77929688.94335938-.9375-.14648438-.19921875-.56835938.19921875-.75.40429687z"/><path d="m2.00390625 1.828125c-.00585938-.1875-.1640625-.90820312-.28125-.89648437-.15234375.07031249-.16992188.97265625.14648437 1.46484375.28125-.09375001.92578125-.96679688.83203125-1.11328126-.16992187-.1640625-.54492187.31054688-.703125.54492188z"/><path d="m1.93359375.9609375c.0234375.76171875.15820312.76757812.41015625.20507812.1171875-.21093749.12890625-1.09570312.02929688-1.12499999-.14648438 0-.43359376.62695312-.43945313.91992187z"/></g></g><g fill="none"><g transform="translate(4 21)"><path d="m2.48134766.19863281-2.20798828 1.21721485v1.98360937l2.22881835 1.21721484h2.20798829l2.20798828-1.21721484v-1.98360937l-2.20798828-1.19467383h-2.20798829z" fill="#28ae66" stroke="#000" stroke-width=".1"/><path d="m1.109375 2.22070313h.12890625v-.25195313h.26953125v.24609375h.13476562v-.57421875h-.13476562v.24609375h-.26367188v-.24609375h-.13476562v.57421875zm3.39257812 1.91015625h.13476563v-.24609375h.26367187v.24609375h.13476563v-.58007813h-.12890625v.24609375h-.26953125v-.24609375h-.12890625v.57421875zm-2.14453125-2.87109375h.13476563v-.24023438h.26953125v.24609375h.12890625v-.57421875h-.12890625v.24609375h-.26953125v-.24609375h-.13476563v.57421875zm1.96289063 0h.13476562v-.24023438h.26953126v.24609375h.13476562v-.57421875h-.13476562v.24609375h-.26953126v-.24609375h-.13476562v.57421875zm1.25390625.9609375h.12890625v-.25195313h.26953125v.24609375h.13476563v-.57421875h-.13476563v.24609375h-.26953125v-.24609375h-.12890625v.57421875zm0 .95507812h.12890625v-.24609375h.26953125v.24609375h.13476563v-.57421875h-.13476563v.24609375h-.26953125v-.24609375h-.12890625z" fill="#c00"/><path d="m3.60546875 4.51171875v-2.10351563h3.21679688v.95507813l-2.15039063 1.1484375h-1.07226562zm0-4.20117187v2.09765624h-3.2109375v-.95507812l2.13867187-1.14257812z" fill="#faae29"/><path d="m3.60546875.31054688v2.09765624h3.21679688v-.95507812l-2.15039063-1.14257812h-1.07226562zm0 4.20117187v-2.10351563h-3.2109375v.95507813l2.13867187 1.1484375z" fill="#fff"/><path d="m5.32296172 1.55390625h1.28810918l-1.28810918-.57140625zm1.49977031-.09703125v.95414063h-2.03194687v-.76007813h-.42936973l-.53822402-.28570312v-.6684375l.32656289-.29109375h-.42936973v.95953125h-.1088543v-1.05117188h1.07040059z" fill="#faae29" stroke="#000" stroke-width=".1"/><path d="m2.53320312 1.74023438v1.34179687h.32226563l.75.38671875.75-.38671875h.32226563v-1.3359375h-.32226563l-.75-.38085937-.75.38085937h-.32226562z" fill="#ca3745"/><g stroke="#000" stroke-width=".1"><path d="m2.10549629 3.65109375h1.28810918l-1.28810918-.57140625zm1.49977031-.09703125v.95414062h-2.03194687v-.76007812h-.42936973l-.53822402-.28570313v-.6684375l.32656289-.29109375h-.42936973v.95953125h-.1088543v-1.05117187h1.07040059z" fill="#faae29" transform="matrix(-1 0 0 -1 3.999332 6.919454)"/><path d="m2.10549629 1.55390625h1.28810918l-1.28810918-.57140625zm1.49977031-.09703125v.95414063h-2.03194687v-.76007813h-.42936973l-.53822402-.28570312v-.6684375l.32656289-.29109375h-.42936973v.95953125h-.1088543v-1.05117188h1.07040059z" fill="#fff" transform="matrix(-1 0 0 1 3.999332 0)"/><path d="m5.32296172 3.65109375h1.28810918l-1.28810918-.57140625zm1.49977031-.09703125v.95414062h-2.03194687v-.76007812h-.42936973l-.53822402-.28570313v-.6684375l.32656289-.29109375h-.42936973v.95953125h-.1088543v-1.05117187h1.07040059z" fill="#fff" transform="matrix(1 0 0 -1 0 6.919454)"/></g><path d="m1.0390625 3.17578125h.12890625v-.29296875h.26953125v.29296875h.13476562v-.66796875h-.13476562v.28710938h-.26953125v-.29296876h-.12890625zm1.28320312.95507813h.13476563v-.29296876h.26367187v.29296876h.13476563v-.66796875h-.13476563v.28710937h-.26367187v-.29296875h-.13476563v.6796875zm-1.2890625-2.484375h.13476563v.28710937h.26953125v-.29296875h.13476562v.6796875h-.13476562v-.29296875h-.26953125v.28710937h-.12890625v-.66796875zm1.2890625-.95507813h.13476563v.28710938h.26367187v-.29296875h.13476563v.67382812h-.13476563v-.28710937h-.26367187v.29296875h-.13476563zm2.03320313 3.43945313h.13476563v-.29296876h.26953125v.29296876h.13476562v-.66796875h-.13476562v.28710937h-.26953125v-.29296875h-.13476563v.6796875zm1.2890625-1.81640625h.13476563v-.28710938h.26367187v.29296875h.13476563v-.67382813h-.13476563v.28710938h-.2578125v-.29296875h-.13476563v.6796875z" fill="#ca3745"/><path d="m4.35546875 4.13085938h.13476563v-.29296876h.26953124v.29296876h.13476563v-.66796875h-.13476563v.28710937h-.26953124v-.29296875h-.13476563v.6796875z" fill="#ca3745"/><path d="m4.35546875 4.13085938h.13476563v-.29296876h.26953124v.29296876h.13476563v-.66796875h-.13476563v.28710937h-.26953124v-.29296875h-.13476563v.6796875zm1.2890625-.95507813h.13476563v-.29296875h.26367187v.29296875h.13476563v-.66796875h-.13476563v.28125h-.2578125v-.28710937h-.13476563v.67382812zm-1.2890625-1.81640625h.13476563v-.28710937h.26953124v.29296875h.13476563v-.67382813h-.13476563v.28710938h-.26953124v-.29296875h-.13476563z" fill="#ca3745"/><path d="m3.71679688 2.40820312.42773437-.3515625h.2109375v.17578125h-.2109375v.08789063h.32226563v-.34570312h-.32226563v-.26367188h-.42773437v.26367188h.10546875v-.17578126h.21093749v.17578126l-.42773437.3515625-.42773437-.3515625v-.17578126h.21679687v.17578126h.10546875v-.26367188h-.42773438v.26367188h-.32226562v.3515625h.32226562v-.08789063h-.21679687v-.17578125h.21679688l.42773437.3515625-.42773437.34570312h-.21679688v-.17578125h.21679688v-.08789062h-.32226563v.3515625h.32226563v.2578125h.42773437v-.2578125h-.10546875v.17578125h-.21679687v-.17578125l.42773437-.3515625.42773438.3515625v.17578125h-.2109375v-.17578125h-.10546875v.2578125h.42773437v-.2578125h.32226563v-.3515625h-.32226563v.08789062h.2109375v.17578125h-.2109375z" fill="#fff"/></g><g transform="translate(4.237348 16.467038)"><path d="m6.69571034 2.80537129h-.47958821v.32172369h-.46214864v.32172369h-1.84859454l-.31391228.33091579.15695614.1654579h.77606092l.14823635-.1654579h-.76734113l.14823635-.16545789h1.08125342l-.46214864.48718159h-1.07253363l-.30519249-.1562658-.31391228.1562658h-1.08125342l-.46214863-.48718159h1.08125341l.15695614.16545789h-.77606092l.15695614.1654579h.77606092l.14823636-.1654579-.3051925-.33091579h-1.70035819v-.32172369h-.46214863v-.32172369h-.46214864v-1.47073688h.46214864v-.32172369h.46214863v-.3309158h1.70035819l.3051925-.32172369-.14823636-.1654579h-.77606092l-.15695614.1654579h.77606092l-.15695614.15626579h-1.08125341l.46214863-.48718159h1.0899732l.31391228.1654579.3051925-.1654579h1.08125341l.46214864.48718159h-1.08125341l-.14823636-.15626579h.76734113l-.15695614-.1654579h-.76734113l-.16567593.1654579.31391228.32172369h1.84859455v.3309158h.46214863v.32172369h.47086843z" fill="#ca3745" stroke="#000" stroke-width=".1"/><path d="m.20608807 1.50587444v1.13982108h.46214242v.32172369h.46214243v.32172369h1.54774114l.61909646.49177764.61473662-.48718159h1.70033534v-.32172369l.46214243-.00459605v-.32172369h.47086209v-1.14441713h-.46650226v-.32172369h-.46214242v-.3309158h-1.70033534l-.61473663-.48718159-.61909645.48718159h-1.54774115v.3309158h-.46214242v.32172369h-.46214243z" fill="#28ae66" stroke="#faae29" stroke-width=".1"/><path d="m2.36683242 1.00816641-.92564238.81542871v-.81542871zm1.85128477 0 .93150088.81542871v-.81542871zm-1.85128477 2.12011464-.92564238-.81542871v.81542871zm1.85128477 0 .93150088-.81542871v.81542871zm.31050029-1.63085742-.31050029.32617149h.62100058zm-2.47228535 0-.3046418.32617149h.61514209zm0 1.1416002-.3046418-.32617149h.61514209zm2.47228535 0-.31050029-.32617149h.62100058z" fill="#ca3745"/><path d="m3.2924748 3.45445254-.31050029-.32617149h.62100059zm0-1.63085742-.31050029-.32617149h.62100059zm0-1.1416002-.31050029.33358447h.62100059zm0 1.63085742-.31050029.32617149h.62100059z" fill="#faae29"/><path d="m4.22149537 1.82759813h.62345629v.16086185h-.61909645z" fill="#faae29" stroke="#000" stroke-width=".1"/><path d="m1.90642341 1.98845998h.30518839v.16545789h-.30518839zm2.47202599 0h.3051884v.16545789h-.3051884z" fill="#c00" stroke="#000" stroke-width=".1"/><path d="m2.98766229 1.0140968h.61473662v.16086184h-.61473662zm0 .32172369h.61473662v.1654579h-.61473662z" fill="#900" stroke="#000" stroke-width=".1"/><path d="m2.83070826 1.17495864h.92864469v.1654579h-.92864469zm.15695403 1.47073688h.61473662v.15626579h-.61473662zm0 .32172369h.61473662v.16086184h-.61473662zm-.15695403-.16086185h.92864469v.16086185h-.92864469z" fill="#900" stroke="#000" stroke-width=".1"/><path d="m4.22149537 2.15391787h.62345629v.16086185h-.61909645zm-2.47202599-.32631974h.61909645v.16086185h-.61909645zm0 .32172369h.61909645v.1654579h-.61909645zm-.1525942-.16086184h.30518839v.16545789h-.30518839zm.61909646 0h.30518839v.16545789h-.30518839zm1.85292953 0h.3051884v.16545789h-.3051884zm.61909646 0h.3051884v.16545789h-.3051884z" fill="#faae29" stroke="#000" stroke-width=".1"/><g fill="#fff"><circle cx="2.926617" cy="2.88784" r="1"/><circle cx="3.307419" cy="2.88784" r="1"/><circle cx="3.69408" cy="2.88784" r="1"/><circle cx="3.078938" cy="2.732167" r="1"/><circle cx="3.535901" cy="2.732167" r="1"/><circle cx="3.07308" cy="3.050926" r="1"/><circle cx="3.535901" cy="3.058339" r="1"/><circle cx="4.151043" cy="2.072411" r="1"/><circle cx="4.537704" cy="2.072411" r="1"/><circle cx="4.924364" cy="2.072411" r="1"/><circle cx="4.309222" cy="1.909326" r="1"/><circle cx="4.766185" cy="1.909326" r="1"/><circle cx="4.303364" cy="2.228084" r="1"/><circle cx="4.766185" cy="2.235497" r="1"/><circle cx="2.920759" cy="1.264396" r="1"/><circle cx="3.307419" cy="1.264396" r="1"/><circle cx="3.69408" cy="1.256983" r="1"/><circle cx="3.07308" cy="1.10131" r="1"/><circle cx="3.535901" cy="1.10131" r="1"/><circle cx="3.07308" cy="1.420068" r="1"/><circle cx="3.535901" cy="1.427481" r="1"/><circle cx="1.684616" cy="2.087237" r="1"/><circle cx="2.071277" cy="2.087237" r="1"/><circle cx="2.457938" cy="2.079824" r="1"/><circle cx="1.842795" cy="1.924152" r="1"/><circle cx="2.299758" cy="1.924152" r="1"/><circle cx="1.836937" cy="2.24291" r="1"/><circle cx="2.299758" cy="2.250323" r="1"/></g></g><g transform="translate(4 11)"><path d="m2.41251172 1.12605859-.52491797.49198243v1.8695332l.52491797.49901074h2.399625l.52491797-.49198242v-1.8695332l-.5324168-.49901075zm0-.12650976-.65989688.61849219v1.8695332l.65989688.62552051h2.399625l.65989687-.62552051v-1.8695332l-.6673957-.61849219z" fill="#28ae66" stroke="#000" stroke-width=".1"/><path d="m.81290234 1.25256836v2.60047851h.66739571v.62552051h4.25183554v-.62552051h.65989688v-2.60047851h-.65989688v-.61849219h-4.25183554v.61849219zm.13497891.11948144v2.36854395h.65989687v.61849219h3.98937657v-.61849219h.6673957v-2.36854395h-.6673957v-.61146386h-3.98937657v.61849218h-.65989687z" fill="#970000" stroke="#000" stroke-width=".1"/><path d="m2.41251172 1.12605859-.52491797.49198243v1.8695332l.52491797.49901074h2.399625l.52491797-.49198242v-1.8695332l-.5324168-.49901075zm-.13497891-.37952929-1.32729258 1.25104101v1.12453125l1.33479141 1.23698438h2.65458516l1.32729257-1.2440127v-1.12453125l-1.32729257-1.24401269h-2.65458516z" fill="#28ae66" stroke="#000" stroke-width=".1"/><path d="m.94710195 1.98871475h.5324168l.13497891.11386933-.13497891.11386934h-.52491797v-.23406475z" fill="#faae29" stroke="#000" stroke-width=".1" transform="matrix(-1 0 0 1 2.5616 0)"/><path d="m4.13867187 3.98828125.26367188-.12890625.26953125.12890625zm-.79687499 0 .26367187-.12890625.26953125.12890625zm-.796875 0 .26367187-.12890625.26953125.12890625zm1.59374999-2.87109375.26367188.12890625.26953125-.12304688h-.53320313zm-.79687499 0 .26367187.12890625.26953125-.12304688h-.53320312zm-.796875 0 .26367187.12890625.26953125-.12304688h-.53320312z" fill="#fff"/><path d="m3.91601562 4.35742188-.31054687.25195312-.31054688-.25195312-.31054687.25195312-.31054688-.25195312v.12890625l.2109375.1171875-.10546874.12890625v.12304687h.10546874l.09960938-.1171875.10546875.1171875h.10546875v-.1171875l-.10546875-.12890625.20507812-.12304687.21093751.1171875-.10546876.12890625v.12304687h.10546876l.09960937-.1171875.10546875.1171875h.09960937v-.1171875l-.09960937-.12890625.20507812-.12304687.20507813.1171875-.09960937.12890625v.12304687h.09960937l.10546875-.1171875.10546875.1171875h.09960937v-.1171875l-.09960937-.12890625.20507813-.12304687v-.13476563l-.31054688.25195313-.31054688-.25195313zm0-3.609375-.31054687-.25195313-.31054688.25195313-.31054687-.25195313-.31054688.25195313v-.12304688l.2109375-.12890625-.10546874-.1171875v-.12890625h.10546874l.09960938.12304688.10546875-.12304688h.10546875v.12304688l-.10546875.12890625.20507812.1171875.21093751-.1171875-.10546876-.12890625v-.12304688h.10546876l.09960937.12304688.10546875-.12304688h.09960937v.12304688l-.09960937.12890625.20507812.1171875.20507813-.1171875-.09960937-.12890625v-.12304688h.09960937l.10546875.12304688.10546875-.12304688h.09960937v.12304688l-.09960937.12890625.20507813.1171875v.12890625l-.31054688-.25195313zm2.34375 2.07421875.33984376-.26953125-.33398438-.26953125.33398438-.26953125-.33398438-.26953125h.1640625l.16992188.17578125.1640625-.08789063h.1640625v.09375l-.1640625.08789063.1640625.08789062v.09375h-.1640625l-.1640625-.09375-.16992188.18164063.16992188.17578125.1640625-.08203125h.1640625v.08789062l-.1640625.08789063.1640625.08789062v.09375h-.1640625l-.1640625-.09375-.16992188.18164063.16992188.17578125.1640625-.08789063h.1640625v.09375l-.1640625.08789063.1640625.09375v.08789062h-.1640625l-.1640625-.08789062-.16992188.17578125h-.1640625l.33398438-.26953125-.33398438-.26953125zm-5.30859374 0-.33398438-.26953125.33398438-.26953125-.33398438-.26953125.33398438-.26953125h-.16992188l-.1640625.17578125-.1640625-.08789063h-.17578125v.09375l.17578125.08203125-.16992187.08789062v.09375h.16992187l.1640625-.09375.1640625.18164063-.1640625.17578125-.1640625-.08203125h-.17578125v.08789062l.16992188.08789063-.16992188.08789062v.09375h.17578125l.1640625-.09375.1640625.18164063-.1640625.18164062-.1640625-.08789062h-.17578125v.08789062l.16992188.08789063-.16992188.09375v.08789062h.17578125l.1640625-.08789062.1640625.17578125h.16992188l-.33398438-.26953125.33398438-.26953125z" fill="#28ae66"/><path d="m6.39203047 3.74059375h.1349789v.11948145h-.1349789zm-.13497891.11948145h.13497891v.12650976h-.12748008zm-.65989687.6255205h.1349789v.12650977h-.1349789zm.1349789-.12650976h.12748008v.12650976h-.12748008zm-4.38681445 0h.13497891v.12650976h-.14247774zm-.6673957-.61849219h.1349789v.11948145h-.1349789zm.1349789.11948145h.13497891v.12650976h-.13497891zm0-2.74104493h.13497891v.12650977h-.13497891zm-.1349789.12650977h.1349789v.12650976h-.1349789zm.80237461-.74500195h.12748007v.12650976h-.11998125zm-.13497891.12650976h.13497891v.12650977h-.14247774zm4.25183555-.12650976h.1349789v.12650976h-.1349789zm.1349789.12650976h.12748008v.12650977h-.12748008zm.52491797.49198242h.13497891v.12650977h-.12748008zm.13497891.13353809h.1349789v.11948144h-.1349789zm-4.9042336 3.23302734h.12748008v.12650977h-.12748008z" fill="#28ae66" stroke="#000" stroke-width=".1"/><path d="m3.98632813 2.55273437h.39257812v-.24609375h-.26367187v-.22851562h-.26367188v-.2109375h-.2578125v.26367188c.21679687 0 .39257812.17578124.39257812.42187499z" fill="#faae29"/><path d="m3.98632813 2.55273438h.39257812v.24609374h-.26367187v.22851563h-.26367188v.2109375h-.2578125v-.26367188c.21679687 0 .39257812-.17578125.39257812-.42187499z" fill="#fff"/><path d="m3.20117188 2.55273438h-.39257813v.24609374h.26367187v.22851563h.25781251v.2109375h.26367187v-.26367188c-.21679687 0-.39257812-.17578125-.39257812-.42187499z" fill="#faae29"/><path d="m3.98632812 2.55273437h-.39257812v-.42187499c.21679687 0 .39257812.19335937.39257812.42187499z" fill="#28ae66"/><path d="m3.98632812 2.55273438h-.39257812v.42187499c.21679687 0 .39257812-.18749999.39257812-.42187499z" fill="#ca3745"/><path d="m3.20117188 2.55273438h.39257812v.42187499c-.21679688 0-.39257812-.18749999-.39257812-.42187499z" fill="#28ae66"/><path d="m3.20117188 2.55273437h.39257812v-.42187499c-.21679688 0-.39257812.19335937-.39257812.42187499z" fill="#ca3745"/><path d="m2.96453656 4.10839961.20996719.25301742.21596625-.25301742h-.4319325z" fill="#faae29" stroke="#000" stroke-width=".1"/><path d="m3.20117188 2.55273437h-.39257813v-.24609375h.26367187v-.22851562h.25781251v-.2109375h.26367187v.26367188c-.21679687 0-.39257812.17578124-.39257812.42187499z" fill="#fff"/><path d="m2.96453656.74405172.20996719.25301742.21596625-.25301742h-.4319325z" fill="#faae29" stroke="#000" stroke-width=".1" transform="matrix(1 0 0 -1 0 1.74112)"/><path d="m3.82000531.74405172.20996719.25301742.21596625-.25301742h-.4319325z" fill="#faae29" stroke="#000" stroke-width=".1" transform="matrix(1 0 0 -1 0 1.74112)"/><path d="m3.82000531 4.10839961.20996719.25301742.21596625-.25301742h-.4319325z" fill="#faae29" stroke="#000" stroke-width=".1"/><path d="m2.54266156.74405172.20996719.25301742.21596625-.25301742h-.4319325z" fill="#ca3745" stroke="#000" stroke-width=".1" transform="matrix(1 0 0 -1 0 1.74112)"/><path d="m3.39227094.74405172.20996718.25301742.21596625-.25301742h-.4319325z" fill="#ca3745" stroke="#000" stroke-width=".1" transform="matrix(1 0 0 -1 0 1.74112)"/><path d="m4.24188031.74405172.20996719.25301742.21596625-.25301742h-.4319325z" fill="#ca3745" stroke="#000" stroke-width=".1" transform="matrix(1 0 0 -1 0 1.74112)"/><path d="m2.01768359 4.10543828.39366797-.36895605h-.39366797z" fill="#ca3745" stroke="#000" stroke-width=".1" transform="matrix(1 0 0 -1 0 7.84192)"/><path d="m1.7421875 2.86328125.20507812-.31054687-.20507812-.31054688.19921875-.31054687-.19921875-.31054688h.09960938l.09960937.20507813.09960938-.10546876h.09960937v.10546876l-.09960937.10546875.09960937.10546875v.09960937h-.09960937l-.09960938-.09960937-.09960937.20507812.09960937.20507813.09960938-.09960938h.09960937v.09960938l-.09960937.10546875.09960937.10546875v.10546875h-.09960937l-.09960938-.10546875-.09960937.20507812.09960937.2109375.09960938-.10546875h.09960937v.10546875l-.09960937.09960938.09960937.10546875v.10546875h-.09960937l-.09960938-.10546875-.09960937.2109375h-.09960938l.19921875-.31640625z" fill="#28ae66"/><g stroke="#000" stroke-width=".1"><path d="m5.59643984 2.21659832h.5324168l.13497891.11386195-.13497891.11386196h-.52491797v-.23404957z" fill="#ca3745"/><path d="m2.0142875 1.3720498-.26995781.25301954v1.86250488l.26995781.25301953h-.39743789v-2.36854395z" fill="#ca3745"/><path d="m2.54266156 4.10839961.20996719.25301742.21596625-.25301742h-.4319325z" fill="#ca3745"/><path d="m3.39227094 4.10839961.20996718.25301742.21596625-.25301742h-.4319325z" fill="#ca3745"/><path d="m4.24188031 4.10839961.20996719.25301742.21596625-.25301742h-.4319325z" fill="#ca3745"/><path d="m5.59408789 1.3720498-.26995781.25301954v1.86250488l.26995781.25301953h-.39743789v-2.36854395z" fill="#ca3745" transform="matrix(-1 0 0 1 10.790738 0)"/><path d="m4.80544531 4.10543828.39366797-.36895605h-.39366797z" fill="#ca3745" transform="matrix(-1 0 0 -1 10.004558 7.84192)"/><path d="m4.80544531 1.36898652.39366797-.36895605h-.39366797z" fill="#ca3745" transform="matrix(-1 0 0 1 10.004558 0)"/><path d="m2.01768359 1.36898652.39366797-.36895605h-.39366797z" fill="#ca3745"/></g><path d="m4.00390625 4.11132762-.3984375-.25195308-.3984375.25195308-.3984375-.25195308-.3984375.25195308v-.12304685l.26367187-.12890623-.12890624-.12304685v-.12304686h.12890624l.13476563.12304686.13476562-.12304686h.13476563v.12304686l-.13476563.12304685.26367188.12890623.26953125-.12890623-.13476563-.12304685v-.12304686h.13476563l.12890625.12304686.13476563-.12304686h.13476562v.12304686l-.13476562.12304685.26367187.12890623.26953125-.12890623-.13476563-.12304685v-.12304686h.13476563l.12890625.12304686.13476563-.12304686h.13476562v.12304686l-.13476562.12304685.26367187.12890623v.11718748l-.3984375-.24609371zm0-3.11132762-.3984375.24609371-.3984375-.24609371-.3984375.24609371-.3984375-.24609371v.11718748l.26367187.12890623-.12890624.12304685v.12890623h.12890624l.13476563-.12890623.13476562.12890623h.13476563v-.1347656l-.13476563-.11718748.26367188-.12890623.26953125.12304686-.13476563.12304685v.12890623h.13476563l.12890625-.12890623.13476563.12890623h.13476562v-.12890623l-.13476562-.11718748.26367187-.12890623.26953125.12304686-.13476563.12304685v.12890623h.13476563l.12890625-.12890623.13476563.12890623h.13476562v-.12890623l-.13476562-.11718748.26367187-.12890623v-.12304685l-.3984375.24609371-.3984375-.24609371zm1.46484375 1.86328095-.19921875-.31054683.19921875-.31054682-.19921875-.31054683.19921875-.31054682h-.09960937l-.09960938.20507809-.09960937-.10546873h-.09960938v.10546873l.09960938.10546873-.09960938.10546874v.09960936h.09960938l.09960937-.09960936.09960938.20507809-.09960938.20507809-.09960937-.09960936h-.09960938v.09960936l.09960938.10546873-.09960938.10546874v.10546873h.09960938l.09960937-.10546873.09960938.20507809-.09960938.21093747-.09960937-.10546874h-.09960938v.10546874l.09960938.09960936-.09960938.10546873v.10546873h.09960938l.09960937-.10546873.09960938.21093746h.09960937l-.19921875-.31640619z" fill="#d0021b"/><path d="m5.59643984 2.43988662h.5324168l.13497891.11386934-.13497891.11386933h-.52491797v-.23406474z" fill="#faae29" stroke="#000" stroke-width=".1"/><path d="m5.59643984 2.66191082h.5324168l.13497891.11386195-.13497891.11386196h-.52491797v-.23404957z" fill="#ca3745" stroke="#000" stroke-width=".1"/><path d="m5.59643984 2.88519912h.5324168l.13497891.11386934-.13497891.11386933h-.52491797v-.23406474z" fill="#faae29" stroke="#000" stroke-width=".1"/><path d="m5.59643984 1.98871475h.5324168l.13497891.11386933-.13497891.11386934h-.52491797v-.23406475z" fill="#faae29" stroke="#000" stroke-width=".1"/><path d="m.94710195 2.21659832h.5324168l.13497891.11386195-.13497891.11386196h-.52491797v-.23404957z" fill="#ca3745" stroke="#000" stroke-width=".1" transform="matrix(-1 0 0 1 2.5616 0)"/><path d="m.94710195 2.43988662h.5324168l.13497891.11386934-.13497891.11386933h-.52491797v-.23406474z" fill="#faae29" stroke="#000" stroke-width=".1" transform="matrix(-1 0 0 1 2.5616 0)"/><path d="m.94710195 2.66191082h.5324168l.13497891.11386195-.13497891.11386196h-.52491797v-.23404957z" fill="#ca3745" stroke="#000" stroke-width=".1" transform="matrix(-1 0 0 1 2.5616 0)"/><path d="m.94710195 2.88519912h.5324168l.13497891.11386934-.13497891.11386933h-.52491797v-.23406474z" fill="#faae29" stroke="#000" stroke-width=".1" transform="matrix(-1 0 0 1 2.5616 0)"/></g><g transform="translate(4 5.7)"><g fill="#ca3745"><path d="m2.9685125 4.62390104v-.30323439h-.96759375v-.59523788h-.85873945v-.1965408h-.74988516v-1.79694453h.74988516v-.19654081h.85873945v-.59523788h.96759375v-.29761893h1.28206172v.29761893h.96759375v.59523788h.85269199v.20215626h.75593262v1.79132908h-.74988516v.1965408h-.85269199v.59523788h-.96759375v.29761894h-1.28206172zm-.1088543.09546268v-.29761894h-.96759375v-.59523788h-.85269199v-.20215625h-.74988516v-1.98786989h.74988516v-.19654081h.85269199v-.60085333h.96759375v-.29761893h1.49977032v.29761893h.96759375v.60085333h.85269199v.19654081h.74988515v1.98786989h-.74988515v.20215625h-.85873946v.59523788h-.96759375v.29761894z" stroke="#000" stroke-width=".1"/><path d="m.60395527 2.60803324.20561368-.21338929h1.24577695l.93130898-.93778981h1.24577696l.93130898.94340531h1.24577695l.20561368.20777379-.20561368.20777379h-1.25182441l-.93130898.94340531h-1.24577696l-.92526152-.94340531h-1.25182442l-.20561367-.20777379z"/><path d="m.70959716 2.62515043.11260856-.10209891h1.28373759l.96280319-.9903595h1.06978133l.96843362.99546444h1.28373759l.10697814.10209892-.10697814.09699397h-1.28373759l-.86145549.89336552h-1.28373759l-.85582506-.89336552h-1.28936802z" stroke="#000" stroke-width=".5"/></g><path d="m4.129625 2.71472789.41122734.41554758-.20561367.20777379-.10885429-.10107914h-.09675938v.10107914l.10280684.10669465h.21166113l.20561367-.20777379v-.2133893l-.4172748-.41554758.4172748-.42116308v-.20777379l-.20561367-.20777379h-.21166113l-.10280684.10107914v.10669465h.10280684l.10885429-.10669465.20561367.2133893-.4172748.41554757-.41122734-.41554757.41122734-.42116309v-.10669465h-.10280684l-.41122734.42116309-.4172748-.42116309h-.10280684v.10669465l.41122734.42116309-.41122734.41554757-.4172748-.41554757.21166113-.2133893.10280683.10669465h.10280684v-.10669465l-.10280684-.10107914h-.21166113l-.20561367.20777379v.20777379l.4172748.42116308-.4172748.41554758v.2133893l.20561367.20777379h.21166113l.10280684-.10669465v-.10107914h-.11490176l-.10280683.10107914-.21166114-.20777379.41727481-.41554758.41122734.41554758-.41122734.42116308v.10107915h.10280683l.41727481-.41554758.41122734.41554758h.10280684v-.10107915l-.41122735-.42116308.41122735-.41554758zm-.52008164-.52785773-.41727481.42116308.41727481.41554758.41122734-.41554758zm-.62288848 1.57234218v.84232618l.10280684-.11231016.10280683.11231016.10280684-.11231016.10280684.11231016.10885429-.11231016.10280684.11231016.10280684-.11231016.10280683.11231016.10280684-.11231016.10280683.11231016.10280684-.11231016.1088543.11231016v-.84232618h-1.25182442zm1.24577696-2.3023582v-.84232617l-.1088543.11231016-.10280684-.11231016-.10280683.11231016-.10280684-.11231016-.10280683.11231016-.10280684-.11231016-.1088543.11231016-.10280683-.11231016-.10280684.11231016-.10280684-.11231016-.10280683.11231016-.10280684-.11231016v.84232617zm1.75376367.94340531v-.84232617l-.09675938.11231016-.10280683-.11231016-.10280684.11231016-.1088543-.11231016-.10280683.11231016-.10280684-.11231016-.10280683.11231016-.10280684-.11231016v.84232617h.82850215zm-3.93084961 0v-.84232617l-.1088543.11231016-.10280683-.11231016-.10280684.11231016-.10280684-.11231016-.10280683.11231016-.10280684-.11231016-.10885429.11231016-.10280684-.11231016v.84232617h.82850215zm3.93689707.41554758v.84232617l-.10280684-.11231015-.10280683.11231015-.10280684-.11231015-.1088543.11231015-.10280683-.11231015-.10280684.11231015-.10280683-.11231015-.10280684.11231015v-.84232617zm-3.94294453 0v.84232617l-.10280684-.11231015-.10280683.11231015-.10280684-.11231015-.10280684.11231015-.10280683-.11231015-.10280684.11231015-.10885429-.11231015-.10280684.11231015v-.84232617z" fill="#faae29"/><path d="m4.22638438 3.75921234v.52224223l.10885429-.10669465.10280684.11231016.10280683-.11231016.10280684.11231016.10280684-.11231016.10280683.11231016.1088543-.11231016.10280683.11231016.10280684-.11231016v-1.35895289zm-1.2397295 0v.52224223l-.10885429-.10669465-.10280684.11231016-.10280684-.11231016-.10280683.11231016-.10280684-.11231016-.10280683.11231016-.10280684-.11231016-.10280684.11231016-.10885429-.11231016v-1.35895289zm0-2.3023582v-.52224223l-.10885429.10107914-.10280684-.10107914-.10280684.10107914-.10280683-.10107914-.10280684.10107914-.10280683-.10107914-.10280684.10107914-.10280684-.10107914-.10885429.10107914v1.3645684zm1.2397295 0v-.52224223l.10885429.10107914.10280684-.10107914.10280683.10107914.10280684-.10107914.10280684.10107914.10280683-.10107914.10280684.10107914.10885429-.10107914.10280684.10107914v1.3645684zm-3.00558809 1.98788977-.10280684-.10669465-.10280683.11231015-.10280684-.11231015-.10280683.11231015-.10280684-.11231015-.1088543.11231015-.10280683-.11231015-.10280684.11231015v-1.68465234l.10280684.11231016.10280683-.11231016.1088543.11231016.10280684-.11231016.10280683.11231016.10280684-.11231016.10280683.11231016.10280684-.11231016v.63455238h-.41122734l-.21166114.20777379.21166114.20777379h.41122734zm4.77144668 0 .10280683-.10669465.10280684.11231015.10280684-.11231015.10885429.11231015.10280684-.11231015.10280684.11231015.10280683-.11231015.10280684.11231015v-1.68465234l-.10280684.11231016-.10280683-.11231016-.10280684.11231016-.10280684-.11231016-.10885429.11231016-.10280684-.11231016-.10280684.11231016-.10280683-.11231016v.63455238h.4172748l.20561368.20777379-.20561368.20777379h-.4172748z" fill="#28ae66"/><path d="m2.4726207 3.82659844s-.08466445.07861711-.08466445.12354117c0 .03930855.09071191.12354117.13304414.12354117.04837969 0 .12699668-.08423262.12699668-.12354117 0-.03930856-.08466445-.12354117-.08466445-.12354117v-.16846524s.18142383.2863909.18142383.16284973c0-.08984813-.18142383-.24146684-.18142383-.24146684h-.09071192s-.18142382.17969625-.18142382.24146684c0 .12354117.18142382-.16284973.18142382-.16284973z" fill="#fff"/><path d="m3.55511621 4.14668238s-.10280684.11231016-.10280684.16846524.1088543.17969625.15723399.17969625c.06047461 0 .15118652-.11792567.15118652-.17408074 0-.05615508-.10280683-.17408075-.10280683-.17408075v-.23585133s.18142382.38185454.18142382.20777379c0-.11231015-.18142382-.32008394-.18142382-.32008394h-.10280684s-.21166113.25831336-.18142383.32008394c0 .17408075.18142383-.20777379.18142383-.20777379z" fill="#ca3745"/><ellipse cx="2.46477" cy="2.602019" fill="#28ae66" rx="1" ry="1"/><ellipse cx="3.60774" cy="2.602019" fill="#28ae66" rx="1" ry="1"/><ellipse cx="4.744663" cy="2.602019" fill="#28ae66" rx="1" ry="1"/><path d="m2.45447832 1.40069906s-.08466445-.08423261-.08466445-.12354117c0-.03930855.09071191-.12915668.12699668-.12915668.04837968 0 .12699668.08423262.12699668.12354117 0 .04492407-.08466446.12915668-.08466446.12915668v.16846524s.18747129-.29200641.18747129-.16846524c0 .08984813-.18142383.24708235-.18142383.24708235h-.09071191s-.18747129-.17969625-.18747129-.24146684c0-.12354117.18142383.15723422.18142383.15723422v-.16846524z" fill="#fff"/><path d="m3.53092637 1.07499961s-.10280684-.11231016-.10280684-.16846523c0-.05615508.11490176-.17408075.15723399-.17408075.0604746 0 .15723398.11231016.15723398.16846524s-.10280684.17969625-.10280684.17969625v.22462031s.18142383-.37623902.18142383-.20215828c0 .11231015-.18142383.32569945-.18142383.32569945h-.11490175s-.21166114-.26392887-.18142383-.32569945c0-.16846524.18142383.20777379.18142383.20777379v-.23585133z" fill="#ca3745"/><path d="m4.67994395 3.82659844s-.08466446.07861711-.08466446.12354117c0 .03930855.09071192.12354117.13304414.12354117.04837969 0 .12699668-.08423262.12699668-.12354117 0-.03930856-.08466445-.12354117-.08466445-.12354117v-.16846524s.18142383.2863909.18142383.16284973c0-.08984813-.18142383-.24146684-.18142383-.24146684h-.09675938s-.18142382.17969625-.18142382.24146684c0 .12354117.18142382-.16284973.18142382-.16284973v.16846524zm-.01814239-2.42589938s-.08466445-.08423261-.08466445-.12915668c0-.03369304.09071191-.12354117.12699668-.12354117.04837969 0 .12699668.08423262.12699668.12354117 0 .04492407-.08466445.12915668-.08466445.12915668v.16846524s.18747128-.29200641.18747128-.16846524c0 .08984813-.18142382.24708235-.18142382.24708235h-.09071192s-.18747129-.17969625-.18747129-.24146684c0-.12354117.18142383.15723422.18142383.15723422v-.16846524z" fill="#fff" stroke="#979797" stroke-width=".1"/></g><g transform="translate(4)"><path d="m6.92502031 2.51993262-.39743789-.47987403v-.35821582l-.39743789-.35821582h-.79487578l-.6673957-.35821582h-2.12216836l-.66739571.35821582h-.79487578l-.39743789.35821582v.35821582l-.39743789.47311524v.96650683l.39743789.47311524v.36497461l.39743789.35821582h.79487578l.66739571.35821582h2.12216836l.6673957-.35821582h.79487578l.40493672-.35821582v-.35821582l.39743789-.47987403v-.96650683z" fill="#ca3745" stroke="#000" stroke-width=".1"/><path d="m.41796875 3v.35742188l.3984375.48046874v.35742188l.3984375.36328125h.796875l.66796875.3515625h.92578125v-1.90429688h-3.1875z" fill="#faae29"/><path d="m2.48632812 3.83789062-.48632812.31054688h-.29296875l.09960937.09960938-.19335937.20507812.09960938.10546875.29296875-.10546875.09375.10546875.04101562-.27539063.5390625-.328125-.19335937-.1171875z" fill="#ca3745"/><path d="m1.953125 3.59765625-.48632813.31054687h-.28710937l.09375.09960938-.1875.20507812.09375.10546876.29296875-.10546876.09375.10546876.046875-.27539063.53320312-.32226563-.19335937-.1171875zm-.26367188-.48046875-.48632812.31054688h-.29296875l.09960937.10546874-.19335937.20507813.09960938.09960937.29296875-.10546874.09374999.10546874.04101563-.27539062.5390625-.32226563-.19335937-.1171875z" fill="#ca3745"/><path d="m6.79296875 3v-.35742188l-.3984375-.48046874v-.35742188l-.3984375-.36328125h-.796875l-.66210937-.35742187h-.93164063v1.91601562z" fill="#faae29"/><path d="m3.60546875 4.91601562h-.24609375l-.28125-.24023437h-.45703125l-.24609375-.1171875.12304687-.1171875.24609375.1171875h.24609376l.24609375-.36328125.36914062.1171875v.24609375h-.36914062l.36914062.3515625z" fill="#ca3745"/><path d="m.41796875 3v-.35742188l.3984375-.48046874v-.35742188l.3984375-.36328125h.796875l.66796875-.35742187h.92578125v1.91601562z" fill="#fff"/><path d="m3.60546875 1.08398438h-.24609375l-.28125.234375h-.45703125l-.24609375.12304687.12304687.1171875.24609375-.1171875h.24609376l.24609375.36328125.36914062-.1171875v-.24609375h-.36914062z" fill="#ca3745"/><path d="m3.60546875 1.08398438h.24609375l.28710938.234375h.45117187l.24609375.12304687-.1171875.1171875-.25195313-.1171875h-.24609375l-.24609374.36328125-.36914063-.1171875v-.24609375h.36914063z" fill="#ca3745"/><path d="m6.79296875 3v.35742188l-.3984375.48046874v.35742188l-.3984375.36328125h-.796875l-.66210937.3515625h-.93164063v-1.90429688h3.1875z" fill="#fff"/><path d="m3.60546875 4.91601562h.24609375l.28710938-.24023437h.45117187l.24609375-.1171875-.1171875-.1171875-.25195312.1171875h-.24609376l-.24609374-.36328125-.36914063.1171875v.24609375h.36914063l-.36914063.3515625zm-1.65234375-2.51953124-.48632812-.3046875h-.28710938l.09375-.09960938-.1875-.20507813.09375-.10546875.29296875.10546875.09375-.10546875.046875.27539063.53320312.32226563zm2.77734375-.234375.48046875-.31054688h.29296875l-.09960938-.09960938.19335938-.20507812-.09375-.10546875-.29296875.10546875-.09375-.10546875-.046875.27539063-.53320312.328125z" fill="#ca3745"/><path d="m2.48632812 2.16210938-.48632812-.31054688h-.29296875l.09960937-.09960938-.19335937-.20507812.09960937-.10546875.29296876.10546875.09375-.10546875.04101562.27539063.5390625.32226562-.19335938.1171875zm-.80273437.72070312-.48632813-.31054688h-.29296874l.09960937-.10546874-.19335937-.20507813.11132812-.09375.29296875.10546875.09375-.10546875.04101562.27539063.5390625.32226562-.19335937.1171875z" fill="#ca3745"/><path d="m.65820313 3h.1171875l.12304687.1171875.12304687-.1171875h2.58398438v1.67578125h-.1171875l.1171875.1171875v.12890625l-.36914063-.35742188v-.1171875h.12304688v.1171875h.12304687v-.1171875l-.99609375-.52734374h-.84375v-.52734376l-.36914062-.26367187h-.24609375l-.12304687.1171875.1171875.1171875h-.1171875l-.24609375-.3515625z" fill="#fff"/><path d="m.65820313 3h.1171875l.12304687-.1171875.12304687.1171875h2.58398438v-1.67578125h-.1171875l.1171875-.1171875v-.12304687l-.36914063.35742187v.1171875h.12304688v-.1171875h.12304687v.1171875l-.99609375.53320313h-.84375v.52148437l-.36914062.26953125h-.24609375l-.12304687-.1171875.1171875-.12304688h-.1171875z" fill="#faae29"/><path d="m1.21484375 3h2.390625v1.43554688l-1.06054687-.59765625h-.79687501v-.48046875l-.52734375-.35742188z" fill="#28ae66"/><path d="m5.2578125 2.40234375.48632812-.31054687h.29296875l-.09960937-.09960938.19335938-.20507812-.09375-.10546876-.29296876.10546876-.09374999-.10546876-.04687501.27539063-.53320312.32226563.1875.1171875zm.26953125.48046875.48632812-.31054687h.28710938l-.09960938-.10546875.19335938-.20507813-.09375-.09960937-.29296875.10546875-.09375-.10546875-.046875.27539062-.53320312.32226563.19335937.1171875z" fill="#ca3745"/><path d="m6.55859375 3h-.12304688l-.12304687-.1171875-.12304688.1171875h-2.58398437v-1.67578125h.12304687l-.12304687-.1171875v-.12304687l.36914063.35742187v.1171875h-.12304688v-.1171875h-.12304688v.1171875l.99609376.53320313h.84375v.52148437l.375.26953125h.24609374l.1171875-.1171875-.1171875-.12304688h.1171875z" fill="#fff"/><path d="m5.99609375 3h-2.390625v-1.43554688l1.06640625.59765626h.796875v.48046874l.53320312.35742188z" fill="#28ae66"/><path d="m4.73046875 3.83789062.48046875.31054688h.29296875l-.09960938.09960938.19335938.20507812-.09375.10546875-.29296875-.10546875-.09375.10546875-.046875-.27539063-.53320312-.328125z" fill="#ca3745"/><path d="m5.2578125 3.59765625.48632812.31054687h.29296875l-.09960937.09960938.19335938.20507812-.09375.10546876-.29296876-.10546876-.09374999.10546876-.04687501-.27539063-.53320312-.32226563.1875-.1171875zm.26953125-.48046875.48632812.31054688h.28710938l-.09960938.09960937.19335938.20507813-.09375.10546874-.29296875-.10546874-.09375.10546874-.046875-.27539062-.53320312-.32226563.19335937-.1171875z" fill="#ca3745"/><path d="m6.55859375 3h-.12304688l-.12304687.1171875-.12304688-.1171875h-2.58398437v1.67578125h.12304687l-.12304687.1171875v.12890625l.36914063-.35742188v-.1171875h-.12304688v.1171875h-.12304688v-.1171875l.99609376-.52734374h.84375v-.52734376l.375-.26367187h.24609374l.1171875.1171875-.1171875.1171875h.1171875l.25195313-.3515625z" fill="#faae29"/><path d="m5.99609375 3h-2.390625v1.43554688l1.06640625-.59765626h.796875v-.48046874l.53320312-.35742188zm-4.78125 0h2.390625v-1.43554688l-1.06054687.59765626h-.79687501v.48046874l-.52734375.35742188z" fill="#ca3745"/><path d="m3.86914063 3 .66796875-.35742188h.3984375l-.13476563-.1171875.26953125-.24609374-.13476562-.1171875-.39843751.1171875-.13476562-.1171875-.05859375.32226562-.73828125.375.26367187.140625zm-.52734375 0-.66210938.35742187h-.3984375l.12890625.1171875-.26367187.24609375.13476562.1171875.3984375-.1171875.12890625.1171875.05859375-.32226562.73828125-.375z" fill="#ca3745"/><path d="m3.34179687 3-.66210937-.35742188h-.3984375l.13476562-.1171875-.26367187-.24609374.13476563-.1171875.39843749.1171875.12890625-.1171875.05859375.32226562.73828125.375-.26367187.140625zm.52734376 0 .66796875.35742188h.3984375l-.13476563.1171875.26953125.24609374-.13476562.1171875-.39843751-.1171875-.13476562.1171875-.05859375-.32226562-.73828125-.375.26367187-.140625z" fill="#28ae66"/><path d="m2.80859375 3 .796875-.59765625.796875.59765625-.796875.59765625z" fill="#fff"/><g fill="#ca3745"><path d="m1.02148438 3.24023438.12304687.1171875-.1171875.1171875h-.12890625l-.36914062-.47460938h.12304687l.24609375.35742188h.12304687l-.11718749-.1171875.11718749-.1171875h.25195313v.1171875h-.24609375z"/><path d="m1.02148438 2.75976562.12304687-.1171875-.1171875-.1171875h-.12890625l-.36914062.47460938h.12304687l.24609375-.35742188h.12304687l-.11718749.1171875.11718749.1171875h.25195313v-.1171875h-.24609375zm5.16796874.48046876-.1171875.1171875.1171875.1171875h.12304688l.36914062-.47460938h-.1171875l-.25195312.35742188h-.1171875l.1171875-.1171875-.1171875-.1171875h-.25195313v.1171875z"/><path d="m6.1953125 2.75976562-.12890625-.1171875.12304688-.1171875h.12304687l.36914063.47460938h-.1171875l-.25195313-.35742188h-.1171875l.1171875.1171875-.1171875.1171875h-.25195312v-.1171875h.24609374zm-2.71289062-.234375h.24609374v.95507813h-.24609374z"/><path d="m3.11328125 2.75976562h.984375v.48046875h-.984375z"/></g></g></g></g></g></g></svg>