<svg height="48" viewBox="0 0 48 48" width="48" xmlns="http://www.w3.org/2000/svg" xmlns:xlink="http://www.w3.org/1999/xlink"><defs><path id="a" d="m8 9h32c2.209139 0 4 1.790861 4 4v22c0 2.209139-1.790861 4-4 4h-32c-2.209139 0-4-1.790861-4-4v-22c0-2.209139 1.790861-4 4-4z"/><mask id="b" fill="#fff"><use fill="#fff" fill-rule="evenodd" xlink:href="#a"/></mask></defs><g fill="none" fill-rule="evenodd"><path d="m0 0h48v48h-48z"/><use fill="#d8d8d8" xlink:href="#a"/><g fill-rule="nonzero" mask="url(#b)"><g transform="translate(4 9)"><path d="m0 0h40v30h-40z" fill="#e70013"/><path d="m27.5664062 15.0019531c0 4.1777321-3.386721 7.5644531-7.5644531 7.5644531s-7.5644531-3.386721-7.5644531-7.5644531 3.386721-7.5644531 7.5644531-7.5644531 7.5644531 3.386721 7.5644531 7.5644531z" fill="#fff"/><g fill="#e70013"><path d="m19.9749788 19.9746094c-2.7049546-.09244-4.8499788-2.3120211-4.8499788-5.0185547s2.1450242-4.9261148 4.8499788-5.0185547c.6914062 0 1.4824218.1640625 2.015625.5566406-3.6679688.1347656-4.5996094 3.2519532-4.5996094 4.5058594s.5917969 4.0488281 4.5996094 4.4648438c-.4570313.2929687-1.3242188.5097656-2.015625.5097656z"/><path d="m24.4082031 17.1035156-2.2792969-.8320312-1.5058593 1.8984375.0878906-2.4199219-2.2734375-.8496094 2.3320312-.6679687.0996094-2.4199219 1.359375 2.0097656 2.3320313-.6445312-1.4941407 1.9042968z"/></g></g></g></g></svg>