<svg height="48" viewBox="0 0 48 48" width="48" xmlns="http://www.w3.org/2000/svg" xmlns:xlink="http://www.w3.org/1999/xlink"><defs><path id="a" d="m8 9h32c2.209139 0 4 1.790861 4 4v22c0 2.209139-1.790861 4-4 4h-32c-2.209139 0-4-1.790861-4-4v-22c0-2.209139 1.790861-4 4-4z"/><mask id="b" fill="#fff"><use fill="#fff" fill-rule="evenodd" xlink:href="#a"/></mask></defs><g fill="none" fill-rule="evenodd"><path d="m0 0h48v48h-48z"/><use fill="#d8d8d8" xlink:href="#a"/><g fill-rule="nonzero" mask="url(#b)"><g transform="translate(4 9)"><path d="m0 0h40v30h-40z" fill="#f31930"/><path d="m25.4360625 15.4670625c0 4.1384375-3.412875 7.493125-7.623125 7.493125s-7.6229375-3.3548125-7.6229375-7.4931875 3.412875-7.493125 7.623-7.493125 7.623125 3.3548125 7.623125 7.493125z" fill="#fff"/><path d="m25.8173125 15.4666875c0 3.310625-2.730375 5.994375-6.0984375 5.994375s-6.098375-2.68375-6.098375-5.994375 2.730375-5.994375 6.098375-5.994375 6.0984375 2.68375 6.0984375 5.994375z" fill="#f31830"/><path d="m26.920375 11.9665625-.0615625 2.769875-2.5840625.7015625 2.54725.907125-.0615 2.540125 1.66125-1.983625 2.51025.870875-1.4520625-2.12875 1.772-2.11675-2.7195625.749875-1.6120625-2.31025z" fill="#fff"/></g></g></g></svg>