<svg height="48" viewBox="0 0 48 48" width="48" xmlns="http://www.w3.org/2000/svg" xmlns:xlink="http://www.w3.org/1999/xlink"><defs><path id="a" d="m8 9h32c2.209139 0 4 1.790861 4 4v22c0 2.209139-1.790861 4-4 4h-32c-2.209139 0-4-1.790861-4-4v-22c0-2.209139 1.790861-4 4-4z"/><mask id="b" fill="#fff"><use fill="#fff" fill-rule="evenodd" xlink:href="#a"/></mask></defs><g fill="none" fill-rule="evenodd"><path d="m0 0h48v48h-48z"/><use fill="#d8d8d8" xlink:href="#a"/><g fill-rule="nonzero" mask="url(#b)"><g transform="translate(4 9)"><path d="m0 0h40v30h-40z" fill="#de2110"/><path d="m0 0h20v15h-20z" fill="#08399c"/><path d="m15.1810938 10.4601562-2.7733594-.57029292.5908008 2.76914062-2.117168-1.8801562-.8732813 2.6935546-.89320309-2.6875195-2.10269531 1.8965039.57029297-2.77335936-2.76914063.59021486 1.88015625-2.11658204-2.69349609-.87328125 2.68681641-.89320313-1.89585938-2.10292969 2.77335938.57011719-.59021485-2.76925781 2.11658203 1.88044922.87328125-2.69355469.89320316 2.68705078 2.1026953-1.89609375-.570293 2.77353516 2.7691406-.590625-1.8801562 2.11710937 2.6935547.87263672-2.686875.89320313z" fill="#fff"/><path d="m12.5768555 10.2473242-.8750977.4647656-.8537109.504375-.99128909-.0341601-.99134765.0116015-.84140625-.5238867-.86478516-.4848633-.46599609-.87339839-.50572266-.85078125.03363281-.98871094-.01101562-.98923828.52529297-.8390625.48621093-.86226562.87509766-.46488281.85371094-.50431641.99134765.03398437.99187496-.01130859.8415235.52382813.864082.48486328.4659961.87310547.5057813.85078125-.0336329.98871093.0109571.98923828-.525293.83923829z" fill="#005387"/><path d="m12.9531055 7.47646484c0 1.67847657-1.3606641 3.03908206-3.03902347 3.03908206s-3.03908203-1.36060549-3.03908203-3.03902346 1.36066406-3.03902344 3.03908203-3.03902344 3.03902347 1.36060547 3.03902347 3.03902344z" fill="#fff"/></g></g></g></svg>