<svg height="48" viewBox="0 0 48 48" width="48" xmlns="http://www.w3.org/2000/svg" xmlns:xlink="http://www.w3.org/1999/xlink"><defs><path id="a" d="m8 9h32c2.209139 0 4 1.790861 4 4v22c0 2.209139-1.790861 4-4 4h-32c-2.209139 0-4-1.790861-4-4v-22c0-2.209139 1.790861-4 4-4z"/><mask id="b" fill="#fff"><use fill="#fff" fill-rule="evenodd" xlink:href="#a"/></mask></defs><g fill="none" fill-rule="evenodd"><path d="m0 0h48v48h-48z"/><use fill="#d8d8d8" xlink:href="#a"/><g mask="url(#b)"><g fill-rule="nonzero" transform="translate(4 9)"><g fill="none"><path d="m0 0h39.9921891v2.30321637h-39.9921891zm0 4.60643275h39.9921891v2.30321637h-39.9921891zm0 4.60643275h39.9921891v2.3032164h-39.9921891zm0 4.6064327h39.9921891v2.3032164h-39.9921891zm0 4.6064328h39.9921891v2.3032164h-39.9921891zm0 4.6064327h39.9921891v2.3032164h-39.9921891zm0 4.6064328h39.9921891v2.3032164h-39.9921891z" fill="#bd3d44"/><path d="m0 2.30321637h39.9921891v2.30321638h-39.9921891zm0 4.60643275h39.9921891v2.30321638h-39.9921891zm0 4.60643278h39.9921891v2.3032163h-39.9921891zm0 4.6064327h39.9921891v2.3032164h-39.9921891zm0 4.6064328h39.9921891v2.3032163h-39.9921891zm0 4.6064327h39.9921891v2.3032164h-39.9921891z" fill="#fff"/></g><path d="m0 0h19v16.1537109h-19z" fill="#192f5d"/><g fill="#fff" transform="translate(1 .644531)"><path d="m.90392578.046875.20742188.6384375h.67136718l-.54316406.39462891.20748047.6384375-.54316406-.39457032-.54304688.39457032.20742188-.6384375-.54310547-.39462891h.67130859zm3.79998047 0 .20748047.6384375h.67136719l-.54316407.39462891.20748047.6384375-.54316406-.39457032-.54304688.39457032.20742188-.6384375-.54310547-.39462891h.67130859zm3.80015625 0 .20742187.6384375h.67136719l-.54316406.39462891.20748047.6384375-.54310547-.39457032-.54310547.39457032.20742188-.6384375-.54310547-.39462891h.67136718zm3.7999219 0 .2074219.6384375h.6713085l-.5431054.39462891.2074219.6384375-.5430469-.39457032-.5431641.39457032.2074805-.6384375-.5431641-.39462891h.6713672zm3.8000976 0 .2074219.6384375h.6713672l-.5431641.39462891.2074805.6384375-.5431641-.39457032-.5430468.39457032.2074218-.6384375-.5431054-.39462891h.6713086zm-13.30007809 1.61542969.20742187.6384375h.67136719l-.54316406.39457031.20753906.63849609-.54316406-.39457031-.54310547.39457031.20742187-.63849609-.54310547-.39457031h.67136719zm3.79992187 0 .20742188.6384375h.67130859l-.54310547.39457031.20742188.63849609-.54304688-.39457031-.54316406.39457031.20748047-.63849609-.54316407-.39457031h.67136719zm3.80009762 0 .2074219.6384375h.6713672l-.5431641.39457031.2074805.63849609-.5431641-.39457031-.54304683.39457031.20742183-.63849609-.54310543-.39457031h.67130863zm3.8000977 0 .2074219.6384375h.6713672l-.5431641.39457031.2074805.63849609-.5431055-.39457031-.5431641.39457031.2075977-.63849609-.5431641-.39457031h.6713672zm-13.30019532 1.61537109.20742188.6384375h.67136718l-.54316406.39462891.20748047.6384375-.54316406-.39457031-.54304688.39457031.20742188-.6384375-.54310547-.39462891h.67130859zm3.79998047 0 .20748047.6384375h.67136719l-.54316407.39462891.20748047.6384375-.54316406-.39457031-.54304688.39457031.20742188-.6384375-.54310547-.39462891h.67130859zm3.80015625 0 .20742187.6384375h.67136719l-.54316406.39462891.20748047.6384375-.54310547-.39457031-.54310547.39457031.20742188-.6384375-.54310547-.39462891h.67136718zm3.7999219 0 .2074219.6384375h.6713085l-.5431054.39462891.2074219.6384375-.5430469-.39457031-.5431641.39457031.2074805-.6384375-.5431641-.39462891h.6713672zm3.8000976 0 .2074219.6384375h.6713672l-.5431641.39462891.2074805.6384375-.5431641-.39457031-.5430468.39457031.2074218-.6384375-.5431054-.39462891h.6713086zm-13.30007809 1.61537109.20742187.6384961h.67136719l-.54316406.39457031.20753906.63849609-.54316406-.39457031-.54310547.39457031.20742187-.63849609-.54310547-.39457031h.67136719zm3.79992187 0 .20742188.6384961h.67130859l-.54310547.39457031.20742188.63849609-.54304688-.39457031-.54316406.39457031.20748047-.63849609-.54316407-.39457031h.67136719zm3.80009762 0 .2074219.6384961h.6713672l-.5431641.39457031.2074805.63849609-.5431641-.39457031-.54304683.39457031.20742183-.63849609-.54310543-.39457031h.67130863zm3.8000977 0 .2074219.6384961h.6713672l-.5431641.39457031.2074805.63849609-.5431055-.39457031-.5431641.39457031.2075391-.63849609-.5431641-.39457031h.6713672zm-13.30019532 1.61542969.20742188.6384375h.67136718l-.54316406.39462891.20748047.6384375-.54316406-.39457031-.54304688.39457031.20742188-.6384375-.54310547-.39462891h.67130859zm3.79998047 0 .20748047.6384375h.67136719l-.54316407.39462891.20748047.6384375-.54316406-.39457031-.54304688.39457031.20742188-.6384375-.54310547-.39462891h.67130859zm3.80015625 0 .20742187.6384375h.67136719l-.54316406.39462891.20748047.6384375-.54310547-.39457031-.54310547.39457031.20742188-.6384375-.54310547-.39462891h.67136718zm3.7999219 0 .2074219.6384375h.6713085l-.5431054.39462891.2074219.6384375-.5430469-.39457031-.5431641.39457031.2074805-.6384375-.5431641-.39462891h.6713672zm3.8000976 0 .2074219.6384375h.6713672l-.5431641.39462891.2074805.6384375-.5431641-.39457031-.5430468.39457031.2074218-.6384375-.5431054-.39462891h.6713086zm-13.30007809 1.6153711.20742187.63849609h.67136719l-.54316406.39457031.20753906.6384961-.54316406-.39457032-.54310547.39457032.20742187-.6384961-.54310547-.39457031h.67136719zm3.79992187 0 .20742188.63849609h.67130859l-.54310547.39457031.20742188.6384961-.54304688-.39457032-.54316406.39457032.20748047-.6384961-.54316407-.39457031h.67136719zm3.80009762 0 .2074219.63849609h.6713672l-.5431641.39457031.2074805.6384961-.5431641-.39457032-.54304683.39457032.20742183-.6384961-.54310543-.39457031h.67130863zm3.8000977 0 .2074219.63849609h.6713672l-.5431641.39457031.2074805.6384961-.5431055-.39457032-.5431641.39457032.2075391-.6384961-.5431641-.39457031h.6713672z"/><path d="m.90392578 9.73927734.20742188.63843746h.67136718l-.54316406.394629.20748047.6384375-.54316406-.3945704-.54304688.3945704.20742188-.6384375-.54310547-.394629h.67130859zm3.79998047 0 .20748047.63843746h.67136719l-.54316407.394629.20748047.6384375-.54316406-.3945704-.54304688.3945704.20742188-.6384375-.54310547-.394629h.67130859zm3.80015625 0 .20742187.63843746h.67136719l-.54316406.394629.20748047.6384375-.54310547-.3945704-.54310547.3945704.20742188-.6384375-.54310547-.394629h.67136718zm3.7999219 0 .2074219.63843746h.6713085l-.5431054.394629.2074219.6384375-.5430469-.3945704-.5431641.3945704.2074805-.6384375-.5431641-.394629h.6713672zm3.8000976 0 .2074219.63843746h.6713672l-.5431641.394629.2074805.6384375-.5431641-.3945704-.5430468.3945704.2074218-.6384375-.5431054-.394629h.6713086zm-13.30007809 1.61537106.20742187.6384961h.67136719l-.54316406.3945703.20753906.6384961-.54316406-.3945703-.54310547.3945703.20742187-.6384961-.54310547-.3945703h.67136719zm3.79992187 0 .20742188.6384961h.67130859l-.54310547.3945703.20742188.6384961-.54304688-.3945703-.54316406.3945703.20748047-.6384961-.54316407-.3945703h.67136719zm3.80009762 0 .2074219.6384961h.6713672l-.5431641.3945703.2074805.6384961-.5431641-.3945703-.54304683.3945703.20742183-.6384961-.54310543-.3945703h.67130863zm3.8000977 0 .2074219.6384961h.6713672l-.5431641.3945703.2074805.6384961-.5431055-.3945703-.5431641.3945703.2075391-.6384961-.5431641-.3945703h.6713672z"/><path d="m.90392578 12.9700781.20742188.6384375h.67136718l-.54316406.3946289.20748047.6384375-.54316406-.3945703-.54304688.3945703.20742188-.6384375-.54310547-.3946289h.67130859zm3.79998047 0 .20748047.6384375h.67136719l-.54316407.3946289.20748047.6384375-.54316406-.3945703-.54304688.3945703.20742188-.6384375-.54310547-.3946289h.67130859zm3.80015625 0 .20742187.6384375h.67136719l-.54316406.3946289.20748047.6384375-.54310547-.3945703-.54310547.3945703.20742188-.6384375-.54310547-.3946289h.67136718zm3.7999219 0 .2074219.6384375h.6713085l-.5431054.3946289.2074219.6384375-.5430469-.3945703-.5431641.3945703.2074805-.6384375-.5431641-.3946289h.6713672zm3.8000976 0 .2074219.6384375h.6713672l-.5431641.3946289.2074805.6384375-.5431641-.3945703-.5430468.3945703.2074218-.6384375-.5431054-.3946289h.6713086z"/></g></g></g></g></svg>