<svg height="48" viewBox="0 0 48 48" width="48" xmlns="http://www.w3.org/2000/svg" xmlns:xlink="http://www.w3.org/1999/xlink"><defs><path id="a" d="m8 9h32c2.209139 0 4 1.790861 4 4v22c0 2.209139-1.790861 4-4 4h-32c-2.209139 0-4-1.790861-4-4v-22c0-2.209139 1.790861-4 4-4z"/><mask id="b" fill="#fff"><use fill="#fff" fill-rule="evenodd" xlink:href="#a"/></mask></defs><g fill="none" fill-rule="evenodd"><path d="m0 0h48v48h-48z"/><use fill="#d8d8d8" xlink:href="#a"/><g mask="url(#b)"><g transform="translate(4 9)"><path d="m0 0h40v30h-40z" fill="#fff" fill-rule="nonzero"/><path d="m4 .5c-1.93299662 0-3.5 1.56700338-3.5 3.5v22c0 1.9329966 1.56700338 3.5 3.5 3.5h32c1.9329966 0 3.5-1.5670034 3.5-3.5v-22c0-1.93299662-1.5670034-3.5-3.5-3.5z" fill="none" stroke="#dedede"/><path d="m16.2195122 5h23.7804878v2.92712714h-23.7804878zm0 5.8543092h23.7804878v2.9271271h-23.7804878zm-16.2195122 5.8543091h40v2.9271272h-40zm0 5.8542543h40v2.9271272h-40z" fill="#0038a8" fill-rule="nonzero"/><g fill="none" fill-rule="evenodd"><g stroke="#000" stroke-width=".1" transform="translate(.851204 .804814)"><g transform="translate(5.091816 7.673658)"><path d="m1.59168165 1.28377527.76609364.48289487c-1.36194426 2.09254445.17024303 2.41447436-1.02145819 3.38026411.51072909-1.1267547-.5107291-.80482479-.5107291-2.73640428" fill="#fcd116" fill-rule="nonzero" stroke-linecap="square" transform="matrix(.92387953 .38268343 -.38268343 .92387953 1.351623 -.364356)"/><path d="m1.28779383 1.53892087c-.36666625 2.09254445.82499906 2.73640428 0 3.54122906" transform="matrix(.92387953 .38268343 -.38268343 .92387953 1.376709 -.302112)"/><path d="m2.72388851 0h1.02145819l-1.02145819 5.3118436-1.02145819-5.3118436h1.02145819v5.3118436" fill="#fcd116" fill-rule="nonzero"/></g><g transform="matrix(.70710678 .70710678 -.70710678 .70710678 5.76462398026 5.7627901855)"><path d="m1.59168165 1.28377527.76609364.48289487c-1.36194426 2.09254445.17024303 2.41447436-1.02145819 3.38026411.51072909-1.1267547-.5107291-.80482479-.5107291-2.73640428" fill="#fcd116" fill-rule="nonzero" stroke-linecap="square" transform="matrix(.92387953 .38268343 -.38268343 .92387953 1.351623 -.364356)"/><path d="m1.28779383 1.53892087c-.36666625 2.09254445.82499906 2.73640428 0 3.54122906" transform="matrix(.92387953 .38268343 -.38268343 .92387953 1.376709 -.302112)"/><path d="m2.72388851 0h1.02145819l-1.02145819 5.3118436-1.02145819-5.3118436h1.02145819v5.3118436" fill="#fcd116" fill-rule="nonzero"/></g><g transform="matrix(0 1 -1 0 7.674003 5.072071)"><path d="m1.59168165 1.28377527.76609364.48289487c-1.36194426 2.09254445.17024303 2.41447436-1.02145819 3.38026411.51072909-1.1267547-.5107291-.80482479-.5107291-2.73640428" fill="#fcd116" fill-rule="nonzero" stroke-linecap="square" transform="matrix(.92387953 .38268343 -.38268343 .92387953 1.351623 -.364356)"/><path d="m1.28779383 1.53892087c-.36666625 2.09254445.82499906 2.73640428 0 3.54122906" transform="matrix(.92387953 .38268343 -.38268343 .92387953 1.376709 -.302112)"/><path d="m2.72388851 0h1.02145819l-1.02145819 5.3118436-1.02145819-5.3118436h1.02145819v5.3118436" fill="#fcd116" fill-rule="nonzero"/></g><g transform="matrix(-.70710678 .70710678 -.70710678 -.70710678 9.5848708145 5.74487898026)"><path d="m1.59168165 1.28377527.76609364.48289487c-1.36194426 2.09254445.17024303 2.41447436-1.02145819 3.38026411.51072909-1.1267547-.5107291-.80482479-.5107291-2.73640428" fill="#fcd116" fill-rule="nonzero" stroke-linecap="square" transform="matrix(.92387953 .38268343 -.38268343 .92387953 1.351623 -.364356)"/><path d="m1.28779383 1.53892087c-.36666625 2.09254445.82499906 2.73640428 0 3.54122906" transform="matrix(.92387953 .38268343 -.38268343 .92387953 1.376709 -.302112)"/><path d="m2.72388851 0h1.02145819l-1.02145819 5.3118436-1.02145819-5.3118436h1.02145819v5.3118436" fill="#fcd116" fill-rule="nonzero"/></g><g transform="matrix(-1 0 0 -1 10.471585 7.574155)"><path d="m1.59168165 1.28377527.76609364.48289487c-1.36194426 2.09254445.17024303 2.41447436-1.02145819 3.38026411.51072909-1.1267547-.5107291-.80482479-.5107291-2.73640428" fill="#fcd116" fill-rule="nonzero" stroke-linecap="square" transform="matrix(.92387953 .38268343 -.38268343 .92387953 1.351623 -.364356)"/><path d="m1.28779383 1.53892087c-.36666625 2.09254445.82499906 2.73640428 0 3.54122906" transform="matrix(.92387953 .38268343 -.38268343 .92387953 1.376709 -.302112)"/><path d="m2.72388851 0h1.02145819l-1.02145819 5.3118436-1.02145819-5.3118436h1.02145819v5.3118436" fill="#fcd116" fill-rule="nonzero"/></g><g transform="matrix(-.70710678 -.70710678 .70710678 -.70710678 9.79877701974 9.4850228145)"><path d="m1.59168165 1.28377527.76609364.48289487c-1.36194426 2.09254445.17024303 2.41447436-1.02145819 3.38026411.51072909-1.1267547-.5107291-.80482479-.5107291-2.73640428" fill="#fcd116" fill-rule="nonzero" stroke-linecap="square" transform="matrix(.92387953 .38268343 -.38268343 .92387953 1.351623 -.364356)"/><path d="m1.28779383 1.53892087c-.36666625 2.09254445.82499906 2.73640428 0 3.54122906" transform="matrix(.92387953 .38268343 -.38268343 .92387953 1.376709 -.302112)"/><path d="m2.72388851 0h1.02145819l-1.02145819 5.3118436-1.02145819-5.3118436h1.02145819v5.3118436" fill="#fcd116" fill-rule="nonzero"/></g><g transform="matrix(0 -1 1 0 7.889398 10.175742)"><path d="m1.59168165 1.28377527.76609364.48289487c-1.36194426 2.09254445.17024303 2.41447436-1.02145819 3.38026411.51072909-1.1267547-.5107291-.80482479-.5107291-2.73640428" fill="#fcd116" fill-rule="nonzero" stroke-linecap="square" transform="matrix(.92387953 .38268343 -.38268343 .92387953 1.351623 -.364356)"/><path d="m1.28779383 1.53892087c-.36666625 2.09254445.82499906 2.73640428 0 3.54122906" transform="matrix(.92387953 .38268343 -.38268343 .92387953 1.376709 -.302112)"/><path d="m2.72388851 0h1.02145819l-1.02145819 5.3118436-1.02145819-5.3118436h1.02145819v5.3118436" fill="#fcd116" fill-rule="nonzero"/></g><g transform="matrix(.70710678 -.70710678 .70710678 .70710678 5.9785301855 9.50293401974)"><path d="m1.59168165 1.28377527.76609364.48289487c-1.36194426 2.09254445.17024303 2.41447436-1.02145819 3.38026411.51072909-1.1267547-.5107291-.80482479-.5107291-2.73640428" fill="#fcd116" fill-rule="nonzero" stroke-linecap="square" transform="matrix(.92387953 .38268343 -.38268343 .92387953 1.351623 -.364356)"/><path d="m1.28779383 1.53892087c-.36666625 2.09254445.82499906 2.73640428 0 3.54122906" transform="matrix(.92387953 .38268343 -.38268343 .92387953 1.376709 -.302112)"/><path d="m2.72388851 0h1.02145819l-1.02145819 5.3118436-1.02145819-5.3118436h1.02145819v5.3118436" fill="#fcd116" fill-rule="nonzero"/></g><ellipse cx="7.815705" cy="7.331224" fill="#fcd116" fill-rule="nonzero" rx="1.872673" ry="1.770615"/></g><g fill="#000" fill-rule="nonzero" transform="translate(6.29 7.154162)"><g transform="translate(2.293834)"><path d="m1.4640751.27363763c-.1191689.12877065-.18726542-.09657799-.61286865-.09657799-.42560322 0-.49369974.24144497-.56179626.19315598-.06809651-.048289.35750672-.33802296.49369975-.35411929s.527748.11267432.68096516.2575413m-.49369974.14486698c.1191689.09657799.01702413.30583029-.10214478.30583029-.1191689 0-.34048258-.19315597-.2383378-.32192662"/><path d="m.4085791.5946867c.01702413-.2199975.18726542-.25666375.45965148-.25666375.27238607 0 .39155497.2199975.49369975.27499688-.11916891 0-.22131368-.18333125-.49369975-.18333125-.27238606 0-.27238606 0-.45965148.18333125m.05107239.03666625c.06809651-.10999875.15321716.10999875.34048258.10999875s.28941019-.05499938.40857909-.146665c.11916891-.09166563-.17024129.2199975-.35750671.2199975s-.44262735-.10999875-.39155496-.18333125"/><path d="m1.03847187.70823857c.22131368-.11267432.08512065-.27363763 0-.30583029.03404826.03219266.17024129.19315597 0 .30583029m-.95335122.96577987c.10214477 0 .13619303-.03219266.27238606-.03219266s.45965149.17705964.64691691.11267431c-.39155497.14486698-.23833781.048289-.91930297.048289h-.08512065m1.07252013.09657798c-.06809651-.11267431-.05107239-.08048165-.18726542-.25754129.13619303.09657798.17024129.14486698.18726542.25754129m-.98739948.16096332c.42560322 0 .35750671-.08048166.91930297-.3058303-.4085791.048289-.49369975.17705965-.91930297.17705965h-.08512065m.08512065-.46679361c.1191689 0 .15321716-.08048165.28941019-.08048165s.32345845.04828899.4085791.11267432c.01702413.01609633-.05107239-.12877065-.18726542-.14486698-.13619303-.01609634-.08512065-.22534864-.23833781-.2575413 0 .06438532.05107239.04828899.06809652.14486698 0 .08048165-.15321716.08048165-.18726542 0 .03404826.12877065-.06809652.12877065-.15321716.12877065"/></g><g transform="matrix(-1 0 0 1 2.464075 0)"><path d="m1.4640751.27363763c-.1191689.12877065-.18726542-.09657799-.61286865-.09657799-.42560322 0-.49369974.24144497-.56179626.19315598-.06809651-.048289.35750672-.33802296.49369975-.35411929s.527748.11267432.68096516.2575413m-.49369974.14486698c.1191689.09657799.01702413.30583029-.10214478.30583029-.1191689 0-.34048258-.19315597-.2383378-.32192662"/><path d="m.4085791.5946867c.01702413-.2199975.18726542-.25666375.45965148-.25666375.27238607 0 .39155497.2199975.49369975.27499688-.11916891 0-.22131368-.18333125-.49369975-.18333125-.27238606 0-.27238606 0-.45965148.18333125m.05107239.03666625c.06809651-.10999875.15321716.10999875.34048258.10999875s.28941019-.05499938.40857909-.146665c.11916891-.09166563-.17024129.2199975-.35750671.2199975s-.44262735-.10999875-.39155496-.18333125"/><path d="m1.03847187.70823857c.22131368-.11267432.08512065-.27363763 0-.30583029.03404826.03219266.17024129.19315597 0 .30583029m-.95335122.96577987c.10214477 0 .13619303-.03219266.27238606-.03219266s.45965149.17705964.64691691.11267431c-.39155497.14486698-.23833781.048289-.91930297.048289h-.08512065m1.07252013.09657798c-.06809651-.11267431-.05107239-.08048165-.18726542-.25754129.13619303.09657798.17024129.14486698.18726542.25754129m-.98739948.16096332c.42560322 0 .35750671-.08048166.91930297-.3058303-.4085791.048289-.49369975.17705965-.91930297.17705965h-.08512065m.08512065-.46679361c.1191689 0 .15321716-.08048165.28941019-.08048165s.32345845.04828899.4085791.11267432c.01702413.01609633-.05107239-.12877065-.18726542-.14486698-.13619303-.01609634-.08512065-.22534864-.23833781-.2575413 0 .06438532.05107239.04828899.06809652.14486698 0 .08048165-.15321716.08048165-.18726542 0 .03404826.12877065-.06809652.12877065-.15321716.12877065"/></g><path d="m2.39103786 2.20519737c-.09166563 0-.32999625.1 0 .1s.09166562-.1 0-.1"/></g></g></g></g></g></svg>