<svg height="48" viewBox="0 0 48 48" width="48" xmlns="http://www.w3.org/2000/svg" xmlns:xlink="http://www.w3.org/1999/xlink"><defs><rect id="a" height="30" rx="4" width="40" x="4" y="9"/><mask id="b" fill="#fff"><use fill="#fff" fill-rule="evenodd" xlink:href="#a"/></mask></defs><g fill="none" fill-rule="evenodd"><path d="m0 0h48v48h-48z"/><use fill="#d8d8d8" xlink:href="#a"/><g mask="url(#b)"><g transform="translate(4 9)"><path d="m0 20h40v10h-40z" fill="#1eb53a" fill-rule="nonzero"/><path d="m0 0h40v10h-40z" fill="#0099b5" fill-rule="nonzero"/><path d="m0 9.6h40v10.8h-40z" fill="#ce1126" fill-rule="nonzero"/><path d="m0 10.2h40v9.6h-40z" fill="#fff" fill-rule="nonzero"/><circle cx="8.4" cy="4.8" fill="#fff" fill-rule="nonzero" r="3.6"/><circle cx="9.6" cy="4.8" fill="#0099b5" fill-rule="nonzero" r="3.6"/><g fill="#fff"><g fill-rule="nonzero" transform="translate(9.5625 1.1875)"><g transform="translate(5.7975 .0125)"><g transform="translate(.72 5.76)"><path d="m.34305729 0-.32480729.68472.5.11124"/><path d="m.34914062 0-.32480729.68472.5.11124" transform="matrix(-1 0 0 1 .5 0)"/><g transform="matrix(.30901699 .95105652 -.95105652 .30901699 .850597 .269254)"><path d="m.34305729 0-.32480729.68472.5.11124"/><path d="m.34914062 0-.32480729.68472.5.11124" transform="matrix(-1 0 0 1 .5 0)"/></g></g><g transform="matrix(.30901699 -.95105652 .95105652 .30901699 .201075 6.485761)"><path d="m.34305729 0-.32480729.68472.5.11124"/><path d="m.34914062 0-.32480729.68472.5.11124" transform="matrix(-1 0 0 1 .5 0)"/></g><g transform="matrix(-.80901699 .58778525 -.58778525 -.80901699 1.577369 6.921424)"><path d="m.34305729 0-.32480729.68472.5.11124"/><path d="m.34914062 0-.32480729.68472.5.11124" transform="matrix(-1 0 0 1 .5 0)"/><g transform="matrix(.30901699 .95105652 -.95105652 .30901699 .850597 .269254)"><path d="m.34305729 0-.32480729.68472.5.11124"/><path d="m.34914062 0-.32480729.68472.5.11124" transform="matrix(-1 0 0 1 .5 0)"/></g></g><g transform="translate(.72 2.88)"><path d="m.34305729 0-.32480729.68472.5.11124"/><path d="m.34914062 0-.32480729.68472.5.11124" transform="matrix(-1 0 0 1 .5 0)"/><g transform="matrix(.30901699 .95105652 -.95105652 .30901699 .850597 .269254)"><path d="m.34305729 0-.32480729.68472.5.11124"/><path d="m.34914062 0-.32480729.68472.5.11124" transform="matrix(-1 0 0 1 .5 0)"/></g></g><g transform="matrix(.30901699 -.95105652 .95105652 .30901699 .201075 3.605761)"><path d="m.34305729 0-.32480729.68472.5.11124"/><path d="m.34914062 0-.32480729.68472.5.11124" transform="matrix(-1 0 0 1 .5 0)"/></g><g transform="matrix(-.80901699 .58778525 -.58778525 -.80901699 1.577369 4.041424)"><path d="m.34305729 0-.32480729.68472.5.11124"/><path d="m.34914062 0-.32480729.68472.5.11124" transform="matrix(-1 0 0 1 .5 0)"/><g transform="matrix(.30901699 .95105652 -.95105652 .30901699 .850597 .269254)"><path d="m.34305729 0-.32480729.68472.5.11124"/><path d="m.34914062 0-.32480729.68472.5.11124" transform="matrix(-1 0 0 1 .5 0)"/></g></g><g transform="translate(.72)"><path d="m.34305729 0-.32480729.68472.5.11124"/><path d="m.34914062 0-.32480729.68472.5.11124" transform="matrix(-1 0 0 1 .5 0)"/><g transform="matrix(.30901699 .95105652 -.95105652 .30901699 .850597 .269254)"><path d="m.34305729 0-.32480729.68472.5.11124"/><path d="m.34914062 0-.32480729.68472.5.11124" transform="matrix(-1 0 0 1 .5 0)"/></g></g><g transform="matrix(.30901699 -.95105652 .95105652 .30901699 .201075 .725761)"><path d="m.34305729 0-.32480729.68472.5.11124"/><path d="m.34914062 0-.32480729.68472.5.11124" transform="matrix(-1 0 0 1 .5 0)"/></g><g transform="matrix(-.80901699 .58778525 -.58778525 -.80901699 1.577369 1.161424)"><path d="m.34305729 0-.32480729.68472.5.11124"/><path d="m.34914062 0-.32480729.68472.5.11124" transform="matrix(-1 0 0 1 .5 0)"/><g transform="matrix(.30901699 .95105652 -.95105652 .30901699 .850597 .269254)"><path d="m.34305729 0-.32480729.68472.5.11124"/><path d="m.34914062 0-.32480729.68472.5.11124" transform="matrix(-1 0 0 1 .5 0)"/></g></g></g><g transform="translate(8.6775 .0125)"><g transform="translate(.72 5.76)"><path d="m.34305729 0-.32480729.68472.5.11124"/><path d="m.34914062 0-.32480729.68472.5.11124" transform="matrix(-1 0 0 1 .5 0)"/><g transform="matrix(.30901699 .95105652 -.95105652 .30901699 .850597 .269254)"><path d="m.34305729 0-.32480729.68472.5.11124"/><path d="m.34914062 0-.32480729.68472.5.11124" transform="matrix(-1 0 0 1 .5 0)"/></g></g><g transform="matrix(.30901699 -.95105652 .95105652 .30901699 .201075 6.485761)"><path d="m.34305729 0-.32480729.68472.5.11124"/><path d="m.34914062 0-.32480729.68472.5.11124" transform="matrix(-1 0 0 1 .5 0)"/></g><g transform="matrix(-.80901699 .58778525 -.58778525 -.80901699 1.577369 6.921424)"><path d="m.34305729 0-.32480729.68472.5.11124"/><path d="m.34914062 0-.32480729.68472.5.11124" transform="matrix(-1 0 0 1 .5 0)"/><g transform="matrix(.30901699 .95105652 -.95105652 .30901699 .850597 .269254)"><path d="m.34305729 0-.32480729.68472.5.11124"/><path d="m.34914062 0-.32480729.68472.5.11124" transform="matrix(-1 0 0 1 .5 0)"/></g></g><g transform="translate(.72 2.88)"><path d="m.34305729 0-.32480729.68472.5.11124"/><path d="m.34914062 0-.32480729.68472.5.11124" transform="matrix(-1 0 0 1 .5 0)"/><g transform="matrix(.30901699 .95105652 -.95105652 .30901699 .850597 .269254)"><path d="m.34305729 0-.32480729.68472.5.11124"/><path d="m.34914062 0-.32480729.68472.5.11124" transform="matrix(-1 0 0 1 .5 0)"/></g></g><g transform="matrix(.30901699 -.95105652 .95105652 .30901699 .201075 3.605761)"><path d="m.34305729 0-.32480729.68472.5.11124"/><path d="m.34914062 0-.32480729.68472.5.11124" transform="matrix(-1 0 0 1 .5 0)"/></g><g transform="matrix(-.80901699 .58778525 -.58778525 -.80901699 1.577369 4.041424)"><path d="m.34305729 0-.32480729.68472.5.11124"/><path d="m.34914062 0-.32480729.68472.5.11124" transform="matrix(-1 0 0 1 .5 0)"/><g transform="matrix(.30901699 .95105652 -.95105652 .30901699 .850597 .269254)"><path d="m.34305729 0-.32480729.68472.5.11124"/><path d="m.34914062 0-.32480729.68472.5.11124" transform="matrix(-1 0 0 1 .5 0)"/></g></g><g transform="translate(.72)"><path d="m.34305729 0-.32480729.68472.5.11124"/><path d="m.34914062 0-.32480729.68472.5.11124" transform="matrix(-1 0 0 1 .5 0)"/><g transform="matrix(.30901699 .95105652 -.95105652 .30901699 .850597 .269254)"><path d="m.34305729 0-.32480729.68472.5.11124"/><path d="m.34914062 0-.32480729.68472.5.11124" transform="matrix(-1 0 0 1 .5 0)"/></g></g><g transform="matrix(.30901699 -.95105652 .95105652 .30901699 .201075 .725761)"><path d="m.34305729 0-.32480729.68472.5.11124"/><path d="m.34914062 0-.32480729.68472.5.11124" transform="matrix(-1 0 0 1 .5 0)"/></g><g transform="matrix(-.80901699 .58778525 -.58778525 -.80901699 1.577369 1.161424)"><path d="m.34305729 0-.32480729.68472.5.11124"/><path d="m.34914062 0-.32480729.68472.5.11124" transform="matrix(-1 0 0 1 .5 0)"/><g transform="matrix(.30901699 .95105652 -.95105652 .30901699 .850597 .269254)"><path d="m.34305729 0-.32480729.68472.5.11124"/><path d="m.34914062 0-.32480729.68472.5.11124" transform="matrix(-1 0 0 1 .5 0)"/></g></g></g><g transform="translate(11.5575 .0125)"><g transform="translate(.72 5.76)"><path d="m.34305729 0-.32480729.68472.5.11124"/><path d="m.34914062 0-.32480729.68472.5.11124" transform="matrix(-1 0 0 1 .5 0)"/><g transform="matrix(.30901699 .95105652 -.95105652 .30901699 .850597 .269254)"><path d="m.34305729 0-.32480729.68472.5.11124"/><path d="m.34914062 0-.32480729.68472.5.11124" transform="matrix(-1 0 0 1 .5 0)"/></g></g><g transform="matrix(.30901699 -.95105652 .95105652 .30901699 .201075 6.485761)"><path d="m.34305729 0-.32480729.68472.5.11124"/><path d="m.34914062 0-.32480729.68472.5.11124" transform="matrix(-1 0 0 1 .5 0)"/></g><g transform="matrix(-.80901699 .58778525 -.58778525 -.80901699 1.577369 6.921424)"><path d="m.34305729 0-.32480729.68472.5.11124"/><path d="m.34914062 0-.32480729.68472.5.11124" transform="matrix(-1 0 0 1 .5 0)"/><g transform="matrix(.30901699 .95105652 -.95105652 .30901699 .850597 .269254)"><path d="m.34305729 0-.32480729.68472.5.11124"/><path d="m.34914062 0-.32480729.68472.5.11124" transform="matrix(-1 0 0 1 .5 0)"/></g></g><g transform="translate(.72 2.88)"><path d="m.34305729 0-.32480729.68472.5.11124"/><path d="m.34914062 0-.32480729.68472.5.11124" transform="matrix(-1 0 0 1 .5 0)"/><g transform="matrix(.30901699 .95105652 -.95105652 .30901699 .850597 .269254)"><path d="m.34305729 0-.32480729.68472.5.11124"/><path d="m.34914062 0-.32480729.68472.5.11124" transform="matrix(-1 0 0 1 .5 0)"/></g></g><g transform="matrix(.30901699 -.95105652 .95105652 .30901699 .201075 3.605761)"><path d="m.34305729 0-.32480729.68472.5.11124"/><path d="m.34914062 0-.32480729.68472.5.11124" transform="matrix(-1 0 0 1 .5 0)"/></g><g transform="matrix(-.80901699 .58778525 -.58778525 -.80901699 1.577369 4.041424)"><path d="m.34305729 0-.32480729.68472.5.11124"/><path d="m.34914062 0-.32480729.68472.5.11124" transform="matrix(-1 0 0 1 .5 0)"/><g transform="matrix(.30901699 .95105652 -.95105652 .30901699 .850597 .269254)"><path d="m.34305729 0-.32480729.68472.5.11124"/><path d="m.34914062 0-.32480729.68472.5.11124" transform="matrix(-1 0 0 1 .5 0)"/></g></g><g transform="translate(.72)"><path d="m.34305729 0-.32480729.68472.5.11124"/><path d="m.34914062 0-.32480729.68472.5.11124" transform="matrix(-1 0 0 1 .5 0)"/><g transform="matrix(.30901699 .95105652 -.95105652 .30901699 .850597 .269254)"><path d="m.34305729 0-.32480729.68472.5.11124"/><path d="m.34914062 0-.32480729.68472.5.11124" transform="matrix(-1 0 0 1 .5 0)"/></g></g><g transform="matrix(.30901699 -.95105652 .95105652 .30901699 .201075 .725761)"><path d="m.34305729 0-.32480729.68472.5.11124"/><path d="m.34914062 0-.32480729.68472.5.11124" transform="matrix(-1 0 0 1 .5 0)"/></g><g transform="matrix(-.80901699 .58778525 -.58778525 -.80901699 1.577369 1.161424)"><path d="m.34305729 0-.32480729.68472.5.11124"/><path d="m.34914062 0-.32480729.68472.5.11124" transform="matrix(-1 0 0 1 .5 0)"/><g transform="matrix(.30901699 .95105652 -.95105652 .30901699 .850597 .269254)"><path d="m.34305729 0-.32480729.68472.5.11124"/><path d="m.34914062 0-.32480729.68472.5.11124" transform="matrix(-1 0 0 1 .5 0)"/></g></g></g><g transform="translate(.0375 5.7725)"><g transform="translate(.72)"><path d="m.34305729 0-.32480729.68472.5.11124"/><path d="m.34914062 0-.32480729.68472.5.11124" transform="matrix(-1 0 0 1 .5 0)"/><g transform="matrix(.30901699 .95105652 -.95105652 .30901699 .850597 .269254)"><path d="m.34305729 0-.32480729.68472.5.11124"/><path d="m.34914062 0-.32480729.68472.5.11124" transform="matrix(-1 0 0 1 .5 0)"/></g></g><g transform="matrix(.30901699 -.95105652 .95105652 .30901699 .201075 .725761)"><path d="m.34305729 0-.32480729.68472.5.11124"/><path d="m.34914062 0-.32480729.68472.5.11124" transform="matrix(-1 0 0 1 .5 0)"/></g><g transform="matrix(-.80901699 .58778525 -.58778525 -.80901699 1.577369 1.161424)"><path d="m.34305729 0-.32480729.68472.5.11124"/><path d="m.34914062 0-.32480729.68472.5.11124" transform="matrix(-1 0 0 1 .5 0)"/><g transform="matrix(.30901699 .95105652 -.95105652 .30901699 .850597 .269254)"><path d="m.34305729 0-.32480729.68472.5.11124"/><path d="m.34914062 0-.32480729.68472.5.11124" transform="matrix(-1 0 0 1 .5 0)"/></g></g></g><g transform="translate(2.9175 5.7725)"><g transform="translate(.72)"><path d="m.34305729 0-.32480729.68472.5.11124"/><path d="m.34914062 0-.32480729.68472.5.11124" transform="matrix(-1 0 0 1 .5 0)"/><g transform="matrix(.30901699 .95105652 -.95105652 .30901699 .850597 .269254)"><path d="m.34305729 0-.32480729.68472.5.11124"/><path d="m.34914062 0-.32480729.68472.5.11124" transform="matrix(-1 0 0 1 .5 0)"/></g></g><g transform="matrix(.30901699 -.95105652 .95105652 .30901699 .201075 .725761)"><path d="m.34305729 0-.32480729.68472.5.11124"/><path d="m.34914062 0-.32480729.68472.5.11124" transform="matrix(-1 0 0 1 .5 0)"/></g><g transform="matrix(-.80901699 .58778525 -.58778525 -.80901699 1.577369 1.161424)"><path d="m.34305729 0-.32480729.68472.5.11124"/><path d="m.34914062 0-.32480729.68472.5.11124" transform="matrix(-1 0 0 1 .5 0)"/><g transform="matrix(.30901699 .95105652 -.95105652 .30901699 .850597 .269254)"><path d="m.34305729 0-.32480729.68472.5.11124"/><path d="m.34914062 0-.32480729.68472.5.11124" transform="matrix(-1 0 0 1 .5 0)"/></g></g></g><g transform="translate(3.0425 2.8925)"><g transform="translate(.595)"><path d="m.34305729 0-.32480729.68472.5.11124"/><path d="m.34914062 0-.32480729.68472.5.11124" transform="matrix(-1 0 0 1 .5 0)"/><g transform="matrix(.30901699 .95105652 -.95105652 .30901699 .850597 .269254)"><path d="m.34305729 0-.32480729.68472.5.11124"/><path d="m.34914062 0-.32480729.68472.5.11124" transform="matrix(-1 0 0 1 .5 0)"/></g></g><g transform="matrix(.30901699 -.95105652 .95105652 .30901699 .076075 .725761)"><path d="m.34305729 0-.32480729.68472.5.11124"/><path d="m.34914062 0-.32480729.68472.5.11124" transform="matrix(-1 0 0 1 .5 0)"/></g><g transform="matrix(-.80901699 .58778525 -.58778525 -.80901699 1.452369 1.161424)"><path d="m.34232729 0-.32480729.68472.5.11124"/><path d="m.34914062 0-.32480729.68472.5.11124" transform="matrix(-1 0 0 1 .48 0)"/><g transform="matrix(.30901699 .95105652 -.95105652 .30901699 .850597 .269254)"><path d="m.34305729 0-.32480729.68472.5.11124"/><path d="m.34914062 0-.32480729.68472.5.11124" transform="matrix(-1 0 0 1 .5 0)"/></g></g></g></g><path d="m13.4375 5.125-.4408389.29426275.1283389-.54426275-.4007924-.29426275h.5257924l.1875-.51823725.1875.51823725h.5257924l-.4007924.29426275.1283389.54426275z" fill-rule="evenodd"/><path d="m16.3125 5.125-.4408389.29426275.1283389-.54426275-.4007924-.29426275h.5257924l.1875-.51823725.1875.51823725h.5257924l-.4007924.29426275.1283389.54426275z" fill-rule="evenodd"/><path d="m19.1875 5.125-.4408389.29426275.1283389-.54426275-.4007924-.29426275h.5257924l.1875-.51823725.1875.51823725h.5257924l-.4007924.29426275.1283389.54426275z" fill-rule="evenodd"/><path d="m13.4375 8-.4408389.29426275.1283389-.54426275-.4007924-.29426275h.5257924l.1875-.51823725.1875.51823725h.5257924l-.4007924.29426275.1283389.54426275z" fill-rule="evenodd"/><path d="m10.5625 8-.4408389.29426275.1283389-.54426275-.40079239-.29426275h.52579239l.1875-.51823725.1875.51823725h.5257924l-.4007924.29426275.1283389.54426275z" fill-rule="evenodd"/><path d="m16.3125 8-.4408389.29426275.1283389-.54426275-.4007924-.29426275h.5257924l.1875-.51823725.1875.51823725h.5257924l-.4007924.29426275.1283389.54426275z" fill-rule="evenodd"/><path d="m19.1875 8-.4408389.29426275.1283389-.54426275-.4007924-.29426275h.5257924l.1875-.51823725.1875.51823725h.5257924l-.4007924.29426275.1283389.54426275z" fill-rule="evenodd"/><path d="m16.3125 2.25-.4408389.29426275.1283389-.54426275-.4007924-.29426275h.5257924l.1875-.51823725.1875.51823725h.5257924l-.4007924.29426275.1283389.54426275z" fill-rule="evenodd"/><path d="m19.1875 2.25-.4408389.29426275.1283389-.54426275-.4007924-.29426275h.5257924l.1875-.51823725.1875.51823725h.5257924l-.4007924.29426275.1283389.54426275z" fill-rule="evenodd"/></g></g></g></g></svg>