<svg height="48" viewBox="0 0 48 48" width="48" xmlns="http://www.w3.org/2000/svg" xmlns:xlink="http://www.w3.org/1999/xlink"><defs><rect id="a" height="30" rx="4" width="40" x="4" y="9"/><mask id="b" fill="#fff"><use fill="#fff" fill-rule="evenodd" xlink:href="#a"/></mask></defs><g fill="none" fill-rule="evenodd"><path d="m0 0h48v48h-48z"/><use fill="#d8d8d8" xlink:href="#a"/><g mask="url(#b)"><g fill-rule="nonzero" transform="translate(4 9)"><path d="m0 0h40v30h-40z" fill="#cf142b"/><path d="m0 0h40v20h-40z" fill="#00247d"/><path d="m0 0h40v10h-40z" fill="#fc0"/><g fill="#fff"><g transform="translate(19.25 10.5)"><g><g transform="matrix(.98480775 .17364818 -.17364818 .98480775 2.0374906875 .318896225)"><path d="m.5 0-.38625 1.18875.71325.23175z"/><path d="m.5 0-.38625 1.18875.71325.23175z" transform="matrix(-1 0 0 1 1 0)"/><g transform="matrix(.30901699 .95105652 -.95105652 .30901699 1.534312 .388201)"><path d="m.5 0-.38625 1.18875.71325.23175z"/><path d="m.5 0-.38625 1.18875.71325.23175z" transform="matrix(-1 0 0 1 1 0)"/></g></g><g transform="matrix(.46947156041 -.88294759368 .88294759368 .46947156041 .97441403825 1.49136533666)"><path d="m.5 0-.38625 1.18875.71325.23175z"/><path d="m.5 0-.38625 1.18875.71325.23175z" transform="matrix(-1 0 0 1 1 0)"/></g><g transform="matrix(-.89879404053 .43837114163 -.43837114163 -.89879404053 3.31019516089 2.54103735397)"><path d="m.5 0-.38625 1.18875.71325.23175z"/><path d="m.5 0-.38625 1.18875.71325.23175z" transform="matrix(-1 0 0 1 1 0)"/><g transform="matrix(.30901699 .95105652 -.95105652 .30901699 1.534312 .388201)"><path d="m.5 0-.38625 1.18875.71325.23175z"/><path d="m.5 0-.38625 1.18875.71325.23175z" transform="matrix(-1 0 0 1 1 0)"/></g></g><g transform="matrix(.8660254 .5 -.5 .8660254 5.44198775 1.37324)"><path d="m.5 0-.38625 1.18875.71325.23175z"/><path d="m.5 0-.38625 1.18875.71325.23175z" transform="matrix(-1 0 0 1 1 0)"/><g transform="matrix(.30901699 .95105652 -.95105652 .30901699 1.534312 .388201)"><path d="m.5 0-.38625 1.18875.71325.23175z"/><path d="m.5 0-.38625 1.18875.71325.23175z" transform="matrix(-1 0 0 1 1 0)"/></g></g><g transform="matrix(.74314482237 -.66913060816 .66913060816 .74314482237 4.04201441544 2.11140694515)"><path d="m.5 0-.38625 1.18875.71325.23175z"/><path d="m.5 0-.38625 1.18875.71325.23175z" transform="matrix(-1 0 0 1 1 0)"/></g><g transform="matrix(-.99452188737 .10452846125 -.10452846125 -.99452188737 5.8779217267 3.89666018543)"><path d="m.5 0-.38625 1.18875.71325.23175z"/><path d="m.5 0-.38625 1.18875.71325.23175z" transform="matrix(-1 0 0 1 1 0)"/><g transform="matrix(.30901699 .95105652 -.95105652 .30901699 1.534312 .388201)"><path d="m.5 0-.38625 1.18875.71325.23175z"/><path d="m.5 0-.38625 1.18875.71325.23175z" transform="matrix(-1 0 0 1 1 0)"/></g></g></g><g transform="matrix(.76604444 .64278761 -.64278761 .76604444 6.924736 1.974442)"><g transform="matrix(.98480775 .17364818 -.17364818 .98480775 2.0374906875 .318896225)"><path d="m.5 0-.38625 1.18875.71325.23175z"/><path d="m.5 0-.38625 1.18875.71325.23175z" transform="matrix(-1 0 0 1 1 0)"/><g transform="matrix(.30901699 .95105652 -.95105652 .30901699 1.534312 .388201)"><path d="m.5 0-.38625 1.18875.71325.23175z"/><path d="m.5 0-.38625 1.18875.71325.23175z" transform="matrix(-1 0 0 1 1 0)"/></g></g><g transform="matrix(.46947156041 -.88294759368 .88294759368 .46947156041 .97441403825 1.49136533666)"><path d="m.5 0-.38625 1.18875.71325.23175z"/><path d="m.5 0-.38625 1.18875.71325.23175z" transform="matrix(-1 0 0 1 1 0)"/></g><g transform="matrix(-.89879404053 .43837114163 -.43837114163 -.89879404053 3.31019516089 2.54103735397)"><path d="m.5 0-.38625 1.18875.71325.23175z"/><path d="m.5 0-.38625 1.18875.71325.23175z" transform="matrix(-1 0 0 1 1 0)"/><g transform="matrix(.30901699 .95105652 -.95105652 .30901699 1.534312 .388201)"><path d="m.5 0-.38625 1.18875.71325.23175z"/><path d="m.5 0-.38625 1.18875.71325.23175z" transform="matrix(-1 0 0 1 1 0)"/></g></g><g transform="matrix(.8660254 .5 -.5 .8660254 5.44198775 1.37324)"><path d="m.5 0-.38625 1.18875.71325.23175z"/><path d="m.5 0-.38625 1.18875.71325.23175z" transform="matrix(-1 0 0 1 1 0)"/><g transform="matrix(.30901699 .95105652 -.95105652 .30901699 1.534312 .388201)"><path d="m.5 0-.38625 1.18875.71325.23175z"/><path d="m.5 0-.38625 1.18875.71325.23175z" transform="matrix(-1 0 0 1 1 0)"/></g></g><g transform="matrix(.74314482237 -.66913060816 .66913060816 .74314482237 4.04201441544 2.11140694515)"><path d="m.5 0-.38625 1.18875.71325.23175z"/><path d="m.5 0-.38625 1.18875.71325.23175z" transform="matrix(-1 0 0 1 1 0)"/></g><g transform="matrix(-.99452188737 .10452846125 -.10452846125 -.99452188737 5.8779217267 3.89666018543)"><path d="m.5 0-.38625 1.18875.71325.23175z"/><path d="m.5 0-.38625 1.18875.71325.23175z" transform="matrix(-1 0 0 1 1 0)"/><g transform="matrix(.30901699 .95105652 -.95105652 .30901699 1.534312 .388201)"><path d="m.5 0-.38625 1.18875.71325.23175z"/><path d="m.5 0-.38625 1.18875.71325.23175z" transform="matrix(-1 0 0 1 1 0)"/></g></g></g></g><g transform="matrix(.17364818 -.98480775 .98480775 .17364818 9.529282 19.9153)"><g transform="matrix(.98480775 .17364818 -.17364818 .98480775 2.0374906875 .318896225)"><path d="m.5 0-.38625 1.18875.71325.23175z"/><path d="m.5 0-.38625 1.18875.71325.23175z" transform="matrix(-1 0 0 1 1 0)"/><g transform="matrix(.30901699 .95105652 -.95105652 .30901699 1.534312 .388201)"><path d="m.5 0-.38625 1.18875.71325.23175z"/><path d="m.5 0-.38625 1.18875.71325.23175z" transform="matrix(-1 0 0 1 1 0)"/></g></g><g transform="matrix(.46947156041 -.88294759368 .88294759368 .46947156041 .97441403825 1.49136533666)"><path d="m.5 0-.38625 1.18875.71325.23175z"/><path d="m.5 0-.38625 1.18875.71325.23175z" transform="matrix(-1 0 0 1 1 0)"/></g><g transform="matrix(-.89879404053 .43837114163 -.43837114163 -.89879404053 3.31019516089 2.54103735397)"><path d="m.5 0-.38625 1.18875.71325.23175z"/><path d="m.5 0-.38625 1.18875.71325.23175z" transform="matrix(-1 0 0 1 1 0)"/><g transform="matrix(.30901699 .95105652 -.95105652 .30901699 1.534312 .388201)"><path d="m.5 0-.38625 1.18875.71325.23175z"/><path d="m.5 0-.38625 1.18875.71325.23175z" transform="matrix(-1 0 0 1 1 0)"/></g></g><g transform="matrix(.8660254 .5 -.5 .8660254 5.44198775 1.37324)"><path d="m.5 0-.38625 1.18875.71325.23175z"/><path d="m.5 0-.38625 1.18875.71325.23175z" transform="matrix(-1 0 0 1 1 0)"/><g transform="matrix(.30901699 .95105652 -.95105652 .30901699 1.534312 .388201)"><path d="m.5 0-.38625 1.18875.71325.23175z"/><path d="m.5 0-.38625 1.18875.71325.23175z" transform="matrix(-1 0 0 1 1 0)"/></g></g><g transform="matrix(.74314482237 -.66913060816 .66913060816 .74314482237 4.04201441544 2.11140694515)"><path d="m.5 0-.38625 1.18875.71325.23175z"/><path d="m.5 0-.38625 1.18875.71325.23175z" transform="matrix(-1 0 0 1 1 0)"/></g><g transform="matrix(-.99452188737 .10452846125 -.10452846125 -.99452188737 5.8779217267 3.89666018543)"><path d="m.5 0-.38625 1.18875.71325.23175z"/><path d="m.5 0-.38625 1.18875.71325.23175z" transform="matrix(-1 0 0 1 1 0)"/><g transform="matrix(.30901699 .95105652 -.95105652 .30901699 1.534312 .388201)"><path d="m.5 0-.38625 1.18875.71325.23175z"/><path d="m.5 0-.38625 1.18875.71325.23175z" transform="matrix(-1 0 0 1 1 0)"/></g></g><g transform="matrix(.64278760275 .76604444274 -.76604444274 .64278760275 8.28056187041 3.52840444951)"><path d="m.5 0-.38625 1.18875.71325.23175z"/><path d="m.5 0-.38625 1.18875.71325.23175z" transform="matrix(-1 0 0 1 1 0)"/><g transform="matrix(.30901699 .95105652 -.95105652 .30901699 1.534312 .388201)"><path d="m.5 0-.38625 1.18875.71325.23175z"/><path d="m.5 0-.38625 1.18875.71325.23175z" transform="matrix(-1 0 0 1 1 0)"/></g></g><g transform="matrix(.92718385209 -.37460659267 .37460659267 .92718385209 6.71254929587 3.74323539495)"><path d="m.5 0-.38625 1.18875.71325.23175z"/><path d="m.5 0-.38625 1.18875.71325.23175z" transform="matrix(-1 0 0 1 1 0)"/></g><g transform="matrix(-.97029571587 -.24192189749 .24192189749 -.97029571587 7.82714527064 6.04874197294)"><path d="m.5 0-.38625 1.18875.71325.23175z"/><path d="m.5 0-.38625 1.18875.71325.23175z" transform="matrix(-1 0 0 1 1 0)"/><g transform="matrix(.30901699 .95105652 -.95105652 .30901699 1.534312 .388201)"><path d="m.5 0-.38625 1.18875.71325.23175z"/><path d="m.5 0-.38625 1.18875.71325.23175z" transform="matrix(-1 0 0 1 1 0)"/></g></g><g transform="matrix(.34202013757 .93969261707 -.93969261707 .34202013757 10.21083880088 6.52444716626)"><path d="m.5 0-.38625 1.18875.71325.23175z"/><path d="m.5 0-.38625 1.18875.71325.23175z" transform="matrix(-1 0 0 1 1 0)"/><g transform="matrix(.30901699 .95105652 -.95105652 .30901699 1.534312 .388201)"><path d="m.5 0-.38625 1.18875.71325.23175z"/><path d="m.5 0-.38625 1.18875.71325.23175z" transform="matrix(-1 0 0 1 1 0)"/></g></g><g transform="matrix(.99939082369 -.03489949776 .03489949776 .99939082369 8.66391244534 6.1900303366)"><path d="m.5 0-.38625 1.18875.71325.23175z"/><path d="m.5 0-.38625 1.18875.71325.23175z" transform="matrix(-1 0 0 1 1 0)"/></g><g transform="matrix(-.82903756206 -.55919290052 .55919290052 -.82903756206 8.92276036992 8.73771212809)"><path d="m.5 0-.38625 1.18875.71325.23175z"/><path d="m.5 0-.38625 1.18875.71325.23175z" transform="matrix(-1 0 0 1 1 0)"/><g transform="matrix(.30901699 .95105652 -.95105652 .30901699 1.534312 .388201)"><path d="m.5 0-.38625 1.18875.71325.23175z"/><path d="m.5 0-.38625 1.18875.71325.23175z" transform="matrix(-1 0 0 1 1 0)"/></g></g></g></g></g></g></g></svg>