<svg height="48" viewBox="0 0 48 48" width="48" xmlns="http://www.w3.org/2000/svg" xmlns:xlink="http://www.w3.org/1999/xlink"><defs><path id="a" d="m8 9h32c2.209139 0 4 1.790861 4 4v22c0 2.209139-1.790861 4-4 4h-32c-2.209139 0-4-1.790861-4-4v-22c0-2.209139 1.790861-4 4-4z"/><linearGradient id="b"><stop offset="0" stop-color="#f00"/><stop offset="1" stop-color="#ff0"/></linearGradient><linearGradient id="c" x1="-225.742642%" x2="-245.615661%" xlink:href="#b" y1="241.775653%" y2="206.228349%"/><linearGradient id="d" x1="-225.502174%" x2="-245.361458%" xlink:href="#b" y1="248.341801%" y2="212.794497%"/><linearGradient id="e" x1="-232.318504%" x2="-251.974049%" xlink:href="#b" y1="254.310395%" y2="218.763091%"/><linearGradient id="f" x1="-225.918837%" x2="-245.791855%" xlink:href="#b" y1="260.688938%" y2="225.141634%"/><linearGradient id="g" x1="-225.939393%" x2="-245.812411%" xlink:href="#b" y1="266.963257%" y2="231.415953%"/><linearGradient id="h" x1="-225.989314%" x2="-245.862333%" xlink:href="#b" y1="273.327904%" y2="237.7806%"/><linearGradient id="i" x1="-235.51557%" x2="-255.388589%" xlink:href="#b" y1="273.22368%" y2="237.676376%"/><linearGradient id="j" x1="-235.427473%" x2="-255.300492%" xlink:href="#b" y1="266.977154%" y2="231.42985%"/><linearGradient id="k" x1="-235.312946%" x2="-255.185965%" xlink:href="#b" y1="260.591662%" y2="225.044358%"/><linearGradient id="l" x1="-235.361207%" x2="-255.230123%" xlink:href="#b" y1="241.727394%" y2="206.181924%"/><linearGradient id="m" x1="-235.41279%" x2="-255.285809%" xlink:href="#b" y1="248.029127%" y2="212.481823%"/><linearGradient id="n" x1="-227.660227%" x2="-247.533246%" xlink:href="#b" y1="253.900445%" y2="218.353141%"/><mask id="o" fill="#fff"><use fill="#fff" fill-rule="evenodd" xlink:href="#a"/></mask><mask id="p" fill="#fff"><path d="m0 0h40v30h-40z" fill="#fff" fill-rule="evenodd"/></mask></defs><g fill="none" fill-rule="evenodd"><path d="m0 0h48v48h-48z"/><use fill="#d8d8d8" xlink:href="#a"/><g mask="url(#o)"><g fill="none" fill-rule="evenodd" mask="url(#p)" transform="translate(4 9)"><path d="m0 0h60v30h-60z" fill="#006" fill-rule="nonzero"/><path d="m0 0h21.875125v10.9375h-21.875125z" fill="#006"/><g fill-rule="nonzero"><path d="m0 0v1.222875l19.4294375 9.714625h2.445625v-1.2228125l-19.4293125-9.714625zm21.875125 0v1.2228125l-19.4295 9.71475h-2.445625v-1.2228125l19.4294375-9.71475z" fill="#fff"/><path d="m9.114625 0v10.9375h3.645875v-10.9375zm-9.114625 3.645875v3.6458125h21.875125v-3.6458125z" fill="#fff"/><path d="m0 4.375v2.1875h21.875125v-2.1875zm9.84375-4.375v10.9375h2.1875v-10.9375zm-9.84375 10.9375 7.2916875-3.6458125h1.6304375l-7.2916875 3.645875h-1.6304375zm0-10.9375 7.2916875 3.645875h-1.6304375l-5.66125-2.830625zm12.953 3.645875 7.2916875-3.645875h1.6304375l-7.29175 3.645875zm8.922125 7.291625-7.29175-3.645875h1.6304375l5.66125 2.830625z" fill="#c00"/></g><g transform="translate(21.5625 9.5625)"><path d="m2.092125.0910625 13.708875-.050875-.0254375 12.2083125s.48325 1.856625-5.7479375 4.67975c2.238125-.2289375 4.67975-2.619625 4.67975-2.619625s.991875-1.2716875 1.4751875-.5595625c.4831875.712125.941 1.0681875 1.2970625 1.348.3560625.27975.635875 1.0428125.10175 1.6023125s-1.373375.6358125-1.6023125-.050875c-.3560625.1780625-2.5433125 2.823125-7.019375 2.9503125-4.5525-.0763125-7.045-2.97575-7.045-2.97575s-.610375.9665-1.475125.2035c-.83925-.991875-.2034375-1.62775-.2034375-1.62775s.712125-.4069375.915625-.68675c.330625-.3815.4323125-.8901875.991875-.8901875.66125.050875.915625.585.915625.585s2.289 2.4161875 4.756 2.721375c-5.57-2.6705-5.7734375-4.32375-5.748-4.730625l.0254375-12.10625z" fill="#fff"/><g stroke-width=".1"><path d="m2.4225.4214375 13.0725-.07625v11.7501875c.0254375 1.526-2.543375 3.0775-6.561875 5.06125-4.1451875-2.1364375-6.535625-3.4336875-6.56125-5.0863125l.0508125-11.64825z" fill="#006129" stroke="#000"/><path d="m3.9945 13.368875.771625-1.1333125.7754375 1.13575" stroke="#f7c600"/><path d="m4.9211875 12.9446875c.00002233.054751-.02916632.1053548-.07657087.1327497-.04740455.0273948-.10582313.0274186-.15325001.0000625-.04742688-.0273562-.0766568-.0779362-.07667912-.1326872-.00003451-.0846376.06854987-.153278.1531875-.1533125s.15327797.0685499.1533125.1531875z" fill="#f7c600" stroke="#000"/><path d="m4.1395625 14.20625 1.1963125.003375s.01875-.15525-.125-.249625c.626625-.086125.463875-.638875.988625-.6701875.101875.015625-.274125.235-.274125.235s-.316375.22325-.1723125.33675c.114375.090125.1645-.0548125.1801875-.1644375.015625-.1096875.5090625-.1801875.438625-.4934375-.1175-.2585-.80675.1723125-.80675.1723125l-.49175-.00275c-.030625-.0551875-.16625-.2765-.306125-.2775-.1660625.006-.283.28025-.283.28025h-1.11225s-.038125.285375.5258125.3401875c.127.1658125.2254375.212125.3358125.2550625-.073625.0613125-.094375.1355-.094.235z" fill="#f7c600" stroke="#000"/><path d="m4.2256875 13.9652125.9964375-.0054m-1.45275-.5843125s.0796875.4660625.4475625.5764375" stroke="#000"/><path d="m3.707825 13.3692594c.03678203-.1777936.10422953-.2084591.17779359-.4353505.01231578-.2206922-.17779359-.1962259-.12257922-.3372375.09811297-.1533273.04901516-.3004555-.134895-.4170008.03678204.2023425-.23920718.3924519-.23920718.5580124 0 .1655604.14109422.1287784.12266187.3802187.01223313.1471281-.03678203.1103461-.04901515.2513577z" fill="url(#c)" stroke="#000"/><path d="m4.908875 12.2641875c.00001116.0503744-.02685297.0969283-.07047294.1221252s-.09736886.0252088-.141.0000313c-.04363113-.0251776-.0705159-.0717196-.07052706-.122094-.00001726-.0778721.0630966-.141014.14096875-.1410312.07787215-.0000173.14101399.0630966.14103125.1409687z" fill="#f7c600" stroke="#000"/><path d="m3.950875 11.03625.771625-1.133375.7754375 1.13575" stroke="#f7c600"/><path d="m4.8775 10.6120625c.00113178.0554772-.02781345.1072326-.07567452.1353096-.04786107.0280769-.10716075.028089-.15503327.0000316s-.07683886-.0798011-.07572971-.1352787c-.00001116-.054751.0291878-.1053489.07659794-.132734.04741013-.0273852.1058287-.0273971.15325-.0000313.04742129.0273658.0766409.0779518.07665206.1327028z" fill="#f7c600" stroke="#000"/><path d="m4.0959375 11.8735625 1.1963125.0034375s.01875-.1553125-.125-.249625c.626625-.0861875.463875-.638875.988625-.6701875.101875.015625-.274125.235-.274125.235s-.316375.22325-.1723125.33675c.114375.090125.1645-.0548125.1801875-.1645.015625-.109625.5090625-.180125.438625-.4934375-.1175-.2584375-.80675.1723125-.80675.1723125l-.49175-.00275c-.030625-.0551875-.16625-.2765-.306125-.2775-.1660625.0060625-.283.28025-.283.28025h-1.11225s-.038125.285375.5258125.3401875c.127.1658125.2254375.2121875.33575.2550625-.0735625.061375-.09425.1355625-.0939375.235z" fill="#f7c600" stroke="#000"/><path d="m4.1820625 11.632625.9964375-.0055m-1.4528125-.58425s.07975.466.447625.576375" stroke="#000"/><path d="m3.6642 11.0370457c.03678203-.1778551.10422953-.2085312.17779359-.435501.01231578-.2207685-.17779359-.1962938-.12257922-.3373541.09811297-.1533804.04901516-.30055937-.134895-.41714498.03678204.20241248-.23920718.39258758-.23920718.55820528s.14109422.128823.12266187.3803502c.01223313.147179-.03678203.1103843-.04901515.2514446z" fill="url(#d)" stroke="#000"/><path d="m4.86525 9.9315c.00001116.05037445-.02685297.0969283-.07047294.1221252s-.09736886.0252088-.141.0000313c-.04363113-.0251776-.0705159-.07171955-.07052706-.122094-.00001726-.07787215.0630966-.14101399.14096875-.14103125s.14101399.0630966.14103125.14096875z" fill="#f7c600" stroke="#000"/><path d="m12.14875 8.91575.7716875-1.133375.775375 1.13575" stroke="#f7c600"/><path d="m13.0754375 8.4915625c.0000223.05475095-.0291663.10535483-.0765709.13274964-.0474045.02739482-.1058231.02741864-.15325.0000625s-.0766568-.07793619-.0766791-.13268714c-.0000345-.08463764.0685499-.15327798.1531875-.1533125s.153278.06854986.1533125.1531875z" fill="#f7c600" stroke="#000"/><path d="m12.2938125 9.753125 1.1963125.003375s.01875-.15525-.1249375-.249625c.626625-.0861875.4638125-.638875.988625-.6701875.1018125.015625-.2741875.235-.2741875.235s-.316375.22325-.1723125.33675c.114375.090125.1645-.0548125.1801875-.1645.015625-.109625.509125-.180125.438625-.4934375-.1175-.2584375-.80675.1723125-.80675.1723125l-.49175-.0026875c-.030625-.05525-.16625-.2765625-.306125-.2775625-.1660625.0060625-.283.28025-.283.28025h-1.11225s-.038125.285375.5258125.3401875c.127.165875.2254375.2121875.3358125.255125-.073625.06125-.094375.1355-.094.235z" fill="#f7c600" stroke="#000"/><path d="m12.38 9.5119875.996375-.0053m-1.4528125-.5843125s.07975.466.4476875.576375" stroke="#000"/><path d="m11.862075 8.91613437c.036782-.17779359.1042295-.20845906.1777936-.43535046.0123158-.22069219-.1777936-.19622594-.1225792-.3372375.0981129-.15332735.0490151-.30045547-.134895-.41700079.036782.20234251-.2392072.39245188-.2392072.55801235s.1410942.12877844.1226619.38021875c.0122331.14712812-.0367821.11034609-.0490152.25135765z" fill="url(#e)" stroke="#000"/><path d="m13.063125 7.811c.0000223.05037445-.0268315.09693427-.0704459.12214083s-.0973633.02523039-.141.0000625c-.0436367-.02516788-.0705318-.07170388-.0705541-.12207833-.0000345-.07787215.0630654-.14102798.1409375-.1410625s.141028.06306535.1410625.1409375z" fill="#f7c600" stroke="#000"/><path d="m4.1420625 6.64825.771625-1.133375.7754375 1.13575" stroke="#f7c600"/><path d="m5.06875 6.2240625c.00001116.05475095-.0291878.10534887-.07659794.13273402-.04741013.02738514-.1058287.02739706-.15325.00003125-.04742129-.02736581-.0766409-.07795182-.07665206-.13270277-.00001726-.08463764.06858111-.15326399.15321875-.15328125s.15326399.06858111.15328125.15321875z" fill="#f7c600" stroke="#000"/><path d="m4.287125 7.4855625 1.1963125.003375s.01875-.15525-.125-.249625c.626625-.086125.463875-.6388125.988625-.6701875.101875.0156875-.274125.235-.274125.235s-.316375.22325-.1723125.3368125c.114375.090125.1645-.0548125.1801875-.1645.015625-.109625.5090625-.180125.438625-.4934375-.1175-.2585-.80675.1723125-.80675.1723125l-.49175-.00275c-.030625-.0551875-.16625-.2765-.306125-.2775-.1660625.0060625-.283.28025-.283.28025h-1.11225s-.038125.285375.5258125.3401875c.127.1658125.225375.212125.33575.2550625-.0735625.0613125-.09425.1355-.0939375.235z" fill="#f7c600" stroke="#000"/><path d="m4.37325 7.244525.9964375-.0054m-1.4528125-.5843125s.07975.4660625.447625.5764375" stroke="#000"/><path d="m3.8553875 6.64857187c.03678203-.17779359.10422953-.20845906.17779359-.43535046.01231578-.22069219-.17779359-.19622594-.12257922-.3372375.09811297-.15332735.04901516-.30045547-.134895-.41700079.03678204.2023425-.23920718.39245188-.23920718.55801235s.14109422.12877844.12266187.38021875c.01223313.14712812-.03678203.11034609-.04901515.25135765z" fill="url(#f)" stroke="#000"/><path d="m5.0564375 5.5435c.00001116.05037445-.02685297.09692831-.07047294.12212521-.04361997.02519689-.09736886.0252088-.141.00003125-.04363113-.02517756-.0705159-.07171951-.07052706-.12209396-.00001726-.07787215.0630966-.14101399.14096875-.14103125s.14101399.0630966.14103125.14096875z" fill="#f7c600" stroke="#000"/><g transform="translate(3.5 3.125)"><path d="m.659375 1.2945625.7716875-1.133375.775375 1.13575" stroke="#f7c600"/><g stroke="#000"><path d="m1.5860625.870375c.00001116.05475095-.0291878.10534887-.07659794.13273402-.04741013.02738514-.1058287.02739706-.15325.00003125-.04742129-.02736581-.0766409-.07795182-.07665206-.13270277-.00001726-.08463764.06858111-.15326399.15321875-.15328125s.15326399.06858111.15328125.15321875z" fill="#f7c600"/><path d="m.8044375 2.131875 1.1963125.0034375s.01875-.1553125-.1249375-.249625c.626625-.08625.4638125-.638875.988625-.6701875.1018125.015625-.2741875.235-.2741875.235s-.316375.22325-.1723125.33675c.114375.090125.1645-.0548125.1801875-.1645.015625-.109625.509125-.180125.438625-.4934375-.1175-.2584375-.80675.1723125-.80675.1723125l-.49175-.00275c-.030625-.0551875-.16625-.2765-.306125-.2775-.1660625.0060625-.283.28025-.283.28025h-1.11225s-.038125.285375.5258125.3401875c.127.1658125.2254375.2121875.3358125.2550625-.073625.061375-.094375.1355625-.094.235z" fill="#f7c600"/><path d="m.890625 1.8909375.996375-.0055m-1.4528125-.5843125s.07975.4660625.4476875.5764375"/><path d="m.3727 1.29494687c.03678203-.17779359.10422953-.20845906.17779359-.43535046.01231578-.22069219-.17779359-.19622594-.12257921-.3372375.09811296-.15332735.04901515-.30045547-.134895-.41700078.03678203.2023425-.23920719.39245187-.23920719.55801234s.14109422.12877844.12266187.38021875c.01223313.14712812-.03678203.11034609-.04901515.25135765z" fill="url(#g)"/><path d="m1.57375.1898125c.00001117.05037445-.02685296.09692833-.07047293.12212523-.04361997.02519689-.09736888.02520881-.14100001.00003125-.04363114-.02517756-.0705159-.07171953-.07052706-.12209398-.00001726-.07787215.0630966-.14101399.14096875-.14103125s.14101399.0630966.14103125.14096875z" fill="#f7c600"/></g></g><g transform="translate(3.5625 .875)"><path d="m.63925 1.2833125.771625-1.133375.7754375 1.13575" stroke="#f7c600"/><g stroke="#000"><path d="m1.565875.859125c.00113178.05547718-.02781345.10723261-.07567452.13530958-.04786107.02807696-.10716075.02808905-.15503327.00003162-.04787252-.02805744-.07683886-.07980107-.07572971-.1352787.0016677-.08341491.06975655-.15016969.15318812-.15018671.08343158-.00001701.15154765.06670999.15324938.15012421z" fill="#f7c600"/><path d="m.7843125 2.120625 1.19625.003375s.01875-.15525-.1249375-.2495625c.626625-.08625.463875-.638875.988625-.67025.101875.0156875-.274125.235-.274125.235s-.316375.2233125-.1723125.3368125c.114375.090125.1645-.0548125.180125-.1645.015625-.109625.509125-.180125.438625-.4934375-.1175-.2584375-.80675.1723125-.80675.1723125l-.49175-.00275c-.030625-.0551875-.1661875-.2765-.306125-.2775-.1660625.0060625-.283.28025-.283.28025h-1.1121875s-.038125.285375.5258125.3401875c.1269375.1658125.225375.2121875.33575.2550625-.0735625.061375-.0943125.1355625-.094.235z" fill="#f7c600"/><path d="m.8704375 1.8796875.9964375-.0055m-1.4528125-.5843125s.0796875.4660625.447625.5764375"/><path d="m.352575 1.28369687c.03678203-.17779359.10422953-.20845906.17779359-.43535046.01231579-.22069219-.17779359-.19622594-.12257921-.3372375.09811296-.15332735.04901515-.30045547-.134895-.41700078.03678203.2023425-.23920719.39245187-.23920719.55801234s.14109422.12877844.12266187.38021875c.01223313.14712812-.03678203.11034609-.04901515.25135765z" fill="url(#h)"/><path d="m1.5535625.1785625c.00108668.05107058-.02553358.09873486-.06958595.12459552-.04405237.02586065-.09864653.02587276-.14271036.00003164-.04406384-.02584113-.07070522-.0734936-.06964119-.12456466.00159797-.07669875.06422275-.13804598.14093815-.13806299s.13936738.06130245.14099935.13800049z" fill="#f7c600"/></g></g><g transform="translate(11.5625 .9375)"><path d="m.6471875 1.257625.7716875-1.133375.775375 1.13575" stroke="#f7c600"/><g stroke="#000"><path d="m1.573875.8334375c.00002233.05475096-.02916632.10535484-.07657087.13274966-.04740455.02739481-.10582313.02741864-.15325001.0000625-.04742688-.02735615-.0766568-.0779362-.07667912-.13268716-.00002233-.05475095.02916632-.10535483.07657087-.13274964.04740455-.02739482.10582312-.02741864.15325-.0000625s.0766568.07793619.07667913.13268714z" fill="#f7c600"/><path d="m.79225 2.095 1.1963125.003375s.01875-.15525-.1249375-.249625c.626625-.0861875.4638125-.638875.988625-.6701875.1018125.015625-.274125.235-.274125.235s-.3164375.22325-.1723125.33675c.114375.090125.1644375-.0548125.180125-.1645.015625-.109625.509125-.180125.438625-.4934375-.1175-.2584375-.80675.1723125-.80675.1723125l-.49175-.0026875c-.030625-.05525-.1661875-.2765625-.306125-.2775625-.1660625.0060625-.283.28025-.283.28025h-1.1121875s-.038125.285375.5258125.3401875c.1269375.165875.225375.2121875.33575.255125-.0735625.06125-.0943125.1355-.094.235z" fill="#f7c600"/><path d="m.878375 1.8538625.9965-.0053m-1.4528125-.5843125s.0796875.466.447625.576375"/><path d="m.3605125 1.25800937c.03678203-.17779359.10422953-.20845906.17779359-.43535046.01231579-.22069219-.17779359-.19622594-.12257921-.3372375.09811296-.15332735.04901515-.30045547-.134895-.41700078.03678203.2023425-.23920719.39245187-.23920719.55801234s.14109422.12877844.12266187.38021875c.01223313.14712812-.03678203.11034609-.04901515.25135765z" fill="url(#i)"/><path d="m1.5615625.152875c.00109782.05107022-.02551192.09874022-.06955848.12461053-.04404657.02587031-.09864058.02589452-.14271007.00006327-.04406949-.02583124-.07072148-.07347762-.06966895-.1245488.0015807-.0766993.06419197-.13806071.14090755-.13809472.07671559-.00003402.13938124.06127185.14102995.13796972z" fill="#f7c600"/></g></g><g transform="translate(11.5 3.125)"><path d="m.6365625 1.289875.7716875-1.133375.775375 1.13575" stroke="#f7c600"/><g stroke="#000"><path d="m1.56325.865625c.00002233.05475095-.02916632.10535483-.07657087.13274964-.04740455.02739482-.10582312.02741864-.15325.0000625-.04742688-.02735613-.0766568-.07793619-.07667913-.13268714-.00001726-.08463764.06858111-.15326399.15321875-.15328125s.15326399.06858111.15328125.15321875z" fill="#f7c600"/><path d="m.781625 2.1271875 1.1963125.0034375s.01875-.1553125-.1249375-.249625c.626625-.0861875.4638125-.638875.988625-.6701875.1018125.015625-.2741875.235-.2741875.235s-.316375.22325-.1723125.33675c.114375.090125.1645-.0548125.1801875-.1645.015625-.109625.509125-.180125.438625-.4934375-.1175-.2584375-.80675.1723125-.80675.1723125l-.49175-.00275c-.030625-.0551875-.16625-.2765-.306125-.2775-.1660625.0060625-.283.28025-.283.28025h-1.11225s-.038125.285375.5258125.3401875c.127.1658125.2254375.2121875.3358125.2550625-.073625.061375-.094375.1355625-.094.235z" fill="#f7c600"/><path d="m.86775 1.88625.9964375-.0055m-1.4528125-.58425s.07975.466.4476875.576375"/><path d="m.3498875 1.29025937c.03678203-.17779359.10422953-.20845906.17779359-.43535046.01231579-.22069219-.17779359-.19622594-.12257921-.3372375.09811296-.15332735.04901515-.30045547-.134895-.41700078.03678203.2023425-.23920719.39245187-.23920719.55801234s.14109422.12877844.12266187.38021875c.01223313.14712812-.03678203.11034609-.04901515.25135765z" fill="url(#j)"/><path d="m1.5509375.185125c.00001116.05037445-.02685297.09692831-.07047294.12212521-.04361997.02519689-.09736886.0252088-.141.00003125-.04363113-.02517756-.0705159-.07171951-.07052706-.12209396-.00001726-.07787215.0630966-.14101399.14096875-.14103125s.14101399.0630966.14103125.14096875z" fill="#f7c600"/></g></g><g transform="translate(11.375 5.4375)"><path d="m.6634375 1.24625.771625-1.133375.7754375 1.13575" stroke="#f7c600"/><g stroke="#000"><path d="m1.5900625.822c.00114293.05547683-.0277918.10723799-.07564707.13532461s-.10715481.02811081-.15503298.00006324c-.04787817-.02804756-.07685512-.0797851-.07575745-.13526285.00165043-.08341543.06972575-.15018439.1531575-.15021842s.15156152.06667936.15328.15009342z" fill="#f7c600"/><path d="m.8085 2.0835625 1.19625.003375s.01875-.15525-.1249375-.249625c.626625-.0861875.4638125-.638875.988625-.6701875.101875.015625-.274125.235-.274125.235s-.316375.22325-.1723125.33675c.114375.090125.1645-.0548125.180125-.1644375.015625-.1096875.509125-.1801875.438625-.4934375-.1175-.2585-.80675.1723125-.80675.1723125l-.49175-.00275c-.030625-.0551875-.1661875-.2765-.306125-.2775-.1660625.006-.283.28025-.283.28025h-1.1121875s-.038125.2853125.5258125.3401875c.1269375.1658125.225375.212125.33575.255-.0735625.061375-.0943125.135625-.094.235z" fill="#f7c600"/><path d="m.894625 1.842525.9964375-.0054m-1.4528125-.5843125s.0796875.4660625.447625.5764375"/><path d="m.3767625 1.24657187c.03678203-.17779359.10422953-.20845906.17779359-.43535046.01231579-.22069219-.17779359-.19622594-.12257921-.3372375.09811296-.15332735.04901515-.30045547-.134895-.41700078.03678203.2023425-.23920719.39245187-.23920719.55801234s.14109422.12877844.12266187.38021875c.01223313.14712812-.03678203.11034609-.04901515.25135765z" fill="url(#k)"/><path d="m1.57775.1414375c.00109782.05107022-.02551192.09874022-.06955848.12461053-.04404657.02587031-.09864058.02589452-.14271007.00006327-.04406949-.02583124-.07072148-.07347762-.06966895-.1245488.0015807-.0766993.06419197-.13806071.14090755-.13809472.07671559-.00003402.13938124.06127185.14102995.13796972z" fill="#f7c600"/></g></g><path d="m12.1364375 13.391875.771625-1.13325.7754375 1.135625" stroke="#f7c600"/><path d="m13.0628125 12.9685c.0011429.0554768-.0277918.107238-.0756471.1353246-.0478552.0280866-.1071548.0281108-.155033.0000633-.0478781-.0280476-.0768551-.0797852-.0757574-.1352629.0016504-.0834154.0697257-.1501844.1531575-.1502184.0834318-.0000341.1515615.0666793.15328.1500934z" fill="#f7c600" stroke="#000"/><path d="m12.2814375 14.2291875 1.19625.003375s.01875-.15525-.1249375-.249625c.626625-.086125.463875-.638875.988625-.6701875.1018125.0156875-.274125.235-.274125.235s-.3164375.22325-.1723125.3368125c.114375.090125.1644375-.0548125.180125-.1645.015625-.109625.509125-.180125.438625-.4934375-.1175-.2585-.80675.1723125-.80675.1723125l-.49175-.00275c-.030625-.0551875-.16625-.2765-.306125-.2775-.1660625.0060625-.283.28025-.283.28025h-1.1123125s-.038125.285375.5258125.3401875c.1269375.1658125.225375.212125.33575.2550625-.0735625.0613125-.0943125.1355-.094.235z" fill="#f7c600" stroke="#000"/><path d="m12.367375 13.988025.9964375-.0054m-1.4525625-.583625s.0796875.466.447625.576375" stroke="#000"/><path d="m11.8496406 13.3925722c.0367616-.1778411.1042539-.2085078.1778412-.4353643.0122538-.2206975-.1778412-.196254-.1226668-.3372694.0981591-.1533335.0490795-.3004437-.1349206-.4170157.0368257.202413-.2391103.392508-.2391103.5580311 0 .1655873.1410154.1288258.1226026.3801899.012318.1471745-.0367616.1103488-.0490154.2514925h.2452693z" fill="url(#l)" stroke="#000"/><path d="m13.050625 12.2878125c.0010867.0510706-.0255336.0987349-.069586.1245955-.0440523.0258607-.0986465.0258728-.1427103.0000317-.0440638-.0258412-.0707052-.0734936-.0696412-.1245647.001598-.0766988.0642228-.138046.1409382-.138063.0767153-.000017.1393673.0613025.1409993.1380005z" fill="#f7c600" stroke="#000"/><g transform="translate(11.5 9.875)"><path d="m.624375 1.27275.771625-1.133375.7754375 1.13575" stroke="#f7c600"/><g stroke="#000"><path d="m1.5510625.8485625c.00002233.05475096-.02916632.10535484-.07657087.13274966-.04740455.02739481-.10582313.02741864-.15325001.0000625-.04742688-.02735615-.0766568-.0779362-.07667912-.13268716-.00003451-.08463763.06854987-.15327797.1531875-.15331248.08463763-.00003452.15327797.06854985.1533125.15318748z" fill="#f7c600"/><path d="m.7694375 2.1100625 1.1963125.0034375s.01875-.1553125-.125-.249625c.626625-.0861875.463875-.638875.9886875-.6701875.1018125.015625-.2741875.235-.2741875.235s-.316375.22325-.1723125.33675c.114375.090125.1645-.0548125.1801875-.1645.015625-.109625.509125-.180125.438625-.4934375-.1175-.2584375-.80675.1723125-.80675.1723125l-.49175-.00275c-.030625-.0551875-.16625-.2765-.306125-.2775-.1660625.0060625-.283.28025-.283.28025h-1.11225s-.038125.285375.5258125.3401875c.127.1658125.2254375.2121875.3358125.255125-.073625.06125-.094375.1355-.094.235z" fill="#f7c600"/><path d="m.855625 1.869125.996375-.0055m-1.4528125-.58425s.07975.466.4476875.576375"/><path d="m.3377 1.27307187c.03678203-.17779359.10422953-.20845906.17779359-.43535046.01231579-.22069219-.17779359-.19622594-.12257921-.3372375.09811296-.15332735.04901515-.30045547-.134895-.41700078.03678203.2023425-.23920719.39245187-.23920719.55801234s.14109422.12877844.12266187.38021875c.01223313.14712812-.03678203.11034609-.04901515.25135765z" fill="url(#m)"/><path d="m1.53875.168c.00002233.05037445-.02683149.09693427-.07044587.12214083-.04361439.02520656-.09736329.02523039-.141.0000625-.04363672-.02516789-.0705318-.07170388-.07055413-.12207833-.00003452-.07787215.06306535-.14102798.1409375-.1410625s.14102798.06306535.1410625.1409375z" fill="#f7c600"/></g></g><g transform="translate(4.9375 7.8125)"><path d="m.6673125 1.249375.7716875-1.133375.775375 1.13575" stroke="#f7c600"/><g stroke="#000"><path d="m1.594.825125c.00002233.05475096-.02916632.10535484-.07657087.13274966-.04740455.02739481-.10582313.02741864-.15325001.0000625-.04742688-.02735615-.0766568-.0779362-.07667912-.13268716-.00003451-.08463763.06854987-.15327797.1531875-.15331248.08463763-.00003452.15327797.06854985.1533125.15318748z" fill="#f7c600"/><path d="m.812375 2.0866875 1.1963125.003375s.01875-.15525-.1249375-.249625c.626625-.0861875.4638125-.638875.988625-.6701875.1018125.015625-.2741875.235-.2741875.235s-.316375.22325-.1723125.33675c.114375.090125.1645-.0548125.1801875-.1644375.015625-.1096875.509125-.1801875.438625-.4934375-.1175-.2585-.80675.1723125-.80675.1723125l-.49175-.00275c-.030625-.0551875-.16625-.2765-.306125-.2775-.1660625.006-.283.28025-.283.28025h-1.11225s-.038125.2853125.5258125.3401875c.127.1658125.2254375.212125.3358125.255-.073625.061375-.094375.135625-.094.235z" fill="#f7c600"/><path d="m.8985 1.84565.9964375-.0054m-1.4528125-.5843125s.07975.4660625.4476875.5764375"/><path d="m.3806375 1.24969687c.03678203-.17779359.10422953-.20845906.17779359-.43535046.01231579-.22069219-.17779359-.19622594-.12257921-.3372375.09811296-.15332735.04901515-.30045547-.134895-.41700078.03678203.2023425-.23920719.39245187-.23920719.55801234s.14109422.12877844.12266187.38021875c.01223313.14712812-.03678203.11034609-.04901515.25135765z" fill="url(#n)"/><path d="m1.5816875.1445625c.00002233.05037445-.02683149.09693427-.07044587.12214083-.04361439.02520656-.09736329.02523039-.141.0000625-.04363672-.02516788-.0705318-.07170388-.07055413-.12207833-.00003452-.07787215.06306535-.14102798.1409375-.1410625s.14102798.06306535.1410625.1409375z" fill="#f7c600"/></g></g><g stroke="#000" transform="translate(6.1875 .875)"><path d="m3.5463125 13.573375s.3121875.71975.66775.2775.2255-.6330625.2255-.6330625l-.7978125-.4335625-.2341875.4943125z" fill="#f7c600"/><path d="m4.2315625 13.4783125s.0520625.0086875.095375-.069375-.095375-.11275-.1560625-.1994375l-.069375.13875zm-1.8044375-.1909375-.7024375.3815625s-.346875.069375-.372875 0 .0086875-.1300625.19075-.13875c.182125-.0086875.6764375-.459625.6764375-.459625zm.009125-12.479s.0173125.16475.026.2514375-.13875.268875-.1474375.2601875-.0780625.0086875-.069375.0606875.11275.069375.11275.069375-.043375.182125 0 .1908125-.11275.234125 0 .2948125.3035.13875.39025.1214375c.0866875-.017375 0 .3381875 0 .3381875l-.2428125.5203125 1.3354375-.13875-.2775-.44225s-.130125-.08675-.0954375-.33825c.0346875-.2514375-.0173125-1.3875-.0173125-1.3875l-.953875-.1300625-.06075.3295625zm-.2430625 1.9771875s-.4335625.1994375-.41625.737125c-.1126875.5203125-.1734375 1.040625-.1734375 1.040625s-.511625.5809375-.6676875.789125c-.156125.208125-.39025.633-.477.74575s-.4249375.485625-.41625.624375-.0780625.7545.2601875.8238125c.0866875.0346875.3641875-.7110625.3641875-.7110625s.017375-.320875-.078-.3815625.208125-.2688125.208125-.2688125.581-.425.7110625-.529.485625-.503.485625-.503l.1994375-2.3674375z" fill="#ffc6b5"/><path d="m2.6875 2.378s.11275.3035.36425.2514375c.2514375-.052.5463125-.2861875.5463125-.2861875s.234125-.008625.2688125.0260625.6330625.615625.61575.7978125c-.017375.182125-.2775.13-.3729375.2514375s-.2515.425-.208125.6504375.1734375.5203125.156125.6330625-.11275.147375-.11275.208125c0 .060625.0780625.16475.0780625.2775s-.1040625.2775-.08675.3901875c.017375.11275.0260625.44225.0260625.44225l-.0260625 1.5263125s.08675.0520625.0954375.13875c.008625.08675.5896875 2.6101875.5896875 2.6101875s-.0260625.078125-.08675.069375.234125.39025.2428125.503.3035.9973125.294875 1.11875c-.00875.121375-.0520625.3901875-.078125.398875-.0259375.0086875.1908125.555.156125.6416875-.0346875.08675-.3901875.078125-.3901875.078125l-.0954375-.017375s.00875.1126875-.060625.121375-.5810625-.026-.5810625-.026-.1474375.2254375-.234125.2168125c-.08675-.00875-.1995-.1648125-.2255-.13875-.026.026.0780625.1734375.052.21675-.026.043375-.46825.13875-.555-.069375-.0866875-.208125.0520625-.1560625.0260625-.199375-.0260625-.0434375-.2255-.156125-.2861875-.1214375s.1560625.0866875.1474375.1734375c-.0086875.0866875-.1908125.21675-.2601875.21675s-.234125-.3208125-.4769375-.286125-.3989375.095375-.3989375.095375-.286125.121375-.4075625.095375c-.121375-.026-.1734375-.121375-.1734375-.1734375 0-.052.08675-.2775.0780625-.346875s-.0780625-.13875-.0780625-.2428125.1994375-.459625.1994375-.459625l-.008625-1.595625s-.182125 0-.1908125-.11275.2775-2.5235.320875-2.679625.1560625-.711125.1560625-.711125-.13.06075-.13875 0 .39025-1.4395.39025-1.4395.069375-.6850625.069375-.8671875c0-.1820625-.0346875-.4335625-.0346875-.4335625s-.356-.15075-.3641875-.3815625c-.0325625-.3673125.338125-.572375.3815625-.69375l.1734375-.485625s.19075-.3295625.5029375-.3815625z" fill="#fff"/><path d="m2.55775 13.3915s-.841125.4423125-.9625625.477-.1995-.1474375-.0780625-.182125.3121875-.0520625.3121875-.0520625-.2861875-.2254375-.2775-.234125.39025-.147375.3989375-.147375.121375.2254375.199375.208125.3035625-.1908125.3035625-.1908125.1214375.13875.1040625.121375z" fill="#f7c600"/><path d="m3.7430625 13.63375c.0790982.1025.10997944.2804375.29104162.176375.18106219-.1040625-.09276796-.2971875-.09276796-.2971875l-.19827366.12075zm.33037325-.017375s.08618163.069375.16378859-.0086875c.07760695-.0780625-.15521392-.2428125-.15521392-.2428125l-.1120299.1300625z" fill="#ffc6b5"/><path d="m3.815 2.716125s-.771875.4943125-.7545.66775m.9280625-.5810625s-.1734375.1908125-.182125.1908125m.4160625.017375s-.3815625.3121875-.320875.511625m-1.48275-.8498125s-.11275.234125-.08675.3121875c.0260625.0780625.216875.372875.2428125.555.0260625.182125 0 .3121875 0 .3121875m-.35525-.7458125s.034625.2775.0866875.3295c.0520625.0520625.1908125.28625.208125.3815625m-.36425.44225s.2254375.11275.4335625-.320875m.337625-.3034375c-.0086875 0-.16475.4249375.11275.581s.485625.13875.607.0954375c.1214375-.043375.2515-.1214375.2515-.1214375m-1.0919375-.0346875s.0173125.572375.8585 1.1360625m-.8238125-.5984375s-.008625.503.320875.7284375m-.4944375-1.318125s-.2515.7458125-.4509375.823875m.394375-.2775s-.0111289.5376875-.1.7284375m-.0690625.1300625s.1734375.2168125.3641875.1994375c.1908125-.0173125.2688125-.2428125.3989375-.208125.13.03475.2514375.13875.555.11275m-.43375.2254375s0 .44225.078125.485625.0433125.4509375.0433125.4509375m-1.1794375-1.144625s-.008625.41625-.0606875.5636875c-.052.147375-.1560625.398875-.13875.6156875m-.3295625.243125c.043375-.017375.1908125-.1474375.1908125-.1474375m.0778125.0953125s-.372875 1.595625-.2688125 2.5495625m.355625-2.4718125s-.1908125 1.1966875-.1040625 1.4221875m.009-1.4569375c.0086875 0 .7284375.0833.7284375.0833m.1039375-.1263s.1994375.11738279.4769375.0977955m-.5504375.4833295s-.04001442 2.0465625-.1 2.4975m1.1538125-2.0296875s.2255 1.795125.355625 1.959875m-.7895625-1.7341875s.13875 1.587.2168125 1.72575m-2.1849375.5548125s.2688125-.08675.511625-.346875c.2775.372875.7025.017375.7025.017375s.659.4509375.9538125-.0520625c.4509375.294875.6764375-.043375.6764375-.043375s.16475.2515.2861875.2255m-.7201875.1738125s.338125 1.5869375.841125 2.037875m-2.5844375-2.2031875s.043375 1.326875.1214375 2.263375m-.1771875-.763125s-.04544859.8671875-.1.9279375m-.41625.087125s.095375.372875.572375.026c.4769375-.346875.485625.130125.5029375.182125.017375.052.0954375.4249375.2775.11275m.381375-.5118125s-.0780625.77175.6070625.208125c.6850625-.5636875.7978125-.0086875.815125.16475"/><path d="m2.40975.75625s.1908125.0260625.294875-.034625c.1040625-.06075.2255-.08675.3121875.0346875s.1474375.1126875.1474375.1126875-.130125.320875 0 .3555625c.1300625.0346875.19075.0346875.1994375.0780625s-.11275.13875-.0780625.1820625c.0346875.043375.0954375.0954375.1040625.130125.0086875.0346875-.078.1820625-.052.2168125.026.0346875.1040625.1734375.1560625.1734375.0520625 0 .017375.21675.1734375.16475s.1475-.1908125.1475-.1908125.1646875-.026.208125-.1734375c.0433125-.147375.147375-.1820625.147375-.1820625s.208125-.11275-.069375-.28625c0-1.2140625-.7978125-1.0839375-.7978125-1.0839375s-.0954375-.2168125-.2515-.1908125c-.156125.0260625-.16475.208125-.2775.1908125-.11275-.017375-.13875-.095375-.1474375-.0866875-.0086875.008625-.1040625.1820625-.1040625.2254375s-.3035-.0606875-.2775.16475.1734375.2168125.16475.1995z" fill="#9c5100"/><path d="m3.243.4614375s-.06075.3815625.346875.346875c-.0520625.208125.1040625.2775.1040625.2775m.30399949.234125c.00967183 0 .20415959.11275-.00981199.2515m-.580625.052s.0866875.1040625.1820625.078125c.095375-.0260625.2515.0953125.2515.0953125s.1300625.043375.1474375.017375m-1.1100625.13875s.294875.11275.485625-.3555m-1.032-.13875.1734375.0138"/><path d="m2.3585 1.632125h.156125l-.13875.0972" stroke-linejoin="round"/><path d="m2.5750625 1.15749745c.0260625 0 .1214375-.0555.13875-.0138.017375.0416-.1040625.0693-.13875.0138z" stroke-linejoin="round"/><path d="m4.448125 3.206875c.0086875 0 .28625.8585.320875 1.0753125.0346875.2168125.1474375 1.084.1040625 1.2054375-.043375.121375-.485625.702375-.5376875.8498125-.052.147375-.3641875.7110625-.3641875.7110625s-.0780625.555-.11275.5810625c-.0346875.026.0895625.16225.0780625.208125-.0171875.051625-.2515.2948125-.3555625.2688125s-.2688125-.1474375-.2775-.2601875.0086875-.485625.08675-.581.485625-1.0579375.511625-1.11875c.026-.060625.372875-.815125.3815625-.945125.0086875-.130125-.1079375-.430875-.2305625-.54125-.2729375-.8033125-.165625-1.28775.3953125-1.4533125z" fill="#ffc6b5"/><path d="m.40775 6.927625.0218.38m-.3778625-.408125s.243625.4075.2233125.624625"/><path d="m3.317375 7.750875s.1821875-.019125.1764375.285c.1163125-.3778125.352875-.3868125.352875-.3868125" stroke-linejoin="round"/></g><path d="m8.8824375 17.3093125c3.662375-.10175 6.0276875-2.7468125 6.00225-2.77225s.48325-.7375.8901875-.6358125c.406875.1016875.991875 1.2970625 1.704 1.551375.3560625.5595625-.1016875 1.06825-.2543125 1.17-.152625.1016875-.8393125.3815-.9410625-.0254375-.1016875-.4069375-.3051875-.330625-.3051875-.330625s-3.2555 3.1791875-7.019375 3.052c-3.8910625.025625-7.095625-3.051875-7.095625-3.051875l-.2798125.3051875s-.3051875.330625-.45775.3051875c-.152625-.0254375-.8139375-.4578125-.8648125-.8901875-.0508125-.432375.4069375-.712125.4069375-.712125s1.119125-.86475 1.24625-1.3225c.254375-.254375.7375.178.7375.178s2.9503125 3.3826875 6.23125 3.17925z" fill="#f7c600" stroke="#000"/><path d="m.5915 15.34225s.302625-.080625.413625.0454375c.1109375.1260625.8725625.8725625.8725625.8725625" stroke="#000"/><path d="m1.2825 15.695125-.3026875.227s.761625.15125.590125.650625m15.636125-1.256125s-.1513125-.0806875-.388375.0958125c-.2370625.1765625-.8373125.847375-.8373125.847375" stroke="#000"/><path d="m16.525375 15.67525.3278125.2521875s-.6859375.045375-.534625.6960625" stroke="#000"/></g><path d="m4.4684375 16.149375-.022.0309375c-.046-.02275-.0985-.0269375-.1574375-.0126875-.04325.0111875-.12475.051875-.2445.121875l-1.0078125.5875-.0275-.019625.2538125-1.178125c.0306875-.142.0446875-.22825.0420625-.25875-.0020625-.03-.023375-.0633125-.06375-.0996875l.022-.0309375.54325.3874375-.0220625.0309375-.018375-.013125c-.0490625-.035-.086875-.0526875-.1134375-.053125-.01875-.0008125-.033875.006875-.0454375.0230625-.007125.01-.0134375.0235625-.0189375.040625-.0050625.016625-.0160625.0638125-.0329375.14175l-.16075.736375.5821875-.3425625c.07-.0416875.1154375-.070625.13625-.086875.020875-.01625.0364375-.0315625.0468125-.0460625.011875-.01675.0179375-.0346875.0181875-.053875.0001875-.019125-.0059375-.03825-.0184375-.05725-.0171875-.0265625-.0455625-.0539375-.085125-.082125l.0220625-.0309375zm.361875 1.751125-.018125.0333125-.638625-.3491875.01825-.0333125.0405.022125c.0354375.019375.0674375.0286875.0959375.027875.0201875.000125.0400625-.0076875.0596875-.0235.0144375-.0108125.0384375-.046875.0719375-.108125l.439375-.8033125c.034125-.0624375.052125-.10325.0540625-.1225.0019375-.0191875-.0041875-.040125-.0183125-.0626875-.01325-.0228125-.037-.043625-.07125-.0623125l-.0405-.0221875.0181875-.0333125.6385625.3491875-.01825.0333125-.0405-.022125c-.0354375-.019375-.067375-.02875-.095875-.027875-.02025-.0001875-.0404375.0075-.060625.023-.0144375.0108125-.0384375.046875-.071875.1080625l-.439375.803375c-.0341875.0624375-.0521875.10325-.054125.1225-.001375.0195625.004625.04075.017875.0635625.014125.022625.038375.04325.0725625.0619375l.0405625.0221875m2.3326875-.547125-.164625.4621875-.03575-.01275c.0018125-.1416875-.02875-.260875-.09175-.357375s-.1456875-.1630625-.2481875-.1995625c-.098-.034875-.189375-.03625-.27425-.0039375-.0846875.0315625-.158125.091875-.2203125.180875-.06234928.0892759-.1123829.1865471-.14875.2891875-.04475.125625-.0691875.24125-.0733125.3465s.0188125.192.06875.259875c.0505625.068125.12125.118375.2121875.15075.0315625.01125.065.0195.100125.0248125.0360625.0048125.07375.007.113125.0065l.0971875-.2726875c.018375-.0515625.026625-.0860625.0248125-.103375-.0015625-.018-.0114375-.037125-.0296875-.0574375-.0175-.02-.042125-.0356875-.0736875-.0469375l-.033875-.0120625.01275-.0358125.63725.227-.01275.03575c-.0495-.014-.08575-.01925-.10875-.0158125-.022125.003-.0425.01425-.0610625.03375-.0101875.01025-.02375.0391875-.04075.086875l-.097125.2726875c-.097125.0075-.1944375.0044375-.292-.0091875-.09949238-.0133851-.19728765-.0372683-.29175-.07125-.124375-.0443125-.221875-.0979375-.2925-.1608125-.06760618-.0607464-.1250054-.1319678-.17-.2109375-.0428125-.07775-.069625-.157375-.0805625-.239-.0134375-.105-.0005-.2126875.03875-.3229375.0703125-.19725.1989375-.3391875.386-.425875.1870625-.086625.385625-.0925.5958125-.0176875.065125.0231875.121875.04925.1705.078125.0265.0153125.067.0464375.1214375.0934375.0553125.0465625.08875.071875.100375.0760625.018125.0064375.037125.0059375.0571875-.0014375.0203125-.008.0434375-.028125.069375-.06025zm.98275 1.577375-.005625.0375625-.719625-.109.005625-.0375.04575.006875c.039875.0060625.073125.00375.099625-.0066875.019-.006875.035-.021.048-.042625.009875-.0150625.02-.057125.0305-.1261875l.137125-.9053125c.0106875-.0703125.013625-.114875.008875-.133625-.0048125-.01875-.01775-.03625-.03875-.0525625-.0203125-.016875-.04975-.0283125-.0883125-.034125l-.045625-.006875.005625-.037625.719625.109-.0056875.0375625-.0456875-.006875c-.0399375-.0060625-.073125-.003875-.099625.0066875-.0190625.0068125-.035375.0209375-.049.042375-.0099375.015125-.020125.0571875-.0305625.12625l-.137125.90525c-.010625.070375-.013625.1149375-.0088125.133625.0054375.018875.0183125.0366875.0385625.053625.0210625.016375.050875.0274375.0894375.03325zm1.867875-.45375-.0274375.4906875-1.23425.063-.0019375-.0379375.046125-.002375c.0403125-.0020625.072375-.010875.09625-.0265.0173125-.0104375.030125-.0275625.0385-.05125.0066875-.016875.00825-.0600625.0046875-.1298125l-.046625-.914375c-.003625-.071125-.0096875-.1153125-.018125-.1326875-.008375-.0174375-.0245625-.032-.0484375-.04375-.02325-.0125625-.054375-.0178125-.0933125-.015875l-.046125.002375-.0019375-.0379375.7411875-.0378125.001875.0379375-.0604375.003125c-.0403125.002-.0724375.010875-.09625.0264375-.0173125.0105-.0305.027625-.0395625.051375-.0066875.0168125-.00825.06-.0046875.12975l.0451875.88575c.003625.0710625.01.11625.01925.1356875.0091875.01875.026.03225.050375.040625.0174375.00525.0589375.00625.1245625.002875l.1158125-.005875c.0738125-.00375.1346875-.0199375.1825-.048375.0479375-.0285.0881875-.0716875.120875-.1295.033375-.0579375.0633125-.142375.089875-.253375l.0420625-.002125m1.350125-.23425-.471125.14075-.01725.1465625c-.0054375.04875-.0039375.08725.0045.1154375.011125.037375.0344375.0604375.069875.069125.020875.0051875.066875 0 .137875-.0155l.010875.0364375-.4435625.1325-.010875-.036375c.0456875-.0215625.0791875-.0529375.100375-.0943125.0210625-.042.039-.1205625.053875-.2356875l.159125-1.20675.0186875-.0055625.807625.95c.076875.0899375.1340625.143875.171625.162.0283125.013625.0633125.0160625.105.0071875l.010875.036375-.64525.19275-.010875-.036375.0265625-.0079375c.0518125-.0155.0860625-.0335625.1026875-.05425.0113125-.0148125.014-.0320625.008125-.05175-.0037766-.0123316-.0094258-.0240096-.01675-.034625-.003125-.0055-.02025-.027125-.0515625-.0649375l-.1204375-.145m-.0551875-.062875-.3359375-.3999375-.0673125.5204375.40325-.1204375m1.77875-1.812625.1784375.3318125-.0325625.0175c-.0604375-.06625-.1113125-.1095625-.1526875-.13-.041625-.0211875-.0883125-.030625-.14-.0285-.02875.0014375-.0716875.0175625-.129.048375l-.09125.0490625.5084375.94575c.0336875.0626875.0580625.1000625.073125.1121875.015625.0118125.0366875.018375.0630625.01975.026625.0004375.0574375-.00875.092375-.0275625l.0406875-.021875.018.0334375-.6419375.345125-.018-.0334375.0406875-.021875c.0355625-.019125.0608125-.040875.075625-.0651875.01125-.016875.01575-.0379375.01375-.0633125-.001125-.0180625-.0181875-.0578125-.05125-.11925l-.5084375-.94575-.088625.047625c-.0825625.044375-.133125.094125-.15175.1491875-.0261875.077-.021875.1644375.012875.2623125l-.034375.0185-.178375-.331875zm.8349375-.495.34125.4523125.0220625-.0166875c.0705-.053125.104875-.11375.1031875-.1819375s-.03075-.14875-.087125-.241625l.0311875-.0235.438875.581875-.031125.0234375c-.054375-.058375-.1075-.0998125-.15925-.124125-.05125-.0248125-.096-.0335-.134125-.026125-.038625.0068125-.084375.0301875-.137375.0701875l.236125.313c.0461875.06125.076875.0968125.0920625.10675.01575.0095.0340625.0133125.054875.0113125.0208125-.0019375.047-.014875.07875-.03875l.0663125-.050125c.1038125-.0783125.16875-.165.19475-.26.0265625-.0955.0164375-.2026875-.0304375-.321625l.0303125-.022875.2164375.390875-.9605.7244375-.022875-.0303125.036875-.0278125c.03225-.0243125.053875-.049625.064875-.0759375.0084375-.018375.0095-.0396875.003125-.0640625-.003875-.017625-.026875-.054375-.068875-.11l-.551375-.7310625c-.0379375-.05025-.0625625-.0800625-.0739375-.0895-.0180748-.0144008-.0406474-.0219693-.06375-.021375-.03225.000375-.0664375.014125-.1025.041375l-.036875.0278125-.022875-.0303125.930125-.701625.247875.328625-.031125.0235c-.0764375-.068375-.1423125-.109125-.197625-.12225-.0548125-.0135625-.114625-.00875-.179375.0144375-.0380625.01325-.099125.051625-.18325.1150625l-.11475.0865625" fill="#000" fill-rule="nonzero"/><path d="m2.2210625 16.2539375c4.54925 3.69 9.0081875 3.757625 13.3708125 0"/></g></g></g></g></svg>