<svg height="48" viewBox="0 0 48 48" width="48" xmlns="http://www.w3.org/2000/svg" xmlns:xlink="http://www.w3.org/1999/xlink"><defs><rect id="a" height="30" rx="4" width="40" x="4" y="9"/><mask id="b" fill="#fff"><use fill="#fff" fill-rule="evenodd" xlink:href="#a"/></mask></defs><g fill="none" fill-rule="evenodd"><path d="m0 0h48v48h-48z"/><use fill="#1f475a" xlink:href="#a"/><g mask="url(#b)"><g transform="translate(14 14)"><path d="m0 0h20v20h-20z"/><path d="m10 18.3333333c-4.60237291 0-8.33333333-3.7309604-8.33333333-8.3333333 0-4.60237291 3.73096042-8.33333333 8.33333333-8.33333333 4.6023729 0 8.3333333 3.73096042 8.3333333 8.33333333 0 4.6023729-3.7309604 8.3333333-8.3333333 8.3333333zm2.3096402-3.9350098 3.1420509-8.82161848h-1.9409434l-2.105332 6.39761708-1.58440543-4.65916842h-5.17232452v1.17404569h3.63417248l.33395522.93935905h-3.05337323v1.17623328h3.47156783l.26846954.7552499h-4.72980666v1.1767584h5.14795775l.66173172 1.8615235z" fill="#fcfcfc"/></g></g></g></svg>