<svg height="48" viewBox="0 0 48 48" width="48" xmlns="http://www.w3.org/2000/svg" xmlns:xlink="http://www.w3.org/1999/xlink"><defs><path id="a" d="m8 9h32c2.209139 0 4 1.790861 4 4v22c0 2.209139-1.790861 4-4 4h-32c-2.209139 0-4-1.790861-4-4v-22c0-2.209139 1.790861-4 4-4z"/><mask id="b" fill="#fff"><use fill="#fff" fill-rule="evenodd" xlink:href="#a"/></mask><mask id="c" fill="#fff"><path d="m0 0h40v30h-40z" fill="#fff" fill-rule="evenodd"/></mask></defs><g fill="none" fill-rule="evenodd"><path d="m0 0h48v48h-48z"/><use fill="#d8d8d8" xlink:href="#a"/><g mask="url(#b)"><g fill-rule="nonzero" transform="translate(4 9)"><path d="m0 23.8465092v-17.7405324l11.7454844 8.8657347-11.7454844 8.8754409z" fill="#000" mask="url(#c)"/><path d="m8.02080025 29.9440662 13.18646875-9.9776717h18.7428872v9.9776717z" fill="#00c" mask="url(#c)"/><path d="m7.17303999.00072019 32.77607601.00076012v9.97930893h-18.7428872s-13.85749959-10.07876757-14.03318881-9.98006905z" fill="#f00" mask="url(#c)"/><path d="m0 3.74650921v2.3580643l11.7454844 8.86567629-11.7454844 8.8754408v2.3579474l14.7936766-11.2333882z" fill="#fc0" mask="url(#c)"/><path d="m0 3.74288403v-3.74288403h4.93526496l15.67123854 11.9210035h19.3361113v6.0962122h-19.3361113l-15.67123854 11.9192493h-4.93521295v-3.7364522l14.79362459-11.2333882z" fill="#093" mask="url(#c)"/><path d="m4.94161016 0h3.07867l13.18646874 9.97843044h18.7428872v1.94145376h-19.3361113l-15.67129052-11.9198842zm0 29.9376299h3.07867l13.18646874-9.9767349h18.7428872v-1.9413953h-19.3361113l-15.67129052 11.9180718z" fill="#fff" mask="url(#c)"/></g></g></g></svg>