<svg height="86" viewBox="0 0 86 86" width="86" xmlns="http://www.w3.org/2000/svg" xmlns:xlink="http://www.w3.org/1999/xlink"><mask id="a" fill="#fff"><circle cx="15" cy="15" fill="#fff" fill-rule="evenodd" r="15"/></mask><g fill="none" fill-rule="evenodd"><circle cx="43" cy="43" fill="#519e5d" r="43"/><g transform="translate(11 11)"><path d="m0 0h64v64h-64z"/><path d="m24 43.12-11.12-11.12-3.78666667 3.76 14.90666667 14.9066667 32-32-3.76-3.76z" fill="#fcfcfc"/></g><g transform="translate(56 56)"><g fill="#fcfcfc" mask="url(#a)"><path d="m0 0h30v30h-30z"/></g><path d="m15 30c-8.28427125 0-15-6.7157288-15-15 0-8.28427125 6.71572875-15 15-15 8.2842712 0 15 6.71572875 15 15 0 8.2842712-6.7157288 15-15 15zm6.2295053-22.89672273-3.8351809 11.65518393-2.8993927-8.5256613h-9.19873226v1.982472h6.52239996l.6473292 1.8214202h-5.52285783v1.986646h6.22939833l.5297683 1.4900239h-8.54106464v1.987591h9.24721344l1.1910388 3.350821h3.3757455l5.6090901-15.74849673z" fill="#c8252c" mask="url(#a)"/></g></g></svg>