<svg height="86" viewBox="0 0 86 86" width="86" xmlns="http://www.w3.org/2000/svg" xmlns:xlink="http://www.w3.org/1999/xlink"><mask id="a" fill="#fff"><circle cx="15" cy="15" fill="#fff" fill-rule="evenodd" r="15"/></mask><g fill="none" fill-rule="evenodd"><circle cx="43" cy="43" fill="#e4a53f" r="43"/><g transform="translate(11 11)"><path d="m0 0h64v64h-64z"/><path d="m50.6666667 21.3333333-10.6666667 10.6666667h8c0 8.8266667-7.1733333 16-16 16-2.6933333 0-5.2533333-.6666667-7.4666667-1.8666667l-3.8933333 3.8933334c3.28 2.08 7.1733333 3.3066666 11.36 3.3066666 11.7866667 0 21.3333333-9.5466666 21.3333333-21.3333333h8zm-34.6666667 10.6666667c0-8.8266667 7.1733333-16 16-16 2.6933333 0 5.2533333.6666667 7.4666667 1.8666667l3.8933333-3.8933334c-3.28-2.08-7.1733333-3.3066666-11.36-3.3066666-11.7866667 0-21.3333333 9.5466666-21.3333333 21.3333333h-8.00000003l10.66666663 10.6666667 10.6666667-10.6666667z" fill="#fcfcfc" transform="matrix(-1 0 0 1 64 0)"/></g><g transform="translate(56 56)"><g fill="#fcfcfc" mask="url(#a)"><path d="m0 0h30v30h-30z"/></g><path d="m15 30c-8.28427125 0-15-6.7157288-15-15 0-8.28427125 6.71572875-15 15-15 8.2842712 0 15 6.71572875 15 15 0 8.2842712-6.7157288 15-15 15zm6.2295053-22.89672273-3.8351809 11.65518393-2.8993927-8.5256613h-9.19873226v1.982472h6.52239996l.6473292 1.8214202h-5.52285783v1.986646h6.22939833l.5297683 1.4900239h-8.54106464v1.987591h9.24721344l1.1910388 3.350821h3.3757455l5.6090901-15.74849673z" fill="#c8252c" mask="url(#a)"/></g></g></svg>