<?xml version="1.0" encoding="UTF-8"?>
<svg width="250px" height="202px" viewBox="0 0 250 202" version="1.1" xmlns="http://www.w3.org/2000/svg" xmlns:xlink="http://www.w3.org/1999/xlink">
    <!-- Generator: Sketch 54.1 (76490) - https://sketchapp.com -->
    <title>Illustrations/Gift Unopened</title>
    <desc>Created with Sketch.</desc>
    <g id="Settings" stroke="none" stroke-width="1" fill="none" fill-rule="evenodd">
        <g id="Account---Paid---Active-(auto-renew)" transform="translate(-225.000000, -498.000000)">
            <g id="Illustrations/Setup/Gift-Unopened" transform="translate(225.000000, 474.000000)">
                <g id="Gift-Unopened">
                    <rect id="Container" x="0" y="0" width="250" height="250"></rect>
                    <g id="we-miss-you" transform="translate(0.000000, 24.500000)">
                        <g id="XMLID_131_" transform="translate(43.715847, 156.823529)" fill="#9D1D23">
                            <polygon id="Path" points="147.677596 5.78970588 124.499089 0.182352941 0.136612022 23.6147059 23.2240437 29.9058824"></polygon>
                        </g>
                        <g id="XMLID_34_" transform="translate(61.475410, 155.911765)" fill="#9D1D23">
                            <polygon id="Path" points="0.0910746812 5.92647059 23.2695811 0.319117647 142.076503 24.9823529 118.989071 30.8176471"></polygon>
                        </g>
                        <g id="XMLID_26_" transform="translate(3.187614, 65.647059)" fill="#80CDE3">
                            <polygon id="Path" points="121.812386 135.579412 0.136612022 100.886765 0.136612022 0 121.812386 26.3044118"></polygon>
                        </g>
                        <g id="XMLID_25_" transform="translate(124.772313, 65.647059)" fill="#5EAFCE">
                            <polygon id="Path" points="0.227686703 135.579412 121.903461 100.886765 121.903461 0 0.227686703 26.3044118"></polygon>
                        </g>
                        <g id="XMLID_22_" transform="translate(0.000000, 23.250000)" fill="#A4DCE5">
                            <polygon id="Path" points="250 21.5632353 125 48.5514706 0.0455373406 21.5632353 125 0.227941176"></polygon>
                        </g>
                        <g id="XMLID_66_" transform="translate(3.187614, 51.514706)" fill="#5EAFCE">
                            <polygon id="Path" points="121.812386 61.0426471 0.136612022 30.4529412 0.136612022 0 121.812386 26.35"></polygon>
                        </g>
                        <g id="XMLID_41_" transform="translate(124.772313, 51.514706)" fill="#2180B0">
                            <polygon id="Path" points="0.227686703 61.0426471 121.903461 30.4985294 121.903461 0.0911764706 0.227686703 26.35"></polygon>
                        </g>
                        <g id="XMLID_21_" transform="translate(0.000000, 44.676471)" fill="#80CDE3">
                            <polygon id="Path" points="125 61.8176471 0.0455373406 30.5897059 0.0455373406 0.136764706 125 27.125"></polygon>
                        </g>
                        <g id="XMLID_20_" transform="translate(124.772313, 44.676471)" fill="#5EAFCE">
                            <polygon id="Path" points="0.227686703 61.8176471 125.227687 30.5897059 125.227687 0.136764706 0.227686703 27.125"></polygon>
                        </g>
                        <g id="XMLID_19_" transform="translate(44.626594, 29.632353)" fill="#C8252C">
                            <polygon id="Path" points="147.449909 5.69852941 124.271403 0.0911764706 0.0455373406 24.8 23.1785064 29.8147059"></polygon>
                        </g>
                        <g id="XMLID_18_" transform="translate(60.564663, 28.264706)" fill="#C8252C">
                            <polygon id="Path" points="0.136612022 6.01764706 23.2695811 0.364705882 142.167577 26.7602941 118.989071 31.775"></polygon>
                        </g>
                        <g id="XMLID_17_" transform="translate(179.417122, 54.705882)" fill="#C8252C">
                            <polygon id="Path" points="0.136612022 5.33382353 23.3151184 0.319117647 24.1347905 126.188235 1.04735883 132.023529"></polygon>
                        </g>
                        <g id="XMLID_16_" transform="translate(43.715847, 54.250000)" fill="#C8252C">
                            <polygon id="Path" points="24.0892532 5.19705882 0.956284153 0.182352941 0.136612022 126.188235 23.2240437 132.479412"></polygon>
                        </g>
                        <g id="XMLID_1_" transform="translate(158.925319, 86.617647)">
                            <g id="XMLID_3_">
                                <g id="XMLID_4_">
                                    <g id="XMLID_6_" fill="#FFFFFF">
                                        <ellipse id="Oval" transform="translate(34.833028, 40.691635) rotate(-74.282055) translate(-34.833028, -40.691635) " cx="34.8330282" cy="40.6916349" rx="34.6895552" ry="26.0037686"></ellipse>
                                    </g>
                                    <g id="XMLID_5_" transform="translate(16.393443, 18.235294)" fill="#C8252C">
                                        <polygon id="Path" points="29.2349727 1.55 22.9052823 29.4955882 22.859745 29.4955882 17.3497268 11.3970588 0.273224044 15.1352941 0.364298725 20.0588235 12.2495446 17.4602941 13.3879781 20.9705882 3.36976321 23.2044118 3.46083789 28.0823529 14.845173 25.575 15.8014572 28.4926471 0.364298725 31.9117647 0.455373406 36.7897059 17.2586521 33.0970588 19.5810565 40.3911765 26.0928962 38.9779412 35.8378871 0.0911764706"></polygon>
                                    </g>
                                </g>
                            </g>
                            <g id="XMLID_2_" transform="translate(42.349727, 31.455882)" fill="#FFFFFF">
                                <path d="M9.88160291,0.410294118 L0.136612022,39.2970588" id="Path"></path>
                            </g>
                        </g>
                        <g id="XMLID_33_" transform="translate(130.692168, 36.926471)" fill="#C8252C">
                            <polygon id="Path" points="5.6010929 12.0808824 0.318761384 0.319117647 88.4335155 0.547058824 81.6939891 5.425 97.4954463 12.2632353"></polygon>
                        </g>
                        <g id="XMLID_70_" transform="translate(15.027322, 36.926471)" fill="#C8252C">
                            <polygon id="Path" points="101.730419 11.8985294 106.375228 0.182352941 8.7431694 0.547058824 15.8014572 5.425 0.364298725 12.2632353"></polygon>
                        </g>
                        <g id="XMLID_64_" transform="translate(32.331512, 0.000000)">
                            <path d="M16.6211293,10.8044118 C11.8852459,8.98088235 9.01639344,6.33676471 8.19672131,2.96323529 L0,23.7970588 C0.865209472,27.1705882 3.68852459,29.7691176 8.42440801,31.6382353 C18.3970856,35.5132353 36.4754098,40.5279412 79.3260474,46.2264706 L87.5227687,25.3926471 C44.6721311,19.6941176 26.5938069,14.6794118 16.6211293,10.8044118 Z" id="XMLID_63_" fill="#9D1D23"></path>
                            <path d="M87.9781421,25.4382353 L79.7814208,46.2720588 C58.5154827,30.6808824 3.77959927,14.2235294 0,23.7970588 L8.19672131,2.96323529 C11.9763206,-6.61029412 66.712204,9.84705882 87.9781421,25.4382353 Z" id="XMLID_62_" fill="#C8252C"></path>
                            <path d="M172.404372,10.8044118 C177.140255,8.98088235 180.009107,6.33676471 180.82878,2.96323529 L189.025501,23.7970588 C188.160291,27.1705882 185.336976,29.7691176 180.601093,31.6382353 C170.628415,35.5132353 152.550091,40.5279412 109.699454,46.2264706 L101.502732,25.3926471 C144.398907,19.6941176 162.477231,14.6794118 172.404372,10.8044118 Z" id="XMLID_61_" fill="#9D1D23"></path>
                            <path d="M101.047359,25.4382353 L109.24408,46.2720588 C130.510018,30.6808824 185.245902,14.2235294 189.025501,23.7970588 L180.82878,2.96323529 C177.094718,-6.61029412 122.358834,9.84705882 101.047359,25.4382353 Z" id="XMLID_60_" fill="#C8252C"></path>
                            <g id="XMLID_57_" transform="translate(71.493625, 17.779412)" fill="#9D1D23">
                                <path d="M16.4845173,7.65882353 C13.0692168,5.15147059 8.83424408,2.64411765 4.05282332,0.227941176 L0.273224044,23.4323529 C3.27868852,25.1191176 5.96539162,26.8058824 8.28779599,28.4926471 L16.4845173,7.65882353 Z" id="XMLID_59_"></path>
                                <path d="M29.5537341,7.65882353 L37.7504554,28.4926471 C40.1183971,26.7602941 42.9417122,24.9823529 46.0837887,23.25 L42.3041894,0.0455882353 C37.431694,2.50735294 33.0601093,5.10588235 29.5537341,7.65882353 Z" id="XMLID_58_"></path>
                            </g>
                            <path d="M78.1876138,17.6882353 C78.1876138,17.6882353 78.1876138,16.4573529 94.7176685,16.4573529 C111.247723,16.4573529 111.247723,17.6882353 111.247723,17.6882353 L111.247723,48.6426471 C111.247723,48.6426471 110.382514,50.8764706 94.7176685,50.8764706 C79.0983607,50.8764706 78.1876138,48.6426471 78.1876138,48.6426471 L78.1876138,17.6882353 Z" id="XMLID_32_" fill="#C8252C"></path>
                        </g>
                    </g>
                </g>
            </g>
        </g>
    </g>
</svg>