<?xml version="1.0" encoding="UTF-8"?>
<svg width="100px" height="100px" viewBox="0 0 100 100" version="1.1" xmlns="http://www.w3.org/2000/svg" xmlns:xlink="http://www.w3.org/1999/xlink">
    <!-- Generator: Sketch 54.1 (76490) - https://sketchapp.com -->
    <title>Happy</title>
    <desc>Created with Sketch.</desc>
    <g id="Home" stroke="none" stroke-width="1" fill="none" fill-rule="evenodd">
        <g id="Home---VPN---Rating---1" transform="translate(-385.000000, -1070.000000)" fill="#519E5D">
            <g id="IaM/Home/Rating" transform="translate(0.000000, 980.000000)">
                <g id="Happy" transform="translate(385.000000, 90.000000)">
                    <circle id="Oval-2" stroke="#519E5D" stroke-width="4.16666667" fill-opacity="0.1" cx="50" cy="50" r="47.9166667"></circle>
                    <path d="M62.7076796,43.4667412 C59.6537599,40.4000725 59.6537599,35.42802 62.7076796,32.3613513 C65.7615998,29.2946825 70.7129819,29.2946825 73.7669021,32.3613513 C76.8208223,29.2946825 81.7722045,29.2946825 84.8261247,32.3613513 C87.8800443,35.42802 87.8800443,40.4000725 84.8261247,43.4667412 L73.7669021,54.5721312 L62.7076796,43.4667412 Z M15.7873725,43.4667412 C12.7334525,40.4000725 12.7334525,35.42802 15.7873725,32.3613513 C18.8412924,29.2946825 23.792675,29.2946825 26.8465949,32.3613513 C29.9005149,29.2946825 34.8518973,29.2946825 37.9058175,32.3613513 C40.9597371,35.42802 40.9597371,40.4000725 37.9058175,43.4667412 L26.8465949,54.5721312 L15.7873725,43.4667412 Z M41.0671524,68.7520757 C41.3484613,69.2064629 42.0595972,70.0452045 43.1889033,70.9103147 C45.1027316,72.3764106 47.4464221,73.2515819 50.3067485,73.2515819 C53.167075,73.2515819 55.5107654,72.3764106 57.4245937,70.9103147 C58.5538998,70.0452045 59.2650358,69.2064629 59.5463447,68.7520757 C60.4014368,67.3708796 62.2096522,66.9472816 63.5851063,67.8059433 C64.9605611,68.6646051 65.3823981,70.4803684 64.527306,71.8615651 C63.8970712,72.879559 62.7356476,74.2493877 60.9819067,75.5928484 C58.0906557,77.8077041 54.5198361,79.1411043 50.3067485,79.1411043 C46.093661,79.1411043 42.5228414,77.8077041 39.6315904,75.5928484 C37.8778495,74.2493877 36.7164258,72.879559 36.0861911,71.8615651 C35.231099,70.4803684 35.652936,68.6646051 37.0283908,67.8059433 C38.4038449,66.9472816 40.2120603,67.3708796 41.0671524,68.7520757 Z" id="Shape" fill-rule="nonzero"></path>
                </g>
            </g>
        </g>
    </g>
</svg>