<?xml version="1.0" encoding="UTF-8"?>
<svg width="100px" height="100px" viewBox="0 0 100 100" version="1.1" xmlns="http://www.w3.org/2000/svg" xmlns:xlink="http://www.w3.org/1999/xlink">
    <!-- Generator: Sketch 54.1 (76490) - https://sketchapp.com -->
    <title>Sad</title>
    <desc>Created with Sketch.</desc>
    <g id="Home" stroke="none" stroke-width="1" fill="none" fill-rule="evenodd">
        <g id="Home---VPN---Rating---1" transform="translate(-215.000000, -1070.000000)" fill="#E4583F">
            <g id="IaM/Home/Rating" transform="translate(0.000000, 980.000000)">
                <g id="Sad" transform="translate(215.000000, 90.000000)">
                    <circle id="Oval-2" stroke="#E4583F" stroke-width="4.16666667" fill-opacity="0.1" cx="50" cy="50" r="47.9166667"></circle>
                    <path d="M74.1050994,52.3212691 C78.5442303,52.3212691 82.1428571,48.1239743 82.1428571,42.9463488 C82.1428571,37.7687233 78.5442303,33.5714286 74.1050994,33.5714286 C69.6659685,33.5714286 66.0673417,37.7687233 66.0673417,42.9463488 C66.0673417,48.1239743 69.6659685,52.3212691 74.1050994,52.3212691 Z M25.8949006,52.3212691 C21.4557696,52.3212691 17.8571429,48.1239743 17.8571429,42.9463488 C17.8571429,37.7687233 21.4557696,33.5714286 25.8949006,33.5714286 C30.3340316,33.5714286 33.9326584,37.7687233 33.9326584,42.9463488 C33.9326584,48.1239743 30.3340316,52.3212691 25.8949006,52.3212691 Z M41.5502065,75.1638505 C41.8072202,74.7505413 42.456939,73.9876237 43.4887127,73.2007213 C45.2372535,71.867163 47.3785315,71.0711096 49.9918262,71.0711096 C52.6051209,71.0711096 54.7463989,71.867163 56.4949397,73.2007213 C57.5267134,73.9876237 58.1764322,74.7505413 58.4334459,75.1638505 C59.2146881,76.4201841 60.8667372,76.8054879 62.1234004,76.024451 C63.3800642,75.2434141 63.7654693,73.591799 62.9842271,72.335466 C62.4084225,71.4095008 61.3473051,70.1635069 59.7450258,68.9414979 C57.1034772,66.9268704 53.841051,65.7140123 49.9918262,65.7140123 C46.1426013,65.7140123 42.8801751,66.9268704 40.2386266,68.9414979 C38.6363473,70.1635069 37.5752299,71.4095008 36.9994253,72.335466 C36.2181831,73.591799 36.6035882,75.2434141 37.860252,76.024451 C39.1169152,76.8054879 40.7689643,76.4201841 41.5502065,75.1638505 Z" id="Shape" fill-rule="nonzero"></path>
                </g>
            </g>
        </g>
    </g>
</svg>