<?xml version="1.0" encoding="UTF-8"?>
<svg width="640px" height="382px" viewBox="0 0 640 382" version="1.1" xmlns="http://www.w3.org/2000/svg" xmlns:xlink="http://www.w3.org/1999/xlink">
    <!-- Generator: Sketch 54.1 (76490) - https://sketchapp.com -->
    <title>Illustration 3</title>
    <desc>Created with Sketch.</desc>
    <defs>
        <linearGradient x1="50%" y1="0%" x2="50%" y2="85.9810335%" id="linearGradient-1">
            <stop stop-color="#FFFFFF" offset="0%"></stop>
            <stop stop-color="#FEFEFE" stop-opacity="0" offset="100%"></stop>
        </linearGradient>
        <path d="M8.06435763,1.38938713 C7.20707621,0.532105708 6.03053136,0 4.72391623,0 C2.11068598,0 0,2.11659826 0,4.72982852 C0,7.34305878 2.11068598,9.45965704 4.72391623,9.45965704 C6.92919878,9.45965704 8.76791962,7.9520242 9.29411304,5.91228565 L8.06435763,5.91228565 C7.5795502,7.28984821 6.26702279,8.27719991 4.72391623,8.27719991 C2.76694968,8.27719991 1.17654484,6.68679507 1.17654484,4.72982852 C1.17654484,2.77286197 2.76694968,1.18245713 4.72391623,1.18245713 C5.70535565,1.18245713 6.58037393,1.59040484 7.21890078,2.23484398 L5.3151448,4.13859995 L9.45374475,4.13859995 L9.45374475,0 L8.06435763,1.38938713 Z" id="path-2"></path>
        <path d="M4.72982852,6.92582033 C4.0794771,6.92582033 3.54737139,7.45792604 3.54737139,8.10827746 C3.54737139,8.75862888 4.0794771,9.29073459 4.72982852,9.29073459 C5.38017994,9.29073459 5.91228565,8.75862888 5.91228565,8.10827746 C5.91228565,7.45792604 5.38017994,6.92582033 4.72982852,6.92582033 Z M11.4867264,6.92582033 C10.836375,6.92582033 10.3042693,7.45792604 10.3042693,8.10827746 C10.3042693,8.75862888 10.836375,9.29073459 11.4867264,9.29073459 C12.1370778,9.29073459 12.6691835,8.75862888 12.6691835,8.10827746 C12.6691835,7.45792604 12.1370778,6.92582033 11.4867264,6.92582033 Z M8.10827746,6.92582033 C7.45792604,6.92582033 6.92582033,7.45792604 6.92582033,8.10827746 C6.92582033,8.75862888 7.45792604,9.29073459 8.10827746,9.29073459 C8.75862888,9.29073459 9.29073459,8.75862888 9.29073459,8.10827746 C9.29073459,7.45792604 8.75862888,6.92582033 8.10827746,6.92582033 Z" id="path-4"></path>
        <rect id="path-6" x="0" y="0" width="316" height="200"></rect>
    </defs>
    <g id="Welcome" stroke="none" stroke-width="1" fill="none" fill-rule="evenodd">
        <g id="Welcome-3" transform="translate(-30.000000, -243.000000)">
            <g id="Illustration-3" transform="translate(30.000000, 243.000000)">
                <g id="Group">
                    <path d="M0,0.320497468 L634.974557,0.320497468 C637.750033,0.320497468 640,2.57046485 640,5.34594027 L640,24.2085224 L0,24.2085224 L0,0.320497468 Z" id="Rectangle-7" fill="#DEDEDE" fill-rule="nonzero" opacity="0.560000002"></path>
                    <path d="M1.18245713,19.0526888 L1.18245713,405.71617 C1.18245713,407.675329 2.7706694,409.263542 4.72982852,409.263542 L635.270171,409.263542 C637.229331,409.263542 638.817543,407.675329 638.817543,405.71617 L638.817543,19.0526888 L1.18245713,19.0526888 Z" id="Rectangle-3" stroke="url(#linearGradient-1)" stroke-width="2.36491426" fill-rule="nonzero"></path>
                    <rect id="Rectangle" fill="#DEDEDE" fill-rule="nonzero" x="0" y="18.3539641" width="640" height="29.5614282"></rect>
                    <rect id="Rectangle-5" fill="#FCFCFC" fill-rule="nonzero" x="68.7576921" y="23.7287693" width="505.500423" height="18.811818" rx="2.36491426"></rect>
                    <path d="M0,18.4614602 L48.0916578,18.4614602 C49.0579405,18.4614602 49.9270298,17.8736029 50.2866695,16.9767409 L55.0828347,5.01616403 C55.4424744,4.11930195 56.3115637,3.53144467 57.2778464,3.53144467 L154.658543,3.53144467 C155.624825,3.53144467 156.493915,4.11930195 156.853554,5.01616403 L161.64972,16.9767409 C162.009359,17.8736029 162.878449,18.4614602 163.844731,18.4614602 L640,18.4614602 L0,18.4614602 Z" id="Path-3" stroke="#FEFEFE" stroke-width="1.18245713" fill="#FEFEFE" fill-rule="nonzero"></path>
                    <path d="M167.205833,5.8585376 C167.03745,5.8585376 166.871008,5.89450009 166.717645,5.96401875 C166.122848,6.23363758 165.859238,6.9343854 166.128857,7.52918281 L168.808868,13.4414685 C169.000491,13.8642019 169.421707,14.1357375 169.885844,14.1357375 L181.917958,14.1357375 C182.086342,14.1357375 182.252783,14.099775 182.406146,14.0302564 C183.000944,13.7606375 183.264553,13.0598897 182.994934,12.4650923 L180.314923,6.55280665 C180.1233,6.13007317 179.702084,5.8585376 179.237947,5.8585376 L167.205833,5.8585376 Z" id="Rectangle-2" stroke="#FEFEFE" stroke-width="1.18245713" fill="#FEFEFE" fill-rule="nonzero"></path>
                    <g id="ic_refresh_24px" transform="translate(47.473464, 28.512346)">
                        <mask id="mask-3" fill="white">
                            <use xlink:href="#path-2"></use>
                        </mask>
                        <use id="Shape" fill="#FCFCFC" fill-rule="nonzero" xlink:href="#path-2"></use>
                    </g>
                    <g id="Icons/49-Forward" transform="translate(22.641864, 23.782517)">
                        <g id="Forward">
                            <polygon id="Shape" points="0 0 19.257159 0 19.257159 19.257159 0 19.257159"></polygon>
                            <polygon id="Shape" fill="#FCFCFC" points="8.02381624 4.81428974 6.89245815 5.94564783 10.567366 9.62857949 6.89245815 13.3115111 8.02381624 14.4428692 12.838106 9.62857949"></polygon>
                        </g>
                    </g>
                    <g id="Icons/12-Back" transform="translate(3.722550, 23.782517)">
                        <g id="Back">
                            <polygon id="Shape" points="0 0 19.257159 0 19.257159 19.257159 0 19.257159"></polygon>
                            <polygon id="Shape" fill="#FCFCFC" points="12.3647008 5.94564783 11.2333427 4.81428974 6.41905299 9.62857949 11.2333427 14.4428692 12.3647008 13.3115111 8.68979299 9.62857949"></polygon>
                        </g>
                    </g>
                    <circle id="Oval-2" stroke="#FEFEFE" stroke-width="1.18245713" fill-rule="nonzero" cx="11.7827669" cy="9.81001479" r="3.54737139"></circle>
                    <circle id="Oval-2" stroke="#FEFEFE" stroke-width="1.18245713" fill-rule="nonzero" cx="25.9722524" cy="9.81001479" r="3.54737139"></circle>
                    <circle id="Oval-2" stroke="#FEFEFE" stroke-width="1.18245713" fill-rule="nonzero" cx="40.161738" cy="9.81001479" r="3.54737139"></circle>
                    <g id="Icons/73-More" transform="translate(626.124985, 33.134678) rotate(90.000000) translate(-626.124985, -33.134678) translate(618.062777, 25.072471)">
                        <g id="More">
                            <polygon id="Shape" points="0 0 16.2165549 0 16.2165549 16.2165549 0 16.2165549"></polygon>
                            <mask id="mask-5" fill="white">
                                <use xlink:href="#path-4"></use>
                            </mask>
                            <use id="Shape" fill="#1B1D22" xlink:href="#path-4"></use>
                        </g>
                    </g>
                    <g id="Connected" transform="translate(584.738985, 23.191289)">
                        <rect id="Background" x="0" y="0" width="19.3492985" height="19.3492985"></rect>
                        <rect id="Rectangle-5" fill="#DDDDDD" fill-rule="nonzero" x="0.268740257" y="0.537480514" width="18.811818" height="18.811818" rx="2.36491426"></rect>
                        <path d="M9.67464924,3.22488308 C13.2367118,3.22488308 16.1244154,6.11262742 16.1244154,9.67464924 C16.1244154,13.2366711 13.2367118,16.1244154 9.67464924,16.1244154 C6.11258672,16.1244154 3.22488308,13.2366711 3.22488308,9.67464924 C3.22488308,6.11262742 6.11258672,3.22488308 9.67464924,3.22488308" id="Fill-1" fill="#C9252B"></path>
                        <polygon id="Fill-3" fill="#FFFFFF" points="12.2724717 6.23477396 10.6958622 11.1795947 10.6600302 11.1795947 9.45965704 7.57847524 5.46438522 7.57847524 5.46438522 8.51010813 8.24136788 8.51010813 8.49219211 9.2088328 6.14519387 9.2088328 6.14519387 10.1225497 8.81468042 10.1225497 9.02967263 10.6958622 5.41063717 10.6958622 5.41063717 11.6274951 9.35216094 11.6274951 9.87172543 13.0786925 11.3766709 13.0786925 13.8132492 6.23477396"></polygon>
                        <rect id="Badge-bg" stroke="#F2F2F2" stroke-width="0.80622077" fill="#45B649" x="9.0027986" y="10.0777596" width="9.67464924" height="9.67464924" rx="0.80622077"></rect>
                        <text id="✓" font-family="LucidaGrande-Bold, Lucida Grande" font-size="7.25598693" font-weight="bold" fill="#FFFFFF">
                            <tspan x="10.7990149" y="17.48087">✓</tspan>
                        </text>
                    </g>
                </g>
                <rect id="Rectangle" fill="#F7F7F7" x="0" y="54" width="640" height="120"></rect>
                <g id="Group-3" transform="translate(0.000000, 182.000000)">
                    <mask id="mask-7" fill="white">
                        <use xlink:href="#path-6"></use>
                    </mask>
                    <use id="Rectangle-Copy" fill="#F7F7F7" xlink:href="#path-6"></use>
                    <path d="M154.730675,127.04017 C156.467451,128.391657 156.980068,130.569804 156.523558,132.175821 C156.064499,133.777334 154.881145,136.101892 156.559263,138.960287 C158.237381,141.81643 157.84718,143.332349 158.872414,145.174876 C159.892546,147.021909 158.956575,148.868941 161.825698,147.557999 C164.697371,146.247056 165.15388,147.812529 168.392801,144.474355 C171.631723,141.133929 169.328773,142.618313 169.810786,141.64299 C170.287698,140.665414 172.792123,142.226382 171.955615,139.126971 C171.119106,136.02756 176.898157,134.554439 176.22742,131.290597 C175.559233,128.033513 175.6893,130.621611 175.561783,128.896212 C175.436817,127.168561 174.322322,128.459232 177.222049,125.42289 C180.119226,122.391054 183.467811,120.591323 184.118146,117.611294 C184.76593,114.631264 180.721104,117.518942 179.400032,117.685626 C178.086612,117.852309 176.887956,114.338442 175.429166,114.119952 C173.967826,113.901461 175.61279,113.455471 174.684469,112.563489 C173.758699,111.676012 174.197356,110.761506 173.276686,109.788435 C172.363668,108.810859 170.295349,106.234024 169.971457,104.992908 C169.650115,103.751792 170.708502,106.587663 171.583266,105.583057 C172.452929,104.580704 171.802595,106.481796 173.564874,108.123853 C175.322052,109.76591 173.84541,110.072248 175.546481,110.930442 C177.242452,111.790889 178.129967,116.512084 179.494395,115.973742 C180.858822,115.433147 186.344585,113.21896 186.594518,113.189678 C186.84445,113.162648 187.658006,112.466632 187.826328,112.1648 C187.9972,111.865221 188.328743,112.112993 188.736796,111.824676 C189.1525,111.540864 188.07371,110.921432 189.063239,110.725466 C190.055318,110.527248 189.53505,108.97529 189.111695,108.542814 C188.693441,108.108086 187.239752,108.148631 187.221899,106.968332 C187.209148,106.080855 184.245662,109.630762 182.715464,107.035906 C181.667277,105.249691 180.466071,104.393749 181.481103,104.094169 C181.53466,104.078402 181.799895,103.582856 182.355867,103.972535 C182.542041,104.105431 184.758279,107.252144 186.324183,106.432242 C187.890086,105.61234 187.045927,106.934545 189.558003,107.274669 C192.07263,107.617046 194.296519,107.2116 195.051417,107.662095 C195.811416,108.110339 195.803765,108.587864 196.14551,108.463978 C196.492355,108.340091 197.112085,109.000068 197.790473,108.905464 C198.461211,108.813112 196.081751,110.079005 197.99705,110.540763 C199.912349,110.998016 199.560404,108.522542 199.460941,109.997916 C199.361478,111.473289 201.942413,119.59798 203.778652,119.100182 C205.617441,118.59788 205.38026,114.097427 205.954085,113.923986 C206.527909,113.752798 209.802535,111.290839 209.863743,110.349302 C209.922401,109.405514 212.602799,110.581308 212.360518,109.076652 C212.110585,107.576501 213.446959,110.353807 214.22481,110.750244 C215.007762,111.144427 214.449239,111.088115 214.630313,111.351655 C214.811386,111.615195 215.930982,111.775121 215.576486,113.212203 C215.22709,114.647032 217.239302,113.541065 217.458631,112.802252 C217.670308,112.061186 219.233661,116.527852 219.057689,118.023497 C218.879165,119.516891 220.174734,119.2984 220.506277,120.593576 C220.842921,121.884246 222.83473,124.294398 223.495265,123.611897 C224.160902,122.929396 223.68399,122.244643 223.120367,122.571252 C222.556743,122.900114 222.844931,121.17021 221.68708,120.3886 C220.534331,119.60699 219.210708,119.755654 219.511648,117.575254 C219.812587,115.388097 220.330304,115.804806 220.628693,116.012034 C220.927082,116.223767 221.582517,116.156193 221.977818,116.340896 C222.37312,116.525599 221.641174,117.410823 222.793924,117.47164 C223.946674,117.536962 223.250434,119.156494 224.727076,118.030255 C225.06627,117.775725 227.937943,114.833988 224.742378,112.786484 C222.495535,111.351655 225.734457,108.862666 226.048147,109.236578 C226.364388,109.614994 226.292979,110.164599 227.968547,109.522643 C229.644115,108.887444 228.340895,108.840142 229.473243,109.027097 C230.600489,109.216306 232.441829,107.743184 232.673909,107.103481 C232.905989,106.468282 233.061559,106.560633 232.99015,105.610087 C232.91619,104.661794 234.369879,104.236075 234.074041,103.711248 C233.775652,103.18642 233.255384,102.731419 233.898068,102.269661 C234.543302,101.805651 233.071761,100.456416 232.347466,99.4698301 C231.618072,98.4809919 231.041697,98.4990117 232.036326,97.6408173 C233.030955,96.7826229 234.252564,96.6294544 232.610151,96.5596275 C230.962636,96.4920532 231.804246,96.2825726 231.291629,96.9695786 C230.781563,97.6588371 230.580087,96.5213354 230.53163,96.4109639 C230.483174,96.3005925 228.98868,95.7735124 229.567605,95.3049969 C230.14653,94.8364813 230.289349,95.3252692 230.444919,94.7238573 C230.597939,94.120193 231.995521,93.174152 232.413775,93.809351 C232.824378,94.4422975 232.148541,93.7913311 232.038876,94.4580648 C231.926662,95.1225461 232.018474,95.3748237 232.849882,94.8094515 C233.68384,94.2463318 234.002632,94.599971 234.517799,94.7891792 C235.032966,94.9783874 234.790684,96.1294041 235.101824,96.2577954 C235.405314,96.3861867 236.542762,96.6362118 236.361688,96.8569547 C236.183165,97.0731927 236.575916,97.2331187 236.688131,97.7309165 C236.800345,98.2264618 236.318333,98.9450025 238.22088,98.6859675 C240.115776,98.4269324 236.45095,95.1811105 236.254574,94.7531396 C236.058199,94.3251686 235.497126,94.1517277 236.499406,94.0819009 C237.494035,94.0075691 237.037526,93.1448697 236.792694,93.6516775 C236.545312,94.1607376 236.343836,93.5097713 236.619272,93.2710085 C236.894708,93.0322458 237.596049,93.4669742 237.290009,92.6583343 C236.98907,91.8519469 237.514438,90.8248166 238.305041,90.680658 C239.103295,90.5364993 239.343026,92.3992993 241.135909,88.3673623 C242.931342,84.3376778 241.370539,82.8645567 241.268526,80.8283159 C241.166513,78.7965801 238.919671,77.6095238 238.315242,78.6321492 C237.713364,79.6502696 234.701422,79.9678691 237.111486,74.9718712 C239.521549,69.9736209 244.104495,70.7529785 244.050938,70.9129045 C243.997381,71.0728305 243.517919,71.6404551 244.354427,71.282311 C245.188386,70.9219144 244.617112,70.8836223 244.810937,70.8475826 C245.007312,70.811543 245.711204,70.9849838 245.685701,70.5232257 C245.657647,70.0614675 244.37228,70.6245872 244.905299,69.268595 C245.435768,67.9126028 245.346506,66.8922299 246.325834,66.6084176 C247.302611,66.3223528 246.262075,67.2503741 246.769591,66.8133932 C247.277107,66.3809173 246.394693,66.723294 247.292409,67.5296814 C248.190126,68.3360688 248.060059,67.094953 248.498716,66.4507441 C248.939924,65.8065352 249.113346,66.7863634 248.549723,65.7231935 C247.980999,64.657771 249.508648,64.5000975 249.493346,64.8514842 C249.480594,65.2028709 248.980729,65.3470295 249.592809,66.5318333 C250.199787,67.7166372 249.368379,68.0815387 249.105695,69.6605263 C248.843011,71.2372614 248.878716,71.8904803 248.544622,73.2509774 C248.210529,74.6114746 251.031196,78.0374948 251.742738,79.8912848 C252.45173,81.7428223 253.44891,80.3778202 252.83683,78.9947983 C252.224751,77.6072713 253.902869,78.6028669 252.9873,77.3842759 C252.06663,76.1634325 254.280318,75.9291747 253.413205,75.1971191 C252.551193,74.4695684 252.747569,72.9333779 252.997501,73.4401857 C253.242333,73.9469934 253.637634,73.2735022 253.130118,72.7058776 C252.622602,72.1405054 252.533341,72.8545412 252.438979,72.2981789 C252.349717,71.7395642 253.344346,72.1787976 252.474683,71.5413461 C251.597369,70.8993896 251.783543,72.0504063 250.824619,69.056862 C249.868244,66.0655702 251.077101,68.8338666 251.594819,68.3901283 C252.115086,67.950895 253.094414,66.3809173 254.435888,67.2976761 C255.777363,68.214435 254.882196,64.6420037 256.509308,63.0630161 C258.128768,61.486281 258.610781,62.7837087 257.562595,61.4502413 C256.516959,60.1190264 256.269577,61.1799438 256.267026,61.1776914 C256.267026,61.1776914 254.446089,60.6168242 253.83401,59.9500905 C253.224481,59.2833567 253.038306,59.6888029 253.961526,59.3013766 C254.882196,58.9162027 255.823269,58.66843 255.251994,57.1119672 C254.68072,55.5555044 254.407835,57.6210274 254.234412,56.451991 C254.06354,55.285207 255.412665,56.7988727 255.665148,56.6502091 C255.917631,56.5083029 255.731457,55.4135983 256.578167,55.7131779 C257.417226,56.0105051 256.896958,56.6997636 257.787024,56.0217675 C258.67709,55.3392665 259.664068,56.339367 258.396553,55.2716921 C257.129038,54.2062696 257.710514,53.8391156 257.973198,53.3773575 C258.233332,52.9178518 258.095614,52.9538915 258.021654,52.7173812 C257.945144,52.4831234 257.641655,52.0709198 256.226221,51.6452013 C254.882196,51.2397551 255.999241,51.728543 255.318303,52.0844347 C254.706223,52.4110441 257.223401,53.9337197 255.871725,53.6476549 C254.517499,53.3615901 254.690921,52.1384942 251.673879,51.9335186 C248.659387,51.733048 246.578317,51.2893097 245.132279,51.676736 C243.68369,52.0596574 242.648256,52.0641624 243.749999,52.8457725 C244.859393,53.6296351 245.461271,53.3458228 245.078722,53.9945366 C244.696172,54.6387456 242.523289,53.2940158 242.52839,53.1273323 C242.536041,52.9583964 242.926242,53.4539417 243.012953,53.0237183 C243.102215,52.5957473 242.497786,51.9808206 242.061679,52.5619602 C241.625573,53.1430997 242.201948,53.8481255 240.192286,53.7490165 C240.036716,53.7400065 238.904369,54.3639432 238.503967,54.5666662 C237.231351,55.1996128 236.494306,51.6429488 233.255384,53.5260211 C230.013913,55.4068408 232.250554,54.0193139 231.572166,53.6701797 C230.888677,53.323298 230.689751,53.9044375 230.307201,53.8841652 C229.924651,53.8661454 230.169483,53.2624811 229.860893,53.6701797 C229.552303,54.0778784 229.746128,53.2174315 229.60841,53.2016641 C229.468142,53.1836443 228.445459,53.5665657 229.399283,52.8885696 C230.353107,52.208321 227.76197,52.0889396 227.279958,52.5867374 C226.800495,53.0867877 227.37687,54.1612201 226.920361,54.1049081 C226.461301,54.0485961 223.68399,51.6654736 222.952045,52.8457725 C222.217549,54.0260713 223.714594,53.003446 223.737547,53.2782484 C223.75795,53.5507983 222.490435,54.3842155 223.309091,54.1724825 C224.127748,53.9630019 223.026004,53.8391156 223.959426,54.7806517 C224.895398,55.7244403 222.350167,54.5914435 223.37795,55.6388461 C224.403184,56.6862487 221.651376,55.3685487 221.579966,56.1479063 C221.511107,56.9250115 220.14923,55.6591184 219.776882,55.6906531 C219.404534,55.7221878 220.488425,57.5196659 220.394062,57.8192456 C220.29715,58.1188252 218.017153,57.1119672 218.415005,56.5398376 C218.812857,55.967708 218.394602,57.026373 217.545342,56.5263228 C216.690981,56.02402 218.182925,56.4114463 217.741717,55.7875097 C217.30051,55.1635731 217.109235,55.6748858 216.956215,55.5509995 C216.798095,55.4271131 217.420376,55.4586478 216.543062,54.6545129 C215.668298,53.8526305 214.778232,54.5013444 214.625212,54.5081018 C214.477293,54.5193642 214.117696,53.6927045 213.230181,54.2625816 C212.342665,54.8324587 214.548702,55.0577066 212.730316,55.76048 C210.906829,56.4655058 210.274347,55.1162711 209.748978,55.2649347 C209.22361,55.4158507 207.882136,55.5690193 207.736767,55.8798614 C207.588847,56.1929559 208.703342,56.819145 207.769921,56.3235997 C206.833949,55.8258019 207.328714,55.8325593 206.770191,55.8776089 C206.211668,55.9226585 205.250193,55.2581772 205.178784,55.9632031 C205.107375,56.6682289 205.665897,56.6727339 205.211938,57.4633539 C204.752879,58.253974 204.895697,58.7202371 204.22496,58.2674888 C203.556773,57.8169931 205.53328,53.2016641 205.382811,52.8750547 C205.232341,52.5484453 204.497846,52.9831737 204.571805,52.4786184 C204.640664,51.9740632 205.410864,52.8975795 204.398383,51.6159191 C203.388451,50.3365112 203.735296,51.8208947 202.383621,50.777997 C201.034495,49.7373518 200.756509,51.0820816 200.723355,51.309582 C200.6851,51.5438398 201.363488,50.773492 200.970737,51.9335186 C200.577986,53.0935451 200.412214,51.0302746 200.167383,50.8703486 C199.91745,50.7149276 198.642284,51.4627505 198.417855,51.2397551 C198.193426,51.0190122 199.356377,50.1518079 197.754769,50.0099017 C195.38041,49.7981687 198.902418,53.0507481 198.134768,53.1971592 C196.438798,53.5260211 197.333964,53.3998823 197.576246,53.63414 C197.818527,53.8683978 197.726715,54.2625816 197.476783,54.2085221 C197.22685,54.1544626 197.400273,53.2827534 196.793294,53.6589173 C196.191416,54.0373337 195.872624,54.6680278 195.655846,54.6027059 C195.441618,54.5328791 196.153161,54.3887204 195.668598,54.0711209 C195.184035,53.7490165 193.630883,54.8347112 194.45974,54.7423596 C195.288598,54.650008 191.348336,56.6141694 191.99867,56.762833 C192.651555,56.9137491 190.800015,57.4273143 191.91706,57.9206071 C193.029004,58.4138999 192.082831,57.5151609 192.011422,58.0760281 C191.940013,58.6391478 193.391152,58.3328107 193.383501,58.7833065 C193.37585,59.2338022 193.000951,59.0310791 192.909139,59.3329113 C192.817327,59.6347434 193.309541,59.4793224 193.210078,59.679793 C193.113165,59.8825161 192.814777,59.7451149 192.751018,59.4838274 C192.68726,59.2180349 193.268736,58.828356 193.029004,58.7495193 C192.791824,58.66843 188.423106,60.2406602 191.733436,61.5425929 C195.048867,62.8445256 193.294239,65.4731683 195.066719,64.9123011 C196.84175,64.3491814 195.676249,67.0251262 194.010882,64.8987863 C193.554373,64.3153943 193.477863,64.0766315 193.431957,63.9865324 C193.07491,63.2927689 192.975447,65.6736389 192.850481,63.8739084 C192.725515,62.0764304 191.955315,62.7589314 190.397062,61.9277668 C188.84391,61.0966021 188.718944,62.3895249 189.045387,62.3512328 C189.374379,62.3106882 189.940553,62.6192778 189.626862,62.8152434 C189.315722,63.0112091 188.050757,61.9457866 188.410354,62.7656889 C188.769951,63.5855911 190.682699,63.5630664 190.708203,63.9414828 C190.738807,64.3198992 188.504716,63.8558886 188.369549,63.4977445 C188.234381,63.1418528 187.627402,61.3443748 187.283107,61.5921475 C186.941363,61.8421726 187.872234,62.1552671 187.558543,62.7319017 C187.242302,63.3085363 186.933712,62.8670504 187.260154,63.8964332 C187.591698,64.930321 188.481763,63.288264 188.389951,65.142054 C188.290488,66.995844 191.514107,66.2322537 191.894107,67.4418348 C192.475582,69.2731 192.618401,67.6625777 192.748468,68.3495837 C192.814777,68.7302526 192.263905,69.4307735 191.697731,68.162628 C191.131558,66.8944824 188.989279,66.8246556 189.631963,67.734657 C190.272096,68.6446584 190.116526,70.858845 188.124717,70.5412455 C187.076531,70.3768146 187.30606,69.9578535 187.780422,69.9938932 C188.474112,70.0434477 189.682969,70.2101311 188.058408,66.5183185 C187.390221,65.0091577 186.61237,64.1036613 186.474652,62.8895752 C186.336934,61.6777416 185.553983,61.7520734 184.753178,61.8264052 C183.947274,61.8984846 184.393582,60.8330621 184.209958,61.745316 C184.026334,62.6553174 184.495595,63.7297498 183.99318,64.3176467 C183.490764,64.9055437 184.577206,66.511561 184.781232,66.8088882 C184.985259,67.1107204 185.928881,67.1400026 186.400693,67.4981467 C186.867403,67.8517859 186.584317,68.3811184 186.331834,68.5004998 C186.079351,68.6198811 185.658546,67.8675532 185.15103,67.7256471 C184.643514,67.5837409 181.366338,66.3854222 181.103654,66.8584428 C180.84097,67.3337158 179.639764,65.6083171 179.593858,66.3786648 C179.563254,66.939532 182.432377,68.6356485 180.749158,69.0163174 C180.6854,69.0298323 180.812916,68.8293617 180.695601,68.3473312 C180.417615,67.2233443 177.635203,69.7618879 177.413324,69.2483227 C177.183794,68.7347576 178.293189,67.9261177 177.296009,68.4554502 C176.788493,68.7257476 176.714533,69.221293 176.704332,69.2122831 C176.263125,68.9127034 175.319502,69.8790168 174.906348,69.955601 C174.488094,70.0321853 175.240442,70.1335469 175.115475,70.2371609 C174.990509,70.3407749 174.712523,70.0209229 174.480443,70.3092402 C174.250913,70.5975575 174.942053,71.8814704 173.434807,71.3048358 C171.925011,70.7282013 175.033865,70.0389428 172.947694,69.3339169 C170.864073,68.6266386 172.088232,70.1110221 172.098433,70.9759739 C172.108635,71.8409258 173.592927,72.1134757 172.628902,72.3837731 C171.664877,72.6563231 172.213198,71.4760242 170.721254,72.4806297 C169.234411,73.4829828 170.394812,74.2938751 168.482063,73.5550621 C166.569314,72.8139966 168.07146,74.0798896 168.53817,74.3907317 C169.007431,74.6993213 169.657766,74.2398156 169.374679,74.989891 C169.096693,75.7399665 166.992669,74.2938751 167.023273,73.4311757 C167.056428,72.5707289 165.064619,71.705777 165.347705,71.5255787 C165.625692,71.3453804 165.087572,71.7328068 167.637903,72.3725107 C170.185684,73.0144672 169.137498,69.5141152 166.941663,68.8699063 C164.748378,68.2279498 165.850121,68.73701 165.709853,68.8203518 C165.564484,68.9036935 159.594157,66.7570812 159.492144,68.318049 C159.390131,69.8767643 158.69389,68.2684945 158.280737,68.6063663 C157.870133,68.9419856 158.191475,68.6942129 157.791073,68.4689651 C157.390671,68.2414647 157.719664,68.8113418 157.367718,68.6716882 C157.013222,68.529782 157.247852,68.1513656 156.885705,68.5793365 C156.521008,69.005055 155.396312,69.372209 156.146109,69.5006003 C156.895907,69.6267391 155.61309,70.1493142 155.684499,70.3205026 C155.758459,70.4894385 155.46007,71.8071386 154.881145,71.9062476 C154.30477,72.0098617 154.360877,72.9401354 154.335374,73.0054573 C154.30732,73.0730316 153.715643,72.2238471 153.886515,73.0752841 C154.054837,73.9289735 151.713633,75.9719718 152.318061,76.1003631 C152.91994,76.2265019 153.565174,75.3232579 152.907188,76.2467742 C152.251753,77.1725429 151.399942,75.1227873 151.501955,76.5486063 C151.603969,77.9721729 148.966926,78.7672979 149.405583,80.1660872 C149.84169,81.567129 149.601958,80.024181 150.112025,80.2742062 C150.622091,80.5219788 149.270415,81.407203 150.897527,81.6955203 C152.524638,81.9838375 151.940612,80.9522023 152.61135,80.7089346 C153.282087,80.4701718 153.044906,80.024181 153.728395,81.8982434 C154.409333,83.7745581 154.46289,82.7744576 154.664367,83.0875521 C154.868393,83.4028992 153.695241,83.7745581 154.705172,84.0831477 C155.715103,84.3894848 155.222889,83.5448053 156.416444,83.4524537 C157.609999,83.3623545 156.699531,81.299084 156.888256,81.031039 C157.07443,80.7607416 158.176173,80.8846279 157.857382,80.3507905 C157.53859,79.816953 159.627312,81.3644059 157.887986,79.393487 C156.148659,77.4225681 159.219259,76.1431602 159.260064,74.7849155 C159.30342,73.4244183 158.630132,73.0032048 160.670397,73.3298142 C162.708112,73.6519187 160.882075,74.7939254 160.132277,75.5642731 C159.38503,76.3323684 159.606909,76.1183829 159.124896,76.0755858 C158.642884,76.0372937 159.247312,78.3032873 159.545701,78.8393772 C159.84664,79.3754672 160.517377,79.233561 160.866773,79.6660369 C161.216168,80.1007653 163.886366,78.8033376 164.404083,78.9249714 C164.91925,79.0488577 164.909048,78.4609608 165.039115,79.3146502 C165.169182,80.1660872 160.882075,80.0376959 161.399792,80.9544548 C161.91751,81.8734661 161.99657,81.3148514 161.909859,81.5265844 C161.828248,81.7428223 162.162341,82.5109176 161.53496,82.5447048 C160.910129,82.5829969 160.619391,81.0648262 160.053217,82.4883928 C159.487044,83.9164643 161.807845,84.8309707 159.84154,84.7633963 C157.872684,84.6935695 159.193755,85.0764909 158.418455,84.8872827 C157.643154,84.695822 158.714293,83.8466375 156.875504,84.954857 C155.034165,86.0608241 155.403963,84.851243 155.036715,84.7633963 C154.666917,84.6778021 153.807455,85.590056 153.287187,85.3400309 C152.76947,85.0900057 152.351216,84.2205489 152.295108,83.9795337 C152.244102,83.7452759 153.197926,83.4569586 153.396852,83.2474781 C153.598328,83.0379976 152.861282,83.1461166 152.853631,82.8307696 C152.84853,82.5154225 153.509066,82.4027986 153.047456,82.037897 C152.585846,81.6775004 151.751888,82.78572 152.032424,83.0875521 C152.30786,83.3871318 151.575915,83.04926 151.647324,83.5673301 C151.713633,84.0831477 152.07323,85.4526548 151.596318,85.8761208 C151.121956,86.2995868 151.267325,85.4549073 150.928131,85.749982 C150.665447,85.9797348 151.346385,86.0743389 151.359137,86.2275075 C151.361687,86.281567 151.165312,86.3468889 150.956184,86.2725571 C150.140078,85.9752299 146.992969,89.2841212 145.641293,89.9666222 C144.287067,90.6513758 143.325592,89.5882058 143.634182,90.3495436 C143.945323,91.1086289 143.572974,90.520732 143.84586,90.6919204 C144.118745,90.8631088 144.881295,90.7189501 145.143979,91.2527876 C145.409213,91.7888775 145.016462,91.1897182 145.832568,91.9105114 C146.643574,92.6313046 146.120756,92.370017 145.860622,92.6042748 C145.600488,92.8340277 146.00089,93.7778163 145.523978,94.2080397 C145.047066,94.6360107 144.929751,94.2057872 144.450289,94.1629901 C143.970826,94.1224455 144.521698,94.0458612 143.84841,94.1269505 C143.175123,94.2057872 142.976197,94.0233364 142.629352,93.9850443 C142.279956,93.9422472 142.435527,94.0233364 142.035125,94.016579 C141.634722,94.0075691 141.782642,93.9107125 141.397542,93.9219749 C141.009891,93.9309848 141.150159,94.1292029 140.963985,94.2530893 C140.777811,94.3792281 140.492174,94.0909108 140.369758,94.3251686 C140.242241,94.5616789 140.400362,94.5053669 140.561033,94.7801693 C140.721704,95.0594767 140.634993,94.5796987 140.594187,95.1743531 C140.550832,95.77126 140.61204,96.5934147 140.413114,97.0619303 C140.211637,97.5304459 140.38251,97.1362621 140.362107,97.1745542 C140.341704,97.2105939 140.334053,97.2286137 140.272845,97.3389852 C140.214188,97.4471041 140.056067,97.4786388 140.096873,97.7219065 C140.140228,97.9651743 139.961705,97.6655946 140.425865,97.7399264 C140.890026,97.8120057 140.163181,97.7556937 140.265194,98.0372536 C140.369758,98.3188134 140.553382,98.048516 140.545731,98.420175 C140.53808,98.7940864 140.122376,99.0373541 140.433516,99.1319582 C140.739556,99.2265623 140.629892,99.0936661 140.986938,99.1252008 C141.341434,99.158988 141.040495,98.9855471 141.662776,99.0531215 C142.287607,99.1206958 142.267205,99.8324791 142.744117,99.9113159 C143.221029,99.9901526 143.504116,99.4135181 143.866263,99.3572061 C144.23096,99.3008941 145.100623,99.6184937 145.327603,99.3797309 C145.552032,99.1454731 145.748407,99.3211665 146.161561,98.8413885 C146.572164,98.359358 146.735386,98.1656449 146.758339,97.8818325 C146.781292,97.5957677 146.314581,97.3817823 146.523708,97.0551728 C146.735386,96.7263109 147.013372,96.5596275 147.209747,96.3321272 C147.406123,96.1046268 146.890956,96.2375231 147.589747,96.0348 C148.291088,95.8298244 148.510416,95.7509876 148.61753,95.0166796 C148.724644,94.280119 148.783302,94.2125447 149.068939,94.0954158 C149.354576,93.9760344 148.696591,94.0886583 149.53565,94.1787575 C150.377259,94.2666042 150.642494,94.5594264 151.091352,94.1607376 C151.542761,93.7643014 151.137258,93.9467522 151.489204,93.8791778 C151.841149,93.8161084 151.84625,93.7665539 152.101283,93.5503159 C152.356316,93.3340779 152.172693,93.3002908 152.792423,93.4827415 C153.409603,93.6696973 153.575375,94.3972479 154.161951,94.868016 C154.748527,95.3410365 154.161951,94.8477437 154.406783,95.0482143 C154.654165,95.2509374 154.733225,95.503215 155.15403,95.7374728 C155.574835,95.9672256 155.579936,95.606829 155.965036,95.9920029 C156.350136,96.3794292 156.737786,96.56188 156.939262,96.6745039 C157.143289,96.7893803 157.260604,96.7488357 157.426376,96.9357915 C157.594698,97.1249997 157.699261,97.6070301 157.681409,97.784976 C157.658456,97.9629218 157.291208,98.6454228 157.676308,98.5530712 C158.063959,98.4584671 157.712013,98.5891109 157.862482,98.4179225 C158.012952,98.2467341 158.066509,98.0034664 158.15067,97.8705701 C158.237381,97.7354214 158.079261,97.9831941 158.188925,97.8232681 C158.296039,97.6588371 158.23228,97.4561141 157.974697,97.0957175 C157.714563,96.7353209 157.673758,96.5303453 158.242482,96.4898007 C158.816306,96.4447511 158.806105,97.0033658 159.129997,96.985346 C159.453889,96.9695786 159.673218,96.8051477 159.252413,96.5258403 C158.826508,96.246533 157.92114,95.9379434 157.490134,95.8208145 C157.059128,95.7036856 158.454159,95.6180914 157.548792,95.3613088 C156.643424,95.1022738 156.169062,94.6112334 155.799264,94.2147971 C155.426916,93.8206134 155.179533,93.7980886 154.955104,93.6223952 C154.730675,93.4467019 154.774031,93.3948949 154.77148,93.1786569 C154.76638,92.962419 154.506246,92.7754632 154.743427,92.6042748 C154.975507,92.430834 155.278996,92.3024427 155.618191,92.3655121 C155.957385,92.4285815 155.442218,92.9263793 155.852821,93.1336073 C156.263424,93.3408354 156.100203,92.6605868 156.278726,92.6695967 C156.4598,92.6808591 159.094292,94.7824218 159.1555,94.8252189 C159.214158,94.8657635 158.99483,94.6720503 159.242212,94.8927932 C159.484493,95.1180411 159.5406,94.9873973 159.933352,95.5189823 C160.323552,96.0528198 159.604359,96.3433896 159.884895,96.6992812 C160.162881,97.0551728 160.208787,96.8839845 160.502075,97.305198 C160.795364,97.7264115 160.935632,97.724159 161.203417,97.728664 C161.471201,97.7309165 161.397242,97.7984908 161.517107,97.6971293 C161.631872,97.6002727 161.838449,97.3682674 161.912409,97.6002727 C161.988919,97.832278 161.631872,97.3299752 161.639523,97.9561643 C161.644624,98.5823534 162.404623,97.5011636 162.447978,97.4718814 C162.496435,97.4425992 162.69026,97.568738 162.606099,97.408812 C162.527039,97.248886 161.879255,96.618192 162.246502,96.3839342 C162.6112,96.1496764 162.328113,96.929034 162.754018,96.7555932 C163.177373,96.5844048 163.019253,97.0168807 163.105964,96.8321774 C163.187575,96.6452217 163.162071,96.6069296 163.098313,96.4988106 C163.034555,96.3884391 162.514287,96.6069296 162.947843,96.3050974 C163.37885,96.0055177 162.960595,96.1519289 163.871064,96.0933644 C164.776431,96.0370524 164.618311,96.0730921 164.911599,96.3118549 C165.207437,96.5528701 164.852941,96.5303453 164.827438,96.6226969 C164.804485,96.7150485 164.697371,97.0101233 164.705022,97.1745542 C164.707572,97.2398761 164.84529,97.2038364 164.993209,97.2601484 C165.136028,97.3164604 165.248243,97.201584 165.197236,97.3525 C165.14878,97.5056686 165.30435,97.5507182 165.232941,97.8548028 C165.161531,98.1588874 165.187035,97.9651743 165.082471,98.048516 C164.975357,98.1296052 164.855492,97.8750751 164.888646,98.1949271 C164.92435,98.519284 165.363007,98.363863 165.475222,98.5891109 C165.592537,98.8166112 165.370658,99.1161909 165.663947,99.427033 C165.962335,99.737875 166.523408,99.2198049 166.814146,99.4698301 C167.109985,99.7176027 167.245152,99.8077019 167.941393,99.690573 C168.913069,99.5238895 167.168642,99.3346813 168.117366,99.3053991 C168.834009,99.2828743 169.491994,100.028445 170.300449,99.74238 C171.103804,99.4563152 170.596288,99.370721 170.879375,99.2783694 C171.15481,99.1882702 171.121656,99.3639636 171.420045,99.366216 C171.720984,99.366216 171.624072,98.9044579 171.942863,99.2310673 C172.261654,99.5576767 171.84595,99.3774784 171.810246,99.9068109 C171.779642,100.429386 171.947964,100.388841 171.886756,100.728966 C171.830648,101.066837 171.871454,100.785278 171.782192,101.192976 C171.695481,101.600675 171.397092,101.825923 171.264475,102.373275 C171.129307,102.920627 171.208367,102.956667 170.902328,103.184168 C170.601389,103.41392 170.241792,103.398153 169.527699,103.355356 C168.813606,103.314811 169.270115,103.235975 168.992129,103.170653 C168.716694,103.105331 168.818707,103.157138 168.693741,103.15939 C168.568774,103.166148 169.211458,103.064786 168.209178,103.184168 C167.204347,103.301296 164.179654,103.233722 163.026904,102.612038 C161.874154,101.988101 162.254153,102.14127 161.585966,102.258399 C160.91778,102.37778 161.032544,102.371023 160.879525,102.494909 C160.723954,102.621048 160.583686,102.866568 160.629592,103.136865 C160.678048,103.409415 161.103954,103.130108 160.726505,103.776569 C160.351606,104.420778 159.109594,103.533302 158.46181,103.418425 C157.814026,103.303549 158.183824,103.576099 157.69416,103.326074 C157.207047,103.071544 157.640603,102.666097 156.753088,102.416072 C155.863022,102.1683 155.485573,102.44085 154.837789,102.145775 C154.190005,101.852953 154.327723,101.934042 154.006381,101.834933 C153.685039,101.735824 153.450409,101.357407 153.988529,100.974486 C154.526649,100.589312 153.993629,99.1837653 153.432556,99.0643839 C152.871483,98.9495075 153.042356,99.20629 152.519538,99.3414388 C151.99927,99.474335 151.38209,99.046364 150.652695,99.3481962 C149.92075,99.6522808 149.76773,99.2153 148.660886,99.5036172 C147.548941,99.794187 145.830018,100.607332 145.274046,100.632109 C144.718073,100.656886 143.61378,100.228915 142.914989,100.084757 C142.216198,99.9405981 142.371768,101.238026 141.550562,101.629957 C140.729355,102.017384 141.160361,101.810155 140.609489,102.14127 C140.058618,102.472384 140.494724,102.449859 140.117275,102.95892 C139.739826,103.46798 139.706672,103.012979 139.841839,103.999565 C139.974457,104.986151 138.301439,105.443404 137.931641,105.641622 C137.561843,105.83984 138.252983,105.61234 137.931641,105.641622 C137.610299,105.670904 134.338224,109.414524 134.338224,109.817717 C134.338224,110.220911 134.292318,110.058733 134.407083,110.511481 C134.521848,110.959724 134.901847,111.464279 134.901847,112.196335 C134.901847,112.930643 134.881444,113.128861 134.634062,113.480248 C134.38413,113.833887 133.636883,115.428642 134.213258,116.061588 C134.789633,116.694535 136.375939,117.784735 136.886005,118.755553 C137.396071,119.733129 138.53607,120.65214 139.331773,120.843601 C140.130027,121.041819 142.364117,122.080212 143.085861,121.564394 C143.810155,121.044071 144.950154,121.422488 145.529079,121.519345 C146.110554,121.620706 146.370688,121.348156 146.896057,121.073354 C147.426526,120.798551 147.592297,120.845853 148.148269,120.854863 C148.701691,120.866126 149.336724,121.598181 149.867193,121.823429 C150.397662,122.050929 151.31068,122.050929 151.940612,122.222118 C152.570544,122.393306 152.993899,123.271773 153.496315,123.81462 C154.008931,124.370983 152.999,125.688683 154.730675,127.04017 L154.730675,127.04017 Z M205.089342,119.954366 C203.865342,119.536257 204.603342,118.256842 204.797342,118.01601 C204.987342,117.773507 206.309342,120.372476 205.089342,119.954366 L205.089342,119.954366 Z M181.582617,133.3126 C182.540812,132.892547 182.4707,132.693811 182.878388,134.060115 C183.288672,135.428678 182.540812,134.105282 182.400588,134.416935 C182.257768,134.730846 182.475894,135.729039 182.366831,136.171676 C182.260365,136.616572 182.125335,140.740325 179.520809,140.986486 C176.916284,141.234905 178.814497,137.991909 178.318521,136.738523 C177.827738,135.489653 178.038074,137.490554 178.084815,136.286852 C178.13675,135.087666 179.868772,135.078633 180.04535,134.710521 C180.219331,134.349185 180.564697,134.057857 180.995755,133.97204 C181.432006,133.892997 180.627018,133.732654 181.582617,133.3126 L181.582617,133.3126 Z M109.009372,121.612209 C106.646461,120.57593 101.044731,117.973919 101.388474,117.258932 C101.734762,116.550732 96.4131194,117.541759 95.8707701,116.684227 C95.3284209,115.828957 94.1189565,119.19347 94.1647888,116.663863 C94.2106212,114.131994 93.1157377,115.905886 92.4562613,117.055296 C91.796785,118.202444 91.1220312,119.317914 89.8361796,118.259009 C88.5477818,117.195579 85.0517933,118.211494 86.0524659,114.328841 C87.0556848,110.446189 82.192365,114.720274 82.5055526,112.396566 C82.8212865,110.075119 84.6418486,107.640542 80.4583751,111.543559 C76.2749016,115.446575 75.8802343,105.117723 78.7905874,103.970576 C81.6983943,102.823428 84.2879211,104.730815 86.3529223,103.778253 C88.4204698,102.825691 88.0436262,103.264639 88.5350506,102.434258 C89.0264751,101.601615 94.3863118,99.8073584 92.9120384,99.2530169 C91.437765,98.6986755 101.462315,89.8269498 101.424121,91.84068 C101.385927,93.8544101 106.926547,92.7276263 104.1817,91.2750254 C101.439399,89.8246872 101.928277,90.5215736 102.872932,88.8857007 C103.815041,87.2475652 96.7746856,90.874542 101.039639,87.9467142 C105.302046,85.021149 108.530679,86.1886599 109.274181,84.5482618 C110.017684,82.905601 109.340383,83.978082 108.668176,83.5708107 C107.995968,83.1658021 105.49556,82.0231799 106.432577,81.1882739 C107.372139,80.3556304 106.093927,75.9819896 105.13654,77.5205699 C104.179154,79.0568876 101.576896,78.8668277 102.277112,76.9458649 C102.979874,75.0271647 96.6677435,74.2126222 97.2406476,76.737704 C97.816098,79.2650485 96.3392784,79.676845 96.7594081,81.0479915 C97.1769916,82.4214007 93.85924,81.8127565 93.9814595,84.7156955 C94.1036791,87.6163719 92.0361316,84.8243012 92.1481662,82.9463281 C92.262747,81.0683551 95.2571261,83.652265 89.6859514,80.8466185 C84.1147768,78.0409721 90.8775921,72.4862446 94.0349306,69.6986991 C97.192269,66.9111535 95.9624348,69.3570437 97.8644766,68.3004011 C99.7665184,67.246021 98.2795138,64.7051009 97.1107893,64.3340315 C95.9420649,63.9629621 94.2411761,68.2528861 94.2691847,66.6645282 C94.2971934,65.0784329 95.4735566,64.7141513 94.4423291,64.6892625 C93.4136478,64.6643738 93.9381734,66.5287711 93.2736046,65.9563287 C92.6064895,65.3793611 94.2870084,58.7114255 91.6440105,62.0487872 C89.0010127,65.3861489 94.0476618,62.9855111 91.1678635,65.4879667 C88.2880653,67.9881598 90.4396387,66.2504691 89.4644285,65.7051781 C88.4866721,65.1598871 86.0982983,65.7640062 84.7895306,64.8250196 C83.4782166,63.8837705 85.0339697,62.5895529 82.8518414,63.4764992 C80.6697131,64.3679708 84.0816756,63.6461956 83.3076185,64.3838091 C82.5335613,65.11916 82.4164342,65.0874833 82.2891222,66.1169746 C82.1592639,67.1487284 81.3953917,64.5625559 81.3852067,64.526354 C81.3724755,64.4878895 77.0082189,63.5421152 79.1546999,63.3701562 C79.4042314,63.3497926 74.6911399,58.1887607 73.4740368,57.7633885 C68.969737,56.1999194 71.5388939,62.0329489 62.5633954,55.7179817 C53.5904431,49.4030145 56.5950072,53.1250214 54.2524657,52.7697903 C51.907378,52.4122966 47.1331767,55.3152357 48.9944787,57.7339745 C50.8557806,60.1504506 50.6037028,59.1300098 49.4451633,59.2612417 C48.2866237,59.3924735 46.8174428,57.7860147 46.6188361,58.7385769 C46.4202293,59.6956644 44.8466525,58.5801936 44.4850864,59.2363529 C44.1235202,59.8902495 46.7486943,60.1640263 44.8262826,60.2432179 C42.9038709,60.3224096 44.8441063,61.3881027 45.5468687,61.6483038 C46.8836451,62.1415545 50.076631,58.5213656 47.4972891,62.3881799 C42.4251776,69.9837889 49.5495591,70.913725 50.8328644,70.3186564 C52.118716,69.7235879 53.1703134,68.6171676 54.3161217,70.3955854 C55.4644763,72.1717407 56.5975534,70.7168772 56.8674549,72.0201453 C57.132264,73.3234133 58.4537629,74.8212665 58.1685839,76.1177467 C57.8808587,77.4119642 64.4552522,88.6956408 62.3622424,87.2905549 C60.2717788,85.8877317 61.4634194,87.0688183 61.0127348,88.1707134 C60.5645964,89.2703458 58.0616418,97.2098728 62.4131672,99.963479 C66.7646926,102.719348 62.9453315,98.7145138 65.5195809,102.106178 C68.091284,105.497843 72.8527541,113.579915 77.4818197,113.407956 C82.1083391,113.235997 84.1453317,116.534894 84.043482,117.297396 C83.9390862,118.055373 88.0614499,120.806717 87.9417766,118.903855 C87.8271957,117.005519 91.9673831,121.485503 89.6273879,122.605499 C87.2873927,123.723232 87.8450194,126.506252 88.02071,126.135183 C88.1913081,125.761851 86.9716588,127.820833 87.1728119,128.472467 C87.3765111,129.130889 92.4995474,134.844 95.4582791,136.660882 C98.4170108,138.477765 93.5816997,151.628101 96.2094201,154.209748 C98.8345943,156.798183 96.8026942,161.031542 96.5302465,161.913963 C96.2577987,162.803172 98.5927014,164.070238 98.4552044,164.212783 C98.3100687,164.350803 99.0484785,166.02514 99.7945271,164.024986 C100.341969,162.554284 102.974782,159.988475 101.026908,158.504198 C99.2878252,157.176041 103.356718,154.230112 102.096329,154.605707 C100.833393,154.985826 101.533609,153.945022 101.454676,153.757225 C101.373196,153.573953 103.471299,152.963046 103.308339,152.141715 C103.140287,151.31586 108.607066,150.232066 106.144851,148.659546 C103.685183,147.089289 107.586024,148.962737 108.892245,147.621004 C110.198467,146.272484 112.691236,139.249317 115.721263,139.595498 C118.748743,139.943941 117.740432,134.667516 119.140864,132.477301 C120.543843,130.282562 120.347782,127.298168 117.661498,126.259627 C114.980307,125.218822 114.634018,126.825281 114.142593,126.402172 C113.651169,125.976799 108.945716,124.895268 108.925346,124.897531 C108.892245,124.899793 111.37483,122.6417 109.009372,121.612209 L109.009372,121.612209 Z M235.68776,126.31087 C235.890986,126.347112 235.854509,126.088885 235.479324,125.993749 C235.104138,125.894082 234.833171,128.666625 234.25997,127.848906 C233.68677,127.035717 234.218283,127.810399 234.369399,127.035717 C234.523121,126.265567 233.738879,127.672225 234.140119,125.407075 C234.54136,123.141925 234.426719,123.228001 236.414682,123.449985 C238.402645,123.669705 238.017038,122.754584 238.671007,123.06491 C239.324976,123.382031 239.08788,124.303947 237.193714,123.875834 C235.296942,123.449985 234.88528,125.153378 235.541855,125.096749 C236.198429,125.037855 234.814932,124.800015 235.768529,124.684492 C236.716915,124.568969 237.073863,124.920068 235.982177,125.427461 C234.88528,125.93259 236.813317,126.795612 236.948801,126.849975 C237.081679,126.904339 236.023864,127.441179 235.768529,127.094611 C235.510589,126.748043 235.700787,127.004005 235.622624,126.904339 C235.547065,126.806937 235.481929,126.281423 235.68776,126.31087 L235.68776,126.31087 Z M229.775443,127.614669 C229.239582,127.576219 229.606704,127.363614 228.580587,126.906739 C227.552191,126.449864 226.407502,123.443988 227.351528,123.776467 C228.293275,124.106683 228.078931,123.627191 228.441492,123.195195 C228.799492,122.763199 231.186922,121.191278 231.633853,120.306931 C232.078503,119.424845 231.818554,120.698215 232.609803,120.958317 C233.401053,121.220681 232.732937,121.356386 232.799065,121.811 C232.867473,122.267875 232.384058,121.896946 232.308809,121.985155 C232.231281,122.071102 231.985013,122.842361 232.450185,123.627191 C232.915358,124.412021 232.062541,125.013648 231.526681,126.719013 C230.98626,128.424379 230.915572,126.942927 230.751393,127.08768 C230.589495,127.230171 231.020464,128.59401 230.384272,127.696093 C229.743519,126.798175 230.318144,127.648596 229.775443,127.614669 L229.775443,127.614669 Z M237.016841,131.460344 C236.785131,130.750344 239.0214,130.280344 238.999845,130.378344 C238.983679,130.478344 237.250347,132.172344 237.016841,131.460344 L237.016841,131.460344 Z M256.203264,128.181477 C256.526757,128.003477 256.521856,128.357477 256.931124,128.093477 C257.342844,127.831477 257.413914,126.799477 257.948169,127.677477 C258.479973,128.557477 254.737739,128.987477 255.014669,128.399477 C255.284248,127.815477 255.884671,128.365477 256.203264,128.181477 L256.203264,128.181477 Z M248.014352,157.044899 C247.966358,157.278066 248.014352,160.523501 248.542294,159.926929 C249.074075,159.326156 250.304659,157.929254 249.9303,157.341085 C249.554022,156.748714 249.160465,157.559547 248.926251,157.551145 C248.688198,157.536441 248.060427,156.815933 248.014352,157.044899 L248.014352,157.044899 Z M223.000529,128.664176 C223.064198,127.842176 225.826464,128.686176 226.583148,128.658176 C227.337384,128.628176 225.667291,128.232176 226.749668,128.352176 C227.839391,128.468176 226.88925,128.812176 228.963398,129.178176 C231.039995,129.548176 229.379697,129.520176 229.232768,129.664176 C229.085839,129.806176 222.934411,129.482176 223.000529,128.664176 L223.000529,128.664176 Z M270.230358,154.529738 C271.115039,157.300041 269.599499,156.681965 269.123891,157.372886 C268.643353,158.070428 269.710392,157.979924 269.786785,158.311036 C269.860714,158.633318 268.330388,160.233692 269.459034,159.97101 C270.595073,159.703913 271.208682,157.690753 271.659648,157.562723 C272.105685,157.434693 272.719293,156.93361 272.970651,156.18309 C273.226938,155.430363 271.728648,156.346439 271.430468,156.019742 C271.134753,155.695252 270.632038,154.637901 270.829181,154.057352 C271.02386,153.485632 269.338284,151.759436 270.230358,154.529738 L270.230358,154.529738 Z M268.782688,159.246741 C268.219364,160.464295 267.710556,160.056273 267.256264,160.596684 C266.801971,161.137096 268.223907,160.989514 267.303964,161.132755 C266.386293,161.269486 264.814439,165.024151 263.358431,163.728466 C261.90015,162.434951 265.259646,161.284678 266.845128,159.151247 C268.430611,157.015645 267.887731,158.500149 268.287508,158.528363 C268.687286,158.552236 269.343739,158.035699 268.782688,159.246741 L268.782688,159.246741 Z M249.987876,126.092905 C251.335409,126.426426 253.225521,127.291893 253.477706,127.844948 C253.732438,128.39167 255.632739,128.326232 254.657116,128.657643 C253.681492,128.993275 255.602172,130.044501 255.910397,130.109939 C256.216076,130.173266 255.632739,130.344248 255.856904,130.451904 C256.086163,130.557449 257.354728,130.154268 256.903853,130.850863 C256.45043,131.547459 253.480253,129.607546 252.466419,129.069267 C251.452586,128.5331 252.107247,129.307799 251.656371,129.510444 C251.200401,129.715201 252.02828,129.438674 251.56212,130.084608 C251.088319,130.730542 250.61197,129.396456 248.999516,129.49989 C247.384514,129.603324 248.635249,129.483003 248.138521,128.575318 C247.641793,127.667633 245.252406,126.736728 244.793889,126.660736 C244.335371,126.584743 244.671617,127.528314 243.785149,126.510862 C242.898682,125.491299 245.435813,126.544636 244.745489,125.795268 C244.055166,125.050122 243.762224,125.932477 243.390315,125.807934 C243.018406,125.683391 244.004219,126.023245 243.161056,125.411085 C242.32044,124.794704 245.048621,124.900249 244.956917,125.535628 C244.865214,126.17523 245.214197,126.842273 246.452195,125.993693 C247.687645,125.140891 248.640343,125.755161 249.987876,126.092905 L249.987876,126.092905 Z M222.892265,128.606845 C221.431987,127.735543 219.52837,123.687492 217.713877,122.792154 C215.90167,121.896816 218.008675,121.664468 218.874787,122.597864 C219.740898,123.531259 221.169183,123.715534 221.214888,124.11413 C221.262878,124.510723 222.5769,124.855238 222.551762,125.103609 C222.519768,125.35198 222.739153,125.522235 223.008813,125.822684 C223.273902,126.123133 222.455781,126.153178 223.241909,126.53575 C224.023466,126.920325 224.156011,128.420567 223.842931,128.536741 C223.534421,128.652914 224.347972,129.474142 222.892265,128.606845 L222.892265,128.606845 Z M245.651723,134.696329 C245.721945,135.067693 247.378657,136.11446 248.632244,136.642187 C249.883231,137.161227 250.603654,130.930573 251.383895,132.600623 C252.164136,134.268501 251.27206,134.057845 252.408612,134.233754 C253.542562,134.411834 252.66349,137.421833 253.919679,137.914813 C255.173266,138.409964 254.939194,140.010519 255.631008,140.093044 C256.328023,140.177741 253.714215,137.754106 256.255201,140.996478 C258.801388,144.236678 254.078328,148.152283 253.139437,151.779049 C252.195346,155.410158 251.675185,152.830159 250.853331,153.353543 C250.028876,153.870411 248.970349,154.393795 249.222627,153.570715 C249.474905,152.747634 248.954744,153.644553 248.874119,153.499048 C248.793494,153.353543 248.031459,153.551169 248.614039,153.279705 C249.196619,153.00824 243.870172,147.826525 242.265476,147.735313 C240.652978,147.639758 238.281045,147.179354 237.469594,147.337889 C236.663344,147.496424 235.698446,146.886172 234.749153,147.880818 C233.797259,148.875464 232.806352,147.750515 231.277079,148.690868 C229.755609,149.633393 227.394079,148.538848 228.143111,148.11102 C228.897344,147.685364 228.195127,143.129103 228.470812,142.696932 C228.7543,142.26476 227.539724,141.995467 228.257546,140.85966 C228.972767,139.728196 230.746515,138.353499 233.128852,138.097237 C235.505987,137.843146 235.630825,135.07638 236.00274,135.740925 C236.372054,136.407642 236.247216,136.023248 236.437075,135.558501 C236.626933,135.08941 236.988445,135.814763 237.222517,135.74744 C237.45659,135.680117 236.889614,135.126329 237.396771,135.004713 C237.906529,134.883097 239.17312,133.653906 239.792112,134.392289 C240.411103,135.130673 240.387696,134.622491 240.598361,134.602945 C240.809026,134.5834 240.816828,135.15239 240.941667,134.21638 C241.066506,133.28037 243.331806,133.12835 243.597088,132.737441 C243.86237,132.350876 241.360396,131.616836 243.526866,132.244462 C245.695937,132.876431 245.602308,132.891633 246.382549,132.639714 C247.160189,132.39431 245.573699,134.331481 245.651723,134.696329 L245.651723,134.696329 Z M136.162221,56.1916905 C134.44926,56.6466813 127.437138,73.4383311 123.029519,73.1644312 C118.6219,72.8927949 121.006021,76.5644121 120.312322,77.3385755 C119.621127,78.1127389 120.109472,78.4251206 119.733822,78.938966 C119.358173,79.4550749 119.42579,76.4942394 118.156095,77.6849118 C116.8864,78.8733205 117.259545,74.445649 116.167658,74.2555036 C115.07577,74.0630946 116.938991,65.0855153 116.222753,65.2032244 C115.506515,65.3209334 116.40056,63.5417157 116.405569,63.5168157 C116.981565,60.1077803 113.467991,57.1016721 113.460478,57.1039357 C112.609006,57.3959447 111.254164,53.4594822 111.00874,52.8369824 C110.763316,52.2190098 115.764461,51.8523008 116.217744,50.6322012 C116.671028,49.4143651 115.676809,49.9010468 117.136833,48.520229 C118.596857,47.1371476 117.915679,48.8529835 117.943227,48.7081108 C117.970775,48.5655017 119.931664,46.618775 120.071907,46.6097205 C120.209645,46.6006659 120.662928,48.2916018 120.510164,46.7319568 C120.352392,45.1723118 123.034528,45.4213117 123.38263,45.9781661 C123.730731,46.5372841 121.962675,49.2015834 122.919329,47.9746928 C123.878487,46.7478023 123.788331,47.718902 124.181511,47.7098474 C124.572186,47.7007929 125.408632,46.7908113 126.550606,45.9419479 C127.695084,45.0953482 126.971333,46.6142478 127.504755,46.2701751 C128.038177,45.9261025 127.629972,45.2379572 127.95303,44.866721 C128.273584,44.4977483 129.147595,44.3370302 129.620913,45.226639 C130.096736,46.1139843 130.777913,44.1514121 131.18111,44.0676576 C131.581803,43.9816394 135.037777,43.8028122 135.175515,44.8621937 C135.313253,45.9238389 131.957452,45.1293027 132.122738,45.9374207 C132.285519,46.7410114 133.109444,45.692948 133.359876,45.6408844 C133.610309,45.5910844 137.497028,45.7472753 135.934327,46.2950751 C134.371625,46.842875 135.936831,45.8830934 137.281656,46.8496659 C138.62648,47.8139747 133.450032,47.4721657 132.510909,48.4070472 C131.571786,49.3419288 135.28821,47.6532566 135.368348,48.5677654 C135.445983,49.4822742 135.340801,49.5864015 135.56619,49.4415288 C135.794084,49.2943925 136.775781,47.6555202 137.016197,48.6583108 C137.256612,49.6611014 133.647874,51.7255372 134.304009,51.7006372 C134.960143,51.6757372 137.336751,49.837665 137.552123,49.570556 C137.764991,49.3057106 138.225788,49.353247 138.488742,49.3147652 C138.749193,49.2717561 141.313625,49.6882651 140.968028,50.3899921 C140.624935,51.0894556 136.833381,52.5744006 136.883467,52.889046 C136.936058,53.2036914 139.212493,51.9835917 137.717409,53.6043549 C136.214812,55.2273817 137.875182,55.7366997 136.162221,56.1916905 L136.162221,56.1916905 Z M98.5655611,50.2988691 C99.4775611,49.4868691 98.4575611,48.4368691 99.4175611,49.7848691 C100.375561,51.1348691 97.6515611,51.1088691 98.5655611,50.2988691 L98.5655611,50.2988691 Z M94.4450526,52.1574479 C96.9524874,51.1299484 96.1682897,55.4880395 93.9305789,54.9545301 C91.692868,54.4232162 94.4650321,54.2673349 93.9006095,53.8172549 C93.3361869,53.3649795 91.9376177,53.187143 94.4450526,52.1574479 L94.4450526,52.1574479 Z M96.184586,46.9275858 C96.326586,45.4961759 98.028586,45.6829831 97.822586,47.7565426 C97.616586,49.8347722 97.864586,50.6613939 96.702586,49.4097859 C95.540586,48.158178 96.640586,48.6251959 96.608586,47.3175457 C96.578586,46.0075605 96.040586,48.3566606 96.184586,46.9275858 L96.184586,46.9275858 Z M94.3333921,72.5190703 C95.4701394,69.0014341 94.1060427,69.8832264 95.7350125,70.9151616 C97.3617751,71.9542466 97.2845204,73.8965728 96.2669661,72.9790322 C95.2494118,72.066258 93.1966449,76.0343232 94.3333921,72.5190703 L94.3333921,72.5190703 Z M83.3816402,49.9786332 C84.4495995,49.0678939 89.7017804,46.5611924 87.440359,49.1155993 C85.1789375,51.6678378 86.9336111,49.2088417 85.2997045,50.3732869 C83.6657979,51.5377322 82.311313,50.8872041 83.3816402,49.9786332 L83.3816402,49.9786332 Z M105.521054,90.2403923 C105.077252,89.5598479 104.433464,90.9512673 105.962118,89.8176586 C107.493511,88.6821541 108.545488,89.0082088 110.227555,89.1731318 C111.909622,89.3399505 110.356312,90.5304293 110.115234,90.9171453 C109.874156,91.3019657 109.249545,90.2214356 109.249545,90.2214356 C109.249545,90.2214356 105.964857,90.9209367 105.521054,90.2403923 L105.521054,90.2403923 Z M92.0283886,57.1614202 C93.6420501,56.3279985 92.8020335,58.9710044 92.6132891,59.4176448 C92.4245446,59.8665875 92.828997,61.3515516 91.3377084,60.9233294 C89.8505679,60.4928049 89.5415248,57.7093605 90.7237703,58.1421872 C91.90809,58.5773163 90.4168013,57.994842 92.0283886,57.1614202 L92.0283886,57.1614202 Z M85.5673243,51.7700031 C84.7127323,50.4727488 89.2761415,50.8713722 88.0975867,52.5395998 C86.916239,54.2032189 89.1309168,53.1847706 89.6084828,51.8759954 C90.0860489,50.5672202 89.9855087,52.6617214 90.8037944,53.0926034 C91.624873,53.5257895 89.6056901,55.0603745 89.5693839,54.9981616 C89.5330777,54.9405571 84.5451653,55.0073784 86.4135379,54.2239566 C88.2763248,53.4405348 85.7767831,54.3414698 85.1344427,53.5810899 C84.4893096,52.8184057 86.4219162,53.0672574 85.5673243,51.7700031 L85.5673243,51.7700031 Z M97.2463582,53.8009281 C96.1973613,49.4246436 98.858557,54.3825861 98.5249066,54.5210762 C96.7418788,55.2573814 104.154256,56.5361059 102.843677,57.3555051 C101.530429,58.1749044 102.301829,58.1541309 99.2829603,57.6232525 C96.2640914,57.0900659 97.6253851,55.3820224 97.2463582,53.8009281 L97.2463582,53.8009281 Z M79.5413117,54.0213964 C79.8363514,51.8634408 83.9083862,53.6185466 82.8135696,54.7776232 C81.7187531,55.9319881 77.0420089,59.3833035 77.0005571,57.3949689 C76.9591052,55.4066343 79.2438337,56.179352 79.5413117,54.0213964 L79.5413117,54.0213964 Z M103.142778,45.3323981 C103.802318,44.3955853 103.564491,44.1276451 104.361334,44.0083432 C105.160628,43.8870856 104.85415,45.1133521 105.114044,46.0090938 C105.371485,46.9067913 105.464654,46.0051822 105.928049,46.2124936 C106.391443,46.4178493 104.432437,47.64216 105.27096,47.6812753 C106.107032,47.7203907 102.934373,51.02955 101.534382,49.6742028 C100.136843,48.3149441 101.880089,46.3063705 102.247862,46.1244841 C102.610732,45.9386861 102.483237,46.2692109 103.142778,45.3323981 L103.142778,45.3323981 Z M81.1681574,57.1784397 C82.4033013,56.4710985 80.8567983,57.1444714 83.5046378,56.2253274 C86.1524774,55.3101798 84.8658692,57.4681699 85.7742146,57.6220266 C86.6825599,57.7758833 85.956913,58.892843 86.432958,59.1186327 C86.909003,59.3444224 90.2027198,55.4240737 88.5301292,58.7150086 C87.4570981,60.8230453 86.1318917,61.9759715 87.1277264,62.4355435 C88.1235611,62.8971136 86.3171632,63.3287117 85.0717266,62.6413518 C83.8314363,61.953992 81.353429,63.6903748 79.5007133,61.3105912 C77.6479975,58.9328058 81.5001023,60.0197934 81.9504152,59.7000912 C82.4058745,59.3803889 79.9355868,57.8917754 81.1681574,57.1784397 L81.1681574,57.1784397 Z M95.0250396,62.5051553 C94.7143085,61.749993 97.3658805,58.8996471 99.0800803,59.0027256 C100.79687,59.1035633 97.9148387,60.5085687 97.9148387,62.9062653 C97.9148387,65.3017211 98.202265,61.9942443 98.6269308,61.7231029 C99.0515966,61.4519615 98.9583773,60.6094064 99.4633153,60.5287363 C99.9604851,60.4458253 102.878768,59.6951446 101.407974,61.4026631 C99.9320014,63.1101816 103.515767,63.5023282 105.320596,63.5583492 C107.125426,63.6121293 104.427245,65.3935955 105.61838,64.9275012 C106.809516,64.4614069 105.628738,64.6877315 106.299399,64.9409462 C106.970061,65.1941609 109.867628,69.1425174 108.743817,71.5962349 C107.620007,74.0499525 106.923451,69.5884441 105.786693,70.737994 C104.652525,71.8875438 104.882984,69.6444651 106.037867,73.1961932 C107.192751,76.7501622 103.145479,72.6113345 104.569663,75.2353557 C105.993847,77.8616178 100.877142,72.8847167 100.711419,72.8264549 C100.545695,72.7681932 100.664809,72.1093868 99.7170791,72.4724025 C98.7667598,72.8376591 98.2359275,71.6253658 99.004987,71.2780359 C99.771457,70.930706 99.5021567,72.4343083 100.377383,71.6993134 C101.250019,70.9598369 102.492944,67.4058679 102.477407,67.0025171 C102.459281,66.5969254 101.664327,67.8024963 101.387259,67.3207161 C101.11278,66.8366951 101.964701,65.7073128 101.387259,65.0798782 C100.807227,64.4569252 101.477889,64.501742 100.864195,64.2754173 C100.250501,64.0490927 100.574179,65.6378468 99.7067214,65.2860352 C98.8418532,64.9342237 94.261159,64.7616792 95.1156695,63.4440664 C95.9650011,62.1197312 95.3383601,63.2625586 95.0250396,62.5051553 L95.0250396,62.5051553 Z M113.269656,42.5657302 C113.543995,42.2538942 113.398175,42.7286296 113.299315,42.3469796 C113.195511,41.9653296 114.329939,42.1235747 114.465872,42.2189872 C114.599334,42.3097454 114.208834,42.8100793 114.485644,42.875239 C114.759983,42.9427259 115.217215,41.504557 116.124263,42.181753 C117.033782,42.8589491 115.644788,43.031157 116.299741,42.7100125 C116.952222,42.3842137 116.554307,42.9450531 117.162301,42.7169939 C117.767824,42.4912619 116.663054,42.6122729 118.027333,42.9799601 C119.389141,43.3476473 117.735694,43.4174613 118.296729,43.9038324 C118.857764,44.3855492 119.17659,43.5966507 119.626407,43.9433937 C120.076224,44.2878095 120.152841,43.2592162 120.301132,43.8526354 C120.454367,44.4483818 122.107814,45.6049675 119.715382,46.2263123 C117.32295,46.8476572 108.099235,52.1535232 108.015204,53.8220784 C107.931172,55.4906337 106.292554,56.831063 105.736462,55.3835855 C105.180369,53.9337809 104.374654,55.6930943 102.563029,54.8646346 C100.756348,54.0338476 103.860577,54.6226126 104.031112,53.3845772 C104.196704,52.1488689 107.019181,53.3682873 104.354882,51.716022 C101.688111,50.0614295 106.833817,51.0946771 107.340478,50.9806475 C107.849612,50.8642908 106.505105,50.32905 106.861003,49.9753256 C107.216902,49.6216012 107.152643,49.9124929 107.207016,48.2579005 C107.263861,46.6033081 109.288037,49.2283155 109.095258,48.6023164 C108.902479,47.9786444 109.426442,47.087352 109.876259,46.3729218 C110.328547,45.6584916 108.205511,46.5916724 107.40721,46.4543715 C106.608908,46.3170706 107.00188,45.0883437 107.249032,44.6438611 C107.493713,44.2017056 106.836288,44.6368797 107.318235,44.2296312 C107.800181,43.8223827 107.338007,44.3878763 106.974693,44.1388729 C106.613851,43.8898696 107.782881,43.2917961 108.183267,43.2452534 C108.583653,43.1987107 109.767512,43.1940564 109.831771,42.9357445 C109.893559,42.6820869 110.222271,43.0567555 110.370563,42.9566887 C110.523797,42.856622 109.807056,42.6960497 110.429879,42.4540278 C111.050231,42.2143329 110.943955,43.1009711 111.584079,42.7891351 C112.224203,42.4726448 111.635981,42.2026973 112.122871,42.5168604 C112.612232,42.8310235 112.184659,42.2003701 112.572688,42.0211808 C112.960716,41.8443186 112.995318,42.8729119 113.269656,42.5657302 L113.269656,42.5657302 Z M245.798716,96.403214 C246.125954,97.6817549 246.076745,98.5028771 245.48378,98.5631225 C244.893276,98.6233679 245.843004,97.5478763 245.269722,98.0811594 C244.703822,98.6144426 244.883434,98.3645359 244.664455,98.4872579 C244.447937,98.60998 244.644772,99.0785552 243.894339,98.8844312 C243.143906,98.6903072 243.766396,98.4872579 243.264468,99.5493617 C242.762539,100.611465 243.10946,99.3351559 242.482049,98.904513 C241.852178,98.4716388 242.587848,100.160741 241.999804,100.113883 C241.41422,100.067026 242.014567,100.778814 241.229688,100.611465 C240.444809,100.441886 241.970279,99.4779597 241.778365,99.1655763 C241.586451,98.8487302 241.035313,99.7323291 240.459571,99.7323291 C239.876448,99.7323291 240.543226,99.5337425 240.405442,101.06219 C240.267658,102.590638 240.063441,101.807448 239.923197,101.738277 C239.782952,101.666875 239.65993,102.532624 239.426189,101.452669 C239.197368,100.370484 238.419871,100.557914 239.795254,99.286067 C241.178019,98.0164514 242.386092,98.5832043 242.649359,97.574652 C242.910165,96.5705623 243.212798,96.5928754 243.697504,96.7669176 C244.17975,96.9454225 243.931246,96.9030276 244.268325,95.8409238 C244.602944,94.7788201 244.101016,94.749813 244.098555,93.9621605 C244.098555,93.1722766 244.231419,93.0495545 244.583261,93.0651737 C244.935103,93.0785616 243.874656,90.7289917 245.070427,92.966996 C246.263738,95.202769 245.471478,95.1246732 245.798716,96.403214 L245.798716,96.403214 Z M184.714473,61.0604197 C185.004473,60.3864197 184.454473,60.6724197 185.136473,60.8844197 C185.816473,61.0944197 184.424473,61.7344197 184.714473,61.0604197 L184.714473,61.0604197 Z M234.218202,109.664233 C233.632202,110.306657 233.494202,110.074025 233.664202,108.558334 C233.834202,107.042643 234.802202,109.023599 234.218202,109.664233 L234.218202,109.664233 Z M234.691809,113.353527 C234.649809,113.130678 233.815809,112.484602 234.863809,112.055757 C235.909809,111.62504 235.353809,113.812335 235.613809,114.409721 C235.871809,115.003362 235.017809,115.21872 235.015809,114.72995 C235.013809,114.237434 234.905809,114.714968 234.619809,114.042675 C234.329809,113.370381 234.735809,113.578249 234.691809,113.353527 L234.691809,113.353527 Z M188.110201,46.3585716 C188.422201,47.9645675 190.406201,46.122156 189.822201,45.5156276 C189.244201,44.9090992 190.056201,45.1455148 189.756201,45.0607313 C189.456201,44.9759477 187.796201,44.7525757 188.110201,46.3585716 L188.110201,46.3585716 Z M194.186173,47.4209013 C193.585474,46.4898635 194.599153,47.4245959 194.962076,47.2176986 C195.360039,46.9904811 198.325991,47.5151135 196.296129,48.5957823 C194.266266,49.6764511 194.784369,48.3500918 194.186173,47.4209013 L194.186173,47.4209013 Z M243.604658,89.9980792 C243.741455,89.8071838 243.832653,89.8119562 243.478591,88.4876189 C243.119165,87.1608955 244.669526,88.9624714 245.766581,88.957699 C246.855589,88.9553128 246.24671,89.1295049 246.638324,89.5279992 C247.027256,89.9241072 247.003115,88.8336169 246.99775,89.4468686 C246.995068,90.0577341 245.922154,90.1865885 245.855096,90.0839822 C245.790722,89.9837621 245.801451,91.4202504 244.827781,90.8141573 C243.848746,90.2080642 242.79729,90.4920212 243.623434,91.007439 C244.446896,91.5204705 243.784372,92.7087947 243.204998,91.4202504 C242.617577,90.1293199 243.46518,90.1889747 243.604658,89.9980792 L243.604658,89.9980792 Z M190.417141,46.8684264 C190.117864,46.4220881 189.666573,46.9208374 190.386263,46.4508296 C191.110704,45.9842031 191.039448,46.5116939 191.801892,46.7534605 C192.557211,46.9986085 191.497864,46.3578424 191.806642,46.0501395 C192.11542,45.7441272 193.369535,46.9309814 193.179517,47.1237185 C192.99425,47.3147648 195.416971,48.2683058 192.709224,47.9267894 C190.001478,47.5835822 190.716418,47.3113834 190.417141,46.8684264 L190.417141,46.8684264 Z M175.408362,63.2488552 C175.13585,62.8073356 176.655958,63.0174912 176.698538,63.3818895 C176.802859,64.2128717 178.516706,66.092704 177.843941,65.9018287 C177.171176,65.7090254 176.134352,66.4628863 176.389832,65.4892296 C176.583572,64.7681452 175.621262,65.3619794 175.189075,65.163392 C175.040045,65.0939828 175.031529,64.9570925 175.040045,64.7064482 C175.084754,63.644102 175.280622,64.4210993 175.042174,63.590117 C174.801596,62.7610628 175.680874,63.6884467 175.408362,63.2488552 L175.408362,63.2488552 Z M217.97746,47.1311167 C218.410908,46.5638837 218.437544,47.9830446 220.515188,48.6063539 C221.776787,48.9837903 220.263352,48.4704768 219.512688,48.9751632 C218.764446,49.4841632 219.875913,49.1908411 218.863727,49.9133623 C217.84912,50.6337266 214.628531,46.6070193 216.657744,47.2303286 C218.691801,47.8493243 217.481053,47.7846209 217.97746,47.1311167 L217.97746,47.1311167 Z M240.175465,78.4940436 C240.010836,78.3497394 239.789693,77.6234869 240.423637,78.252748 C241.055124,78.8867404 240.357294,78.4632903 242.372155,81.6545431 C244.387016,84.8434303 243.988958,83.7150184 243.259185,84.1857815 C242.526955,84.6565445 243.898044,85.8559257 244.539359,86.3692703 C245.17576,86.8826149 245.161018,87.3131619 244.44353,87.2327301 C243.728501,87.1499326 244.229759,87.94952 243.841529,87.9897359 C243.4533,88.0299519 243.460671,87.9991985 243.389414,86.9938001 C243.323071,85.986036 240.23198,80.1239719 240.342551,79.5514862 C240.45558,78.9837318 240.33518,78.6383479 240.175465,78.4940436 L240.175465,78.4940436 Z M176.370282,58.068516 C176.722996,57.6884655 176.912918,57.8228268 177.479973,57.5771376 C178.044315,57.3295289 178.866409,55.3486595 179.786177,56.2200885 C180.700519,57.0876785 178.467571,58.0109326 177.143539,59.4581957 C175.816793,60.9054588 176.679585,60.8344393 176.467957,61.2125704 C176.256329,61.5926209 175.445088,60.9380894 175.808654,61.2509593 C176.177646,61.5619098 176.23191,62.0148993 175.469506,61.9995437 C174.709816,61.9841881 174.294699,62.0916772 174.853614,61.6118154 C175.420669,61.1319536 173.578419,61.9957048 174.09121,61.3430928 C174.601288,60.6904808 174.717955,61.2471204 174.983847,61.0858869 C175.247025,60.9284922 174.118342,60.7442253 174.552451,60.5964279 C174.736948,60.5311667 174.593149,60.4006443 174.503614,60.2854774 C174.045086,59.6866099 174.324544,59.8823935 174.533459,59.7058044 C174.742374,59.5292153 174.742374,59.3123177 175.000126,58.9706562 C175.257878,58.630914 176.017569,58.4466471 176.370282,58.068516 L176.370282,58.068516 Z M174.910672,95.4533044 C174.978254,95.83846 174.715436,96.0777578 174.312449,96.2395687 C173.909462,96.4013797 173.799329,96.1529657 173.05593,96.3033815 C172.312532,96.4537973 170.850765,95.505722 170.387705,95.505722 C169.917137,95.508001 169.714392,95.4624205 168.903411,95.6834861 C168.089928,95.9045518 168.310195,96.1278964 167.837123,96.3124976 C167.37156,96.4993778 167.449154,96.2236156 167.141282,96.2258946 C166.83341,96.2258946 166.432926,95.9387372 166.410398,96.2874283 C166.387871,96.6361195 166.620653,96.426449 166.843422,96.6315614 C167.071197,96.8389529 166.442938,96.6680258 166.340314,96.7455128 C166.245199,96.8229997 166.618149,96.934672 166.397883,96.9825316 C166.182623,97.0281121 165.667,96.9711365 165.319079,96.9620204 C164.971159,96.9506252 164.873541,96.9232769 165.198934,96.7136064 C165.521824,96.5039359 165.429213,96.4218909 165.837206,96.4104958 C166.247702,96.3991006 166.217665,96.6292824 166.342817,96.3717523 C166.470471,96.1187803 166.217665,96.2099414 165.942333,96.0504095 C165.664497,95.8954356 165.707048,95.8999937 165.599418,95.6128363 C165.494291,95.3256789 165.163892,95.6812071 165.299055,95.1957743 C165.436722,94.7126205 165.489285,94.7035044 165.884763,94.3935567 C166.28775,94.0858881 165.922308,94.5120662 165.932321,93.8716595 C165.93983,93.2289739 166.485489,93.3930638 166.508016,92.8962359 C166.533047,92.397129 166.07249,92.9440955 166.492998,92.6478219 C166.905997,92.3469904 167.121258,91.7362111 167.719481,91.6792354 C168.32271,91.6245387 168.004825,91.7043047 168.210074,91.7225369 C168.422831,91.7407691 167.939747,91.8547205 167.874668,91.8820688 C167.814596,91.9139752 167.614354,91.8228141 167.814596,91.9162542 C168.009832,92.0096943 168.170025,92.2489922 169.118672,92.1646682 C170.067318,92.0826232 169.511647,92.1008554 170.112373,91.8524415 C170.713099,91.6040275 170.763159,91.7635594 171.271273,91.3989151 C171.779387,91.0342707 172.119799,90.8952501 172.680477,91.0844093 C173.243657,91.2758476 172.427671,91.3487765 172.254962,91.4946342 C172.084757,91.6404919 172.224926,91.5242615 172.212411,91.5333777 C172.202399,91.5424938 172.234938,91.5310986 172.169859,91.5698421 C172.109787,91.6085856 171.764369,91.5288196 171.831951,91.7749545 C171.902036,92.0188104 172.305023,91.731653 172.204902,92.0917393 C172.099775,92.4518256 171.861987,92.4768949 171.829448,92.7161928 C171.786897,92.9577696 171.609182,92.7070766 171.556618,92.7047976 C171.504055,92.7047976 171.521576,92.7070766 171.501552,92.7093557 C171.474018,92.7139137 171.401431,92.5748931 171.396425,92.7298669 C171.391419,92.8802827 170.988431,92.9668857 171.937078,93.3132979 C172.885725,93.65971 173.010876,93.9787738 174.224843,94.5599257 C175.448822,95.1479147 174.838084,95.0658698 174.910672,95.4533044 L174.910672,95.4533044 Z M141.303388,85.1901571 C141.466581,86.2430243 141.383925,86.314334 140.451395,86.8197941 C139.516745,87.3273516 138.80887,86.6100596 139.046242,86.5282632 C139.283613,86.4443694 139.230628,86.2073694 139.306926,85.9787588 C139.383224,85.7501482 139.332359,85.597042 139.313284,85.5089536 C139.296329,85.4208651 139.567611,85.2971217 139.56973,85.2090332 C139.57185,85.1251394 138.847019,85.0223695 139.440448,84.7895643 C140.035995,84.556759 138.677468,83.7471839 140.934615,84.0785644 C143.189642,84.4099448 141.138076,84.1393874 141.303388,85.1901571 L141.303388,85.1901571 Z M155.212365,97.6607504 C155.426365,97.3527504 155.686365,97.6687504 156.010365,97.6307504 C156.334365,97.5967504 156.614365,97.2447504 156.808365,97.4687504 C157.000365,97.6907504 156.706365,97.6947504 156.662365,97.9647504 C156.620365,98.2367504 156.930365,98.3187504 156.660365,98.5447504 C156.388365,98.7707504 156.068365,98.2987504 155.862365,98.2047504 C155.658365,98.1107504 155.680365,98.0887504 155.454365,97.9827504 C155.228365,97.8767504 154.998365,97.9667504 155.212365,97.6607504 L155.212365,97.6607504 Z M151.588195,96.4849251 C151.408195,95.9849251 151.628195,96.4609251 151.640195,96.4549251 C151.652195,96.4469251 151.648195,96.4529251 151.690195,96.4229251 C151.734195,96.3909251 151.824195,96.3209251 151.908195,96.2709251 C151.996195,96.2209251 152.054195,96.0549251 152.272195,96.2049251 C152.488195,96.3529251 152.382195,96.5509251 152.396195,96.8029251 C152.408195,97.0569251 152.424195,97.3809251 152.406195,97.5329251 C152.388195,97.6849251 152.620195,97.4289251 152.352195,97.5569251 C152.084195,97.6849251 152.312195,97.9829251 151.904195,97.7969251 C151.496195,97.6089251 151.766195,96.9849251 151.588195,96.4849251 L151.588195,96.4849251 Z M169.003322,92.9209584 C169.041605,92.7129584 169.215789,92.7069584 169.365091,92.5709584 C169.514392,92.4349584 169.38806,92.5309584 169.435913,92.4969584 C169.483766,92.4589584 169.391888,92.4129584 169.61584,92.4269584 C169.835964,92.4389584 169.962296,92.8629584 170.22453,92.9269584 C170.486765,92.9909584 170.919356,92.5509584 170.980607,92.8509584 C171.045687,93.1529584 170.955724,93.0109584 170.576728,93.0829584 C170.197733,93.1569584 169.776626,93.7669584 169.449312,93.5149584 C169.120083,93.2649584 169.535447,93.1749584 169.372747,93.0409584 C169.210047,92.9069584 168.968868,93.1289584 169.003322,92.9209584 L169.003322,92.9209584 Z M142.596149,84.0961144 C142.474702,83.8802816 141.265097,81.3432275 142.68359,81.054093 C144.099654,80.7649584 142.953201,81.7219531 143.256817,81.8726289 C143.562861,82.0233046 144.208956,81.6384706 144.412986,81.8502311 C144.619444,82.0619917 142.856044,83.2775785 143.652732,83.1981683 C144.446991,83.116722 145.744037,85.7678009 146.161813,85.7352224 C146.579588,85.70468 147.507438,85.4684856 146.645169,86.3684678 C145.785329,87.2664139 148.547019,86.5781922 145.226676,87.447632 C141.908762,88.3170719 142.367829,87.9994311 142.754029,87.5840547 C143.140228,87.1666421 142.860902,87.4557767 143.849475,87.1075935 C144.835619,86.7573742 141.862613,86.8266036 142.826897,86.3684678 C143.796038,85.910332 144.089938,84.8108062 143.817899,84.6845644 C143.545859,84.5562864 143.856761,84.0452105 143.616298,84.0065234 C143.380692,83.9698726 142.717595,84.3099111 142.596149,84.0961144 Z" id="Shape" fill="#DEDEDE" fill-rule="nonzero" mask="url(#mask-7)"></path>
                </g>
                <rect id="Rectangle-Copy-2" fill="#F7F7F7" x="324" y="182" width="316" height="200"></rect>
                <g id="Icons/79-Pin-off" transform="translate(112.000000, 208.000000)">
                    <g id="Pin">
                        <polygon id="Shape" points="0 0 92.6007371 0 92.6007371 92.6007371 0 92.6007371"></polygon>
                        <path d="M50.1587326,25.0793663 C55.483275,25.0793663 59.8046427,29.400734 59.8046427,34.7252764 C59.8046427,37.5804658 58.5313826,40.0884025 56.6022006,41.8632499 L70.6080621,55.8691114 C74.3892588,48.6925543 77.167281,41.207328 77.167281,34.7252764 C77.167281,19.7934076 65.0906015,7.7167281 50.1587326,7.7167281 C42.5191718,7.7167281 35.6512838,10.9191703 30.7125778,16.0122108 L43.0207591,28.3203921 C44.7956066,26.3140428 47.3035432,25.0793663 50.1587326,25.0793663 Z M67.0197835,62.1196612 L49.155558,44.2554356 L48.7311379,43.8310156 L16.4752145,11.5750921 L11.5750921,16.4752145 L23.8446898,28.7448122 C23.4202698,30.6739942 23.1501843,32.6803435 23.1501843,34.7252764 C23.1501843,54.9816877 50.1587326,84.884009 50.1587326,84.884009 C50.1587326,84.884009 56.6022006,77.7460356 63.2000031,68.1001254 L76.1255227,81.025645 L81.025645,76.1255227 L67.0197835,62.1196612 Z" id="Shape" fill="#C8252C"></path>
                    </g>
                </g>
                <g id="Live-chat" transform="translate(436.000000, 208.000000)">
                    <polygon id="Shape" points="0 0 92 0 92 92 0 92"></polygon>
                    <rect id="Rectangle" fill="#FCFCFC" x="22" y="14" width="47" height="47"></rect>
                    <path d="M76.6666667,7.66666667 L15.3333333,7.66666667 C11.1166667,7.66666667 7.705,11.1166667 7.705,15.3333333 L7.66666667,84.3333333 L23,69 L76.6666667,69 C80.8833333,69 84.3333333,65.55 84.3333333,61.3333333 L84.3333333,15.3333333 C84.3333333,11.1166667 80.8833333,7.66666667 76.6666667,7.66666667 Z M30.844997,20.6127146 L66.0830414,50.1809447 L61.155003,56.0539521 L25.9169586,26.485722 L30.844997,20.6127146 Z M61.155003,20.6127146 L25.9169586,50.1809447 L30.844997,56.0539521 L66.0830414,26.485722 L61.155003,20.6127146 Z" id="Shape" fill="#C8252C"></path>
                </g>
                <g id="Group" transform="translate(409.000000, 308.000000)" fill="#919191" fill-rule="nonzero">
                    <rect id="Rectangle" x="140.426" y="0" width="14.872" height="4.28571429"></rect>
                    <rect id="Rectangle" x="28.028" y="0" width="16.588" height="4.28571429"></rect>
                    <rect id="Rectangle" x="0" y="0" width="22.594" height="4.28571429"></rect>
                    <rect id="Rectangle" x="126.984" y="0" width="8.294" height="4.28571429"></rect>
                    <rect id="Rectangle" x="51.194" y="0" width="4.29" height="4.28571429"></rect>
                    <rect id="Rectangle" x="60.346" y="0" width="4.29" height="4.28571429"></rect>
                    <rect id="Rectangle" x="70.07" y="0" width="51.48" height="4.28571429"></rect>
                    <rect id="Rectangle" x="26.312" y="21.5714286" width="4.29" height="4.28571429"></rect>
                    <rect id="Rectangle" x="35.464" y="21.5714286" width="4.29" height="4.28571429"></rect>
                    <rect id="Rectangle" x="0" y="21.5714286" width="22.594" height="4.28571429"></rect>
                    <rect id="Rectangle" x="43.758" y="21.5714286" width="22.308" height="4.28571429"></rect>
                    <rect id="Rectangle" x="0" y="32.8571429" width="42.328" height="4.28571429"></rect>
                    <rect id="Rectangle" x="0" y="10.2857143" width="16.588" height="4.28571429"></rect>
                    <rect id="Rectangle" x="112.398" y="10.2857143" width="16.588" height="4.28571429"></rect>
                    <rect id="Rectangle" x="134.134" y="10.2857143" width="21.164" height="4.28571429"></rect>
                    <rect id="Rectangle" x="21.45" y="10.2857143" width="8.294" height="4.28571429"></rect>
                    <rect id="Rectangle" x="92.092" y="10.2857143" width="4.29" height="4.28571429"></rect>
                    <rect id="Rectangle" x="101.244" y="10.2857143" width="4.29" height="4.28571429"></rect>
                    <rect id="Rectangle" x="55.198" y="32.8571429" width="4.29" height="4.28571429"></rect>
                    <rect id="Rectangle" x="46.618" y="32.8571429" width="4.29" height="4.28571429"></rect>
                    <rect id="Rectangle" x="63.778" y="32.8571429" width="4.29" height="4.28571429"></rect>
                    <rect id="Rectangle-Copy-8" x="103.246" y="21.5714286" width="4.29" height="4.28571429"></rect>
                    <rect id="Rectangle-Copy-7" x="112.398" y="21.5714286" width="4.29" height="4.28571429"></rect>
                    <rect id="Rectangle-Copy-6" x="76.934" y="21.5714286" width="22.594" height="4.28571429"></rect>
                    <rect id="Rectangle-Copy-5" x="120.692" y="21.5714286" width="34.892" height="4.28571429"></rect>
                    <rect id="Rectangle-Copy-4" x="76.934" y="32.8571429" width="42.328" height="4.28571429"></rect>
                    <rect id="Rectangle-Copy-3" x="134.134" y="32.8571429" width="4.29" height="4.28571429"></rect>
                    <rect id="Rectangle-Copy-2" x="125.554" y="32.8571429" width="4.29" height="4.28571429"></rect>
                    <rect id="Rectangle-Copy" x="142.714" y="32.8571429" width="4.29" height="4.28571429"></rect>
                    <rect id="Rectangle-Copy-9" x="151.294" y="32.8571429" width="4.29" height="4.28571429"></rect>
                    <rect id="Rectangle" x="35.178" y="10.2857143" width="51.48" height="4.28571429"></rect>
                </g>
                <g id="Icons/33-Desktop" transform="translate(332.000000, 295.000000)">
                    <g id="Desktop">
                        <polygon id="Shape" points="0 0 64 0 64 64 0 64"></polygon>
                        <path d="M56,5.33333333 L8,5.33333333 C5.06666667,5.33333333 2.66666667,7.73333333 2.66666667,10.6666667 L2.66666667,42.6666667 C2.66666667,45.6 5.06666667,48 8,48 L26.6666667,48 L26.6666667,53.3333333 L21.3333333,53.3333333 L21.3333333,58.6666667 L42.6666667,58.6666667 L42.6666667,53.3333333 L37.3333333,53.3333333 L37.3333333,48 L56,48 C58.9333333,48 61.3333333,45.6 61.3333333,42.6666667 L61.3333333,10.6666667 C61.3333333,7.73333333 58.9333333,5.33333333 56,5.33333333 Z M56,42.6666667 L8,42.6666667 L8,10.6666667 L56,10.6666667 L56,42.6666667 Z" id="Shape" fill="#DEDEDE"></path>
                    </g>
                </g>
                <g id="Icons/59-iPhone" transform="translate(568.000000, 295.000000)">
                    <g id="iPhone">
                        <polygon id="Shape" points="0 0 64 0 64 64 0 64"></polygon>
                        <path d="M41.3333333,2.66666667 L20,2.66666667 C16.32,2.66666667 13.3333333,5.65333333 13.3333333,9.33333333 L13.3333333,54.6666667 C13.3333333,58.3466667 16.32,61.3333333 20,61.3333333 L41.3333333,61.3333333 C45.0133333,61.3333333 48,58.3466667 48,54.6666667 L48,9.33333333 C48,5.65333333 45.0133333,2.66666667 41.3333333,2.66666667 Z M30.6666667,58.6666667 C28.4533333,58.6666667 26.6666667,56.88 26.6666667,54.6666667 C26.6666667,52.4533333 28.4533333,50.6666667 30.6666667,50.6666667 C32.88,50.6666667 34.6666667,52.4533333 34.6666667,54.6666667 C34.6666667,56.88 32.88,58.6666667 30.6666667,58.6666667 Z M42.6666667,48 L18.6666667,48 L18.6666667,10.6666667 L42.6666667,10.6666667 L42.6666667,48 Z" id="Shape" fill="#DEDEDE"></path>
                    </g>
                </g>
                <g id="Group-2" transform="translate(274.000000, 68.000000)">
                    <ellipse id="Oval" fill="#FCFCFC" cx="45.5" cy="25" rx="15.5" ry="18"></ellipse>
                    <g id="Icons/70-Locked">
                        <g id="Locked">
                            <polygon id="Shape" points="0 0 92.6007371 0 92.6007371 92.6007371 0 92.6007371"></polygon>
                            <path d="M69.4505529,30.8669124 L65.5921888,30.8669124 L65.5921888,23.1501843 C65.5921888,12.5010995 56.9494533,3.85836405 46.3003686,3.85836405 C35.6512838,3.85836405 27.0085483,12.5010995 27.0085483,23.1501843 L27.0085483,30.8669124 L23.1501843,30.8669124 C18.9059838,30.8669124 15.4334562,34.33944 15.4334562,38.5836405 L15.4334562,77.167281 C15.4334562,81.4114814 18.9059838,84.884009 23.1501843,84.884009 L69.4505529,84.884009 C73.6947533,84.884009 77.167281,81.4114814 77.167281,77.167281 L77.167281,38.5836405 C77.167281,34.33944 73.6947533,30.8669124 69.4505529,30.8669124 Z M58.2612971,30.8669124 L34.33944,30.8669124 L34.33944,23.1501843 C34.33944,16.5523818 39.702566,11.1892557 46.3003686,11.1892557 C52.8981711,11.1892557 58.2612971,16.5523818 58.2612971,23.1501843 L58.2612971,30.8669124 Z" id="Shape" fill="#C8252C"></path>
                        </g>
                    </g>
                </g>
                <text id="192.123.133.41" font-family="ProximaNova-Semibold, Proxima Nova" font-size="24" font-weight="500" line-spacing="40" fill="#DEDEDE">
                    <tspan x="119" y="114">192.123.133.41</tspan>
                </text>
                <g id="Group-4" transform="translate(372.000000, 125.000000)" fill="#919191" font-family="ProximaNova-Regular, Proxima Nova" font-weight="normal" line-spacing="30">
                    <text id="***-***-***-***" font-size="48">
                        <tspan x="0" y="59">***</tspan>
                        <tspan x="53.064" y="72.72" font-size="24"> </tspan>
                        <tspan x="55.176" y="59">***</tspan>
                        <tspan x="108.24" y="72.72" font-size="24"> </tspan>
                        <tspan x="110.352" y="59">***</tspan>
                        <tspan x="163.416" y="72.72" font-size="24"> </tspan>
                        <tspan x="165.528" y="59">***</tspan>
                    </text>
                    <text id="." font-size="24">
                        <tspan x="49" y="24">.</tspan>
                    </text>
                    <text id="." font-size="24">
                        <tspan x="104" y="24">.</tspan>
                    </text>
                    <text id="." font-size="24">
                        <tspan x="159" y="24">.</tspan>
                    </text>
                </g>
            </g>
        </g>
    </g>
</svg>