<?xml version="1.0" encoding="UTF-8"?>
<svg width="622px" height="440px" viewBox="0 0 622 440" version="1.1" xmlns="http://www.w3.org/2000/svg" xmlns:xlink="http://www.w3.org/1999/xlink">
    <!-- Generator: Sketch 54.1 (76490) - https://sketchapp.com -->
    <title>Illustration 2</title>
    <desc>Created with Sketch.</desc>
    <g id="Welcome" stroke="none" stroke-width="1" fill="none" fill-rule="evenodd">
        <g id="Welcome-2" transform="translate(-34.000000, -232.000000)">
            <g id="Illustration-2" transform="translate(7.000000, 142.000000)">
                <path d="M654.351294,467.430666 C666.953903,446.435115 673.832327,423.753926 673.832327,400.091837 C673.832327,292.017251 530.339589,204.405488 353.332327,204.405488 C176.325065,204.405488 32.832327,292.017251 32.832327,400.091837 C32.832327,441.811168 55.6103038,481.066248 86.2722906,506.621391" id="Oval-Copy-3" stroke="#E4F2E6" stroke-width="4" stroke-linecap="round" transform="translate(353.332327, 355.513439) scale(1, -1) rotate(20.000000) translate(-353.332327, -355.513439) "></path>
                <g id="Group" transform="translate(119.000000, 169.000000)">
                    <path d="M403.739976,209.399988 L44.4599973,209.399988 L44.4599973,5.81999965 C44.4599973,2.63999984 47.0399972,0 50.279997,0 L397.919976,0 C401.099976,0 403.739976,2.57999985 403.739976,5.81999965 L403.739976,209.399988 Z" id="XMLID_2406_" fill="#595C5F"></path>
                    <rect id="XMLID_2407_" fill="#FFFFFF" x="59.4599965" y="15.2999991" width="329.33998" height="182.699989"></rect>
                    <path d="M445.139973,270.839984 L3.11999981,270.839984 C1.97999988,270.839984 1.19999993,269.939984 1.19999993,268.979984 C1.19999993,268.559984 0,259.979985 0,259.979985 L44.5199973,217.619987 L403.739976,217.619987 L448.259973,259.559985 C448.259973,259.559985 447.059973,268.559984 447.059973,268.979984 C446.999973,269.939984 446.219973,270.839984 445.139973,270.839984 Z" id="XMLID_2411_" fill="#7E7E7E"></path>
                    <path d="M446.339973,261.719984 L1.91999989,261.719984 C0.299999982,261.719984 -0.599999964,259.799985 0.479999971,258.539985 L44.5199973,208.439988 L403.739976,208.439988 L447.719973,258.539985 C448.799973,259.799985 447.959973,261.719984 446.339973,261.719984 Z" id="XMLID_2405_" fill="#9C9BA0"></path>
                    <g id="XMLID_4011_" transform="translate(48.719997, 211.739987)" fill="#595C5F">
                        <polygon id="XMLID_4079_" points="31.3199981 1.43999991 13.7399992 1.43999991 14.5799991 0.359999979 32.0399981 0.359999979"></polygon>
                        <polygon id="XMLID_4078_" points="35.0999979 4.55999973 11.2799993 4.55999973 12.9599992 2.45999985 36.5399978 2.45999985"></polygon>
                        <polygon id="XMLID_4077_" points="58.9199965 4.55999973 41.2799975 4.55999973 42.6599975 2.45999985 60.1199964 2.45999985"></polygon>
                        <polygon id="XMLID_4076_" points="69.3599959 7.85999953 51.4799969 7.85999953 52.7399969 5.69999966 70.4399958 5.69999966"></polygon>
                        <polygon id="XMLID_4075_" points="93.2399944 7.85999953 75.3599955 7.85999953 76.4399954 5.69999966 94.1399944 5.69999966"></polygon>
                        <polygon id="XMLID_4074_" points="117.479993 7.85999953 99.5999941 7.85999953 100.439994 5.69999966 118.139993 5.69999966"></polygon>
                        <polygon id="XMLID_4073_" points="141.779992 7.85999953 123.899993 7.85999953 124.439993 5.69999966 142.139992 5.69999966"></polygon>
                        <polygon id="XMLID_4072_" points="165.71999 7.85999953 147.899991 7.85999953 148.259991 5.69999966 165.95999 5.69999966"></polygon>
                        <polygon id="XMLID_4071_" points="189.899989 7.85999953 172.01999 7.85999953 172.19999 5.69999966 189.899989 5.69999966"></polygon>
                        <polygon id="XMLID_4070_" points="214.079987 7.85999953 196.199988 7.85999953 196.139988 5.69999966 213.839987 5.69999966"></polygon>
                        <polygon id="XMLID_4069_" points="238.079986 7.85999953 220.199987 7.85999953 219.899987 5.69999966 237.599986 5.69999966"></polygon>
                        <polygon id="XMLID_4068_" points="262.319984 7.85999953 244.439985 7.85999953 243.899985 5.69999966 261.599984 5.69999966"></polygon>
                        <polygon id="XMLID_4067_" points="286.619983 7.85999953 268.739984 7.85999953 267.959984 5.69999966 285.659983 5.69999966"></polygon>
                        <polygon id="XMLID_4066_" points="310.739981 7.85999953 292.859983 7.85999953 291.899983 5.69999966 309.599982 5.69999966"></polygon>
                        <polygon id="XMLID_4065_" points="79.4399953 11.2799993 61.2599963 11.2799993 62.4599963 9.05999946 80.4599952 9.05999946"></polygon>
                        <polygon id="XMLID_4064_" points="104.039994 11.2799993 85.9199949 11.2799993 86.8799948 9.05999946 104.819994 9.05999946"></polygon>
                        <polygon id="XMLID_4063_" points="128.639992 11.2799993 110.519993 11.2799993 111.239993 9.05999946 129.179992 9.05999946"></polygon>
                        <polygon id="XMLID_4062_" points="152.999991 11.2799993 134.879992 11.2799993 135.359992 9.05999946 153.359991 9.05999946"></polygon>
                        <polygon id="XMLID_4061_" points="177.539989 11.2799993 159.41999 11.2799993 159.65999 9.05999946 177.659989 9.05999946"></polygon>
                        <polygon id="XMLID_4060_" points="202.079988 11.2799993 183.959989 11.2799993 183.959989 9.05999946 201.959988 9.05999946"></polygon>
                        <polygon id="XMLID_4059_" points="226.439987 11.2799993 208.319988 11.2799993 208.079988 9.05999946 226.079987 9.05999946"></polygon>
                        <polygon id="XMLID_4058_" points="251.039985 11.2799993 232.919986 11.2799993 232.499986 9.05999946 250.439985 9.05999946"></polygon>
                        <polygon id="XMLID_4057_" points="275.699984 11.2799993 257.519985 11.2799993 256.859985 9.05999946 274.799984 9.05999946"></polygon>
                        <polygon id="XMLID_4056_" points="343.19998 11.2799993 282.059983 11.2799993 281.159983 9.05999946 341.69998 9.05999946"></polygon>
                        <polygon id="XMLID_4055_" points="90.1799946 14.8199991 71.7599957 14.8199991 72.8399957 12.5399993 91.0799946 12.5399993"></polygon>
                        <polygon id="XMLID_4054_" points="115.139993 14.8199991 96.7199942 14.8199991 97.5599942 12.5399993 115.799993 12.5399993"></polygon>
                        <polygon id="XMLID_4053_" points="69.6599958 18.4199989 50.999997 18.4199989 52.3199969 16.079999 70.7999958 16.079999"></polygon>
                        <polygon id="XMLID_4052_" points="100.979994 18.4199989 76.3799954 18.4199989 77.4599954 16.079999 101.819994 16.079999"></polygon>
                        <polygon id="XMLID_4051_" points="246.959985 18.4199989 108.119994 18.4199989 108.899994 16.079999 246.359985 16.079999"></polygon>
                        <polygon id="XMLID_4050_" points="278.519983 18.4199989 253.799985 18.4199989 253.139985 16.079999 277.559983 16.079999"></polygon>
                        <polygon id="XMLID_4049_" points="303.899982 18.4199989 284.879983 18.4199989 283.859983 16.079999 302.759982 16.079999"></polygon>
                        <polygon id="XMLID_4048_" points="334.55998 17.099999 333.83998 15.959999 321.299981 15.959999 321.959981 17.099999 309.299982 17.099999 309.959982 18.4199989 348.119979 18.4199989 347.219979 17.099999"></polygon>
                        <polygon id="XMLID_4047_" points="140.159992 14.8199991 121.739993 14.8199991 122.339993 12.5399993 140.579992 12.5399993"></polygon>
                        <polygon id="XMLID_4046_" points="164.87999 14.8199991 146.459991 14.8199991 146.819991 12.5399993 165.05999 12.5399993"></polygon>
                        <polygon id="XMLID_4045_" points="189.779989 14.8199991 171.35999 14.8199991 171.47999 12.5399993 189.719989 12.5399993"></polygon>
                        <polygon id="XMLID_4044_" points="214.679987 14.8199991 196.259988 14.8199991 196.139988 12.5399993 214.439987 12.5399993"></polygon>
                        <polygon id="XMLID_4043_" points="239.399986 14.8199991 220.979987 14.8199991 220.679987 12.5399993 238.919986 12.5399993"></polygon>
                        <polygon id="XMLID_4042_" points="264.419984 14.8199991 245.999985 14.8199991 245.399985 12.5399993 263.639984 12.5399993"></polygon>
                        <polygon id="XMLID_4041_" points="345.659979 14.8199991 271.019984 14.8199991 270.179984 12.5399993 344.099979 12.5399993"></polygon>
                        <polygon id="XMLID_4040_" points="340.85998 7.85999953 316.859981 7.85999953 315.659981 5.69999966 339.41998 5.69999966"></polygon>
                        <polygon id="XMLID_4039_" points="82.4999951 4.55999973 64.8599961 4.55999973 65.9999961 2.45999985 83.459995 2.45999985"></polygon>
                        <polygon id="XMLID_4038_" points="106.559994 4.55999973 88.9199947 4.55999973 89.8199946 2.45999985 107.279994 2.45999985"></polygon>
                        <polygon id="XMLID_4037_" points="130.619992 4.55999973 112.979993 4.55999973 113.699993 2.45999985 131.099992 2.45999985"></polygon>
                        <polygon id="XMLID_4036_" points="154.679991 4.55999973 137.099992 4.55999973 137.519992 2.45999985 154.979991 2.45999985"></polygon>
                        <polygon id="XMLID_4035_" points="178.499989 4.55999973 160.91999 4.55999973 161.09999 2.45999985 178.559989 2.45999985"></polygon>
                        <polygon id="XMLID_4034_" points="202.259988 4.55999973 184.619989 4.55999973 184.679989 2.45999985 202.079988 2.45999985"></polygon>
                        <polygon id="XMLID_4033_" points="225.899987 4.55999973 208.319988 4.55999973 208.079988 2.45999985 225.539987 2.45999985"></polygon>
                        <polygon id="XMLID_4032_" points="249.779985 4.55999973 232.199986 4.55999973 231.779986 2.45999985 249.179985 2.45999985"></polygon>
                        <polygon id="XMLID_4031_" points="273.299984 4.55999973 255.719985 4.55999973 255.059985 2.45999985 272.519984 2.45999985"></polygon>
                        <polygon id="XMLID_4030_" points="297.119982 4.55999973 279.479983 4.55999973 278.579983 2.45999985 296.039982 2.45999985"></polygon>
                        <polygon id="XMLID_4029_" points="338.57998 4.55999973 303.479982 4.55999973 302.399982 2.45999985 337.19998 2.45999985"></polygon>
                        <polygon id="XMLID_4028_" points="44.3999974 7.85999953 8.69999948 7.85999953 10.3799994 5.69999966 45.7199973 5.69999966"></polygon>
                        <polygon id="XMLID_4027_" points="55.0799967 11.2799993 6.05999964 11.2799993 7.73999954 9.05999946 56.3399966 9.05999946"></polygon>
                        <polygon id="XMLID_4026_" points="64.9199961 14.8199991 3.2999998 14.8199991 5.0399997 12.5399993 66.0599961 12.5399993"></polygon>
                        <polygon id="XMLID_4025_" points="43.5599974 18.4199989 0.479999971 18.4199989 2.27999986 16.079999 44.9999973 16.079999"></polygon>
                        <polygon id="XMLID_4024_" points="54.7799967 1.43999991 37.1999978 1.43999991 37.9199977 0.359999979 55.4399967 0.359999979"></polygon>
                        <polygon id="XMLID_4023_" points="78.2399953 1.43999991 60.6599964 1.43999991 61.3199963 0.359999979 78.7799953 0.359999979"></polygon>
                        <polygon id="XMLID_4022_" points="101.699994 1.43999991 84.179995 1.43999991 84.659995 0.359999979 102.119994 0.359999979"></polygon>
                        <polygon id="XMLID_4021_" points="125.219993 1.43999991 107.639994 1.43999991 107.999994 0.359999979 125.519993 0.359999979"></polygon>
                        <polygon id="XMLID_4020_" points="148.679991 1.43999991 131.099992 1.43999991 131.399992 0.359999979 148.859991 0.359999979"></polygon>
                        <polygon id="XMLID_4019_" points="172.13999 1.43999991 154.559991 1.43999991 154.739991 0.359999979 172.19999 0.359999979"></polygon>
                        <polygon id="XMLID_4018_" points="195.599988 1.43999991 178.079989 1.43999991 178.079989 0.359999979 195.599988 0.359999979"></polygon>
                        <polygon id="XMLID_4017_" points="219.119987 1.43999991 201.539988 1.43999991 201.419988 0.359999979 218.939987 0.359999979"></polygon>
                        <polygon id="XMLID_4016_" points="242.579986 1.43999991 224.999987 1.43999991 224.819987 0.359999979 242.279986 0.359999979"></polygon>
                        <polygon id="XMLID_4015_" points="266.039984 1.43999991 248.459985 1.43999991 248.159985 0.359999979 265.619984 0.359999979"></polygon>
                        <polygon id="XMLID_4014_" points="289.499983 1.43999991 271.979984 1.43999991 271.499984 0.359999979 289.019983 0.359999979"></polygon>
                        <polygon id="XMLID_4013_" points="313.019981 1.43999991 295.439982 1.43999991 294.899982 0.359999979 312.359981 0.359999979"></polygon>
                        <polygon id="XMLID_4012_" points="336.47998 1.43999991 318.899981 1.43999991 318.239981 0.359999979 335.69998 0.359999979"></polygon>
                    </g>
                    <path d="M284.219983,254.819985 L161.45999,254.819985 C159.239991,254.819985 157.979991,254.519985 158.099991,254.039985 L162.71999,238.139986 C162.77999,238.019986 163.67999,237.839986 164.33999,237.839986 L279.839983,237.839986 C281.459983,237.839986 282.479983,238.019986 282.539983,238.379986 L285.719983,254.459985 C285.839983,254.579985 284.939983,254.819985 284.219983,254.819985 Z" id="XMLID_4010_" fill="#7E7E7E"></path>
                    <g id="Icons/97-Security" transform="translate(174.000000, 53.000000)">
                        <g id="Security">
                            <polygon id="Shape" points="0 0 96 0 96 96 0 96"></polygon>
                            <path d="M48,4 L12,20 L12,44 C12,66.2 27.36,86.96 48,92 C68.64,86.96 84,66.2 84,44 L84,20 L48,4 Z M48,47.96 L76,47.96 C73.88,64.44 62.88,79.12 48,83.72 L48,48 L20,48 L20,25.2 L48,12.76 L48,47.96 Z" id="Shape" fill="#519E5D"></path>
                        </g>
                    </g>
                </g>
                <g id="Group-2" transform="translate(23.832327, 0.000000)">
                    <path d="M401.089125,466.524175 C512.816126,445.099676 593.849483,381.436703 593.849483,306.232432 C593.849483,213.448594 470.503932,138.232432 318.349483,138.232432 C166.195035,138.232432 42.8494834,213.448594 42.8494834,306.232432 C42.8494834,331.033544 59.7547084,362.561856 93.5651584,400.817369" id="Oval-Copy-2" stroke="#88CE92" stroke-width="4" stroke-linecap="round" transform="translate(318.349483, 302.378304) scale(-1, 1) rotate(20.000000) translate(-318.349483, -302.378304) "></path>
                    <path d="M541.391039,341.992722 L537.861212,340.043826 C553.140289,319.729284 561.009166,297.198484 561.009166,273.306079 C561.009166,184.593599 442.506802,112.204276 296.009166,112.204276 C149.51153,112.204276 31.0091657,184.593599 31.0091657,273.306079 C31.0091657,301.947584 43.3608309,329.532659 66.5355352,353.854818 L63.6396224,356.614109 C39.7915853,331.585279 27.0091657,303.038196 27.0091657,273.306079 C27.0091657,181.861282 147.586745,108.204276 296.009166,108.204276 C444.431586,108.204276 565.009166,181.861282 565.009166,273.306079 C565.009166,298.079249 557.183833,320.99516 541.391039,341.992722 Z" id="Oval-Copy-4" fill="#CDEFD2" fill-rule="nonzero" transform="translate(296.009166, 232.409193) scale(-1, 1) rotate(20.000000) translate(-296.009166, -232.409193) "></path>
                    <circle id="Oval" fill="#88CE92" cx="293.167673" cy="485" r="7"></circle>
                    <circle id="Oval" fill="#88CE92" cx="563.167673" cy="319" r="7"></circle>
                    <circle id="Oval-Copy-5" fill="#CDEFD2" cx="553.167673" cy="272" r="7"></circle>
                    <circle id="Oval-Copy-6" fill="#E4F2E6" cx="572.167673" cy="146" r="7"></circle>
                    <circle id="Oval-Copy-7" fill="#E4F2E6" cx="27.167673" cy="303" r="7"></circle>
                </g>
            </g>
        </g>
    </g>
</svg>