<?xml version="1.0" encoding="UTF-8"?>
<svg width="280px" height="140px" viewBox="0 0 280 140" version="1.1" xmlns="http://www.w3.org/2000/svg" xmlns:xlink="http://www.w3.org/1999/xlink">
    <title>B0BDD1C4-8C19-49B1-BDF6-03E5D5766243@0.5x</title>
    <defs>
        <linearGradient x1="-30.812298%" y1="-36.4320432%" x2="78.6998084%" y2="83.803199%" id="linearGradient-1">
            <stop stop-color="#F0EACF" offset="0%"></stop>
            <stop stop-color="#001D2F" offset="100%"></stop>
        </linearGradient>
        <rect id="path-2" x="0" y="0" width="112.491489" height="76.8688473" rx="3.6141844"></rect>
        <linearGradient x1="66.7499586%" y1="31.0997738%" x2="9.25634126%" y2="69.4312587%" id="linearGradient-4">
            <stop stop-color="#F0EACF" offset="0%"></stop>
            <stop stop-color="#365996" offset="100%"></stop>
        </linearGradient>
        <rect id="path-5" x="0" y="0" width="104.408269" height="57.6516354" rx="0.903546099"></rect>
        <linearGradient x1="50%" y1="0%" x2="50%" y2="100%" id="linearGradient-7">
            <stop stop-color="#365996" offset="0%"></stop>
            <stop stop-color="#F0EACF" offset="100%"></stop>
        </linearGradient>
        <path d="M1.23230029,0.0287296998 L53.8852914,0.0287296998 C54.2796343,0.0287296998 54.628428,0.284471895 54.7470147,0.660561646 L66.5136524,37.9776659 L66.5136524,37.9776659 L11.9658637,37.9776659 L0.370577028,1.20398995 C0.220513445,0.728073338 0.484669519,0.220616125 0.960586133,0.0705525416 C1.04849406,0.0428338641 1.14012583,0.0287296998 1.23230029,0.0287296998 Z" id="path-8"></path>
        <filter id="filter-10">
            <feColorMatrix in="SourceGraphic" type="matrix" values="0 0 0 0 1.000000 0 0 0 0 1.000000 0 0 0 0 1.000000 0 0 0 1.000000 0"></feColorMatrix>
        </filter>
    </defs>
    <g id="Errors" stroke="none" stroke-width="1" fill="none" fill-rule="evenodd">
        <g id="Error---License-revoked---Mac-Win" transform="translate(-35.000000, -30.000000)">
            <g id="Desktop-3" transform="translate(35.000000, 30.000000)">
                <g id="Group" transform="translate(56.000000, 0.000000)">
                    <circle id="Oval" fill="#F0EACF" cx="84" cy="70" r="70"></circle>
                    <g id="vpn-for-apple" transform="translate(0.000000, 25.000000)">
                        <g id="Group-5" transform="translate(20.329787, 11.294326)">
                            <rect id="Rectangle" stroke="#001D2F" stroke-width="2.7106383" x="5.06747842" y="1.35531915" width="17.5375032" height="11.479669" rx="4.5177305"></rect>
                            <rect id="Rectangle" fill="#001D2E" x="0" y="7.43301812" width="28.0099291" height="71.6272656"></rect>
                            <g id="Group-16" transform="translate(3.374690, 10.811663)" fill="url(#linearGradient-1)">
                                <ellipse id="Oval" cx="2.02481415" cy="2.02718676" rx="2.02481415" ry="2.02718676"></ellipse>
                                <ellipse id="Oval-Copy-19" cx="4.72456635" cy="7.09515366" rx="2.02481415" ry="2.02718676"></ellipse>
                                <ellipse id="Oval-Copy-22" cx="4.72456635" cy="17.2310875" rx="2.02481415" ry="2.02718676"></ellipse>
                                <ellipse id="Oval-Copy-15" cx="2.02481415" cy="12.1631206" rx="2.02481415" ry="2.02718676"></ellipse>
                                <ellipse id="Oval-Copy-23" cx="2.02481415" cy="22.2990544" rx="2.02481415" ry="2.02718676"></ellipse>
                                <ellipse id="Oval-Copy-12" cx="7.76178758" cy="2.02718676" rx="2.02481415" ry="2.02718676"></ellipse>
                                <ellipse id="Oval-Copy-20" cx="10.4615398" cy="7.09515366" rx="2.02481415" ry="2.02718676"></ellipse>
                                <ellipse id="Oval-Copy-24" cx="10.4615398" cy="17.2310875" rx="2.02481415" ry="2.02718676"></ellipse>
                                <ellipse id="Oval-Copy-16" cx="7.76178758" cy="12.1631206" rx="2.02481415" ry="2.02718676"></ellipse>
                                <ellipse id="Oval-Copy-25" cx="7.76178758" cy="22.2990544" rx="2.02481415" ry="2.02718676"></ellipse>
                                <ellipse id="Oval-Copy-13" cx="13.498761" cy="2.02718676" rx="2.02481415" ry="2.02718676"></ellipse>
                                <ellipse id="Oval-Copy-21" cx="16.1985132" cy="7.09515366" rx="2.02481415" ry="2.02718676"></ellipse>
                                <ellipse id="Oval-Copy-26" cx="16.1985132" cy="17.2310875" rx="2.02481415" ry="2.02718676"></ellipse>
                                <ellipse id="Oval-Copy-17" cx="13.498761" cy="12.1631206" rx="2.02481415" ry="2.02718676"></ellipse>
                                <ellipse id="Oval-Copy-27" cx="13.498761" cy="22.2990544" rx="2.02481415" ry="2.02718676"></ellipse>
                                <ellipse id="Oval-Copy-14" cx="19.2357344" cy="2.02718676" rx="2.02481415" ry="2.02718676"></ellipse>
                                <ellipse id="Oval-Copy-18" cx="19.2357344" cy="12.1631206" rx="2.02481415" ry="2.02718676"></ellipse>
                                <ellipse id="Oval-Copy-28" cx="19.2357344" cy="22.2990544" rx="2.02481415" ry="2.02718676"></ellipse>
                            </g>
                        </g>
                        <g id="Group-4" transform="translate(55.116312, 0.000000)">
                            <rect id="Rectangle" fill="#001D2F" x="42.4369092" y="87.6574574" width="27.617671" height="2.69715254"></rect>
                            <polygon id="Rectangle" fill="#001D2F" transform="translate(56.245745, 81.251720) rotate(-270.000000) translate(-56.245745, -81.251720) " points="49.8400074 71.1476941 62.651482 69.8004907 62.651482 92.7029496 49.8400074 91.3557461"></polygon>
                            <g id="Rectangle-5">
                                <mask id="mask-3" fill="white">
                                    <use xlink:href="#path-2"></use>
                                </mask>
                                <use id="Rectangle" fill="#001D2F" xlink:href="#path-2"></use>
                                <rect id="Rectangle" fill="#365996" mask="url(#mask-3)" x="0" y="65.743093" width="112.491489" height="11.1257542"></rect>
                            </g>
                            <g id="Rectangle-3" transform="translate(4.041610, 4.045729)">
                                <mask id="mask-6" fill="white">
                                    <use xlink:href="#path-5"></use>
                                </mask>
                                <use id="Rectangle" fill="url(#linearGradient-4)" xlink:href="#path-5"></use>
                                <path d="M-56.6340653,54.19564 C-50.5362817,54.19564 -36.8406686,48.7173177 -24.5864632,64.0573727 C-12.3322579,79.3974278 -12.0538669,62.0345083 4.78260698,38.4344236 C21.6190809,14.8343389 45.9761297,14.4971949 45.9761297,34.3886948 C45.9761297,54.2801948 83.5696589,20.9029321 93.0264668,41.8058643 C102.483275,62.7087964 118.242609,34.3886948 122.657601,32.3658304 C127.072594,30.342966 121.163022,124.538621 9.89659926,101.870661 C-101.369824,79.2027002 -62.7318489,54.19564 -56.6340653,54.19564 Z" id="Path-8" fill="#A0A0A0" style="mix-blend-mode: overlay;" mask="url(#mask-6)"></path>
                            </g>
                        </g>
                        <g id="Group-3" transform="translate(0.000000, 45.629078)">
                            <path d="M3.68367539,0 L55.9203087,0 C57.1067593,-5.2083588e-15 58.1553335,0.771595003 58.508251,1.90434138 L71.3017152,42.9670643 C71.5243679,43.6817048 71.125533,44.4415312 70.4108925,44.6641839 C70.2803728,44.7048485 70.1444518,44.7255319 70.007744,44.7255319 L15.2643972,44.7255319 C14.4734301,44.7255319 13.7743806,44.2111352 13.5391024,43.455971 L1.0957331,3.51693522 C0.65042761,2.08765416 1.44809741,0.568001506 2.87737847,0.122696015 C3.13841793,0.0413667998 3.41025987,1.38249324e-15 3.68367539,0 Z" id="Rectangle" fill="#001D2F"></path>
                            <path d="M14.2493639,40.9984043 L88.340144,40.9984043 C89.0886661,40.9984043 89.6954632,41.6052013 89.6954632,42.3537234 L89.6954632,42.8619681 C89.6954632,43.891186 88.8611172,44.7255319 87.8318994,44.7255319 L15.2093816,44.7255319 C14.1801637,44.7255319 13.3458178,43.891186 13.3458178,42.8619681 L13.3458178,41.9019504 C13.3458178,41.4029356 13.7503492,40.9984043 14.2493639,40.9984043 Z" id="Rectangle" fill="#365996"></path>
                            <g id="Group-6" transform="translate(2.305497, 1.665419)">
                                <mask id="mask-9" fill="white">
                                    <use xlink:href="#path-8"></use>
                                </mask>
                                <use id="Rectangle" fill="url(#linearGradient-7)" xlink:href="#path-8"></use>
                                <path d="M-2.45137244e-13,10.7863054 C6.09622439,10.7863054 19.7883355,5.2805914 32.0394073,20.6973467 C44.2904792,36.114102 44.568799,18.664368 61.4009678,-5.05371711 C78.2331365,-28.7718022 102.583957,-29.110632 102.583957,-9.11967456 C102.583957,10.8712829 140.167873,-22.672866 149.622263,-1.66541924 C159.076653,19.3420276 174.831958,-9.11967456 179.245821,-11.1526533 C183.659684,-13.185632 177.751624,81.4810014 66.5136524,58.6997011 C-44.7243194,35.9184008 -6.09622439,10.7863054 -2.45137244e-13,10.7863054 Z" id="Path-8" fill="#A0A0A0" style="mix-blend-mode: overlay;" mask="url(#mask-9)"></path>
                            </g>
                        </g>
                        <g id="Download-icon" transform="translate(96.000000, 20.000000)">
                            <g id="Group" opacity="0.2">
                                <rect id="Rectangle" x="0" y="0" width="32" height="32"></rect>
                            </g>
                            <g filter="url(#filter-10)" id="icon-(outlines)">
                                <g transform="translate(4.672626, 4.022668)">
                                    <path d="M16.3333333,15 L6.33333333,15 C2.83552992,15 0,17.8355299 0,21.3333333 L0,22.6258557 C0,23.3622354 0.596953667,23.959189 1.33333333,23.959189 L21.3333333,23.959189 C22.069713,23.959189 22.6666667,23.3622354 22.6666667,22.6258557 L22.6666667,21.3333333 C22.6666667,17.8355299 19.8311367,15 16.3333333,15 Z" id="Path" fill="#001D2F" fill-rule="nonzero"></path>
                                    <path d="M11.3333333,0 C7.83552992,0 5,2.83552992 5,6.33333333 C5,9.83113675 7.83552992,12.6666667 11.3333333,12.6666667 C14.8311367,12.6666667 17.6666667,9.83113675 17.6666667,6.33333333 C17.6666667,2.83552992 14.8311367,0 11.3333333,0 Z" id="Oval" fill="#001D2F" fill-rule="nonzero"></path>
                                </g>
                            </g>
                        </g>
                    </g>
                </g>
            </g>
        </g>
    </g>
</svg>