<?xml version="1.0" encoding="UTF-8"?>
<svg width="280px" height="140px" viewBox="0 0 280 140" version="1.1" xmlns="http://www.w3.org/2000/svg" xmlns:xlink="http://www.w3.org/1999/xlink">
    <title>Data 2</title>
    <defs>
        <linearGradient x1="-49.6134302%" y1="50%" x2="73.6334998%" y2="50%" id="linearGradient-1">
            <stop stop-color="#D4E300" offset="0%"></stop>
            <stop stop-color="#F0EACF" offset="100%"></stop>
        </linearGradient>
        <filter id="filter-2">
            <feColorMatrix in="SourceGraphic" type="matrix" values="0 0 0 0 1.000000 0 0 0 0 1.000000 0 0 0 0 1.000000 0 0 0 1.000000 0"></feColorMatrix>
        </filter>
    </defs>
    <g id="Onboarding" stroke="none" stroke-width="1" fill="none" fill-rule="evenodd">
        <g id="App-Installed---Onboarding-4" transform="translate(-35.000000, -84.000000)">
            <g id="Data-1" transform="translate(35.000000, 84.000000)">
                <circle id="Oval" fill="#D4E300" cx="140" cy="70" r="70"></circle>
                <g id="expressvpn-disconnected-router-cursor" transform="translate(68.000000, 21.000000)">
                    <rect id="Rectangle" fill="url(#linearGradient-1)" x="0.383870968" y="18.9677419" width="142.8" height="79.0322581" rx="3.16129032"></rect>
                    <rect id="Rectangle" fill="#FFFFFF" x="8.08387097" y="28.4516129" width="54.6" height="9.48387097" rx="1.89677419"></rect>
                    <rect id="Rectangle-Copy-21" fill="#FFFFFF" x="8.08387097" y="79.0322581" width="54.6" height="9.48387097" rx="1.89677419"></rect>
                    <rect id="Rectangle-Copy-16" fill="#FFFFFF" x="8.08387097" y="47.4193548" width="54.6" height="3.16129032" rx="1.58064516"></rect>
                    <rect id="Rectangle-Copy-17" fill="#FFFFFF" x="8.08387097" y="56.9032258" width="54.6" height="3.16129032" rx="1.58064516"></rect>
                    <rect id="Rectangle-Copy-20" fill="#FFFFFF" x="8.08387097" y="66.3870968" width="36.4" height="3.16129032" rx="1.58064516"></rect>
                    <rect id="Rectangle" fill="#001D2F" x="81.2" y="0" width="44.2580645" height="84" rx="3.16129032"></rect>
                    <circle id="Oval" fill="#D4E300" cx="94.7935484" cy="67.6516129" r="1.89677419"></circle>
                    <circle id="Oval-Copy-33" fill="#D4E300" cx="103.329032" cy="67.6516129" r="1.89677419"></circle>
                    <circle id="Oval-Copy-34" fill="#D4E300" cx="111.864516" cy="67.6516129" r="1.89677419"></circle>
                    <g id="Wi-Fi-icon" transform="translate(87.000000, 24.000000)">
                        <g id="Group" opacity="0.2">
                            <rect id="Rectangle" x="0" y="0" width="32" height="32"></rect>
                        </g>
                        <g filter="url(#filter-2)" id="icon-(outlines)">
                            <g transform="translate(4.643583, 5.287167)">
                                <path d="M1.86514327,0.0461666667 C2.54892439,0.0461666667 3.11248616,0.56088692 3.1895063,1.22400517 L3.19847661,1.3795 L3.19847661,20.2024826 C3.19847661,20.9388622 2.60152294,21.5358159 1.86514327,21.5358159 C1.18136216,21.5358159 0.617800394,21.0210956 0.54078025,20.3579774 L0.531809941,20.2024826 L0.531809941,1.3795 C0.531809941,0.643120334 1.12876361,0.0461666667 1.86514327,0.0461666667 Z" id="Path" fill="#001D2F" fill-rule="nonzero"></path>
                                <path d="M20.68975,18.8691492 C21.4261297,18.8691492 22.0230833,19.4661029 22.0230833,20.2024826 C22.0230833,20.8862637 21.5083631,21.4498254 20.8452448,21.5268456 L20.68975,21.5358159 L1.87686539,21.5358159 C1.14048573,21.5358159 0.543532059,20.9388622 0.543532059,20.2024826 C0.543532059,19.5187014 1.05825231,18.9551397 1.72137056,18.8781195 L1.87686539,18.8691492 L20.68975,18.8691492 Z" id="Path" fill="#001D2F" fill-rule="nonzero"></path>
                                <path d="M13.3313331,14.2917575 L13.1246189,14.277337 C13.0327694,14.2637246 12.9422063,14.2405476 12.8542474,14.2076772 L12.7446716,14.1610081 L12.6450484,14.107847 L12.5606419,14.0536692 L12.429376,13.9495062 L8.15241667,10.0995 L2.86405499,15.9264669 C2.36907889,16.4716767 1.52584165,16.5123991 0.980631894,16.017423 C0.477361348,15.560522 0.403949826,14.8068778 0.784945781,14.2648138 L0.889675798,14.1339999 L7.07098146,7.32537177 L7.18671863,7.21228555 L7.25063604,7.16032762 L7.36388571,7.08288942 C7.44606067,7.03277768 7.53245382,6.99232299 7.62151725,6.96154312 L7.7789323,6.91773874 L7.80080836,6.91326217 C7.88849449,6.89608987 7.97763267,6.88773961 8.06681379,6.8882856 L8.21018607,6.89694132 L8.40419526,6.93366435 L8.53869614,6.97748555 C8.66992035,7.02812384 8.7951177,7.10049941 8.90880828,7.19483323 L13.2084167,11.0621667 L19.6863144,3.65938859 C20.1712238,3.10520642 21.013574,3.04904974 21.5677561,3.53395914 C22.0793089,3.98156782 22.1665086,4.73374141 21.7955026,5.28269114 L21.6931856,5.41540088 L14.3123878,13.8504003 C14.2524546,13.9169928 14.1873342,13.9761401 14.1181901,14.027781 L14.012578,14.0990134 L13.8628717,14.1772143 L13.7136273,14.2329743 L13.5933294,14.2638333 L13.4539544,14.2851774 L13.3313331,14.2917575 Z" id="Shape" fill="#001D2F" fill-rule="nonzero"></path>
                            </g>
                        </g>
                    </g>
                </g>
            </g>
        </g>
    </g>
</svg>