<?xml version="1.0" encoding="UTF-8"?>
<svg width="310px" height="140px" viewBox="0 0 310 140" version="1.1" xmlns="http://www.w3.org/2000/svg" xmlns:xlink="http://www.w3.org/1999/xlink">
    <title>Error - App not installed</title>
    <defs>
        <linearGradient x1="50%" y1="-208.466569%" x2="50%" y2="131.333602%" id="linearGradient-1">
            <stop stop-color="#F0EACF" offset="0%"></stop>
            <stop stop-color="#001D2F" offset="100%"></stop>
        </linearGradient>
        <linearGradient x1="50%" y1="-208.466569%" x2="50%" y2="131.333602%" id="linearGradient-2">
            <stop stop-color="#F0EACF" offset="0%"></stop>
            <stop stop-color="#001D2F" offset="100%"></stop>
        </linearGradient>
        <linearGradient x1="0%" y1="28.4348616%" x2="100%" y2="68.8522634%" id="linearGradient-3">
            <stop stop-color="#F0EACF" offset="0.0491695804%"></stop>
            <stop stop-color="#DA3940" offset="100%"></stop>
        </linearGradient>
        <rect id="path-4" x="0.54353214" y="0" width="120.870404" height="79.38"></rect>
        <linearGradient x1="15.5359738%" y1="31.5293923%" x2="86.6932428%" y2="55.9122925%" id="linearGradient-6">
            <stop stop-color="#F0EACF" offset="0%"></stop>
            <stop stop-color="#DA3940" offset="100%"></stop>
        </linearGradient>
        <linearGradient x1="70.5767177%" y1="0%" x2="29.4232823%" y2="100%" id="linearGradient-7">
            <stop stop-color="#DA3940" offset="0%"></stop>
            <stop stop-color="#F0EACF" offset="100%"></stop>
        </linearGradient>
        <rect id="path-8" x="0" y="0" width="30.6" height="47.7" rx="2.62305699"></rect>
    </defs>
    <g id="Error---App-not-installed" stroke="none" stroke-width="1" fill="none" fill-rule="evenodd">
        <g id="v2" transform="translate(65.000000, 0.000000)">
            <circle id="Oval" fill="#DA3940" cx="90" cy="70" r="70"></circle>
            <g id="Group-3" transform="translate(0.000000, 8.000000)">
                <rect id="Rectangle" fill="#F0EACF" x="29.7" y="112.5" width="127.8" height="7.2"></rect>
                <g id="laptop-install-lilac" transform="translate(0.000000, 9.900000)">
                    <g id="Body" transform="translate(0.000000, 85.860000)" fill="#001D2F">
                        <polygon id="Rectangle" points="26.7699552 0 154.130045 0 180.9 21.06 0 21.06"></polygon>
                        <path d="M0,21.06 L180.9,21.06 L180.9,24.948 C180.9,26.3795221 179.739522,27.54 178.308,27.54 L2.592,27.54 C1.16047793,27.54 -1.60104595e-15,26.3795221 0,24.948 L0,21.06 L0,21.06 Z" id="Rectangle"></path>
                    </g>
                    <path d="M61.8721561,97.2 L119.027844,97.2 C119.170596,97.2 119.309354,97.2471386 119.422566,97.3340947 L128.280987,104.138095 C128.564809,104.356093 128.61817,104.7629 128.400171,105.046722 C128.277522,105.206404 128.087614,105.3 127.886265,105.3 L53.0137346,105.3 C52.6558541,105.3 52.3657346,105.009881 52.3657346,104.652 C52.3657346,104.450652 52.4593308,104.260744 52.6190128,104.138095 L61.4774343,97.3340947 C61.5906461,97.2471386 61.7294036,97.2 61.8721561,97.2 Z" id="Trackpad" fill="url(#linearGradient-1)"></path>
                    <path d="M30.2386543,87.48 L150.661346,87.48 C150.806378,87.48 150.947218,87.5286541 151.061324,87.6181754 L160.766355,95.2321754 C161.047923,95.4530775 161.097103,95.8604102 160.876201,96.1419786 C160.753361,96.2985537 160.565387,96.39 160.366376,96.39 L20.5336238,96.39 C20.1757432,96.39 19.8856238,96.0998805 19.8856238,95.742 C19.8856238,95.5429891 19.9770701,95.3550151 20.1336452,95.2321754 L29.8386757,87.6181754 C29.9527823,87.5286541 30.093622,87.48 30.2386543,87.48 Z" id="Keyboard" fill="url(#linearGradient-2)"></path>
                    <path d="M29.3619552,0 L151.538045,0 C152.969567,-2.62966338e-16 154.130045,1.16047793 154.130045,2.592 L154.130045,85.86 L154.130045,85.86 L26.7699552,85.86 L26.7699552,2.592 C26.7699552,1.16047793 27.9304331,-1.06930129e-15 29.3619552,0 Z" id="Bezels" fill="#001D2F"></path>
                    <g id="Group-2" transform="translate(29.471266, 3.240000)">
                        <mask id="mask-5" fill="white">
                            <use xlink:href="#path-4"></use>
                        </mask>
                        <use id="Screen" fill="url(#linearGradient-3)" xlink:href="#path-4"></use>
                        <path d="M-8.17585876,28.1515557 C12.0708273,43.3583946 68.4312041,73.6552402 55.8885157,42.4345293 C46.4691718,18.988311 69.506607,26.3245293 86.2085873,40.7336633 C97.2356655,50.2469452 125.359739,61.6223513 135.228734,49.5202801 C159.751685,19.448474 131.818286,126.341007 82.0835269,122.804529 C55.7117193,120.929316 5.68086658,111.693619 -19.5488566,86.9845293 C-41.9000285,65.0945898 -27.7437705,13.4545293 -8.17585876,28.1515557 Z" id="Path" fill="url(#linearGradient-6)" mask="url(#mask-5)"></path>
                    </g>
                </g>
                <g id="Group" transform="translate(132.300000, 0.000000)">
                    <mask id="mask-9" fill="white">
                        <use xlink:href="#path-8"></use>
                    </mask>
                    <use id="Rectangle" fill="url(#linearGradient-7)" xlink:href="#path-8"></use>
                    <g id="solid/[Help]" mask="url(#mask-9)">
                        <g transform="translate(5.700000, 13.800000)" id="icon-(outlines)">
                            <g transform="translate(0.240000, 0.240000)">
                                <path d="M9.72,0 C15.0882078,0 19.44,4.35179223 19.44,9.72 C19.44,15.0882078 15.0882078,19.44 9.72,19.44 C4.35179223,19.44 0,15.0882078 0,9.72 C0,4.35179223 4.35179223,0 9.72,0 Z M9.72987429,12.5897143 L9.59404918,12.5969802 C9.05692341,12.6593666 8.64,13.1158516 8.64,13.6697143 C8.64,14.2661818 9.12353247,14.7497143 9.72987429,14.7497143 L9.72987429,14.7497143 L9.8558251,14.7424483 C10.3929509,14.680062 10.8098743,14.223577 10.8098743,13.6697143 C10.8098743,13.0732468 10.3263418,12.5897143 9.72987429,12.5897143 L9.72987429,12.5897143 Z M9.72,4.69028571 C9.12353247,4.69028571 8.64,5.17381818 8.64,5.77028571 L8.64,5.77028571 L8.64,9.72 L8.64726595,9.84595082 C8.70965227,10.3830766 9.16613729,10.8 9.72,10.8 C10.3164675,10.8 10.8,10.3164675 10.8,9.72 L10.8,9.72 L10.8,5.77028571 L10.7927341,5.6443349 C10.7303477,5.10720912 10.2738627,4.69028571 9.72,4.69028571 Z" id="Combined-Shape" fill="#F0EACF" fill-rule="nonzero"></path>
                            </g>
                        </g>
                    </g>
                </g>
            </g>
        </g>
    </g>
</svg>