<?xml version="1.0" encoding="UTF-8"?>
<svg width="310px" height="140px" viewBox="0 0 310 140" version="1.1" xmlns="http://www.w3.org/2000/svg" xmlns:xlink="http://www.w3.org/1999/xlink">
    <title>Error - Chrome OS not supported</title>
    <defs>
        <linearGradient x1="50%" y1="-208.279994%" x2="50%" y2="141.409973%" id="linearGradient-1">
            <stop stop-color="#F0EACF" offset="0%"></stop>
            <stop stop-color="#001D2F" offset="100%"></stop>
        </linearGradient>
        <linearGradient x1="50%" y1="-208.279994%" x2="50%" y2="141.409973%" id="linearGradient-2">
            <stop stop-color="#F0EACF" offset="0%"></stop>
            <stop stop-color="#001D2F" offset="100%"></stop>
        </linearGradient>
        <linearGradient x1="0%" y1="28.4348616%" x2="94.6335856%" y2="85.958945%" id="linearGradient-3">
            <stop stop-color="#F4A377" offset="0%"></stop>
            <stop stop-color="#F0EACF" offset="99.9808785%"></stop>
        </linearGradient>
        <rect id="path-4" x="0.314798206" y="1.91846539e-14" width="120.870404" height="79.38"></rect>
        <linearGradient x1="19.2609409%" y1="38.8443733%" x2="58.4321389%" y2="60.0910206%" id="linearGradient-6">
            <stop stop-color="#F4A377" offset="0%"></stop>
            <stop stop-color="#F0EACF" offset="100%"></stop>
        </linearGradient>
    </defs>
    <g id="Error---Chrome-OS-not-supported" stroke="none" stroke-width="1" fill="none" fill-rule="evenodd">
        <g id="v2" transform="translate(65.000000, 0.000000)">
            <circle id="Oval" fill="#F4A377" cx="90" cy="70" r="70"></circle>
            <g id="Group-3" transform="translate(0.000000, 7.000000)">
                <rect id="Rectangle" fill="#F0EACF" x="29.7" y="113.4" width="127.8" height="7.2"></rect>
                <g id="laptop-install-lilac" transform="translate(0.000000, 10.800000)">
                    <g id="Body" transform="translate(0.000000, 85.860000)" fill="#001D2F">
                        <polygon id="Rectangle" points="26.7699552 0 154.130045 0 180.9 21.06 0 21.06"></polygon>
                        <path d="M0,21.06 L180.9,21.06 L180.9,24.948 C180.9,26.3795221 179.739522,27.54 178.308,27.54 L2.592,27.54 C1.16047793,27.54 -1.60104595e-15,26.3795221 0,24.948 L0,21.06 L0,21.06 Z" id="Rectangle"></path>
                    </g>
                    <path d="M61.8721561,97.2 L119.027844,97.2 C119.170596,97.2 119.309354,97.2471386 119.422566,97.3340947 L128.280987,104.138095 C128.564809,104.356093 128.61817,104.7629 128.400171,105.046722 C128.277522,105.206404 128.087614,105.3 127.886265,105.3 L53.0137346,105.3 C52.6558541,105.3 52.3657346,105.009881 52.3657346,104.652 C52.3657346,104.450652 52.4593308,104.260744 52.6190128,104.138095 L61.4774343,97.3340947 C61.5906461,97.2471386 61.7294036,97.2 61.8721561,97.2 Z" id="Trackpad" fill="url(#linearGradient-1)"></path>
                    <path d="M30.2386543,87.48 L150.661346,87.48 C150.806378,87.48 150.947218,87.5286541 151.061324,87.6181754 L160.766355,95.2321754 C161.047923,95.4530775 161.097103,95.8604102 160.876201,96.1419786 C160.753361,96.2985537 160.565387,96.39 160.366376,96.39 L20.5336238,96.39 C20.1757432,96.39 19.8856238,96.0998805 19.8856238,95.742 C19.8856238,95.5429891 19.9770701,95.3550151 20.1336452,95.2321754 L29.8386757,87.6181754 C29.9527823,87.5286541 30.093622,87.48 30.2386543,87.48 Z" id="Keyboard" fill="url(#linearGradient-2)"></path>
                    <path d="M29.3619552,0 L151.538045,0 C152.969567,-2.62966338e-16 154.130045,1.16047793 154.130045,2.592 L154.130045,85.86 L154.130045,85.86 L26.7699552,85.86 L26.7699552,2.592 C26.7699552,1.16047793 27.9304331,-1.06930129e-15 29.3619552,0 Z" id="Bezels" fill="#001D2F"></path>
                    <g id="Group-2" transform="translate(29.700000, 3.240000)">
                        <mask id="mask-5" fill="white">
                            <use xlink:href="#path-4"></use>
                        </mask>
                        <use id="Screen" fill="url(#linearGradient-3)" xlink:href="#path-4"></use>
                        <path d="M-23.7909543,57.7655187 C11.3753374,34.9575905 76.8372484,16.7242094 68.9068812,34.5337477 C60.976514,52.343286 66.5218714,60.6880815 90.2009666,48.4024158 C113.880062,36.1167501 177.28881,11.1715938 171.973027,44.9832242 C166.657244,78.7948545 94.5,136.905102 47.25,122.879978 C-6.39488462e-14,108.854854 -58.9572461,80.5734468 -23.7909543,57.7655187 Z" id="Path" fill="url(#linearGradient-6)" mask="url(#mask-5)"></path>
                        <rect id="Rectangle" fill="#F4A377" mask="url(#mask-5)" x="37.8" y="5.76" width="46.8" height="5.4" rx="2.7"></rect>
                        <circle id="Oval" fill="#F4A377" mask="url(#mask-5)" cx="47.25" cy="72.81" r="3.15"></circle>
                        <circle id="Oval" fill="#F4A377" mask="url(#mask-5)" cx="74.25" cy="72.81" r="3.15"></circle>
                        <circle id="Oval" fill="#F4A377" mask="url(#mask-5)" cx="60.75" cy="72.81" r="3.15"></circle>
                    </g>
                </g>
                <g id="Group" transform="translate(12.600000, 0.000000)">
                    <circle id="Oval" fill="#F0EACF" cx="19.8" cy="19.8" r="19.8"></circle>
                    <g id="solid/[Error]-" transform="translate(8.400000, 8.400000)" fill="#001D2F" fill-rule="nonzero">
                        <g id="icon-(outlines)" transform="translate(0.600000, 0.600000)">
                            <path d="M10.8,0 C16.7646753,0 21.6,4.8353247 21.6,10.8 C21.6,16.7646753 16.7646753,21.6 10.8,21.6 C4.8353247,21.6 0,16.7646753 0,10.8 C0,4.8353247 4.8353247,0 10.8,0 Z M10.8109714,13.9885714 L10.6600546,13.9966447 C10.0632482,14.0659628 9.6,14.5731684 9.6,15.1885714 C9.6,15.8513131 10.1372583,16.3885714 10.8109714,16.3885714 L10.8109714,16.3885714 L10.9509168,16.3804982 C11.5477232,16.31118 12.0109714,15.8039744 12.0109714,15.1885714 C12.0109714,14.5258297 11.4737131,13.9885714 10.8109714,13.9885714 L10.8109714,13.9885714 Z M10.8,5.21142857 C10.1372583,5.21142857 9.6,5.74868687 9.6,6.41142857 L9.6,6.41142857 L9.6,10.8 L9.60807328,10.9399454 C9.67739141,11.5367518 10.184597,12 10.8,12 C11.4627417,12 12,11.4627417 12,10.8 L12,10.8 L12,6.41142857 L11.9919267,6.27148322 C11.9226086,5.6746768 11.415403,5.21142857 10.8,5.21142857 Z" id="Combined-Shape"></path>
                        </g>
                    </g>
                </g>
            </g>
        </g>
    </g>
</svg>