<?xml version="1.0" encoding="UTF-8"?>
<svg width="280px" height="140px" viewBox="0 0 280 140" version="1.1" xmlns="http://www.w3.org/2000/svg" xmlns:xlink="http://www.w3.org/1999/xlink">
    <title>Laptop 1</title>
    <defs>
        <linearGradient x1="4.85184494%" y1="25.851143%" x2="92.0606317%" y2="50%" id="linearGradient-1">
            <stop stop-color="#CFE600" offset="0%"></stop>
            <stop stop-color="#F0EACF" offset="100%"></stop>
        </linearGradient>
        <polygon id="path-2" points="0.127532673 0 168.589189 0 168.589189 72.8 25.1685324 72.8"></polygon>
        <linearGradient x1="100%" y1="50%" x2="0%" y2="50%" id="linearGradient-4">
            <stop stop-color="#D4E300" offset="0%"></stop>
            <stop stop-color="#001D2F" offset="100%"></stop>
        </linearGradient>
        <linearGradient x1="100%" y1="50%" x2="0%" y2="50%" id="linearGradient-5">
            <stop stop-color="#D4E300" offset="0%"></stop>
            <stop stop-color="#001D2F" offset="100%"></stop>
        </linearGradient>
        <linearGradient x1="0%" y1="50%" x2="100%" y2="50%" id="linearGradient-6">
            <stop stop-color="#001D2F" offset="0%"></stop>
            <stop stop-color="#D4E300" offset="100%"></stop>
        </linearGradient>
    </defs>
    <g id="Laptop-1" stroke="none" stroke-width="1" fill="none" fill-rule="evenodd">
        <g id="Group" transform="translate(49.000000, 0.000000)">
            <circle id="Oval" fill="#D4E300" cx="91" cy="70" r="70"></circle>
            <g id="windows-machines-icon" transform="translate(0.000000, 31.000000)">
                <path d="M5.5177564,0 L111.592342,0 C113.271648,-1.42681819e-14 114.765914,1.06567592 115.312888,2.65340635 L141.172973,77.7189189 L141.172973,77.7189189 L28.2005379,77.7189189 C27.3470445,77.7189189 26.587596,77.1772979 26.3096012,76.370347 L1.79721076,5.21686392 C1.0893315,3.1620633 2.181227,0.922468757 4.23602761,0.214589496 C4.64842497,0.0725185175 5.08157325,5.40919606e-15 5.5177564,0 Z" id="Rectangle" fill="#001D2F"></path>
                <g id="Group-9" transform="translate(5.410811, 4.918919)">
                    <polygon id="Rectangle" fill="url(#linearGradient-1)" points="0.127532673 1.42108547e-14 107.120895 1.42108547e-14 132.161895 72.8 25.1685324 72.8"></polygon>
                    <mask id="mask-3" fill="white">
                        <use xlink:href="#path-2"></use>
                    </mask>
                    <g id="Rectangle"></g>
                    <path d="M-5.25289222,47.20625 L54.563602,47.20625 C55.1535984,47.20625 55.6822994,47.5706089 55.8923309,48.121955 L56.0851528,48.628125 C56.2913125,49.1693074 56.0197229,49.7751479 55.4785404,49.9813075 C55.3593266,50.0267212 55.2328263,50.05 55.1052553,50.05 L-4.71123885,50.05 C-5.30123528,50.05 -5.82993626,49.6856411 -6.03996773,49.134295 L-6.23278967,48.628125 C-6.43894934,48.0869426 -6.16735974,47.4811021 -5.62617733,47.2749425 C-5.50696344,47.2295288 -5.3804632,47.20625 -5.25289222,47.20625 Z" id="Rectangle" fill="url(#linearGradient-4)" mask="url(#mask-3)"></path>
                    <path d="M35.30597,15.35625 L95.1180998,15.35625 C95.7128154,15.35625 96.2447043,15.7263753 96.4513656,16.2840291 L96.6344729,16.778125 C96.8369831,17.3245774 96.5581628,17.9317315 96.0117105,18.1342416 C95.8943519,18.1777336 95.7701917,18.2 95.6450334,18.2 L35.8329036,18.2 C35.238188,18.2 34.7062991,17.8298747 34.4996378,17.2722209 L34.3165305,16.778125 C34.1140203,16.2316726 34.3928406,15.6245185 34.9392929,15.4220084 C35.0566515,15.3785164 35.1808117,15.35625 35.30597,15.35625 Z" id="Rectangle-Copy-6" fill="url(#linearGradient-5)" mask="url(#mask-3)"></path>
                    <g id="Group-8" mask="url(#mask-3)">
                        <g transform="translate(0.412089, 23.603125)" id="Rectangle">
                            <path d="M0,3.55271368e-15 L158.9,3.55271368e-15 C163.925791,1.32876318e-14 168,4.07420878 168,9.1 C168,14.1257912 163.925791,18.2 158.9,18.2 L0,18.2 L0,18.2 L0,3.55271368e-15 Z" fill="#F0EACF"></path>
                            <path d="M0,1.990625 L158.890625,1.990625 C162.817024,1.990625 166,5.17360061 166,9.1 C166,13.0263994 162.817024,16.209375 158.890625,16.209375 L0,16.209375 L0,16.209375 L0,1.990625 Z" fill="url(#linearGradient-6)"></path>
                        </g>
                    </g>
                </g>
                <path d="M26.5621622,68.372973 L181,68.372973 C181.552285,68.372973 182,68.8206882 182,69.372973 L182,76.7189189 C182,77.2712037 181.552285,77.7189189 181,77.7189189 L28.8544715,77.7189189 C28.3607502,77.7189189 27.9409201,77.3585942 27.8660396,76.8705844 L26.5621622,68.372973 L26.5621622,68.372973 Z" id="Rectangle" fill="#001D2F"></path>
                <g id="Download-icon" transform="translate(130.000000, 13.000000)">
                    <g id="Group" opacity="0.2">
                        <rect id="Rectangle" x="0" y="0" width="32" height="32"></rect>
                    </g>
                    <g id="icon-(outlines)" transform="translate(9.003401, 5.333333)" stroke="#001D2F" stroke-linecap="round" stroke-linejoin="round" stroke-width="2.65762712">
                        <line x1="6.99659864" y1="0" x2="6.99659864" y2="21.3333333" id="Path"></line>
                        <path d="M12.7108844,2.66666667 L4.13945582,2.66666667 C1.93031683,2.66666667 0.139455824,4.45752767 0.139455824,6.66666667 C0.139455824,8.87580567 1.93031683,10.6666667 4.13945582,10.6666667 L9.85374154,10.6666667 C12.0628805,10.6666667 13.8537415,12.4575277 13.8537415,14.6666667 C13.8537415,16.8758056 12.0628805,18.6666667 9.85374154,18.6666667 L0.139455824,18.6666667" id="Path"></path>
                    </g>
                </g>
            </g>
        </g>
    </g>
</svg>