<?xml version="1.0" encoding="UTF-8"?>
<svg width="310px" height="140px" viewBox="0 0 310 140" version="1.1" xmlns="http://www.w3.org/2000/svg" xmlns:xlink="http://www.w3.org/1999/xlink">
    <title>Error - App not found</title>
    <defs>
        <linearGradient x1="0%" y1="47.0239567%" x2="100%" y2="66.2038346%" id="linearGradient-1">
            <stop stop-color="#B6D1D0" offset="0%"></stop>
            <stop stop-color="#001D2F" offset="100%"></stop>
        </linearGradient>
        <linearGradient x1="29.0294785%" y1="-2.30110415%" x2="70.9705215%" y2="100%" id="linearGradient-2">
            <stop stop-color="#F0EACF" stop-opacity="0" offset="0%"></stop>
            <stop stop-color="#F0EACF" offset="63.6223369%"></stop>
            <stop stop-color="#F0EACF" offset="100%"></stop>
        </linearGradient>
    </defs>
    <g id="Error---App-not-found" stroke="none" stroke-width="1" fill="none" fill-rule="evenodd">
        <g id="Group-4" transform="translate(80.000000, 0.000000)">
            <circle id="Oval" fill="#B6D1D0" cx="80" cy="70" r="70"></circle>
            <g id="Group-5" transform="translate(0.000000, 11.000000)">
                <g id="Group-2" fill-rule="nonzero">
                    <path d="M18.1252174,6.82121026e-14 L71.4956522,6.82121026e-14 C81.5045751,6.82121026e-14 89.6189488,8.11281635 89.6208696,18.1217391 L89.6208696,18.1217391 C89.6208696,28.1320203 81.5059333,36.2469565 71.4956522,36.2469565 L64.1391304,36.2469565 L64.1391304,51.0191304 L49.3669565,36.2469565 L18.1321739,36.2469565 C13.3238622,36.248802 8.71185488,34.3400011 5.31121253,30.9406634 C1.91057018,27.5413257 0,22.9300512 0,18.1217391 L0,18.1217391 C0.0019207298,8.11281635 8.11629443,6.82121026e-14 18.1252174,6.82121026e-14 Z" id="Path" fill="url(#linearGradient-1)"></path>
                    <g id="solid/[Help]" transform="translate(33.400000, 6.200000)" fill="#F0EACF">
                        <g id="icon-(outlines)" transform="translate(0.600000, 0.600000)">
                            <path d="M10.8,0 C16.7646753,0 21.6,4.8353247 21.6,10.8 C21.6,16.7646753 16.7646753,21.6 10.8,21.6 C4.8353247,21.6 0,16.7646753 0,10.8 C0,4.8353247 4.8353247,0 10.8,0 Z M10.8096,14.4 L10.6600546,14.4080733 C10.0632482,14.4773914 9.6,14.984597 9.6,15.6 C9.6,16.2627417 10.1372583,16.8 10.8096,16.8 L10.8096,16.8 L10.9495454,16.7919267 C11.5463518,16.7226086 12.0096,16.215403 12.0096,15.6 C12.0096,14.9372583 11.4723417,14.4 10.8096,14.4 L10.8096,14.4 Z M11.4129585,4.85443622 C9.45212039,4.51810036 7.53459282,5.6450482 6.87439867,7.52178776 C6.65447212,8.14697484 6.98300069,8.83207479 7.60818776,9.05200133 C8.23337484,9.27192788 8.91847479,8.94339931 9.13840133,8.31821224 L9.13840133,8.31821224 L9.19952515,8.16786077 C9.51560127,7.48624338 10.2536431,7.09063253 11.0072201,7.21989101 C11.8146241,7.35838227 12.4044231,8.05901868 12.4032046,8.87821501 C12.4032032,9.23432971 12.0980288,9.64122847 11.4975619,10.0415393 C11.2440843,10.2105242 10.9651836,10.3592711 10.6858348,10.4834259 C10.6528773,10.4980737 10.6216321,10.5116506 10.59229,10.5241467 L10.59229,10.5241467 L10.2135162,10.6734935 C9.66925617,10.927981 9.39017259,11.5556503 9.58477991,12.1394729 C9.79435703,12.768205 10.4739409,13.1079972 11.1026729,12.8984201 C11.55511,12.7476079 12.185138,12.4675958 12.8288413,12.0384607 C14.0283764,11.2387715 14.8032078,10.2056703 14.8032078,8.88 C14.8061612,6.8923138 13.3737953,5.19077187 11.4129585,4.85443622 Z" id="Combined-Shape"></path>
                        </g>
                    </g>
                </g>
                <g id="Group" transform="translate(88.000000, 32.800000)">
                    <path d="M4,0 L50.4,0 C52.609139,7.44262609e-15 54.4,1.790861 54.4,4 L54.4,80 C54.4,82.209139 52.609139,84 50.4,84 L4,84 C1.790861,84 8.11897984e-15,82.209139 0,80 L0,4 C-2.705415e-16,1.790861 1.790861,4.05812251e-16 4,0 Z" id="Rectangle" fill="url(#linearGradient-2)"></path>
                    <path d="M10.4,6.4 L44,6.4 C46.209139,6.4 48,8.190861 48,10.4 L48,73.6 C48,75.809139 46.209139,77.6 44,77.6 L10.4,77.6 C8.190861,77.6 6.4,75.809139 6.4,73.6 L6.4,10.4 C6.4,8.190861 8.190861,6.4 10.4,6.4 Z" id="Rectangle" stroke="#001D2F" stroke-width="2.4" stroke-linecap="round" stroke-linejoin="round" stroke-dasharray="9.600000000000001,11.2"></path>
                    <g id="solid/[EV-logo]-" transform="translate(18.600000, 35.800000)" fill="#001D2F">
                        <g id="icon-(outlines)" transform="translate(0.600000, 0.200000)">
                            <path d="M4.04796416,12.5269466 C2.29882531,12.5269466 1.18268908,11.5439161 1.18268908,10.1778314 C1.18268908,9.72822439 1.31604496,9.17853793 1.832455,8.0624017 L0,8.0624017 L1.68233581,4.46404454 L13.3931344,4.46404454 C13.6598462,4.46404454 13.8429916,4.264386 13.8429916,4.03120085 C13.8429916,3.7980157 13.6598462,3.59810696 13.3931344,3.59810696 L3.91485847,3.59810696 L4.74751962,1.81594189 C5.26392966,0.716318771 6.38006589,0 7.59603139,0 L11.5774427,0 C13.876268,0 15.5756173,1.58250654 15.5756173,3.6481467 C15.5756173,6.09684101 13.3265816,8.0624017 10.7280182,8.0624017 L3.03190739,8.0624017 C2.79847204,8.54578551 3.06518381,8.92883967 3.63138339,8.92883967 L9.76175101,8.92883967 C10.7778078,8.92883967 11.5606794,9.64490824 11.5606794,10.5613859 C11.5606794,11.6107191 10.5448728,12.5269466 9.39520997,12.5269466 L4.04796416,12.5269466 L4.04796416,12.5269466 Z" id="Path"></path>
                        </g>
                    </g>
                </g>
            </g>
        </g>
    </g>
</svg>