<?xml version="1.0" encoding="UTF-8"?>
<svg width="280px" height="140px" viewBox="0 0 280 140" version="1.1" xmlns="http://www.w3.org/2000/svg" xmlns:xlink="http://www.w3.org/1999/xlink">
    <title>Extension Onboarding - Desktop</title>
    <defs>
        <linearGradient x1="-6.00541383%" y1="72.0483592%" x2="100%" y2="31.9274194%" id="linearGradient-1">
            <stop stop-color="#001D2F" offset="0%"></stop>
            <stop stop-color="#F0EACF" offset="100%"></stop>
        </linearGradient>
        <rect id="path-2" x="0" y="0" width="96.4702073" height="57.9987047" rx="2.91450777"></rect>
        <linearGradient x1="0%" y1="48.595916%" x2="50%" y2="51.2842177%" id="linearGradient-4">
            <stop stop-color="#F0EACF" offset="0%"></stop>
            <stop stop-color="#001D2F" offset="100%"></stop>
        </linearGradient>
        <linearGradient x1="14.0907543%" y1="8.10090375%" x2="80.053695%" y2="63.687803%" id="linearGradient-5">
            <stop stop-color="#0F866C" stop-opacity="0.70036604" offset="0%"></stop>
            <stop stop-color="#D4E300" stop-opacity="0" offset="100%"></stop>
        </linearGradient>
        <linearGradient x1="50%" y1="11.7361155%" x2="50%" y2="127.711323%" id="linearGradient-6">
            <stop stop-color="#F9F8F2" offset="0%"></stop>
            <stop stop-color="#F0EACF" offset="100%"></stop>
        </linearGradient>
        <rect id="path-7" x="0" y="0" width="46.6321244" height="69.9481865" rx="2.91450777"></rect>
        <rect id="path-9" x="0" y="0" width="46.6321244" height="26.4248705"></rect>
        <radialGradient cx="50%" cy="50%" fx="50%" fy="50%" r="50%" id="radialGradient-11">
            <stop stop-color="#0F866C" offset="0%"></stop>
            <stop stop-color="#D4E300" offset="100%"></stop>
        </radialGradient>
        <linearGradient x1="50%" y1="11.7361155%" x2="50%" y2="127.711323%" id="linearGradient-12">
            <stop stop-color="#F9F8F2" offset="0%"></stop>
            <stop stop-color="#F0EACF" offset="100%"></stop>
        </linearGradient>
        <rect id="path-13" x="0" y="0" width="23.3160622" height="34.9740933" rx="1.45725389"></rect>
        <rect id="path-15" x="0" y="0" width="23.3160622" height="13.2124352"></rect>
    </defs>
    <g id="Extension-Onboarding---Desktop" stroke="none" stroke-width="1" fill="none" fill-rule="evenodd">
        <g id="Group-2" transform="translate(54.000000, 0.000000)">
            <circle id="Oval" fill="#D4E300" cx="86" cy="70" r="70"></circle>
            <g id="firefox-hero" transform="translate(0.000000, 24.000000)">
                <rect id="Rectangle" fill="url(#linearGradient-1)" x="1.0658141e-14" y="11.7007772" width="96.4702073" height="57.9987047" rx="2.91450777"></rect>
                <g id="Group-4" transform="translate(4.371762, 7.329016)">
                    <mask id="mask-3" fill="white">
                        <use xlink:href="#path-2"></use>
                    </mask>
                    <use id="Rectangle" fill="#F0EACF" xlink:href="#path-2"></use>
                    <rect id="Rectangle" fill="#001D2F" mask="url(#mask-3)" x="6.12046632" y="17.4870466" width="53.3354922" height="2.33160622" rx="1.16580311"></rect>
                    <rect id="Rectangle-Copy-8" fill="#001D2F" mask="url(#mask-3)" x="6.12046632" y="23.3160622" width="53.3354922" height="2.33160622" rx="1.16580311"></rect>
                    <rect id="Rectangle-Copy-9" fill="#001D2F" mask="url(#mask-3)" x="6.12046632" y="32.9339378" width="39.3458549" height="2.33160622" rx="1.16580311"></rect>
                    <rect id="Rectangle-Copy-13" fill="#001D2F" mask="url(#mask-3)" x="6.12046632" y="38.7629534" width="27.3963731" height="2.33160622" rx="1.16580311"></rect>
                    <rect id="Rectangle" fill="url(#linearGradient-4)" mask="url(#mask-3)" x="0" y="0" width="96.4702073" height="8.16062176"></rect>
                </g>
                <path d="M83.1878238,0 L103.279479,0 C104.450402,8.66668908e-15 105.614148,0.182801466 106.728679,0.54180135 L168.436225,20.4183168 C170.202729,20.9873225 171.400259,22.6311785 171.400259,24.4870624 L171.400259,88.2124352 C171.400259,89.9293826 170.008398,91.3212435 168.291451,91.3212435 L127.84294,91.3212435 C125.905077,91.3212435 124.078019,90.4177066 122.901752,88.8776722 L82.6543852,36.183603 C82.0551799,35.3990905 81.7305699,34.4393089 81.7305699,33.4521378 L81.7305699,1.45725389 C81.7305699,0.652434788 82.3830047,5.9193208e-16 83.1878238,0 Z" id="Rectangle" fill="url(#linearGradient-5)"></path>
                <g id="Group-14" transform="translate(124.768135, 21.373057)">
                    <mask id="mask-8" fill="white">
                        <use xlink:href="#path-7"></use>
                    </mask>
                    <use id="Rectangle" fill="url(#linearGradient-6)" xlink:href="#path-7"></use>
                    <g id="Group" mask="url(#mask-8)">
                        <mask id="mask-10" fill="white">
                            <use xlink:href="#path-9"></use>
                        </mask>
                        <use id="Rectangle" fill="#0F866C" xlink:href="#path-9"></use>
                        <circle id="Oval" fill="url(#radialGradient-11)" mask="url(#mask-10)" cx="23.3160622" cy="26.4248705" r="34.1968912"></circle>
                        <circle id="Oval" fill="url(#radialGradient-11)" mask="url(#mask-10)" cx="23.3160622" cy="26.4248705" r="19.4300518"></circle>
                    </g>
                    <circle id="Oval" fill="#FFFFFF" mask="url(#mask-8)" cx="23.3160622" cy="26.8134715" r="8.16062176"></circle>
                    <g id="Connect-icon" mask="url(#mask-8)">
                        <g transform="translate(18.681347, 21.984456)" id="power-copy">
                            <g transform="translate(0.878238, 0.408679)">
                                <path d="M1.09972076,2.01648479 C1.28269996,1.83271598 1.58000795,1.83207588 1.76377676,2.01505507 C1.94754556,2.19803427 1.94818567,2.49534226 1.76520647,2.67911107 C0.663978889,3.78509078 0.664173342,5.57868606 1.76564043,6.68442476 C2.8660776,7.78912957 4.64933494,7.78912957 5.74977211,6.68442476 C6.85123919,5.57868606 6.85143365,3.78509078 5.75020606,2.67911107 C5.56722687,2.49534226 5.56786697,2.19803427 5.75163578,2.01505507 C5.93540458,1.83207588 6.23271258,1.83271598 6.41569177,2.01648479 C7.88182013,3.48893992 7.88156144,5.87506095 6.41511355,7.3471959 C4.94763576,8.82036475 2.56777677,8.82036475 1.10029898,7.3471959 C-0.3661489,5.87506095 -0.366407592,3.48893992 1.09972076,2.01648479 Z" id="Path" fill="#0F866C" fill-rule="nonzero"></path>
                                <path d="M3.75632299,-5.50656884e-10 C3.99712996,-7.87966782e-05 4.19565865,0.181125102 4.22285925,0.414646357 L4.22603624,0.469405888 L4.22726585,4.22588257 C4.22735071,4.48521316 4.01719055,4.69551094 3.75785997,4.69559586 C3.51705299,4.69567465 3.3185243,4.51447075 3.2913237,4.2809495 L3.28814671,4.22618997 L3.2869171,0.469713283 C3.28683224,0.210382699 3.4969924,8.49102051e-05 3.75632299,-5.50656884e-10 Z" id="Path" fill="#0F866C" fill-rule="nonzero"></path>
                            </g>
                        </g>
                    </g>
                </g>
                <g id="Group-14" transform="translate(81.730570, 0.000000)">
                    <mask id="mask-14" fill="white">
                        <use xlink:href="#path-13"></use>
                    </mask>
                    <use id="Rectangle" fill="url(#linearGradient-12)" xlink:href="#path-13"></use>
                    <g id="Group" mask="url(#mask-14)">
                        <mask id="mask-16" fill="white">
                            <use xlink:href="#path-15"></use>
                        </mask>
                        <use id="Rectangle" fill="#0F866C" xlink:href="#path-15"></use>
                        <circle id="Oval" fill="url(#radialGradient-11)" mask="url(#mask-16)" cx="11.6580311" cy="13.2124352" r="17.0984456"></circle>
                        <circle id="Oval" fill="url(#radialGradient-11)" mask="url(#mask-16)" cx="11.6580311" cy="13.2124352" r="9.71502591"></circle>
                    </g>
                    <circle id="Oval" fill="#FFFFFF" mask="url(#mask-14)" cx="11.6580311" cy="13.4067358" r="4.08031088"></circle>
                    <g id="Connect-icon" mask="url(#mask-14)">
                        <g transform="translate(8.840674, 10.492228)" id="power-copy">
                            <g transform="translate(0.939119, 0.704339)">
                                <path d="M0.549860382,1.00824239 C0.641349979,0.916357991 0.790003977,0.916037939 0.881888379,1.00752754 C0.973772782,1.09901713 0.974092834,1.24767113 0.882603237,1.33955553 C0.331989444,1.89254539 0.332086671,2.78934303 0.882820213,3.34221238 C1.4330388,3.89456478 2.32466747,3.89456478 2.87488605,3.34221238 C3.4256196,2.78934303 3.42571682,1.89254539 2.87510303,1.33955553 C2.78361343,1.24767113 2.78393349,1.09901713 2.87581789,1.00752754 C2.96770229,0.916037939 3.11635629,0.916357991 3.20784589,1.00824239 C3.94091006,1.74446996 3.94078072,2.93753048 3.20755678,3.67359795 C2.47381788,4.41018238 1.28388839,4.41018238 0.550149491,3.67359795 C-0.18307445,2.93753048 -0.183203796,1.74446996 0.549860382,1.00824239 Z" id="Path" fill="#0F866C" fill-rule="nonzero"></path>
                                <path d="M1.87816149,-2.75328442e-10 C1.99856498,-3.93983391e-05 2.09782933,0.0905625508 2.11142962,0.207323179 L2.11301812,0.234702944 L2.11363293,2.11294129 C2.11367536,2.24260658 2.00859528,2.34775547 1.87892998,2.34779793 C1.7585265,2.34783733 1.65926215,2.25723538 1.64566185,2.14047475 L1.64407335,2.11309498 L1.64345855,0.234856642 C1.64341612,0.10519135 1.7484962,4.24551026e-05 1.87816149,-2.75328442e-10 Z" id="Path" fill="#0F866C" fill-rule="nonzero"></path>
                            </g>
                        </g>
                    </g>
                </g>
            </g>
        </g>
    </g>
</svg>