<?xml version="1.0" encoding="UTF-8"?>
<svg width="280px" height="140px" viewBox="0 0 280 140" version="1.1" xmlns="http://www.w3.org/2000/svg" xmlns:xlink="http://www.w3.org/1999/xlink">
    <title>Extension Onboarding - WebRTC</title>
    <defs>
        <linearGradient x1="-13.0906253%" y1="73.9547973%" x2="39.8019337%" y2="35.8537869%" id="linearGradient-1">
            <stop stop-color="#001D2F" offset="0%"></stop>
            <stop stop-color="#B6D1D0" offset="100%"></stop>
        </linearGradient>
        <linearGradient x1="36.7560795%" y1="33.1261589%" x2="136.443603%" y2="102.522618%" id="linearGradient-2">
            <stop stop-color="#F0EACF" offset="0%"></stop>
            <stop stop-color="#B6D1D0" offset="100%"></stop>
        </linearGradient>
        <rect id="path-3" x="0" y="0" width="144.705311" height="86.998057" rx="4.37176166"></rect>
        <linearGradient x1="0%" y1="48.595916%" x2="50%" y2="51.2842177%" id="linearGradient-5">
            <stop stop-color="#B6D1D0" offset="0%"></stop>
            <stop stop-color="#001D2F" offset="100%"></stop>
        </linearGradient>
    </defs>
    <g id="Extension-Onboarding---WebRTC" stroke="none" stroke-width="1" fill="none" fill-rule="evenodd">
        <g id="Group-3" transform="translate(64.000000, 0.000000)">
            <circle id="Oval" fill="#B6D1D0" cx="76" cy="70" r="70"></circle>
            <g id="Group" transform="translate(0.000000, 23.000000)">
                <g id="firefox-hero">
                    <rect id="Rectangle" fill="url(#linearGradient-1)" x="0" y="6.6761658" width="144.705311" height="86.998057" rx="4.37176166"></rect>
                    <g id="Group-4" transform="translate(6.557642, 0.118523)">
                        <mask id="mask-4" fill="white">
                            <use xlink:href="#path-3"></use>
                        </mask>
                        <use id="Rectangle" fill="url(#linearGradient-2)" xlink:href="#path-3"></use>
                        <g id="solid/[Pin-off]-" mask="url(#mask-4)">
                            <g transform="translate(58.192358, 25.631477)" id="icon-(outlines)">
                                <g transform="translate(0.500000, 0.500000)">
                                    <path d="M13.5,0 C19.3295328,0 24,5.09505504 24,11.3181817 C24,12.7266367 23.7356677,14.140725 23.2364257,15.5517559 C22.9601026,16.3327405 22.1029853,16.7418496 21.3220006,16.4655265 C20.541016,16.1892034 20.1319069,15.3320861 20.40823,14.5511015 C20.7982931,13.448648 21,12.3695845 21,11.3181817 C21,6.69644435 17.6115926,3 13.5,3 C12.2729013,3 11.0900469,3.32648258 10.0259814,3.94537143 C9.30987215,4.36187963 8.39170432,4.11900502 7.97519612,3.40289579 C7.55868792,2.68678657 7.80156253,1.76861874 8.51767176,1.35211053 C10.0345981,0.469825736 11.7367883,0 13.5,0 Z" id="Path" fill="#001D2F" fill-rule="nonzero"></path>
                                    <path d="M4.68257839,5.16882975 C3.58959797,6.98725876 3,9.10825121 3,11.3181817 C3,15.0897886 4.84036971,18.770528 7.86745032,22.2562572 C8.90128693,23.4467358 10.0052899,24.5306659 11.1100484,25.4903552 L11.582955,25.8938296 C12.027128,26.265643 12.3818394,26.5415383 12.6177424,26.7131041 C13.1437182,27.095632 13.8562818,27.095632 14.3822576,26.7131041 L14.6566764,26.5070733 C14.9685243,26.2668891 15.3893983,25.9251792 15.8899516,25.4903552 C16.9947101,24.5306659 18.0987131,23.4467358 19.1325497,22.2562572 C19.6848604,21.620263 20.2031414,20.9690053 20.6813325,20.3036871 C21.1103631,19.7067671 21.0435937,18.8868857 20.5236332,18.3672496 L7.02854676,4.88058177 C6.33877345,4.19123877 5.18495543,4.33300781 4.68257839,5.16882975 Z" id="Path" fill="#001D2F" fill-rule="nonzero"></path>
                                    <path d="M13.5,6 C15.9852814,6 18,8.01471863 18,10.5 C18,12.9852814 15.9852814,15 13.5,15 C12.6715729,15 12,14.3284271 12,13.5 C12,12.7307462 12.5790603,12.0967393 13.3250683,12.0100916 L13.5,12 C14.3284271,12 15,11.3284271 15,10.5 C15,9.67157288 14.3284271,9 13.5,9 C12.7307462,9 12.0967393,9.57906029 12.0100916,10.3250683 L12,10.5 C12,11.3284271 11.3284271,12 10.5,12 C9.67157288,12 9,11.3284271 9,10.5 C9,8.01471863 11.0147186,6 13.5,6 Z" id="Path" fill="#001D2F" fill-rule="nonzero"></path>
                                    <path d="M0.439339828,0.439339828 C0.980065771,-0.101386114 1.83091235,-0.142980417 2.41934916,0.314556918 L2.56066017,0.439339828 L26.5606602,24.4393398 C27.1464466,25.0251263 27.1464466,25.9748737 26.5606602,26.5606602 C26.0199342,27.1013861 25.1690876,27.1429804 24.5806508,26.6854431 L24.4393398,26.5606602 L0.439339828,2.56066017 C-0.146446609,1.97487373 -0.146446609,1.02512627 0.439339828,0.439339828 Z" id="Path-Copy" fill="#001D2F" fill-rule="nonzero"></path>
                                </g>
                            </g>
                        </g>
                        <rect id="Rectangle" fill="url(#linearGradient-5)" mask="url(#mask-4)" x="0" y="0" width="144.705311" height="12.2409326"></rect>
                    </g>
                </g>
                <path d="M39.872625,70.552 L41.906625,70.048 L41.060625,68.176 L43.040625,69.238 L43.148625,69.202 L43.292625,67.132 L41.294625,67.348 L42.878625,65.818 L42.860625,65.71 L40.952625,64.954 L40.538625,66.952 L39.548625,64.972 L39.440625,64.936 L38.108625,66.502 L39.908625,67.492 L37.676625,67.834 L37.622625,67.906 L38.720625,69.652 L40.250625,68.212 L39.836625,70.48 L39.872625,70.552 Z M46.746375,70.552 L48.780375,70.048 L47.934375,68.176 L49.914375,69.238 L50.022375,69.202 L50.166375,67.132 L48.168375,67.348 L49.752375,65.818 L49.734375,65.71 L47.826375,64.954 L47.412375,66.952 L46.422375,64.972 L46.314375,64.936 L44.982375,66.502 L46.782375,67.492 L44.550375,67.834 L44.496375,67.906 L45.594375,69.652 L47.124375,68.212 L46.710375,70.48 L46.746375,70.552 Z M53.620125,70.552 L55.654125,70.048 L54.808125,68.176 L56.788125,69.238 L56.896125,69.202 L57.040125,67.132 L55.042125,67.348 L56.626125,65.818 L56.608125,65.71 L54.700125,64.954 L54.286125,66.952 L53.296125,64.972 L53.188125,64.936 L51.856125,66.502 L53.656125,67.492 L51.424125,67.834 L51.370125,67.906 L52.468125,69.652 L53.998125,68.212 L53.584125,70.48 L53.620125,70.552 Z M65.369625,70.552 L67.403625,70.048 L66.557625,68.176 L68.537625,69.238 L68.645625,69.202 L68.789625,67.132 L66.791625,67.348 L68.375625,65.818 L68.357625,65.71 L66.449625,64.954 L66.035625,66.952 L65.045625,64.972 L64.937625,64.936 L63.605625,66.502 L65.405625,67.492 L63.173625,67.834 L63.119625,67.906 L64.217625,69.652 L65.747625,68.212 L65.333625,70.48 L65.369625,70.552 Z M72.243375,70.552 L74.277375,70.048 L73.431375,68.176 L75.411375,69.238 L75.519375,69.202 L75.663375,67.132 L73.665375,67.348 L75.249375,65.818 L75.231375,65.71 L73.323375,64.954 L72.909375,66.952 L71.919375,64.972 L71.811375,64.936 L70.479375,66.502 L72.279375,67.492 L70.047375,67.834 L69.993375,67.906 L71.091375,69.652 L72.621375,68.212 L72.207375,70.48 L72.243375,70.552 Z M83.992875,70.552 L86.026875,70.048 L85.180875,68.176 L87.160875,69.238 L87.268875,69.202 L87.412875,67.132 L85.414875,67.348 L86.998875,65.818 L86.980875,65.71 L85.072875,64.954 L84.658875,66.952 L83.668875,64.972 L83.560875,64.936 L82.228875,66.502 L84.028875,67.492 L81.796875,67.834 L81.742875,67.906 L82.840875,69.652 L84.370875,68.212 L83.956875,70.48 L83.992875,70.552 Z M90.866625,70.552 L92.900625,70.048 L92.054625,68.176 L94.034625,69.238 L94.142625,69.202 L94.286625,67.132 L92.288625,67.348 L93.872625,65.818 L93.854625,65.71 L91.946625,64.954 L91.532625,66.952 L90.542625,64.972 L90.434625,64.936 L89.102625,66.502 L90.902625,67.492 L88.670625,67.834 L88.616625,67.906 L89.714625,69.652 L91.244625,68.212 L90.830625,70.48 L90.866625,70.552 Z M97.740375,70.552 L99.774375,70.048 L98.928375,68.176 L100.908375,69.238 L101.016375,69.202 L101.160375,67.132 L99.162375,67.348 L100.746375,65.818 L100.728375,65.71 L98.820375,64.954 L98.406375,66.952 L97.416375,64.972 L97.308375,64.936 L95.976375,66.502 L97.776375,67.492 L95.544375,67.834 L95.490375,67.906 L96.588375,69.652 L98.118375,68.212 L97.704375,70.48 L97.740375,70.552 Z M109.489875,70.552 L111.523875,70.048 L110.677875,68.176 L112.657875,69.238 L112.765875,69.202 L112.909875,67.132 L110.911875,67.348 L112.495875,65.818 L112.477875,65.71 L110.569875,64.954 L110.155875,66.952 L109.165875,64.972 L109.057875,64.936 L107.725875,66.502 L109.525875,67.492 L107.293875,67.834 L107.239875,67.906 L108.337875,69.652 L109.867875,68.212 L109.453875,70.48 L109.489875,70.552 Z M116.363625,70.552 L118.397625,70.048 L117.551625,68.176 L119.531625,69.238 L119.639625,69.202 L119.783625,67.132 L117.785625,67.348 L119.369625,65.818 L119.351625,65.71 L117.443625,64.954 L117.029625,66.952 L116.039625,64.972 L115.931625,64.936 L114.599625,66.502 L116.399625,67.492 L114.167625,67.834 L114.113625,67.906 L115.211625,69.652 L116.741625,68.212 L116.327625,70.48 L116.363625,70.552 Z" id="**********" fill="#001D2F" fill-rule="nonzero"></path>
                <path d="M60.397875,74.698 C61.153875,74.698 61.693875,74.176 61.693875,73.492 C61.693875,72.79 61.153875,72.25 60.397875,72.25 C59.659875,72.25 59.101875,72.79 59.101875,73.492 C59.101875,74.176 59.659875,74.698 60.397875,74.698 Z M79.828875,74.698 C80.584875,74.698 81.124875,74.176 81.124875,73.492 C81.124875,72.79 80.584875,72.25 79.828875,72.25 C79.090875,72.25 78.532875,72.79 78.532875,73.492 C78.532875,74.176 79.090875,74.698 79.828875,74.698 Z M104.135625,74.698 C104.891625,74.698 105.431625,74.176 105.431625,73.492 C105.431625,72.79 104.891625,72.25 104.135625,72.25 C103.397625,72.25 102.839625,72.79 102.839625,73.492 C102.839625,74.176 103.397625,74.698 104.135625,74.698 Z" id="..." fill="#001D2F" fill-rule="nonzero"></path>
            </g>
        </g>
    </g>
</svg>